<svg width="64" height="64" viewBox="0 0 64 64" fill="none" xmlns="http://www.w3.org/2000/svg">
<path d="M0 24C0 12.6863 0 7.02944 3.51472 3.51472C7.02944 0 12.6863 0 24 0H40C51.3137 0 56.9706 0 60.4853 3.51472C64 7.02944 64 12.6863 64 24V40C64 51.3137 64 56.9706 60.4853 60.4853C56.9706 64 51.3137 64 40 64H24C12.6863 64 7.02944 64 3.51472 60.4853C0 56.9706 0 51.3137 0 40V24Z" fill="black"/>
<path d="M30.6069 45.3446H20.1694V34.9079H30.6069V45.3446Z" fill="url(#paint0_linear_690_468)"/>
<path d="M43.8304 42.7797H33.3937V32.343H43.8304V42.7797Z" fill="url(#paint1_linear_690_468)"/>
<path d="M30.6069 31.6571H20.1694V21.2204H30.6069V31.6571Z" fill="url(#paint2_linear_690_468)"/>
<path d="M43.8304 29.0922H33.3937V18.6555H43.8304V29.0922Z" fill="url(#paint3_linear_690_468)"/>
<defs>
<linearGradient id="paint0_linear_690_468" x1="34.88" y1="14.2434" x2="34.88" y2="42.0099" gradientUnits="userSpaceOnUse">
<stop offset="0.0990272" stop-color="white"/>
<stop offset="1" stop-color="#BB94FF"/>
</linearGradient>
<linearGradient id="paint1_linear_690_468" x1="34.88" y1="14.2434" x2="34.88" y2="42.0099" gradientUnits="userSpaceOnUse">
<stop offset="0.0990272" stop-color="white"/>
<stop offset="1" stop-color="#BB94FF"/>
</linearGradient>
<linearGradient id="paint2_linear_690_468" x1="34.88" y1="14.2434" x2="34.88" y2="42.0099" gradientUnits="userSpaceOnUse">
<stop offset="0.0990272" stop-color="white"/>
<stop offset="1" stop-color="#BB94FF"/>
</linearGradient>
<linearGradient id="paint3_linear_690_468" x1="34.88" y1="14.2434" x2="34.88" y2="42.0099" gradientUnits="userSpaceOnUse">
<stop offset="0.0990272" stop-color="white"/>
<stop offset="1" stop-color="#BB94FF"/>
</linearGradient>
</defs>
</svg>
