<svg width="64" height="64" viewBox="0 0 64 64" fill="none" xmlns="http://www.w3.org/2000/svg">
<path d="M0 24C0 12.6863 0 7.02944 3.51472 3.51472C7.02944 0 12.6863 0 24 0H40C51.3137 0 56.9706 0 60.4853 3.51472C64 7.02944 64 12.6863 64 24V40C64 51.3137 64 56.9706 60.4853 60.4853C56.9706 64 51.3137 64 40 64H24C12.6863 64 7.02944 64 3.51472 60.4853C0 56.9706 0 51.3137 0 40V24Z" fill="black"/>
<path fill-rule="evenodd" clip-rule="evenodd" d="M31.9998 17.9915C39.7363 17.9915 46.0083 24.2635 46.0084 32C46.0083 39.7366 39.7363 46.0086 31.9998 46.0086C24.2633 46.0086 17.9913 39.7366 17.9912 32C17.9913 24.2635 24.2633 17.9915 31.9998 17.9915ZM29.7686 34.2696L36.542 38.1805L38.142 35.4094L32.9686 32.4219V24.0625H29.7686V34.2696Z" fill="url(#paint0_linear_690_994)"/>
<defs>
<linearGradient id="paint0_linear_690_994" x1="35.4102" y1="13.3598" x2="35.4102" y2="42.508" gradientUnits="userSpaceOnUse">
<stop offset="0.0990272" stop-color="white"/>
<stop offset="1" stop-color="#BB94FF"/>
</linearGradient>
</defs>
</svg>
