<svg width="64" height="64" viewBox="0 0 64 64" fill="none" xmlns="http://www.w3.org/2000/svg">
<path d="M0 24C0 12.6863 0 7.02944 3.51472 3.51472C7.02944 0 12.6863 0 24 0H40C51.3137 0 56.9706 0 60.4853 3.51472C64 7.02944 64 12.6863 64 24V40C64 51.3137 64 56.9706 60.4853 60.4853C56.9706 64 51.3137 64 40 64H24C12.6863 64 7.02944 64 3.51472 60.4853C0 56.9706 0 51.3137 0 40V24Z" fill="black"/>
<path fill-rule="evenodd" clip-rule="evenodd" d="M26.2644 24.6193C27.905 23.6284 29.8238 22.9433 32 22.9433C39.9246 22.9433 44.453 31.9999 44.453 31.9999C44.453 31.9999 42.7631 35.3715 39.646 38.0009L43.6957 42.0505L42.0506 43.6956L37.7356 39.3806C36.0951 40.3715 34.1763 41.0566 32 41.0566C24.0755 41.0566 19.5471 31.9999 19.5471 31.9999C19.5471 31.9999 21.2359 28.6273 24.353 25.9979L20.3044 21.9494L21.9495 20.3043L26.2644 24.6193ZM27.9858 29.6308C27.5751 30.325 27.339 31.1349 27.339 31.9999C27.339 34.5741 29.4258 36.661 32 36.661C32.865 36.661 33.6739 36.4236 34.3681 36.0131L27.9858 29.6308ZM32 27.3389C31.135 27.3389 30.3251 27.575 29.6309 27.9857L36.0132 34.368C36.4237 33.6738 36.6611 32.8649 36.6611 31.9999C36.6611 29.4257 34.5743 27.3389 32 27.3389Z" fill="url(#paint0_linear_690_595)"/>
<defs>
<linearGradient id="paint0_linear_690_595" x1="35.0317" y1="16.4374" x2="35.0317" y2="40.7729" gradientUnits="userSpaceOnUse">
<stop offset="0.0990272" stop-color="white"/>
<stop offset="1" stop-color="#BB94FF"/>
</linearGradient>
</defs>
</svg>
