<svg width="64" height="64" viewBox="0 0 64 64" fill="none" xmlns="http://www.w3.org/2000/svg">
<path d="M0 24C0 12.6863 0 7.02944 3.51472 3.51472C7.02944 0 12.6863 0 24 0H40C51.3137 0 56.9706 0 60.4853 3.51472C64 7.02944 64 12.6863 64 24V40C64 51.3137 64 56.9706 60.4853 60.4853C56.9706 64 51.3137 64 40 64H24C12.6863 64 7.02944 64 3.51472 60.4853C0 56.9706 0 51.3137 0 40V24Z" fill="black"/>
<path fill-rule="evenodd" clip-rule="evenodd" d="M32.0003 17.9915C39.7369 17.9915 46.0089 24.2635 46.0089 32C46.0088 39.7366 39.7368 46.0086 32.0003 46.0086C24.2637 46.0086 17.9918 39.7366 17.9917 32C17.9917 24.2634 24.2637 17.9915 32.0003 17.9915ZM31.0792 22.2446C30.9203 22.2446 30.7897 22.295 30.6886 22.3961C30.5874 22.4973 30.537 22.6278 30.537 22.7868V24.304C29.0773 24.5063 27.9284 25.0126 27.0901 25.8219C26.2665 26.6312 25.8543 27.6136 25.8542 28.7696C25.8542 29.6655 26.0566 30.4173 26.4612 31.0243C26.8659 31.6168 27.4515 32.1009 28.2175 32.4766C28.9979 32.8379 29.9371 33.1344 31.0354 33.3657C31.888 33.5391 32.5672 33.7126 33.0729 33.886C33.5932 34.045 33.9691 34.2259 34.2003 34.4282C34.4315 34.6304 34.5471 34.8975 34.5472 35.2297C34.5472 35.6777 34.3307 36.0321 33.8972 36.2922C33.4781 36.5524 32.8494 36.6828 32.0112 36.6829C31.5056 36.6829 31.0791 36.625 30.7323 36.5094C30.3999 36.3794 30.1249 36.2125 29.9081 36.0102C29.706 35.808 29.5471 35.5987 29.4315 35.3821C29.3448 35.2665 29.2433 35.1723 29.1276 35.1C29.0265 35.0279 28.875 34.9915 28.6729 34.9915H25.9409C25.8109 34.9915 25.6952 35.0419 25.594 35.143C25.5073 35.2297 25.4644 35.3313 25.4644 35.4469C25.4933 36.1117 25.6956 36.7404 26.0714 37.3329C26.4471 37.9253 27.0032 38.4384 27.7401 38.8719C28.4917 39.291 29.4242 39.5661 30.537 39.6961V41.2133C30.537 41.3578 30.5874 41.4809 30.6886 41.5821C30.7897 41.6976 30.9203 41.7555 31.0792 41.7555H32.8784C33.0227 41.7555 33.1453 41.6974 33.2464 41.5821C33.362 41.4809 33.4198 41.3578 33.4198 41.2133V39.6961C34.4459 39.5661 35.3422 39.2984 36.1081 38.8938C36.8741 38.4891 37.4671 37.9613 37.8862 37.311C38.3197 36.6607 38.5362 35.9089 38.5362 35.0563C38.5362 34.175 38.3486 33.4452 37.9729 32.8672C37.5972 32.2747 37.0042 31.7973 36.1948 31.436C35.3855 31.0603 34.3231 30.7496 33.0081 30.504C32.2133 30.3305 31.5846 30.1645 31.1222 30.0055C30.6742 29.8466 30.3487 29.659 30.1464 29.4422C29.9585 29.2255 29.8651 28.9719 29.8651 28.6829C29.8652 28.2205 30.0387 27.8809 30.3854 27.6641C30.7467 27.433 31.2451 27.3173 31.8808 27.3172C32.4589 27.3172 32.9363 27.4403 33.312 27.686C33.6876 27.9171 33.919 28.1916 34.0058 28.5094C34.0925 28.6395 34.1933 28.7336 34.3089 28.7915C34.4244 28.8492 34.5617 28.8781 34.7206 28.8782H37.5823C37.7123 28.8782 37.8207 28.835 37.9073 28.7485C37.994 28.6473 38.0378 28.5383 38.0378 28.4227C38.0233 27.9025 37.835 27.3605 37.4737 26.7969C37.1269 26.2334 36.6138 25.7277 35.9347 25.2797C35.2554 24.8317 34.417 24.5211 33.4198 24.3477V22.7868C33.4198 22.6278 33.362 22.4973 33.2464 22.3961C33.1453 22.2952 33.0227 22.2446 32.8784 22.2446H31.0792Z" fill="url(#paint0_linear_690_71)"/>
<defs>
<linearGradient id="paint0_linear_690_71" x1="35.4107" y1="13.3598" x2="35.4107" y2="42.508" gradientUnits="userSpaceOnUse">
<stop offset="0.0990272" stop-color="white"/>
<stop offset="1" stop-color="#BB94FF"/>
</linearGradient>
</defs>
</svg>
