<svg width="748" height="748" viewBox="0 0 748 748" fill="none" xmlns="http://www.w3.org/2000/svg">
<g filter="url(#filter0_dd_635_6558)">
<path d="M687.561 39.5352H60.4392C48.8942 39.5352 39.5352 48.8942 39.5352 60.4392V687.561C39.5352 699.106 48.8942 708.465 60.4392 708.465H687.561C699.106 708.465 708.465 699.106 708.465 687.561V60.4392C708.465 48.8942 699.106 39.5352 687.561 39.5352Z" fill="white"/>
</g>
<path d="M100.197 93.2323V108.676H96.4353V99.4143L92.9813 108.676H89.9453L86.4693 99.3923V108.676H82.7073V93.2323H87.1513L91.4853 103.924L95.7753 93.2323H100.197ZM108.491 108.852C107.288 108.852 106.203 108.596 105.235 108.082C104.281 107.569 103.526 106.836 102.969 105.882C102.426 104.929 102.155 103.814 102.155 102.538C102.155 101.277 102.433 100.17 102.991 99.2163C103.548 98.2483 104.311 97.5076 105.279 96.9943C106.247 96.4809 107.332 96.2243 108.535 96.2243C109.737 96.2243 110.823 96.4809 111.791 96.9943C112.759 97.5076 113.521 98.2483 114.079 99.2163C114.636 100.17 114.915 101.277 114.915 102.538C114.915 103.8 114.629 104.914 114.057 105.882C113.499 106.836 112.729 107.569 111.747 108.082C110.779 108.596 109.693 108.852 108.491 108.852ZM108.491 105.618C109.209 105.618 109.818 105.354 110.317 104.826C110.83 104.284 111.087 103.521 111.087 102.538C111.087 101.556 110.837 100.8 110.339 100.272C109.855 99.7296 109.253 99.4583 108.535 99.4583C107.801 99.4583 107.193 99.7223 106.709 100.25C106.225 100.778 105.983 101.541 105.983 102.538C105.983 103.521 106.217 104.284 106.687 104.826C107.171 105.354 107.772 105.618 108.491 105.618ZM122.432 105.156L125.094 96.4003H129.12L124.764 108.676H120.1L115.744 96.4003H119.77L122.432 105.156ZM142.254 102.318C142.254 102.656 142.232 103.015 142.188 103.396H133.674C133.733 104.174 133.975 104.768 134.4 105.178C134.825 105.589 135.361 105.794 136.006 105.794C136.945 105.794 137.597 105.398 137.964 104.606H141.968C141.763 105.413 141.389 106.139 140.846 106.784C140.318 107.43 139.651 107.936 138.844 108.302C138.037 108.669 137.135 108.852 136.138 108.852C134.935 108.852 133.865 108.596 132.926 108.082C131.987 107.569 131.254 106.836 130.726 105.882C130.198 104.929 129.934 103.814 129.934 102.538C129.934 101.262 130.191 100.148 130.704 99.1943C131.232 98.2409 131.965 97.5076 132.904 96.9943C133.843 96.4809 134.921 96.2243 136.138 96.2243C137.326 96.2243 138.382 96.4736 139.306 96.9723C140.23 97.4709 140.949 98.1823 141.462 99.1063C141.99 100.03 142.254 101.101 142.254 102.318ZM138.404 101.482C138.404 100.778 138.184 100.228 137.744 99.8323C137.304 99.4363 136.754 99.2383 136.094 99.2383C135.449 99.2383 134.906 99.4363 134.466 99.8323C134.041 100.214 133.777 100.764 133.674 101.482H138.404ZM153.699 99.3923V102.516H144.019V99.3923H153.699ZM160.762 93.2323V108.676H157V93.2323H160.762ZM170.969 96.2683C172.406 96.2683 173.55 96.7376 174.401 97.6763C175.266 98.6003 175.699 99.8763 175.699 101.504V108.676H171.959V102.01C171.959 101.189 171.746 100.551 171.321 100.096C170.895 99.6416 170.323 99.4143 169.605 99.4143C168.886 99.4143 168.314 99.6416 167.889 100.096C167.463 100.551 167.251 101.189 167.251 102.01V108.676H163.489V96.4003H167.251V98.0283C167.632 97.4856 168.145 97.0603 168.791 96.7523C169.436 96.4296 170.162 96.2683 170.969 96.2683ZM189.191 93.2323C190.819 93.2323 192.241 93.5549 193.459 94.2003C194.676 94.8456 195.615 95.7549 196.275 96.9283C196.949 98.0869 197.287 99.4289 197.287 100.954C197.287 102.465 196.949 103.807 196.275 104.98C195.615 106.154 194.669 107.063 193.437 107.708C192.219 108.354 190.804 108.676 189.191 108.676H183.405V93.2323H189.191ZM188.949 105.464C190.371 105.464 191.479 105.068 192.271 104.276C193.063 103.484 193.459 102.377 193.459 100.954C193.459 99.5316 193.063 98.4243 192.271 97.6323C191.479 96.8403 190.371 96.4443 188.949 96.4443H187.167V105.464H188.949ZM198.641 102.516C198.641 101.255 198.876 100.148 199.345 99.1943C199.829 98.2409 200.482 97.5076 201.303 96.9943C202.124 96.4809 203.041 96.2243 204.053 96.2243C204.918 96.2243 205.674 96.4003 206.319 96.7523C206.979 97.1043 207.485 97.5663 207.837 98.1383V96.4003H211.599V108.676H207.837V106.938C207.47 107.51 206.957 107.972 206.297 108.324C205.652 108.676 204.896 108.852 204.031 108.852C203.034 108.852 202.124 108.596 201.303 108.082C200.482 107.554 199.829 106.814 199.345 105.86C198.876 104.892 198.641 103.778 198.641 102.516ZM207.837 102.538C207.837 101.6 207.573 100.859 207.045 100.316C206.532 99.7736 205.901 99.5023 205.153 99.5023C204.405 99.5023 203.767 99.7736 203.239 100.316C202.726 100.844 202.469 101.578 202.469 102.516C202.469 103.455 202.726 104.203 203.239 104.76C203.767 105.303 204.405 105.574 205.153 105.574C205.901 105.574 206.532 105.303 207.045 104.76C207.573 104.218 207.837 103.477 207.837 102.538ZM217.137 96.4003L219.975 104.078L222.791 96.4003H226.861L219.161 114.506H215.113L217.929 108.258L212.935 96.4003H217.137Z" fill="#111827"/>
<path d="M647.843 314.61H100.157C89.7664 314.61 81.3433 323.033 81.3433 333.424V546.645C81.3433 557.035 89.7664 565.458 100.157 565.458H647.843C658.234 565.458 666.657 557.035 666.657 546.645V333.424C666.657 323.033 658.234 314.61 647.843 314.61Z" fill="#EDE9FE"/>
<path d="M374 419.583C392.472 419.583 407.447 404.608 407.447 386.136C407.447 367.664 392.472 352.69 374 352.69C355.528 352.69 340.554 367.664 340.554 386.136C340.554 404.608 355.528 419.583 374 419.583Z" fill="white"/>
<path d="M382.362 381.956H365.639C363.907 381.956 362.503 383.359 362.503 385.091V399.724C362.503 401.456 363.907 402.86 365.639 402.86H382.362C384.094 402.86 385.497 401.456 385.497 399.724V385.091C385.497 383.359 384.094 381.956 382.362 381.956Z" fill="#7E3CEF"/>
<path d="M366.684 381.956V378.73C366.684 376.789 367.454 374.928 368.827 373.556C370.199 372.184 372.06 371.413 374 371.413C375.94 371.413 377.801 372.184 379.174 373.556C380.546 374.928 381.316 376.789 381.316 378.73V381.956" stroke="#7E3CEF" stroke-width="4" stroke-linecap="round" stroke-linejoin="round"/>
<path d="M374 394.498C375.154 394.498 376.09 393.562 376.09 392.407C376.09 391.253 375.154 390.317 374 390.317C372.845 390.317 371.909 391.253 371.909 392.407C371.909 393.562 372.845 394.498 374 394.498Z" fill="white"/>
<path d="M374 394.498V398.679" stroke="white" stroke-linecap="round" stroke-linejoin="round"/>
<path d="M336.22 452.037H334.408L337.169 444.037H339.349L342.107 452.037H340.294L338.291 445.865H338.228L336.22 452.037ZM336.107 448.892H340.388V450.212H336.107V448.892ZM349.752 446.837H348.042C348.01 446.616 347.946 446.419 347.85 446.248C347.754 446.073 347.63 445.925 347.479 445.802C347.328 445.68 347.153 445.586 346.956 445.521C346.76 445.456 346.548 445.423 346.319 445.423C345.905 445.423 345.544 445.526 345.237 445.732C344.93 445.935 344.691 446.232 344.522 446.623C344.353 447.011 344.268 447.482 344.268 448.037C344.268 448.607 344.353 449.086 344.522 449.474C344.694 449.862 344.933 450.155 345.241 450.353C345.548 450.551 345.903 450.65 346.307 450.65C346.534 450.65 346.743 450.62 346.936 450.56C347.131 450.5 347.305 450.413 347.456 450.298C347.607 450.181 347.732 450.039 347.831 449.873C347.932 449.706 348.002 449.516 348.042 449.302L349.752 449.31C349.708 449.677 349.597 450.031 349.42 450.373C349.246 450.711 349.01 451.014 348.713 451.283C348.419 451.548 348.068 451.759 347.659 451.916C347.252 452.069 346.793 452.146 346.28 452.146C345.566 452.146 344.928 451.985 344.366 451.662C343.806 451.339 343.363 450.871 343.038 450.259C342.715 449.647 342.553 448.906 342.553 448.037C342.553 447.164 342.717 446.422 343.045 445.81C343.374 445.198 343.819 444.732 344.381 444.412C344.944 444.089 345.577 443.927 346.28 443.927C346.743 443.927 347.173 443.992 347.569 444.123C347.967 444.253 348.32 444.443 348.627 444.693C348.935 444.94 349.185 445.244 349.377 445.603C349.573 445.962 349.698 446.374 349.752 446.837ZM358.024 446.837H356.313C356.282 446.616 356.218 446.419 356.122 446.248C356.025 446.073 355.902 445.925 355.75 445.802C355.599 445.68 355.425 445.586 355.227 445.521C355.032 445.456 354.819 445.423 354.59 445.423C354.176 445.423 353.816 445.526 353.508 445.732C353.201 445.935 352.963 446.232 352.793 446.623C352.624 447.011 352.54 447.482 352.54 448.037C352.54 448.607 352.624 449.086 352.793 449.474C352.965 449.862 353.205 450.155 353.512 450.353C353.819 450.551 354.175 450.65 354.579 450.65C354.805 450.65 355.015 450.62 355.208 450.56C355.403 450.5 355.576 450.413 355.727 450.298C355.878 450.181 356.003 450.039 356.102 449.873C356.204 449.706 356.274 449.516 356.313 449.302L358.024 449.31C357.98 449.677 357.869 450.031 357.692 450.373C357.517 450.711 357.282 451.014 356.985 451.283C356.691 451.548 356.339 451.759 355.93 451.916C355.524 452.069 355.064 452.146 354.551 452.146C353.838 452.146 353.2 451.985 352.637 451.662C352.077 451.339 351.635 450.871 351.309 450.259C350.986 449.647 350.825 448.906 350.825 448.037C350.825 447.164 350.989 446.422 351.317 445.81C351.645 445.198 352.09 444.732 352.653 444.412C353.215 444.089 353.848 443.927 354.551 443.927C355.015 443.927 355.444 443.992 355.84 444.123C356.239 444.253 356.592 444.443 356.899 444.693C357.206 444.94 357.456 445.244 357.649 445.603C357.844 445.962 357.969 446.374 358.024 446.837ZM359.237 452.037V444.037H364.627V445.431H360.928V447.337H364.35V448.732H360.928V450.642H364.643V452.037H359.237ZM370.312 446.337C370.281 446.022 370.147 445.778 369.91 445.603C369.673 445.429 369.351 445.341 368.945 445.341C368.669 445.341 368.436 445.38 368.246 445.458C368.056 445.534 367.91 445.639 367.808 445.775C367.709 445.91 367.66 446.064 367.66 446.236C367.654 446.379 367.684 446.504 367.75 446.611C367.817 446.718 367.91 446.81 368.027 446.888C368.144 446.964 368.279 447.03 368.433 447.087C368.587 447.142 368.751 447.189 368.925 447.228L369.644 447.4C369.993 447.478 370.313 447.582 370.605 447.712C370.897 447.843 371.149 448.003 371.363 448.193C371.576 448.383 371.742 448.607 371.859 448.865C371.979 449.123 372.04 449.418 372.042 449.751C372.04 450.241 371.915 450.666 371.667 451.025C371.423 451.382 371.069 451.659 370.605 451.857C370.144 452.052 369.588 452.15 368.937 452.15C368.291 452.15 367.729 452.051 367.25 451.853C366.773 451.655 366.401 451.362 366.132 450.974C365.867 450.583 365.727 450.1 365.714 449.525H367.351C367.369 449.793 367.446 450.017 367.582 450.197C367.72 450.374 367.903 450.508 368.132 450.599C368.364 450.688 368.626 450.732 368.917 450.732C369.204 450.732 369.453 450.69 369.664 450.607C369.877 450.524 370.042 450.408 370.16 450.259C370.277 450.111 370.335 449.94 370.335 449.748C370.335 449.568 370.282 449.417 370.175 449.294C370.071 449.172 369.917 449.068 369.714 448.982C369.514 448.896 369.268 448.818 368.976 448.748L368.105 448.529C367.431 448.365 366.898 448.108 366.507 447.759C366.117 447.41 365.923 446.94 365.925 446.349C365.923 445.865 366.052 445.442 366.312 445.08C366.575 444.718 366.936 444.435 367.394 444.232C367.852 444.029 368.373 443.927 368.957 443.927C369.55 443.927 370.069 444.029 370.511 444.232C370.957 444.435 371.303 444.718 371.55 445.08C371.798 445.442 371.925 445.861 371.933 446.337H370.312ZM377.52 446.337C377.489 446.022 377.355 445.778 377.118 445.603C376.881 445.429 376.559 445.341 376.153 445.341C375.877 445.341 375.644 445.38 375.454 445.458C375.264 445.534 375.118 445.639 375.016 445.775C374.917 445.91 374.868 446.064 374.868 446.236C374.862 446.379 374.892 446.504 374.958 446.611C375.025 446.718 375.118 446.81 375.235 446.888C375.352 446.964 375.487 447.03 375.641 447.087C375.795 447.142 375.959 447.189 376.133 447.228L376.852 447.4C377.201 447.478 377.521 447.582 377.813 447.712C378.105 447.843 378.357 448.003 378.571 448.193C378.784 448.383 378.95 448.607 379.067 448.865C379.187 449.123 379.248 449.418 379.25 449.751C379.248 450.241 379.123 450.666 378.875 451.025C378.631 451.382 378.277 451.659 377.813 451.857C377.352 452.052 376.796 452.15 376.145 452.15C375.499 452.15 374.937 452.051 374.458 451.853C373.981 451.655 373.609 451.362 373.34 450.974C373.075 450.583 372.935 450.1 372.922 449.525H374.559C374.577 449.793 374.654 450.017 374.79 450.197C374.928 450.374 375.111 450.508 375.34 450.599C375.572 450.688 375.834 450.732 376.125 450.732C376.412 450.732 376.661 450.69 376.872 450.607C377.085 450.524 377.25 450.408 377.368 450.259C377.485 450.111 377.543 449.94 377.543 449.748C377.543 449.568 377.49 449.417 377.383 449.294C377.279 449.172 377.125 449.068 376.922 448.982C376.722 448.896 376.476 448.818 376.184 448.748L375.313 448.529C374.639 448.365 374.106 448.108 373.715 447.759C373.325 447.41 373.131 446.94 373.133 446.349C373.131 445.865 373.26 445.442 373.52 445.08C373.783 444.718 374.144 444.435 374.602 444.232C375.06 444.029 375.581 443.927 376.165 443.927C376.758 443.927 377.277 444.029 377.719 444.232C378.165 444.435 378.511 444.718 378.758 445.08C379.006 445.442 379.133 445.861 379.141 446.337H377.52ZM389.993 446.837H388.282C388.25 446.616 388.187 446.419 388.09 446.248C387.994 446.073 387.87 445.925 387.719 445.802C387.568 445.68 387.394 445.586 387.196 445.521C387 445.456 386.788 445.423 386.559 445.423C386.145 445.423 385.784 445.526 385.477 445.732C385.17 445.935 384.931 446.232 384.762 446.623C384.593 447.011 384.508 447.482 384.508 448.037C384.508 448.607 384.593 449.086 384.762 449.474C384.934 449.862 385.174 450.155 385.481 450.353C385.788 450.551 386.144 450.65 386.547 450.65C386.774 450.65 386.984 450.62 387.176 450.56C387.372 450.5 387.545 450.413 387.696 450.298C387.847 450.181 387.972 450.039 388.071 449.873C388.172 449.706 388.243 449.516 388.282 449.302L389.993 449.31C389.948 449.677 389.838 450.031 389.661 450.373C389.486 450.711 389.25 451.014 388.954 451.283C388.659 451.548 388.308 451.759 387.899 451.916C387.493 452.069 387.033 452.146 386.52 452.146C385.806 452.146 385.168 451.985 384.606 451.662C384.046 451.339 383.603 450.871 383.278 450.259C382.955 449.647 382.793 448.906 382.793 448.037C382.793 447.164 382.958 446.422 383.286 445.81C383.614 445.198 384.059 444.732 384.622 444.412C385.184 444.089 385.817 443.927 386.52 443.927C386.984 443.927 387.413 443.992 387.809 444.123C388.208 444.253 388.56 444.443 388.868 444.693C389.175 444.94 389.425 445.244 389.618 445.603C389.813 445.962 389.938 446.374 389.993 446.837ZM398.557 448.037C398.557 448.909 398.392 449.651 398.061 450.263C397.733 450.875 397.285 451.343 396.717 451.666C396.152 451.986 395.517 452.146 394.811 452.146C394.1 452.146 393.462 451.985 392.897 451.662C392.332 451.339 391.885 450.871 391.557 450.259C391.229 449.647 391.065 448.906 391.065 448.037C391.065 447.164 391.229 446.422 391.557 445.81C391.885 445.198 392.332 444.732 392.897 444.412C393.462 444.089 394.1 443.927 394.811 443.927C395.517 443.927 396.152 444.089 396.717 444.412C397.285 444.732 397.733 445.198 398.061 445.81C398.392 446.422 398.557 447.164 398.557 448.037ZM396.842 448.037C396.842 447.472 396.758 446.995 396.588 446.607C396.422 446.219 396.186 445.925 395.881 445.724C395.577 445.524 395.22 445.423 394.811 445.423C394.402 445.423 394.045 445.524 393.741 445.724C393.436 445.925 393.199 446.219 393.03 446.607C392.863 446.995 392.78 447.472 392.78 448.037C392.78 448.602 392.863 449.078 393.03 449.466C393.199 449.854 393.436 450.149 393.741 450.349C394.045 450.55 394.402 450.65 394.811 450.65C395.22 450.65 395.577 450.55 395.881 450.349C396.186 450.149 396.422 449.854 396.588 449.466C396.758 449.078 396.842 448.602 396.842 448.037ZM402.646 452.037H399.81V444.037H402.669C403.474 444.037 404.167 444.197 404.748 444.517C405.328 444.835 405.775 445.292 406.087 445.888C406.403 446.485 406.56 447.198 406.56 448.029C406.56 448.862 406.403 449.578 406.087 450.177C405.775 450.776 405.326 451.236 404.74 451.556C404.156 451.876 403.458 452.037 402.646 452.037ZM401.501 450.587H402.576C403.076 450.587 403.496 450.499 403.837 450.322C404.181 450.142 404.439 449.865 404.611 449.49C404.785 449.112 404.873 448.625 404.873 448.029C404.873 447.438 404.785 446.955 404.611 446.58C404.439 446.205 404.182 445.929 403.841 445.751C403.5 445.574 403.08 445.486 402.58 445.486H401.501V450.587ZM407.813 452.037V444.037H413.204V445.431H409.504V447.337H412.926V448.732H409.504V450.642H413.219V452.037H407.813Z" fill="#7E3CEF"/>
<path d="M240.214 464.666H215.129C209.356 464.666 204.677 469.346 204.677 475.118V516.926C204.677 522.699 209.356 527.378 215.129 527.378H240.214C245.986 527.378 250.666 522.699 250.666 516.926V475.118C250.666 469.346 245.986 464.666 240.214 464.666Z" fill="white"/>
<path d="M218.412 505.958V501.542L228.524 487.078H234.636V501.222H237.26V505.958H234.636V510.118H229.164V505.958H218.412ZM229.548 493.094L224.172 501.222H229.548V493.094Z" fill="#7E3CEF"/>
<path d="M294.564 464.666H269.479C263.707 464.666 259.027 469.346 259.027 475.118V516.926C259.027 522.699 263.707 527.378 269.479 527.378H294.564C300.337 527.378 305.016 522.699 305.016 516.926V475.118C305.016 469.346 300.337 464.666 294.564 464.666Z" fill="white"/>
<path d="M276.927 497.414C274.922 496.347 273.919 494.672 273.919 492.39C273.919 491.28 274.218 490.235 274.815 489.254C275.434 488.272 276.351 487.483 277.567 486.886C278.783 486.288 280.266 485.99 282.015 485.99C283.765 485.99 285.247 486.288 286.463 486.886C287.679 487.483 288.586 488.272 289.183 489.254C289.781 490.235 290.079 491.28 290.079 492.39C290.079 493.542 289.802 494.544 289.247 495.398C288.714 496.251 287.989 496.923 287.071 497.414C288.223 497.968 289.109 498.736 289.727 499.718C290.346 500.678 290.655 501.84 290.655 503.206C290.655 504.742 290.271 506.064 289.503 507.174C288.735 508.283 287.701 509.126 286.399 509.702C285.098 510.278 283.637 510.566 282.015 510.566C280.394 510.566 278.933 510.278 277.631 509.702C276.33 509.126 275.295 508.283 274.527 507.174C273.759 506.064 273.375 504.742 273.375 503.206C273.375 501.862 273.685 500.699 274.303 499.718C274.922 498.736 275.797 497.968 276.927 497.414ZM282.015 490.47C281.183 490.47 280.511 490.715 279.999 491.206C279.509 491.696 279.263 492.379 279.263 493.254C279.263 494.086 279.519 494.747 280.031 495.238C280.543 495.728 281.205 495.974 282.015 495.974C282.826 495.974 283.487 495.728 283.999 495.238C284.511 494.747 284.767 494.086 284.767 493.254C284.767 492.379 284.511 491.696 283.999 491.206C283.509 490.715 282.847 490.47 282.015 490.47ZM282.015 499.782C281.013 499.782 280.202 500.059 279.583 500.614C278.965 501.168 278.655 501.936 278.655 502.918C278.655 503.856 278.954 504.624 279.551 505.222C280.149 505.798 280.97 506.086 282.015 506.086C283.039 506.086 283.839 505.798 284.415 505.222C285.013 504.624 285.311 503.856 285.311 502.918C285.311 501.936 285.013 501.168 284.415 500.614C283.818 500.059 283.018 499.782 282.015 499.782Z" fill="#7E3CEF"/>
<path d="M348.915 464.666H323.83C318.057 464.666 313.378 469.346 313.378 475.118V516.926C313.378 522.699 318.057 527.378 323.83 527.378H348.915C354.687 527.378 359.367 522.699 359.367 516.926V475.118C359.367 469.346 354.687 464.666 348.915 464.666Z" fill="white"/>
<path d="M328.48 505.734C329.12 505.2 329.461 504.923 329.504 504.902C331.552 503.195 333.173 501.808 334.368 500.742C335.563 499.654 336.565 498.534 337.376 497.382C338.187 496.23 338.592 495.131 338.592 494.086C338.592 493.211 338.389 492.539 337.984 492.07C337.6 491.6 337.013 491.366 336.224 491.366C334.603 491.366 333.76 492.528 333.696 494.854H328.416C328.459 493.04 328.843 491.526 329.568 490.31C330.315 489.094 331.285 488.198 332.48 487.622C333.696 487.046 335.04 486.758 336.512 486.758C338.219 486.758 339.637 487.067 340.768 487.686C341.92 488.283 342.763 489.104 343.296 490.15C343.851 491.195 344.128 492.358 344.128 493.638C344.128 495.814 343.36 497.851 341.824 499.75C340.288 501.627 338.315 503.494 335.904 505.35H344.544V509.798H328.48V505.734Z" fill="#7E3CEF"/>
<path d="M378.703 493.932H369.296C368.43 493.932 367.729 494.634 367.729 495.499C367.729 496.365 368.43 497.067 369.296 497.067H378.703C379.569 497.067 380.271 496.365 380.271 495.499C380.271 494.634 379.569 493.932 378.703 493.932Z" fill="#BB94FF"/>
<path d="M424.17 464.666H399.085C393.312 464.666 388.633 469.346 388.633 475.118V516.926C388.633 522.699 393.312 527.378 399.085 527.378H424.17C429.942 527.378 434.622 522.699 434.622 516.926V475.118C434.622 469.346 429.942 464.666 424.17 464.666Z" fill="white"/>
<path d="M409.111 503.27C409.431 504.955 410.412 505.798 412.055 505.798C413.186 505.798 413.986 505.296 414.455 504.294C414.924 503.291 415.159 501.659 415.159 499.398C414.69 500.059 414.05 500.571 413.239 500.934C412.428 501.296 411.522 501.478 410.519 501.478C408.428 501.478 406.722 500.838 405.399 499.558C404.098 498.278 403.447 496.454 403.447 494.086C403.447 491.696 404.162 489.798 405.591 488.39C407.02 486.982 408.983 486.278 411.479 486.278C414.636 486.278 416.834 487.259 418.071 489.222C419.33 491.163 419.959 494.043 419.959 497.862C419.959 500.635 419.714 502.918 419.223 504.71C418.732 506.502 417.9 507.867 416.727 508.806C415.554 509.744 413.964 510.214 411.959 510.214C410.316 510.214 408.908 509.894 407.735 509.254C406.583 508.614 405.698 507.771 405.079 506.726C404.482 505.68 404.14 504.528 404.055 503.27H409.111ZM411.767 497.158C412.663 497.158 413.378 496.891 413.911 496.358C414.444 495.803 414.711 495.056 414.711 494.118C414.711 493.094 414.434 492.304 413.879 491.75C413.324 491.195 412.578 490.918 411.639 490.918C410.7 490.918 409.954 491.206 409.399 491.782C408.866 492.336 408.599 493.104 408.599 494.086C408.599 495.003 408.866 495.75 409.399 496.326C409.954 496.88 410.743 497.158 411.767 497.158Z" fill="#7E3CEF"/>
<path d="M478.52 464.666H453.435C447.663 464.666 442.983 469.346 442.983 475.118V516.926C442.983 522.699 447.663 527.378 453.435 527.378H478.52C484.293 527.378 488.972 522.699 488.972 516.926V475.118C488.972 469.346 484.293 464.666 478.52 464.666Z" fill="white"/>
<path d="M460.826 492.518V487.43H469.69V510.118H463.994V492.518H460.826Z" fill="#7E3CEF"/>
<path d="M532.871 464.666H507.786C502.014 464.666 497.334 469.346 497.334 475.118V516.926C497.334 522.699 502.014 527.378 507.786 527.378H532.871C538.643 527.378 543.323 522.699 543.323 516.926V475.118C543.323 469.346 538.643 464.666 532.871 464.666Z" fill="white"/>
<path d="M528.118 491.078L519.798 510.118H514.07L522.614 491.686H512.694V487.046H528.118V491.078Z" fill="#7E3CEF"/>
<path d="M81.9754 142.102H83.8717L85.8745 146.989H85.9597L87.9626 142.102H89.8589V149.375H88.3674V144.641H88.307L86.4249 149.339H85.4093L83.5272 144.624H83.4668V149.375H81.9754V142.102ZM97.809 145.739C97.809 146.532 97.6587 147.206 97.358 147.763C97.0597 148.319 96.6525 148.744 96.1364 149.038C95.6227 149.329 95.045 149.474 94.4035 149.474C93.7571 149.474 93.1771 149.328 92.6634 149.034C92.1497 148.741 91.7437 148.316 91.4454 147.759C91.1471 147.203 90.9979 146.529 90.9979 145.739C90.9979 144.946 91.1471 144.271 91.4454 143.714C91.7437 143.158 92.1497 142.734 92.6634 142.443C93.1771 142.15 93.7571 142.003 94.4035 142.003C95.045 142.003 95.6227 142.15 96.1364 142.443C96.6525 142.734 97.0597 143.158 97.358 143.714C97.6587 144.271 97.809 144.946 97.809 145.739ZM96.25 145.739C96.25 145.225 96.1731 144.792 96.0192 144.439C95.8677 144.086 95.6535 143.819 95.3765 143.636C95.0995 143.454 94.7751 143.363 94.4035 143.363C94.0318 143.363 93.7074 143.454 93.4304 143.636C93.1535 143.819 92.938 144.086 92.7841 144.439C92.6326 144.792 92.5569 145.225 92.5569 145.739C92.5569 146.252 92.6326 146.686 92.7841 147.038C92.938 147.391 93.1535 147.659 93.4304 147.841C93.7074 148.023 94.0318 148.114 94.4035 148.114C94.7751 148.114 95.0995 148.023 95.3765 147.841C95.6535 147.659 95.8677 147.391 96.0192 147.038C96.1731 146.686 96.25 146.252 96.25 145.739ZM99.8518 142.102L101.61 147.628H101.677L103.438 142.102H105.143L102.636 149.375H100.654L98.1437 142.102H99.8518ZM106.018 149.375V142.102H110.919V143.37H107.556V145.103H110.667V146.371H107.556V148.107H110.933V149.375H106.018ZM115.511 145.138V146.339H112.195V145.138H115.511ZM118.367 142.102V149.375H116.829V142.102H118.367ZM125.715 142.102V149.375H124.387L121.223 144.798H121.169V149.375H119.632V142.102H120.981L124.12 146.676H124.184V142.102H125.715ZM135.716 144.648H134.161C134.133 144.447 134.075 144.268 133.987 144.112C133.899 143.954 133.787 143.819 133.65 143.707C133.512 143.596 133.354 143.511 133.174 143.452C132.996 143.393 132.803 143.363 132.595 143.363C132.219 143.363 131.891 143.456 131.611 143.643C131.332 143.828 131.115 144.098 130.962 144.453C130.808 144.806 130.731 145.234 130.731 145.739C130.731 146.257 130.808 146.693 130.962 147.045C131.118 147.398 131.336 147.665 131.615 147.844C131.894 148.024 132.217 148.114 132.584 148.114C132.79 148.114 132.981 148.087 133.156 148.033C133.334 147.978 133.491 147.899 133.628 147.795C133.766 147.688 133.879 147.559 133.969 147.408C134.062 147.256 134.126 147.083 134.161 146.889L135.716 146.896C135.676 147.23 135.576 147.552 135.415 147.862C135.256 148.17 135.042 148.446 134.772 148.69C134.504 148.931 134.185 149.123 133.813 149.265C133.444 149.405 133.026 149.474 132.56 149.474C131.911 149.474 131.331 149.328 130.819 149.034C130.31 148.741 129.908 148.316 129.612 147.759C129.319 147.203 129.172 146.529 129.172 145.739C129.172 144.946 129.321 144.271 129.619 143.714C129.917 143.158 130.322 142.734 130.834 142.443C131.345 142.15 131.92 142.003 132.56 142.003C132.981 142.003 133.372 142.062 133.731 142.18C134.094 142.299 134.414 142.472 134.694 142.699C134.973 142.924 135.2 143.2 135.376 143.526C135.553 143.853 135.667 144.227 135.716 144.648ZM136.819 149.375V142.102H138.357V145.103H141.478V142.102H143.012V149.375H141.478V146.371H138.357V149.375H136.819ZM144.28 149.375V142.102H149.181V143.37H145.818V145.103H148.928V146.371H145.818V148.107H149.195V149.375H144.28ZM156.82 144.648H155.265C155.236 144.447 155.178 144.268 155.091 144.112C155.003 143.954 154.891 143.819 154.753 143.707C154.616 143.596 154.457 143.511 154.277 143.452C154.1 143.393 153.907 143.363 153.699 143.363C153.322 143.363 152.994 143.456 152.715 143.643C152.436 143.828 152.219 144.098 152.065 144.453C151.911 144.806 151.834 145.234 151.834 145.739C151.834 146.257 151.911 146.693 152.065 147.045C152.221 147.398 152.439 147.665 152.718 147.844C152.998 148.024 153.321 148.114 153.688 148.114C153.894 148.114 154.084 148.087 154.26 148.033C154.437 147.978 154.595 147.899 154.732 147.795C154.869 147.688 154.983 147.559 155.073 147.408C155.165 147.256 155.229 147.083 155.265 146.889L156.82 146.896C156.78 147.23 156.679 147.552 156.518 147.862C156.36 148.17 156.145 148.446 155.875 148.69C155.608 148.931 155.288 149.123 154.917 149.265C154.547 149.405 154.129 149.474 153.663 149.474C153.014 149.474 152.434 149.328 151.923 149.034C151.414 148.741 151.012 148.316 150.716 147.759C150.422 147.203 150.275 146.529 150.275 145.739C150.275 144.946 150.424 144.271 150.723 143.714C151.021 143.158 151.426 142.734 151.937 142.443C152.449 142.15 153.024 142.003 153.663 142.003C154.084 142.003 154.475 142.062 154.835 142.18C155.197 142.299 155.518 142.472 155.797 142.699C156.077 142.924 156.304 143.2 156.479 143.526C156.657 143.853 156.77 144.227 156.82 144.648ZM157.923 149.375V142.102H159.46V145.309H159.556L162.173 142.102H164.016L161.318 145.359L164.048 149.375H162.209L160.217 146.385L159.46 147.308V149.375H157.923ZM164.817 149.375V142.102H166.355V148.107H169.473V149.375H164.817ZM172.029 142.102V149.375H170.491V142.102H172.029ZM177.239 144.194C177.211 143.907 177.089 143.685 176.873 143.526C176.658 143.368 176.365 143.288 175.996 143.288C175.745 143.288 175.533 143.324 175.36 143.395C175.188 143.464 175.055 143.559 174.963 143.683C174.873 143.806 174.828 143.945 174.828 144.102C174.823 144.232 174.85 144.345 174.909 144.442C174.971 144.54 175.055 144.624 175.162 144.695C175.268 144.763 175.391 144.824 175.531 144.876C175.671 144.925 175.82 144.968 175.978 145.004L176.632 145.16C176.949 145.231 177.24 145.326 177.505 145.444C177.771 145.562 178 145.708 178.194 145.881C178.388 146.054 178.539 146.257 178.645 146.491C178.754 146.726 178.81 146.995 178.812 147.298C178.81 147.743 178.696 148.129 178.471 148.455C178.249 148.78 177.927 149.032 177.505 149.212C177.086 149.389 176.581 149.478 175.989 149.478C175.402 149.478 174.891 149.388 174.455 149.208C174.022 149.028 173.683 148.762 173.439 148.409C173.198 148.054 173.071 147.615 173.059 147.092H174.547C174.564 147.335 174.634 147.539 174.757 147.702C174.882 147.863 175.049 147.985 175.258 148.068C175.468 148.149 175.706 148.189 175.971 148.189C176.232 148.189 176.458 148.151 176.65 148.075C176.844 148 176.994 147.894 177.101 147.759C177.207 147.624 177.26 147.469 177.26 147.294C177.26 147.131 177.212 146.993 177.115 146.882C177.02 146.771 176.88 146.676 176.696 146.598C176.513 146.52 176.29 146.449 176.025 146.385L175.233 146.186C174.619 146.037 174.135 145.804 173.78 145.487C173.425 145.169 173.249 144.742 173.251 144.205C173.249 143.764 173.366 143.379 173.603 143.05C173.842 142.721 174.17 142.464 174.586 142.28C175.003 142.095 175.476 142.003 176.007 142.003C176.547 142.003 177.018 142.095 177.42 142.28C177.825 142.464 178.14 142.721 178.365 143.05C178.59 143.379 178.706 143.761 178.713 144.194H177.239ZM179.569 143.37V142.102H185.542V143.37H183.316V149.375H181.796V143.37H179.569Z" fill="#111827"/>
<path d="M92.8402 191.636C99.19 191.636 104.337 186.488 104.337 180.138C104.337 173.789 99.19 168.641 92.8402 168.641C86.4905 168.641 81.343 173.789 81.343 180.138C81.343 186.488 86.4905 191.636 92.8402 191.636Z" fill="url(#paint0_linear_635_6558)"/>
<path d="M87.6143 180.138L91.2725 183.796L98.5889 176.48" stroke="white" stroke-width="1.8" stroke-linecap="round" stroke-linejoin="round"/>
<path d="M341.598 175.958H120.016C117.707 175.958 115.835 177.829 115.835 180.138C115.835 182.447 117.707 184.319 120.016 184.319H341.598C343.907 184.319 345.779 182.447 345.779 180.138C345.779 177.829 343.907 175.958 341.598 175.958Z" fill="#EDE9FE"/>
<path d="M648.888 193.726C656.393 193.726 662.476 187.643 662.476 180.138C662.476 172.634 656.393 166.551 648.888 166.551C641.384 166.551 635.301 172.634 635.301 180.138C635.301 187.643 641.384 193.726 648.888 193.726Z" fill="#EDE9FE"/>
<path d="M92.8402 233.444C99.19 233.444 104.337 228.296 104.337 221.946C104.337 215.597 99.19 210.449 92.8402 210.449C86.4905 210.449 81.343 215.597 81.343 221.946C81.343 228.296 86.4905 233.444 92.8402 233.444Z" fill="url(#paint1_linear_635_6558)"/>
<path d="M87.6143 221.946L91.2725 225.605L98.5889 218.288" stroke="white" stroke-width="1.8" stroke-linecap="round" stroke-linejoin="round"/>
<path d="M299.791 217.766H120.016C117.707 217.766 115.835 219.637 115.835 221.946C115.835 224.255 117.707 226.127 120.016 226.127H299.791C302.1 226.127 303.971 224.255 303.971 221.946C303.971 219.637 302.1 217.766 299.791 217.766Z" fill="#EDE9FE"/>
<path d="M648.888 235.534C656.393 235.534 662.476 229.451 662.476 221.947C662.476 214.442 656.393 208.359 648.888 208.359C641.384 208.359 635.301 214.442 635.301 221.947C635.301 229.451 641.384 235.534 648.888 235.534Z" fill="#EDE9FE"/>
<path d="M92.8402 275.252C99.19 275.252 104.337 270.104 104.337 263.755C104.337 257.405 99.19 252.257 92.8402 252.257C86.4905 252.257 81.343 257.405 81.343 263.755C81.343 270.104 86.4905 275.252 92.8402 275.252Z" stroke="#D1D5DB" stroke-width="1.6"/>
<path d="M320.695 259.574H120.016C117.707 259.574 115.835 261.446 115.835 263.755C115.835 266.064 117.707 267.935 120.016 267.935H320.695C323.004 267.935 324.875 266.064 324.875 263.755C324.875 261.446 323.004 259.574 320.695 259.574Z" fill="#D1D5DB"/>
<path d="M648.888 277.342C656.393 277.342 662.476 271.259 662.476 263.755C662.476 256.25 656.393 250.167 648.888 250.167C641.384 250.167 635.301 256.25 635.301 263.755C635.301 271.259 641.384 277.342 648.888 277.342Z" fill="#D1D5DB"/>
<path d="M654.114 585.666H93.8857C86.9587 585.666 81.3433 591.281 81.3433 598.208V655.293C81.3433 662.22 86.9587 667.835 93.8857 667.835H654.114C661.041 667.835 666.657 662.22 666.657 655.293V598.208C666.657 591.281 661.041 585.666 654.114 585.666Z" fill="#FAF5FF"/>
<path d="M111.604 623.513L109.107 614.785H111.123L112.567 620.849H112.64L114.234 614.785H115.959L117.549 620.862H117.626L119.07 614.785H121.086L118.589 623.513H116.79L115.129 617.807H115.06L113.403 623.513H111.604ZM124.319 623.641C123.646 623.641 123.066 623.504 122.581 623.231C122.098 622.956 121.725 622.567 121.464 622.064C121.203 621.558 121.072 620.96 121.072 620.27C121.072 619.597 121.203 619.006 121.464 618.497C121.725 617.989 122.093 617.592 122.568 617.308C123.045 617.024 123.605 616.882 124.247 616.882C124.679 616.882 125.081 616.952 125.453 617.091C125.828 617.227 126.154 617.433 126.433 617.709C126.714 617.984 126.933 618.331 127.089 618.748C127.245 619.163 127.323 619.649 127.323 620.206V620.704H121.796V619.579H125.615C125.615 619.318 125.558 619.087 125.444 618.885C125.331 618.683 125.173 618.525 124.971 618.412C124.772 618.295 124.541 618.237 124.277 618.237C124.001 618.237 123.757 618.301 123.544 618.429C123.333 618.554 123.169 618.723 123.049 618.936C122.93 619.146 122.869 619.381 122.866 619.639V620.709C122.866 621.033 122.926 621.312 123.045 621.548C123.167 621.784 123.339 621.966 123.561 622.094C123.782 622.222 124.045 622.285 124.349 622.285C124.551 622.285 124.735 622.257 124.903 622.2C125.071 622.143 125.214 622.058 125.333 621.945C125.453 621.831 125.544 621.692 125.606 621.527L127.285 621.638C127.2 622.041 127.025 622.393 126.761 622.695C126.5 622.993 126.162 623.226 125.747 623.393C125.335 623.558 124.859 623.641 124.319 623.641ZM130.323 614.785V623.513H128.508V614.785H130.323ZM134.735 623.641C134.065 623.641 133.488 623.498 133.005 623.214C132.525 622.927 132.155 622.53 131.897 622.021C131.641 621.513 131.513 620.927 131.513 620.266C131.513 619.595 131.643 619.007 131.901 618.501C132.163 617.993 132.533 617.597 133.013 617.312C133.494 617.025 134.065 616.882 134.727 616.882C135.298 616.882 135.798 616.986 136.227 617.193C136.655 617.4 136.995 617.692 137.245 618.067C137.495 618.442 137.633 618.882 137.658 619.388H135.945C135.897 619.061 135.769 618.798 135.562 618.599C135.357 618.398 135.089 618.297 134.756 618.297C134.475 618.297 134.229 618.373 134.019 618.527C133.812 618.677 133.65 618.898 133.533 619.187C133.417 619.477 133.359 619.828 133.359 620.24C133.359 620.658 133.415 621.013 133.529 621.305C133.646 621.598 133.809 621.821 134.019 621.974C134.229 622.128 134.475 622.204 134.756 622.204C134.964 622.204 135.15 622.162 135.315 622.077C135.482 621.991 135.62 621.868 135.728 621.706C135.839 621.541 135.911 621.344 135.945 621.114H137.658C137.63 621.614 137.494 622.054 137.249 622.435C137.008 622.812 136.674 623.108 136.248 623.321C135.822 623.534 135.317 623.641 134.735 623.641ZM141.778 623.641C141.116 623.641 140.544 623.5 140.061 623.219C139.581 622.935 139.21 622.54 138.948 622.034C138.687 621.525 138.556 620.936 138.556 620.266C138.556 619.589 138.687 618.998 138.948 618.493C139.21 617.984 139.581 617.589 140.061 617.308C140.544 617.024 141.116 616.882 141.778 616.882C142.44 616.882 143.011 617.024 143.491 617.308C143.974 617.589 144.346 617.984 144.608 618.493C144.869 618.998 145 619.589 145 620.266C145 620.936 144.869 621.525 144.608 622.034C144.346 622.54 143.974 622.935 143.491 623.219C143.011 623.5 142.44 623.641 141.778 623.641ZM141.787 622.234C142.088 622.234 142.339 622.149 142.541 621.979C142.742 621.805 142.894 621.57 142.997 621.271C143.102 620.973 143.154 620.633 143.154 620.253C143.154 619.872 143.102 619.533 142.997 619.234C142.894 618.936 142.742 618.7 142.541 618.527C142.339 618.354 142.088 618.267 141.787 618.267C141.483 618.267 141.227 618.354 141.019 618.527C140.815 618.7 140.66 618.936 140.555 619.234C140.453 619.533 140.402 619.872 140.402 620.253C140.402 620.633 140.453 620.973 140.555 621.271C140.66 621.57 140.815 621.805 141.019 621.979C141.227 622.149 141.483 622.234 141.787 622.234ZM146.18 623.513V616.967H147.91V618.122H147.987C148.123 617.739 148.35 617.436 148.669 617.214C148.987 616.993 149.367 616.882 149.811 616.882C150.26 616.882 150.642 616.994 150.957 617.219C151.272 617.44 151.483 617.741 151.588 618.122H151.656C151.789 617.747 152.031 617.447 152.38 617.223C152.733 616.996 153.149 616.882 153.629 616.882C154.24 616.882 154.735 617.077 155.116 617.466C155.5 617.852 155.691 618.4 155.691 619.111V623.513H153.88V619.469C153.88 619.105 153.784 618.832 153.591 618.65C153.397 618.469 153.156 618.378 152.866 618.378C152.537 618.378 152.279 618.483 152.095 618.693C151.91 618.9 151.818 619.175 151.818 619.516V623.513H150.058V619.43C150.058 619.109 149.966 618.854 149.781 618.663C149.599 618.473 149.359 618.378 149.061 618.378C148.859 618.378 148.677 618.429 148.515 618.531C148.356 618.631 148.23 618.771 148.136 618.953C148.042 619.132 147.995 619.342 147.995 619.584V623.513H146.18ZM160.108 623.641C159.435 623.641 158.855 623.504 158.37 623.231C157.887 622.956 157.515 622.567 157.253 622.064C156.992 621.558 156.861 620.96 156.861 620.27C156.861 619.597 156.992 619.006 157.253 618.497C157.515 617.989 157.882 617.592 158.357 617.308C158.834 617.024 159.394 616.882 160.036 616.882C160.468 616.882 160.87 616.952 161.242 617.091C161.617 617.227 161.943 617.433 162.222 617.709C162.503 617.984 162.722 618.331 162.878 618.748C163.034 619.163 163.113 619.649 163.113 620.206V620.704H157.586V619.579H161.404C161.404 619.318 161.347 619.087 161.233 618.885C161.12 618.683 160.962 618.525 160.76 618.412C160.561 618.295 160.33 618.237 160.066 618.237C159.79 618.237 159.546 618.301 159.333 618.429C159.122 618.554 158.958 618.723 158.838 618.936C158.719 619.146 158.658 619.381 158.655 619.639V620.709C158.655 621.033 158.715 621.312 158.834 621.548C158.956 621.784 159.128 621.966 159.35 622.094C159.571 622.222 159.834 622.285 160.138 622.285C160.34 622.285 160.524 622.257 160.692 622.2C160.86 622.143 161.003 622.058 161.122 621.945C161.242 621.831 161.333 621.692 161.395 621.527L163.074 621.638C162.989 622.041 162.814 622.393 162.55 622.695C162.289 622.993 161.951 623.226 161.536 623.393C161.124 623.558 160.648 623.641 160.108 623.641ZM167.075 625.967V616.967H168.864V618.067H168.945C169.025 617.891 169.14 617.712 169.29 617.53C169.444 617.345 169.643 617.192 169.887 617.07C170.134 616.945 170.441 616.882 170.807 616.882C171.285 616.882 171.725 617.007 172.129 617.257C172.532 617.504 172.854 617.878 173.096 618.378C173.337 618.875 173.458 619.498 173.458 620.248C173.458 620.979 173.34 621.595 173.104 622.098C172.871 622.598 172.553 622.977 172.15 623.236C171.749 623.491 171.3 623.619 170.803 623.619C170.451 623.619 170.151 623.561 169.904 623.445C169.66 623.328 169.459 623.182 169.303 623.006C169.147 622.827 169.028 622.646 168.945 622.464H168.89V625.967H167.075ZM168.852 620.24C168.852 620.629 168.905 620.969 169.013 621.258C169.121 621.548 169.278 621.774 169.482 621.936C169.687 622.095 169.935 622.175 170.228 622.175C170.523 622.175 170.773 622.094 170.978 621.932C171.182 621.767 171.337 621.54 171.442 621.25C171.55 620.957 171.604 620.621 171.604 620.24C171.604 619.862 171.552 619.53 171.447 619.243C171.342 618.956 171.187 618.731 170.982 618.57C170.778 618.408 170.526 618.327 170.228 618.327C169.932 618.327 169.682 618.405 169.478 618.561C169.276 618.717 169.121 618.939 169.013 619.226C168.905 619.513 168.852 619.851 168.852 620.24ZM176.535 623.636C176.117 623.636 175.745 623.564 175.418 623.419C175.092 623.271 174.833 623.054 174.643 622.767C174.455 622.477 174.361 622.116 174.361 621.685C174.361 621.321 174.428 621.016 174.562 620.768C174.695 620.521 174.877 620.322 175.107 620.172C175.337 620.021 175.599 619.908 175.891 619.831C176.187 619.754 176.496 619.7 176.82 619.669C177.201 619.629 177.508 619.592 177.741 619.558C177.974 619.521 178.143 619.467 178.248 619.396C178.353 619.325 178.405 619.22 178.405 619.081V619.055C178.405 618.785 178.32 618.577 178.15 618.429C177.982 618.281 177.744 618.207 177.434 618.207C177.107 618.207 176.847 618.28 176.654 618.425C176.461 618.567 176.333 618.746 176.271 618.962L174.592 618.825C174.677 618.427 174.844 618.084 175.094 617.794C175.344 617.501 175.667 617.277 176.062 617.121C176.459 616.962 176.92 616.882 177.442 616.882C177.806 616.882 178.154 616.925 178.486 617.01C178.822 617.095 179.119 617.227 179.377 617.406C179.638 617.585 179.844 617.815 179.995 618.097C180.146 618.375 180.221 618.709 180.221 619.098V623.513H178.499V622.605H178.448C178.343 622.81 178.202 622.99 178.026 623.146C177.85 623.3 177.638 623.42 177.391 623.508C177.144 623.594 176.859 623.636 176.535 623.636ZM177.055 622.383C177.322 622.383 177.557 622.331 177.762 622.226C177.967 622.118 178.127 621.973 178.244 621.791C178.36 621.609 178.418 621.403 178.418 621.173V620.479C178.361 620.516 178.283 620.55 178.184 620.581C178.087 620.609 177.978 620.636 177.856 620.662C177.734 620.685 177.611 620.706 177.489 620.726C177.367 620.743 177.256 620.758 177.157 620.773C176.944 620.804 176.758 620.854 176.599 620.922C176.44 620.99 176.316 621.082 176.228 621.199C176.14 621.312 176.096 621.454 176.096 621.625C176.096 621.872 176.185 622.061 176.364 622.192C176.546 622.32 176.776 622.383 177.055 622.383ZM184.587 623.641C183.916 623.641 183.339 623.498 182.856 623.214C182.376 622.927 182.007 622.53 181.749 622.021C181.493 621.513 181.365 620.927 181.365 620.266C181.365 619.595 181.494 619.007 181.753 618.501C182.014 617.993 182.385 617.597 182.865 617.312C183.345 617.025 183.916 616.882 184.578 616.882C185.149 616.882 185.649 616.986 186.078 617.193C186.507 617.4 186.847 617.692 187.097 618.067C187.347 618.442 187.484 618.882 187.51 619.388H185.797C185.749 619.061 185.621 618.798 185.413 618.599C185.209 618.398 184.94 618.297 184.608 618.297C184.327 618.297 184.081 618.373 183.871 618.527C183.663 618.677 183.501 618.898 183.385 619.187C183.268 619.477 183.21 619.828 183.21 620.24C183.21 620.658 183.267 621.013 183.381 621.305C183.497 621.598 183.66 621.821 183.871 621.974C184.081 622.128 184.327 622.204 184.608 622.204C184.815 622.204 185.001 622.162 185.166 622.077C185.334 621.991 185.472 621.868 185.58 621.706C185.69 621.541 185.763 621.344 185.797 621.114H187.51C187.481 621.614 187.345 622.054 187.101 622.435C186.859 622.812 186.526 623.108 186.099 623.321C185.673 623.534 185.169 623.641 184.587 623.641ZM190.317 621.629L190.321 619.452H190.586L192.682 616.967H194.766L191.949 620.257H191.519L190.317 621.629ZM188.672 623.513V614.785H190.488V623.513H188.672ZM192.763 623.513L190.837 620.662L192.047 619.379L194.89 623.513H192.763Z" fill="#111827"/>
<path d="M572.692 614.163C579.644 614.163 585.279 619.799 585.279 626.751C585.279 633.703 579.644 639.338 572.692 639.338C565.74 639.338 560.104 633.703 560.104 626.751C560.104 619.799 565.74 614.163 572.692 614.163Z" fill="#BB94FF" stroke="#FAF5FF" stroke-width="2"/>
<path d="M592.953 614.163C599.905 614.163 605.54 619.799 605.54 626.751C605.54 633.703 599.905 639.338 592.953 639.338C586.001 639.338 580.365 633.703 580.365 626.751C580.365 619.799 586.001 614.163 592.953 614.163Z" fill="#BB94FF" stroke="#FAF5FF" stroke-width="2"/>
<path d="M613.214 614.163C620.165 614.163 625.801 619.799 625.801 626.751C625.8 633.703 620.165 639.338 613.214 639.338C606.262 639.338 600.626 633.703 600.626 626.751C600.626 619.799 606.262 614.163 613.214 614.163Z" fill="#BB94FF" stroke="#FAF5FF" stroke-width="2"/>
<path d="M633.474 614.163C640.426 614.163 646.061 619.799 646.061 626.751C646.061 633.703 640.426 639.338 633.474 639.338C626.522 639.338 620.887 633.703 620.886 626.751C620.886 619.799 626.522 614.163 633.474 614.163Z" fill="#BB94FF" stroke="#FAF5FF" stroke-width="2"/>
<rect x="108.881" y="636.037" width="155.155" height="5.95117" rx="2.97559" fill="#BB94FF"/>
<defs>
<filter id="filter0_dd_635_6558" x="27.5352" y="37.5352" width="692.93" height="692.93" filterUnits="userSpaceOnUse" color-interpolation-filters="sRGB">
<feFlood flood-opacity="0" result="BackgroundImageFix"/>
<feColorMatrix in="SourceAlpha" type="matrix" values="0 0 0 0 0 0 0 0 0 0 0 0 0 0 0 0 0 0 127 0" result="hardAlpha"/>
<feMorphology radius="2" operator="erode" in="SourceAlpha" result="effect1_dropShadow_635_6558"/>
<feOffset dy="4"/>
<feGaussianBlur stdDeviation="3"/>
<feColorMatrix type="matrix" values="0 0 0 0 0 0 0 0 0 0 0 0 0 0 0 0 0 0 0.05 0"/>
<feBlend mode="normal" in2="BackgroundImageFix" result="effect1_dropShadow_635_6558"/>
<feColorMatrix in="SourceAlpha" type="matrix" values="0 0 0 0 0 0 0 0 0 0 0 0 0 0 0 0 0 0 127 0" result="hardAlpha"/>
<feMorphology radius="3" operator="erode" in="SourceAlpha" result="effect2_dropShadow_635_6558"/>
<feOffset dy="10"/>
<feGaussianBlur stdDeviation="7.5"/>
<feColorMatrix type="matrix" values="0 0 0 0 0 0 0 0 0 0 0 0 0 0 0 0 0 0 0.1 0"/>
<feBlend mode="normal" in2="effect1_dropShadow_635_6558" result="effect2_dropShadow_635_6558"/>
<feBlend mode="normal" in="SourceGraphic" in2="effect2_dropShadow_635_6558" result="shape"/>
</filter>
<linearGradient id="paint0_linear_635_6558" x1="81.343" y1="168.641" x2="104.337" y2="191.636" gradientUnits="userSpaceOnUse">
<stop stop-color="#9B5CFF"/>
<stop offset="1" stop-color="#7E3CEF"/>
</linearGradient>
<linearGradient id="paint1_linear_635_6558" x1="81.343" y1="210.449" x2="104.337" y2="233.444" gradientUnits="userSpaceOnUse">
<stop stop-color="#9B5CFF"/>
<stop offset="1" stop-color="#7E3CEF"/>
</linearGradient>
</defs>
</svg>
