<svg width="748" height="748" viewBox="0 0 748 748" fill="none" xmlns="http://www.w3.org/2000/svg">
<g filter="url(#filter0_dd_632_6438)">
<path d="M658.407 32.4634H134.718C122.143 32.4634 111.949 42.6575 111.949 55.2325V692.767C111.949 705.342 122.143 715.536 134.718 715.536H658.407C670.982 715.536 681.176 705.342 681.176 692.767V55.2325C681.176 42.6575 670.982 32.4634 658.407 32.4634Z" fill="white"/>
<path d="M152.093 89.2737H155.663V91.3457H149.367V80.157H152.093V89.2737ZM165.347 86.7395C165.347 86.9839 165.331 87.2442 165.299 87.5205H159.131C159.173 88.0836 159.348 88.514 159.657 88.8115C159.965 89.109 160.353 89.2578 160.82 89.2578C161.5 89.2578 161.973 88.9709 162.239 88.3971H165.139C164.991 88.9815 164.72 89.5075 164.327 89.975C163.944 90.4425 163.461 90.8091 162.876 91.0748C162.292 91.3404 161.638 91.4732 160.916 91.4732C160.044 91.4732 159.269 91.2873 158.589 90.9154C157.909 90.5435 157.377 90.0122 156.995 89.3215C156.612 88.6309 156.421 87.8233 156.421 86.8989C156.421 85.9745 156.607 85.1669 156.979 84.4763C157.361 83.7856 157.893 83.2543 158.573 82.8824C159.253 82.5105 160.034 82.3246 160.916 82.3246C161.776 82.3246 162.541 82.5052 163.211 82.8665C163.88 83.2278 164.401 83.7431 164.773 84.4125C165.155 85.0819 165.347 85.8576 165.347 86.7395ZM162.557 86.1339C162.557 85.6238 162.398 85.2254 162.079 84.9385C161.76 84.6516 161.362 84.5081 160.884 84.5081C160.416 84.5081 160.023 84.6516 159.704 84.9385C159.396 85.2147 159.205 85.6132 159.131 86.1339H162.557ZM166.242 86.883C166.242 85.9692 166.413 85.1669 166.753 84.4763C167.103 83.7856 167.576 83.2543 168.171 82.8824C168.766 82.5105 169.43 82.3246 170.163 82.3246C170.79 82.3246 171.337 82.4521 171.805 82.7071C172.283 82.9621 172.65 83.2968 172.905 83.7112V82.4521H175.63V91.3457H172.905V90.0866C172.639 90.501 172.267 90.8357 171.789 91.0907C171.322 91.3457 170.774 91.4732 170.147 91.4732C169.425 91.4732 168.766 91.2873 168.171 90.9154C167.576 90.5328 167.103 89.9963 166.753 89.3056C166.413 88.6043 166.242 87.7968 166.242 86.883ZM172.905 86.8989C172.905 86.2189 172.713 85.6823 172.331 85.2891C171.959 84.896 171.502 84.6994 170.96 84.6994C170.418 84.6994 169.956 84.896 169.574 85.2891C169.202 85.6716 169.016 86.2029 169.016 86.883C169.016 87.563 169.202 88.1049 169.574 88.5087C169.956 88.9018 170.418 89.0984 170.96 89.0984C171.502 89.0984 171.959 88.9018 172.331 88.5087C172.713 88.1155 172.905 87.5789 172.905 86.8989ZM181.204 91.4732C180.439 91.4732 179.754 91.3404 179.148 91.0748C178.542 90.8091 178.064 90.4478 177.714 89.9909C177.363 89.5234 177.166 89.0028 177.124 88.429H179.817C179.849 88.7584 179.987 89.024 180.232 89.2259C180.487 89.4172 180.806 89.5128 181.188 89.5128C181.528 89.5128 181.788 89.4437 181.969 89.3056C182.16 89.1675 182.256 88.9815 182.256 88.7477C182.256 88.4927 182.123 88.3015 181.857 88.174C181.592 88.0465 181.156 87.9136 180.551 87.7755C179.913 87.6268 179.382 87.4727 178.957 87.3133C178.542 87.1539 178.181 86.8989 177.873 86.5483C177.575 86.187 177.427 85.7088 177.427 85.1138C177.427 84.5931 177.565 84.1256 177.841 83.7112C178.128 83.2862 178.542 82.9515 179.084 82.7071C179.626 82.4521 180.274 82.3246 181.029 82.3246C182.144 82.3246 183.021 82.6009 183.659 83.1534C184.307 83.7059 184.679 84.4391 184.774 85.3529H182.256C182.213 85.0235 182.075 84.7685 181.842 84.5878C181.618 84.3966 181.321 84.3009 180.949 84.3009C180.63 84.3009 180.386 84.3647 180.216 84.4922C180.046 84.6197 179.961 84.8003 179.961 85.0341C179.961 85.2891 180.094 85.4804 180.359 85.6079C180.636 85.7354 181.061 85.8629 181.634 85.9904C182.283 86.1498 182.819 86.3145 183.244 86.4845C183.669 86.6439 184.036 86.9095 184.344 87.2814C184.652 87.6427 184.806 88.1315 184.806 88.7477C184.806 89.2684 184.663 89.7359 184.376 90.1503C184.089 90.5647 183.669 90.8888 183.117 91.1226C182.575 91.3563 181.937 91.4732 181.204 91.4732ZM194.873 86.7395C194.873 86.9839 194.857 87.2442 194.825 87.5205H188.657C188.7 88.0836 188.875 88.514 189.183 88.8115C189.491 89.109 189.879 89.2578 190.347 89.2578C191.027 89.2578 191.499 88.9709 191.765 88.3971H194.666C194.517 88.9815 194.246 89.5075 193.853 89.975C193.47 90.4425 192.987 90.8091 192.403 91.0748C191.818 91.3404 191.165 91.4732 190.442 91.4732C189.571 91.4732 188.795 91.2873 188.115 90.9154C187.435 90.5435 186.904 90.0122 186.521 89.3215C186.139 88.6309 185.948 87.8233 185.948 86.8989C185.948 85.9745 186.133 85.1669 186.505 84.4763C186.888 83.7856 187.419 83.2543 188.099 82.8824C188.779 82.5105 189.56 82.3246 190.442 82.3246C191.303 82.3246 192.068 82.5052 192.737 82.8665C193.407 83.2278 193.927 83.7431 194.299 84.4125C194.682 85.0819 194.873 85.8576 194.873 86.7395ZM192.084 86.1339C192.084 85.6238 191.924 85.2254 191.606 84.9385C191.287 84.6516 190.888 84.5081 190.41 84.5081C189.943 84.5081 189.55 84.6516 189.231 84.9385C188.923 85.2147 188.731 85.6132 188.657 86.1339H192.084ZM206.965 89.3693H202.789L202.12 91.3457H199.267L203.315 80.157H206.471L210.519 91.3457H207.634L206.965 89.3693ZM206.279 87.2974L204.877 83.1693L203.49 87.2974H206.279ZM215.13 82.3246C215.757 82.3246 216.304 82.4521 216.772 82.7071C217.25 82.9621 217.616 83.2968 217.871 83.7112V82.4521H220.597V91.3298C220.597 92.1479 220.432 92.8864 220.103 93.5452C219.784 94.2146 219.29 94.7459 218.621 95.139C217.962 95.5322 217.138 95.7288 216.15 95.7288C214.833 95.7288 213.765 95.4153 212.947 94.7884C212.128 94.1721 211.661 93.3327 211.544 92.2701H214.238C214.323 92.6101 214.524 92.8758 214.843 93.067C215.162 93.2689 215.555 93.3699 216.023 93.3699C216.586 93.3699 217.032 93.2052 217.361 92.8758C217.701 92.557 217.871 92.0417 217.871 91.3298V90.0706C217.606 90.485 217.239 90.825 216.772 91.0907C216.304 91.3457 215.757 91.4732 215.13 91.4732C214.397 91.4732 213.733 91.2873 213.138 90.9154C212.543 90.5328 212.07 89.9963 211.719 89.3056C211.379 88.6043 211.209 87.7968 211.209 86.883C211.209 85.9692 211.379 85.1669 211.719 84.4763C212.07 83.7856 212.543 83.2543 213.138 82.8824C213.733 82.5105 214.397 82.3246 215.13 82.3246ZM217.871 86.8989C217.871 86.2189 217.68 85.6823 217.298 85.2891C216.926 84.896 216.469 84.6994 215.927 84.6994C215.385 84.6994 214.923 84.896 214.54 85.2891C214.168 85.6716 213.983 86.2029 213.983 86.883C213.983 87.563 214.168 88.1049 214.54 88.5087C214.923 88.9018 215.385 89.0984 215.927 89.0984C216.469 89.0984 216.926 88.9018 217.298 88.5087C217.68 88.1155 217.871 87.5789 217.871 86.8989ZM225.294 84.0459C225.613 83.5253 226.011 83.1162 226.49 82.8187C226.978 82.5105 227.51 82.3565 228.083 82.3565V85.2413H227.334C226.654 85.2413 226.144 85.3901 225.804 85.6876C225.464 85.9745 225.294 86.4845 225.294 87.2177V91.3457H222.569V82.4521H225.294V84.0459ZM237.77 86.7395C237.77 86.9839 237.754 87.2442 237.722 87.5205H231.554C231.596 88.0836 231.772 88.514 232.08 88.8115C232.388 89.109 232.776 89.2578 233.243 89.2578C233.923 89.2578 234.396 88.9709 234.662 88.3971H237.562C237.414 88.9815 237.143 89.5075 236.75 89.975C236.367 90.4425 235.884 90.8091 235.299 91.0748C234.715 91.3404 234.061 91.4732 233.339 91.4732C232.468 91.4732 231.692 91.2873 231.012 90.9154C230.332 90.5435 229.8 90.0122 229.418 89.3215C229.035 88.6309 228.844 87.8233 228.844 86.8989C228.844 85.9745 229.03 85.1669 229.402 84.4763C229.785 83.7856 230.316 83.2543 230.996 82.8824C231.676 82.5105 232.457 82.3246 233.339 82.3246C234.199 82.3246 234.965 82.5052 235.634 82.8665C236.303 83.2278 236.824 83.7431 237.196 84.4125C237.578 85.0819 237.77 85.8576 237.77 86.7395ZM234.98 86.1339C234.98 85.6238 234.821 85.2254 234.502 84.9385C234.184 84.6516 233.785 84.5081 233.307 84.5081C232.839 84.5081 232.446 84.6516 232.127 84.9385C231.819 85.2147 231.628 85.6132 231.554 86.1339H234.98ZM247.591 86.7395C247.591 86.9839 247.575 87.2442 247.543 87.5205H241.375C241.418 88.0836 241.593 88.514 241.901 88.8115C242.209 89.109 242.597 89.2578 243.065 89.2578C243.745 89.2578 244.217 88.9709 244.483 88.3971H247.384C247.235 88.9815 246.964 89.5075 246.571 89.975C246.188 90.4425 245.705 90.8091 245.121 91.0748C244.536 91.3404 243.883 91.4732 243.16 91.4732C242.289 91.4732 241.513 91.2873 240.833 90.9154C240.153 90.5435 239.622 90.0122 239.239 89.3215C238.857 88.6309 238.666 87.8233 238.666 86.8989C238.666 85.9745 238.852 85.1669 239.223 84.4763C239.606 83.7856 240.137 83.2543 240.817 82.8824C241.497 82.5105 242.278 82.3246 243.16 82.3246C244.021 82.3246 244.786 82.5052 245.455 82.8665C246.125 83.2278 246.645 83.7431 247.017 84.4125C247.4 85.0819 247.591 85.8576 247.591 86.7395ZM244.802 86.1339C244.802 85.6238 244.642 85.2254 244.324 84.9385C244.005 84.6516 243.606 84.5081 243.128 84.5081C242.661 84.5081 242.268 84.6516 241.949 84.9385C241.641 85.2147 241.449 85.6132 241.375 86.1339H244.802ZM260.377 82.3565C261.482 82.3565 262.359 82.6912 263.007 83.3606C263.666 84.03 263.995 84.9597 263.995 86.1498V91.3457H261.285V86.5164C261.285 85.9426 261.131 85.5016 260.823 85.1935C260.526 84.8747 260.111 84.7153 259.58 84.7153C259.049 84.7153 258.629 84.8747 258.321 85.1935C258.023 85.5016 257.875 85.9426 257.875 86.5164V91.3457H255.165V86.5164C255.165 85.9426 255.011 85.5016 254.703 85.1935C254.405 84.8747 253.991 84.7153 253.46 84.7153C252.928 84.7153 252.509 84.8747 252.201 85.1935C251.903 85.5016 251.754 85.9426 251.754 86.5164V91.3457H249.029V82.4521H251.754V83.5678C252.031 83.1959 252.392 82.9037 252.838 82.6912C253.284 82.468 253.789 82.3565 254.352 82.3565C255.022 82.3565 255.617 82.4999 256.137 82.7868C256.669 83.0737 257.083 83.4828 257.381 84.0141C257.689 83.5253 258.108 83.1268 258.64 82.8187C259.171 82.5105 259.75 82.3565 260.377 82.3565ZM274.285 86.7395C274.285 86.9839 274.269 87.2442 274.237 87.5205H268.069C268.111 88.0836 268.287 88.514 268.595 88.8115C268.903 89.109 269.291 89.2578 269.758 89.2578C270.438 89.2578 270.911 88.9709 271.177 88.3971H274.078C273.929 88.9815 273.658 89.5075 273.265 89.975C272.882 90.4425 272.399 90.8091 271.814 91.0748C271.23 91.3404 270.576 91.4732 269.854 91.4732C268.983 91.4732 268.207 91.2873 267.527 90.9154C266.847 90.5435 266.316 90.0122 265.933 89.3215C265.55 88.6309 265.359 87.8233 265.359 86.8989C265.359 85.9745 265.545 85.1669 265.917 84.4763C266.3 83.7856 266.831 83.2543 267.511 82.8824C268.191 82.5105 268.972 82.3246 269.854 82.3246C270.715 82.3246 271.48 82.5052 272.149 82.8665C272.818 83.2278 273.339 83.7431 273.711 84.4125C274.093 85.0819 274.285 85.8576 274.285 86.7395ZM271.496 86.1339C271.496 85.6238 271.336 85.2254 271.017 84.9385C270.699 84.6516 270.3 84.5081 269.822 84.5081C269.354 84.5081 268.961 84.6516 268.643 84.9385C268.334 85.2147 268.143 85.6132 268.069 86.1339H271.496ZM281.142 82.3565C282.183 82.3565 283.012 82.6965 283.628 83.3765C284.255 84.0459 284.568 84.9704 284.568 86.1498V91.3457H281.859V86.5164C281.859 85.9213 281.705 85.4591 281.397 85.1297C281.088 84.8003 280.674 84.6356 280.153 84.6356C279.633 84.6356 279.218 84.8003 278.91 85.1297C278.602 85.4591 278.448 85.9213 278.448 86.5164V91.3457H275.723V82.4521H278.448V83.6315C278.724 83.2384 279.096 82.9302 279.564 82.7071C280.031 82.4733 280.557 82.3565 281.142 82.3565ZM291.419 89.0346V91.3457H290.032C289.044 91.3457 288.274 91.1066 287.721 90.6285C287.169 90.1397 286.893 89.3481 286.893 88.2537V84.7153H285.809V82.4521H286.893V80.2845H289.618V82.4521H291.403V84.7153H289.618V88.2855C289.618 88.5512 289.682 88.7424 289.809 88.8593C289.937 88.9762 290.149 89.0346 290.447 89.0346H291.419Z" fill="#111827"/>
<path d="M346.47 149.877H155.21C151.437 149.877 148.379 152.935 148.379 156.708V158.985C148.379 162.757 151.437 165.815 155.21 165.815H346.47C350.243 165.815 353.301 162.757 353.301 158.985V156.708C353.301 152.935 350.243 149.877 346.47 149.877Z" fill="#374151"/>
<path d="M280.44 179.222H152.933C150.418 179.222 148.379 181.261 148.379 183.776C148.379 186.291 150.418 188.33 152.933 188.33H280.44C282.955 188.33 284.994 186.291 284.994 183.776C284.994 181.261 282.955 179.222 280.44 179.222Z" fill="#D1D5DB"/>
<path d="M641.33 217.93H151.795C149.908 217.93 148.379 219.459 148.379 221.345C148.379 223.231 149.908 224.76 151.795 224.76H641.33C643.216 224.76 644.746 223.231 644.746 221.345C644.746 219.459 643.216 217.93 641.33 217.93Z" fill="#E5E7EB"/>
<path d="M623.115 233.868H151.794C149.908 233.868 148.379 235.397 148.379 237.284C148.379 239.17 149.908 240.699 151.794 240.699H623.115C625.001 240.699 626.53 239.17 626.53 237.284C626.53 235.397 625.001 233.868 623.115 233.868Z" fill="#E5E7EB"/>
<path d="M577.577 249.806H151.794C149.908 249.806 148.379 251.335 148.379 253.222C148.379 255.108 149.908 256.637 151.794 256.637H577.577C579.463 256.637 580.992 255.108 580.992 253.222C580.992 251.335 579.463 249.806 577.577 249.806Z" fill="#E5E7EB"/>
<path d="M609.453 265.745H151.794C149.908 265.745 148.379 267.274 148.379 269.16C148.379 271.046 149.908 272.575 151.794 272.575H609.453C611.34 272.575 612.869 271.046 612.869 269.16C612.869 267.274 611.34 265.745 609.453 265.745Z" fill="#E5E7EB"/>
<path d="M418.193 281.683H151.794C149.908 281.683 148.379 283.212 148.379 285.098C148.379 286.985 149.908 288.514 151.794 288.514H418.193C420.079 288.514 421.608 286.985 421.608 285.098C421.608 283.212 420.079 281.683 418.193 281.683Z" fill="#E5E7EB"/>
<path d="M387.455 602.279H159.764C153.476 602.279 148.379 607.376 148.379 613.664V663.756C148.379 670.043 153.476 675.14 159.764 675.14H387.455C393.742 675.14 398.839 670.043 398.839 663.756V613.664C398.839 607.376 393.742 602.279 387.455 602.279Z" fill="#EDE9FE"/>
<path d="M562.777 602.279H458.039C455.524 602.279 453.485 604.318 453.485 606.833C453.485 609.348 455.524 611.387 458.039 611.387H562.777C565.292 611.387 567.331 609.348 567.331 606.833C567.331 604.318 565.292 602.279 562.777 602.279Z" fill="#D1D5DB"/>
<path d="M609.453 620.495H456.9C455.014 620.495 453.485 622.024 453.485 623.91C453.485 625.796 455.014 627.325 456.9 627.325H609.453C611.34 627.325 612.869 625.796 612.869 623.91C612.869 622.024 611.34 620.495 609.453 620.495Z" fill="#E5E7EB"/>
<path d="M543.423 643.264H468.285C460.111 643.264 453.485 649.89 453.485 658.064C453.485 666.237 460.111 672.864 468.285 672.864H543.423C551.597 672.864 558.223 666.237 558.223 658.064C558.223 649.89 551.597 643.264 543.423 643.264Z" fill="url(#paint0_linear_632_6438)"/>
<path d="M235.052 643.089V634.81H240.631V636.253H236.802V638.226H240.344V639.669H236.802V641.646H240.647V643.089H235.052ZM245.859 638.266V639.633H242.083V638.266H245.859ZM251.851 637.191C251.818 636.865 251.68 636.611 251.434 636.431C251.189 636.25 250.856 636.16 250.436 636.16C250.15 636.16 249.909 636.2 249.712 636.281C249.515 636.359 249.364 636.469 249.259 636.609C249.157 636.749 249.106 636.908 249.106 637.086C249.1 637.234 249.131 637.363 249.199 637.474C249.269 637.584 249.364 637.68 249.486 637.761C249.607 637.839 249.747 637.908 249.906 637.967C250.065 638.024 250.235 638.072 250.416 638.113L251.159 638.291C251.521 638.371 251.852 638.479 252.154 638.614C252.456 638.749 252.717 638.914 252.938 639.111C253.159 639.308 253.33 639.54 253.452 639.807C253.576 640.073 253.639 640.379 253.642 640.724C253.639 641.231 253.51 641.67 253.254 642.042C253 642.412 252.634 642.699 252.154 642.903C251.677 643.106 251.102 643.207 250.428 643.207C249.759 643.207 249.177 643.104 248.681 642.899C248.188 642.695 247.803 642.391 247.525 641.99C247.25 641.585 247.106 641.085 247.092 640.49H248.786C248.805 640.767 248.885 640.999 249.025 641.185C249.168 641.368 249.358 641.507 249.595 641.602C249.835 641.693 250.106 641.739 250.408 641.739C250.704 641.739 250.961 641.696 251.18 641.61C251.401 641.523 251.572 641.404 251.693 641.25C251.814 641.096 251.875 640.92 251.875 640.72C251.875 640.534 251.82 640.378 251.709 640.251C251.602 640.125 251.442 640.017 251.232 639.928C251.025 639.839 250.77 639.758 250.468 639.685L249.567 639.459C248.869 639.289 248.317 639.024 247.913 638.662C247.509 638.301 247.308 637.815 247.311 637.203C247.308 636.702 247.441 636.264 247.711 635.889C247.983 635.514 248.356 635.222 248.831 635.012C249.305 634.802 249.844 634.696 250.448 634.696C251.062 634.696 251.599 634.802 252.057 635.012C252.518 635.222 252.876 635.514 253.132 635.889C253.388 636.264 253.52 636.698 253.529 637.191H251.851ZM256.57 634.81V643.089H254.819V634.81H256.57ZM263.5 637.486C263.444 637.289 263.364 637.115 263.262 636.964C263.159 636.811 263.034 636.682 262.886 636.576C262.74 636.469 262.573 636.386 262.384 636.33C262.198 636.273 261.992 636.245 261.766 636.245C261.343 636.245 260.971 636.35 260.65 636.56C260.332 636.77 260.084 637.076 259.906 637.478C259.728 637.877 259.639 638.365 259.639 638.941C259.639 639.518 259.727 640.009 259.902 640.413C260.077 640.817 260.325 641.126 260.646 641.339C260.967 641.549 261.345 641.654 261.782 641.654C262.178 641.654 262.516 641.584 262.797 641.444C263.08 641.301 263.295 641.1 263.444 640.842C263.594 640.583 263.67 640.277 263.67 639.924L264.026 639.976H261.891V638.658H265.356V639.701C265.356 640.429 265.202 641.054 264.895 641.577C264.588 642.098 264.165 642.499 263.625 642.782C263.086 643.062 262.469 643.203 261.774 643.203C260.998 643.203 260.316 643.031 259.728 642.689C259.141 642.344 258.682 641.855 258.354 641.222C258.028 640.586 257.864 639.831 257.864 638.958C257.864 638.286 257.962 637.688 258.156 637.163C258.352 636.634 258.627 636.187 258.98 635.82C259.333 635.454 259.744 635.175 260.213 634.984C260.682 634.792 261.19 634.696 261.737 634.696C262.206 634.696 262.643 634.765 263.047 634.903C263.452 635.037 263.81 635.229 264.123 635.477C264.438 635.725 264.695 636.02 264.895 636.362C265.094 636.702 265.222 637.076 265.279 637.486H263.5ZM273.596 634.81V643.089H272.084L268.482 637.878H268.421V643.089H266.671V634.81H268.207L271.781 640.017H271.854V634.81H273.596ZM276.469 643.089H274.594L277.452 634.81H279.708L282.562 643.089H280.686L278.612 636.702H278.547L276.469 643.089ZM276.352 639.835H280.783V641.201H276.352V639.835ZM282.232 636.253V634.81H289.032V636.253H286.497V643.089H284.766V636.253H282.232ZM295.266 634.81H297.016V640.187C297.016 640.79 296.872 641.319 296.583 641.771C296.298 642.224 295.898 642.577 295.383 642.831C294.868 643.081 294.268 643.207 293.584 643.207C292.896 643.207 292.295 643.081 291.781 642.831C291.266 642.577 290.866 642.224 290.58 641.771C290.294 641.319 290.151 640.79 290.151 640.187V634.81H291.902V640.037C291.902 640.352 291.971 640.633 292.108 640.878C292.248 641.123 292.445 641.316 292.698 641.456C292.952 641.596 293.247 641.666 293.584 641.666C293.923 641.666 294.218 641.596 294.469 641.456C294.722 641.316 294.918 641.123 295.055 640.878C295.195 640.633 295.266 640.352 295.266 640.037V634.81ZM298.456 643.089V634.81H301.723C302.348 634.81 302.882 634.922 303.324 635.145C303.769 635.366 304.107 635.68 304.339 636.087C304.573 636.491 304.69 636.967 304.69 637.514C304.69 638.064 304.572 638.537 304.335 638.933C304.097 639.327 303.754 639.629 303.304 639.839C302.856 640.049 302.314 640.154 301.678 640.154H299.491V638.747H301.395C301.73 638.747 302.007 638.702 302.228 638.61C302.449 638.518 302.614 638.381 302.721 638.198C302.832 638.014 302.887 637.787 302.887 637.514C302.887 637.239 302.832 637.008 302.721 636.819C302.614 636.63 302.448 636.487 302.224 636.39C302.003 636.291 301.724 636.241 301.387 636.241H300.207V643.089H298.456ZM302.928 639.321L304.985 643.089H303.053L301.04 639.321H302.928ZM305.927 643.089V634.81H311.506V636.253H307.678V638.226H311.219V639.669H307.678V641.646H311.523V643.089H305.927Z" fill="#374151"/>
</g>
<path d="M438.514 325.412H85.5919C75.393 325.412 67.1251 333.68 67.1251 343.878V524.443C67.1251 534.642 75.393 542.91 85.5919 542.91H438.514C448.712 542.91 456.98 534.642 456.98 524.443V343.878C456.98 333.68 448.712 325.412 438.514 325.412Z" fill="#EDE9FE"/>
<path d="M97.385 355.205V366.008H94.7535V355.205H97.385ZM103.339 355.205C104.478 355.205 105.473 355.431 106.325 355.882C107.176 356.334 107.833 356.97 108.295 357.791C108.767 358.601 109.003 359.54 109.003 360.607C109.003 361.663 108.767 362.602 108.295 363.423C107.833 364.244 107.171 364.88 106.309 365.331C105.458 365.783 104.468 366.008 103.339 366.008H99.2921V355.205H103.339ZM103.17 363.762C104.165 363.762 104.94 363.485 105.494 362.93C106.048 362.376 106.325 361.602 106.325 360.607C106.325 359.612 106.048 358.837 105.494 358.283C104.94 357.729 104.165 357.452 103.17 357.452H101.924V363.762H103.17ZM116.02 355.205L118.698 363.361L121.375 355.205H124.176L120.344 366.008H117.051L113.219 355.205H116.02ZM133.371 361.561C133.371 361.797 133.355 362.048 133.325 362.315H127.369C127.41 362.859 127.579 363.274 127.877 363.561C128.174 363.849 128.549 363.992 129 363.992C129.657 363.992 130.113 363.715 130.37 363.161H133.171C133.027 363.726 132.765 364.233 132.386 364.685C132.016 365.136 131.55 365.49 130.985 365.747C130.421 366.003 129.79 366.131 129.093 366.131C128.251 366.131 127.502 365.952 126.846 365.593C126.189 365.234 125.676 364.721 125.307 364.054C124.938 363.387 124.753 362.607 124.753 361.715C124.753 360.822 124.932 360.042 125.291 359.376C125.661 358.709 126.174 358.196 126.83 357.837C127.487 357.478 128.241 357.298 129.093 357.298C129.924 357.298 130.662 357.473 131.309 357.821C131.955 358.17 132.458 358.668 132.817 359.314C133.186 359.96 133.371 360.709 133.371 361.561ZM130.678 360.976C130.678 360.484 130.524 360.099 130.216 359.822C129.908 359.545 129.523 359.406 129.062 359.406C128.61 359.406 128.231 359.545 127.923 359.822C127.625 360.089 127.441 360.473 127.369 360.976H130.678ZM137.39 358.96C137.698 358.457 138.083 358.062 138.545 357.775C139.017 357.478 139.53 357.329 140.084 357.329V360.114H139.36C138.704 360.114 138.211 360.258 137.883 360.545C137.555 360.822 137.39 361.315 137.39 362.023V366.008H134.759V357.421H137.39V358.96ZM142.665 356.529C142.203 356.529 141.824 356.395 141.526 356.129C141.239 355.852 141.095 355.513 141.095 355.113C141.095 354.702 141.239 354.364 141.526 354.097C141.824 353.82 142.203 353.682 142.665 353.682C143.116 353.682 143.486 353.82 143.773 354.097C144.07 354.364 144.219 354.702 144.219 355.113C144.219 355.513 144.07 355.852 143.773 356.129C143.486 356.395 143.116 356.529 142.665 356.529ZM143.973 357.421V366.008H141.341V357.421H143.973ZM150.189 359.606H148.773V366.008H146.142V359.606H145.187V357.421H146.142V357.175C146.142 356.118 146.444 355.318 147.049 354.774C147.655 354.22 148.542 353.943 149.712 353.943C149.907 353.943 150.05 353.948 150.143 353.959V356.19C149.64 356.159 149.286 356.231 149.081 356.406C148.876 356.58 148.773 356.893 148.773 357.344V357.421H150.189V359.606ZM152.749 356.529C152.287 356.529 151.908 356.395 151.61 356.129C151.323 355.852 151.179 355.513 151.179 355.113C151.179 354.702 151.323 354.364 151.61 354.097C151.908 353.82 152.287 353.682 152.749 353.682C153.2 353.682 153.57 353.82 153.857 354.097C154.154 354.364 154.303 354.702 154.303 355.113C154.303 355.513 154.154 355.852 153.857 356.129C153.57 356.395 153.2 356.529 152.749 356.529ZM154.057 357.421V366.008H151.425V357.421H154.057ZM155.441 361.715C155.441 360.822 155.62 360.042 155.979 359.376C156.349 358.709 156.856 358.196 157.503 357.837C158.159 357.478 158.908 357.298 159.75 357.298C160.827 357.298 161.725 357.58 162.443 358.145C163.171 358.709 163.648 359.504 163.874 360.53H161.073C160.837 359.873 160.381 359.545 159.703 359.545C159.221 359.545 158.837 359.735 158.549 360.114C158.262 360.484 158.118 361.017 158.118 361.715C158.118 362.412 158.262 362.951 158.549 363.331C158.837 363.7 159.221 363.885 159.703 363.885C160.381 363.885 160.837 363.556 161.073 362.9H163.874C163.648 363.905 163.171 364.695 162.443 365.27C161.714 365.844 160.817 366.131 159.75 366.131C158.908 366.131 158.159 365.952 157.503 365.593C156.856 365.234 156.349 364.721 155.979 364.054C155.62 363.387 155.441 362.607 155.441 361.715ZM164.758 361.699C164.758 360.817 164.922 360.042 165.251 359.376C165.589 358.709 166.046 358.196 166.62 357.837C167.195 357.478 167.836 357.298 168.544 357.298C169.149 357.298 169.678 357.421 170.129 357.667C170.591 357.914 170.945 358.237 171.191 358.637V357.421H173.822V366.008H171.191V364.793C170.934 365.193 170.575 365.516 170.114 365.762C169.662 366.008 169.134 366.131 168.529 366.131C167.831 366.131 167.195 365.952 166.62 365.593C166.046 365.223 165.589 364.705 165.251 364.039C164.922 363.361 164.758 362.582 164.758 361.699ZM171.191 361.715C171.191 361.058 171.006 360.54 170.637 360.16C170.278 359.781 169.837 359.591 169.313 359.591C168.79 359.591 168.344 359.781 167.975 360.16C167.616 360.53 167.436 361.043 167.436 361.699C167.436 362.356 167.616 362.879 167.975 363.269C168.344 363.649 168.79 363.838 169.313 363.838C169.837 363.838 170.278 363.649 170.637 363.269C171.006 362.889 171.191 362.371 171.191 361.715ZM180.512 363.777V366.008H179.173C178.219 366.008 177.475 365.777 176.942 365.316C176.408 364.844 176.142 364.08 176.142 363.023V359.606H175.095V357.421H176.142V355.328H178.773V357.421H180.497V359.606H178.773V363.054C178.773 363.31 178.835 363.495 178.958 363.608C179.081 363.72 179.286 363.777 179.573 363.777H180.512ZM183.301 356.529C182.84 356.529 182.46 356.395 182.163 356.129C181.875 355.852 181.732 355.513 181.732 355.113C181.732 354.702 181.875 354.364 182.163 354.097C182.46 353.82 182.84 353.682 183.301 353.682C183.753 353.682 184.122 353.82 184.409 354.097C184.707 354.364 184.856 354.702 184.856 355.113C184.856 355.513 184.707 355.852 184.409 356.129C184.122 356.395 183.753 356.529 183.301 356.529ZM184.61 357.421V366.008H181.978V357.421H184.61ZM190.425 366.131C189.584 366.131 188.825 365.952 188.148 365.593C187.481 365.234 186.953 364.721 186.563 364.054C186.183 363.387 185.993 362.607 185.993 361.715C185.993 360.832 186.188 360.058 186.578 359.391C186.968 358.714 187.501 358.196 188.179 357.837C188.856 357.478 189.615 357.298 190.456 357.298C191.297 357.298 192.057 357.478 192.734 357.837C193.411 358.196 193.944 358.714 194.334 359.391C194.724 360.058 194.919 360.832 194.919 361.715C194.919 362.597 194.719 363.377 194.319 364.054C193.929 364.721 193.39 365.234 192.703 365.593C192.026 365.952 191.267 366.131 190.425 366.131ZM190.425 363.869C190.928 363.869 191.354 363.685 191.703 363.315C192.062 362.936 192.241 362.402 192.241 361.715C192.241 361.027 192.067 360.499 191.718 360.13C191.379 359.75 190.959 359.56 190.456 359.56C189.943 359.56 189.517 359.745 189.179 360.114C188.84 360.484 188.671 361.017 188.671 361.715C188.671 362.402 188.835 362.936 189.163 363.315C189.502 363.685 189.923 363.869 190.425 363.869ZM201.547 357.329C202.553 357.329 203.353 357.657 203.948 358.314C204.553 358.96 204.856 359.853 204.856 360.991V366.008H202.24V361.345C202.24 360.771 202.091 360.325 201.794 360.007C201.496 359.689 201.096 359.53 200.593 359.53C200.09 359.53 199.69 359.689 199.393 360.007C199.095 360.325 198.947 360.771 198.947 361.345V366.008H196.315V357.421H198.947V358.56C199.213 358.18 199.572 357.883 200.024 357.667C200.475 357.442 200.983 357.329 201.547 357.329Z" fill="#111827"/>
<path d="M391.87 475.452H334.417C327.051 475.452 321.08 481.423 321.08 488.789C321.08 496.155 327.051 502.126 334.417 502.126H391.87C399.235 502.126 405.207 496.155 405.207 488.789C405.207 481.423 399.235 475.452 391.87 475.452Z" fill="white"/>
<path d="M341.503 493.919C344.336 493.919 346.633 491.622 346.633 488.789C346.633 485.956 344.336 483.659 341.503 483.659C338.67 483.659 336.374 485.956 336.374 488.789C336.374 491.622 338.67 493.919 341.503 493.919Z" fill="#7E3CEF"/>
<path d="M338.425 488.789L340.477 490.841L344.581 486.737" stroke="white" stroke-width="1.43631" stroke-linecap="round" stroke-linejoin="round"/>
<path d="M353.759 485.172L355.563 490.841H355.632L357.439 485.172H359.188L356.616 492.633H354.583L352.007 485.172H353.759ZM361.976 492.743C361.4 492.743 360.905 492.626 360.489 492.393C360.076 492.157 359.758 491.825 359.535 491.395C359.311 490.962 359.199 490.451 359.199 489.861C359.199 489.285 359.311 488.78 359.535 488.345C359.758 487.91 360.073 487.572 360.478 487.329C360.886 487.086 361.365 486.964 361.914 486.964C362.283 486.964 362.627 487.024 362.945 487.143C363.265 487.26 363.545 487.436 363.783 487.671C364.023 487.907 364.21 488.203 364.344 488.56C364.477 488.915 364.544 489.33 364.544 489.806V490.232H359.819V489.271H363.083C363.083 489.047 363.035 488.849 362.937 488.677C362.84 488.504 362.705 488.37 362.533 488.272C362.363 488.173 362.165 488.123 361.939 488.123C361.704 488.123 361.495 488.178 361.313 488.287C361.133 488.394 360.992 488.538 360.89 488.72C360.788 488.9 360.736 489.101 360.733 489.322V490.236C360.733 490.513 360.784 490.752 360.886 490.954C360.991 491.155 361.138 491.311 361.327 491.42C361.517 491.529 361.741 491.584 362.001 491.584C362.174 491.584 362.331 491.56 362.475 491.511C362.618 491.463 362.741 491.39 362.843 491.293C362.945 491.195 363.022 491.076 363.076 490.936L364.511 491.03C364.438 491.375 364.289 491.676 364.063 491.934C363.84 492.189 363.551 492.388 363.196 492.531C362.844 492.672 362.437 492.743 361.976 492.743ZM365.557 492.633V487.037H367.062V488.014H367.12C367.222 487.666 367.393 487.404 367.634 487.227C367.874 487.047 368.151 486.957 368.464 486.957C368.542 486.957 368.626 486.962 368.716 486.972C368.805 486.981 368.884 486.995 368.952 487.012V488.389C368.88 488.367 368.779 488.348 368.65 488.331C368.521 488.314 368.404 488.305 368.297 488.305C368.068 488.305 367.864 488.355 367.685 488.455C367.507 488.552 367.366 488.688 367.262 488.863C367.16 489.037 367.109 489.239 367.109 489.467V492.633H365.557ZM369.755 492.633V487.037H371.307V492.633H369.755ZM370.534 486.316C370.304 486.316 370.106 486.239 369.941 486.086C369.778 485.931 369.697 485.745 369.697 485.529C369.697 485.315 369.778 485.132 369.941 484.979C370.106 484.823 370.304 484.746 370.534 484.746C370.765 484.746 370.962 484.823 371.125 484.979C371.29 485.132 371.372 485.315 371.372 485.529C371.372 485.745 371.29 485.931 371.125 486.086C370.962 486.239 370.765 486.316 370.534 486.316ZM375.559 487.037V488.203H372.106V487.037H375.559ZM372.896 492.633V486.633C372.896 486.227 372.975 485.891 373.133 485.624C373.293 485.357 373.512 485.156 373.789 485.023C374.066 484.889 374.38 484.822 374.732 484.822C374.97 484.822 375.188 484.84 375.385 484.877C375.584 484.913 375.732 484.946 375.829 484.975L375.552 486.141C375.491 486.122 375.416 486.103 375.326 486.086C375.239 486.069 375.149 486.061 375.057 486.061C374.828 486.061 374.669 486.114 374.579 486.221C374.49 486.326 374.445 486.473 374.445 486.662V492.633H372.896ZM376.508 492.633V487.037H378.06V492.633H376.508ZM377.287 486.316C377.056 486.316 376.859 486.239 376.693 486.086C376.531 485.931 376.449 485.745 376.449 485.529C376.449 485.315 376.531 485.132 376.693 484.979C376.859 484.823 377.056 484.746 377.287 484.746C377.518 484.746 377.715 484.823 377.877 484.979C378.043 485.132 378.125 485.315 378.125 485.529C378.125 485.745 378.043 485.931 377.877 486.086C377.715 486.239 377.518 486.316 377.287 486.316ZM381.853 492.743C381.277 492.743 380.782 492.626 380.367 492.393C379.954 492.157 379.636 491.825 379.412 491.395C379.189 490.962 379.077 490.451 379.077 489.861C379.077 489.285 379.189 488.78 379.412 488.345C379.636 487.91 379.95 487.572 380.356 487.329C380.764 487.086 381.242 486.964 381.791 486.964C382.16 486.964 382.504 487.024 382.822 487.143C383.143 487.26 383.422 487.436 383.66 487.671C383.901 487.907 384.088 488.203 384.221 488.56C384.355 488.915 384.422 489.33 384.422 489.806V490.232H379.696V489.271H382.961C382.961 489.047 382.912 488.849 382.815 488.677C382.718 488.504 382.583 488.37 382.411 488.272C382.241 488.173 382.043 488.123 381.817 488.123C381.581 488.123 381.372 488.178 381.19 488.287C381.01 488.394 380.869 488.538 380.767 488.72C380.665 488.9 380.613 489.101 380.611 489.322V490.236C380.611 490.513 380.662 490.752 380.764 490.954C380.868 491.155 381.015 491.311 381.205 491.42C381.394 491.529 381.619 491.584 381.879 491.584C382.051 491.584 382.209 491.56 382.352 491.511C382.496 491.463 382.618 491.39 382.72 491.293C382.822 491.195 382.9 491.076 382.953 490.936L384.389 491.03C384.316 491.375 384.167 491.676 383.941 491.934C383.717 492.189 383.428 492.388 383.074 492.531C382.721 492.672 382.315 492.743 381.853 492.743ZM387.496 492.724C387.071 492.724 386.686 492.615 386.342 492.396C385.999 492.175 385.727 491.851 385.525 491.424C385.326 490.994 385.227 490.467 385.227 489.843C385.227 489.201 385.33 488.668 385.536 488.243C385.743 487.816 386.017 487.496 386.36 487.285C386.705 487.071 387.082 486.964 387.493 486.964C387.806 486.964 388.067 487.018 388.276 487.125C388.487 487.229 388.657 487.36 388.786 487.518C388.917 487.674 389.017 487.827 389.085 487.977H389.132V485.172H390.681V492.633H389.151V491.737H389.085C389.012 491.893 388.909 492.047 388.775 492.2C388.644 492.35 388.473 492.475 388.262 492.575C388.053 492.675 387.798 492.724 387.496 492.724ZM387.988 491.489C388.238 491.489 388.45 491.421 388.622 491.285C388.797 491.147 388.931 490.954 389.023 490.706C389.118 490.458 389.165 490.168 389.165 489.835C389.165 489.503 389.119 489.214 389.027 488.968C388.934 488.723 388.801 488.533 388.626 488.4C388.451 488.266 388.238 488.199 387.988 488.199C387.733 488.199 387.518 488.269 387.343 488.407C387.169 488.546 387.036 488.737 386.946 488.983C386.856 489.228 386.812 489.512 386.812 489.835C386.812 490.161 386.856 490.449 386.946 490.699C387.039 490.946 387.171 491.141 387.343 491.282C387.518 491.42 387.733 491.489 387.988 491.489Z" fill="#7E3CEF"/>
<g filter="url(#filter1_d_632_6438)">
<path d="M238.3 388.386H35.3448C28.4191 388.386 22.8048 393.496 22.8048 399.8V491.115C22.8048 497.419 28.4191 502.53 35.3448 502.53H238.3C245.226 502.53 250.84 497.419 250.84 491.115V399.8C250.84 393.496 245.226 388.386 238.3 388.386Z" fill="white"/>
</g>
<path opacity="0.85" d="M210.001 424.498H130.1C128.209 424.498 126.676 426.031 126.676 427.922C126.676 429.814 128.209 431.347 130.1 431.347H210.001C211.892 431.347 213.425 429.814 213.425 427.922C213.425 426.031 211.892 424.498 210.001 424.498Z" fill="#374151"/>
<path opacity="0.55" d="M192.309 438.852H129.529C127.953 438.852 126.676 440.129 126.676 441.705C126.676 443.281 127.953 444.559 129.529 444.559H192.309C193.885 444.559 195.162 443.281 195.162 441.705C195.162 440.129 193.885 438.852 192.309 438.852Z" fill="#374151"/>
<path opacity="0.4" d="M170.05 466.417H128.959C127.698 466.417 126.676 467.44 126.676 468.7C126.676 469.961 127.698 470.983 128.959 470.983H170.05C171.311 470.983 172.333 469.961 172.333 468.7C172.333 467.44 171.311 466.417 170.05 466.417Z" fill="#374151"/>
<path opacity="0.85" d="M189.455 452.064H130.1C128.209 452.064 126.676 453.597 126.676 455.488C126.676 457.379 128.209 458.913 130.1 458.913H189.455C191.346 458.913 192.879 457.379 192.879 455.488C192.879 453.597 191.346 452.064 189.455 452.064Z" fill="#374151"/>
<path d="M74.2242 485.882C95.289 485.882 112.365 468.806 112.365 447.741C112.365 426.676 95.289 409.6 74.2242 409.6C53.1593 409.6 36.0829 426.676 36.0829 447.741C36.0829 468.806 53.1593 485.882 74.2242 485.882Z" fill="#515968"/>
<path opacity="0.85" d="M74.2247 444.563C80.076 444.563 84.8195 439.819 84.8195 433.968C84.8195 428.116 80.076 423.373 74.2247 423.373C68.3733 423.373 63.6299 428.116 63.6299 433.968C63.6299 439.819 68.3733 444.563 74.2247 444.563Z" fill="white"/>
<path opacity="0.85" d="M57.2729 459.395C57.2729 450.919 62.9234 446.681 74.2245 446.681C85.5257 446.681 91.1762 450.919 91.1762 459.395C91.1762 466.417 85.4841 472.109 78.4625 472.109H69.9866C62.965 472.109 57.2729 466.417 57.2729 459.395Z" fill="white"/>
<path d="M370.533 382.673C370.675 381.973 371.357 381.519 372.057 381.66C383.544 383.975 393.466 393.366 397.204 408.72C397.373 409.414 396.947 410.114 396.253 410.283C395.559 410.452 394.859 410.027 394.69 409.332C391.151 394.794 381.897 386.283 371.546 384.197C370.846 384.056 370.392 383.374 370.533 382.673Z" fill="#7E3CEF"/>
<path d="M363.089 381.292C363.799 381.211 364.441 381.72 364.523 382.429C364.605 383.139 364.096 383.781 363.386 383.863C362.328 383.985 361.267 384.171 360.209 384.421C347.02 387.545 338.351 401.492 338.994 417.813C339.022 418.527 338.466 419.129 337.752 419.157C337.039 419.185 336.437 418.629 336.409 417.915C335.734 400.767 344.861 385.397 359.613 381.903C360.769 381.63 361.93 381.426 363.089 381.292Z" fill="#7E3CEF"/>
<path d="M387.447 400.935C388.085 400.614 388.863 400.87 389.184 401.508L388.029 402.09C389.097 401.552 389.178 401.511 389.184 401.508L389.185 401.509L389.186 401.512L389.2 401.54C389.209 401.558 389.221 401.582 389.235 401.613C389.266 401.676 389.309 401.766 389.362 401.882C389.468 402.114 389.616 402.453 389.792 402.889C390.143 403.761 390.607 405.026 391.066 406.625C391.983 409.82 392.886 414.359 392.837 419.755C392.797 424.206 395.973 428.055 400.346 428.841C400.409 428.852 400.473 428.862 400.536 428.873C401.241 428.988 401.718 429.655 401.603 430.36C401.487 431.064 400.822 431.542 400.117 431.427C400.04 431.414 399.964 431.401 399.89 431.388C394.267 430.378 390.199 425.436 390.25 419.732C390.296 414.635 389.442 410.347 388.578 407.339C388.147 405.836 387.714 404.655 387.392 403.857C387.231 403.458 387.098 403.155 387.007 402.955L386.879 402.682C386.877 402.677 386.875 402.674 386.874 402.672C386.553 402.034 386.809 401.257 387.447 400.935Z" fill="#7E3CEF"/>
<path d="M365.3 386.11C366.81 386.027 368.914 386.057 371.301 386.504C376.096 387.403 382.03 389.993 386.54 396.684C386.939 397.277 386.781 398.081 386.189 398.48C385.597 398.879 384.793 398.723 384.394 398.13C380.348 392.128 375.087 389.846 370.824 389.047C368.683 388.646 366.792 388.619 365.441 388.693C364.767 388.73 364.229 388.791 363.867 388.843C363.686 388.868 363.549 388.892 363.46 388.908C363.416 388.916 363.384 388.922 363.364 388.926C363.354 388.928 363.347 388.929 363.344 388.93L363.231 388.948C359.519 389.4 356.544 390.588 354.149 392.188C353.555 392.585 352.751 392.424 352.354 391.83C351.958 391.236 352.118 390.433 352.712 390.036C355.441 388.213 358.785 386.893 362.862 386.388C362.863 386.388 362.864 386.387 362.865 386.387C362.899 386.381 362.945 386.372 363.004 386.361C363.123 386.34 363.291 386.311 363.504 386.281C363.932 386.22 364.543 386.151 365.3 386.11Z" fill="#7E3CEF"/>
<path d="M346.748 395.945C347.157 395.359 347.964 395.215 348.549 395.624C349.135 396.033 349.279 396.839 348.87 397.425C346.419 400.937 345.125 404.897 344.448 408.015C344.111 409.568 343.93 410.896 343.834 411.831C343.785 412.299 343.759 412.667 343.744 412.915C343.737 413.038 343.732 413.132 343.729 413.193C343.729 413.214 343.728 413.231 343.727 413.244C343.934 417.402 343.098 421.158 342.218 423.862C341.774 425.225 341.316 426.332 340.966 427.103C340.791 427.489 340.643 427.792 340.537 428.001C340.484 428.105 340.441 428.187 340.411 428.243C340.396 428.272 340.384 428.295 340.375 428.311C340.371 428.318 340.368 428.325 340.365 428.33C340.364 428.332 340.362 428.334 340.361 428.336L340.359 428.34C340.012 428.964 339.224 429.189 338.6 428.842C337.975 428.494 337.752 427.707 338.099 427.082L338.128 427.028C338.15 426.986 338.185 426.919 338.23 426.83C338.32 426.652 338.452 426.384 338.61 426.035C338.926 425.337 339.347 424.32 339.757 423.062C340.578 420.537 341.339 417.085 341.142 413.313C341.14 413.281 341.14 413.248 341.141 413.216V413.204C341.141 413.198 341.141 413.189 341.142 413.178C341.142 413.157 341.143 413.127 341.145 413.089C341.148 413.012 341.153 412.901 341.162 412.76C341.178 412.478 341.208 412.073 341.26 411.566C341.364 410.553 341.559 409.128 341.92 407.466C342.639 404.154 344.033 399.834 346.748 395.945Z" fill="#7E3CEF"/>
<path d="M385.813 423.872C386.469 423.591 387.23 423.895 387.511 424.552C388.809 427.586 391.809 431.44 398.929 433.507C399.615 433.706 400.01 434.424 399.811 435.11C399.612 435.796 398.894 436.191 398.208 435.992C390.337 433.707 386.732 429.31 385.132 425.57C384.851 424.913 385.156 424.153 385.813 423.872Z" fill="#7E3CEF"/>
<path d="M370.27 393.098C370.499 392.421 371.233 392.058 371.91 392.287C376.1 393.705 379.723 396.538 382.157 400.325C384.767 404.386 387.612 410.568 386.863 417.564C386.787 418.274 386.15 418.789 385.439 418.713C384.729 418.637 384.214 417.999 384.29 417.289C384.949 411.135 382.446 405.56 379.98 401.723C377.859 398.424 374.709 395.966 371.08 394.738C370.404 394.509 370.041 393.775 370.27 393.098Z" fill="#7E3CEF"/>
<path d="M363.338 391.444C364.045 391.344 364.7 391.838 364.799 392.545C364.899 393.253 364.407 393.907 363.699 394.007C360.927 394.398 358.634 395.537 356.789 396.913C353.522 399.351 351.239 402.892 350.294 406.876C349.608 409.77 348.886 413.814 349.104 417.275C349.22 419.123 348.712 421.471 347.979 423.835C347.233 426.237 346.207 428.802 345.179 431.141C344.15 433.484 343.109 435.621 342.327 437.171C341.935 437.947 341.607 438.578 341.377 439.015C341.262 439.233 341.172 439.404 341.11 439.521C341.078 439.579 341.054 439.624 341.037 439.654C341.029 439.669 341.023 439.681 341.018 439.689C341.016 439.693 341.015 439.696 341.013 439.698L341.012 439.7L341.011 439.701C340.67 440.329 339.885 440.561 339.257 440.219C338.63 439.878 338.398 439.092 338.739 438.465L338.74 438.463C338.741 438.461 338.742 438.459 338.744 438.456C338.748 438.449 338.754 438.438 338.761 438.424C338.776 438.396 338.799 438.354 338.828 438.299C338.888 438.187 338.976 438.022 339.088 437.81C339.312 437.384 339.634 436.766 340.018 436.005C340.786 434.482 341.805 432.388 342.811 430.1C343.818 427.808 344.802 425.34 345.507 423.068C346.223 420.759 346.607 418.79 346.522 417.437C346.279 413.585 347.075 409.238 347.776 406.279C348.857 401.722 351.474 397.651 355.242 394.84C357.364 393.257 360.056 391.907 363.338 391.444Z" fill="#7E3CEF"/>
<path d="M366.603 397.18C366.693 397.184 366.765 397.188 366.817 397.192C366.834 397.193 366.849 397.194 366.862 397.195C366.863 397.195 366.864 397.194 366.866 397.195C366.903 397.195 366.954 397.197 367.017 397.2C367.144 397.205 367.322 397.216 367.543 397.239C367.984 397.283 368.601 397.37 369.331 397.542C370.79 397.886 372.729 398.574 374.632 399.959C378.519 402.786 381.951 408.288 381.311 418.707C381.308 418.749 381.304 418.791 381.298 418.832C381.297 418.835 381.297 418.841 381.296 418.847C381.293 418.866 381.289 418.898 381.284 418.943C381.274 419.032 381.259 419.172 381.248 419.358C381.224 419.731 381.21 420.284 381.25 420.974C381.33 422.357 381.627 424.278 382.501 426.404C384.229 430.607 388.282 435.791 397.834 439.145C398.508 439.381 398.863 440.12 398.627 440.794C398.39 441.468 397.652 441.822 396.977 441.585C386.776 438.003 382.135 432.319 380.109 427.387C379.105 424.946 378.76 422.733 378.667 421.124C378.62 420.318 378.637 419.661 378.666 419.197C378.68 418.965 378.698 418.781 378.713 418.65L378.732 418.495C379.314 408.811 376.14 404.255 373.11 402.051C371.552 400.917 369.953 400.347 368.738 400.061C368.133 399.918 367.629 399.848 367.284 399.813C367.113 399.796 366.981 399.788 366.897 399.784C366.855 399.782 366.824 399.781 366.807 399.78H366.793L366.679 399.775L366.648 399.773C366.618 399.771 366.569 399.769 366.503 399.766C366.37 399.761 366.168 399.757 365.911 399.762C365.394 399.774 364.66 399.824 363.811 399.981C362.103 400.296 359.999 401.029 358.231 402.671C357.708 403.157 356.889 403.126 356.403 402.603C355.917 402.079 355.947 401.26 356.47 400.774C358.711 398.694 361.329 397.809 363.341 397.437C364.351 397.25 365.226 397.189 365.854 397.175C366.168 397.169 366.423 397.174 366.603 397.18Z" fill="#7E3CEF"/>
<path d="M352.391 408.277C352.546 407.58 353.238 407.141 353.935 407.296C354.632 407.452 355.072 408.143 354.917 408.84C354.634 410.11 354.464 411.572 354.45 413.254C354.38 421.529 351.137 429.95 347.982 436.227C346.396 439.381 344.816 442.027 343.631 443.886C343.039 444.816 342.544 445.551 342.196 446.055C342.022 446.308 341.884 446.503 341.789 446.636C341.742 446.702 341.705 446.753 341.68 446.788C341.667 446.805 341.657 446.818 341.65 446.828C341.646 446.833 341.644 446.836 341.642 446.839C341.641 446.84 341.64 446.841 341.64 446.842L341.639 446.843C341.634 446.84 341.567 446.791 340.597 446.076L341.639 446.843C341.215 447.418 340.405 447.542 339.829 447.118C339.254 446.695 339.131 445.885 339.555 445.31L339.556 445.308C339.557 445.307 339.559 445.304 339.562 445.301C339.567 445.294 339.574 445.283 339.585 445.268C339.606 445.238 339.64 445.193 339.684 445.132C339.771 445.01 339.901 444.826 340.067 444.586C340.399 444.105 340.875 443.396 341.449 442.496C342.598 440.693 344.133 438.124 345.67 435.065C348.761 428.916 351.798 420.919 351.863 413.232C351.879 411.389 352.064 409.744 352.391 408.277Z" fill="#7E3CEF"/>
<path d="M371.263 429.488C371.466 428.803 372.187 428.413 372.872 428.616C373.556 428.82 373.947 429.54 373.743 430.225C371.169 438.896 365.551 454.298 355.756 464.561C355.263 465.078 354.445 465.096 353.928 464.603C353.411 464.11 353.392 463.292 353.885 462.775C363.229 452.983 368.708 438.092 371.263 429.488Z" fill="#7E3CEF"/>
<path d="M364.334 402.602C368.004 401.757 371.765 403.381 373.773 406.518C375.691 409.514 377.322 414.488 375.817 422.086C375.678 422.786 374.998 423.242 374.297 423.103C373.596 422.965 373.14 422.283 373.279 421.583C374.661 414.604 373.132 410.317 371.594 407.914C370.153 405.663 367.48 404.532 364.915 405.123C362.439 405.693 361.139 407.6 360.442 409.616C360.097 410.615 359.923 411.585 359.836 412.311C359.793 412.672 359.772 412.966 359.762 413.167C359.757 413.267 359.754 413.343 359.753 413.392C359.752 413.416 359.752 413.433 359.752 413.443V413.458C359.744 417.435 359.213 421.257 358.345 424.853C358.178 425.547 357.479 425.975 356.784 425.808C356.09 425.64 355.663 424.941 355.83 424.247C356.656 420.822 357.157 417.202 357.165 413.452V413.42C357.165 413.399 357.165 413.371 357.166 413.335C357.167 413.263 357.171 413.162 357.177 413.036C357.19 412.785 357.216 412.43 357.267 412.003C357.369 411.153 357.575 409.992 357.997 408.77C358.836 406.347 360.62 403.457 364.334 402.602Z" fill="#7E3CEF"/>
<path d="M353.535 431.489C353.796 430.824 354.546 430.496 355.211 430.756C355.876 431.017 356.204 431.767 355.944 432.433C353.416 438.882 350.079 444.259 347.379 448.019C346.028 449.901 344.832 451.384 343.971 452.399C343.541 452.907 343.194 453.298 342.952 453.564C342.831 453.698 342.737 453.8 342.672 453.87C342.639 453.905 342.614 453.932 342.596 453.95C342.588 453.959 342.58 453.967 342.575 453.972L342.566 453.981C342.071 454.496 341.252 454.512 340.737 454.017C340.222 453.522 340.206 452.703 340.701 452.188L340.704 452.185C340.707 452.182 340.711 452.177 340.718 452.17C340.731 452.156 340.753 452.134 340.781 452.104C340.838 452.043 340.923 451.95 341.034 451.827C341.258 451.581 341.586 451.211 341.997 450.726C342.819 449.756 343.972 448.328 345.277 446.51C347.892 442.869 351.107 437.684 353.535 431.489Z" fill="#7E3CEF"/>
<path d="M360.993 442.593C361.301 441.949 362.073 441.676 362.718 441.984C363.362 442.292 363.636 443.065 363.328 443.709C361.027 448.526 356.718 455.584 348.772 463.986C348.281 464.506 347.463 464.529 346.944 464.038C346.425 463.547 346.402 462.728 346.893 462.209C354.659 453.996 358.812 447.159 360.993 442.593Z" fill="#7E3CEF"/>
<path d="M363.549 409.967C365.186 407.548 368.882 408.051 369.818 410.814C371.038 414.417 371.853 421.605 367.126 433.811C366.867 434.479 366.614 435.151 366.367 435.825C366.121 436.495 365.378 436.84 364.707 436.594C364.037 436.348 363.692 435.605 363.938 434.934C364.19 434.246 364.448 433.561 364.713 432.877C369.278 421.09 368.348 414.54 367.367 411.645C367.116 410.904 366.129 410.772 365.692 411.417C365.081 412.319 364.875 413.557 364.842 414.584C364.771 416.8 364.523 419.005 364.125 421.179C361.873 433.475 357.377 442.53 353.426 448.523C351.451 451.518 349.612 453.748 348.26 455.236C347.584 455.98 347.029 456.54 346.639 456.916C346.444 457.105 346.29 457.248 346.182 457.345C346.128 457.394 346.086 457.431 346.056 457.457C346.041 457.47 346.03 457.481 346.021 457.488C346.017 457.492 346.013 457.496 346.01 457.499L346.006 457.503C346.005 457.503 346.004 457.503 345.162 456.522L346.005 457.504C345.463 457.969 344.646 457.906 344.18 457.363C343.715 456.821 343.777 456.004 344.32 455.539C344.32 455.538 344.322 455.538 344.323 455.537C344.327 455.533 344.334 455.527 344.345 455.518C344.365 455.5 344.399 455.47 344.443 455.43C344.532 455.349 344.667 455.224 344.843 455.055C345.195 454.715 345.709 454.196 346.346 453.496C347.618 452.096 349.372 449.97 351.266 447.098C355.052 441.354 359.4 432.621 361.58 420.713C361.957 418.658 362.189 416.581 362.256 414.5C362.294 413.304 362.528 411.475 363.549 409.967Z" fill="#7E3CEF"/>
<path d="M376.446 431.522C376.695 430.141 378.618 429.785 379.289 431.121C380.497 433.528 385.086 441.115 395.621 442.995C396.324 443.12 396.793 443.792 396.667 444.496C396.541 445.199 395.869 445.667 395.166 445.542C386.065 443.918 380.948 438.448 378.479 434.815C377.892 437.151 376.908 439.696 375.728 442.255C374.023 445.954 371.861 449.793 369.745 453.256C367.628 456.723 365.546 459.832 363.994 462.074C363.218 463.195 362.574 464.102 362.123 464.728C361.897 465.041 361.719 465.285 361.598 465.45C361.538 465.532 361.491 465.596 361.46 465.639C361.444 465.66 361.431 465.676 361.423 465.688C361.419 465.693 361.416 465.698 361.414 465.701C361.413 465.702 361.411 465.704 361.411 465.705C361.41 465.705 361.403 465.701 360.372 464.934L361.41 465.706C360.983 466.279 360.174 466.398 359.6 465.972C359.027 465.546 358.907 464.735 359.334 464.162L359.336 464.159C359.337 464.156 359.34 464.153 359.344 464.148C359.351 464.138 359.363 464.123 359.378 464.103C359.408 464.062 359.452 464.001 359.511 463.921C359.629 463.761 359.802 463.522 360.023 463.215C360.466 462.6 361.102 461.708 361.867 460.602C363.4 458.388 365.453 455.321 367.537 451.908C369.624 448.491 371.731 444.746 373.378 441.172C375.037 437.573 376.18 434.253 376.427 431.658L376.446 431.522Z" fill="#7E3CEF"/>
<path d="M379.654 439.069C380.176 439.017 380.676 439.286 380.922 439.749L380.923 439.748C380.924 439.749 380.925 439.752 380.927 439.756C380.932 439.765 380.942 439.781 380.954 439.803C380.98 439.848 381.021 439.919 381.078 440.014C381.191 440.202 381.367 440.483 381.609 440.834C382.093 441.538 382.84 442.523 383.871 443.62C385.934 445.815 389.123 448.443 393.627 450.176C394.294 450.432 394.626 451.18 394.37 451.847C394.113 452.514 393.364 452.847 392.697 452.59C387.752 450.687 384.25 447.801 381.985 445.392C381.26 444.62 380.66 443.895 380.178 443.265C378.481 447.989 375.985 453.022 373.798 457.056C372.5 459.449 371.302 461.509 370.428 462.972C369.991 463.704 369.635 464.287 369.388 464.688C369.264 464.888 369.167 465.044 369.101 465.149C369.068 465.202 369.042 465.242 369.025 465.269C369.016 465.283 369.009 465.293 369.005 465.3C369.003 465.304 369.001 465.306 369 465.308C368.999 465.309 368.999 465.311 368.999 465.311C368.996 465.31 368.943 465.277 367.906 464.618L368.998 465.312C368.615 465.915 367.815 466.093 367.212 465.71C366.609 465.327 366.43 464.527 366.814 463.924L366.815 463.923C366.816 463.921 366.817 463.919 366.819 463.916C366.823 463.909 366.829 463.9 366.837 463.888C366.853 463.862 366.877 463.825 366.909 463.774C366.972 463.674 367.066 463.523 367.186 463.327C367.428 462.937 367.778 462.365 368.207 461.645C369.067 460.206 370.246 458.177 371.523 455.822C374.087 451.093 377.003 445.122 378.542 439.985C378.692 439.483 379.132 439.121 379.654 439.069Z" fill="#7E3CEF"/>
<path d="M380.06 449.027C380.582 448.121 381.81 447.87 382.65 448.547L389.788 454.304C390.344 454.753 390.431 455.568 389.982 456.124C389.533 456.679 388.72 456.766 388.164 456.318L381.904 451.269L377.771 460.979C377.491 461.636 376.731 461.942 376.074 461.662C375.417 461.382 375.111 460.622 375.39 459.965L379.966 449.218L380.06 449.027Z" fill="#7E3CEF"/>
<defs>
<filter id="filter0_dd_632_6438" x="99.6374" y="30.4115" width="593.85" height="707.696" filterUnits="userSpaceOnUse" color-interpolation-filters="sRGB">
<feFlood flood-opacity="0" result="BackgroundImageFix"/>
<feColorMatrix in="SourceAlpha" type="matrix" values="0 0 0 0 0 0 0 0 0 0 0 0 0 0 0 0 0 0 127 0" result="hardAlpha"/>
<feMorphology radius="2.05187" operator="erode" in="SourceAlpha" result="effect1_dropShadow_632_6438"/>
<feOffset dy="4.10374"/>
<feGaussianBlur stdDeviation="3.0778"/>
<feColorMatrix type="matrix" values="0 0 0 0 0 0 0 0 0 0 0 0 0 0 0 0 0 0 0.05 0"/>
<feBlend mode="normal" in2="BackgroundImageFix" result="effect1_dropShadow_632_6438"/>
<feColorMatrix in="SourceAlpha" type="matrix" values="0 0 0 0 0 0 0 0 0 0 0 0 0 0 0 0 0 0 127 0" result="hardAlpha"/>
<feMorphology radius="3.0778" operator="erode" in="SourceAlpha" result="effect2_dropShadow_632_6438"/>
<feOffset dy="10.2593"/>
<feGaussianBlur stdDeviation="7.69451"/>
<feColorMatrix type="matrix" values="0 0 0 0 0 0 0 0 0 0 0 0 0 0 0 0 0 0 0.1 0"/>
<feBlend mode="normal" in2="effect1_dropShadow_632_6438" result="effect2_dropShadow_632_6438"/>
<feBlend mode="normal" in="SourceGraphic" in2="effect2_dropShadow_632_6438" result="shape"/>
</filter>
<filter id="filter1_d_632_6438" x="18.701" y="386.334" width="236.243" height="122.352" filterUnits="userSpaceOnUse" color-interpolation-filters="sRGB">
<feFlood flood-opacity="0" result="BackgroundImageFix"/>
<feColorMatrix in="SourceAlpha" type="matrix" values="0 0 0 0 0 0 0 0 0 0 0 0 0 0 0 0 0 0 127 0" result="hardAlpha"/>
<feOffset dy="2.05187"/>
<feGaussianBlur stdDeviation="2.05187"/>
<feColorMatrix type="matrix" values="0 0 0 0 0 0 0 0 0 0 0 0 0 0 0 0 0 0 0.18 0"/>
<feBlend mode="normal" in2="BackgroundImageFix" result="effect1_dropShadow_632_6438"/>
<feBlend mode="normal" in="SourceGraphic" in2="effect1_dropShadow_632_6438" result="shape"/>
</filter>
<linearGradient id="paint0_linear_632_6438" x1="453.485" y1="643.264" x2="468.978" y2="698.085" gradientUnits="userSpaceOnUse">
<stop stop-color="#9B5CFF"/>
<stop offset="1" stop-color="#7E3CEF"/>
</linearGradient>
</defs>
</svg>
