<svg width="748" height="748" viewBox="0 0 748 748" fill="none" xmlns="http://www.w3.org/2000/svg">
<path d="M466.538 28.377H286.047C258.634 28.377 236.412 50.5993 236.412 78.012V556.313C236.412 583.726 258.634 605.948 286.047 605.948H466.538C493.951 605.948 516.173 583.726 516.173 556.313V78.012C516.173 50.5993 493.951 28.377 466.538 28.377Z" fill="url(#paint0_linear_640_6811)"/>
<path d="M464.282 37.4014H288.303C264.629 37.4014 245.437 56.5934 245.437 80.268V554.057C245.437 577.732 264.629 596.924 288.303 596.924H464.282C487.957 596.924 507.149 577.732 507.149 554.057V80.268C507.149 56.5934 487.957 37.4014 464.282 37.4014Z" fill="white"/>
<mask id="mask0_640_6811" style="mask-type:luminance" maskUnits="userSpaceOnUse" x="249" y="41" width="254" height="552">
<path d="M466.538 41.9136H286.047C266.111 41.9136 249.949 58.0753 249.949 78.0118V556.313C249.949 576.25 266.111 592.411 286.047 592.411H466.538C486.475 592.411 502.636 576.25 502.636 556.313V78.0118C502.636 58.0753 486.475 41.9136 466.538 41.9136Z" fill="white"/>
</mask>
<g mask="url(#mask0_640_6811)">
<path d="M502.636 41.9136H249.949V592.411H502.636V41.9136Z" fill="white"/>
<path d="M475.383 356.786H277.203C270.44 356.786 264.958 361.776 264.958 367.932V457.098C264.958 463.254 270.44 468.244 277.203 468.244H475.383C482.145 468.244 487.628 463.254 487.628 457.098V367.932C487.628 361.776 482.145 356.786 475.383 356.786Z" fill="#EDE9FE"/>
<path opacity="0.85" d="M447.749 392.049H369.729C367.882 392.049 366.385 393.546 366.385 395.393C366.385 397.239 367.882 398.736 369.729 398.736H447.749C449.596 398.736 451.093 397.239 451.093 395.393C451.093 393.546 449.596 392.049 447.749 392.049Z" fill="#7E3CEF"/>
<path opacity="0.55" d="M430.473 406.064H369.171C367.632 406.064 366.385 407.312 366.385 408.85C366.385 410.389 367.632 411.637 369.171 411.637H430.473C432.012 411.637 433.26 410.389 433.26 408.85C433.26 407.312 432.012 406.064 430.473 406.064Z" fill="#7E3CEF"/>
<path opacity="0.4" d="M408.739 432.981H368.614C367.383 432.981 366.385 433.979 366.385 435.211C366.385 436.442 367.383 437.44 368.614 437.44H408.739C409.97 437.44 410.968 436.442 410.968 435.211C410.968 433.979 409.97 432.981 408.739 432.981Z" fill="#7E3CEF"/>
<path opacity="0.85" d="M427.687 418.966H369.729C367.882 418.966 366.385 420.463 366.385 422.31C366.385 424.156 367.882 425.653 369.729 425.653H427.687C429.534 425.653 431.031 424.156 431.031 422.31C431.031 420.463 429.534 418.966 427.687 418.966Z" fill="#7E3CEF"/>
<path d="M315.167 451.988C335.736 451.988 352.411 435.313 352.411 414.744C352.411 394.175 335.736 377.5 315.167 377.5C294.598 377.5 277.923 394.175 277.923 414.744C277.923 435.313 294.598 451.988 315.167 451.988Z" fill="#7E3CEF"/>
<path opacity="0.85" d="M315.168 411.641C320.882 411.641 325.514 407.009 325.514 401.296C325.514 395.582 320.882 390.95 315.168 390.95C309.454 390.95 304.823 395.582 304.823 401.296C304.823 407.009 309.454 411.641 315.168 411.641Z" fill="white"/>
<path opacity="0.85" d="M298.615 426.124C298.615 417.848 304.132 413.709 315.168 413.709C326.203 413.709 331.72 417.848 331.72 426.124C331.72 432.98 326.162 438.539 319.306 438.539H311.029C304.173 438.539 298.615 432.98 298.615 426.124Z" fill="white"/>
<path d="M399.982 41.9136H352.603C345.75 41.9136 340.195 47.4692 340.195 54.3223C340.195 61.1755 345.75 66.7311 352.603 66.7311H399.982C406.836 66.7311 412.391 61.1755 412.391 54.3223C412.391 47.4692 406.836 41.9136 399.982 41.9136Z" fill="#1F1F2E"/>
<path d="M271.995 79.7359C272.459 79.7359 272.906 79.8137 273.335 79.9694C273.766 80.1251 274.151 80.3733 274.489 80.7141C274.83 81.0549 275.099 81.5073 275.295 82.0713C275.495 82.6324 275.597 83.3213 275.6 84.138C275.6 84.9047 275.513 85.5892 275.34 86.1914C275.169 86.7907 274.924 87.3004 274.604 87.7205C274.283 88.1406 273.897 88.4608 273.445 88.6811C272.992 88.8985 272.487 89.0072 271.929 89.0072C271.327 89.0072 270.795 88.8911 270.334 88.6591C269.873 88.424 269.501 88.1053 269.219 87.7028C268.94 87.2974 268.771 86.8421 268.712 86.3368H270.594C270.667 86.6658 270.821 86.9214 271.056 87.1036C271.291 87.2828 271.582 87.3724 271.929 87.3724C272.516 87.3724 272.963 87.1168 273.268 86.6056C273.574 86.0915 273.728 85.388 273.731 84.4949H273.669C273.534 84.7593 273.352 84.987 273.123 85.1779C272.894 85.3659 272.631 85.5113 272.334 85.6142C272.041 85.717 271.728 85.7684 271.396 85.7684C270.864 85.7684 270.39 85.6435 269.972 85.3938C269.555 85.1441 269.226 84.8004 268.985 84.3627C268.744 83.925 268.624 83.4256 268.624 82.8645C268.621 82.2593 268.761 81.7203 269.043 81.2473C269.325 80.7743 269.718 80.4042 270.224 80.1368C270.732 79.8666 271.322 79.7329 271.995 79.7359ZM272.008 81.2341C271.712 81.2341 271.447 81.3046 271.215 81.4456C270.986 81.5866 270.804 81.7761 270.669 82.014C270.536 82.252 270.472 82.5178 270.475 82.8116C270.475 83.1083 270.539 83.3756 270.669 83.6136C270.801 83.8486 270.98 84.0366 271.206 84.1776C271.435 84.3157 271.697 84.3847 271.991 84.3847C272.211 84.3847 272.415 84.3436 272.603 84.2614C272.791 84.1791 272.954 84.066 273.092 83.922C273.233 83.7752 273.343 83.6062 273.423 83.4153C273.502 83.2243 273.542 83.0216 273.542 82.8072C273.539 82.5222 273.471 82.2608 273.339 82.0228C273.207 81.7849 273.025 81.5939 272.793 81.45C272.561 81.306 272.299 81.2341 272.008 81.2341ZM278.036 87.835C277.746 87.835 277.496 87.7322 277.287 87.5266C277.082 87.3209 276.979 87.0712 276.979 86.7775C276.979 86.4896 277.082 86.2428 277.287 86.0372C277.496 85.8315 277.746 85.7287 278.036 85.7287C278.318 85.7287 278.565 85.8315 278.777 86.0372C278.988 86.2428 279.094 86.4896 279.094 86.7775C279.094 86.9714 279.044 87.1491 278.944 87.3107C278.847 87.4693 278.719 87.5971 278.561 87.694C278.402 87.788 278.227 87.835 278.036 87.835ZM278.036 83.4065C277.746 83.4065 277.496 83.3037 277.287 83.098C277.082 82.8924 276.979 82.6427 276.979 82.3489C276.979 82.061 277.082 81.8157 277.287 81.613C277.496 81.4074 277.746 81.3046 278.036 81.3046C278.318 81.3046 278.565 81.4074 278.777 81.613C278.988 81.8157 279.094 82.061 279.094 82.3489C279.094 82.5457 279.044 82.7249 278.944 82.8865C278.847 83.0452 278.719 83.1715 278.561 83.2655C278.402 83.3595 278.227 83.4065 278.036 83.4065ZM280.481 87.2974V85.7948L284.248 79.8592H285.544V81.9391H284.777L282.402 85.6979V85.7684H287.756V87.2974H280.481ZM284.812 88.8838V86.8392L284.848 86.1738V79.8592H286.637V88.8838H284.812ZM292.832 79.8592V88.8838H290.924V81.6703H290.871L288.805 82.9658V81.2737L291.039 79.8592H292.832Z" fill="#111827"/>
<path d="M455.258 83.652C455.258 83.029 454.753 82.5239 454.13 82.5239C453.507 82.5239 453.001 83.029 453.001 83.652V88.1643C453.001 88.7873 453.507 89.2923 454.13 89.2923C454.753 89.2923 455.258 88.7873 455.258 88.1643V83.652Z" fill="#111827"/>
<path d="M458.642 81.3956C458.642 80.7726 458.137 80.2676 457.514 80.2676C456.891 80.2676 456.386 80.7726 456.386 81.3956V88.1641C456.386 88.7871 456.891 89.2921 457.514 89.2921C458.137 89.2921 458.642 88.7871 458.642 88.1641V81.3956Z" fill="#111827"/>
<path d="M462.026 79.1398C462.026 78.5168 461.521 78.0117 460.898 78.0117C460.275 78.0117 459.77 78.5168 459.77 79.1398V88.1643C459.77 88.7874 460.275 89.2924 460.898 89.2924C461.521 89.2924 462.026 88.7874 462.026 88.1643V79.1398Z" fill="#111827"/>
<path d="M484.587 80.2676H471.051C469.805 80.2676 468.794 81.2777 468.794 82.5237V87.036C468.794 88.282 469.805 89.2921 471.051 89.2921H484.587C485.833 89.2921 486.844 88.282 486.844 87.036V82.5237C486.844 81.2777 485.833 80.2676 484.587 80.2676Z" stroke="#111827" stroke-width="1.12807"/>
<path d="M482.331 82.5239H472.179C471.556 82.5239 471.051 83.029 471.051 83.652V85.9081C471.051 86.5311 471.556 87.0362 472.179 87.0362H482.331C482.954 87.0362 483.459 86.5311 483.459 85.9081V83.652C483.459 83.029 482.954 82.5239 482.331 82.5239Z" fill="#111827"/>
<path d="M292.947 166.555L288.405 183.977H283.268L280.488 172.511L277.61 183.977H272.472L268.055 166.555H272.596L275.103 179.236L278.205 166.555H282.871L285.849 179.236L288.38 166.555H292.947ZM308.129 176.804C308.129 177.185 308.104 177.59 308.055 178.02H298.45C298.516 178.897 298.789 179.567 299.269 180.031C299.749 180.494 300.353 180.725 301.081 180.725C302.14 180.725 302.876 180.279 303.29 179.385H307.806C307.575 180.295 307.153 181.114 306.541 181.842C305.945 182.57 305.192 183.141 304.282 183.555C303.372 183.968 302.355 184.175 301.23 184.175C299.873 184.175 298.665 183.886 297.606 183.306C296.548 182.727 295.72 181.9 295.125 180.825C294.529 179.749 294.231 178.492 294.231 177.052C294.231 175.613 294.521 174.356 295.1 173.28C295.695 172.205 296.523 171.378 297.582 170.798C298.64 170.219 299.857 169.93 301.23 169.93C302.57 169.93 303.761 170.211 304.803 170.774C305.846 171.336 306.657 172.139 307.236 173.181C307.831 174.223 308.129 175.431 308.129 176.804ZM303.786 175.861C303.786 175.067 303.538 174.447 303.041 174C302.545 173.553 301.925 173.33 301.18 173.33C300.452 173.33 299.84 173.553 299.344 174C298.864 174.43 298.566 175.051 298.45 175.861H303.786ZM314.612 165.612V183.977H310.368V165.612H314.612ZM316.843 177.052C316.843 175.613 317.133 174.356 317.712 173.28C318.308 172.205 319.126 171.378 320.169 170.798C321.228 170.219 322.436 169.93 323.792 169.93C325.529 169.93 326.977 170.385 328.135 171.295C329.31 172.205 330.079 173.487 330.443 175.142H325.926C325.546 174.083 324.81 173.553 323.718 173.553C322.94 173.553 322.32 173.859 321.856 174.471C321.393 175.067 321.162 175.927 321.162 177.052C321.162 178.178 321.393 179.046 321.856 179.658C322.32 180.254 322.94 180.552 323.718 180.552C324.81 180.552 325.546 180.022 325.926 178.963H330.443C330.079 180.585 329.31 181.859 328.135 182.785C326.961 183.712 325.513 184.175 323.792 184.175C322.436 184.175 321.228 183.886 320.169 183.306C319.126 182.727 318.308 181.9 317.712 180.825C317.133 179.749 316.843 178.492 316.843 177.052ZM339.017 184.175C337.66 184.175 336.436 183.886 335.344 183.306C334.269 182.727 333.416 181.9 332.788 180.825C332.176 179.749 331.87 178.492 331.87 177.052C331.87 175.63 332.184 174.38 332.813 173.305C333.441 172.213 334.302 171.378 335.394 170.798C336.486 170.219 337.71 169.93 339.067 169.93C340.423 169.93 341.648 170.219 342.74 170.798C343.832 171.378 344.692 172.213 345.321 173.305C345.949 174.38 346.264 175.63 346.264 177.052C346.264 178.475 345.941 179.733 345.296 180.825C344.667 181.9 343.798 182.727 342.69 183.306C341.598 183.886 340.374 184.175 339.017 184.175ZM339.017 180.527C339.828 180.527 340.514 180.229 341.077 179.633C341.656 179.021 341.945 178.161 341.945 177.052C341.945 175.944 341.664 175.092 341.102 174.496C340.556 173.884 339.877 173.578 339.067 173.578C338.239 173.578 337.553 173.876 337.007 174.471C336.461 175.067 336.188 175.927 336.188 177.052C336.188 178.161 336.452 179.021 336.982 179.633C337.528 180.229 338.206 180.527 339.017 180.527ZM366.185 169.979C367.906 169.979 369.271 170.501 370.28 171.543C371.306 172.585 371.819 174.033 371.819 175.886V183.977H367.6V176.457C367.6 175.563 367.36 174.877 366.88 174.397C366.417 173.901 365.772 173.652 364.944 173.652C364.117 173.652 363.464 173.901 362.984 174.397C362.52 174.877 362.289 175.563 362.289 176.457V183.977H358.07V176.457C358.07 175.563 357.83 174.877 357.35 174.397C356.887 173.901 356.242 173.652 355.414 173.652C354.587 173.652 353.934 173.901 353.454 174.397C352.991 174.877 352.759 175.563 352.759 176.457V183.977H348.515V170.128H352.759V171.866C353.189 171.287 353.752 170.832 354.446 170.501C355.141 170.153 355.927 169.979 356.804 169.979C357.846 169.979 358.773 170.203 359.584 170.65C360.411 171.096 361.056 171.733 361.519 172.561C361.999 171.799 362.653 171.179 363.48 170.699C364.307 170.219 365.209 169.979 366.185 169.979ZM387.841 176.804C387.841 177.185 387.816 177.59 387.766 178.02H378.162C378.228 178.897 378.501 179.567 378.981 180.031C379.461 180.494 380.065 180.725 380.793 180.725C381.851 180.725 382.588 180.279 383.001 179.385H387.518C387.287 180.295 386.865 181.114 386.252 181.842C385.657 182.57 384.904 183.141 383.994 183.555C383.084 183.968 382.067 184.175 380.941 184.175C379.585 184.175 378.377 183.886 377.318 183.306C376.259 182.727 375.432 181.9 374.836 180.825C374.241 179.749 373.943 178.492 373.943 177.052C373.943 175.613 374.232 174.356 374.812 173.28C375.407 172.205 376.234 171.378 377.293 170.798C378.352 170.219 379.568 169.93 380.941 169.93C382.282 169.93 383.473 170.211 384.515 170.774C385.558 171.336 386.368 172.139 386.947 173.181C387.543 174.223 387.841 175.431 387.841 176.804ZM383.498 175.861C383.498 175.067 383.25 174.447 382.753 174C382.257 173.553 381.636 173.33 380.892 173.33C380.164 173.33 379.552 173.553 379.055 174C378.576 174.43 378.278 175.051 378.162 175.861H383.498ZM394.944 179.683L391.792 187.724H389.012L390.601 179.683H394.944ZM407.265 169.905V173.528H412.949V176.73H407.265V180.626H413.693V183.977H403.022V166.555H413.693V169.905H407.265ZM434.118 169.979C435.839 169.979 437.204 170.501 438.213 171.543C439.239 172.585 439.752 174.033 439.752 175.886V183.977H435.533V176.457C435.533 175.563 435.293 174.877 434.813 174.397C434.35 173.901 433.705 173.652 432.877 173.652C432.05 173.652 431.397 173.901 430.917 174.397C430.454 174.877 430.222 175.563 430.222 176.457V183.977H426.003V176.457C426.003 175.563 425.763 174.877 425.283 174.397C424.82 173.901 424.175 173.652 423.347 173.652C422.52 173.652 421.867 173.901 421.387 174.397C420.924 174.877 420.692 175.563 420.692 176.457V183.977H416.448V170.128H420.692V171.866C421.122 171.287 421.685 170.832 422.38 170.501C423.074 170.153 423.86 169.979 424.737 169.979C425.78 169.979 426.706 170.203 427.517 170.65C428.344 171.096 428.989 171.733 429.453 172.561C429.932 171.799 430.586 171.179 431.413 170.699C432.24 170.219 433.142 169.979 434.118 169.979ZM460.39 169.979C462.111 169.979 463.476 170.501 464.485 171.543C465.511 172.585 466.024 174.033 466.024 175.886V183.977H461.805V176.457C461.805 175.563 461.565 174.877 461.085 174.397C460.622 173.901 459.976 173.652 459.149 173.652C458.322 173.652 457.668 173.901 457.188 174.397C456.725 174.877 456.494 175.563 456.494 176.457V183.977H452.275V176.457C452.275 175.563 452.035 174.877 451.555 174.397C451.092 173.901 450.446 173.652 449.619 173.652C448.792 173.652 448.138 173.901 447.659 174.397C447.195 174.877 446.964 175.563 446.964 176.457V183.977H442.72V170.128H446.964V171.866C447.394 171.287 447.956 170.832 448.651 170.501C449.346 170.153 450.132 169.979 451.009 169.979C452.051 169.979 452.978 170.203 453.788 170.65C454.616 171.096 455.261 171.733 455.724 172.561C456.204 171.799 456.858 171.179 457.685 170.699C458.512 170.219 459.414 169.979 460.39 169.979ZM468.148 177.028C468.148 175.605 468.412 174.356 468.942 173.28C469.488 172.205 470.224 171.378 471.151 170.798C472.077 170.219 473.111 169.93 474.253 169.93C475.229 169.93 476.081 170.128 476.809 170.525C477.554 170.923 478.124 171.444 478.521 172.089V170.128H482.765V183.977H478.521V182.016C478.108 182.661 477.529 183.182 476.784 183.579C476.056 183.977 475.204 184.175 474.228 184.175C473.103 184.175 472.077 183.886 471.151 183.306C470.224 182.711 469.488 181.875 468.942 180.8C468.412 179.708 468.148 178.451 468.148 177.028ZM478.521 177.052C478.521 175.994 478.224 175.158 477.628 174.546C477.049 173.934 476.338 173.628 475.494 173.628C474.65 173.628 473.93 173.934 473.335 174.546C472.756 175.142 472.466 175.969 472.466 177.028C472.466 178.087 472.756 178.93 473.335 179.559C473.93 180.171 474.65 180.477 475.494 180.477C476.338 180.477 477.049 180.171 477.628 179.559C478.224 178.947 478.521 178.111 478.521 177.052Z" fill="#111827"/>
<path opacity="0.45" d="M444.541 199.843H270.819C268.949 199.843 267.434 201.358 267.434 203.227C267.434 205.097 268.949 206.612 270.819 206.612H444.541C446.41 206.612 447.925 205.097 447.925 203.227C447.925 201.358 446.41 199.843 444.541 199.843Z" fill="#111827"/>
<path opacity="0.45" d="M376.857 215.636H270.819C268.949 215.636 267.434 217.151 267.434 219.02C267.434 220.889 268.949 222.405 270.819 222.405H376.857C378.726 222.405 380.241 220.889 380.241 219.02C380.241 217.151 378.726 215.636 376.857 215.636Z" fill="#111827"/>
<path d="M305.789 249.479H269.69C268.444 249.479 267.434 250.489 267.434 251.735C267.434 252.981 268.444 253.991 269.69 253.991H305.789C307.035 253.991 308.045 252.981 308.045 251.735C308.045 250.489 307.035 249.479 305.789 249.479Z" fill="#111827"/>
<path d="M353.167 249.478H317.069C315.823 249.478 314.813 250.488 314.813 251.734C314.813 252.98 315.823 253.99 317.069 253.99H353.167C354.413 253.99 355.424 252.98 355.424 251.734C355.424 250.488 354.413 249.478 353.167 249.478Z" fill="#111827"/>
<path opacity="0.4" d="M400.546 249.478H364.448C363.202 249.478 362.192 250.488 362.192 251.734C362.192 252.98 363.202 253.99 364.448 253.99H400.546C401.792 253.99 402.802 252.98 402.802 251.734C402.802 250.488 401.792 249.478 400.546 249.478Z" fill="#111827"/>
<path opacity="0.4" d="M447.925 249.478H411.827C410.581 249.478 409.571 250.488 409.571 251.734C409.571 252.98 410.581 253.99 411.827 253.99H447.925C449.171 253.99 450.181 252.98 450.181 251.734C450.181 250.488 449.171 249.478 447.925 249.478Z" fill="#111827"/>
<path d="M270.906 290.108C270.874 289.785 270.736 289.534 270.493 289.355C270.25 289.176 269.92 289.086 269.504 289.086C269.221 289.086 268.982 289.127 268.787 289.207C268.592 289.284 268.442 289.392 268.338 289.531C268.237 289.67 268.186 289.828 268.186 290.004C268.18 290.151 268.211 290.279 268.278 290.388C268.347 290.498 268.442 290.593 268.562 290.673C268.683 290.75 268.821 290.818 268.979 290.877C269.137 290.933 269.305 290.981 269.484 291.021L270.221 291.198C270.579 291.278 270.907 291.385 271.206 291.518C271.505 291.652 271.764 291.816 271.983 292.011C272.202 292.206 272.372 292.435 272.492 292.7C272.615 292.964 272.678 293.267 272.68 293.609C272.678 294.111 272.55 294.547 272.296 294.915C272.045 295.281 271.682 295.565 271.206 295.768C270.734 295.969 270.163 296.069 269.496 296.069C268.833 296.069 268.257 295.967 267.765 295.764C267.276 295.561 266.895 295.261 266.619 294.863C266.347 294.462 266.204 293.967 266.191 293.377H267.869C267.888 293.652 267.967 293.882 268.106 294.066C268.247 294.247 268.436 294.385 268.671 294.478C268.908 294.569 269.177 294.615 269.476 294.615C269.769 294.615 270.025 294.572 270.241 294.486C270.46 294.401 270.629 294.282 270.75 294.13C270.87 293.978 270.93 293.803 270.93 293.605C270.93 293.421 270.875 293.266 270.766 293.14C270.659 293.015 270.501 292.908 270.293 292.82C270.087 292.732 269.835 292.652 269.536 292.58L268.642 292.355C267.951 292.187 267.405 291.924 267.004 291.566C266.603 291.208 266.405 290.726 266.407 290.12C266.405 289.623 266.537 289.189 266.804 288.818C267.073 288.447 267.443 288.157 267.913 287.949C268.383 287.74 268.918 287.636 269.516 287.636C270.125 287.636 270.656 287.74 271.11 287.949C271.567 288.157 271.922 288.447 272.176 288.818C272.429 289.189 272.56 289.619 272.568 290.108H270.906ZM273.535 289.179V287.748H280.273V289.179H277.761V295.953H276.046V289.179H273.535ZM281.382 295.953V287.748H286.911V289.179H283.117V291.134H286.626V292.564H283.117V294.523H286.927V295.953H281.382ZM288.29 295.953V287.748H291.526C292.149 287.748 292.679 287.867 293.117 288.105C293.555 288.34 293.888 288.667 294.118 289.086C294.351 289.503 294.467 289.984 294.467 290.529C294.467 291.073 294.349 291.554 294.114 291.971C293.879 292.387 293.539 292.712 293.093 292.944C292.649 293.177 292.113 293.293 291.482 293.293H289.419V291.903H291.202C291.536 291.903 291.811 291.845 292.027 291.73C292.246 291.613 292.409 291.451 292.516 291.246C292.625 291.037 292.68 290.798 292.68 290.529C292.68 290.256 292.625 290.019 292.516 289.816C292.409 289.61 292.246 289.451 292.027 289.339C291.808 289.224 291.53 289.167 291.194 289.167H290.024V295.953H288.29ZM301.189 296.065C300.59 296.065 300.058 295.962 299.59 295.756C299.126 295.548 298.758 295.262 298.489 294.899C298.222 294.533 298.084 294.111 298.076 293.633H299.823C299.833 293.834 299.899 294.01 300.019 294.162C300.142 294.312 300.305 294.428 300.508 294.511C300.711 294.593 300.939 294.635 301.193 294.635C301.457 294.635 301.691 294.588 301.894 294.494C302.097 294.401 302.256 294.271 302.37 294.106C302.485 293.94 302.543 293.749 302.543 293.533C302.543 293.314 302.481 293.12 302.358 292.952C302.238 292.781 302.065 292.648 301.838 292.552C301.613 292.455 301.346 292.407 301.036 292.407H300.271V291.134H301.036C301.298 291.134 301.529 291.088 301.729 290.997C301.932 290.907 302.09 290.781 302.202 290.621C302.314 290.458 302.37 290.268 302.37 290.052C302.37 289.846 302.321 289.666 302.222 289.511C302.126 289.354 301.99 289.231 301.814 289.143C301.64 289.054 301.437 289.01 301.205 289.01C300.97 289.01 300.755 289.053 300.56 289.139C300.365 289.221 300.209 289.34 300.091 289.495C299.973 289.65 299.911 289.832 299.903 290.04H298.24C298.248 289.567 298.383 289.151 298.645 288.79C298.907 288.43 299.259 288.148 299.702 287.945C300.148 287.739 300.652 287.636 301.213 287.636C301.779 287.636 302.274 287.739 302.699 287.945C303.123 288.15 303.453 288.428 303.688 288.778C303.926 289.125 304.044 289.515 304.041 289.948C304.044 290.407 303.901 290.79 303.612 291.097C303.326 291.405 302.954 291.6 302.495 291.682V291.746C303.098 291.824 303.557 292.034 303.873 292.375C304.19 292.715 304.348 293.139 304.345 293.649C304.348 294.117 304.213 294.532 303.941 294.895C303.671 295.258 303.298 295.544 302.823 295.752C302.348 295.961 301.803 296.065 301.189 296.065ZM315.79 291.851C315.79 292.745 315.621 293.506 315.281 294.134C314.945 294.762 314.486 295.241 313.903 295.572C313.324 295.901 312.672 296.065 311.949 296.065C311.219 296.065 310.565 295.899 309.986 295.568C309.406 295.237 308.948 294.758 308.612 294.13C308.275 293.502 308.107 292.743 308.107 291.851C308.107 290.956 308.275 290.195 308.612 289.567C308.948 288.94 309.406 288.462 309.986 288.133C310.565 287.802 311.219 287.636 311.949 287.636C312.672 287.636 313.324 287.802 313.903 288.133C314.486 288.462 314.945 288.94 315.281 289.567C315.621 290.195 315.79 290.956 315.79 291.851ZM314.032 291.851C314.032 291.271 313.945 290.782 313.771 290.384C313.6 289.986 313.359 289.685 313.046 289.479C312.734 289.273 312.368 289.171 311.949 289.171C311.529 289.171 311.163 289.273 310.851 289.479C310.538 289.685 310.295 289.986 310.122 290.384C309.951 290.782 309.865 291.271 309.865 291.851C309.865 292.43 309.951 292.919 310.122 293.317C310.295 293.715 310.538 294.016 310.851 294.222C311.163 294.428 311.529 294.531 311.949 294.531C312.368 294.531 312.734 294.428 313.046 294.222C313.359 294.016 313.6 293.715 313.771 293.317C313.945 292.919 314.032 292.43 314.032 291.851ZM317.075 295.953V287.748H322.507V289.179H318.81V291.134H322.147V292.564H318.81V295.953H317.075ZM326.113 294.511V293.144L329.538 287.748H330.715V289.639H330.018L327.859 293.056V293.12H332.726V294.511H326.113ZM330.05 295.953V294.094L330.082 293.489V287.748H331.709V295.953H330.05Z" fill="#A0A3A9"/>
<path d="M269.405 305.485L272.742 315.649L276.079 305.485H279.569L274.794 318.947H270.69L265.915 305.485H269.405ZM291.027 313.405C291.027 313.699 291.008 314.012 290.969 314.345H283.548C283.599 315.022 283.81 315.54 284.18 315.898C284.551 316.256 285.018 316.435 285.58 316.435C286.399 316.435 286.968 316.09 287.287 315.399H290.777C290.598 316.103 290.272 316.735 289.799 317.298C289.339 317.861 288.757 318.302 288.054 318.621C287.351 318.941 286.565 319.101 285.695 319.101C284.647 319.101 283.714 318.877 282.896 318.429C282.077 317.982 281.438 317.343 280.978 316.512C280.518 315.681 280.287 314.709 280.287 313.597C280.287 312.485 280.511 311.513 280.959 310.682C281.419 309.851 282.058 309.212 282.876 308.764C283.695 308.317 284.634 308.093 285.695 308.093C286.731 308.093 287.652 308.31 288.457 308.745C289.262 309.18 289.889 309.8 290.336 310.605C290.797 311.411 291.027 312.344 291.027 313.405ZM287.671 312.676C287.671 312.063 287.479 311.583 287.095 311.238C286.712 310.893 286.232 310.72 285.657 310.72C285.095 310.72 284.622 310.893 284.238 311.238C283.867 311.57 283.637 312.05 283.548 312.676H287.671ZM296.036 310.164C296.42 309.538 296.899 309.045 297.474 308.687C298.062 308.317 298.702 308.131 299.392 308.131V311.602H298.491C297.672 311.602 297.059 311.781 296.65 312.139C296.241 312.485 296.036 313.098 296.036 313.98V318.947H292.757V308.246H296.036V310.164ZM302.609 307.134C302.033 307.134 301.56 306.968 301.19 306.636C300.832 306.29 300.653 305.868 300.653 305.37C300.653 304.858 300.832 304.437 301.19 304.104C301.56 303.759 302.033 303.586 302.609 303.586C303.171 303.586 303.631 303.759 303.989 304.104C304.36 304.437 304.546 304.858 304.546 305.37C304.546 305.868 304.36 306.29 303.989 306.636C303.631 306.968 303.171 307.134 302.609 307.134ZM304.239 308.246V318.947H300.959V308.246H304.239ZM311.985 310.97H310.22V318.947H306.941V310.97H305.752V308.246H306.941V307.94C306.941 306.623 307.318 305.626 308.073 304.948C308.827 304.258 309.933 303.912 311.39 303.912C311.633 303.912 311.812 303.919 311.927 303.932V306.712C311.301 306.674 310.86 306.763 310.604 306.981C310.348 307.198 310.22 307.588 310.22 308.151V308.246H311.985V310.97ZM315.98 308.246L318.454 314.939L320.909 308.246H324.457L317.745 324.029H314.216L316.671 318.583L312.318 308.246H315.98ZM332.536 308.246L335.01 314.939L337.464 308.246H341.012L334.3 324.029H330.771L333.226 318.583L328.873 308.246H332.536ZM347.069 319.101C346.02 319.101 345.074 318.877 344.231 318.429C343.4 317.982 342.741 317.343 342.255 316.512C341.782 315.681 341.546 314.709 341.546 313.597C341.546 312.497 341.789 311.532 342.275 310.701C342.76 309.857 343.425 309.212 344.269 308.764C345.113 308.317 346.059 308.093 347.107 308.093C348.156 308.093 349.102 308.317 349.945 308.764C350.789 309.212 351.454 309.857 351.94 310.701C352.426 311.532 352.669 312.497 352.669 313.597C352.669 314.696 352.419 315.668 351.921 316.512C351.435 317.343 350.764 317.982 349.907 318.429C349.063 318.877 348.117 319.101 347.069 319.101ZM347.069 316.282C347.695 316.282 348.226 316.052 348.661 315.591C349.108 315.118 349.332 314.453 349.332 313.597C349.332 312.74 349.114 312.082 348.68 311.622C348.258 311.149 347.734 310.912 347.107 310.912C346.468 310.912 345.937 311.142 345.515 311.602C345.094 312.063 344.883 312.727 344.883 313.597C344.883 314.453 345.087 315.118 345.496 315.591C345.918 316.052 346.442 316.282 347.069 316.282ZM364.975 308.246V318.947H361.696V317.49C361.363 317.963 360.909 318.346 360.334 318.64C359.772 318.922 359.145 319.062 358.455 319.062C357.636 319.062 356.914 318.883 356.288 318.525C355.661 318.155 355.175 317.624 354.83 316.934C354.485 316.243 354.312 315.431 354.312 314.498V308.246H357.573V314.057C357.573 314.773 357.758 315.329 358.129 315.726C358.499 316.122 358.998 316.32 359.624 316.32C360.264 316.32 360.769 316.122 361.139 315.726C361.51 315.329 361.696 314.773 361.696 314.057V308.246H364.975ZM370.61 310.164C370.993 309.538 371.473 309.045 372.048 308.687C372.636 308.317 373.275 308.131 373.966 308.131V311.602H373.064C372.246 311.602 371.632 311.781 371.223 312.139C370.814 312.485 370.61 313.098 370.61 313.98V318.947H367.33V308.246H370.61V310.164ZM383.251 305.485V318.947H379.972V305.485H383.251ZM390.671 305.485C392.09 305.485 393.33 305.766 394.391 306.329C395.452 306.891 396.271 307.684 396.846 308.707C397.434 309.717 397.728 310.886 397.728 312.216C397.728 313.533 397.434 314.703 396.846 315.726C396.271 316.748 395.446 317.541 394.372 318.103C393.311 318.666 392.077 318.947 390.671 318.947H385.627V305.485H390.671ZM390.46 316.147C391.7 316.147 392.665 315.802 393.356 315.112C394.046 314.421 394.391 313.456 394.391 312.216C394.391 310.976 394.046 310.011 393.356 309.32C392.665 308.63 391.7 308.285 390.46 308.285H388.907V316.147H390.46Z" fill="#111827"/>
<path d="M464.282 481.479H289.432C275.725 481.479 264.614 492.591 264.614 506.297C264.614 520.003 275.725 531.115 289.432 531.115H464.282C477.989 531.115 489.1 520.003 489.1 506.297C489.1 492.591 477.989 481.479 464.282 481.479Z" fill="url(#paint1_linear_640_6811)"/>
</g>
<path d="M175.637 694.47C188.098 694.47 198.199 684.369 198.199 671.909C198.199 659.449 188.098 649.348 175.637 649.348C163.177 649.348 153.076 659.449 153.076 671.909C153.076 684.369 163.177 694.47 175.637 694.47Z" fill="url(#paint2_linear_640_6811)"/>
<path d="M167.741 671.909L173.381 677.55L183.534 667.397" stroke="white" stroke-width="2.48175" stroke-linecap="round" stroke-linejoin="round"/>
<path d="M149.32 707.598V716.623H147.412V707.598H149.32ZM154.089 716.623H150.89V707.598H154.115C155.023 707.598 155.805 707.779 156.46 708.14C157.115 708.499 157.619 709.014 157.971 709.687C158.327 710.36 158.504 711.165 158.504 712.102C158.504 713.042 158.327 713.85 157.971 714.526C157.619 715.201 157.112 715.72 156.451 716.081C155.793 716.442 155.006 716.623 154.089 716.623ZM152.798 714.988H154.01C154.574 714.988 155.048 714.888 155.433 714.689C155.821 714.486 156.112 714.173 156.305 713.75C156.502 713.324 156.601 712.775 156.601 712.102C156.601 711.435 156.502 710.89 156.305 710.467C156.112 710.044 155.822 709.733 155.437 709.533C155.053 709.333 154.578 709.233 154.014 709.233H152.798V714.988ZM168.364 707.598H170.272V713.459C170.272 714.117 170.115 714.693 169.8 715.187C169.489 715.68 169.053 716.065 168.492 716.341C167.931 716.614 167.277 716.751 166.531 716.751C165.782 716.751 165.127 716.614 164.565 716.341C164.004 716.065 163.568 715.68 163.257 715.187C162.945 714.693 162.79 714.117 162.79 713.459V707.598H164.698V713.296C164.698 713.64 164.773 713.945 164.922 714.213C165.075 714.48 165.29 714.69 165.566 714.843C165.842 714.996 166.164 715.072 166.531 715.072C166.901 715.072 167.223 714.996 167.496 714.843C167.772 714.69 167.985 714.48 168.135 714.213C168.288 713.945 168.364 713.64 168.364 713.296V707.598ZM171.806 719.161V709.855H173.657V710.992H173.741C173.823 710.809 173.942 710.624 174.098 710.436C174.257 710.245 174.462 710.087 174.715 709.96C174.97 709.831 175.288 709.767 175.667 709.767C176.16 709.767 176.615 709.896 177.033 710.154C177.45 710.41 177.783 710.796 178.033 711.313C178.283 711.827 178.407 712.472 178.407 713.248C178.407 714.003 178.286 714.64 178.042 715.16C177.801 715.677 177.472 716.069 177.055 716.337C176.64 716.601 176.176 716.733 175.662 716.733C175.298 716.733 174.988 716.673 174.732 716.553C174.48 716.432 174.273 716.281 174.111 716.099C173.95 715.914 173.826 715.727 173.741 715.539H173.684V719.161H171.806ZM173.644 713.239C173.644 713.641 173.7 713.992 173.811 714.292C173.923 714.592 174.085 714.825 174.296 714.993C174.508 715.157 174.765 715.239 175.067 715.239C175.373 715.239 175.631 715.156 175.843 714.988C176.054 714.818 176.214 714.583 176.323 714.283C176.435 713.981 176.491 713.632 176.491 713.239C176.491 712.848 176.436 712.504 176.328 712.208C176.219 711.911 176.059 711.679 175.847 711.511C175.636 711.344 175.376 711.26 175.067 711.26C174.762 711.26 174.503 711.341 174.292 711.503C174.083 711.664 173.923 711.893 173.811 712.19C173.7 712.487 173.644 712.836 173.644 713.239ZM181.536 707.598V716.623H179.659V707.598H181.536ZM186.098 716.755C185.413 716.755 184.822 716.61 184.322 716.319C183.826 716.025 183.442 715.617 183.172 715.094C182.902 714.568 182.767 713.959 182.767 713.265C182.767 712.566 182.902 711.955 183.172 711.432C183.442 710.906 183.826 710.498 184.322 710.207C184.822 709.913 185.413 709.767 186.098 709.767C186.782 709.767 187.373 709.913 187.869 710.207C188.369 710.498 188.754 710.906 189.024 711.432C189.294 711.955 189.429 712.566 189.429 713.265C189.429 713.959 189.294 714.568 189.024 715.094C188.754 715.617 188.369 716.025 187.869 716.319C187.373 716.61 186.782 716.755 186.098 716.755ZM186.107 715.301C186.418 715.301 186.678 715.213 186.887 715.037C187.095 714.858 187.252 714.614 187.358 714.305C187.467 713.997 187.521 713.646 187.521 713.252C187.521 712.858 187.467 712.507 187.358 712.199C187.252 711.89 187.095 711.647 186.887 711.467C186.678 711.288 186.418 711.199 186.107 711.199C185.792 711.199 185.528 711.288 185.314 711.467C185.102 711.647 184.942 711.89 184.833 712.199C184.728 712.507 184.675 712.858 184.675 713.252C184.675 713.646 184.728 713.997 184.833 714.305C184.942 714.614 185.102 714.858 185.314 715.037C185.528 715.213 185.792 715.301 186.107 715.301ZM192.58 716.751C192.148 716.751 191.763 716.676 191.425 716.526C191.088 716.373 190.82 716.149 190.623 715.852C190.43 715.552 190.333 715.179 190.333 714.733C190.333 714.357 190.402 714.041 190.54 713.785C190.678 713.53 190.866 713.324 191.104 713.168C191.342 713.013 191.612 712.895 191.915 712.816C192.22 712.736 192.54 712.681 192.875 712.648C193.269 712.607 193.586 712.569 193.827 712.534C194.068 712.496 194.243 712.44 194.351 712.366C194.46 712.293 194.514 712.184 194.514 712.04V712.014C194.514 711.735 194.426 711.519 194.25 711.366C194.077 711.213 193.83 711.137 193.51 711.137C193.172 711.137 192.903 711.212 192.703 711.362C192.504 711.509 192.371 711.694 192.307 711.917L190.571 711.776C190.659 711.365 190.832 711.009 191.091 710.709C191.349 710.407 191.682 710.175 192.091 710.013C192.502 709.849 192.978 709.767 193.519 709.767C193.895 709.767 194.254 709.811 194.598 709.899C194.945 709.987 195.252 710.123 195.519 710.309C195.789 710.494 196.002 710.732 196.158 711.022C196.314 711.31 196.392 711.655 196.392 712.058V716.623H194.611V715.684H194.558C194.45 715.896 194.304 716.083 194.122 716.244C193.94 716.403 193.721 716.528 193.466 716.619C193.21 716.707 192.915 716.751 192.58 716.751ZM193.118 715.455C193.394 715.455 193.637 715.401 193.849 715.292C194.061 715.181 194.227 715.031 194.347 714.843C194.467 714.655 194.528 714.442 194.528 714.204V713.486C194.469 713.524 194.388 713.559 194.285 713.591C194.185 713.621 194.072 713.649 193.946 713.675C193.82 713.699 193.693 713.721 193.567 713.741C193.441 713.759 193.326 713.775 193.223 713.79C193.003 713.822 192.811 713.873 192.646 713.944C192.482 714.014 192.354 714.11 192.263 714.23C192.172 714.348 192.126 714.495 192.126 714.671C192.126 714.927 192.219 715.122 192.404 715.257C192.592 715.389 192.83 715.455 193.118 715.455ZM200.342 716.733C199.828 716.733 199.362 716.601 198.945 716.337C198.531 716.069 198.202 715.677 197.958 715.16C197.717 714.64 197.597 714.003 197.597 713.248C197.597 712.472 197.722 711.827 197.971 711.313C198.221 710.796 198.553 710.41 198.967 710.154C199.384 709.896 199.841 709.767 200.338 709.767C200.717 709.767 201.032 709.831 201.285 709.96C201.541 710.087 201.746 710.245 201.902 710.436C202.061 710.624 202.181 710.809 202.263 710.992H202.321V707.598H204.193V716.623H202.343V715.539H202.263C202.175 715.727 202.05 715.914 201.889 716.099C201.73 716.281 201.523 716.432 201.267 716.553C201.015 716.673 200.706 716.733 200.342 716.733ZM200.937 715.239C201.239 715.239 201.495 715.157 201.704 714.993C201.915 714.825 202.077 714.592 202.188 714.292C202.303 713.992 202.36 713.641 202.36 713.239C202.36 712.836 202.304 712.487 202.193 712.19C202.081 711.893 201.92 711.664 201.708 711.503C201.497 711.341 201.239 711.26 200.937 711.26C200.628 711.26 200.368 711.344 200.157 711.511C199.945 711.679 199.785 711.911 199.677 712.208C199.568 712.504 199.514 712.848 199.514 713.239C199.514 713.632 199.568 713.981 199.677 714.283C199.788 714.583 199.948 714.818 200.157 714.988C200.368 715.156 200.628 715.239 200.937 715.239Z" fill="#374151"/>
<path d="M277.442 694.47C289.903 694.47 300.004 684.369 300.004 671.909C300.004 659.449 289.903 649.348 277.442 649.348C264.982 649.348 254.881 659.449 254.881 671.909C254.881 684.369 264.982 694.47 277.442 694.47Z" fill="url(#paint3_linear_640_6811)"/>
<path d="M269.546 671.909L275.186 677.55L285.339 667.397" stroke="white" stroke-width="2.48175" stroke-linecap="round" stroke-linejoin="round"/>
<path d="M242.831 709.172V707.598H250.243V709.172H247.48V716.623H245.594V709.172H242.831ZM250.725 716.623V709.855H252.545V711.036H252.616C252.739 710.615 252.946 710.298 253.237 710.084C253.528 709.866 253.863 709.758 254.242 709.758C254.336 709.758 254.437 709.764 254.546 709.775C254.655 709.787 254.75 709.803 254.832 709.824V711.489C254.744 711.463 254.622 711.44 254.467 711.419C254.311 711.398 254.168 711.388 254.039 711.388C253.763 711.388 253.516 711.448 253.299 711.569C253.084 711.686 252.914 711.851 252.788 712.062C252.664 712.274 252.603 712.518 252.603 712.794V716.623H250.725ZM257.539 716.751C257.107 716.751 256.722 716.676 256.385 716.526C256.047 716.373 255.779 716.149 255.583 715.852C255.389 715.552 255.292 715.179 255.292 714.733C255.292 714.357 255.361 714.041 255.499 713.785C255.637 713.53 255.825 713.324 256.063 713.168C256.301 713.013 256.571 712.895 256.874 712.816C257.179 712.736 257.499 712.681 257.834 712.648C258.228 712.607 258.545 712.569 258.786 712.534C259.027 712.496 259.202 712.44 259.31 712.366C259.419 712.293 259.474 712.184 259.474 712.04V712.014C259.474 711.735 259.385 711.519 259.209 711.366C259.036 711.213 258.789 711.137 258.469 711.137C258.131 711.137 257.862 711.212 257.662 711.362C257.463 711.509 257.33 711.694 257.266 711.917L255.53 711.776C255.618 711.365 255.791 711.009 256.05 710.709C256.308 710.407 256.642 710.175 257.05 710.013C257.461 709.849 257.937 709.767 258.478 709.767C258.854 709.767 259.214 709.811 259.557 709.899C259.904 709.987 260.211 710.123 260.478 710.309C260.748 710.494 260.961 710.732 261.117 711.022C261.273 711.31 261.351 711.655 261.351 712.058V716.623H259.57V715.684H259.518C259.409 715.896 259.263 716.083 259.081 716.244C258.899 716.403 258.68 716.528 258.425 716.619C258.169 716.707 257.874 716.751 257.539 716.751ZM258.077 715.455C258.353 715.455 258.597 715.401 258.808 715.292C259.02 715.181 259.186 715.031 259.306 714.843C259.427 714.655 259.487 714.442 259.487 714.204V713.486C259.428 713.524 259.347 713.559 259.244 713.591C259.145 713.621 259.031 713.649 258.905 713.675C258.779 713.699 258.652 713.721 258.526 713.741C258.4 713.759 258.285 713.775 258.182 713.79C257.962 713.822 257.77 713.873 257.605 713.944C257.441 714.014 257.313 714.11 257.222 714.23C257.131 714.348 257.085 714.495 257.085 714.671C257.085 714.927 257.178 715.122 257.363 715.257C257.551 715.389 257.789 715.455 258.077 715.455ZM268.875 709.855L266.509 716.623H264.393L262.027 709.855H264.01L265.416 714.697H265.486L266.887 709.855H268.875ZM272.702 716.755C272.006 716.755 271.406 716.614 270.904 716.332C270.405 716.047 270.02 715.645 269.75 715.125C269.479 714.602 269.344 713.984 269.344 713.27C269.344 712.573 269.479 711.962 269.75 711.437C270.02 710.911 270.4 710.501 270.891 710.207C271.384 709.913 271.963 709.767 272.627 709.767C273.074 709.767 273.489 709.838 273.874 709.982C274.262 710.123 274.6 710.336 274.888 710.621C275.178 710.906 275.405 711.265 275.566 711.697C275.728 712.125 275.808 712.628 275.808 713.204V713.719H270.093V712.556H274.041C274.041 712.286 273.983 712.046 273.865 711.838C273.748 711.629 273.585 711.466 273.376 711.348C273.17 711.228 272.931 711.168 272.658 711.168C272.373 711.168 272.12 711.234 271.9 711.366C271.683 711.495 271.512 711.67 271.389 711.89C271.265 712.108 271.202 712.35 271.199 712.618V713.724C271.199 714.058 271.261 714.348 271.384 714.592C271.511 714.835 271.688 715.023 271.918 715.156C272.147 715.288 272.418 715.354 272.733 715.354C272.941 715.354 273.132 715.325 273.306 715.266C273.479 715.207 273.627 715.119 273.751 715.001C273.874 714.884 273.968 714.74 274.033 714.57L275.769 714.684C275.681 715.101 275.5 715.466 275.227 715.777C274.957 716.085 274.607 716.326 274.178 716.5C273.752 716.67 273.26 716.755 272.702 716.755ZM278.911 707.598V716.623H277.034V707.598H278.911ZM286.521 716.623H283.322V707.598H286.547C287.455 707.598 288.236 707.779 288.891 708.14C289.547 708.499 290.05 709.014 290.403 709.687C290.758 710.36 290.936 711.165 290.936 712.102C290.936 713.042 290.758 713.85 290.403 714.526C290.05 715.201 289.544 715.72 288.883 716.081C288.225 716.442 287.437 716.623 286.521 716.623ZM285.23 714.988H286.441C287.005 714.988 287.48 714.888 287.865 714.689C288.253 714.486 288.543 714.173 288.737 713.75C288.934 713.324 289.032 712.775 289.032 712.102C289.032 711.435 288.934 710.89 288.737 710.467C288.543 710.044 288.254 709.733 287.869 709.533C287.484 709.333 287.01 709.233 286.446 709.233H285.23V714.988ZM295.372 716.755C294.688 716.755 294.096 716.61 293.597 716.319C293.1 716.025 292.717 715.617 292.446 715.094C292.176 714.568 292.041 713.959 292.041 713.265C292.041 712.566 292.176 711.955 292.446 711.432C292.717 710.906 293.1 710.498 293.597 710.207C294.096 709.913 294.688 709.767 295.372 709.767C296.057 709.767 296.647 709.913 297.144 710.207C297.643 710.498 298.028 710.906 298.298 711.432C298.569 711.955 298.704 712.566 298.704 713.265C298.704 713.959 298.569 714.568 298.298 715.094C298.028 715.617 297.643 716.025 297.144 716.319C296.647 716.61 296.057 716.755 295.372 716.755ZM295.381 715.301C295.693 715.301 295.953 715.213 296.161 715.037C296.37 714.858 296.527 714.614 296.633 714.305C296.741 713.997 296.796 713.646 296.796 713.252C296.796 712.858 296.741 712.507 296.633 712.199C296.527 711.89 296.37 711.647 296.161 711.467C295.953 711.288 295.693 711.199 295.381 711.199C295.067 711.199 294.802 711.288 294.588 711.467C294.376 711.647 294.216 711.89 294.108 712.199C294.002 712.507 293.949 712.858 293.949 713.252C293.949 713.646 294.002 713.997 294.108 714.305C294.216 714.614 294.376 714.858 294.588 715.037C294.802 715.213 295.067 715.301 295.381 715.301ZM302.982 716.755C302.289 716.755 301.693 716.608 301.193 716.315C300.697 716.018 300.315 715.607 300.048 715.081C299.783 714.555 299.651 713.95 299.651 713.265C299.651 712.572 299.785 711.964 300.052 711.441C300.322 710.915 300.706 710.505 301.202 710.212C301.699 709.915 302.289 709.767 302.974 709.767C303.564 709.767 304.081 709.874 304.525 710.088C304.968 710.303 305.319 710.604 305.578 710.992C305.836 711.379 305.979 711.835 306.005 712.358H304.234C304.184 712.02 304.052 711.748 303.837 711.542C303.626 711.334 303.348 711.229 303.004 711.229C302.714 711.229 302.459 711.309 302.242 711.467C302.028 711.623 301.86 711.851 301.74 712.15C301.619 712.45 301.559 712.813 301.559 713.239C301.559 713.671 301.618 714.038 301.735 714.34C301.856 714.643 302.025 714.874 302.242 715.032C302.459 715.191 302.714 715.27 303.004 715.27C303.219 715.27 303.411 715.226 303.582 715.138C303.755 715.05 303.897 714.922 304.009 714.755C304.124 714.584 304.199 714.38 304.234 714.142H306.005C305.976 714.659 305.835 715.115 305.582 715.508C305.333 715.899 304.987 716.204 304.547 716.425C304.106 716.645 303.585 716.755 302.982 716.755ZM312.839 711.785L311.12 711.89C311.091 711.744 311.028 711.611 310.931 711.494C310.834 711.373 310.706 711.278 310.547 711.207C310.392 711.134 310.205 711.097 309.988 711.097C309.697 711.097 309.452 711.159 309.252 711.282C309.052 711.403 308.952 711.564 308.952 711.767C308.952 711.929 309.017 712.065 309.146 712.177C309.275 712.289 309.497 712.378 309.811 712.446L311.036 712.692C311.694 712.828 312.185 713.045 312.508 713.345C312.831 713.644 312.993 714.038 312.993 714.526C312.993 714.969 312.862 715.358 312.601 715.693C312.342 716.028 311.987 716.29 311.534 716.478C311.085 716.663 310.566 716.755 309.979 716.755C309.083 716.755 308.369 716.569 307.837 716.196C307.308 715.82 306.999 715.308 306.908 714.662L308.754 714.565C308.81 714.838 308.945 715.047 309.159 715.191C309.374 715.332 309.648 715.402 309.983 715.402C310.312 715.402 310.577 715.339 310.776 715.213C310.979 715.084 311.082 714.918 311.085 714.715C311.082 714.545 311.01 714.405 310.869 714.296C310.728 714.185 310.511 714.1 310.217 714.041L309.045 713.807C308.384 713.675 307.892 713.446 307.568 713.12C307.248 712.794 307.088 712.378 307.088 711.873C307.088 711.438 307.206 711.063 307.441 710.749C307.679 710.435 308.012 710.192 308.441 710.022C308.873 709.852 309.378 709.767 309.957 709.767C310.812 709.767 311.484 709.947 311.975 710.309C312.469 710.67 312.756 711.162 312.839 711.785Z" fill="#374151"/>
<path opacity="0.15" d="M379.248 701.239C395.447 701.239 408.578 688.107 408.578 671.909C408.578 655.71 395.447 642.579 379.248 642.579C363.05 642.579 349.918 655.71 349.918 671.909C349.918 688.107 363.05 701.239 379.248 701.239Z" fill="#7E3CEF"/>
<path d="M379.248 694.47C391.709 694.47 401.81 684.369 401.81 671.909C401.81 659.449 391.709 649.348 379.248 649.348C366.788 649.348 356.687 659.449 356.687 671.909C356.687 684.369 366.788 694.47 379.248 694.47Z" fill="white"/>
<path d="M379.22 677.566C378.382 677.566 377.636 677.422 376.982 677.134C376.332 676.843 375.817 676.443 375.44 675.934C375.066 675.422 374.873 674.831 374.862 674.162H377.307C377.322 674.442 377.414 674.689 377.582 674.902C377.754 675.112 377.982 675.274 378.266 675.39C378.551 675.506 378.87 675.564 379.225 675.564C379.596 675.564 379.923 675.499 380.207 675.368C380.491 675.237 380.713 675.056 380.874 674.824C381.035 674.592 381.115 674.325 381.115 674.022C381.115 673.715 381.029 673.444 380.857 673.209C380.689 672.969 380.446 672.782 380.128 672.648C379.814 672.513 379.44 672.446 379.007 672.446H377.935V670.662H379.007C379.373 670.662 379.696 670.599 379.977 670.472C380.261 670.345 380.482 670.169 380.639 669.945C380.796 669.716 380.874 669.451 380.874 669.148C380.874 668.86 380.805 668.608 380.667 668.391C380.532 668.17 380.341 667.998 380.095 667.875C379.852 667.752 379.568 667.69 379.242 667.69C378.913 667.69 378.612 667.75 378.339 667.869C378.066 667.985 377.848 668.152 377.683 668.369C377.519 668.585 377.431 668.84 377.42 669.131H375.092C375.103 668.47 375.292 667.886 375.659 667.382C376.025 666.877 376.518 666.482 377.139 666.198C377.764 665.91 378.468 665.766 379.253 665.766C380.046 665.766 380.74 665.91 381.334 666.198C381.929 666.486 382.39 666.875 382.719 667.365C383.052 667.851 383.217 668.397 383.213 669.002C383.217 669.645 383.017 670.182 382.613 670.612C382.213 671.042 381.691 671.315 381.048 671.431V671.52C381.893 671.629 382.536 671.922 382.977 672.401C383.422 672.876 383.643 673.47 383.639 674.184C383.643 674.839 383.454 675.42 383.073 675.929C382.695 676.437 382.173 676.837 381.508 677.129C380.842 677.42 380.08 677.566 379.22 677.566Z" fill="#7E3CEF"/>
<path d="M355.803 707.598L357.985 714.455H358.068L360.254 707.598H362.369L359.258 716.623H356.799L353.684 707.598H355.803ZM365.741 716.755C365.045 716.755 364.446 716.614 363.943 716.332C363.444 716.047 363.059 715.645 362.789 715.125C362.518 714.602 362.383 713.984 362.383 713.27C362.383 712.573 362.518 711.962 362.789 711.437C363.059 710.911 363.439 710.501 363.93 710.207C364.424 709.913 365.002 709.767 365.666 709.767C366.113 709.767 366.528 709.838 366.913 709.982C367.301 710.123 367.639 710.336 367.927 710.621C368.218 710.906 368.444 711.265 368.605 711.697C368.767 712.125 368.848 712.628 368.848 713.204V713.719H363.132V712.556H367.081C367.081 712.286 367.022 712.046 366.904 711.838C366.787 711.629 366.624 711.466 366.415 711.348C366.21 711.228 365.97 711.168 365.697 711.168C365.412 711.168 365.159 711.234 364.939 711.366C364.722 711.495 364.551 711.67 364.428 711.89C364.305 712.108 364.241 712.35 364.238 712.618V713.724C364.238 714.058 364.3 714.348 364.424 714.592C364.55 714.835 364.728 715.023 364.957 715.156C365.186 715.288 365.458 715.354 365.772 715.354C365.981 715.354 366.171 715.325 366.345 715.266C366.518 715.207 366.666 715.119 366.79 715.001C366.913 714.884 367.007 714.74 367.072 714.57L368.808 714.684C368.72 715.101 368.539 715.466 368.266 715.777C367.996 716.085 367.646 716.326 367.217 716.5C366.791 716.67 366.299 716.755 365.741 716.755ZM370.073 716.623V709.855H371.893V711.036H371.963C372.087 710.615 372.294 710.298 372.584 710.084C372.875 709.866 373.21 709.758 373.589 709.758C373.683 709.758 373.784 709.764 373.893 709.775C374.002 709.787 374.097 709.803 374.18 709.824V711.489C374.091 711.463 373.97 711.44 373.814 711.419C373.658 711.398 373.516 711.388 373.386 711.388C373.11 711.388 372.864 711.448 372.646 711.569C372.432 711.686 372.261 711.851 372.135 712.062C372.012 712.274 371.95 712.518 371.95 712.794V716.623H370.073ZM375.15 716.623V709.855H377.027V716.623H375.15ZM376.093 708.982C375.814 708.982 375.575 708.89 375.375 708.705C375.178 708.517 375.08 708.292 375.08 708.03C375.08 707.772 375.178 707.55 375.375 707.365C375.575 707.177 375.814 707.083 376.093 707.083C376.372 707.083 376.61 707.177 376.807 707.365C377.007 707.55 377.107 707.772 377.107 708.03C377.107 708.292 377.007 708.517 376.807 708.705C376.61 708.89 376.372 708.982 376.093 708.982ZM382.171 709.855V711.265H377.993V709.855H382.171ZM378.95 716.623V709.366C378.95 708.875 379.045 708.468 379.236 708.145C379.43 707.822 379.694 707.579 380.029 707.418C380.364 707.256 380.745 707.175 381.171 707.175C381.458 707.175 381.721 707.198 381.959 707.242C382.2 707.286 382.379 707.325 382.497 707.361L382.162 708.771C382.089 708.747 381.998 708.725 381.889 708.705C381.783 708.684 381.674 708.674 381.563 708.674C381.287 708.674 381.094 708.738 380.985 708.868C380.877 708.994 380.822 709.172 380.822 709.401V716.623H378.95ZM384.477 719.161C384.239 719.161 384.015 719.142 383.807 719.104C383.601 719.069 383.431 719.023 383.296 718.967L383.719 717.566C383.939 717.634 384.137 717.67 384.313 717.676C384.493 717.682 384.647 717.641 384.776 717.553C384.908 717.465 385.016 717.315 385.098 717.103L385.208 716.817L382.78 709.855H384.754L386.155 714.825H386.226L387.64 709.855H389.628L386.997 717.355C386.871 717.719 386.699 718.036 386.482 718.306C386.267 718.58 385.995 718.79 385.666 718.936C385.337 719.086 384.941 719.161 384.477 719.161ZM395.404 707.598V716.623H393.496V707.598H395.404ZM400.173 716.623H396.973V707.598H400.199C401.107 707.598 401.888 707.779 402.543 708.14C403.198 708.499 403.702 709.014 404.055 709.687C404.41 710.36 404.588 711.165 404.588 712.102C404.588 713.042 404.41 713.85 404.055 714.526C403.702 715.201 403.195 715.72 402.534 716.081C401.876 716.442 401.089 716.623 400.173 716.623ZM398.881 714.988H400.093C400.657 714.988 401.132 714.888 401.517 714.689C401.904 714.486 402.195 714.173 402.389 713.75C402.586 713.324 402.684 712.775 402.684 712.102C402.684 711.435 402.586 710.89 402.389 710.467C402.195 710.044 401.906 709.733 401.521 709.533C401.136 709.333 400.662 709.233 400.098 709.233H398.881V714.988Z" fill="#7E3CEF"/>
<path d="M484.439 694.47C496.899 694.47 507 684.369 507 671.909C507 659.449 496.899 649.348 484.439 649.348C471.978 649.348 461.877 659.449 461.877 671.909C461.877 684.369 471.978 694.47 484.439 694.47Z" fill="white" stroke="#E5E7EB" stroke-width="2.25614"/>
<path d="M479.704 674.737V672.825L484.499 665.271H486.148V667.918H485.172L482.149 672.702V672.791H488.963V674.737H479.704ZM485.217 676.756V674.154L485.261 673.307V665.271H487.538V676.756H485.217Z" fill="#9CA3AF"/>
<path d="M447.339 716.623H446.193L449.507 707.598H450.635L453.949 716.623H452.803L450.106 709.026H450.036L447.339 716.623ZM447.762 713.098H452.38V714.067H447.762V713.098ZM457.963 716.764C457.329 716.764 456.782 716.614 456.324 716.315C455.866 716.015 455.513 715.602 455.266 715.076C455.02 714.551 454.896 713.95 454.896 713.274C454.896 712.587 455.023 711.98 455.275 711.454C455.531 710.925 455.886 710.513 456.342 710.216C456.8 709.916 457.334 709.767 457.946 709.767C458.421 709.767 458.85 709.855 459.232 710.031C459.614 710.207 459.927 710.454 460.171 710.771C460.415 711.088 460.566 711.459 460.625 711.882H459.585C459.505 711.573 459.329 711.3 459.056 711.062C458.786 710.821 458.421 710.701 457.963 710.701C457.558 710.701 457.202 710.806 456.897 711.018C456.594 711.227 456.358 711.522 456.187 711.904C456.02 712.283 455.936 712.728 455.936 713.239C455.936 713.762 456.018 714.217 456.183 714.605C456.35 714.993 456.585 715.294 456.888 715.508C457.193 715.723 457.552 715.83 457.963 715.83C458.233 715.83 458.479 715.783 458.699 715.689C458.919 715.595 459.106 715.46 459.259 715.283C459.411 715.107 459.52 714.896 459.585 714.649H460.625C460.566 715.048 460.421 715.408 460.188 715.729C459.959 716.046 459.655 716.298 459.276 716.486C458.9 716.672 458.463 716.764 457.963 716.764ZM464.895 716.764C464.26 716.764 463.714 716.614 463.255 716.315C462.797 716.015 462.445 715.602 462.198 715.076C461.951 714.551 461.828 713.95 461.828 713.274C461.828 712.587 461.954 711.98 462.207 711.454C462.462 710.925 462.818 710.513 463.273 710.216C463.731 709.916 464.266 709.767 464.877 709.767C465.353 709.767 465.782 709.855 466.164 710.031C466.546 710.207 466.858 710.454 467.102 710.771C467.346 711.088 467.497 711.459 467.556 711.882H466.516C466.437 711.573 466.261 711.3 465.987 711.062C465.717 710.821 465.353 710.701 464.895 710.701C464.489 710.701 464.134 710.806 463.828 711.018C463.526 711.227 463.289 711.522 463.119 711.904C462.951 712.283 462.868 712.728 462.868 713.239C462.868 713.762 462.95 714.217 463.114 714.605C463.282 714.993 463.517 715.294 463.819 715.508C464.125 715.723 464.483 715.83 464.895 715.83C465.165 715.83 465.41 715.783 465.63 715.689C465.851 715.595 466.037 715.46 466.19 715.283C466.343 715.107 466.452 714.896 466.516 714.649H467.556C467.497 715.048 467.352 715.408 467.12 715.729C466.891 716.046 466.587 716.298 466.208 716.486C465.832 716.672 465.394 716.764 464.895 716.764ZM471.914 716.764C471.262 716.764 470.699 716.62 470.226 716.332C469.756 716.041 469.394 715.636 469.138 715.116C468.885 714.593 468.759 713.985 468.759 713.292C468.759 712.598 468.885 711.987 469.138 711.459C469.394 710.927 469.749 710.513 470.204 710.216C470.663 709.916 471.197 709.767 471.808 709.767C472.161 709.767 472.509 709.825 472.853 709.943C473.196 710.06 473.509 710.251 473.791 710.516C474.073 710.777 474.298 711.124 474.466 711.556C474.633 711.987 474.717 712.519 474.717 713.151V713.591H469.499V712.692H473.659C473.659 712.311 473.583 711.97 473.43 711.67C473.28 711.37 473.066 711.134 472.787 710.961C472.511 710.787 472.184 710.701 471.808 710.701C471.394 710.701 471.036 710.804 470.733 711.009C470.434 711.212 470.203 711.476 470.041 711.802C469.88 712.128 469.799 712.478 469.799 712.851V713.45C469.799 713.962 469.887 714.395 470.063 714.75C470.243 715.103 470.491 715.372 470.808 715.557C471.125 715.739 471.494 715.83 471.914 715.83C472.187 715.83 472.434 715.792 472.654 715.715C472.878 715.636 473.07 715.518 473.232 715.363C473.393 715.204 473.518 715.007 473.606 714.772L474.611 715.054C474.505 715.395 474.327 715.695 474.078 715.953C473.828 716.209 473.52 716.409 473.152 716.553C472.785 716.694 472.372 716.764 471.914 716.764ZM481.093 711.37L480.159 711.635C480.1 711.479 480.013 711.328 479.899 711.181C479.787 711.031 479.634 710.908 479.441 710.811C479.247 710.714 478.998 710.665 478.696 710.665C478.282 710.665 477.936 710.761 477.66 710.952C477.387 711.14 477.25 711.379 477.25 711.67C477.25 711.929 477.344 712.133 477.533 712.283C477.721 712.432 478.014 712.557 478.414 712.657L479.418 712.904C480.024 713.051 480.475 713.276 480.771 713.578C481.068 713.878 481.216 714.264 481.216 714.737C481.216 715.125 481.105 715.471 480.881 715.777C480.661 716.083 480.353 716.323 479.956 716.5C479.56 716.676 479.098 716.764 478.572 716.764C477.882 716.764 477.311 716.614 476.858 716.315C476.406 716.015 476.119 715.577 475.999 715.001L476.986 714.755C477.08 715.119 477.258 715.392 477.519 715.574C477.784 715.756 478.129 715.847 478.555 715.847C479.04 715.847 479.424 715.745 479.709 715.539C479.997 715.33 480.141 715.081 480.141 714.79C480.141 714.555 480.059 714.358 479.894 714.199C479.73 714.038 479.477 713.917 479.136 713.838L478.008 713.574C477.389 713.427 476.933 713.199 476.642 712.891C476.354 712.579 476.211 712.19 476.211 711.723C476.211 711.341 476.318 711.003 476.532 710.709C476.75 710.416 477.045 710.185 477.418 710.018C477.794 709.85 478.22 709.767 478.696 709.767C479.366 709.767 479.891 709.913 480.273 710.207C480.658 710.501 480.931 710.889 481.093 711.37ZM487.576 711.37L486.642 711.635C486.583 711.479 486.496 711.328 486.382 711.181C486.27 711.031 486.118 710.908 485.924 710.811C485.73 710.714 485.481 710.665 485.179 710.665C484.765 710.665 484.42 710.761 484.143 710.952C483.87 711.14 483.734 711.379 483.734 711.67C483.734 711.929 483.828 712.133 484.016 712.283C484.204 712.432 484.497 712.557 484.897 712.657L485.902 712.904C486.507 713.051 486.958 713.276 487.254 713.578C487.551 713.878 487.699 714.264 487.699 714.737C487.699 715.125 487.588 715.471 487.365 715.777C487.144 716.083 486.836 716.323 486.439 716.5C486.043 716.676 485.581 716.764 485.056 716.764C484.365 716.764 483.794 716.614 483.341 716.315C482.889 716.015 482.603 715.577 482.482 715.001L483.469 714.755C483.563 715.119 483.741 715.392 484.002 715.574C484.267 715.756 484.612 715.847 485.038 715.847C485.523 715.847 485.907 715.745 486.192 715.539C486.48 715.33 486.624 715.081 486.624 714.79C486.624 714.555 486.542 714.358 486.377 714.199C486.213 714.038 485.96 713.917 485.62 713.838L484.492 713.574C483.872 713.427 483.416 713.199 483.125 712.891C482.838 712.579 482.694 712.19 482.694 711.723C482.694 711.341 482.801 711.003 483.015 710.709C483.233 710.416 483.528 710.185 483.901 710.018C484.277 709.85 484.703 709.767 485.179 709.767C485.849 709.767 486.375 709.913 486.756 710.207C487.141 710.501 487.414 710.889 487.576 711.37ZM500.158 710.419H499.065C499 710.104 498.887 709.828 498.726 709.59C498.567 709.352 498.373 709.153 498.144 708.991C497.918 708.826 497.667 708.703 497.39 708.621C497.114 708.539 496.826 708.497 496.527 708.497C495.98 708.497 495.485 708.635 495.042 708.912C494.601 709.188 494.25 709.595 493.989 710.132C493.73 710.67 493.601 711.329 493.601 712.111C493.601 712.892 493.73 713.552 493.989 714.089C494.25 714.627 494.601 715.034 495.042 715.31C495.485 715.586 495.98 715.724 496.527 715.724C496.826 715.724 497.114 715.683 497.39 715.601C497.667 715.518 497.918 715.397 498.144 715.235C498.373 715.07 498.567 714.869 498.726 714.631C498.887 714.39 499 714.114 499.065 713.803H500.158C500.076 714.264 499.926 714.677 499.708 715.041C499.491 715.405 499.221 715.715 498.898 715.971C498.574 716.224 498.212 716.416 497.809 716.548C497.41 716.68 496.982 716.746 496.527 716.746C495.757 716.746 495.073 716.558 494.473 716.182C493.874 715.806 493.403 715.272 493.059 714.578C492.715 713.885 492.543 713.063 492.543 712.111C492.543 711.159 492.715 710.336 493.059 709.643C493.403 708.95 493.874 708.415 494.473 708.039C495.073 707.663 495.757 707.475 496.527 707.475C496.982 707.475 497.41 707.541 497.809 707.673C498.212 707.806 498.574 707.999 498.898 708.255C499.221 708.508 499.491 708.816 499.708 709.18C499.926 709.542 500.076 709.955 500.158 710.419ZM504.532 716.764C503.921 716.764 503.385 716.619 502.924 716.328C502.466 716.037 502.107 715.63 501.849 715.107C501.593 714.584 501.465 713.973 501.465 713.274C501.465 712.569 501.593 711.954 501.849 711.428C502.107 710.902 502.466 710.494 502.924 710.203C503.385 709.912 503.921 709.767 504.532 709.767C505.143 709.767 505.678 709.912 506.136 710.203C506.598 710.494 506.956 710.902 507.212 711.428C507.47 711.954 507.599 712.569 507.599 713.274C507.599 713.973 507.47 714.584 507.212 715.107C506.956 715.63 506.598 716.037 506.136 716.328C505.678 716.619 505.143 716.764 504.532 716.764ZM504.532 715.83C504.997 715.83 505.378 715.711 505.678 715.473C505.978 715.235 506.199 714.922 506.343 714.534C506.487 714.147 506.559 713.726 506.559 713.274C506.559 712.822 506.487 712.4 506.343 712.009C506.199 711.619 505.978 711.303 505.678 711.062C505.378 710.821 504.997 710.701 504.532 710.701C504.068 710.701 503.686 710.821 503.387 711.062C503.087 711.303 502.865 711.619 502.721 712.009C502.577 712.4 502.505 712.822 502.505 713.274C502.505 713.726 502.577 714.147 502.721 714.534C502.865 714.922 503.087 715.235 503.387 715.473C503.686 715.711 504.068 715.83 504.532 715.83ZM511.743 716.764C511.178 716.764 510.681 716.622 510.249 716.337C509.817 716.049 509.479 715.643 509.235 715.12C508.991 714.595 508.869 713.973 508.869 713.256C508.869 712.546 508.991 711.929 509.235 711.406C509.479 710.883 509.818 710.479 510.253 710.194C510.688 709.909 511.19 709.767 511.76 709.767C512.201 709.767 512.549 709.84 512.804 709.987C513.063 710.131 513.26 710.295 513.395 710.48C513.533 710.662 513.64 710.812 513.717 710.93H513.805V707.598H514.845V716.623H513.84V715.583H513.717C513.64 715.706 513.532 715.862 513.391 716.05C513.25 716.235 513.048 716.401 512.787 716.548C512.525 716.692 512.177 716.764 511.743 716.764ZM511.884 715.83C512.301 715.83 512.653 715.721 512.941 715.504C513.229 715.283 513.448 714.979 513.598 714.592C513.747 714.201 513.822 713.75 513.822 713.239C513.822 712.734 513.749 712.291 513.602 711.912C513.455 711.531 513.238 711.234 512.95 711.022C512.662 710.808 512.307 710.701 511.884 710.701C511.443 710.701 511.076 710.814 510.782 711.04C510.491 711.263 510.272 711.567 510.125 711.952C509.981 712.334 509.909 712.763 509.909 713.239C509.909 713.721 509.983 714.158 510.13 714.552C510.28 714.943 510.5 715.254 510.791 715.486C511.084 715.715 511.449 715.83 511.884 715.83ZM519.732 716.764C519.079 716.764 518.517 716.62 518.044 716.332C517.574 716.041 517.211 715.636 516.955 715.116C516.703 714.593 516.576 713.985 516.576 713.292C516.576 712.598 516.703 711.987 516.955 711.459C517.211 710.927 517.566 710.513 518.022 710.216C518.48 709.916 519.015 709.767 519.626 709.767C519.978 709.767 520.326 709.825 520.67 709.943C521.014 710.06 521.327 710.251 521.609 710.516C521.891 710.777 522.115 711.124 522.283 711.556C522.45 711.987 522.534 712.519 522.534 713.151V713.591H517.317V712.692H521.477C521.477 712.311 521.4 711.97 521.247 711.67C521.098 711.37 520.883 711.134 520.604 710.961C520.328 710.787 520.002 710.701 519.626 710.701C519.212 710.701 518.853 710.804 518.551 711.009C518.251 711.212 518.02 711.476 517.859 711.802C517.697 712.128 517.616 712.478 517.616 712.851V713.45C517.616 713.962 517.705 714.395 517.881 714.75C518.06 715.103 518.308 715.372 518.625 715.557C518.943 715.739 519.311 715.83 519.732 715.83C520.005 715.83 520.252 715.792 520.472 715.715C520.695 715.636 520.888 715.518 521.049 715.363C521.211 715.204 521.336 715.007 521.424 714.772L522.428 715.054C522.323 715.395 522.145 715.695 521.895 715.953C521.645 716.209 521.337 716.409 520.97 716.553C520.603 716.694 520.19 716.764 519.732 716.764Z" fill="#9CA3AF"/>
<path d="M576.946 694.47C589.406 694.47 599.507 684.369 599.507 671.909C599.507 659.449 589.406 649.348 576.946 649.348C564.485 649.348 554.384 659.449 554.384 671.909C554.384 684.369 564.485 694.47 576.946 694.47Z" fill="white" stroke="#E5E7EB" stroke-width="2.25614"/>
<path d="M573.562 675.293C575.431 675.293 576.946 673.778 576.946 671.909C576.946 670.04 575.431 668.525 573.562 668.525C571.693 668.525 570.177 670.04 570.177 671.909C570.177 673.778 571.693 675.293 573.562 675.293Z" stroke="#9CA3AF" stroke-width="1.80491" stroke-linecap="round" stroke-linejoin="round"/>
<path d="M576.946 671.909H585.97" stroke="#9CA3AF" stroke-width="1.80491" stroke-linecap="round" stroke-linejoin="round"/>
<path d="M582.586 671.909V675.293" stroke="#9CA3AF" stroke-width="1.80491" stroke-linecap="round" stroke-linejoin="round"/>
<path d="M554.116 707.598H555.42L558.487 715.09H558.593L561.66 707.598H562.964V716.623H561.942V709.767H561.854L559.034 716.623H558.046L555.226 709.767H555.138V716.623H554.116V707.598ZM567.764 716.764C567.153 716.764 566.617 716.619 566.156 716.328C565.697 716.037 565.339 715.63 565.08 715.107C564.825 714.584 564.697 713.973 564.697 713.274C564.697 712.569 564.825 711.954 565.08 711.428C565.339 710.902 565.697 710.494 566.156 710.203C566.617 709.912 567.153 709.767 567.764 709.767C568.375 709.767 568.91 709.912 569.368 710.203C569.829 710.494 570.188 710.902 570.443 711.428C570.702 711.954 570.831 712.569 570.831 713.274C570.831 713.973 570.702 714.584 570.443 715.107C570.188 715.63 569.829 716.037 569.368 716.328C568.91 716.619 568.375 716.764 567.764 716.764ZM567.764 715.83C568.228 715.83 568.61 715.711 568.91 715.473C569.209 715.235 569.431 714.922 569.575 714.534C569.719 714.147 569.791 713.726 569.791 713.274C569.791 712.822 569.719 712.4 569.575 712.009C569.431 711.619 569.209 711.303 568.91 711.062C568.61 710.821 568.228 710.701 567.764 710.701C567.3 710.701 566.918 710.821 566.618 711.062C566.319 711.303 566.097 711.619 565.953 712.009C565.809 712.4 565.737 712.822 565.737 713.274C565.737 713.726 565.809 714.147 565.953 714.534C566.097 714.922 566.319 715.235 566.618 715.473C566.918 715.711 567.3 715.83 567.764 715.83ZM577.711 709.855L575.208 716.623H574.15L571.647 709.855H572.775L574.644 715.248H574.714L576.583 709.855H577.711ZM581.679 716.764C581.026 716.764 580.464 716.62 579.991 716.332C579.521 716.041 579.158 715.636 578.903 715.116C578.65 714.593 578.524 713.985 578.524 713.292C578.524 712.598 578.65 711.987 578.903 711.459C579.158 710.927 579.514 710.513 579.969 710.216C580.427 709.916 580.962 709.767 581.573 709.767C581.925 709.767 582.274 709.825 582.617 709.943C582.961 710.06 583.274 710.251 583.556 710.516C583.838 710.777 584.063 711.124 584.23 711.556C584.397 711.987 584.481 712.519 584.481 713.151V713.591H579.264V712.692H583.424C583.424 712.311 583.347 711.97 583.194 711.67C583.045 711.37 582.83 711.134 582.551 710.961C582.275 710.787 581.949 710.701 581.573 710.701C581.159 710.701 580.8 710.804 580.498 711.009C580.198 711.212 579.967 711.476 579.806 711.802C579.644 712.128 579.564 712.478 579.564 712.851V713.45C579.564 713.962 579.652 714.395 579.828 714.75C580.007 715.103 580.255 715.372 580.573 715.557C580.89 715.739 581.259 715.83 581.679 715.83C581.952 715.83 582.199 715.792 582.419 715.715C582.642 715.636 582.835 715.518 582.996 715.363C583.158 715.204 583.283 715.007 583.371 714.772L584.375 715.054C584.27 715.395 584.092 715.695 583.842 715.953C583.593 716.209 583.284 716.409 582.917 716.553C582.55 716.694 582.137 716.764 581.679 716.764ZM589.941 712.269V713.239H585.993V712.269H589.941ZM593.005 707.598V716.623H591.912V707.598H593.005ZM596.095 712.551V716.623H595.055V709.855H596.059V710.912H596.147C596.306 710.568 596.547 710.292 596.87 710.084C597.193 709.872 597.61 709.767 598.122 709.767C598.58 709.767 598.981 709.861 599.325 710.049C599.668 710.234 599.936 710.516 600.127 710.895C600.317 711.271 600.413 711.746 600.413 712.322V716.623H599.373V712.393C599.373 711.861 599.235 711.447 598.959 711.15C598.683 710.851 598.304 710.701 597.822 710.701C597.49 710.701 597.193 710.773 596.932 710.917C596.673 711.061 596.469 711.271 596.319 711.547C596.169 711.823 596.095 712.158 596.095 712.551Z" fill="#9CA3AF"/>
<defs>
<linearGradient id="paint0_linear_640_6811" x1="236.412" y1="28.377" x2="689.606" y2="247.893" gradientUnits="userSpaceOnUse">
<stop stop-color="#1F1F2E"/>
<stop offset="1" stop-color="#111827"/>
</linearGradient>
<linearGradient id="paint1_linear_640_6811" x1="277.023" y1="481.479" x2="300.381" y2="574.91" gradientUnits="userSpaceOnUse">
<stop stop-color="#9B5CFF"/>
<stop offset="1" stop-color="#7E3CEF"/>
</linearGradient>
<linearGradient id="paint2_linear_640_6811" x1="153.076" y1="649.348" x2="198.199" y2="694.47" gradientUnits="userSpaceOnUse">
<stop stop-color="#9B5CFF"/>
<stop offset="1" stop-color="#7E3CEF"/>
</linearGradient>
<linearGradient id="paint3_linear_640_6811" x1="254.881" y1="649.348" x2="300.004" y2="694.47" gradientUnits="userSpaceOnUse">
<stop stop-color="#9B5CFF"/>
<stop offset="1" stop-color="#7E3CEF"/>
</linearGradient>
</defs>
</svg>
