<svg width="748" height="748" viewBox="0 0 748 748" fill="none" xmlns="http://www.w3.org/2000/svg">
<path d="M66.3812 69.7519C67.2314 69.9331 67.9144 70.3583 68.4301 71.0273C68.9459 71.6824 69.2037 72.4351 69.2037 73.2854C69.2037 74.512 68.7716 75.4877 67.9074 76.2125C67.0572 76.9234 65.8654 77.2788 64.3322 77.2788H57.4953V62.6014H64.1022C65.5936 62.6014 66.7575 62.9429 67.5938 63.6259C68.4441 64.3089 68.8692 65.2358 68.8692 66.4067C68.8692 67.2709 68.6392 67.9887 68.1792 68.5602C67.7332 69.1317 67.1338 69.5289 66.3812 69.7519ZM61.0705 68.5602H63.4122C63.9976 68.5602 64.4437 68.4278 64.7503 68.1629C65.0709 67.8981 65.2312 67.5148 65.2312 67.013C65.2312 66.4973 65.0709 66.107 64.7503 65.8421C64.4437 65.5634 63.9976 65.424 63.4122 65.424H61.0705V68.5602ZM63.7049 74.4353C64.3043 74.4353 64.7643 74.2959 65.0849 74.0172C65.4194 73.7384 65.5867 73.3342 65.5867 72.8045C65.5867 72.2888 65.4124 71.8846 65.064 71.5918C64.7294 71.2852 64.2625 71.1319 63.6631 71.1319H61.0705V74.4353H63.7049ZM70.5665 71.4246C70.5665 70.2259 70.7895 69.1735 71.2356 68.2675C71.6955 67.3615 72.3158 66.6645 73.0964 66.1767C73.8769 65.6888 74.7481 65.4449 75.7099 65.4449C76.5323 65.4449 77.2501 65.6122 77.8634 65.9467C78.4906 66.2812 78.9715 66.7203 79.306 67.2639V65.6122H82.8813V77.2788H79.306V75.6271C78.9576 76.1707 78.4697 76.6098 77.8425 76.9443C77.2292 77.2788 76.5113 77.4461 75.689 77.4461C74.7411 77.4461 73.8769 77.2021 73.0964 76.7143C72.3158 76.2125 71.6955 75.5086 71.2356 74.6026C70.7895 73.6826 70.5665 72.6233 70.5665 71.4246ZM79.306 71.4455C79.306 70.5534 79.0551 69.8495 78.5534 69.3338C78.0655 68.818 77.4661 68.5602 76.7553 68.5602C76.0444 68.5602 75.4381 68.818 74.9363 69.3338C74.4484 69.8356 74.2045 70.5325 74.2045 71.4246C74.2045 72.3166 74.4484 73.0275 74.9363 73.5572C75.4381 74.0729 76.0444 74.3308 76.7553 74.3308C77.4661 74.3308 78.0655 74.0729 78.5534 73.5572C79.0551 73.0415 79.306 72.3376 79.306 71.4455ZM91.9702 74.2472V77.2788H90.1512C88.8549 77.2788 87.8444 76.9652 87.1196 76.3379C86.3948 75.6968 86.0324 74.6583 86.0324 73.2227V68.5811H84.6106V65.6122H86.0324V62.7687H89.6076V65.6122H91.9493V68.5811H89.6076V73.2645C89.6076 73.6129 89.6913 73.8638 89.8585 74.0172C90.0258 74.1705 90.3046 74.2472 90.6948 74.2472H91.9702ZM93.2508 71.4455C93.2508 70.2328 93.4948 69.1735 93.9826 68.2675C94.4844 67.3615 95.1744 66.6645 96.0525 66.1767C96.9446 65.6888 97.9621 65.4449 99.1051 65.4449C100.569 65.4449 101.788 65.8282 102.764 66.5948C103.754 67.3615 104.402 68.4417 104.708 69.8356H100.903C100.583 68.9435 99.9623 68.4975 99.0424 68.4975C98.3872 68.4975 97.8645 68.7553 97.4743 69.2711C97.084 69.7728 96.8888 70.4977 96.8888 71.4455C96.8888 72.3933 97.084 73.1251 97.4743 73.6408C97.8645 74.1426 98.3872 74.3935 99.0424 74.3935C99.9623 74.3935 100.583 73.9475 100.903 73.0554H104.708C104.402 74.4214 103.754 75.4947 102.764 76.2752C101.774 77.0558 100.555 77.4461 99.1051 77.4461C97.9621 77.4461 96.9446 77.2021 96.0525 76.7143C95.1744 76.2264 94.4844 75.5295 93.9826 74.6235C93.4948 73.7175 93.2508 72.6581 93.2508 71.4455ZM113.792 65.4867C115.13 65.4867 116.204 65.9327 117.012 66.8248C117.821 67.703 118.225 68.9156 118.225 70.4628V77.2788H114.67V70.9437C114.67 70.1631 114.468 69.5568 114.064 69.1247C113.66 68.6926 113.116 68.4766 112.433 68.4766C111.75 68.4766 111.207 68.6926 110.802 69.1247C110.398 69.5568 110.196 70.1631 110.196 70.9437V77.2788H106.621V61.8069H110.196V67.1803C110.559 66.6645 111.053 66.2533 111.681 65.9467C112.308 65.64 113.012 65.4867 113.792 65.4867ZM129.124 62.6014V77.2788H125.548V62.6014H129.124ZM138.823 65.4867C140.189 65.4867 141.276 65.9327 142.085 66.8248C142.907 67.703 143.318 68.9156 143.318 70.4628V77.2788H139.764V70.9437C139.764 70.1631 139.562 69.5568 139.158 69.1247C138.754 68.6926 138.21 68.4766 137.527 68.4766C136.844 68.4766 136.3 68.6926 135.896 69.1247C135.492 69.5568 135.29 70.1631 135.29 70.9437V77.2788H131.714V65.6122H135.29V67.1593C135.652 66.6436 136.14 66.2394 136.753 65.9467C137.367 65.64 138.057 65.4867 138.823 65.4867ZM152.305 74.2472V77.2788H150.486C149.19 77.2788 148.179 76.9652 147.455 76.3379C146.73 75.6968 146.367 74.6583 146.367 73.2227V68.5811H144.946V65.6122H146.367V62.7687H149.943V65.6122H152.284V68.5811H149.943V73.2645C149.943 73.6129 150.026 73.8638 150.194 74.0172C150.361 74.1705 150.64 74.2472 151.03 74.2472H152.305ZM153.586 71.4246C153.586 70.2259 153.809 69.1735 154.255 68.2675C154.715 67.3615 155.335 66.6645 156.116 66.1767C156.896 65.6888 157.767 65.4449 158.729 65.4449C159.552 65.4449 160.269 65.6122 160.883 65.9467C161.51 66.2812 161.991 66.7203 162.325 67.2639V65.6122H165.901V77.2788H162.325V75.6271C161.977 76.1707 161.489 76.6098 160.862 76.9443C160.249 77.2788 159.531 77.4461 158.708 77.4461C157.76 77.4461 156.896 77.2021 156.116 76.7143C155.335 76.2125 154.715 75.5086 154.255 74.6026C153.809 73.6826 153.586 72.6233 153.586 71.4246ZM162.325 71.4455C162.325 70.5534 162.075 69.8495 161.573 69.3338C161.085 68.818 160.485 68.5602 159.775 68.5602C159.064 68.5602 158.457 68.818 157.956 69.3338C157.468 69.8356 157.224 70.5325 157.224 71.4246C157.224 72.3166 157.468 73.0275 157.956 73.5572C158.457 74.0729 159.064 74.3308 159.775 74.3308C160.485 74.3308 161.085 74.0729 161.573 73.5572C162.075 73.0415 162.325 72.3376 162.325 71.4455ZM175.617 77.2788L172.062 72.3863V77.2788H168.487V61.8069H172.062V70.3583L175.596 65.6122H180.008L175.157 71.4664L180.049 77.2788H175.617ZM192.409 71.2364C192.409 71.557 192.388 71.8985 192.347 72.2609H184.255C184.311 72.9996 184.541 73.5642 184.945 73.9544C185.349 74.3447 185.858 74.5399 186.471 74.5399C187.364 74.5399 187.984 74.1635 188.332 73.4108H192.138C191.942 74.1775 191.587 74.8674 191.071 75.4807C190.569 76.094 189.935 76.5749 189.169 76.9234C188.402 77.2718 187.545 77.4461 186.597 77.4461C185.454 77.4461 184.436 77.2021 183.544 76.7143C182.652 76.2264 181.955 75.5295 181.454 74.6235C180.952 73.7175 180.701 72.6581 180.701 71.4455C180.701 70.2328 180.945 69.1735 181.433 68.2675C181.934 67.3615 182.631 66.6645 183.523 66.1767C184.416 65.6888 185.44 65.4449 186.597 65.4449C187.726 65.4449 188.73 65.6819 189.608 66.1558C190.486 66.6297 191.169 67.3057 191.657 68.1838C192.158 69.062 192.409 70.0795 192.409 71.2364ZM188.75 70.4419C188.75 69.7728 188.541 69.2501 188.123 68.8738C187.705 68.4975 187.182 68.3093 186.555 68.3093C185.942 68.3093 185.426 68.4975 185.008 68.8738C184.604 69.2362 184.353 69.7589 184.255 70.4419H188.75Z" fill="#111827"/>
<path d="M178.511 89.8223H59.3352C57.6031 89.8223 56.199 91.2264 56.199 92.9585C56.199 94.6905 57.6031 96.0947 59.3352 96.0947H178.511C180.243 96.0947 181.647 94.6905 181.647 92.9585C181.647 91.2264 180.243 89.8223 178.511 89.8223Z" fill="#D1D5DB"/>
<path d="M675.075 133.729H72.9254C63.6876 133.729 56.199 141.218 56.199 150.455V213.179C56.199 222.417 63.6876 229.906 72.9254 229.906H675.075C684.313 229.906 691.801 222.417 691.801 213.179V150.455C691.801 141.218 684.313 133.729 675.075 133.729Z" fill="url(#paint0_linear_641_6997)"/>
<path d="M78.9176 182.741C79.7121 182.079 80.1358 181.734 80.1888 181.708C82.7312 179.589 84.7439 177.868 86.227 176.544C87.7101 175.193 88.9548 173.803 89.9612 172.372C90.9675 170.942 91.4707 169.578 91.4707 168.281C91.4707 167.195 91.2191 166.361 90.7159 165.778C90.2392 165.195 89.5109 164.904 88.5311 164.904C86.5183 164.904 85.4722 166.348 85.3928 169.234H78.8381C78.8911 166.983 79.3678 165.103 80.2682 163.593C81.1951 162.084 82.4001 160.971 83.8832 160.256C85.3928 159.541 87.0612 159.184 88.8886 159.184C91.0073 159.184 92.7684 159.568 94.172 160.336C95.6021 161.077 96.6482 162.097 97.3103 163.395C97.9989 164.692 98.3432 166.136 98.3432 167.725C98.3432 170.426 97.3898 172.955 95.483 175.312C93.5761 177.643 91.1264 179.96 88.1338 182.264H98.8596V187.786H78.9176V182.741ZM102.009 183.019V177.537L114.563 159.581H122.15V177.14H125.407V183.019H122.15V188.183H115.357V183.019H102.009ZM115.834 167.049L109.16 177.14H115.834V167.049ZM147.247 164.547L136.918 188.183H129.807L140.414 165.301H128.099V159.541H147.247V164.547Z" fill="white"/>
<path d="M80.3738 204.435C79.9736 204.435 79.617 204.366 79.3039 204.227C78.9908 204.085 78.7431 203.877 78.5607 203.602C78.381 203.325 78.2912 202.979 78.2912 202.565C78.2912 202.217 78.3552 201.924 78.4831 201.687C78.6111 201.45 78.7853 201.26 79.0058 201.115C79.2263 200.971 79.4768 200.862 79.7572 200.789C80.0403 200.715 80.3371 200.663 80.6474 200.633C81.0122 200.595 81.3062 200.56 81.5295 200.527C81.7527 200.492 81.9147 200.44 82.0154 200.372C82.1161 200.304 82.1665 200.203 82.1665 200.07V200.045C82.1665 199.787 82.0848 199.587 81.9215 199.445C81.7609 199.304 81.5322 199.233 81.2355 199.233C80.9224 199.233 80.6733 199.302 80.4882 199.441C80.303 199.577 80.1805 199.749 80.1206 199.956L78.5117 199.825C78.5934 199.444 78.754 199.114 78.9936 198.837C79.2331 198.556 79.5421 198.341 79.9205 198.192C80.3017 198.039 80.7427 197.963 81.2436 197.963C81.5921 197.963 81.9256 198.004 82.2441 198.085C82.5653 198.167 82.8498 198.294 83.0976 198.465C83.348 198.637 83.5454 198.857 83.6897 199.127C83.834 199.393 83.9061 199.713 83.9061 200.086V204.317H82.2563V203.447H82.2073C82.1066 203.643 81.9719 203.816 81.8031 203.966C81.6343 204.113 81.4315 204.228 81.1946 204.313C80.9578 204.394 80.6842 204.435 80.3738 204.435ZM80.872 203.235C81.1279 203.235 81.3539 203.184 81.5499 203.084C81.7459 202.98 81.8997 202.841 82.0113 202.667C82.123 202.493 82.1788 202.296 82.1788 202.075V201.409C82.1243 201.445 82.0494 201.477 81.9542 201.507C81.8616 201.535 81.7568 201.56 81.6397 201.585C81.5227 201.607 81.4056 201.627 81.2885 201.646C81.1715 201.663 81.0653 201.678 80.97 201.691C80.7658 201.721 80.5875 201.769 80.4351 201.834C80.2826 201.899 80.1642 201.988 80.0798 202.1C79.9954 202.208 79.9532 202.345 79.9532 202.508C79.9532 202.745 80.039 202.926 80.2105 203.051C80.3847 203.173 80.6052 203.235 80.872 203.235ZM85.2557 206.669V198.045H86.9709V199.098H87.0484C87.1247 198.929 87.2349 198.758 87.3792 198.584C87.5262 198.407 87.7168 198.26 87.9509 198.143C88.1878 198.023 88.4818 197.963 88.833 197.963C89.2903 197.963 89.7123 198.083 90.0989 198.322C90.4855 198.559 90.7945 198.917 91.0259 199.396C91.2573 199.873 91.373 200.47 91.373 201.189C91.373 201.889 91.26 202.479 91.034 202.961C90.8108 203.44 90.5059 203.804 90.1193 204.051C89.7354 204.296 89.3053 204.419 88.8289 204.419C88.4913 204.419 88.2041 204.363 87.9672 204.252C87.7331 204.14 87.5412 204 87.3915 203.831C87.2417 203.659 87.1274 203.487 87.0484 203.312H86.9954V206.669H85.2557ZM86.9586 201.181C86.9586 201.554 87.0103 201.879 87.1138 202.157C87.2172 202.434 87.367 202.651 87.563 202.806C87.759 202.958 87.9972 203.035 88.2776 203.035C88.5607 203.035 88.8003 202.957 88.9963 202.802C89.1923 202.644 89.3407 202.426 89.4414 202.149C89.5449 201.868 89.5966 201.545 89.5966 201.181C89.5966 200.819 89.5462 200.5 89.4455 200.225C89.3448 199.95 89.1964 199.735 89.0004 199.58C88.8044 199.425 88.5635 199.347 88.2776 199.347C87.9945 199.347 87.7549 199.422 87.5589 199.572C87.3656 199.721 87.2172 199.934 87.1138 200.209C87.0103 200.484 86.9586 200.808 86.9586 201.181ZM92.5327 206.669V198.045H94.2478V199.098H94.3254C94.4016 198.929 94.5119 198.758 94.6562 198.584C94.8032 198.407 94.9937 198.26 95.2279 198.143C95.4647 198.023 95.7587 197.963 96.1099 197.963C96.5673 197.963 96.9893 198.083 97.3758 198.322C97.7624 198.559 98.0714 198.917 98.3028 199.396C98.5342 199.873 98.6499 200.47 98.6499 201.189C98.6499 201.889 98.5369 202.479 98.311 202.961C98.0877 203.44 97.7828 203.804 97.3963 204.051C97.0124 204.296 96.5823 204.419 96.1058 204.419C95.7683 204.419 95.481 204.363 95.2442 204.252C95.0101 204.14 94.8181 204 94.6684 203.831C94.5187 203.659 94.4043 203.487 94.3254 203.312H94.2723V206.669H92.5327ZM94.2356 201.181C94.2356 201.554 94.2873 201.879 94.3907 202.157C94.4942 202.434 94.6439 202.651 94.8399 202.806C95.0359 202.958 95.2741 203.035 95.5546 203.035C95.8377 203.035 96.0773 202.957 96.2733 202.802C96.4693 202.644 96.6176 202.426 96.7184 202.149C96.8218 201.868 96.8736 201.545 96.8736 201.181C96.8736 200.819 96.8232 200.5 96.7225 200.225C96.6217 199.95 96.4734 199.735 96.2773 199.58C96.0813 199.425 95.8404 199.347 95.5546 199.347C95.2714 199.347 95.0319 199.422 94.8358 199.572C94.6426 199.721 94.4942 199.934 94.3907 200.209C94.2873 200.484 94.2356 200.808 94.2356 201.181ZM101.549 195.954V204.317H99.8097V195.954H101.549ZM102.943 204.317V198.045H104.682V204.317H102.943ZM103.817 197.236C103.558 197.236 103.336 197.15 103.151 196.979C102.969 196.804 102.877 196.596 102.877 196.354C102.877 196.114 102.969 195.909 103.151 195.737C103.336 195.563 103.558 195.476 103.817 195.476C104.075 195.476 104.296 195.563 104.478 195.737C104.663 195.909 104.756 196.114 104.756 196.354C104.756 196.596 104.663 196.804 104.478 196.979C104.296 197.15 104.075 197.236 103.817 197.236ZM108.91 204.439C108.267 204.439 107.715 204.303 107.252 204.031C106.792 203.756 106.438 203.375 106.19 202.888C105.945 202.4 105.823 201.84 105.823 201.205C105.823 200.563 105.947 199.999 106.194 199.515C106.445 199.027 106.8 198.648 107.26 198.375C107.72 198.1 108.267 197.963 108.902 197.963C109.449 197.963 109.928 198.062 110.339 198.261C110.75 198.46 111.076 198.739 111.315 199.098C111.555 199.457 111.687 199.879 111.711 200.364H110.07C110.023 200.051 109.901 199.799 109.702 199.609C109.506 199.415 109.249 199.319 108.93 199.319C108.661 199.319 108.425 199.392 108.224 199.539C108.025 199.683 107.87 199.894 107.758 200.172C107.647 200.45 107.591 200.786 107.591 201.181C107.591 201.581 107.645 201.921 107.754 202.202C107.866 202.482 108.022 202.696 108.224 202.843C108.425 202.99 108.661 203.063 108.93 203.063C109.129 203.063 109.307 203.022 109.465 202.941C109.626 202.859 109.758 202.741 109.861 202.585C109.968 202.428 110.037 202.238 110.07 202.018H111.711C111.684 202.497 111.553 202.919 111.319 203.284C111.088 203.646 110.768 203.929 110.36 204.133C109.951 204.337 109.468 204.439 108.91 204.439ZM114.614 204.435C114.213 204.435 113.857 204.366 113.544 204.227C113.231 204.085 112.983 203.877 112.801 203.602C112.621 203.325 112.531 202.979 112.531 202.565C112.531 202.217 112.595 201.924 112.723 201.687C112.851 201.45 113.025 201.26 113.246 201.115C113.466 200.971 113.717 200.862 113.997 200.789C114.28 200.715 114.577 200.663 114.887 200.633C115.252 200.595 115.546 200.56 115.769 200.527C115.993 200.492 116.155 200.44 116.255 200.372C116.356 200.304 116.406 200.203 116.406 200.07V200.045C116.406 199.787 116.325 199.587 116.161 199.445C116.001 199.304 115.772 199.233 115.475 199.233C115.162 199.233 114.913 199.302 114.728 199.441C114.543 199.577 114.42 199.749 114.361 199.956L112.752 199.825C112.833 199.444 112.994 199.114 113.233 198.837C113.473 198.556 113.782 198.341 114.16 198.192C114.542 198.039 114.983 197.963 115.483 197.963C115.832 197.963 116.165 198.004 116.484 198.085C116.805 198.167 117.09 198.294 117.337 198.465C117.588 198.637 117.785 198.857 117.93 199.127C118.074 199.393 118.146 199.713 118.146 200.086V204.317H116.496V203.447H116.447C116.346 203.643 116.212 203.816 116.043 203.966C115.874 204.113 115.671 204.228 115.434 204.313C115.198 204.394 114.924 204.435 114.614 204.435ZM115.112 203.235C115.368 203.235 115.594 203.184 115.79 203.084C115.986 202.98 116.14 202.841 116.251 202.667C116.363 202.493 116.419 202.296 116.419 202.075V201.409C116.364 201.445 116.289 201.477 116.194 201.507C116.101 201.535 115.997 201.56 115.88 201.585C115.763 201.607 115.645 201.627 115.528 201.646C115.411 201.663 115.305 201.678 115.21 201.691C115.006 201.721 114.827 201.769 114.675 201.834C114.522 201.899 114.404 201.988 114.32 202.1C114.235 202.208 114.193 202.345 114.193 202.508C114.193 202.745 114.279 202.926 114.45 203.051C114.625 203.173 114.845 203.235 115.112 203.235ZM122.832 198.045V199.351H119.055V198.045H122.832ZM119.912 196.542H121.652V202.389C121.652 202.55 121.676 202.675 121.725 202.765C121.774 202.852 121.842 202.914 121.929 202.949C122.019 202.984 122.123 203.002 122.24 203.002C122.321 203.002 122.403 202.995 122.485 202.982C122.566 202.965 122.629 202.953 122.673 202.945L122.946 204.239C122.859 204.267 122.737 204.298 122.579 204.333C122.421 204.371 122.229 204.394 122.003 204.403C121.584 204.419 121.216 204.363 120.9 204.235C120.587 204.107 120.344 203.909 120.169 203.639C119.995 203.37 119.909 203.029 119.912 202.618V196.542ZM123.965 204.317V198.045H125.705V204.317H123.965ZM124.839 197.236C124.58 197.236 124.358 197.15 124.173 196.979C123.991 196.804 123.9 196.596 123.9 196.354C123.9 196.114 123.991 195.909 124.173 195.737C124.358 195.563 124.58 195.476 124.839 195.476C125.098 195.476 125.318 195.563 125.501 195.737C125.686 195.909 125.778 196.114 125.778 196.354C125.778 196.596 125.686 196.804 125.501 196.979C125.318 197.15 125.098 197.236 124.839 197.236ZM129.932 204.439C129.298 204.439 128.749 204.305 128.287 204.035C127.826 203.763 127.471 203.384 127.221 202.9C126.97 202.413 126.845 201.848 126.845 201.205C126.845 200.557 126.97 199.991 127.221 199.506C127.471 199.019 127.826 198.641 128.287 198.371C128.749 198.099 129.298 197.963 129.932 197.963C130.567 197.963 131.114 198.099 131.574 198.371C132.037 198.641 132.393 199.019 132.644 199.506C132.894 199.991 133.019 200.557 133.019 201.205C133.019 201.848 132.894 202.413 132.644 202.9C132.393 203.384 132.037 203.763 131.574 204.035C131.114 204.305 130.567 204.439 129.932 204.439ZM129.94 203.092C130.229 203.092 130.47 203.01 130.663 202.847C130.856 202.681 131.002 202.455 131.1 202.169C131.201 201.883 131.251 201.558 131.251 201.193C131.251 200.828 131.201 200.503 131.1 200.217C131.002 199.931 130.856 199.705 130.663 199.539C130.47 199.373 130.229 199.29 129.94 199.29C129.649 199.29 129.404 199.373 129.205 199.539C129.009 199.705 128.861 199.931 128.76 200.217C128.662 200.503 128.613 200.828 128.613 201.193C128.613 201.558 128.662 201.883 128.76 202.169C128.861 202.455 129.009 202.681 129.205 202.847C129.404 203.01 129.649 203.092 129.94 203.092ZM135.89 200.691V204.317H134.151V198.045H135.809V199.151H135.882C136.021 198.786 136.254 198.498 136.58 198.285C136.907 198.07 137.303 197.963 137.769 197.963C138.204 197.963 138.584 198.058 138.908 198.249C139.232 198.439 139.484 198.711 139.663 199.065C139.843 199.417 139.933 199.836 139.933 200.323V204.317H138.193V200.633C138.196 200.25 138.098 199.95 137.899 199.735C137.701 199.517 137.427 199.408 137.079 199.408C136.844 199.408 136.637 199.459 136.458 199.56C136.281 199.66 136.142 199.807 136.041 200.001C135.943 200.191 135.893 200.421 135.89 200.691ZM146.523 199.833L144.93 199.931C144.903 199.795 144.844 199.672 144.755 199.564C144.665 199.452 144.546 199.364 144.399 199.298C144.255 199.23 144.082 199.196 143.881 199.196C143.611 199.196 143.384 199.253 143.199 199.368C143.014 199.479 142.921 199.629 142.921 199.817C142.921 199.967 142.981 200.093 143.101 200.197C143.221 200.3 143.426 200.383 143.717 200.446L144.853 200.674C145.462 200.8 145.917 201.001 146.217 201.279C146.516 201.556 146.666 201.921 146.666 202.373C146.666 202.784 146.545 203.145 146.302 203.455C146.063 203.766 145.733 204.008 145.314 204.182C144.898 204.354 144.417 204.439 143.873 204.439C143.042 204.439 142.381 204.267 141.888 203.921C141.398 203.572 141.111 203.099 141.026 202.5L142.737 202.41C142.789 202.663 142.914 202.856 143.113 202.99C143.312 203.12 143.566 203.186 143.877 203.186C144.182 203.186 144.427 203.127 144.612 203.01C144.8 202.89 144.895 202.737 144.898 202.549C144.895 202.391 144.828 202.261 144.697 202.161C144.567 202.057 144.365 201.978 144.093 201.924L143.007 201.707C142.394 201.585 141.938 201.373 141.639 201.07C141.342 200.768 141.194 200.383 141.194 199.915C141.194 199.512 141.303 199.165 141.52 198.873C141.741 198.582 142.05 198.358 142.447 198.2C142.848 198.042 143.316 197.963 143.852 197.963C144.644 197.963 145.268 198.13 145.722 198.465C146.18 198.8 146.447 199.256 146.523 199.833ZM150.423 204.317V198.045H152.162V204.317H150.423ZM151.297 197.236C151.038 197.236 150.816 197.15 150.631 196.979C150.449 196.804 150.357 196.596 150.357 196.354C150.357 196.114 150.449 195.909 150.631 195.737C150.816 195.563 151.038 195.476 151.297 195.476C151.555 195.476 151.776 195.563 151.958 195.737C152.143 195.909 152.236 196.114 152.236 196.354C152.236 196.596 152.143 196.804 151.958 196.979C151.776 197.15 151.555 197.236 151.297 197.236ZM155.295 200.691V204.317H153.556V198.045H155.214V199.151H155.287C155.426 198.786 155.659 198.498 155.986 198.285C156.312 198.07 156.708 197.963 157.174 197.963C157.609 197.963 157.989 198.058 158.313 198.249C158.637 198.439 158.889 198.711 159.069 199.065C159.248 199.417 159.338 199.836 159.338 200.323V204.317H157.599V200.633C157.601 200.25 157.503 199.95 157.305 199.735C157.106 199.517 156.832 199.408 156.484 199.408C156.25 199.408 156.043 199.459 155.863 199.56C155.686 199.66 155.547 199.807 155.447 200.001C155.349 200.191 155.298 200.421 155.295 200.691ZM167.516 206.669V203.312H167.462C167.381 203.487 167.265 203.659 167.115 203.831C166.968 204 166.776 204.14 166.54 204.252C166.305 204.363 166.02 204.419 165.682 204.419C165.206 204.419 164.774 204.296 164.388 204.051C164.004 203.804 163.699 203.44 163.473 202.961C163.25 202.479 163.138 201.889 163.138 201.189C163.138 200.47 163.254 199.873 163.485 199.396C163.716 198.917 164.024 198.559 164.408 198.322C164.795 198.083 165.218 197.963 165.678 197.963C166.029 197.963 166.322 198.023 166.556 198.143C166.793 198.26 166.983 198.407 167.128 198.584C167.275 198.758 167.386 198.929 167.462 199.098H167.536V198.045H169.251V206.669H167.516ZM166.233 203.035C166.514 203.035 166.751 202.958 166.944 202.806C167.14 202.651 167.29 202.434 167.393 202.157C167.499 201.879 167.552 201.554 167.552 201.181C167.552 200.808 167.501 200.484 167.397 200.209C167.294 199.934 167.144 199.721 166.948 199.572C166.752 199.422 166.514 199.347 166.233 199.347C165.947 199.347 165.707 199.425 165.511 199.58C165.314 199.735 165.166 199.95 165.065 200.225C164.965 200.5 164.914 200.819 164.914 201.181C164.914 201.545 164.965 201.868 165.065 202.149C165.169 202.426 165.317 202.644 165.511 202.802C165.707 202.957 165.947 203.035 166.233 203.035ZM174.67 201.646V198.045H176.41V204.317H174.739V203.178H174.674C174.533 203.545 174.297 203.84 173.968 204.064C173.641 204.287 173.242 204.399 172.771 204.399C172.352 204.399 171.983 204.303 171.664 204.113C171.346 203.922 171.097 203.651 170.917 203.3C170.74 202.949 170.65 202.528 170.648 202.038V198.045H172.387V201.728C172.39 202.098 172.489 202.391 172.685 202.606C172.881 202.821 173.144 202.928 173.474 202.928C173.683 202.928 173.879 202.881 174.062 202.786C174.244 202.688 174.391 202.543 174.503 202.353C174.617 202.162 174.673 201.927 174.67 201.646ZM180.66 204.439C180.014 204.439 179.459 204.309 178.994 204.047C178.531 203.783 178.174 203.41 177.924 202.928C177.673 202.444 177.548 201.871 177.548 201.209C177.548 200.564 177.673 199.998 177.924 199.511C178.174 199.023 178.527 198.643 178.981 198.371C179.439 198.099 179.975 197.963 180.59 197.963C181.004 197.963 181.389 198.03 181.746 198.163C182.105 198.294 182.418 198.491 182.685 198.755C182.955 199.019 183.164 199.351 183.314 199.751C183.464 200.149 183.539 200.614 183.539 201.148V201.626H178.242V200.548H181.901C181.901 200.297 181.847 200.075 181.738 199.882C181.629 199.689 181.478 199.538 181.284 199.429C181.094 199.317 180.872 199.261 180.619 199.261C180.355 199.261 180.121 199.323 179.916 199.445C179.715 199.565 179.557 199.727 179.443 199.931C179.328 200.133 179.27 200.357 179.267 200.605V201.63C179.267 201.94 179.324 202.208 179.439 202.434C179.556 202.66 179.72 202.835 179.933 202.957C180.145 203.08 180.397 203.141 180.688 203.141C180.881 203.141 181.058 203.114 181.219 203.059C181.38 203.005 181.517 202.923 181.632 202.814C181.746 202.705 181.833 202.572 181.893 202.414L183.502 202.52C183.42 202.907 183.253 203.244 183 203.533C182.749 203.819 182.425 204.042 182.028 204.203C181.633 204.36 181.177 204.439 180.66 204.439ZM188.696 201.646V198.045H190.436V204.317H188.766V203.178H188.7C188.559 203.545 188.323 203.84 187.994 204.064C187.667 204.287 187.268 204.399 186.797 204.399C186.378 204.399 186.009 204.303 185.691 204.113C185.372 203.922 185.123 203.651 184.943 203.3C184.766 202.949 184.676 202.528 184.674 202.038V198.045H186.413V201.728C186.416 202.098 186.515 202.391 186.711 202.606C186.907 202.821 187.17 202.928 187.5 202.928C187.709 202.928 187.905 202.881 188.088 202.786C188.27 202.688 188.417 202.543 188.529 202.353C188.643 202.162 188.699 201.927 188.696 201.646ZM194.686 204.439C194.041 204.439 193.485 204.309 193.02 204.047C192.557 203.783 192.2 203.41 191.95 202.928C191.699 202.444 191.574 201.871 191.574 201.209C191.574 200.564 191.699 199.998 191.95 199.511C192.2 199.023 192.553 198.643 193.007 198.371C193.465 198.099 194.001 197.963 194.616 197.963C195.03 197.963 195.415 198.03 195.772 198.163C196.131 198.294 196.444 198.491 196.711 198.755C196.981 199.019 197.19 199.351 197.34 199.751C197.49 200.149 197.565 200.614 197.565 201.148V201.626H192.268V200.548H195.927C195.927 200.297 195.873 200.075 195.764 199.882C195.655 199.689 195.504 199.538 195.31 199.429C195.12 199.317 194.898 199.261 194.645 199.261C194.381 199.261 194.147 199.323 193.942 199.445C193.741 199.565 193.583 199.727 193.469 199.931C193.354 200.133 193.296 200.357 193.293 200.605V201.63C193.293 201.94 193.35 202.208 193.465 202.434C193.582 202.66 193.746 202.835 193.959 202.957C194.171 203.08 194.423 203.141 194.714 203.141C194.908 203.141 195.085 203.114 195.245 203.059C195.406 203.005 195.543 202.923 195.658 202.814C195.772 202.705 195.859 202.572 195.919 202.414L197.528 202.52C197.446 202.907 197.279 203.244 197.026 203.533C196.775 203.819 196.451 204.042 196.054 204.203C195.659 204.36 195.203 204.439 194.686 204.439Z" fill="white"/>
<path d="M222.033 193.908V186.305H225.032C225.609 186.305 226.1 186.415 226.506 186.636C226.912 186.853 227.222 187.157 227.434 187.545C227.65 187.931 227.757 188.377 227.757 188.882C227.757 189.387 227.648 189.832 227.431 190.218C227.213 190.604 226.897 190.905 226.484 191.12C226.073 191.336 225.576 191.443 224.992 191.443H223.08V190.155H224.732C225.041 190.155 225.296 190.102 225.496 189.995C225.699 189.886 225.85 189.737 225.949 189.546C226.051 189.353 226.102 189.132 226.102 188.882C226.102 188.629 226.051 188.409 225.949 188.221C225.85 188.03 225.699 187.883 225.496 187.779C225.294 187.673 225.036 187.619 224.724 187.619H223.64V193.908H222.033ZM228.801 193.908V186.305H231.801C232.375 186.305 232.865 186.408 233.271 186.613C233.679 186.816 233.99 187.105 234.203 187.478C234.418 187.85 234.526 188.286 234.526 188.789C234.526 189.294 234.417 189.728 234.199 190.092C233.981 190.453 233.666 190.73 233.253 190.923C232.842 191.117 232.344 191.213 231.76 191.213H229.752V189.921H231.5C231.807 189.921 232.062 189.879 232.265 189.795C232.468 189.711 232.619 189.585 232.718 189.416C232.819 189.248 232.87 189.039 232.87 188.789C232.87 188.536 232.819 188.324 232.718 188.15C232.619 187.977 232.467 187.846 232.261 187.757C232.058 187.665 231.802 187.619 231.493 187.619H230.409V193.908H228.801ZM232.907 190.448L234.797 193.908H233.022L231.174 190.448H232.907ZM242.648 190.107C242.648 190.936 242.491 191.641 242.177 192.223C241.865 192.804 241.44 193.249 240.9 193.556C240.363 193.86 239.759 194.012 239.088 194.012C238.413 194.012 237.806 193.859 237.269 193.552C236.732 193.245 236.308 192.801 235.996 192.219C235.684 191.637 235.528 190.933 235.528 190.107C235.528 189.278 235.684 188.572 235.996 187.991C236.308 187.409 236.732 186.966 237.269 186.662C237.806 186.355 238.413 186.201 239.088 186.201C239.759 186.201 240.363 186.355 240.9 186.662C241.44 186.966 241.865 187.409 242.177 187.991C242.491 188.572 242.648 189.278 242.648 190.107ZM241.019 190.107C241.019 189.57 240.938 189.117 240.777 188.748C240.619 188.379 240.395 188.1 240.106 187.909C239.816 187.718 239.477 187.623 239.088 187.623C238.7 187.623 238.361 187.718 238.071 187.909C237.782 188.1 237.556 188.379 237.396 188.748C237.237 189.117 237.158 189.57 237.158 190.107C237.158 190.644 237.237 191.097 237.396 191.465C237.556 191.834 237.782 192.114 238.071 192.304C238.361 192.495 238.7 192.59 239.088 192.59C239.477 192.59 239.816 192.495 240.106 192.304C240.395 192.114 240.619 191.834 240.777 191.465C240.938 191.097 241.019 190.644 241.019 190.107ZM250.547 188.967H248.921C248.892 188.757 248.831 188.57 248.74 188.406C248.648 188.241 248.53 188.1 248.387 187.983C248.243 187.867 248.078 187.778 247.889 187.716C247.704 187.654 247.502 187.623 247.284 187.623C246.891 187.623 246.548 187.721 246.256 187.916C245.964 188.11 245.737 188.392 245.577 188.763C245.416 189.132 245.335 189.58 245.335 190.107C245.335 190.649 245.416 191.104 245.577 191.473C245.74 191.842 245.968 192.12 246.26 192.308C246.552 192.496 246.89 192.59 247.273 192.59C247.488 192.59 247.688 192.562 247.871 192.505C248.056 192.448 248.221 192.365 248.365 192.256C248.508 192.145 248.627 192.01 248.721 191.852C248.817 191.693 248.884 191.512 248.921 191.31L250.547 191.317C250.505 191.666 250.4 192.003 250.232 192.327C250.066 192.648 249.842 192.937 249.56 193.192C249.28 193.444 248.946 193.645 248.558 193.793C248.172 193.939 247.735 194.012 247.247 194.012C246.569 194.012 245.963 193.859 245.428 193.552C244.896 193.245 244.475 192.801 244.166 192.219C243.859 191.637 243.706 190.933 243.706 190.107C243.706 189.278 243.862 188.572 244.173 187.991C244.485 187.409 244.908 186.966 245.443 186.662C245.978 186.355 246.579 186.201 247.247 186.201C247.688 186.201 248.096 186.263 248.472 186.387C248.851 186.511 249.186 186.691 249.478 186.929C249.77 187.164 250.008 187.452 250.191 187.794C250.377 188.135 250.495 188.527 250.547 188.967ZM251.7 193.908V186.305H256.823V187.631H253.308V189.442H256.56V190.768H253.308V192.583H256.838V193.908H251.7ZM262.226 188.492C262.196 188.192 262.068 187.96 261.843 187.794C261.618 187.628 261.312 187.545 260.926 187.545C260.664 187.545 260.442 187.582 260.262 187.657C260.081 187.728 259.942 187.829 259.846 187.957C259.752 188.086 259.705 188.232 259.705 188.395C259.7 188.531 259.728 188.65 259.79 188.752C259.855 188.853 259.942 188.941 260.054 189.015C260.165 189.087 260.294 189.15 260.44 189.205C260.586 189.257 260.742 189.301 260.908 189.338L261.591 189.502C261.922 189.576 262.227 189.675 262.504 189.799C262.781 189.922 263.021 190.075 263.224 190.255C263.427 190.436 263.584 190.649 263.696 190.894C263.81 191.139 263.868 191.42 263.87 191.736C263.868 192.202 263.749 192.605 263.514 192.947C263.281 193.286 262.945 193.549 262.504 193.737C262.066 193.923 261.538 194.016 260.919 194.016C260.305 194.016 259.77 193.922 259.315 193.734C258.862 193.546 258.508 193.267 258.253 192.898C258.001 192.527 257.869 192.068 257.856 191.521H259.412C259.429 191.776 259.502 191.989 259.631 192.16C259.762 192.328 259.936 192.455 260.154 192.542C260.374 192.626 260.623 192.668 260.9 192.668C261.173 192.668 261.409 192.629 261.609 192.549C261.812 192.47 261.969 192.36 262.081 192.219C262.192 192.078 262.248 191.916 262.248 191.733C262.248 191.562 262.197 191.418 262.096 191.302C261.997 191.186 261.851 191.087 261.658 191.005C261.467 190.923 261.233 190.849 260.956 190.782L260.128 190.575C259.487 190.419 258.981 190.175 258.61 189.843C258.239 189.512 258.054 189.065 258.057 188.503C258.054 188.043 258.177 187.641 258.424 187.297C258.674 186.952 259.017 186.684 259.452 186.491C259.888 186.298 260.383 186.201 260.937 186.201C261.502 186.201 261.994 186.298 262.415 186.491C262.838 186.684 263.167 186.952 263.402 187.297C263.638 187.641 263.759 188.039 263.766 188.492H262.226ZM269.076 188.492C269.046 188.192 268.919 187.96 268.693 187.794C268.468 187.628 268.163 187.545 267.776 187.545C267.514 187.545 267.293 187.582 267.112 187.657C266.931 187.728 266.793 187.829 266.696 187.957C266.602 188.086 266.555 188.232 266.555 188.395C266.55 188.531 266.579 188.65 266.641 188.752C266.705 188.853 266.793 188.941 266.904 189.015C267.015 189.087 267.144 189.15 267.29 189.205C267.436 189.257 267.592 189.301 267.758 189.338L268.441 189.502C268.773 189.576 269.077 189.675 269.354 189.799C269.631 189.922 269.871 190.075 270.074 190.255C270.277 190.436 270.435 190.649 270.546 190.894C270.66 191.139 270.718 191.42 270.72 191.736C270.718 192.202 270.599 192.605 270.364 192.947C270.131 193.286 269.795 193.549 269.354 193.737C268.916 193.923 268.388 194.016 267.769 194.016C267.155 194.016 266.621 193.922 266.165 193.734C265.712 193.546 265.359 193.267 265.104 192.898C264.851 192.527 264.719 192.068 264.706 191.521H266.262C266.279 191.776 266.352 191.989 266.481 192.16C266.612 192.328 266.787 192.455 267.004 192.542C267.225 192.626 267.473 192.668 267.751 192.668C268.023 192.668 268.259 192.629 268.46 192.549C268.663 192.47 268.82 192.36 268.931 192.219C269.042 192.078 269.098 191.916 269.098 191.733C269.098 191.562 269.047 191.418 268.946 191.302C268.847 191.186 268.701 191.087 268.508 191.005C268.317 190.923 268.083 190.849 267.806 190.782L266.978 190.575C266.337 190.419 265.831 190.175 265.46 189.843C265.089 189.512 264.904 189.065 264.907 188.503C264.904 188.043 265.027 187.641 265.274 187.297C265.524 186.952 265.867 186.684 266.303 186.491C266.738 186.298 267.233 186.201 267.788 186.201C268.352 186.201 268.844 186.298 269.265 186.491C269.688 186.684 270.018 186.952 270.253 187.297C270.488 187.641 270.609 188.039 270.616 188.492H269.076ZM273.409 186.305V193.908H271.802V186.305H273.409ZM281.091 186.305V193.908H279.702L276.395 189.123H276.339V193.908H274.732V186.305H276.142L279.424 191.087H279.491V186.305H281.091ZM287.46 188.763C287.408 188.582 287.335 188.423 287.241 188.284C287.147 188.143 287.032 188.024 286.896 187.928C286.762 187.829 286.609 187.753 286.436 187.701C286.265 187.649 286.076 187.623 285.868 187.623C285.479 187.623 285.138 187.72 284.843 187.913C284.551 188.106 284.323 188.387 284.16 188.755C283.997 189.122 283.915 189.57 283.915 190.099C283.915 190.629 283.995 191.079 284.156 191.451C284.317 191.822 284.545 192.105 284.839 192.301C285.134 192.494 285.482 192.59 285.883 192.59C286.246 192.59 286.557 192.526 286.814 192.397C287.074 192.266 287.272 192.082 287.408 191.844C287.547 191.607 287.616 191.326 287.616 191.001L287.943 191.05H285.983V189.839H289.164V190.797C289.164 191.465 289.023 192.04 288.741 192.52C288.459 192.997 288.07 193.366 287.575 193.626C287.08 193.883 286.514 194.012 285.875 194.012C285.162 194.012 284.536 193.855 283.997 193.541C283.457 193.224 283.036 192.775 282.734 192.193C282.435 191.609 282.285 190.916 282.285 190.114C282.285 189.498 282.374 188.948 282.553 188.466C282.733 187.981 282.986 187.57 283.31 187.233C283.634 186.897 284.012 186.641 284.442 186.465C284.873 186.289 285.339 186.201 285.842 186.201C286.272 186.201 286.673 186.264 287.045 186.391C287.416 186.514 287.745 186.69 288.032 186.918C288.322 187.146 288.558 187.417 288.741 187.731C288.924 188.043 289.042 188.387 289.094 188.763H287.46ZM293.686 191.469C293.441 191.469 293.231 191.383 293.055 191.209C292.882 191.034 292.795 190.823 292.795 190.578C292.795 190.336 292.882 190.128 293.055 189.955C293.231 189.781 293.441 189.695 293.686 189.695C293.924 189.695 294.131 189.781 294.31 189.955C294.488 190.128 294.577 190.336 294.577 190.578C294.577 190.742 294.535 190.891 294.451 191.027C294.369 191.161 294.261 191.269 294.128 191.35C293.994 191.43 293.847 191.469 293.686 191.469ZM301.588 186.305V193.908H299.98V187.831H299.936L298.195 188.923V187.497L300.077 186.305H301.588ZM303.695 193.908L306.847 187.671V187.619H303.176V186.305H308.51V187.638L305.355 193.908H303.695ZM312.295 194.012C311.723 194.012 311.215 193.919 310.769 193.734C310.326 193.546 309.979 193.289 309.726 192.965C309.474 192.641 309.347 192.274 309.347 191.863C309.347 191.546 309.419 191.255 309.563 190.99C309.709 190.723 309.907 190.502 310.157 190.326C310.407 190.148 310.686 190.034 310.996 189.984V189.932C310.59 189.851 310.261 189.654 310.008 189.342C309.756 189.028 309.63 188.663 309.63 188.247C309.63 187.853 309.745 187.503 309.975 187.196C310.205 186.887 310.521 186.644 310.921 186.469C311.325 186.29 311.783 186.201 312.295 186.201C312.807 186.201 313.264 186.29 313.665 186.469C314.068 186.647 314.385 186.891 314.615 187.2C314.845 187.507 314.962 187.856 314.964 188.247C314.962 188.665 314.833 189.03 314.578 189.342C314.323 189.654 313.997 189.851 313.598 189.932V189.984C313.902 190.034 314.178 190.148 314.426 190.326C314.676 190.502 314.874 190.723 315.02 190.99C315.168 191.255 315.244 191.546 315.246 191.863C315.244 192.274 315.116 192.641 314.864 192.965C314.612 193.289 314.263 193.546 313.817 193.734C313.374 193.919 312.867 194.012 312.295 194.012ZM312.295 192.832C312.55 192.832 312.773 192.786 312.963 192.694C313.154 192.6 313.302 192.472 313.409 192.308C313.518 192.142 313.572 191.952 313.572 191.736C313.572 191.516 313.516 191.322 313.405 191.154C313.294 190.983 313.143 190.849 312.952 190.753C312.762 190.654 312.543 190.604 312.295 190.604C312.05 190.604 311.831 190.654 311.638 190.753C311.445 190.849 311.293 190.983 311.181 191.154C311.072 191.322 311.018 191.516 311.018 191.736C311.018 191.952 311.071 192.142 311.178 192.308C311.284 192.472 311.434 192.6 311.627 192.694C311.82 192.786 312.043 192.832 312.295 192.832ZM312.295 189.435C312.508 189.435 312.697 189.392 312.863 189.305C313.029 189.218 313.159 189.098 313.253 188.945C313.347 188.791 313.394 188.614 313.394 188.414C313.394 188.216 313.347 188.043 313.253 187.894C313.159 187.743 313.03 187.626 312.867 187.542C312.703 187.455 312.513 187.412 312.295 187.412C312.08 187.412 311.889 187.455 311.723 187.542C311.558 187.626 311.428 187.743 311.334 187.894C311.242 188.043 311.196 188.216 311.196 188.414C311.196 188.614 311.243 188.791 311.337 188.945C311.431 189.098 311.561 189.218 311.727 189.305C311.893 189.392 312.082 189.435 312.295 189.435ZM321.381 194.02C320.804 194.02 320.306 193.897 319.885 193.652C319.467 193.405 319.144 193.061 318.916 192.62C318.688 192.177 318.574 191.663 318.574 191.079C318.574 190.49 318.688 189.976 318.916 189.535C319.144 189.092 319.467 188.748 319.885 188.503C320.306 188.256 320.804 188.132 321.381 188.132C321.958 188.132 322.455 188.256 322.873 188.503C323.294 188.748 323.618 189.092 323.846 189.535C324.074 189.976 324.188 190.49 324.188 191.079C324.188 191.663 324.074 192.177 323.846 192.62C323.618 193.061 323.294 193.405 322.873 193.652C322.455 193.897 321.958 194.02 321.381 194.02ZM321.388 192.794C321.651 192.794 321.87 192.72 322.046 192.572C322.221 192.421 322.354 192.215 322.443 191.956C322.534 191.696 322.58 191.4 322.58 191.068C322.58 190.737 322.534 190.441 322.443 190.181C322.354 189.921 322.221 189.716 322.046 189.565C321.87 189.414 321.651 189.338 321.388 189.338C321.124 189.338 320.901 189.414 320.72 189.565C320.542 189.716 320.407 189.921 320.316 190.181C320.226 190.441 320.182 190.737 320.182 191.068C320.182 191.4 320.226 191.696 320.316 191.956C320.407 192.215 320.542 192.421 320.72 192.572C320.901 192.72 321.124 192.794 321.388 192.794ZM328.282 188.206V189.394H324.763V188.206H328.282ZM325.569 193.908V187.794C325.569 187.381 325.649 187.038 325.81 186.766C325.973 186.493 326.196 186.289 326.478 186.153C326.76 186.017 327.081 185.949 327.44 185.949C327.682 185.949 327.904 185.967 328.104 186.005C328.307 186.042 328.458 186.075 328.557 186.105L328.275 187.293C328.213 187.273 328.136 187.254 328.045 187.237C327.956 187.22 327.864 187.211 327.77 187.211C327.537 187.211 327.375 187.266 327.284 187.374C327.192 187.481 327.146 187.631 327.146 187.824V193.908H325.569ZM331.653 193.908V192.75L334.359 190.244C334.59 190.021 334.783 189.821 334.939 189.643C335.097 189.465 335.217 189.29 335.299 189.119C335.38 188.946 335.421 188.759 335.421 188.559C335.421 188.336 335.37 188.144 335.269 187.983C335.167 187.82 335.029 187.695 334.853 187.608C334.677 187.519 334.478 187.475 334.255 187.475C334.023 187.475 333.82 187.522 333.647 187.616C333.473 187.71 333.34 187.845 333.246 188.02C333.152 188.196 333.105 188.405 333.105 188.648H331.579C331.579 188.15 331.691 187.718 331.917 187.352C332.142 186.986 332.457 186.703 332.863 186.502C333.269 186.302 333.737 186.201 334.267 186.201C334.811 186.201 335.285 186.298 335.688 186.491C336.094 186.681 336.41 186.946 336.635 187.285C336.86 187.624 336.973 188.013 336.973 188.451C336.973 188.738 336.916 189.022 336.802 189.301C336.691 189.581 336.492 189.891 336.204 190.233C335.917 190.572 335.513 190.979 334.99 191.454L333.881 192.542V192.594H337.073V193.908H331.653ZM337.959 192.572V191.306L341.134 186.305H342.225V188.058H341.579L339.578 191.224V191.284H344.089V192.572H337.959ZM341.609 193.908V192.186L341.638 191.625V186.305H343.146V193.908H341.609ZM345.46 193.908L348.612 187.671V187.619H344.941V186.305H350.275V187.638L347.12 193.908H345.46ZM355.912 194.001C355.479 194.001 355.087 193.89 354.736 193.667C354.387 193.442 354.109 193.111 353.904 192.676C353.701 192.238 353.6 191.701 353.6 191.065C353.6 190.411 353.705 189.868 353.915 189.435C354.126 188.999 354.405 188.674 354.754 188.458C355.106 188.241 355.49 188.132 355.909 188.132C356.228 188.132 356.494 188.186 356.707 188.295C356.922 188.402 357.095 188.535 357.227 188.696C357.36 188.854 357.462 189.01 357.531 189.164H357.579V186.305H359.157V193.908H357.598V192.995H357.531C357.457 193.153 357.352 193.311 357.215 193.466C357.082 193.62 356.907 193.747 356.692 193.849C356.479 193.95 356.219 194.001 355.912 194.001ZM356.414 192.743C356.668 192.743 356.884 192.673 357.06 192.535C357.238 192.394 357.374 192.197 357.468 191.944C357.564 191.692 357.613 191.396 357.613 191.057C357.613 190.718 357.566 190.424 357.472 190.174C357.378 189.924 357.241 189.731 357.063 189.594C356.885 189.458 356.668 189.39 356.414 189.39C356.154 189.39 355.935 189.461 355.756 189.602C355.578 189.743 355.443 189.938 355.352 190.188C355.26 190.438 355.214 190.728 355.214 191.057C355.214 191.389 355.26 191.682 355.352 191.937C355.446 192.189 355.581 192.387 355.756 192.531C355.935 192.672 356.154 192.743 356.414 192.743ZM363.034 194.02C362.457 194.02 361.958 193.897 361.538 193.652C361.119 193.405 360.796 193.061 360.569 192.62C360.341 192.177 360.227 191.663 360.227 191.079C360.227 190.49 360.341 189.976 360.569 189.535C360.796 189.092 361.119 188.748 361.538 188.503C361.958 188.256 362.457 188.132 363.034 188.132C363.61 188.132 364.108 188.256 364.526 188.503C364.947 188.748 365.271 189.092 365.499 189.535C365.726 189.976 365.84 190.49 365.84 191.079C365.84 191.663 365.726 192.177 365.499 192.62C365.271 193.061 364.947 193.405 364.526 193.652C364.108 193.897 363.61 194.02 363.034 194.02ZM363.041 192.794C363.303 192.794 363.522 192.72 363.698 192.572C363.874 192.421 364.006 192.215 364.095 191.956C364.187 191.696 364.233 191.4 364.233 191.068C364.233 190.737 364.187 190.441 364.095 190.181C364.006 189.921 363.874 189.716 363.698 189.565C363.522 189.414 363.303 189.338 363.041 189.338C362.776 189.338 362.553 189.414 362.373 189.565C362.195 189.716 362.06 189.921 361.968 190.181C361.879 190.441 361.835 190.737 361.835 191.068C361.835 191.4 361.879 191.696 361.968 191.956C362.06 192.215 362.195 192.421 362.373 192.572C362.553 192.72 362.776 192.794 363.041 192.794ZM368.45 190.612V193.908H366.868V188.206H368.376V189.212H368.443C368.569 188.88 368.78 188.618 369.077 188.425C369.374 188.23 369.734 188.132 370.158 188.132C370.554 188.132 370.899 188.218 371.193 188.392C371.488 188.565 371.717 188.812 371.88 189.134C372.044 189.453 372.125 189.835 372.125 190.278V193.908H370.544V190.56C370.546 190.211 370.457 189.938 370.276 189.743C370.096 189.545 369.847 189.446 369.53 189.446C369.317 189.446 369.129 189.492 368.966 189.583C368.805 189.675 368.679 189.809 368.587 189.984C368.498 190.157 368.452 190.367 368.45 190.612ZM375.97 194.02C375.384 194.02 374.879 193.901 374.456 193.663C374.035 193.423 373.711 193.084 373.483 192.646C373.255 192.205 373.141 191.685 373.141 191.083C373.141 190.497 373.255 189.982 373.483 189.539C373.711 189.096 374.031 188.751 374.444 188.503C374.86 188.256 375.348 188.132 375.907 188.132C376.283 188.132 376.634 188.192 376.958 188.314C377.284 188.432 377.569 188.612 377.812 188.852C378.057 189.092 378.247 189.394 378.383 189.758C378.519 190.119 378.587 190.542 378.587 191.027V191.462H373.773V190.482H377.099C377.099 190.254 377.049 190.052 376.95 189.877C376.851 189.701 376.714 189.564 376.538 189.465C376.365 189.363 376.163 189.312 375.933 189.312C375.693 189.312 375.48 189.368 375.295 189.479C375.111 189.588 374.968 189.736 374.864 189.921C374.76 190.104 374.707 190.308 374.704 190.534V191.465C374.704 191.748 374.756 191.991 374.86 192.197C374.967 192.402 375.116 192.561 375.309 192.672C375.502 192.783 375.731 192.839 375.996 192.839C376.172 192.839 376.333 192.814 376.479 192.765C376.625 192.715 376.75 192.641 376.854 192.542C376.958 192.443 377.037 192.322 377.091 192.178L378.554 192.275C378.48 192.626 378.328 192.933 378.097 193.195C377.87 193.455 377.575 193.658 377.214 193.804C376.855 193.948 376.44 194.02 375.97 194.02Z" fill="white"/>
<path opacity="0.25" d="M514.084 198.544H225.554C223.244 198.544 221.372 200.416 221.372 202.726C221.372 205.035 223.244 206.907 225.554 206.907H514.084C516.393 206.907 518.266 205.035 518.266 202.726C518.266 200.416 516.393 198.544 514.084 198.544Z" fill="white"/>
<path d="M430.452 198.544H225.554C223.244 198.544 221.372 200.416 221.372 202.726C221.372 205.035 223.244 206.907 225.554 206.907H430.452C432.762 206.907 434.634 205.035 434.634 202.726C434.634 200.416 432.762 198.544 430.452 198.544Z" fill="white"/>
<path opacity="0.3" d="M654.167 165.091H578.898C568.506 165.091 560.081 173.516 560.081 183.908C560.081 194.301 568.506 202.726 578.898 202.726H654.167C664.56 202.726 672.984 194.301 672.984 183.908C672.984 173.516 664.56 165.091 654.167 165.091Z" fill="white"/>
<path d="M56.7937 262.95V256.108H59.4933C60.0101 256.108 60.4511 256.2 60.8164 256.385C61.1839 256.568 61.4635 256.827 61.655 257.163C61.8488 257.497 61.9457 257.891 61.9457 258.343C61.9457 258.797 61.8477 259.188 61.6517 259.516C61.4557 259.841 61.1717 260.09 60.7997 260.264C60.4299 260.438 59.9822 260.525 59.4566 260.525H57.649V259.362H59.2227C59.4989 259.362 59.7283 259.324 59.911 259.248C60.0936 259.173 60.2295 259.059 60.3186 258.907C60.4099 258.756 60.4556 258.568 60.4556 258.343C60.4556 258.116 60.4099 257.924 60.3186 257.768C60.2295 257.612 60.0925 257.494 59.9076 257.414C59.725 257.332 59.4944 257.29 59.216 257.29H58.2404V262.95H56.7937ZM60.489 259.836L62.1896 262.95H60.5925L58.9287 259.836H60.489ZM62.9681 262.95V256.108H67.5788V257.3H64.4148V258.931H67.3416V260.124H64.4148V261.757H67.5922V262.95H62.9681ZM72.441 258.076C72.4143 257.806 72.2995 257.597 72.0968 257.447C71.8942 257.298 71.6191 257.224 71.2716 257.224C71.0355 257.224 70.8361 257.257 70.6735 257.324C70.5109 257.388 70.3862 257.479 70.2993 257.594C70.2147 257.71 70.1724 257.842 70.1724 257.989C70.1679 258.111 70.1935 258.218 70.2492 258.309C70.3071 258.401 70.3862 258.48 70.4864 258.547C70.5867 258.611 70.7025 258.668 70.8339 258.717C70.9653 258.764 71.1057 258.804 71.2549 258.837L71.8697 258.984C72.1681 259.051 72.4421 259.14 72.6916 259.252C72.941 259.363 73.1571 259.5 73.3397 259.663C73.5224 259.825 73.6638 260.017 73.7641 260.237C73.8665 260.458 73.9189 260.711 73.9211 260.996C73.9189 261.414 73.812 261.777 73.6004 262.085C73.391 262.39 73.088 262.627 72.6916 262.797C72.2973 262.964 71.8218 263.047 71.2649 263.047C70.7125 263.047 70.2314 262.962 69.8215 262.793C69.4139 262.624 69.0954 262.373 68.866 262.041C68.6388 261.707 68.5196 261.294 68.5085 260.802H69.9084C69.924 261.031 69.9897 261.223 70.1055 261.377C70.2236 261.528 70.3806 261.643 70.5766 261.721C70.7749 261.796 70.9987 261.834 71.2482 261.834C71.4932 261.834 71.7059 261.799 71.8864 261.727C72.069 261.656 72.2104 261.557 72.3107 261.43C72.4109 261.303 72.461 261.157 72.461 260.992C72.461 260.839 72.4154 260.709 72.324 260.605C72.2349 260.5 72.1035 260.411 71.9298 260.337C71.7583 260.264 71.5478 260.197 71.2983 260.137L70.5533 259.95C69.9764 259.81 69.5208 259.59 69.1867 259.292C68.8526 258.993 68.6867 258.591 68.6889 258.086C68.6867 257.671 68.7969 257.309 69.0197 257C69.2446 256.69 69.5531 256.448 69.9452 256.275C70.3372 256.101 70.7827 256.014 71.2816 256.014C71.7895 256.014 72.2327 256.101 72.6114 256.275C72.9923 256.448 73.2885 256.69 73.5001 257C73.7117 257.309 73.8209 257.668 73.8275 258.076H72.441ZM76.3409 256.108V262.95H74.8942V256.108H76.3409ZM79.9568 262.95H77.5312V256.108H79.9769C80.6651 256.108 81.2576 256.245 81.7544 256.519C82.2511 256.79 82.6331 257.181 82.9004 257.691C83.1699 258.201 83.3046 258.812 83.3046 259.522C83.3046 260.235 83.1699 260.848 82.9004 261.36C82.6331 261.872 82.2488 262.265 81.7477 262.539C81.2487 262.813 80.6518 262.95 79.9568 262.95ZM78.9779 261.711H79.8967C80.3244 261.711 80.6841 261.635 80.9759 261.483C81.2699 261.33 81.4904 261.093 81.6374 260.772C81.7866 260.449 81.8613 260.032 81.8613 259.522C81.8613 259.017 81.7866 258.603 81.6374 258.283C81.4904 257.962 81.271 257.726 80.9792 257.574C80.6874 257.423 80.3277 257.347 79.9 257.347H78.9779V261.711ZM84.3763 262.95V256.108H88.987V257.3H85.823V258.931H88.7498V260.124H85.823V261.757H89.0004V262.95H84.3763ZM95.8606 256.108V262.95H94.611L91.634 258.643H91.5839V262.95H90.1372V256.108H91.4068L94.3604 260.411H94.4205V256.108H95.8606ZM96.7952 257.3V256.108H102.415V257.3H100.32V262.95H98.8901V257.3H96.7952Z" fill="#9CA3AF"/>
<path d="M455.281 256.108L456.935 261.306H456.999L458.656 256.108H460.26L457.901 262.95H456.037L453.674 256.108H455.281ZM461.083 262.95V256.108H465.694V257.3H462.53V258.931H465.457V260.124H462.53V261.757H465.707V262.95H461.083ZM466.584 257.3V256.108H472.203V257.3H470.109V262.95H468.679V257.3H466.584ZM472.868 257.3V256.108H478.488V257.3H476.393V262.95H474.963V257.3H472.868ZM480.86 256.108V262.95H479.414V256.108H480.86ZM487.774 256.108V262.95H486.524L483.547 258.643H483.497V262.95H482.051V256.108H483.32L486.274 260.411H486.334V256.108H487.774ZM493.506 258.319C493.46 258.157 493.394 258.013 493.309 257.888C493.225 257.761 493.121 257.655 492.999 257.568C492.878 257.479 492.74 257.411 492.584 257.364C492.431 257.317 492.26 257.294 492.073 257.294C491.723 257.294 491.416 257.381 491.151 257.554C490.888 257.728 490.683 257.981 490.536 258.313C490.389 258.642 490.316 259.046 490.316 259.522C490.316 259.999 490.388 260.404 490.533 260.738C490.678 261.072 490.882 261.328 491.148 261.503C491.413 261.677 491.726 261.764 492.086 261.764C492.414 261.764 492.693 261.706 492.925 261.59C493.159 261.472 493.337 261.306 493.46 261.093C493.584 260.879 493.647 260.626 493.647 260.334L493.941 260.378H492.177V259.288H495.04V260.15C495.04 260.752 494.913 261.268 494.659 261.701C494.405 262.131 494.055 262.462 493.61 262.696C493.164 262.928 492.654 263.044 492.08 263.044C491.438 263.044 490.875 262.902 490.389 262.619C489.904 262.334 489.525 261.93 489.253 261.407C488.984 260.881 488.849 260.257 488.849 259.536C488.849 258.981 488.929 258.486 489.089 258.052C489.252 257.616 489.479 257.246 489.771 256.943C490.063 256.64 490.402 256.409 490.79 256.251C491.178 256.093 491.597 256.014 492.05 256.014C492.437 256.014 492.798 256.071 493.132 256.184C493.466 256.296 493.763 256.454 494.021 256.659C494.282 256.864 494.494 257.108 494.659 257.391C494.824 257.671 494.93 257.981 494.976 258.319H493.506Z" fill="#9CA3AF"/>
<path d="M552.078 258.503H550.614C550.588 258.314 550.533 258.146 550.451 257.999C550.368 257.849 550.262 257.722 550.133 257.618C550.004 257.513 549.855 257.433 549.685 257.377C549.518 257.322 549.337 257.294 549.141 257.294C548.787 257.294 548.478 257.382 548.215 257.558C547.953 257.731 547.749 257.985 547.604 258.319C547.459 258.651 547.387 259.054 547.387 259.529C547.387 260.017 547.459 260.427 547.604 260.758C547.751 261.09 547.956 261.341 548.219 261.51C548.482 261.679 548.786 261.764 549.131 261.764C549.325 261.764 549.504 261.738 549.669 261.687C549.836 261.636 549.984 261.561 550.113 261.463C550.242 261.363 550.349 261.242 550.434 261.099C550.521 260.957 550.581 260.794 550.614 260.611L552.078 260.618C552.04 260.932 551.945 261.235 551.794 261.527C551.645 261.816 551.443 262.076 551.189 262.305C550.937 262.533 550.637 262.713 550.287 262.847C549.939 262.978 549.546 263.044 549.107 263.044C548.497 263.044 547.951 262.906 547.47 262.629C546.991 262.353 546.613 261.953 546.334 261.43C546.058 260.907 545.92 260.273 545.92 259.529C545.92 258.783 546.06 258.148 546.341 257.624C546.622 257.101 547.003 256.702 547.484 256.428C547.965 256.152 548.506 256.014 549.107 256.014C549.504 256.014 549.871 256.07 550.21 256.181C550.551 256.292 550.853 256.455 551.115 256.669C551.378 256.88 551.592 257.14 551.757 257.447C551.924 257.755 552.031 258.107 552.078 258.503ZM559.403 259.529C559.403 260.275 559.262 260.91 558.979 261.433C558.698 261.957 558.315 262.357 557.829 262.633C557.346 262.907 556.803 263.044 556.199 263.044C555.591 263.044 555.045 262.906 554.562 262.629C554.079 262.353 553.697 261.953 553.416 261.43C553.135 260.907 552.995 260.273 552.995 259.529C552.995 258.783 553.135 258.148 553.416 257.624C553.697 257.101 554.079 256.702 554.562 256.428C555.045 256.152 555.591 256.014 556.199 256.014C556.803 256.014 557.346 256.152 557.829 256.428C558.315 256.702 558.698 257.101 558.979 257.624C559.262 258.148 559.403 258.783 559.403 259.529ZM557.936 259.529C557.936 259.046 557.864 258.638 557.719 258.306C557.577 257.974 557.375 257.722 557.114 257.551C556.854 257.379 556.549 257.294 556.199 257.294C555.849 257.294 555.544 257.379 555.284 257.551C555.023 257.722 554.82 257.974 554.675 258.306C554.533 258.638 554.462 259.046 554.462 259.529C554.462 260.012 554.533 260.42 554.675 260.752C554.82 261.084 555.023 261.335 555.284 261.507C555.544 261.678 555.849 261.764 556.199 261.764C556.549 261.764 556.854 261.678 557.114 261.507C557.375 261.335 557.577 261.084 557.719 260.752C557.864 260.42 557.936 260.012 557.936 259.529ZM566.198 256.108V262.95H564.949L561.972 258.643H561.922V262.95H560.475V256.108H561.744L564.698 260.411H564.758V256.108H566.198ZM567.133 257.3V256.108H572.753V257.3H570.658V262.95H569.228V257.3H567.133ZM573.678 262.95V256.108H576.378C576.894 256.108 577.335 256.2 577.701 256.385C578.068 256.568 578.348 256.827 578.539 257.163C578.733 257.497 578.83 257.891 578.83 258.343C578.83 258.797 578.732 259.188 578.536 259.516C578.34 259.841 578.056 260.09 577.684 260.264C577.314 260.438 576.867 260.525 576.341 260.525H574.533V259.362H576.107C576.383 259.362 576.613 259.324 576.795 259.248C576.978 259.173 577.114 259.059 577.203 258.907C577.294 258.756 577.34 258.568 577.34 258.343C577.34 258.116 577.294 257.924 577.203 257.768C577.114 257.612 576.977 257.494 576.792 257.414C576.609 257.332 576.379 257.29 576.1 257.29H575.125V262.95H573.678ZM577.373 259.836L579.074 262.95H577.477L575.813 259.836H577.373ZM581.032 262.95H579.482L581.844 256.108H583.708L586.067 262.95H584.517L582.803 257.671H582.749L581.032 262.95ZM580.935 260.261H584.597V261.39H580.935V260.261ZM592.606 258.503H591.143C591.116 258.314 591.062 258.146 590.979 257.999C590.897 257.849 590.791 257.722 590.662 257.618C590.533 257.513 590.383 257.433 590.214 257.377C590.047 257.322 589.866 257.294 589.669 257.294C589.315 257.294 589.007 257.382 588.744 257.558C588.481 257.731 588.277 257.985 588.133 258.319C587.988 258.651 587.915 259.054 587.915 259.529C587.915 260.017 587.988 260.427 588.133 260.758C588.28 261.09 588.485 261.341 588.747 261.51C589.01 261.679 589.314 261.764 589.659 261.764C589.853 261.764 590.033 261.738 590.197 261.687C590.364 261.636 590.513 261.561 590.642 261.463C590.771 261.363 590.878 261.242 590.963 261.099C591.049 260.957 591.11 260.794 591.143 260.611L592.606 260.618C592.568 260.932 592.474 261.235 592.322 261.527C592.173 261.816 591.972 262.076 591.718 262.305C591.466 262.533 591.165 262.713 590.815 262.847C590.468 262.978 590.075 263.044 589.636 263.044C589.026 263.044 588.48 262.906 587.999 262.629C587.52 262.353 587.141 261.953 586.863 261.43C586.587 260.907 586.449 260.273 586.449 259.529C586.449 258.783 586.589 258.148 586.87 257.624C587.15 257.101 587.531 256.702 588.012 256.428C588.493 256.152 589.035 256.014 589.636 256.014C590.033 256.014 590.4 256.07 590.739 256.181C591.079 256.292 591.381 256.455 591.644 256.669C591.907 256.88 592.121 257.14 592.286 257.447C592.453 257.755 592.56 258.107 592.606 258.503ZM593.383 257.3V256.108H599.003V257.3H596.908V262.95H595.478V257.3H593.383Z" fill="#9CA3AF"/>
<path d="M642.552 262.95H640.126V256.108H642.572C643.26 256.108 643.853 256.245 644.349 256.519C644.846 256.79 645.228 257.181 645.495 257.691C645.765 258.201 645.9 258.812 645.9 259.522C645.9 260.235 645.765 260.848 645.495 261.36C645.228 261.872 644.844 262.265 644.343 262.539C643.844 262.813 643.247 262.95 642.552 262.95ZM641.573 261.711H642.492C642.919 261.711 643.279 261.635 643.571 261.483C643.865 261.33 644.085 261.093 644.233 260.772C644.382 260.449 644.456 260.032 644.456 259.522C644.456 259.017 644.382 258.603 644.233 258.283C644.085 257.962 643.866 257.726 643.574 257.574C643.283 257.423 642.923 257.347 642.495 257.347H641.573V261.711ZM646.971 262.95V256.108H651.582V257.3H648.418V258.931H651.345V260.124H648.418V261.757H651.595V262.95H646.971ZM652.732 262.95V256.108H655.432C655.951 256.108 656.393 256.207 656.758 256.405C657.124 256.601 657.402 256.874 657.594 257.224C657.787 257.571 657.884 257.972 657.884 258.426C657.884 258.881 657.786 259.282 657.59 259.629C657.394 259.977 657.11 260.247 656.738 260.441C656.369 260.635 655.921 260.732 655.395 260.732H653.675V259.572H655.161C655.44 259.572 655.669 259.524 655.85 259.429C656.032 259.331 656.168 259.196 656.257 259.024C656.349 258.851 656.394 258.651 656.394 258.426C656.394 258.199 656.349 258.001 656.257 257.832C656.168 257.66 656.032 257.528 655.85 257.434C655.667 257.338 655.435 257.29 655.155 257.29H654.179V262.95H652.732ZM665.112 259.529C665.112 260.275 664.971 260.91 664.688 261.433C664.407 261.957 664.024 262.357 663.538 262.633C663.055 262.907 662.511 263.044 661.908 263.044C661.3 263.044 660.754 262.906 660.271 262.629C659.787 262.353 659.405 261.953 659.125 261.43C658.844 260.907 658.704 260.273 658.704 259.529C658.704 258.783 658.844 258.148 659.125 257.624C659.405 257.101 659.787 256.702 660.271 256.428C660.754 256.152 661.3 256.014 661.908 256.014C662.511 256.014 663.055 256.152 663.538 256.428C664.024 256.702 664.407 257.101 664.688 257.624C664.971 258.148 665.112 258.783 665.112 259.529ZM663.645 259.529C663.645 259.046 663.573 258.638 663.428 258.306C663.286 257.974 663.084 257.722 662.823 257.551C662.563 257.379 662.258 257.294 661.908 257.294C661.558 257.294 661.253 257.379 660.992 257.551C660.732 257.722 660.529 257.974 660.384 258.306C660.242 258.638 660.17 259.046 660.17 259.529C660.17 260.012 660.242 260.42 660.384 260.752C660.529 261.084 660.732 261.335 660.992 261.507C661.253 261.678 661.558 261.764 661.908 261.764C662.258 261.764 662.563 261.678 662.823 261.507C663.084 261.335 663.286 261.084 663.428 260.752C663.573 260.42 663.645 260.012 663.645 259.529ZM669.896 258.076C669.869 257.806 669.754 257.597 669.552 257.447C669.349 257.298 669.074 257.224 668.726 257.224C668.49 257.224 668.291 257.257 668.128 257.324C667.966 257.388 667.841 257.479 667.754 257.594C667.669 257.71 667.627 257.842 667.627 257.989C667.623 258.111 667.648 258.218 667.704 258.309C667.762 258.401 667.841 258.48 667.941 258.547C668.041 258.611 668.157 258.668 668.289 258.717C668.42 258.764 668.56 258.804 668.71 258.837L669.324 258.984C669.623 259.051 669.897 259.14 670.146 259.252C670.396 259.363 670.612 259.5 670.794 259.663C670.977 259.825 671.118 260.017 671.219 260.237C671.321 260.458 671.374 260.711 671.376 260.996C671.374 261.414 671.267 261.777 671.055 262.085C670.846 262.39 670.543 262.627 670.146 262.797C669.752 262.964 669.276 263.047 668.72 263.047C668.167 263.047 667.686 262.962 667.276 262.793C666.869 262.624 666.55 262.373 666.321 262.041C666.093 261.707 665.974 261.294 665.963 260.802H667.363C667.379 261.031 667.444 261.223 667.56 261.377C667.678 261.528 667.835 261.643 668.031 261.721C668.23 261.796 668.453 261.834 668.703 261.834C668.948 261.834 669.161 261.799 669.341 261.727C669.524 261.656 669.665 261.557 669.765 261.43C669.866 261.303 669.916 261.157 669.916 260.992C669.916 260.839 669.87 260.709 669.779 260.605C669.69 260.5 669.558 260.411 669.384 260.337C669.213 260.264 669.002 260.197 668.753 260.137L668.008 259.95C667.431 259.81 666.975 259.59 666.641 259.292C666.307 258.993 666.141 258.591 666.144 258.086C666.141 257.671 666.252 257.309 666.474 257C666.699 256.69 667.008 256.448 667.4 256.275C667.792 256.101 668.237 256.014 668.736 256.014C669.244 256.014 669.687 256.101 670.066 256.275C670.447 256.448 670.743 256.69 670.955 257C671.166 257.309 671.276 257.668 671.282 258.076H669.896ZM673.796 256.108V262.95H672.349V256.108H673.796ZM674.725 257.3V256.108H680.345V257.3H678.25V262.95H676.82V257.3H674.725Z" fill="#9CA3AF"/>
<path d="M683.438 275.903H64.5622C59.9433 275.903 56.199 279.648 56.199 284.267V305.174C56.199 309.793 59.9433 313.538 64.5622 313.538H683.438C688.057 313.538 691.801 309.793 691.801 305.174V284.267C691.801 279.648 688.057 275.903 683.438 275.903Z" fill="white" stroke="#F3F4F6" stroke-width="1.0454"/>
<path d="M79.1978 306.22C85.5487 306.22 90.6971 301.072 90.6971 294.721C90.6971 288.37 85.5487 283.221 79.1978 283.221C72.8468 283.221 67.6984 288.37 67.6984 294.721C67.6984 301.072 72.8468 306.22 79.1978 306.22Z" fill="#A695E9"/>
<path d="M222.417 290.539H103.242C101.51 290.539 100.106 291.943 100.106 293.675C100.106 295.407 101.51 296.811 103.242 296.811H222.417C224.149 296.811 225.554 295.407 225.554 293.675C225.554 291.943 224.149 290.539 222.417 290.539Z" fill="#D1D5DB"/>
<path d="M181.647 300.993H102.197C101.042 300.993 100.106 301.929 100.106 303.084C100.106 304.239 101.042 305.175 102.197 305.175H181.647C182.802 305.175 183.738 304.239 183.738 303.084C183.738 301.929 182.802 300.993 181.647 300.993Z" fill="#E5E7EB"/>
<path d="M470.177 303.084C474.796 303.084 478.54 299.339 478.54 294.721C478.54 290.102 474.796 286.357 470.177 286.357C465.558 286.357 461.814 290.102 461.814 294.721C461.814 299.339 465.558 303.084 470.177 303.084Z" fill="url(#paint1_linear_641_6997)"/>
<path d="M465.995 294.721L469.132 297.857L474.359 292.63" stroke="white" stroke-width="1.67264" stroke-linecap="round" stroke-linejoin="round"/>
<path d="M564.263 303.084C568.882 303.084 572.626 299.339 572.626 294.721C572.626 290.102 568.882 286.357 564.263 286.357C559.644 286.357 555.9 290.102 555.9 294.721C555.9 299.339 559.644 303.084 564.263 303.084Z" fill="url(#paint2_linear_641_6997)"/>
<path d="M560.081 294.721L563.217 297.857L568.444 292.63" stroke="white" stroke-width="1.67264" stroke-linecap="round" stroke-linejoin="round"/>
<path d="M658.349 303.084C662.968 303.084 666.712 299.339 666.712 294.721C666.712 290.102 662.968 286.357 658.349 286.357C653.73 286.357 649.986 290.102 649.986 294.721C649.986 299.339 653.73 303.084 658.349 303.084Z" fill="url(#paint3_linear_641_6997)"/>
<path d="M654.167 294.721L657.303 297.857L662.53 292.63" stroke="white" stroke-width="1.67264" stroke-linecap="round" stroke-linejoin="round"/>
<path d="M683.438 321.901H64.5622C59.9433 321.901 56.199 325.645 56.199 330.264V351.172C56.199 355.791 59.9433 359.535 64.5622 359.535H683.438C688.057 359.535 691.801 355.791 691.801 351.172V330.264C691.801 325.645 688.057 321.901 683.438 321.901Z" fill="white" stroke="#F3F4F6" stroke-width="1.0454"/>
<path d="M79.1978 352.218C85.5487 352.218 90.6971 347.069 90.6971 340.718C90.6971 334.367 85.5487 329.219 79.1978 329.219C72.8468 329.219 67.6984 334.367 67.6984 340.718C67.6984 347.069 72.8468 352.218 79.1978 352.218Z" fill="#A695E9"/>
<path d="M201.509 336.537H103.242C101.51 336.537 100.106 337.941 100.106 339.673C100.106 341.405 101.51 342.809 103.242 342.809H201.509C203.241 342.809 204.646 341.405 204.646 339.673C204.646 337.941 203.241 336.537 201.509 336.537Z" fill="#D1D5DB"/>
<path d="M169.102 346.99H102.197C101.042 346.99 100.106 347.926 100.106 349.081C100.106 350.236 101.042 351.172 102.197 351.172H169.102C170.257 351.172 171.193 350.236 171.193 349.081C171.193 347.926 170.257 346.99 169.102 346.99Z" fill="#E5E7EB"/>
<path d="M470.177 349.081C474.796 349.081 478.54 345.337 478.54 340.718C478.54 336.099 474.796 332.355 470.177 332.355C465.558 332.355 461.814 336.099 461.814 340.718C461.814 345.337 465.558 349.081 470.177 349.081Z" fill="url(#paint4_linear_641_6997)"/>
<path d="M465.995 340.718L469.132 343.854L474.359 338.627" stroke="white" stroke-width="1.67264" stroke-linecap="round" stroke-linejoin="round"/>
<path d="M564.263 349.081C568.882 349.081 572.626 345.337 572.626 340.718C572.626 336.099 568.882 332.355 564.263 332.355C559.644 332.355 555.9 336.099 555.9 340.718C555.9 345.337 559.644 349.081 564.263 349.081Z" fill="url(#paint5_linear_641_6997)"/>
<path d="M560.081 340.718L563.217 343.854L568.444 338.627" stroke="white" stroke-width="1.67264" stroke-linecap="round" stroke-linejoin="round"/>
<path d="M658.349 349.081C662.968 349.081 666.712 345.337 666.712 340.718C666.712 336.099 662.968 332.355 658.349 332.355C653.73 332.355 649.986 336.099 649.986 340.718C649.986 345.337 653.73 349.081 658.349 349.081Z" fill="url(#paint6_linear_641_6997)"/>
<path d="M654.167 340.718L657.303 343.854L662.53 338.627" stroke="white" stroke-width="1.67264" stroke-linecap="round" stroke-linejoin="round"/>
<path d="M683.438 367.898H64.5622C59.9433 367.898 56.199 371.643 56.199 376.262V397.17C56.199 401.788 59.9433 405.533 64.5622 405.533H683.438C688.057 405.533 691.801 401.788 691.801 397.17V376.262C691.801 371.643 688.057 367.898 683.438 367.898Z" fill="white" stroke="#F3F4F6" stroke-width="1.0454"/>
<path d="M79.1978 398.215C85.5487 398.215 90.6971 393.067 90.6971 386.716C90.6971 380.365 85.5487 375.216 79.1978 375.216C72.8468 375.216 67.6984 380.365 67.6984 386.716C67.6984 393.067 72.8468 398.215 79.1978 398.215Z" fill="#A695E9"/>
<path d="M226.599 382.534H103.242C101.51 382.534 100.106 383.938 100.106 385.67C100.106 387.402 101.51 388.807 103.242 388.807H226.599C228.331 388.807 229.735 387.402 229.735 385.67C229.735 383.938 228.331 382.534 226.599 382.534Z" fill="#D1D5DB"/>
<path d="M175.374 392.988H102.197C101.042 392.988 100.106 393.924 100.106 395.079C100.106 396.233 101.042 397.169 102.197 397.169H175.374C176.529 397.169 177.465 396.233 177.465 395.079C177.465 393.924 176.529 392.988 175.374 392.988Z" fill="#E5E7EB"/>
<path d="M470.177 395.079C474.796 395.079 478.54 391.335 478.54 386.716C478.54 382.097 474.796 378.353 470.177 378.353C465.558 378.353 461.814 382.097 461.814 386.716C461.814 391.335 465.558 395.079 470.177 395.079Z" fill="url(#paint7_linear_641_6997)"/>
<path d="M465.995 386.716L469.132 389.852L474.359 384.625" stroke="white" stroke-width="1.67264" stroke-linecap="round" stroke-linejoin="round"/>
<path d="M564.263 395.079C568.882 395.079 572.626 391.335 572.626 386.716C572.626 382.097 568.882 378.353 564.263 378.353C559.644 378.353 555.9 382.097 555.9 386.716C555.9 391.335 559.644 395.079 564.263 395.079Z" fill="url(#paint8_linear_641_6997)"/>
<path d="M560.081 386.716L563.217 389.852L568.444 384.625" stroke="white" stroke-width="1.67264" stroke-linecap="round" stroke-linejoin="round"/>
<path d="M658.349 395.601C662.968 395.601 666.712 391.857 666.712 387.238C666.712 382.619 662.968 378.875 658.349 378.875C653.73 378.875 649.986 382.619 649.986 387.238C649.986 391.857 653.73 395.601 658.349 395.601Z" stroke="#D1D5DB" stroke-width="1.67264"/>
<path d="M683.438 459.894H64.5622C59.9433 459.894 56.199 463.638 56.199 468.257V489.165C56.199 493.784 59.9433 497.528 64.5622 497.528H683.438C688.057 497.528 691.801 493.784 691.801 489.165V468.257C691.801 463.638 688.057 459.894 683.438 459.894Z" fill="white" stroke="#F3F4F6" stroke-width="1.0454"/>
<path d="M79.1978 490.21C85.5487 490.21 90.6971 485.062 90.6971 478.711C90.6971 472.36 85.5487 467.211 79.1978 467.211C72.8468 467.211 67.6984 472.36 67.6984 478.711C67.6984 485.062 72.8468 490.21 79.1978 490.21Z" fill="#D1D5DB"/>
<path d="M197.328 474.529H103.242C101.51 474.529 100.106 475.933 100.106 477.665C100.106 479.398 101.51 480.802 103.242 480.802H197.328C199.06 480.802 200.464 479.398 200.464 477.665C200.464 475.933 199.06 474.529 197.328 474.529Z" fill="#D1D5DB"/>
<path d="M181.647 484.983H102.197C101.042 484.983 100.106 485.919 100.106 487.074C100.106 488.228 101.042 489.165 102.197 489.165H181.647C182.802 489.165 183.738 488.228 183.738 487.074C183.738 485.919 182.802 484.983 181.647 484.983Z" fill="#E5E7EB"/>
<path d="M564.263 487.074C568.882 487.074 572.626 483.33 572.626 478.711C572.626 474.092 568.882 470.348 564.263 470.348C559.644 470.348 555.9 474.092 555.9 478.711C555.9 483.33 559.644 487.074 564.263 487.074Z" stroke="#D1D5DB" stroke-width="1.67264"/>
<path d="M470.177 487.074C474.796 487.074 478.54 483.33 478.54 478.711C478.54 474.092 474.796 470.348 470.177 470.348C465.558 470.348 461.814 474.092 461.814 478.711C461.814 483.33 465.558 487.074 470.177 487.074Z" stroke="#D1D5DB" stroke-width="1.67264"/>
<path d="M658.349 487.074C662.968 487.074 666.712 483.33 666.712 478.711C666.712 474.092 662.968 470.348 658.349 470.348C653.73 470.348 649.986 474.092 649.986 478.711C649.986 483.33 653.73 487.074 658.349 487.074Z" stroke="#D1D5DB" stroke-width="1.67264"/>
<path d="M683.438 505.891H64.5622C59.9433 505.891 56.199 509.635 56.199 514.254V535.162C56.199 539.781 59.9433 543.525 64.5622 543.525H683.438C688.057 543.525 691.801 539.781 691.801 535.162V514.254C691.801 509.635 688.057 505.891 683.438 505.891Z" fill="white" stroke="#F3F4F6" stroke-width="1.0454"/>
<path d="M79.1978 536.208C85.5487 536.208 90.6971 531.059 90.6971 524.708C90.6971 518.357 85.5487 513.209 79.1978 513.209C72.8468 513.209 67.6984 518.357 67.6984 524.708C67.6984 531.059 72.8468 536.208 79.1978 536.208Z" fill="#D1D5DB"/>
<path d="M218.236 520.527H103.242C101.51 520.527 100.106 521.931 100.106 523.663C100.106 525.395 101.51 526.799 103.242 526.799H218.236C219.968 526.799 221.372 525.395 221.372 523.663C221.372 521.931 219.968 520.527 218.236 520.527Z" fill="#D1D5DB"/>
<path d="M173.284 530.98H102.197C101.042 530.98 100.106 531.917 100.106 533.071C100.106 534.226 101.042 535.162 102.197 535.162H173.284C174.438 535.162 175.374 534.226 175.374 533.071C175.374 531.917 174.438 530.98 173.284 530.98Z" fill="#E5E7EB"/>
<path d="M470.177 533.072C474.796 533.072 478.54 529.327 478.54 524.708C478.54 520.09 474.796 516.345 470.177 516.345C465.558 516.345 461.814 520.09 461.814 524.708C461.814 529.327 465.558 533.072 470.177 533.072Z" stroke="#D1D5DB" stroke-width="1.67264"/>
<path d="M564.263 533.072C568.882 533.072 572.626 529.327 572.626 524.708C572.626 520.09 568.882 516.345 564.263 516.345C559.644 516.345 555.9 520.09 555.9 524.708C555.9 529.327 559.644 533.072 564.263 533.072Z" stroke="#D1D5DB" stroke-width="1.67264"/>
<path d="M658.349 533.072C662.968 533.072 666.712 529.327 666.712 524.708C666.712 520.09 662.968 516.345 658.349 516.345C653.73 516.345 649.986 520.09 649.986 524.708C649.986 529.327 653.73 533.072 658.349 533.072Z" stroke="#D1D5DB" stroke-width="1.67264"/>
<path d="M683.438 551.889H64.5622C59.9433 551.889 56.199 555.633 56.199 560.252V581.16C56.199 585.779 59.9433 589.523 64.5622 589.523H683.438C688.057 589.523 691.801 585.779 691.801 581.16V560.252C691.801 555.633 688.057 551.889 683.438 551.889Z" fill="white" stroke="#F3F4F6" stroke-width="1.0454"/>
<path d="M79.1978 582.205C85.5487 582.205 90.6971 577.057 90.6971 570.706C90.6971 564.355 85.5487 559.207 79.1978 559.207C72.8468 559.207 67.6984 564.355 67.6984 570.706C67.6984 577.057 72.8468 582.205 79.1978 582.205Z" fill="#D1D5DB"/>
<path d="M201.509 566.524H103.242C101.51 566.524 100.106 567.929 100.106 569.661C100.106 571.393 101.51 572.797 103.242 572.797H201.509C203.241 572.797 204.646 571.393 204.646 569.661C204.646 567.929 203.241 566.524 201.509 566.524Z" fill="#D1D5DB"/>
<path d="M169.102 576.978H102.197C101.042 576.978 100.106 577.914 100.106 579.069C100.106 580.224 101.042 581.16 102.197 581.16H169.102C170.257 581.16 171.193 580.224 171.193 579.069C171.193 577.914 170.257 576.978 169.102 576.978Z" fill="#E5E7EB"/>
<path d="M470.177 579.069C474.796 579.069 478.54 575.325 478.54 570.706C478.54 566.087 474.796 562.343 470.177 562.343C465.558 562.343 461.814 566.087 461.814 570.706C461.814 575.325 465.558 579.069 470.177 579.069Z" stroke="#D1D5DB" stroke-width="1.67264"/>
<path d="M564.263 579.069C568.882 579.069 572.626 575.325 572.626 570.706C572.626 566.087 568.882 562.343 564.263 562.343C559.644 562.343 555.9 566.087 555.9 570.706C555.9 575.325 559.644 579.069 564.263 579.069Z" stroke="#D1D5DB" stroke-width="1.67264"/>
<path d="M658.349 579.069C662.968 579.069 666.712 575.325 666.712 570.706C666.712 566.087 662.968 562.343 658.349 562.343C653.73 562.343 649.986 566.087 649.986 570.706C649.986 575.325 653.73 579.069 658.349 579.069Z" stroke="#D1D5DB" stroke-width="1.67264"/>
<path d="M683.438 597.886H64.5622C59.9433 597.886 56.199 601.631 56.199 606.249V627.157C56.199 631.776 59.9433 635.521 64.5622 635.521H683.438C688.057 635.521 691.801 631.776 691.801 627.157V606.249C691.801 601.631 688.057 597.886 683.438 597.886Z" fill="white" stroke="#F3F4F6" stroke-width="1.0454"/>
<path d="M79.1978 628.203C85.5487 628.203 90.6971 623.054 90.6971 616.703C90.6971 610.353 85.5487 605.204 79.1978 605.204C72.8468 605.204 67.6984 610.353 67.6984 616.703C67.6984 623.054 72.8468 628.203 79.1978 628.203Z" fill="#D1D5DB"/>
<path d="M222.417 612.521H103.242C101.51 612.521 100.106 613.926 100.106 615.658C100.106 617.39 101.51 618.794 103.242 618.794H222.417C224.149 618.794 225.554 617.39 225.554 615.658C225.554 613.926 224.149 612.521 222.417 612.521Z" fill="#D1D5DB"/>
<path d="M177.465 622.976H102.197C101.042 622.976 100.106 623.912 100.106 625.066C100.106 626.221 101.042 627.157 102.197 627.157H177.465C178.62 627.157 179.556 626.221 179.556 625.066C179.556 623.912 178.62 622.976 177.465 622.976Z" fill="#E5E7EB"/>
<path d="M470.177 625.067C474.796 625.067 478.54 621.322 478.54 616.704C478.54 612.085 474.796 608.34 470.177 608.34C465.558 608.34 461.814 612.085 461.814 616.704C461.814 621.322 465.558 625.067 470.177 625.067Z" stroke="#D1D5DB" stroke-width="1.67264"/>
<path d="M564.263 625.067C568.882 625.067 572.626 621.322 572.626 616.704C572.626 612.085 568.882 608.34 564.263 608.34C559.644 608.34 555.9 612.085 555.9 616.704C555.9 621.322 559.644 625.067 564.263 625.067Z" stroke="#D1D5DB" stroke-width="1.67264"/>
<path d="M658.349 625.067C662.968 625.067 666.712 621.322 666.712 616.704C666.712 612.085 662.968 608.34 658.349 608.34C653.73 608.34 649.986 612.085 649.986 616.704C649.986 621.322 653.73 625.067 658.349 625.067Z" stroke="#D1D5DB" stroke-width="1.67264"/>
<path d="M683.438 643.884H64.5622C59.9433 643.884 56.199 647.628 56.199 652.247V673.155C56.199 677.774 59.9433 681.518 64.5622 681.518H683.438C688.057 681.518 691.801 677.774 691.801 673.155V652.247C691.801 647.628 688.057 643.884 683.438 643.884Z" fill="white" stroke="#F3F4F6" stroke-width="1.0454"/>
<path d="M79.1978 674.2C85.5487 674.2 90.6971 669.052 90.6971 662.701C90.6971 656.35 85.5487 651.202 79.1978 651.202C72.8468 651.202 67.6984 656.35 67.6984 662.701C67.6984 669.052 72.8468 674.2 79.1978 674.2Z" fill="#D1D5DB"/>
<path d="M193.146 658.52H103.242C101.51 658.52 100.106 659.924 100.106 661.656C100.106 663.388 101.51 664.792 103.242 664.792H193.146C194.878 664.792 196.282 663.388 196.282 661.656C196.282 659.924 194.878 658.52 193.146 658.52Z" fill="#D1D5DB"/>
<path d="M164.92 668.973H102.197C101.042 668.973 100.106 669.909 100.106 671.064C100.106 672.219 101.042 673.155 102.197 673.155H164.92C166.075 673.155 167.011 672.219 167.011 671.064C167.011 669.909 166.075 668.973 164.92 668.973Z" fill="#E5E7EB"/>
<path d="M470.177 671.064C474.796 671.064 478.54 667.32 478.54 662.701C478.54 658.082 474.796 654.338 470.177 654.338C465.558 654.338 461.814 658.082 461.814 662.701C461.814 667.32 465.558 671.064 470.177 671.064Z" stroke="#D1D5DB" stroke-width="1.67264"/>
<path d="M564.263 671.064C568.882 671.064 572.626 667.32 572.626 662.701C572.626 658.082 568.882 654.338 564.263 654.338C559.644 654.338 555.9 658.082 555.9 662.701C555.9 667.32 559.644 671.064 564.263 671.064Z" stroke="#D1D5DB" stroke-width="1.67264"/>
<path d="M658.349 671.064C662.968 671.064 666.712 667.32 666.712 662.701C666.712 658.082 662.968 654.338 658.349 654.338C653.73 654.338 649.986 658.082 649.986 662.701C649.986 667.32 653.73 671.064 658.349 671.064Z" stroke="#D1D5DB" stroke-width="1.67264"/>
<g filter="url(#filter0_dd_641_6997)">
<path d="M708.625 410.812H39.3755C34.3806 410.812 30.3315 414.861 30.3315 419.855V458.167C30.3315 463.162 34.3806 467.211 39.3755 467.211H708.625C713.62 467.211 717.669 463.162 717.669 458.167V419.855C717.669 414.861 713.62 410.812 708.625 410.812Z" fill="white"/>
</g>
<path d="M57.0303 451.796C64.091 451.796 69.8149 446.072 69.8149 439.011C69.8149 431.95 64.091 426.227 57.0303 426.227C49.9695 426.227 44.2456 431.95 44.2456 439.011C44.2456 446.072 49.9695 451.796 57.0303 451.796Z" fill="#A695E9"/>
<path d="M204.635 434.362H83.7619C81.8362 434.362 80.2751 435.923 80.2751 437.849C80.2751 439.775 81.8362 441.336 83.7619 441.336H204.635C206.561 441.336 208.122 439.775 208.122 437.849C208.122 435.923 206.561 434.362 204.635 434.362Z" fill="#D1D5DB"/>
<path d="M152.334 445.985H82.5996C81.3159 445.985 80.2751 447.026 80.2751 448.309C80.2751 449.593 81.3159 450.634 82.5996 450.634H152.334C153.618 450.634 154.659 449.593 154.659 448.309C154.659 447.026 153.618 445.985 152.334 445.985Z" fill="#E5E7EB"/>
<path d="M480.927 448.309C486.062 448.309 490.225 444.146 490.225 439.011C490.225 433.876 486.062 429.713 480.927 429.713C475.792 429.713 471.629 433.876 471.629 439.011C471.629 444.146 475.792 448.309 480.927 448.309Z" fill="url(#paint9_linear_641_6997)"/>
<path d="M476.278 439.011L479.765 442.498L485.576 436.687" stroke="white" stroke-width="1.85959" stroke-linecap="round" stroke-linejoin="round"/>
<path d="M690.13 448.309C695.265 448.309 699.428 444.146 699.428 439.011C699.428 433.876 695.265 429.713 690.13 429.713C684.995 429.713 680.832 433.876 680.832 439.011C680.832 444.146 684.995 448.309 690.13 448.309Z" stroke="#D1D5DB" stroke-width="1.85959"/>
<path d="M585.528 448.309C590.664 448.309 594.826 444.146 594.826 439.011C594.826 433.876 590.664 429.713 585.528 429.713C580.393 429.713 576.231 433.876 576.231 439.011C576.231 444.146 580.393 448.309 585.528 448.309Z" stroke="#D1D5DB" stroke-width="1.85959"/>
<defs>
<filter id="filter0_dd_641_6997" x="16.7657" y="408.551" width="714.469" height="83.5316" filterUnits="userSpaceOnUse" color-interpolation-filters="sRGB">
<feFlood flood-opacity="0" result="BackgroundImageFix"/>
<feColorMatrix in="SourceAlpha" type="matrix" values="0 0 0 0 0 0 0 0 0 0 0 0 0 0 0 0 0 0 127 0" result="hardAlpha"/>
<feMorphology radius="2.26098" operator="erode" in="SourceAlpha" result="effect1_dropShadow_641_6997"/>
<feOffset dy="4.52196"/>
<feGaussianBlur stdDeviation="3.39147"/>
<feColorMatrix type="matrix" values="0 0 0 0 0 0 0 0 0 0 0 0 0 0 0 0 0 0 0.05 0"/>
<feBlend mode="normal" in2="BackgroundImageFix" result="effect1_dropShadow_641_6997"/>
<feColorMatrix in="SourceAlpha" type="matrix" values="0 0 0 0 0 0 0 0 0 0 0 0 0 0 0 0 0 0 127 0" result="hardAlpha"/>
<feMorphology radius="3.39147" operator="erode" in="SourceAlpha" result="effect2_dropShadow_641_6997"/>
<feOffset dy="11.3049"/>
<feGaussianBlur stdDeviation="8.47867"/>
<feColorMatrix type="matrix" values="0 0 0 0 0 0 0 0 0 0 0 0 0 0 0 0 0 0 0.1 0"/>
<feBlend mode="normal" in2="effect1_dropShadow_641_6997" result="effect2_dropShadow_641_6997"/>
<feBlend mode="normal" in="SourceGraphic" in2="effect2_dropShadow_641_6997" result="shape"/>
</filter>
<linearGradient id="paint0_linear_641_6997" x1="56.199" y1="133.729" x2="56.199" y2="229.906" gradientUnits="userSpaceOnUse">
<stop stop-color="#9B5CFF"/>
<stop offset="1" stop-color="#7E3CEF"/>
</linearGradient>
<linearGradient id="paint1_linear_641_6997" x1="461.814" y1="286.357" x2="478.54" y2="303.084" gradientUnits="userSpaceOnUse">
<stop stop-color="#9B5CFF"/>
<stop offset="1" stop-color="#7E3CEF"/>
</linearGradient>
<linearGradient id="paint2_linear_641_6997" x1="555.9" y1="286.357" x2="572.626" y2="303.084" gradientUnits="userSpaceOnUse">
<stop stop-color="#9B5CFF"/>
<stop offset="1" stop-color="#7E3CEF"/>
</linearGradient>
<linearGradient id="paint3_linear_641_6997" x1="649.986" y1="286.357" x2="666.712" y2="303.084" gradientUnits="userSpaceOnUse">
<stop stop-color="#9B5CFF"/>
<stop offset="1" stop-color="#7E3CEF"/>
</linearGradient>
<linearGradient id="paint4_linear_641_6997" x1="461.814" y1="332.355" x2="478.54" y2="349.081" gradientUnits="userSpaceOnUse">
<stop stop-color="#9B5CFF"/>
<stop offset="1" stop-color="#7E3CEF"/>
</linearGradient>
<linearGradient id="paint5_linear_641_6997" x1="555.9" y1="332.355" x2="572.626" y2="349.081" gradientUnits="userSpaceOnUse">
<stop stop-color="#9B5CFF"/>
<stop offset="1" stop-color="#7E3CEF"/>
</linearGradient>
<linearGradient id="paint6_linear_641_6997" x1="649.986" y1="332.355" x2="666.712" y2="349.081" gradientUnits="userSpaceOnUse">
<stop stop-color="#9B5CFF"/>
<stop offset="1" stop-color="#7E3CEF"/>
</linearGradient>
<linearGradient id="paint7_linear_641_6997" x1="461.814" y1="378.353" x2="478.54" y2="395.079" gradientUnits="userSpaceOnUse">
<stop stop-color="#9B5CFF"/>
<stop offset="1" stop-color="#7E3CEF"/>
</linearGradient>
<linearGradient id="paint8_linear_641_6997" x1="555.9" y1="378.353" x2="572.626" y2="395.079" gradientUnits="userSpaceOnUse">
<stop stop-color="#9B5CFF"/>
<stop offset="1" stop-color="#7E3CEF"/>
</linearGradient>
<linearGradient id="paint9_linear_641_6997" x1="471.629" y1="429.713" x2="490.225" y2="448.309" gradientUnits="userSpaceOnUse">
<stop stop-color="#9B5CFF"/>
<stop offset="1" stop-color="#7E3CEF"/>
</linearGradient>
</defs>
</svg>
