<svg width="748" height="748" viewBox="0 0 748 748" fill="none" xmlns="http://www.w3.org/2000/svg">
<g filter="url(#filter0_dd_797_9917)">
<path d="M694 35.7117H54C42.9543 35.7117 34 44.666 34 55.7117V407.712C34 418.757 42.9543 427.712 54 427.712H694C705.046 427.712 714 418.757 714 407.712V55.7117C714 44.666 705.046 35.7117 694 35.7117Z" fill="white"/>
</g>
<g filter="url(#filter1_dd_797_9917)">
<path d="M694 448.288H54C42.9543 448.288 34 457.243 34 468.288V692.288C34 703.334 42.9543 712.288 54 712.288H694C705.046 712.288 714 703.334 714 692.288V468.288C714 457.243 705.046 448.288 694 448.288Z" fill="white"/>
</g>
<path d="M79.9989 84.6653C79.9989 85.6189 79.7801 86.4943 79.3424 87.2915C78.9047 88.0732 78.2325 88.7063 77.3258 89.1909C76.4191 89.6755 75.2935 89.9178 73.9491 89.9178H71.4636V95.8269H67.4538V79.3658H73.9491C75.2623 79.3658 76.3722 79.5925 77.2789 80.0459C78.1856 80.4992 78.8656 81.1245 79.3189 81.9218C79.7723 82.719 79.9989 83.6335 79.9989 84.6653ZM73.6443 86.7288C74.4103 86.7288 74.9809 86.549 75.3561 86.1894C75.7313 85.8299 75.9188 85.3218 75.9188 84.6653C75.9188 84.0087 75.7313 83.5006 75.3561 83.1411C74.9809 82.7816 74.4103 82.6018 73.6443 82.6018H71.4636V86.7288H73.6443ZM89.8714 95.991C88.3238 95.991 86.9013 95.6315 85.6038 94.9124C84.3219 94.1933 83.298 93.1928 82.532 91.911C81.7816 90.6135 81.4064 89.1596 81.4064 87.5495C81.4064 85.9393 81.7816 84.4933 82.532 83.2114C83.298 81.9296 84.3219 80.9291 85.6038 80.21C86.9013 79.4909 88.3238 79.1314 89.8714 79.1314C91.4191 79.1314 92.8338 79.4909 94.1157 80.21C95.4132 80.9291 96.4293 81.9296 97.164 83.2114C97.9144 84.4933 98.2896 85.9393 98.2896 87.5495C98.2896 89.1596 97.9144 90.6135 97.164 91.911C96.4137 93.1928 95.3975 94.1933 94.1157 94.9124C92.8338 95.6315 91.4191 95.991 89.8714 95.991ZM89.8714 92.333C91.1846 92.333 92.232 91.8953 93.0136 91.0199C93.8108 90.1445 94.2095 88.9877 94.2095 87.5495C94.2095 86.0956 93.8108 84.9388 93.0136 84.0791C92.232 83.2036 91.1846 82.7659 89.8714 82.7659C88.5427 82.7659 87.4797 83.1958 86.6824 84.0556C85.9008 84.9154 85.51 86.08 85.51 87.5495C85.51 89.0033 85.9008 90.1679 86.6824 91.0433C87.4797 91.9031 88.5427 92.333 89.8714 92.333ZM104.53 92.7317H109.783V95.8269H100.52V79.3658H104.53V92.7317ZM115.705 92.7317H120.957V95.8269H111.695V79.3658H115.705V92.7317ZM128.826 95.991C127.622 95.991 126.544 95.7956 125.59 95.4048C124.636 95.014 123.87 94.4356 123.292 93.6696C122.729 92.9036 122.432 91.9813 122.401 90.9027H126.669C126.731 91.5123 126.942 91.9813 127.302 92.3096C127.661 92.6222 128.13 92.7786 128.709 92.7786C129.303 92.7786 129.772 92.6457 130.116 92.3799C130.46 92.0985 130.632 91.7155 130.632 91.2309C130.632 90.8245 130.491 90.4884 130.209 90.2226C129.944 89.9569 129.608 89.738 129.201 89.5661C128.81 89.3941 128.248 89.1987 127.513 88.9799C126.45 88.6516 125.582 88.3233 124.91 87.995C124.238 87.6667 123.659 87.1821 123.175 86.5412C122.69 85.9002 122.448 85.0639 122.448 84.0322C122.448 82.5002 123.003 81.3043 124.113 80.4445C125.223 79.5691 126.669 79.1314 128.451 79.1314C130.264 79.1314 131.726 79.5691 132.836 80.4445C133.946 81.3043 134.54 82.508 134.618 84.0556H130.28C130.249 83.5241 130.053 83.1098 129.694 82.8128C129.334 82.5002 128.873 82.3438 128.31 82.3438C127.825 82.3438 127.435 82.4767 127.138 82.7425C126.841 82.9926 126.692 83.36 126.692 83.8446C126.692 84.3761 126.942 84.7903 127.442 85.0873C127.943 85.3844 128.724 85.7048 129.787 86.0488C130.85 86.4083 131.71 86.7522 132.367 87.0805C133.039 87.4088 133.617 87.8856 134.102 88.5109C134.587 89.1362 134.829 89.9413 134.829 90.9261C134.829 91.8641 134.587 92.716 134.102 93.482C133.633 94.248 132.945 94.8577 132.038 95.311C131.132 95.7644 130.061 95.991 128.826 95.991ZM154.858 95.8269L153.333 94.3496C151.817 95.5064 150.004 96.0848 147.893 96.0848C146.627 96.0848 145.525 95.8816 144.587 95.4752C143.649 95.0531 142.922 94.4669 142.406 93.7165C141.906 92.9505 141.656 92.0595 141.656 91.0433C141.656 90.0116 141.93 89.0815 142.477 88.2529C143.039 87.4088 143.876 86.721 144.986 86.1894C144.579 85.6892 144.29 85.2124 144.118 84.7591C143.946 84.2901 143.86 83.782 143.86 83.2349C143.86 82.4533 144.063 81.742 144.47 81.1011C144.876 80.4601 145.462 79.9599 146.228 79.6003C147.01 79.2251 147.932 79.0376 148.995 79.0376C150.074 79.0376 150.989 79.233 151.739 79.6238C152.489 80.0146 153.052 80.5383 153.427 81.1948C153.802 81.8514 153.974 82.5705 153.943 83.3521H150.168C150.183 82.9301 150.074 82.6096 149.84 82.3907C149.621 82.1562 149.324 82.039 148.949 82.039C148.573 82.039 148.261 82.1484 148.011 82.3673C147.76 82.5861 147.635 82.8675 147.635 83.2114C147.635 83.5397 147.737 83.8836 147.94 84.2432C148.159 84.6027 148.495 85.017 148.949 85.486L152.958 89.4019C152.99 89.3238 153.029 89.23 153.076 89.1205C153.138 89.0111 153.201 88.8861 153.263 88.7454L154.131 87.2681H158.14L157.015 89.3081C156.593 90.2305 156.108 91.1059 155.561 91.9344L159.524 95.8269H154.858ZM148.081 92.8489C149.128 92.8489 150.058 92.5519 150.871 91.9579L147.213 88.4171C146.088 88.9955 145.525 89.7771 145.525 90.762C145.525 91.356 145.752 91.8562 146.205 92.2627C146.674 92.6535 147.299 92.8489 148.081 92.8489ZM171.899 95.991C170.696 95.991 169.617 95.7956 168.663 95.4048C167.71 95.014 166.944 94.4356 166.365 93.6696C165.803 92.9036 165.506 91.9813 165.474 90.9027H169.742C169.805 91.5123 170.016 91.9813 170.375 92.3096C170.735 92.6222 171.204 92.7786 171.782 92.7786C172.376 92.7786 172.845 92.6457 173.189 92.3799C173.533 92.0985 173.705 91.7155 173.705 91.2309C173.705 90.8245 173.564 90.4884 173.283 90.2226C173.017 89.9569 172.681 89.738 172.275 89.5661C171.884 89.3941 171.321 89.1987 170.586 88.9799C169.523 88.6516 168.656 88.3233 167.983 87.995C167.311 87.6667 166.733 87.1821 166.248 86.5412C165.764 85.9002 165.521 85.0639 165.521 84.0322C165.521 82.5002 166.076 81.3043 167.186 80.4445C168.296 79.5691 169.742 79.1314 171.524 79.1314C173.338 79.1314 174.799 79.5691 175.909 80.4445C177.019 81.3043 177.613 82.508 177.691 84.0556H173.353C173.322 83.5241 173.127 83.1098 172.767 82.8128C172.407 82.5002 171.946 82.3438 171.384 82.3438C170.899 82.3438 170.508 82.4767 170.211 82.7425C169.914 82.9926 169.766 83.36 169.766 83.8446C169.766 84.3761 170.016 84.7903 170.516 85.0873C171.016 85.3844 171.798 85.7048 172.861 86.0488C173.924 86.4083 174.784 86.7522 175.44 87.0805C176.112 87.4088 176.691 87.8856 177.175 88.5109C177.66 89.1362 177.902 89.9413 177.902 90.9261C177.902 91.8641 177.66 92.716 177.175 93.482C176.706 94.248 176.019 94.8577 175.112 95.311C174.205 95.7644 173.134 95.991 171.899 95.991ZM184.309 79.3658V89.2143C184.309 90.1992 184.552 90.9574 185.036 91.4889C185.521 92.0204 186.232 92.2861 187.17 92.2861C188.108 92.2861 188.827 92.0204 189.327 91.4889C189.828 90.9574 190.078 90.1992 190.078 89.2143V79.3658H194.087V89.1909C194.087 90.6603 193.775 91.9031 193.15 92.9193C192.524 93.9354 191.68 94.7014 190.617 95.2172C189.57 95.7331 188.397 95.991 187.1 95.991C185.802 95.991 184.638 95.7409 183.606 95.2407C182.59 94.7248 181.785 93.9588 181.191 92.9427C180.597 91.911 180.3 90.6603 180.3 89.1909V79.3658H184.309ZM205.298 95.8269L201.874 89.613H200.913V95.8269H196.903V79.3658H203.633C204.93 79.3658 206.033 79.5925 206.939 80.0459C207.862 80.4992 208.549 81.1245 209.003 81.9218C209.456 82.7034 209.683 83.5788 209.683 84.548C209.683 85.6423 209.37 86.6193 208.745 87.4791C208.135 88.3389 207.228 88.9486 206.025 89.3081L209.823 95.8269H205.298ZM200.913 86.7757H203.398C204.133 86.7757 204.68 86.5959 205.04 86.2363C205.415 85.8768 205.603 85.3687 205.603 84.7122C205.603 84.0869 205.415 83.5944 205.04 83.2349C204.68 82.8753 204.133 82.6956 203.398 82.6956H200.913V86.7757ZM227.653 79.3658L221.814 95.8269H216.796L210.957 79.3658H215.225L219.305 91.7937L223.408 79.3658H227.653ZM233.338 82.5783V85.9081H238.708V89.0033H233.338V92.6144H239.411V95.8269H229.328V79.3658H239.411V82.5783H233.338ZM256.131 79.3658L250.433 90.3868V95.8269H246.423V90.3868L240.725 79.3658H245.274L248.463 86.2598L251.629 79.3658H256.131ZM263.702 95.991C262.499 95.991 261.42 95.7956 260.466 95.4048C259.513 95.014 258.747 94.4356 258.168 93.6696C257.606 92.9036 257.309 91.9813 257.277 90.9027H261.545C261.608 91.5123 261.819 91.9813 262.178 92.3096C262.538 92.6222 263.007 92.7786 263.585 92.7786C264.179 92.7786 264.648 92.6457 264.992 92.3799C265.336 92.0985 265.508 91.7155 265.508 91.2309C265.508 90.8245 265.367 90.4884 265.086 90.2226C264.82 89.9569 264.484 89.738 264.078 89.5661C263.687 89.3941 263.124 89.1987 262.389 88.9799C261.326 88.6516 260.459 88.3233 259.786 87.995C259.114 87.6667 258.536 87.1821 258.051 86.5412C257.567 85.9002 257.324 85.0639 257.324 84.0322C257.324 82.5002 257.879 81.3043 258.989 80.4445C260.099 79.5691 261.545 79.1314 263.327 79.1314C265.141 79.1314 266.602 79.5691 267.712 80.4445C268.822 81.3043 269.416 82.508 269.494 84.0556H265.156C265.125 83.5241 264.93 83.1098 264.57 82.8128C264.21 82.5002 263.749 82.3438 263.187 82.3438C262.702 82.3438 262.311 82.4767 262.014 82.7425C261.717 82.9926 261.569 83.36 261.569 83.8446C261.569 84.3761 261.819 84.7903 262.319 85.0873C262.819 85.3844 263.601 85.7048 264.664 86.0488C265.727 86.4083 266.587 86.7522 267.243 87.0805C267.915 87.4088 268.494 87.8856 268.978 88.5109C269.463 89.1362 269.705 89.9413 269.705 90.9261C269.705 91.8641 269.463 92.716 268.978 93.482C268.509 94.248 267.822 94.8577 266.915 95.311C266.008 95.7644 264.937 95.991 263.702 95.991Z" fill="#111827"/>
<path d="M79.2955 550.827V554.04H74.934V567.288H70.9243V554.04H66.5628V550.827H79.2955ZM85.3176 556.385C85.7866 555.666 86.3728 555.103 87.0763 554.696C87.7797 554.274 88.5614 554.063 89.4211 554.063V558.307H88.3191C87.3186 558.307 86.5682 558.526 86.068 558.964C85.5677 559.386 85.3176 560.136 85.3176 561.215V567.288H81.3079V554.204H85.3176V556.385ZM103.672 560.535C103.672 560.91 103.648 561.301 103.601 561.708H94.5268C94.5893 562.52 94.8472 563.146 95.3006 563.583C95.7695 564.005 96.3401 564.217 97.0123 564.217C98.0128 564.217 98.7085 563.794 99.0993 562.95H103.367C103.148 563.81 102.749 564.584 102.171 565.272C101.608 565.96 100.897 566.499 100.037 566.89C99.1774 567.281 98.216 567.476 97.153 567.476C95.8712 567.476 94.73 567.202 93.7295 566.655C92.729 566.108 91.9474 565.326 91.3846 564.31C90.8218 563.294 90.5405 562.106 90.5405 560.746C90.5405 559.386 90.814 558.198 91.3612 557.182C91.9239 556.166 92.7056 555.384 93.706 554.837C94.7065 554.29 95.8555 554.016 97.153 554.016C98.4193 554.016 99.5448 554.282 100.53 554.814C101.515 555.345 102.28 556.103 102.828 557.088C103.39 558.073 103.672 559.222 103.672 560.535ZM99.5683 559.48C99.5683 558.792 99.3338 558.245 98.8648 557.838C98.3958 557.432 97.8096 557.229 97.1061 557.229C96.4339 557.229 95.8633 557.424 95.3944 557.815C94.941 558.206 94.6596 558.761 94.5502 559.48H99.5683ZM113.76 554.063C115.292 554.063 116.511 554.563 117.418 555.564C118.34 556.549 118.801 557.909 118.801 559.644V567.288H114.815V560.183C114.815 559.308 114.588 558.628 114.135 558.143C113.682 557.659 113.072 557.416 112.306 557.416C111.54 557.416 110.93 557.659 110.477 558.143C110.024 558.628 109.797 559.308 109.797 560.183V567.288H105.787V554.204H109.797V555.939C110.203 555.361 110.75 554.907 111.438 554.579C112.126 554.235 112.9 554.063 113.76 554.063ZM120.79 560.723C120.79 559.378 121.04 558.198 121.541 557.182C122.057 556.166 122.752 555.384 123.628 554.837C124.503 554.29 125.48 554.016 126.559 554.016C127.419 554.016 128.2 554.196 128.904 554.556C129.623 554.915 130.185 555.4 130.592 556.009V549.936H134.602V567.288H130.592V565.412C130.217 566.038 129.677 566.538 128.974 566.913C128.286 567.288 127.481 567.476 126.559 567.476C125.48 567.476 124.503 567.202 123.628 566.655C122.752 566.092 122.057 565.303 121.541 564.287C121.04 563.255 120.79 562.067 120.79 560.723ZM130.592 560.746C130.592 559.746 130.311 558.956 129.748 558.378C129.201 557.799 128.528 557.51 127.731 557.51C126.934 557.51 126.254 557.799 125.691 558.378C125.144 558.941 124.87 559.722 124.87 560.723C124.87 561.723 125.144 562.52 125.691 563.114C126.254 563.693 126.934 563.982 127.731 563.982C128.528 563.982 129.201 563.693 129.748 563.114C130.311 562.536 130.592 561.747 130.592 560.746ZM150.257 567.452C148.709 567.452 147.287 567.093 145.989 566.374C144.707 565.655 143.683 564.654 142.917 563.372C142.167 562.075 141.792 560.621 141.792 559.011C141.792 557.401 142.167 555.955 142.917 554.673C143.683 553.391 144.707 552.391 145.989 551.671C147.287 550.952 148.709 550.593 150.257 550.593C151.804 550.593 153.219 550.952 154.501 551.671C155.798 552.391 156.815 553.391 157.549 554.673C158.3 555.955 158.675 557.401 158.675 559.011C158.675 560.621 158.3 562.075 157.549 563.372C156.799 564.654 155.783 565.655 154.501 566.374C153.219 567.093 151.804 567.452 150.257 567.452ZM150.257 563.794C151.57 563.794 152.617 563.357 153.399 562.481C154.196 561.606 154.595 560.449 154.595 559.011C154.595 557.557 154.196 556.4 153.399 555.54C152.617 554.665 151.57 554.227 150.257 554.227C148.928 554.227 147.865 554.657 147.068 555.517C146.286 556.377 145.895 557.541 145.895 559.011C145.895 560.465 146.286 561.629 147.068 562.505C147.865 563.365 148.928 563.794 150.257 563.794ZM166.791 563.537L169.629 554.204H173.896L169.253 567.288H164.306L159.663 554.204H163.954L166.791 563.537ZM187.918 560.535C187.918 560.91 187.895 561.301 187.848 561.708H178.773C178.836 562.52 179.093 563.146 179.547 563.583C180.016 564.005 180.586 564.217 181.259 564.217C182.259 564.217 182.955 563.794 183.346 562.95H187.613C187.394 563.81 186.996 564.584 186.417 565.272C185.855 565.96 185.143 566.499 184.283 566.89C183.424 567.281 182.462 567.476 181.399 567.476C180.117 567.476 178.976 567.202 177.976 566.655C176.975 566.108 176.194 565.326 175.631 564.31C175.068 563.294 174.787 562.106 174.787 560.746C174.787 559.386 175.06 558.198 175.607 557.182C176.17 556.166 176.952 555.384 177.952 554.837C178.953 554.29 180.102 554.016 181.399 554.016C182.666 554.016 183.791 554.282 184.776 554.814C185.761 555.345 186.527 556.103 187.074 557.088C187.637 558.073 187.918 559.222 187.918 560.535ZM183.815 559.48C183.815 558.792 183.58 558.245 183.111 557.838C182.642 557.432 182.056 557.229 181.352 557.229C180.68 557.229 180.11 557.424 179.641 557.815C179.187 558.206 178.906 558.761 178.796 559.48H183.815ZM194.043 556.385C194.512 555.666 195.098 555.103 195.802 554.696C196.505 554.274 197.287 554.063 198.147 554.063V558.307H197.045C196.044 558.307 195.294 558.526 194.793 558.964C194.293 559.386 194.043 560.136 194.043 561.215V567.288H190.033V554.204H194.043V556.385ZM207.356 563.888V567.288H205.316C203.862 567.288 202.729 566.937 201.916 566.233C201.103 565.514 200.696 564.349 200.696 562.739V557.534H199.102V554.204H200.696V551.015H204.706V554.204H207.332V557.534H204.706V562.786C204.706 563.177 204.8 563.458 204.987 563.63C205.175 563.802 205.488 563.888 205.925 563.888H207.356ZM211.606 552.844C210.902 552.844 210.324 552.641 209.871 552.234C209.433 551.812 209.214 551.296 209.214 550.687C209.214 550.061 209.433 549.545 209.871 549.139C210.324 548.717 210.902 548.506 211.606 548.506C212.294 548.506 212.857 548.717 213.294 549.139C213.748 549.545 213.974 550.061 213.974 550.687C213.974 551.296 213.748 551.812 213.294 552.234C212.857 552.641 212.294 552.844 211.606 552.844ZM213.599 554.204V567.288H209.589V554.204H213.599ZM233.2 554.063C234.826 554.063 236.116 554.556 237.07 555.54C238.039 556.525 238.523 557.893 238.523 559.644V567.288H234.537V560.183C234.537 559.339 234.31 558.69 233.857 558.237C233.419 557.768 232.81 557.534 232.028 557.534C231.246 557.534 230.629 557.768 230.176 558.237C229.738 558.69 229.519 559.339 229.519 560.183V567.288H225.533V560.183C225.533 559.339 225.306 558.69 224.853 558.237C224.415 557.768 223.805 557.534 223.024 557.534C222.242 557.534 221.625 557.768 221.171 558.237C220.733 558.69 220.515 559.339 220.515 560.183V567.288H216.505V554.204H220.515V555.845C220.921 555.298 221.453 554.868 222.109 554.556C222.766 554.227 223.508 554.063 224.337 554.063C225.322 554.063 226.197 554.274 226.963 554.696C227.745 555.118 228.354 555.72 228.792 556.502C229.245 555.783 229.863 555.197 230.645 554.743C231.426 554.29 232.278 554.063 233.2 554.063ZM253.662 560.535C253.662 560.91 253.638 561.301 253.591 561.708H244.517C244.579 562.52 244.837 563.146 245.291 563.583C245.759 564.005 246.33 564.217 247.002 564.217C248.003 564.217 248.698 563.794 249.089 562.95H253.357C253.138 563.81 252.739 564.584 252.161 565.272C251.598 565.96 250.887 566.499 250.027 566.89C249.167 567.281 248.206 567.476 247.143 567.476C245.861 567.476 244.72 567.202 243.719 566.655C242.719 566.108 241.937 565.326 241.375 564.31C240.812 563.294 240.53 562.106 240.53 560.746C240.53 559.386 240.804 558.198 241.351 557.182C241.914 556.166 242.695 555.384 243.696 554.837C244.696 554.29 245.845 554.016 247.143 554.016C248.409 554.016 249.535 554.282 250.52 554.814C251.504 555.345 252.27 556.103 252.818 557.088C253.38 558.073 253.662 559.222 253.662 560.535ZM249.558 559.48C249.558 558.792 249.324 558.245 248.855 557.838C248.386 557.432 247.8 557.229 247.096 557.229C246.424 557.229 245.853 557.424 245.384 557.815C244.931 558.206 244.65 558.761 244.54 559.48H249.558Z" fill="#111827"/>
<path d="M668 73.3269H600C592.268 73.3269 586 79.5949 586 87.3269C586 95.0589 592.268 101.327 600 101.327H668C675.732 101.327 682 95.0589 682 87.3269C682 79.5949 675.732 73.3269 668 73.3269Z" fill="#E5E7EB"/>
<path d="M398 191.512H76C70.4772 191.512 66 195.989 66 201.512V221.512C66 227.035 70.4772 231.512 76 231.512H398C403.523 231.512 408 227.035 408 221.512V201.512C408 195.989 403.523 191.512 398 191.512Z" fill="#F3F4F6"/>
<path d="M275 191.512H76C70.4772 191.512 66 195.989 66 201.512V221.512C66 227.035 70.4772 231.512 76 231.512H275C280.523 231.512 285 227.035 285 221.512V201.512C285 195.989 280.523 191.512 275 191.512Z" fill="url(#paint0_linear_797_9917)"/>
<path d="M80.8217 216.512V207.057H84.5518C85.2689 207.057 85.8799 207.194 86.3846 207.468C86.8893 207.739 87.274 208.116 87.5387 208.599C87.8065 209.079 87.9403 209.633 87.9403 210.261C87.9403 210.889 87.8049 211.443 87.5341 211.923C87.2633 212.403 86.8709 212.777 86.3569 213.045C85.846 213.313 85.2274 213.447 84.5011 213.447H82.1236V211.845H84.1779C84.5626 211.845 84.8796 211.779 85.1289 211.646C85.3813 211.511 85.569 211.325 85.6921 211.088C85.8183 210.848 85.8814 210.572 85.8814 210.261C85.8814 209.947 85.8183 209.673 85.6921 209.44C85.569 209.203 85.3813 209.019 85.1289 208.89C84.8765 208.758 84.5565 208.692 84.1687 208.692H82.8207V216.512H80.8217ZM89.2018 216.512V209.421H91.1684V216.512H89.2018ZM90.1897 208.507C89.8973 208.507 89.6465 208.41 89.4372 208.216C89.231 208.019 89.1279 207.784 89.1279 207.51C89.1279 207.239 89.231 207.007 89.4372 206.813C89.6465 206.616 89.8973 206.517 90.1897 206.517C90.4821 206.517 90.7314 206.616 90.9376 206.813C91.1469 207.007 91.2515 207.239 91.2515 207.51C91.2515 207.784 91.1469 208.019 90.9376 208.216C90.7314 208.41 90.4821 208.507 90.1897 208.507ZM92.7069 216.512V215.339L96.1784 211.041V210.991H92.8269V209.421H98.5467V210.7L95.2875 214.892V214.942H98.6667V216.512H92.7069ZM100.134 216.512V215.339L103.605 211.041V210.991H100.254V209.421H105.973V210.7L102.714 214.892V214.942H106.093V216.512H100.134ZM109.619 216.646C109.167 216.646 108.764 216.567 108.41 216.41C108.056 216.25 107.776 216.015 107.57 215.704C107.366 215.39 107.265 214.999 107.265 214.531C107.265 214.138 107.337 213.807 107.482 213.539C107.627 213.271 107.824 213.056 108.073 212.893C108.322 212.73 108.605 212.606 108.922 212.523C109.242 212.44 109.578 212.382 109.929 212.348C110.341 212.305 110.673 212.265 110.926 212.228C111.178 212.188 111.361 212.129 111.475 212.052C111.589 211.976 111.646 211.862 111.646 211.711V211.683C111.646 211.391 111.554 211.165 111.369 211.005C111.187 210.844 110.929 210.764 110.593 210.764C110.239 210.764 109.958 210.843 109.749 211C109.539 211.154 109.401 211.348 109.333 211.582L107.514 211.434C107.607 211.003 107.788 210.631 108.059 210.317C108.33 210 108.679 209.757 109.107 209.587C109.538 209.415 110.036 209.329 110.603 209.329C110.997 209.329 111.374 209.375 111.734 209.467C112.097 209.56 112.418 209.703 112.699 209.897C112.982 210.09 113.205 210.34 113.368 210.644C113.531 210.946 113.613 211.308 113.613 211.729V216.512H111.748V215.529H111.692C111.578 215.75 111.426 215.946 111.235 216.115C111.044 216.281 110.815 216.412 110.547 216.507C110.279 216.6 109.97 216.646 109.619 216.646ZM110.183 215.289C110.472 215.289 110.727 215.232 110.949 215.118C111.17 215.001 111.344 214.844 111.471 214.647C111.597 214.45 111.66 214.227 111.66 213.978V213.225C111.598 213.265 111.514 213.302 111.406 213.336C111.301 213.367 111.183 213.396 111.05 213.424C110.918 213.448 110.786 213.471 110.653 213.493C110.521 213.511 110.401 213.528 110.293 213.544C110.063 213.577 109.861 213.631 109.689 213.705C109.516 213.779 109.382 213.879 109.287 214.005C109.192 214.128 109.144 214.282 109.144 214.467C109.144 214.735 109.241 214.939 109.435 215.081C109.632 215.219 109.881 215.289 110.183 215.289Z" fill="white"/>
<path opacity="0.4" d="M165 204.512H133C129.134 204.512 126 207.646 126 211.512C126 215.378 129.134 218.512 133 218.512H165C168.866 218.512 172 215.378 172 211.512C172 207.646 168.866 204.512 165 204.512Z" fill="white"/>
<path d="M369.114 210.05C369.039 209.705 368.908 209.448 368.722 209.28C368.535 209.103 368.269 209.014 367.924 209.014C367.392 209.014 367.009 209.247 366.776 209.714C366.542 210.171 366.421 210.899 366.412 211.898C366.617 211.571 366.911 211.315 367.294 211.128C367.686 210.941 368.115 210.848 368.582 210.848C369.496 210.848 370.229 211.137 370.78 211.716C371.34 212.295 371.62 213.102 371.62 214.138C371.62 214.819 371.48 215.417 371.2 215.93C370.929 216.443 370.528 216.845 369.996 217.134C369.473 217.423 368.852 217.568 368.134 217.568C366.696 217.568 365.698 217.12 365.138 216.224C364.578 215.319 364.298 214.021 364.298 212.332C364.298 210.559 364.592 209.243 365.18 208.384C365.777 207.516 366.729 207.082 368.036 207.082C368.736 207.082 369.324 207.222 369.8 207.502C370.285 207.773 370.649 208.132 370.892 208.58C371.144 209.028 371.293 209.518 371.34 210.05H369.114ZM368.008 212.738C367.606 212.738 367.27 212.859 367 213.102C366.738 213.335 366.608 213.671 366.608 214.11C366.608 214.558 366.729 214.908 366.972 215.16C367.224 215.412 367.578 215.538 368.036 215.538C368.446 215.538 368.768 215.417 369.002 215.174C369.244 214.922 369.366 214.581 369.366 214.152C369.366 213.713 369.249 213.368 369.016 213.116C368.782 212.864 368.446 212.738 368.008 212.738ZM373.03 215.692V213.76L377.454 207.432H380.128V213.62H381.276V215.692H380.128V217.512H377.734V215.692H373.03ZM377.902 210.064L375.55 213.62H377.902V210.064ZM382.252 209.868C382.252 209.112 382.467 208.529 382.896 208.118C383.335 207.707 383.9 207.502 384.59 207.502C385.281 207.502 385.841 207.707 386.27 208.118C386.7 208.529 386.914 209.112 386.914 209.868C386.914 210.624 386.7 211.207 386.27 211.618C385.841 212.029 385.281 212.234 384.59 212.234C383.9 212.234 383.335 212.029 382.896 211.618C382.467 211.207 382.252 210.624 382.252 209.868ZM391.758 207.656L386.368 217.512H384.058L389.448 207.656H391.758ZM384.576 208.902C384.128 208.902 383.904 209.224 383.904 209.868C383.904 210.503 384.128 210.82 384.576 210.82C384.791 210.82 384.959 210.741 385.08 210.582C385.202 210.423 385.262 210.185 385.262 209.868C385.262 209.224 385.034 208.902 384.576 208.902ZM388.916 215.3C388.916 214.544 389.131 213.961 389.56 213.55C389.99 213.139 390.55 212.934 391.24 212.934C391.931 212.934 392.491 213.139 392.92 213.55C393.35 213.961 393.564 214.544 393.564 215.3C393.564 216.056 393.35 216.639 392.92 217.05C392.491 217.461 391.931 217.666 391.24 217.666C390.55 217.666 389.99 217.461 389.56 217.05C389.131 216.639 388.916 216.056 388.916 215.3ZM391.226 214.334C391.012 214.334 390.844 214.413 390.722 214.572C390.61 214.731 390.554 214.973 390.554 215.3C390.554 215.935 390.778 216.252 391.226 216.252C391.441 216.252 391.609 216.173 391.73 216.014C391.852 215.855 391.912 215.617 391.912 215.3C391.912 214.983 391.852 214.745 391.73 214.586C391.609 214.418 391.441 214.334 391.226 214.334Z" fill="#111827"/>
<path d="M398 243.512H76C70.4772 243.512 66 247.989 66 253.512V273.512C66 279.035 70.4772 283.512 76 283.512H398C403.523 283.512 408 279.035 408 273.512V253.512C408 247.989 403.523 243.512 398 243.512Z" fill="#F3F4F6"/>
<path d="M148 243.512H76C70.4772 243.512 66 247.989 66 253.512V273.512C66 279.035 70.4772 283.512 76 283.512H148C153.523 283.512 158 279.035 158 273.512V253.512C158 247.989 153.523 243.512 148 243.512Z" fill="url(#paint1_linear_797_9917)"/>
<path d="M80.4616 260.705V259.057H88.2266V260.705H85.332V268.512H83.3562V260.705H80.4616ZM90.5256 268.646C90.0732 268.646 89.67 268.567 89.3161 268.41C88.9621 268.25 88.6821 268.015 88.4759 267.704C88.2727 267.39 88.1712 266.999 88.1712 266.531C88.1712 266.138 88.2435 265.807 88.3881 265.539C88.5328 265.271 88.7298 265.056 88.979 264.893C89.2283 264.73 89.5115 264.606 89.8285 264.523C90.1486 264.44 90.484 264.382 90.8349 264.348C91.2473 264.305 91.5797 264.265 91.832 264.228C92.0844 264.188 92.2675 264.129 92.3814 264.052C92.4953 263.976 92.5522 263.862 92.5522 263.711V263.683C92.5522 263.391 92.4599 263.165 92.2752 263.005C92.0936 262.844 91.8351 262.764 91.4996 262.764C91.1457 262.764 90.8641 262.843 90.6548 263C90.4455 263.154 90.3071 263.348 90.2393 263.582L88.4205 263.434C88.5128 263.003 88.6944 262.631 88.9652 262.317C89.236 262 89.5853 261.757 90.0131 261.587C90.444 261.415 90.9426 261.329 91.5089 261.329C91.9028 261.329 92.2798 261.375 92.6399 261.467C93.0031 261.56 93.3247 261.703 93.6048 261.897C93.8879 262.09 94.111 262.34 94.2741 262.644C94.4373 262.946 94.5188 263.308 94.5188 263.729V268.512H92.6538V267.529H92.5984C92.4845 267.75 92.3321 267.946 92.1413 268.115C91.9505 268.281 91.7212 268.412 91.4535 268.507C91.1857 268.6 90.8764 268.646 90.5256 268.646ZM91.0888 267.289C91.3781 267.289 91.6335 267.232 91.8551 267.118C92.0767 267.001 92.2506 266.844 92.3768 266.647C92.503 266.45 92.5661 266.227 92.5661 265.978V265.225C92.5045 265.265 92.4199 265.302 92.3121 265.336C92.2075 265.367 92.089 265.396 91.9567 265.424C91.8243 265.448 91.692 265.471 91.5597 265.493C91.4273 265.511 91.3073 265.528 91.1996 265.544C90.9688 265.577 90.7672 265.631 90.5948 265.705C90.4225 265.779 90.2886 265.879 90.1932 266.005C90.0978 266.128 90.0501 266.282 90.0501 266.467C90.0501 266.735 90.147 266.939 90.3409 267.081C90.5379 267.219 90.7872 267.289 91.0888 267.289ZM99.2484 268.65C98.5221 268.65 97.8973 268.497 97.3741 268.189C96.854 267.878 96.4539 267.447 96.1738 266.896C95.8968 266.345 95.7583 265.711 95.7583 264.994C95.7583 264.268 95.8984 263.631 96.1784 263.083C96.4616 262.532 96.8632 262.103 97.3833 261.795C97.9035 261.484 98.5221 261.329 99.2392 261.329C99.8578 261.329 100.399 261.441 100.864 261.666C101.329 261.89 101.697 262.206 101.968 262.612C102.238 263.018 102.388 263.495 102.415 264.043H100.559C100.507 263.689 100.369 263.405 100.144 263.189C99.9224 262.971 99.6316 262.861 99.2715 262.861C98.9668 262.861 98.7006 262.944 98.4728 263.111C98.2482 263.274 98.0727 263.512 97.9466 263.826C97.8204 264.14 97.7573 264.52 97.7573 264.967C97.7573 265.419 97.8188 265.804 97.9419 266.121C98.0681 266.438 98.2451 266.679 98.4728 266.845C98.7006 267.012 98.9668 267.095 99.2715 267.095C99.4962 267.095 99.6977 267.049 99.8762 266.956C100.058 266.864 100.207 266.73 100.324 266.555C100.444 266.376 100.523 266.162 100.559 265.913H102.415C102.385 266.455 102.237 266.932 101.972 267.344C101.711 267.753 101.349 268.073 100.887 268.304C100.426 268.535 99.8793 268.65 99.2484 268.65ZM106.878 268.65C106.161 268.65 105.541 268.498 105.018 268.193C104.498 267.886 104.096 267.458 103.813 266.91C103.53 266.359 103.388 265.721 103.388 264.994C103.388 264.262 103.53 263.622 103.813 263.074C104.096 262.523 104.498 262.095 105.018 261.79C105.541 261.483 106.161 261.329 106.878 261.329C107.595 261.329 108.214 261.483 108.734 261.79C109.257 262.095 109.66 262.523 109.944 263.074C110.227 263.622 110.368 264.262 110.368 264.994C110.368 265.721 110.227 266.359 109.944 266.91C109.66 267.458 109.257 267.886 108.734 268.193C108.214 268.498 107.595 268.65 106.878 268.65ZM106.888 267.127C107.214 267.127 107.486 267.035 107.705 266.85C107.923 266.662 108.088 266.407 108.199 266.084C108.312 265.761 108.369 265.393 108.369 264.98C108.369 264.568 108.312 264.2 108.199 263.877C108.088 263.554 107.923 263.298 107.705 263.111C107.486 262.923 107.214 262.829 106.888 262.829C106.558 262.829 106.281 262.923 106.057 263.111C105.835 263.298 105.667 263.554 105.553 263.877C105.443 264.2 105.387 264.568 105.387 264.98C105.387 265.393 105.443 265.761 105.553 266.084C105.667 266.407 105.835 266.662 106.057 266.85C106.281 267.035 106.558 267.127 106.888 267.127ZM117.547 263.443L115.747 263.554C115.716 263.4 115.65 263.261 115.548 263.138C115.446 263.012 115.313 262.912 115.146 262.838C114.983 262.761 114.788 262.723 114.56 262.723C114.255 262.723 113.998 262.788 113.789 262.917C113.58 263.043 113.475 263.212 113.475 263.425C113.475 263.594 113.543 263.737 113.678 263.854C113.814 263.971 114.046 264.065 114.375 264.136L115.659 264.394C116.348 264.536 116.862 264.763 117.201 265.077C117.539 265.391 117.709 265.804 117.709 266.315C117.709 266.779 117.572 267.187 117.298 267.538C117.027 267.889 116.654 268.163 116.18 268.36C115.71 268.554 115.166 268.65 114.551 268.65C113.612 268.65 112.864 268.455 112.307 268.064C111.753 267.67 111.429 267.135 111.333 266.458L113.267 266.356C113.326 266.642 113.468 266.861 113.692 267.012C113.917 267.159 114.205 267.233 114.555 267.233C114.9 267.233 115.177 267.167 115.386 267.035C115.599 266.899 115.707 266.725 115.71 266.513C115.707 266.335 115.631 266.188 115.483 266.074C115.336 265.958 115.108 265.868 114.8 265.807L113.572 265.562C112.88 265.424 112.364 265.183 112.026 264.842C111.69 264.5 111.522 264.065 111.522 263.535C111.522 263.08 111.646 262.688 111.892 262.358C112.141 262.029 112.49 261.775 112.94 261.596C113.392 261.418 113.921 261.329 114.528 261.329C115.423 261.329 116.128 261.518 116.642 261.897C117.159 262.275 117.461 262.791 117.547 263.443Z" fill="white"/>
<path d="M366.874 267.594C367.191 267.342 367.336 267.225 367.308 267.244C368.223 266.488 368.941 265.867 369.464 265.382C369.996 264.897 370.444 264.388 370.808 263.856C371.172 263.324 371.354 262.806 371.354 262.302C371.354 261.919 371.265 261.621 371.088 261.406C370.911 261.191 370.645 261.084 370.29 261.084C369.935 261.084 369.655 261.219 369.45 261.49C369.254 261.751 369.156 262.125 369.156 262.61H366.846C366.865 261.817 367.033 261.154 367.35 260.622C367.677 260.09 368.101 259.698 368.624 259.446C369.156 259.194 369.744 259.068 370.388 259.068C371.499 259.068 372.334 259.353 372.894 259.922C373.463 260.491 373.748 261.233 373.748 262.148C373.748 263.147 373.407 264.075 372.726 264.934C372.045 265.783 371.177 266.614 370.122 267.426H373.902V269.372H366.874V267.594ZM381.48 261.084L377.966 269.512H375.516L379.072 261.35H374.718V259.306H381.48V261.084ZM382.252 261.868C382.252 261.112 382.467 260.529 382.896 260.118C383.335 259.707 383.9 259.502 384.59 259.502C385.281 259.502 385.841 259.707 386.27 260.118C386.7 260.529 386.914 261.112 386.914 261.868C386.914 262.624 386.7 263.207 386.27 263.618C385.841 264.029 385.281 264.234 384.59 264.234C383.9 264.234 383.335 264.029 382.896 263.618C382.467 263.207 382.252 262.624 382.252 261.868ZM391.758 259.656L386.368 269.512H384.058L389.448 259.656H391.758ZM384.576 260.902C384.128 260.902 383.904 261.224 383.904 261.868C383.904 262.503 384.128 262.82 384.576 262.82C384.791 262.82 384.959 262.741 385.08 262.582C385.202 262.423 385.262 262.185 385.262 261.868C385.262 261.224 385.034 260.902 384.576 260.902ZM388.916 267.3C388.916 266.544 389.131 265.961 389.56 265.55C389.99 265.139 390.55 264.934 391.24 264.934C391.931 264.934 392.491 265.139 392.92 265.55C393.35 265.961 393.564 266.544 393.564 267.3C393.564 268.056 393.35 268.639 392.92 269.05C392.491 269.461 391.931 269.666 391.24 269.666C390.55 269.666 389.99 269.461 389.56 269.05C389.131 268.639 388.916 268.056 388.916 267.3ZM391.226 266.334C391.012 266.334 390.844 266.413 390.722 266.572C390.61 266.731 390.554 266.973 390.554 267.3C390.554 267.935 390.778 268.252 391.226 268.252C391.441 268.252 391.609 268.173 391.73 268.014C391.852 267.855 391.912 267.617 391.912 267.3C391.912 266.983 391.852 266.745 391.73 266.586C391.609 266.418 391.441 266.334 391.226 266.334Z" fill="#374151"/>
<path d="M398 295.512H76C70.4772 295.512 66 299.989 66 305.512V325.512C66 331.035 70.4772 335.512 76 335.512H398C403.523 335.512 408 331.035 408 325.512V305.512C408 299.989 403.523 295.512 398 295.512Z" fill="#F3F4F6"/>
<path d="M88 295.512H76C70.4772 295.512 66 299.989 66 305.512V325.512C66 331.035 70.4772 335.512 76 335.512H88C93.5228 335.512 98 331.035 98 325.512V305.512C98 299.989 93.5228 295.512 88 295.512Z" fill="#E9D5FF"/>
<path d="M85.9506 313.777C85.9137 313.404 85.7552 313.115 85.4751 312.909C85.1951 312.702 84.815 312.599 84.3349 312.599C84.0086 312.599 83.7332 312.645 83.5085 312.738C83.2839 312.827 83.1115 312.952 82.9915 313.112C82.8745 313.272 82.8161 313.453 82.8161 313.656C82.8099 313.826 82.8453 313.973 82.9222 314.1C83.0022 314.226 83.1115 314.335 83.25 314.427C83.3885 314.517 83.5485 314.595 83.7301 314.663C83.9117 314.728 84.1056 314.783 84.3118 314.829L85.1612 315.032C85.5736 315.125 85.9522 315.248 86.2969 315.402C86.6416 315.555 86.9401 315.745 87.1925 315.969C87.4448 316.194 87.6403 316.459 87.7788 316.763C87.9203 317.068 87.9927 317.417 87.9957 317.811C87.9927 318.39 87.8449 318.892 87.5526 319.316C87.2633 319.738 86.8447 320.066 86.2969 320.3C85.7521 320.53 85.0951 320.646 84.3256 320.646C83.5624 320.646 82.8976 320.529 82.3313 320.295C81.7681 320.061 81.328 319.715 81.011 319.256C80.6971 318.795 80.5324 318.224 80.517 317.544H82.4513C82.4729 317.861 82.5637 318.125 82.7237 318.338C82.8868 318.547 83.1038 318.705 83.3746 318.813C83.6486 318.918 83.9579 318.97 84.3026 318.97C84.6411 318.97 84.935 318.921 85.1843 318.822C85.4367 318.724 85.6321 318.587 85.7706 318.411C85.9091 318.236 85.9783 318.034 85.9783 317.807C85.9783 317.594 85.9152 317.416 85.7891 317.271C85.666 317.127 85.4844 317.003 85.2443 316.902C85.0073 316.8 84.7165 316.708 84.3718 316.625L83.3423 316.366C82.5452 316.172 81.9158 315.869 81.4542 315.457C80.9925 315.045 80.7633 314.489 80.7663 313.79C80.7633 313.218 80.9156 312.718 81.2234 312.29C81.5342 311.862 81.9605 311.528 82.5021 311.288C83.0438 311.048 83.6593 310.928 84.3487 310.928C85.0504 310.928 85.6629 311.048 86.1861 311.288C86.7124 311.528 87.1217 311.862 87.4141 312.29C87.7064 312.718 87.8572 313.213 87.8665 313.777H85.9506ZM93.8506 317.493V313.421H95.8172V320.512H93.9291V319.224H93.8552C93.6952 319.639 93.4289 319.973 93.0566 320.226C92.6872 320.478 92.2364 320.604 91.7039 320.604C91.23 320.604 90.8129 320.497 90.4529 320.281C90.0928 320.066 89.8112 319.759 89.608 319.362C89.408 318.965 89.3064 318.49 89.3034 317.936V313.421H91.27V317.585C91.2731 318.004 91.3854 318.335 91.607 318.578C91.8286 318.821 92.1256 318.942 92.498 318.942C92.7349 318.942 92.9565 318.889 93.1627 318.781C93.3689 318.67 93.5351 318.507 93.6613 318.291C93.7906 318.076 93.8537 317.81 93.8506 317.493ZM103.29 315.443L101.49 315.554C101.459 315.4 101.393 315.261 101.291 315.138C101.19 315.012 101.056 314.912 100.89 314.838C100.726 314.761 100.531 314.723 100.303 314.723C99.9986 314.723 99.7416 314.788 99.5323 314.917C99.323 315.043 99.2184 315.212 99.2184 315.425C99.2184 315.594 99.2861 315.737 99.4215 315.854C99.5569 315.971 99.7893 316.065 100.119 316.136L101.402 316.394C102.091 316.536 102.605 316.763 102.944 317.077C103.282 317.391 103.452 317.804 103.452 318.315C103.452 318.779 103.315 319.187 103.041 319.538C102.77 319.889 102.398 320.163 101.924 320.36C101.453 320.554 100.91 320.65 100.294 320.65C99.3554 320.65 98.6075 320.455 98.0504 320.064C97.4964 319.67 97.1718 319.135 97.0763 318.458L99.0107 318.356C99.0691 318.642 99.2107 318.861 99.4354 319.012C99.66 319.159 99.9478 319.233 100.299 319.233C100.643 319.233 100.92 319.167 101.13 319.035C101.342 318.899 101.45 318.725 101.453 318.513C101.45 318.335 101.374 318.188 101.227 318.074C101.079 317.958 100.851 317.868 100.543 317.807L99.3153 317.562C98.6229 317.424 98.1074 317.183 97.7688 316.842C97.4334 316.5 97.2656 316.065 97.2656 315.535C97.2656 315.08 97.3887 314.688 97.6349 314.358C97.8842 314.029 98.2335 313.775 98.6829 313.596C99.1353 313.418 99.6647 313.329 100.271 313.329C101.167 313.329 101.871 313.518 102.385 313.897C102.902 314.275 103.204 314.791 103.29 315.443ZM106.657 316.413V320.512H104.69V311.057H106.601V314.672H106.684C106.844 314.254 107.103 313.926 107.46 313.689C107.817 313.449 108.265 313.329 108.803 313.329C109.296 313.329 109.725 313.436 110.091 313.652C110.461 313.864 110.747 314.17 110.95 314.571C111.156 314.968 111.258 315.443 111.255 315.997V320.512H109.288V316.348C109.291 315.911 109.18 315.571 108.956 315.328C108.734 315.085 108.423 314.963 108.023 314.963C107.755 314.963 107.518 315.02 107.312 315.134C107.109 315.248 106.949 315.414 106.832 315.632C106.718 315.848 106.66 316.108 106.657 316.413ZM112.802 320.512V313.421H114.769V320.512H112.802ZM113.79 312.507C113.498 312.507 113.247 312.41 113.038 312.216C112.832 312.019 112.729 311.784 112.729 311.51C112.729 311.239 112.832 311.007 113.038 310.813C113.247 310.616 113.498 310.517 113.79 310.517C114.083 310.517 114.332 310.616 114.538 310.813C114.747 311.007 114.852 311.239 114.852 311.51C114.852 311.784 114.747 312.019 114.538 312.216C114.332 312.41 114.083 312.507 113.79 312.507Z" fill="#374151"/>
<path d="M376.411 318.516C376.551 319.253 376.98 319.622 377.699 319.622C378.194 319.622 378.544 319.403 378.749 318.964C378.954 318.525 379.057 317.811 379.057 316.822C378.852 317.111 378.572 317.335 378.217 317.494C377.862 317.653 377.466 317.732 377.027 317.732C376.43 317.732 375.898 317.611 375.431 317.368C374.964 317.116 374.596 316.747 374.325 316.262C374.064 315.767 373.933 315.17 373.933 314.47C373.933 313.779 374.073 313.177 374.353 312.664C374.642 312.151 375.048 311.754 375.571 311.474C376.103 311.194 376.728 311.054 377.447 311.054C378.828 311.054 379.794 311.483 380.345 312.342C380.896 313.201 381.171 314.465 381.171 316.136C381.171 317.349 381.059 318.353 380.835 319.146C380.62 319.93 380.252 320.527 379.729 320.938C379.216 321.349 378.511 321.554 377.615 321.554C376.906 321.554 376.299 321.414 375.795 321.134C375.3 320.854 374.918 320.485 374.647 320.028C374.386 319.571 374.236 319.067 374.199 318.516H376.411ZM377.573 315.842C377.965 315.842 378.278 315.725 378.511 315.492C378.744 315.249 378.861 314.923 378.861 314.512C378.861 314.064 378.74 313.719 378.497 313.476C378.254 313.233 377.928 313.112 377.517 313.112C377.106 313.112 376.78 313.238 376.537 313.49C376.304 313.733 376.187 314.069 376.187 314.498C376.187 314.899 376.304 315.226 376.537 315.478C376.78 315.721 377.125 315.842 377.573 315.842ZM382.252 313.868C382.252 313.112 382.467 312.529 382.896 312.118C383.335 311.707 383.9 311.502 384.59 311.502C385.281 311.502 385.841 311.707 386.27 312.118C386.7 312.529 386.914 313.112 386.914 313.868C386.914 314.624 386.7 315.207 386.27 315.618C385.841 316.029 385.281 316.234 384.59 316.234C383.9 316.234 383.335 316.029 382.896 315.618C382.467 315.207 382.252 314.624 382.252 313.868ZM391.758 311.656L386.368 321.512H384.058L389.448 311.656H391.758ZM384.576 312.902C384.128 312.902 383.904 313.224 383.904 313.868C383.904 314.503 384.128 314.82 384.576 314.82C384.791 314.82 384.959 314.741 385.08 314.582C385.202 314.423 385.262 314.185 385.262 313.868C385.262 313.224 385.034 312.902 384.576 312.902ZM388.916 319.3C388.916 318.544 389.131 317.961 389.56 317.55C389.99 317.139 390.55 316.934 391.24 316.934C391.931 316.934 392.491 317.139 392.92 317.55C393.35 317.961 393.564 318.544 393.564 319.3C393.564 320.056 393.35 320.639 392.92 321.05C392.491 321.461 391.931 321.666 391.24 321.666C390.55 321.666 389.99 321.461 389.56 321.05C389.131 320.639 388.916 320.056 388.916 319.3ZM391.226 318.334C391.012 318.334 390.844 318.413 390.722 318.572C390.61 318.731 390.554 318.973 390.554 319.3C390.554 319.935 390.778 320.252 391.226 320.252C391.441 320.252 391.609 320.173 391.73 320.014C391.852 319.855 391.912 319.617 391.912 319.3C391.912 318.983 391.852 318.745 391.73 318.586C391.609 318.418 391.441 318.334 391.226 318.334Z" fill="#374151"/>
<path d="M79.8849 388.363C87.5533 388.363 93.7698 382.147 93.7698 374.478C93.7698 366.81 87.5533 360.594 79.8849 360.594C72.2165 360.594 66 366.81 66 374.478C66 382.147 72.2165 388.363 79.8849 388.363Z" fill="#9050F9" stroke="white"/>
<path d="M99.3234 388.363C106.992 388.363 113.208 382.147 113.208 374.478C113.208 366.81 106.992 360.594 99.3234 360.594C91.655 360.594 85.4385 366.81 85.4385 374.478C85.4385 382.147 91.655 388.363 99.3234 388.363Z" fill="#8F4FF8" stroke="white"/>
<path d="M118.763 388.363C126.431 388.363 132.648 382.147 132.648 374.478C132.648 366.81 126.431 360.594 118.763 360.594C111.094 360.594 104.878 366.81 104.878 374.478C104.878 382.147 111.094 388.363 118.763 388.363Z" fill="#B591FD" stroke="white"/>
<path d="M147.885 370.478V378.478H146.193V372.084H146.146L144.314 373.232V371.732L146.295 370.478H147.885ZM149.665 377.072V375.74L153.005 370.478H154.153V372.322H153.474L151.368 375.654V375.717H156.114V377.072H149.665ZM153.505 378.478V376.666L153.536 376.076V370.478H155.122V378.478H153.505ZM157.241 378.478V377.26L160.089 374.623C160.331 374.388 160.534 374.177 160.698 373.99C160.865 373.802 160.991 373.619 161.077 373.439C161.163 373.257 161.206 373.06 161.206 372.849C161.206 372.615 161.153 372.413 161.046 372.244C160.939 372.072 160.793 371.941 160.608 371.849C160.424 371.756 160.214 371.709 159.979 371.709C159.735 371.709 159.521 371.758 159.339 371.857C159.157 371.956 159.016 372.098 158.917 372.283C158.818 372.468 158.769 372.688 158.769 372.943H157.163C157.163 372.42 157.282 371.965 157.519 371.58C157.756 371.194 158.088 370.896 158.515 370.685C158.942 370.474 159.434 370.369 159.991 370.369C160.564 370.369 161.063 370.47 161.487 370.674C161.914 370.874 162.246 371.153 162.483 371.51C162.72 371.866 162.839 372.275 162.839 372.736C162.839 373.038 162.779 373.336 162.659 373.631C162.542 373.925 162.332 374.252 162.03 374.611C161.728 374.968 161.302 375.396 160.753 375.896L159.585 377.041V377.095H162.944V378.478H157.241ZM172.325 372.478L170.228 378.478H168.353L166.255 372.478H168.013L169.259 376.771H169.321L170.563 372.478H172.325ZM175.694 378.595C175.088 378.595 174.563 378.467 174.12 378.209C173.68 377.948 173.34 377.586 173.101 377.123C172.861 376.657 172.741 376.116 172.741 375.502C172.741 374.882 172.861 374.34 173.101 373.877C173.34 373.411 173.68 373.049 174.12 372.791C174.563 372.53 175.088 372.4 175.694 372.4C176.301 372.4 176.825 372.53 177.265 372.791C177.707 373.049 178.049 373.411 178.288 373.877C178.528 374.34 178.647 374.882 178.647 375.502C178.647 376.116 178.528 376.657 178.288 377.123C178.049 377.586 177.707 377.948 177.265 378.209C176.825 378.467 176.301 378.595 175.694 378.595ZM175.702 377.306C175.978 377.306 176.209 377.228 176.394 377.072C176.578 376.913 176.718 376.697 176.812 376.424C176.908 376.15 176.956 375.839 176.956 375.49C176.956 375.141 176.908 374.83 176.812 374.556C176.718 374.283 176.578 374.067 176.394 373.908C176.209 373.749 175.978 373.67 175.702 373.67C175.424 373.67 175.189 373.749 174.999 373.908C174.812 374.067 174.67 374.283 174.573 374.556C174.479 374.83 174.433 375.141 174.433 375.49C174.433 375.839 174.479 376.15 174.573 376.424C174.67 376.697 174.812 376.913 174.999 377.072C175.189 377.228 175.424 377.306 175.702 377.306ZM182.921 372.478V373.728H179.308V372.478H182.921ZM180.128 371.041H181.792V376.635C181.792 376.788 181.815 376.908 181.862 376.994C181.909 377.077 181.974 377.136 182.058 377.17C182.144 377.204 182.243 377.22 182.354 377.22C182.433 377.22 182.511 377.214 182.589 377.201C182.667 377.185 182.727 377.174 182.769 377.166L183.03 378.404C182.947 378.43 182.83 378.46 182.679 378.494C182.528 378.53 182.344 378.552 182.128 378.56C181.727 378.576 181.375 378.523 181.073 378.4C180.774 378.278 180.541 378.088 180.374 377.83C180.207 377.572 180.125 377.247 180.128 376.853V371.041ZM186.675 378.595C186.058 378.595 185.526 378.47 185.081 378.22C184.638 377.968 184.297 377.611 184.058 377.15C183.818 376.687 183.698 376.138 183.698 375.506C183.698 374.888 183.818 374.347 184.058 373.881C184.297 373.414 184.634 373.051 185.069 372.791C185.507 372.53 186.02 372.4 186.608 372.4C187.004 372.4 187.373 372.464 187.714 372.592C188.058 372.717 188.357 372.905 188.612 373.158C188.87 373.411 189.071 373.728 189.214 374.111C189.357 374.491 189.429 374.937 189.429 375.447V375.904H184.362V374.873H187.862C187.862 374.633 187.81 374.421 187.706 374.236C187.602 374.051 187.457 373.907 187.272 373.802C187.09 373.696 186.878 373.642 186.636 373.642C186.383 373.642 186.159 373.701 185.964 373.818C185.771 373.933 185.62 374.088 185.511 374.283C185.401 374.476 185.345 374.691 185.343 374.927V375.908C185.343 376.205 185.397 376.461 185.507 376.677C185.619 376.894 185.776 377.06 185.979 377.177C186.183 377.295 186.424 377.353 186.702 377.353C186.887 377.353 187.056 377.327 187.21 377.275C187.364 377.223 187.495 377.145 187.604 377.041C187.714 376.937 187.797 376.809 187.854 376.658L189.394 376.76C189.315 377.129 189.155 377.452 188.913 377.728C188.674 378.002 188.364 378.215 187.983 378.369C187.606 378.52 187.17 378.595 186.675 378.595ZM195.507 374.189L193.983 374.283C193.957 374.153 193.901 374.036 193.815 373.931C193.729 373.825 193.616 373.74 193.476 373.677C193.338 373.612 193.172 373.58 192.979 373.58C192.722 373.58 192.504 373.635 192.327 373.744C192.15 373.851 192.062 373.994 192.062 374.174C192.062 374.317 192.119 374.438 192.233 374.537C192.348 374.636 192.545 374.715 192.823 374.775L193.909 374.994C194.493 375.114 194.927 375.306 195.214 375.572C195.5 375.838 195.644 376.187 195.644 376.619C195.644 377.012 195.528 377.357 195.296 377.654C195.067 377.951 194.752 378.183 194.351 378.349C193.952 378.513 193.493 378.595 192.972 378.595C192.177 378.595 191.545 378.43 191.073 378.099C190.604 377.766 190.33 377.313 190.249 376.74L191.886 376.654C191.935 376.896 192.055 377.081 192.245 377.209C192.435 377.334 192.679 377.396 192.976 377.396C193.267 377.396 193.502 377.34 193.679 377.228C193.858 377.114 193.95 376.967 193.952 376.787C193.95 376.636 193.886 376.512 193.761 376.416C193.636 376.317 193.443 376.241 193.183 376.189L192.144 375.982C191.558 375.865 191.121 375.662 190.835 375.373C190.551 375.084 190.409 374.715 190.409 374.267C190.409 373.882 190.513 373.55 190.722 373.271C190.933 372.993 191.228 372.778 191.608 372.627C191.991 372.476 192.439 372.4 192.952 372.4C193.71 372.4 194.306 372.56 194.741 372.881C195.179 373.201 195.434 373.637 195.507 374.189Z" fill="#374151"/>
<path d="M126 142.937H70C67.7909 142.937 66 144.728 66 146.937C66 149.146 67.7909 150.937 70 150.937H126C128.209 150.937 130 149.146 130 146.937C130 144.728 128.209 142.937 126 142.937Z" fill="#70747D"/>
<path opacity="0.34" d="M238 158.43H70C67.7909 158.43 66 160.221 66 162.43C66 164.639 67.7909 166.43 70 166.43H238C240.209 166.43 242 164.639 242 162.43C242 160.221 240.209 158.43 238 158.43Z" fill="#70747D"/>
<path d="M86.484 618.46H80.22V624.868H74.388V618.46H68.124V612.952H74.388V606.508H80.22V612.952H86.484V618.46ZM103.221 609.1C103.029 608.212 102.693 607.552 102.213 607.12C101.733 606.664 101.049 606.436 100.161 606.436C98.7935 606.436 97.8095 607.036 97.2095 608.236C96.6095 609.412 96.2975 611.284 96.2735 613.852C96.8015 613.012 97.5575 612.352 98.5415 611.872C99.5495 611.392 100.653 611.152 101.853 611.152C104.205 611.152 106.089 611.896 107.505 613.384C108.945 614.872 109.665 616.948 109.665 619.612C109.665 621.364 109.305 622.9 108.585 624.22C107.889 625.54 106.857 626.572 105.489 627.316C104.145 628.06 102.549 628.432 100.701 628.432C97.0055 628.432 94.4375 627.28 92.9975 624.976C91.5575 622.648 90.8375 619.312 90.8375 614.968C90.8375 610.408 91.5935 607.024 93.1055 604.816C94.6415 602.584 97.0895 601.468 100.449 601.468C102.249 601.468 103.761 601.828 104.985 602.548C106.233 603.244 107.169 604.168 107.793 605.32C108.441 606.472 108.825 607.732 108.945 609.1H103.221ZM100.377 616.012C99.3455 616.012 98.4815 616.324 97.7855 616.948C97.1135 617.548 96.7775 618.412 96.7775 619.54C96.7775 620.692 97.0895 621.592 97.7135 622.24C98.3615 622.888 99.2735 623.212 100.449 623.212C101.505 623.212 102.333 622.9 102.933 622.276C103.557 621.628 103.869 620.752 103.869 619.648C103.869 618.52 103.569 617.632 102.969 616.984C102.369 616.336 101.505 616.012 100.377 616.012ZM112.931 623.356C113.747 622.708 114.119 622.408 114.047 622.456C116.399 620.512 118.247 618.916 119.591 617.668C120.959 616.42 122.111 615.112 123.047 613.744C123.983 612.376 124.451 611.044 124.451 609.748C124.451 608.764 124.223 607.996 123.767 607.444C123.311 606.892 122.627 606.616 121.715 606.616C120.803 606.616 120.083 606.964 119.555 607.66C119.051 608.332 118.799 609.292 118.799 610.54H112.859C112.907 608.5 113.339 606.796 114.155 605.428C114.995 604.06 116.087 603.052 117.431 602.404C118.799 601.756 120.311 601.432 121.967 601.432C124.823 601.432 126.971 602.164 128.411 603.628C129.875 605.092 130.607 607 130.607 609.352C130.607 611.92 129.731 614.308 127.979 616.516C126.227 618.7 123.995 620.836 121.283 622.924H131.003V627.928H112.931V623.356Z" fill="#111827"/>
<path d="M195 605.288H159C153.477 605.288 149 609.765 149 615.288C149 620.811 153.477 625.288 159 625.288H195C200.523 625.288 205 620.811 205 615.288C205 609.765 200.523 605.288 195 605.288Z" fill="#B591FD"/>
<path d="M66.7585 530.288V521.561H70.2017C70.8636 521.561 71.4276 521.687 71.8935 521.94C72.3594 522.19 72.7145 522.538 72.9588 522.984C73.206 523.428 73.3295 523.939 73.3295 524.518C73.3295 525.098 73.2045 525.609 72.9545 526.053C72.7045 526.496 72.3423 526.841 71.8679 527.088C71.3963 527.335 70.8253 527.459 70.1548 527.459H67.9602V525.98H69.8565C70.2116 525.98 70.5043 525.919 70.7344 525.797C70.9673 525.672 71.1406 525.5 71.2543 525.281C71.3707 525.06 71.429 524.805 71.429 524.518C71.429 524.229 71.3707 523.976 71.2543 523.76C71.1406 523.541 70.9673 523.372 70.7344 523.253C70.5014 523.131 70.206 523.07 69.848 523.07H68.6037V530.288H66.7585ZM82.5479 525.925C82.5479 526.876 82.3675 527.686 82.0067 528.354C81.6488 529.021 81.1602 529.531 80.5408 529.884C79.9244 530.233 79.2312 530.408 78.4613 530.408C77.6857 530.408 76.9897 530.232 76.3732 529.879C75.7567 529.527 75.2695 529.017 74.9116 528.349C74.5536 527.682 74.3746 526.874 74.3746 525.925C74.3746 524.973 74.5536 524.163 74.9116 523.496C75.2695 522.828 75.7567 522.32 76.3732 521.97C76.9897 521.618 77.6857 521.442 78.4613 521.442C79.2312 521.442 79.9244 521.618 80.5408 521.97C81.1602 522.32 81.6488 522.828 82.0067 523.496C82.3675 524.163 82.5479 524.973 82.5479 525.925ZM80.6772 525.925C80.6772 525.308 80.5849 524.788 80.4002 524.365C80.2184 523.942 79.9613 523.621 79.6289 523.402C79.2965 523.183 78.9073 523.074 78.4613 523.074C78.0153 523.074 77.6261 523.183 77.2937 523.402C76.9613 523.621 76.7028 523.942 76.5181 524.365C76.3363 524.788 76.2454 525.308 76.2454 525.925C76.2454 526.541 76.3363 527.061 76.5181 527.484C76.7028 527.908 76.9613 528.229 77.2937 528.447C77.6261 528.666 78.0153 528.776 78.4613 528.776C78.9073 528.776 79.2965 528.666 79.6289 528.447C79.9613 528.229 80.2184 527.908 80.4002 527.484C80.5849 527.061 80.6772 526.541 80.6772 525.925ZM83.9148 530.288V521.561H87.358C88.017 521.561 88.5795 521.679 89.0455 521.915C89.5142 522.148 89.8707 522.479 90.1151 522.908C90.3622 523.334 90.4858 523.835 90.4858 524.412C90.4858 524.991 90.3608 525.49 90.1108 525.908C89.8608 526.322 89.4986 526.641 89.0241 526.862C88.5526 527.084 87.9815 527.195 87.3111 527.195H85.0057V525.712H87.0128C87.3651 525.712 87.6577 525.663 87.8906 525.567C88.1236 525.47 88.2969 525.325 88.4105 525.132C88.527 524.939 88.5852 524.699 88.5852 524.412C88.5852 524.122 88.527 523.878 88.4105 523.679C88.2969 523.48 88.1222 523.33 87.8864 523.227C87.6534 523.122 87.3594 523.07 87.0043 523.07H85.7599V530.288H83.9148ZM88.6278 526.317L90.7969 530.288H88.7599L86.6378 526.317H88.6278ZM91.4574 523.082V521.561H98.625V523.082H95.9531V530.288H94.1293V523.082H91.4574ZM99.8054 530.288V521.561H105.584V523.082H101.651V525.162H105.2V526.683H101.651V530.288H99.8054ZM114.845 525.925C114.845 526.876 114.664 527.686 114.304 528.354C113.946 529.021 113.457 529.531 112.838 529.884C112.221 530.233 111.528 530.408 110.758 530.408C109.983 530.408 109.287 530.232 108.67 529.879C108.054 529.527 107.566 529.017 107.208 528.349C106.85 527.682 106.672 526.874 106.672 525.925C106.672 524.973 106.85 524.163 107.208 523.496C107.566 522.828 108.054 522.32 108.67 521.97C109.287 521.618 109.983 521.442 110.758 521.442C111.528 521.442 112.221 521.618 112.838 521.97C113.457 522.32 113.946 522.828 114.304 523.496C114.664 524.163 114.845 524.973 114.845 525.925ZM112.974 525.925C112.974 525.308 112.882 524.788 112.697 524.365C112.515 523.942 112.258 523.621 111.926 523.402C111.593 523.183 111.204 523.074 110.758 523.074C110.312 523.074 109.923 523.183 109.591 523.402C109.258 523.621 109 523.942 108.815 524.365C108.633 524.788 108.542 525.308 108.542 525.925C108.542 526.541 108.633 527.061 108.815 527.484C109 527.908 109.258 528.229 109.591 528.447C109.923 528.666 110.312 528.776 110.758 528.776C111.204 528.776 111.593 528.666 111.926 528.447C112.258 528.229 112.515 527.908 112.697 527.484C112.882 527.061 112.974 526.541 112.974 525.925ZM116.212 530.288V521.561H118.057V528.767H121.798V530.288H116.212ZM124.865 521.561V530.288H123.02V521.561H124.865ZM134.403 525.925C134.403 526.876 134.223 527.686 133.862 528.354C133.504 529.021 133.016 529.531 132.396 529.884C131.78 530.233 131.087 530.408 130.317 530.408C129.541 530.408 128.845 530.232 128.229 529.879C127.612 529.527 127.125 529.017 126.767 528.349C126.409 527.682 126.23 526.874 126.23 525.925C126.23 524.973 126.409 524.163 126.767 523.496C127.125 522.828 127.612 522.32 128.229 521.97C128.845 521.618 129.541 521.442 130.317 521.442C131.087 521.442 131.78 521.618 132.396 521.97C133.016 522.32 133.504 522.828 133.862 523.496C134.223 524.163 134.403 524.973 134.403 525.925ZM132.533 525.925C132.533 525.308 132.44 524.788 132.256 524.365C132.074 523.942 131.817 523.621 131.484 523.402C131.152 523.183 130.763 523.074 130.317 523.074C129.871 523.074 129.482 523.183 129.149 523.402C128.817 523.621 128.558 523.942 128.374 524.365C128.192 524.788 128.101 525.308 128.101 525.925C128.101 526.541 128.192 527.061 128.374 527.484C128.558 527.908 128.817 528.229 129.149 528.447C129.482 528.666 129.871 528.776 130.317 528.776C130.763 528.776 131.152 528.666 131.484 528.447C131.817 528.229 132.074 527.908 132.256 527.484C132.44 527.061 132.533 526.541 132.533 525.925ZM145.847 521.561V530.288H144.254L140.457 524.795H140.393V530.288H138.548V521.561H140.167L143.934 527.05H144.011V521.561H145.847ZM147.372 530.288V521.561H150.815C151.477 521.561 152.041 521.687 152.507 521.94C152.973 522.19 153.328 522.538 153.572 522.984C153.819 523.428 153.943 523.939 153.943 524.518C153.943 525.098 153.818 525.609 153.568 526.053C153.318 526.496 152.956 526.841 152.481 527.088C152.01 527.335 151.439 527.459 150.768 527.459H148.574V525.98H150.47C150.825 525.98 151.118 525.919 151.348 525.797C151.581 525.672 151.754 525.5 151.868 525.281C151.984 525.06 152.042 524.805 152.042 524.518C152.042 524.229 151.984 523.976 151.868 523.76C151.754 523.541 151.581 523.372 151.348 523.253C151.115 523.131 150.819 523.07 150.461 523.07H149.217V530.288H147.372ZM159.876 524.071C159.842 523.727 159.695 523.46 159.437 523.27C159.178 523.08 158.827 522.984 158.384 522.984C158.083 522.984 157.829 523.027 157.621 523.112C157.414 523.195 157.255 523.31 157.144 523.457C157.036 523.605 156.982 523.773 156.982 523.96C156.977 524.116 157.009 524.253 157.08 524.369C157.154 524.486 157.255 524.587 157.383 524.672C157.511 524.754 157.658 524.827 157.826 524.889C157.994 524.949 158.173 525 158.363 525.043L159.147 525.23C159.528 525.315 159.877 525.429 160.195 525.571C160.513 525.713 160.789 525.888 161.022 526.095C161.255 526.303 161.435 526.547 161.563 526.828C161.694 527.109 161.761 527.432 161.763 527.795C161.761 528.33 161.624 528.793 161.354 529.185C161.087 529.574 160.701 529.876 160.195 530.092C159.692 530.305 159.086 530.412 158.376 530.412C157.671 530.412 157.058 530.304 156.535 530.088C156.015 529.872 155.609 529.553 155.316 529.129C155.026 528.703 154.874 528.176 154.86 527.548H156.646C156.665 527.841 156.749 528.085 156.897 528.281C157.048 528.474 157.248 528.621 157.498 528.72C157.751 528.817 158.036 528.865 158.354 528.865C158.667 528.865 158.938 528.82 159.168 528.729C159.401 528.638 159.582 528.511 159.71 528.349C159.837 528.187 159.901 528.001 159.901 527.791C159.901 527.595 159.843 527.43 159.727 527.297C159.613 527.163 159.445 527.05 159.224 526.956C159.005 526.862 158.737 526.777 158.418 526.7L157.468 526.462C156.732 526.283 156.151 526.003 155.725 525.622C155.299 525.241 155.087 524.729 155.09 524.084C155.087 523.555 155.228 523.094 155.512 522.699C155.799 522.304 156.192 521.996 156.692 521.774C157.192 521.553 157.761 521.442 158.397 521.442C159.045 521.442 159.61 521.553 160.093 521.774C160.579 521.996 160.957 522.304 161.227 522.699C161.496 523.094 161.636 523.551 161.644 524.071H159.876Z" fill="#7E3CEF"/>
<path opacity="0.15" d="M342.908 598.293L379.012 586.259L415.115 593.48L451.219 576.631L487.322 581.445L523.425 562.19L559.529 564.597L595.632 547.749L631.736 552.562L667.839 540.528V610.328H342.908V598.293Z" fill="url(#paint2_linear_797_9917)"/>
<path d="M342.908 598.293L379.012 586.259L415.115 593.48L451.219 576.631L487.322 581.445L523.425 562.19L559.529 564.597L595.632 547.749L631.736 552.562L667.839 540.528" stroke="#7E3CEF" stroke-width="3.00862" stroke-linecap="round" stroke-linejoin="round"/>
<path d="M667.84 546.545C671.163 546.545 673.857 543.851 673.857 540.528C673.857 537.205 671.163 534.511 667.84 534.511C664.516 534.511 661.822 537.205 661.822 540.528C661.822 543.851 664.516 546.545 667.84 546.545Z" fill="#7E3CEF"/>
<path opacity="0.25" d="M667.839 551.359C673.821 551.359 678.67 546.51 678.67 540.528C678.67 534.546 673.821 529.697 667.839 529.697C661.857 529.697 657.008 534.546 657.008 540.528C657.008 546.51 661.857 551.359 667.839 551.359Z" fill="#7E3CEF"/>
<path d="M335.692 628.096H337.338V633.588C337.338 634.096 337.224 634.537 336.996 634.911C336.77 635.286 336.456 635.574 336.054 635.777C335.651 635.979 335.183 636.08 334.65 636.08C334.176 636.08 333.745 635.997 333.358 635.83C332.973 635.661 332.668 635.405 332.442 635.061C332.217 634.715 332.105 634.28 332.108 633.757H333.765C333.77 633.965 333.813 634.143 333.892 634.292C333.974 634.438 334.086 634.551 334.227 634.63C334.37 634.707 334.54 634.746 334.735 634.746C334.94 634.746 335.113 634.702 335.254 634.615C335.397 634.525 335.506 634.395 335.581 634.223C335.655 634.051 335.692 633.839 335.692 633.588V628.096ZM340.073 635.973H338.288L341.008 628.096H343.154L345.869 635.973H344.085L342.112 629.896H342.05L340.073 635.973ZM339.962 632.877H344.177V634.177H339.962V632.877ZM353.406 628.096V635.973H351.968L348.541 631.015H348.483V635.973H346.818V628.096H348.279L351.679 633.05H351.748V628.096H353.406Z" fill="#9CA3AF"/>
<path d="M415.741 635.973H413.956L416.675 628.096H418.821L421.537 635.973H419.752L417.779 629.896H417.718L415.741 635.973ZM415.629 632.876H419.845V634.176H415.629V632.876ZM422.485 635.973V628.096H425.593C426.19 628.096 426.699 628.21 427.12 628.438C427.54 628.664 427.861 628.978 428.081 629.38C428.304 629.78 428.416 630.242 428.416 630.765C428.416 631.288 428.303 631.749 428.077 632.149C427.852 632.549 427.525 632.861 427.097 633.084C426.671 633.307 426.156 633.419 425.55 633.419H423.57V632.084H425.281C425.602 632.084 425.866 632.029 426.074 631.919C426.284 631.806 426.44 631.651 426.543 631.453C426.648 631.253 426.7 631.024 426.7 630.765C426.7 630.503 426.648 630.275 426.543 630.08C426.44 629.883 426.284 629.73 426.074 629.623C425.863 629.512 425.597 629.457 425.274 629.457H424.15V635.973H422.485ZM429.498 635.973V628.096H432.605C433.2 628.096 433.708 628.202 434.129 628.415C434.552 628.625 434.873 628.924 435.094 629.311C435.317 629.696 435.429 630.148 435.429 630.669C435.429 631.192 435.316 631.642 435.09 632.019C434.864 632.393 434.538 632.68 434.109 632.88C433.684 633.08 433.168 633.18 432.563 633.18H430.482V631.842H432.294C432.612 631.842 432.876 631.798 433.086 631.711C433.296 631.624 433.453 631.493 433.555 631.319C433.661 631.144 433.713 630.928 433.713 630.669C433.713 630.407 433.661 630.187 433.555 630.007C433.453 629.828 433.295 629.692 433.082 629.599C432.872 629.505 432.607 629.457 432.286 629.457H431.163V635.973H429.498ZM433.752 632.388L435.709 635.973H433.871L431.955 632.388H433.752Z" fill="#9CA3AF"/>
<path d="M500.574 628.096H502.221V633.588C502.221 634.096 502.107 634.537 501.878 634.911C501.653 635.285 501.339 635.574 500.936 635.776C500.533 635.979 500.065 636.08 499.532 636.08C499.058 636.08 498.627 635.997 498.24 635.83C497.855 635.661 497.55 635.405 497.324 635.061C497.099 634.715 496.987 634.28 496.99 633.757H498.647C498.653 633.965 498.695 634.143 498.774 634.292C498.856 634.438 498.968 634.551 499.109 634.63C499.253 634.707 499.422 634.746 499.617 634.746C499.822 634.746 499.995 634.702 500.136 634.615C500.28 634.525 500.389 634.394 500.463 634.223C500.537 634.051 500.574 633.839 500.574 633.588V628.096ZM508.463 628.096H510.129V633.211C510.129 633.785 509.991 634.288 509.717 634.719C509.445 635.15 509.064 635.485 508.575 635.726C508.085 635.965 507.514 636.084 506.863 636.084C506.209 636.084 505.637 635.965 505.148 635.726C504.658 635.485 504.277 635.15 504.005 634.719C503.733 634.288 503.598 633.785 503.598 633.211V628.096H505.263V633.069C505.263 633.369 505.328 633.635 505.459 633.869C505.592 634.102 505.78 634.285 506.021 634.419C506.262 634.552 506.543 634.619 506.863 634.619C507.186 634.619 507.467 634.552 507.705 634.419C507.946 634.285 508.132 634.102 508.263 633.869C508.396 633.635 508.463 633.369 508.463 633.069V628.096ZM511.499 635.973V628.096H513.164V634.6H516.541V635.973H511.499Z" fill="#9CA3AF"/>
<path d="M584.374 632.034C584.374 632.893 584.212 633.624 583.886 634.226C583.563 634.829 583.122 635.289 582.563 635.607C582.006 635.923 581.381 636.08 580.686 636.08C579.986 636.08 579.358 635.921 578.801 635.603C578.245 635.285 577.805 634.825 577.482 634.223C577.159 633.62 576.997 632.891 576.997 632.034C576.997 631.175 577.159 630.444 577.482 629.842C577.805 629.239 578.245 628.78 578.801 628.465C579.358 628.147 579.986 627.988 580.686 627.988C581.381 627.988 582.006 628.147 582.563 628.465C583.122 628.78 583.563 629.239 583.886 629.842C584.212 630.444 584.374 631.175 584.374 632.034ZM582.686 632.034C582.686 631.478 582.603 631.008 582.436 630.626C582.272 630.244 582.04 629.955 581.74 629.757C581.44 629.56 581.088 629.461 580.686 629.461C580.283 629.461 579.932 629.56 579.632 629.757C579.332 629.955 579.099 630.244 578.932 630.626C578.768 631.008 578.686 631.478 578.686 632.034C578.686 632.591 578.768 633.06 578.932 633.442C579.099 633.824 579.332 634.114 579.632 634.311C579.932 634.509 580.283 634.607 580.686 634.607C581.088 634.607 581.44 634.509 581.74 634.311C582.04 634.114 582.272 633.824 582.436 633.442C582.603 633.06 582.686 632.591 582.686 632.034ZM592.558 630.853H590.874C590.843 630.635 590.78 630.442 590.685 630.273C590.59 630.101 590.469 629.955 590.32 629.834C590.171 629.714 589.999 629.621 589.804 629.557C589.612 629.493 589.403 629.461 589.177 629.461C588.77 629.461 588.415 629.562 588.112 629.765C587.809 629.965 587.575 630.257 587.408 630.642C587.242 631.024 587.158 631.488 587.158 632.034C587.158 632.596 587.242 633.067 587.408 633.45C587.577 633.832 587.813 634.12 588.116 634.315C588.418 634.51 588.768 634.607 589.166 634.607C589.389 634.607 589.595 634.578 589.785 634.519C589.977 634.46 590.148 634.374 590.297 634.261C590.445 634.146 590.569 634.006 590.666 633.842C590.766 633.678 590.835 633.491 590.874 633.28L592.558 633.288C592.515 633.65 592.406 633.998 592.231 634.334C592.06 634.667 591.828 634.966 591.535 635.23C591.245 635.492 590.899 635.7 590.497 635.853C590.097 636.005 589.644 636.08 589.139 636.08C588.436 636.08 587.808 635.921 587.254 635.603C586.703 635.285 586.267 634.825 585.947 634.223C585.629 633.62 585.47 632.891 585.47 632.034C585.47 631.175 585.631 630.444 585.954 629.842C586.277 629.239 586.716 628.78 587.27 628.465C587.824 628.147 588.447 627.988 589.139 627.988C589.595 627.988 590.018 628.052 590.408 628.18C590.801 628.308 591.148 628.496 591.451 628.742C591.753 628.985 591.999 629.284 592.189 629.638C592.381 629.992 592.504 630.397 592.558 630.853ZM593.453 629.469V628.096H599.922V629.469H597.51V635.973H595.864V629.469H593.453Z" fill="#9CA3AF"/>
<path d="M661.592 628.096V635.973H660.153L656.726 631.015H656.668V635.973H655.003V628.096H656.465L659.865 633.05H659.934V628.096H661.592ZM670.206 632.034C670.206 632.893 670.043 633.624 669.718 634.226C669.395 634.829 668.954 635.289 668.395 635.607C667.838 635.923 667.213 636.08 666.518 636.08C665.818 636.08 665.19 635.921 664.633 635.603C664.077 635.285 663.637 634.825 663.314 634.223C662.991 633.62 662.829 632.891 662.829 632.034C662.829 631.175 662.991 630.444 663.314 629.842C663.637 629.239 664.077 628.78 664.633 628.465C665.19 628.147 665.818 627.988 666.518 627.988C667.213 627.988 667.838 628.147 668.395 628.465C668.954 628.78 669.395 629.239 669.718 629.842C670.043 630.444 670.206 631.175 670.206 632.034ZM668.518 632.034C668.518 631.478 668.434 631.008 668.268 630.626C668.104 630.244 667.872 629.955 667.572 629.757C667.272 629.56 666.92 629.461 666.518 629.461C666.115 629.461 665.764 629.56 665.464 629.757C665.164 629.955 664.931 630.244 664.764 630.626C664.6 631.008 664.518 631.478 664.518 632.034C664.518 632.591 664.6 633.06 664.764 633.442C664.931 633.824 665.164 634.114 665.464 634.311C665.764 634.509 666.115 634.607 666.518 634.607C666.92 634.607 667.272 634.509 667.572 634.311C667.872 634.114 668.104 633.824 668.268 633.442C668.434 633.06 668.518 632.591 668.518 632.034ZM672.917 635.973L670.663 628.096H672.482L673.786 633.569H673.852L675.29 628.096H676.848L678.282 633.58H678.352L679.656 628.096H681.475L679.221 635.973H677.598L676.098 630.823H676.036L674.54 635.973H672.917Z" fill="#7E3CEF"/>
<rect x="472.819" y="186.314" width="209.181" height="298.397" rx="19" fill="#EDE3FD"/>
<path d="M527.037 264.889C543.986 264.889 557.726 251.149 557.726 234.201C557.726 217.252 543.986 203.512 527.037 203.512C510.088 203.512 496.349 217.252 496.349 234.201C496.349 251.149 510.088 264.889 527.037 264.889Z" fill="url(#paint3_linear_797_9917)"/>
<path d="M534.7 228.73H519.375C517.561 228.73 516.091 230.018 516.091 231.607V245.033C516.091 246.622 517.561 247.91 519.375 247.91H534.7C536.513 247.91 537.983 246.622 537.983 245.033V231.607C537.983 230.018 536.513 228.73 534.7 228.73Z" stroke="white" stroke-width="3.06886" stroke-linecap="round" stroke-linejoin="round"/>
<path d="M519.522 228.73V225.262C519.522 220.927 523.279 218.325 527.037 218.325C530.794 218.325 534.551 220.927 534.551 225.262V228.73" stroke="white" stroke-width="3.06886" stroke-linecap="round" stroke-linejoin="round"/>
<path d="M506.289 293.562H500.729L499.809 296.222H496.869L501.889 282.242H505.149L510.169 296.222H507.209L506.289 293.562ZM505.529 291.322L503.509 285.482L501.489 291.322H505.529ZM518.185 284.982C519.505 284.982 520.572 285.402 521.385 286.242C522.198 287.068 522.605 288.228 522.605 289.722V296.222H519.805V290.102C519.805 289.222 519.585 288.548 519.145 288.082C518.705 287.602 518.105 287.362 517.345 287.362C516.572 287.362 515.958 287.602 515.505 288.082C515.065 288.548 514.845 289.222 514.845 290.102V296.222H512.045V285.142H514.845V286.522C515.218 286.042 515.692 285.668 516.265 285.402C516.852 285.122 517.492 284.982 518.185 284.982ZM530.188 296.402C529.121 296.402 528.161 296.168 527.308 295.702C526.454 295.222 525.781 294.548 525.288 293.682C524.808 292.815 524.568 291.815 524.568 290.682C524.568 289.548 524.814 288.548 525.308 287.682C525.814 286.815 526.501 286.148 527.368 285.682C528.234 285.202 529.201 284.962 530.268 284.962C531.334 284.962 532.301 285.202 533.168 285.682C534.034 286.148 534.714 286.815 535.208 287.682C535.714 288.548 535.968 289.548 535.968 290.682C535.968 291.815 535.708 292.815 535.188 293.682C534.681 294.548 533.988 295.222 533.108 295.702C532.241 296.168 531.268 296.402 530.188 296.402ZM530.188 293.962C530.694 293.962 531.168 293.842 531.608 293.602C532.061 293.348 532.421 292.975 532.688 292.482C532.954 291.988 533.088 291.388 533.088 290.682C533.088 289.628 532.808 288.822 532.248 288.262C531.701 287.688 531.028 287.402 530.228 287.402C529.428 287.402 528.754 287.688 528.208 288.262C527.674 288.822 527.408 289.628 527.408 290.682C527.408 291.735 527.668 292.548 528.188 293.122C528.721 293.682 529.388 293.962 530.188 293.962ZM544.162 284.982C545.482 284.982 546.548 285.402 547.362 286.242C548.175 287.068 548.582 288.228 548.582 289.722V296.222H545.782V290.102C545.782 289.222 545.562 288.548 545.122 288.082C544.682 287.602 544.082 287.362 543.322 287.362C542.548 287.362 541.935 287.602 541.482 288.082C541.042 288.548 540.822 289.222 540.822 290.102V296.222H538.022V285.142H540.822V286.522C541.195 286.042 541.668 285.668 542.242 285.402C542.828 285.122 543.468 284.982 544.162 284.982ZM561.844 285.142L554.984 301.462H552.004L554.404 295.942L549.964 285.142H553.104L555.964 292.882L558.864 285.142H561.844ZM577.114 284.982C578.474 284.982 579.567 285.402 580.394 286.242C581.234 287.068 581.654 288.228 581.654 289.722V296.222H578.854V290.102C578.854 289.235 578.634 288.575 578.194 288.122C577.754 287.655 577.154 287.422 576.394 287.422C575.634 287.422 575.027 287.655 574.574 288.122C574.134 288.575 573.914 289.235 573.914 290.102V296.222H571.114V290.102C571.114 289.235 570.894 288.575 570.454 288.122C570.014 287.655 569.414 287.422 568.654 287.422C567.88 287.422 567.267 287.655 566.814 288.122C566.374 288.575 566.154 289.235 566.154 290.102V296.222H563.354V285.142H566.154V286.482C566.514 286.015 566.974 285.648 567.534 285.382C568.107 285.115 568.734 284.982 569.414 284.982C570.28 284.982 571.054 285.168 571.734 285.542C572.414 285.902 572.94 286.422 573.314 287.102C573.674 286.462 574.194 285.948 574.874 285.562C575.567 285.175 576.314 284.982 577.114 284.982ZM589.231 296.402C588.164 296.402 587.204 296.168 586.351 295.702C585.497 295.222 584.824 294.548 584.331 293.682C583.851 292.815 583.611 291.815 583.611 290.682C583.611 289.548 583.857 288.548 584.351 287.682C584.857 286.815 585.544 286.148 586.411 285.682C587.277 285.202 588.244 284.962 589.311 284.962C590.377 284.962 591.344 285.202 592.211 285.682C593.077 286.148 593.757 286.815 594.251 287.682C594.757 288.548 595.011 289.548 595.011 290.682C595.011 291.815 594.751 292.815 594.231 293.682C593.724 294.548 593.031 295.222 592.151 295.702C591.284 296.168 590.311 296.402 589.231 296.402ZM589.231 293.962C589.737 293.962 590.211 293.842 590.651 293.602C591.104 293.348 591.464 292.975 591.731 292.482C591.997 291.988 592.131 291.388 592.131 290.682C592.131 289.628 591.851 288.822 591.291 288.262C590.744 287.688 590.071 287.402 589.271 287.402C588.471 287.402 587.797 287.688 587.251 288.262C586.717 288.822 586.451 289.628 586.451 290.682C586.451 291.735 586.711 292.548 587.231 293.122C587.764 293.682 588.431 293.962 589.231 293.962ZM607.525 285.142V296.222H604.705V294.822C604.345 295.302 603.871 295.682 603.285 295.962C602.711 296.228 602.085 296.362 601.405 296.362C600.538 296.362 599.771 296.182 599.105 295.822C598.438 295.448 597.911 294.908 597.525 294.202C597.151 293.482 596.965 292.628 596.965 291.642V285.142H599.765V291.242C599.765 292.122 599.985 292.802 600.425 293.282C600.865 293.748 601.465 293.982 602.225 293.982C602.998 293.982 603.605 293.748 604.045 293.282C604.485 292.802 604.705 292.122 604.705 291.242V285.142H607.525ZM614.527 296.402C613.621 296.402 612.807 296.242 612.087 295.922C611.367 295.588 610.794 295.142 610.367 294.582C609.954 294.022 609.727 293.402 609.687 292.722H612.507C612.561 293.148 612.767 293.502 613.127 293.782C613.501 294.062 613.961 294.202 614.507 294.202C615.041 294.202 615.454 294.095 615.747 293.882C616.054 293.668 616.207 293.395 616.207 293.062C616.207 292.702 616.021 292.435 615.647 292.262C615.287 292.075 614.707 291.875 613.907 291.662C613.081 291.462 612.401 291.255 611.867 291.042C611.347 290.828 610.894 290.502 610.507 290.062C610.134 289.622 609.947 289.028 609.947 288.282C609.947 287.668 610.121 287.108 610.467 286.602C610.827 286.095 611.334 285.695 611.987 285.402C612.654 285.108 613.434 284.962 614.327 284.962C615.647 284.962 616.701 285.295 617.487 285.962C618.274 286.615 618.707 287.502 618.787 288.622H616.107C616.067 288.182 615.881 287.835 615.547 287.582C615.227 287.315 614.794 287.182 614.247 287.182C613.741 287.182 613.347 287.275 613.067 287.462C612.801 287.648 612.667 287.908 612.667 288.242C612.667 288.615 612.854 288.902 613.227 289.102C613.601 289.288 614.181 289.482 614.967 289.682C615.767 289.882 616.427 290.088 616.947 290.302C617.467 290.515 617.914 290.848 618.287 291.302C618.674 291.742 618.874 292.328 618.887 293.062C618.887 293.702 618.707 294.275 618.347 294.782C618.001 295.288 617.494 295.688 616.827 295.982C616.174 296.262 615.407 296.402 614.527 296.402ZM500.529 311.862C500.889 311.275 501.355 310.815 501.929 310.482C502.515 310.148 503.182 309.982 503.929 309.982V312.922H503.189C502.309 312.922 501.642 313.128 501.189 313.542C500.749 313.955 500.529 314.675 500.529 315.702V321.222H497.729V310.142H500.529V311.862ZM516.115 315.442C516.115 315.842 516.088 316.202 516.035 316.522H507.935C508.001 317.322 508.281 317.948 508.775 318.402C509.268 318.855 509.875 319.082 510.595 319.082C511.635 319.082 512.375 318.635 512.815 317.742H515.835C515.515 318.808 514.901 319.688 513.995 320.382C513.088 321.062 511.975 321.402 510.655 321.402C509.588 321.402 508.628 321.168 507.775 320.702C506.935 320.222 506.275 319.548 505.795 318.682C505.328 317.815 505.095 316.815 505.095 315.682C505.095 314.535 505.328 313.528 505.795 312.662C506.261 311.795 506.915 311.128 507.755 310.662C508.595 310.195 509.561 309.962 510.655 309.962C511.708 309.962 512.648 310.188 513.475 310.642C514.315 311.095 514.961 311.742 515.415 312.582C515.881 313.408 516.115 314.362 516.115 315.442ZM513.215 314.642C513.201 313.922 512.941 313.348 512.435 312.922C511.928 312.482 511.308 312.262 510.575 312.262C509.881 312.262 509.295 312.475 508.815 312.902C508.348 313.315 508.061 313.895 507.955 314.642H513.215ZM522.398 321.402C521.492 321.402 520.678 321.242 519.958 320.922C519.238 320.588 518.665 320.142 518.238 319.582C517.825 319.022 517.598 318.402 517.558 317.722H520.378C520.432 318.148 520.638 318.502 520.998 318.782C521.372 319.062 521.832 319.202 522.378 319.202C522.912 319.202 523.325 319.095 523.618 318.882C523.925 318.668 524.078 318.395 524.078 318.062C524.078 317.702 523.892 317.435 523.518 317.262C523.158 317.075 522.578 316.875 521.778 316.662C520.952 316.462 520.272 316.255 519.738 316.042C519.218 315.828 518.765 315.502 518.378 315.062C518.005 314.622 517.818 314.028 517.818 313.282C517.818 312.668 517.992 312.108 518.338 311.602C518.698 311.095 519.205 310.695 519.858 310.402C520.525 310.108 521.305 309.962 522.198 309.962C523.518 309.962 524.572 310.295 525.358 310.962C526.145 311.615 526.578 312.502 526.658 313.622H523.978C523.938 313.182 523.752 312.835 523.418 312.582C523.098 312.315 522.665 312.182 522.118 312.182C521.612 312.182 521.218 312.275 520.938 312.462C520.672 312.648 520.538 312.908 520.538 313.242C520.538 313.615 520.725 313.902 521.098 314.102C521.472 314.288 522.052 314.482 522.838 314.682C523.638 314.882 524.298 315.088 524.818 315.302C525.338 315.515 525.785 315.848 526.158 316.302C526.545 316.742 526.745 317.328 526.758 318.062C526.758 318.702 526.578 319.275 526.218 319.782C525.872 320.288 525.365 320.688 524.698 320.982C524.045 321.262 523.278 321.402 522.398 321.402ZM531.857 311.742C532.217 311.235 532.71 310.815 533.337 310.482C533.977 310.135 534.703 309.962 535.517 309.962C536.463 309.962 537.317 310.195 538.077 310.662C538.85 311.128 539.457 311.795 539.897 312.662C540.35 313.515 540.577 314.508 540.577 315.642C540.577 316.775 540.35 317.782 539.897 318.662C539.457 319.528 538.85 320.202 538.077 320.682C537.317 321.162 536.463 321.402 535.517 321.402C534.703 321.402 533.983 321.235 533.357 320.902C532.743 320.568 532.243 320.148 531.857 319.642V326.502H529.057V310.142H531.857V311.742ZM537.717 315.642C537.717 314.975 537.577 314.402 537.297 313.922C537.03 313.428 536.67 313.055 536.217 312.802C535.777 312.548 535.297 312.422 534.777 312.422C534.27 312.422 533.79 312.555 533.337 312.822C532.897 313.075 532.537 313.448 532.257 313.942C531.99 314.435 531.857 315.015 531.857 315.682C531.857 316.348 531.99 316.928 532.257 317.422C532.537 317.915 532.897 318.295 533.337 318.562C533.79 318.815 534.27 318.942 534.777 318.942C535.297 318.942 535.777 318.808 536.217 318.542C536.67 318.275 537.03 317.895 537.297 317.402C537.577 316.908 537.717 316.322 537.717 315.642ZM547.531 321.402C546.465 321.402 545.505 321.168 544.651 320.702C543.798 320.222 543.125 319.548 542.631 318.682C542.151 317.815 541.911 316.815 541.911 315.682C541.911 314.548 542.158 313.548 542.651 312.682C543.158 311.815 543.845 311.148 544.711 310.682C545.578 310.202 546.545 309.962 547.611 309.962C548.678 309.962 549.645 310.202 550.511 310.682C551.378 311.148 552.058 311.815 552.551 312.682C553.058 313.548 553.311 314.548 553.311 315.682C553.311 316.815 553.051 317.815 552.531 318.682C552.025 319.548 551.331 320.222 550.451 320.702C549.585 321.168 548.611 321.402 547.531 321.402ZM547.531 318.962C548.038 318.962 548.511 318.842 548.951 318.602C549.405 318.348 549.765 317.975 550.031 317.482C550.298 316.988 550.431 316.388 550.431 315.682C550.431 314.628 550.151 313.822 549.591 313.262C549.045 312.688 548.371 312.402 547.571 312.402C546.771 312.402 546.098 312.688 545.551 313.262C545.018 313.822 544.751 314.628 544.751 315.682C544.751 316.735 545.011 317.548 545.531 318.122C546.065 318.682 546.731 318.962 547.531 318.962ZM561.505 309.982C562.825 309.982 563.892 310.402 564.705 311.242C565.519 312.068 565.925 313.228 565.925 314.722V321.222H563.125V315.102C563.125 314.222 562.905 313.548 562.465 313.082C562.025 312.602 561.425 312.362 560.665 312.362C559.892 312.362 559.279 312.602 558.825 313.082C558.385 313.548 558.165 314.222 558.165 315.102V321.222H555.365V310.142H558.165V311.522C558.539 311.042 559.012 310.668 559.585 310.402C560.172 310.122 560.812 309.982 561.505 309.982ZM572.828 321.402C571.921 321.402 571.108 321.242 570.388 320.922C569.668 320.588 569.095 320.142 568.668 319.582C568.255 319.022 568.028 318.402 567.988 317.722H570.808C570.861 318.148 571.068 318.502 571.428 318.782C571.801 319.062 572.261 319.202 572.808 319.202C573.341 319.202 573.755 319.095 574.048 318.882C574.355 318.668 574.508 318.395 574.508 318.062C574.508 317.702 574.321 317.435 573.948 317.262C573.588 317.075 573.008 316.875 572.208 316.662C571.381 316.462 570.701 316.255 570.168 316.042C569.648 315.828 569.195 315.502 568.808 315.062C568.435 314.622 568.248 314.028 568.248 313.282C568.248 312.668 568.421 312.108 568.768 311.602C569.128 311.095 569.635 310.695 570.288 310.402C570.955 310.108 571.735 309.962 572.628 309.962C573.948 309.962 575.001 310.295 575.788 310.962C576.575 311.615 577.008 312.502 577.088 313.622H574.408C574.368 313.182 574.181 312.835 573.848 312.582C573.528 312.315 573.095 312.182 572.548 312.182C572.041 312.182 571.648 312.275 571.368 312.462C571.101 312.648 570.968 312.908 570.968 313.242C570.968 313.615 571.155 313.902 571.528 314.102C571.901 314.288 572.481 314.482 573.268 314.682C574.068 314.882 574.728 315.088 575.248 315.302C575.768 315.515 576.215 315.848 576.588 316.302C576.975 316.742 577.175 317.328 577.188 318.062C577.188 318.702 577.008 319.275 576.648 319.782C576.301 320.288 575.795 320.688 575.128 320.982C574.475 321.262 573.708 321.402 572.828 321.402ZM589.786 315.442C589.786 315.842 589.76 316.202 589.706 316.522H581.606C581.673 317.322 581.953 317.948 582.446 318.402C582.94 318.855 583.546 319.082 584.266 319.082C585.306 319.082 586.046 318.635 586.486 317.742H589.506C589.186 318.808 588.573 319.688 587.666 320.382C586.76 321.062 585.646 321.402 584.326 321.402C583.26 321.402 582.3 321.168 581.446 320.702C580.606 320.222 579.946 319.548 579.466 318.682C579 317.815 578.766 316.815 578.766 315.682C578.766 314.535 579 313.528 579.466 312.662C579.933 311.795 580.586 311.128 581.426 310.662C582.266 310.195 583.233 309.962 584.326 309.962C585.38 309.962 586.32 310.188 587.146 310.642C587.986 311.095 588.633 311.742 589.086 312.582C589.553 313.408 589.786 314.362 589.786 315.442ZM586.886 314.642C586.873 313.922 586.613 313.348 586.106 312.922C585.6 312.482 584.98 312.262 584.246 312.262C583.553 312.262 582.966 312.475 582.486 312.902C582.02 313.315 581.733 313.895 581.626 314.642H586.886ZM596.07 321.402C595.164 321.402 594.35 321.242 593.63 320.922C592.91 320.588 592.337 320.142 591.91 319.582C591.497 319.022 591.27 318.402 591.23 317.722H594.05C594.104 318.148 594.31 318.502 594.67 318.782C595.044 319.062 595.504 319.202 596.05 319.202C596.584 319.202 596.997 319.095 597.29 318.882C597.597 318.668 597.75 318.395 597.75 318.062C597.75 317.702 597.564 317.435 597.19 317.262C596.83 317.075 596.25 316.875 595.45 316.662C594.624 316.462 593.944 316.255 593.41 316.042C592.89 315.828 592.437 315.502 592.05 315.062C591.677 314.622 591.49 314.028 591.49 313.282C591.49 312.668 591.664 312.108 592.01 311.602C592.37 311.095 592.877 310.695 593.53 310.402C594.197 310.108 594.977 309.962 595.87 309.962C597.19 309.962 598.244 310.295 599.03 310.962C599.817 311.615 600.25 312.502 600.33 313.622H597.65C597.61 313.182 597.424 312.835 597.09 312.582C596.77 312.315 596.337 312.182 595.79 312.182C595.284 312.182 594.89 312.275 594.61 312.462C594.344 312.648 594.21 312.908 594.21 313.242C594.21 313.615 594.397 313.902 594.77 314.102C595.144 314.288 595.724 314.482 596.51 314.682C597.31 314.882 597.97 315.088 598.49 315.302C599.01 315.515 599.457 315.848 599.83 316.302C600.217 316.742 600.417 317.328 600.43 318.062C600.43 318.702 600.25 319.275 599.89 319.782C599.544 320.288 599.037 320.688 598.37 320.982C597.717 321.262 596.95 321.402 596.07 321.402Z" fill="#111827"/>
<path d="M633.349 343.173H499.349C497.692 343.173 496.349 344.516 496.349 346.173C496.349 347.83 497.692 349.173 499.349 349.173H633.349C635.005 349.173 636.349 347.83 636.349 346.173C636.349 344.516 635.005 343.173 633.349 343.173Z" fill="#B892FE"/>
<path d="M654.349 436.288H508.349C501.721 436.288 496.349 441.661 496.349 448.288C496.349 454.916 501.721 460.288 508.349 460.288H654.349C660.976 460.288 666.349 454.916 666.349 448.288C666.349 441.661 660.976 436.288 654.349 436.288Z" fill="#7E3CEF"/>
<defs>
<filter id="filter0_dd_797_9917" x="22" y="33.7117" width="704" height="416" filterUnits="userSpaceOnUse" color-interpolation-filters="sRGB">
<feFlood flood-opacity="0" result="BackgroundImageFix"/>
<feColorMatrix in="SourceAlpha" type="matrix" values="0 0 0 0 0 0 0 0 0 0 0 0 0 0 0 0 0 0 127 0" result="hardAlpha"/>
<feMorphology radius="2" operator="erode" in="SourceAlpha" result="effect1_dropShadow_797_9917"/>
<feOffset dy="4"/>
<feGaussianBlur stdDeviation="3"/>
<feColorMatrix type="matrix" values="0 0 0 0 0 0 0 0 0 0 0 0 0 0 0 0 0 0 0.05 0"/>
<feBlend mode="normal" in2="BackgroundImageFix" result="effect1_dropShadow_797_9917"/>
<feColorMatrix in="SourceAlpha" type="matrix" values="0 0 0 0 0 0 0 0 0 0 0 0 0 0 0 0 0 0 127 0" result="hardAlpha"/>
<feMorphology radius="3" operator="erode" in="SourceAlpha" result="effect2_dropShadow_797_9917"/>
<feOffset dy="10"/>
<feGaussianBlur stdDeviation="7.5"/>
<feColorMatrix type="matrix" values="0 0 0 0 0 0 0 0 0 0 0 0 0 0 0 0 0 0 0.1 0"/>
<feBlend mode="normal" in2="effect1_dropShadow_797_9917" result="effect2_dropShadow_797_9917"/>
<feBlend mode="normal" in="SourceGraphic" in2="effect2_dropShadow_797_9917" result="shape"/>
</filter>
<filter id="filter1_dd_797_9917" x="22" y="446.288" width="704" height="288" filterUnits="userSpaceOnUse" color-interpolation-filters="sRGB">
<feFlood flood-opacity="0" result="BackgroundImageFix"/>
<feColorMatrix in="SourceAlpha" type="matrix" values="0 0 0 0 0 0 0 0 0 0 0 0 0 0 0 0 0 0 127 0" result="hardAlpha"/>
<feMorphology radius="2" operator="erode" in="SourceAlpha" result="effect1_dropShadow_797_9917"/>
<feOffset dy="4"/>
<feGaussianBlur stdDeviation="3"/>
<feColorMatrix type="matrix" values="0 0 0 0 0 0 0 0 0 0 0 0 0 0 0 0 0 0 0.05 0"/>
<feBlend mode="normal" in2="BackgroundImageFix" result="effect1_dropShadow_797_9917"/>
<feColorMatrix in="SourceAlpha" type="matrix" values="0 0 0 0 0 0 0 0 0 0 0 0 0 0 0 0 0 0 127 0" result="hardAlpha"/>
<feMorphology radius="3" operator="erode" in="SourceAlpha" result="effect2_dropShadow_797_9917"/>
<feOffset dy="10"/>
<feGaussianBlur stdDeviation="7.5"/>
<feColorMatrix type="matrix" values="0 0 0 0 0 0 0 0 0 0 0 0 0 0 0 0 0 0 0.1 0"/>
<feBlend mode="normal" in2="effect1_dropShadow_797_9917" result="effect2_dropShadow_797_9917"/>
<feBlend mode="normal" in="SourceGraphic" in2="effect2_dropShadow_797_9917" result="shape"/>
</filter>
<linearGradient id="paint0_linear_797_9917" x1="66" y1="191.512" x2="285" y2="191.512" gradientUnits="userSpaceOnUse">
<stop stop-color="#7E3CEF"/>
<stop offset="1" stop-color="#9B5CFF"/>
</linearGradient>
<linearGradient id="paint1_linear_797_9917" x1="66" y1="243.512" x2="158" y2="243.512" gradientUnits="userSpaceOnUse">
<stop stop-color="#A78BFA"/>
<stop offset="1" stop-color="#BB94FF"/>
</linearGradient>
<linearGradient id="paint2_linear_797_9917" x1="342.908" y1="540.528" x2="371.574" y2="673.97" gradientUnits="userSpaceOnUse">
<stop stop-color="#9B5CFF"/>
<stop offset="1" stop-color="#7E3CEF"/>
</linearGradient>
<linearGradient id="paint3_linear_797_9917" x1="496.349" y1="203.512" x2="557.726" y2="264.889" gradientUnits="userSpaceOnUse">
<stop stop-color="#9B5CFF"/>
<stop offset="1" stop-color="#7E3CEF"/>
</linearGradient>
</defs>
</svg>
