<svg width="398" height="184" viewBox="0 0 398 184" fill="none" xmlns="http://www.w3.org/2000/svg" xmlns:xlink="http://www.w3.org/1999/xlink">
<rect width="397.333" height="184" fill="black"/>
<rect width="397.333" height="184" fill="url(#pattern0_519_2172)" fill-opacity="0.2"/>
<rect width="397.333" height="184" fill="url(#paint0_linear_519_2172)"/>
<path d="M274.683 130.73C274.683 134.044 272.356 138.073 269.487 139.73L206.17 176.286C203.3 177.943 200.974 176.6 200.974 173.286V100.174C200.974 96.8604 203.3 92.8309 206.17 91.1741L269.487 54.6181C272.356 52.9613 274.683 54.3044 274.683 57.6181V130.73Z" fill="url(#paint1_linear_519_2172)"/>
<path d="M204.361 7.96387L267.679 44.52C270.309 46.0388 270.309 48.5013 267.679 50.02L204.361 86.5762C201.731 88.0946 197.466 88.0946 194.835 86.5762L131.518 50.02C128.888 48.5013 128.888 46.0388 131.518 44.52L194.835 7.96387C197.466 6.44508 201.731 6.44508 204.361 7.96387Z" stroke="url(#paint2_linear_519_2172)"/>
<path d="M127.847 54.2915L191.164 90.8477C193.794 92.3666 195.927 96.0602 195.927 99.0977V172.21C195.927 175.247 193.794 176.478 191.164 174.96L127.847 138.404C125.216 136.885 123.084 133.191 123.084 130.154V57.0415C123.084 54.0039 125.216 52.7727 127.847 54.2915Z" stroke="url(#paint3_linear_519_2172)"/>
<path d="M253.268 112.2C253.268 114.409 251.718 117.096 249.804 118.2L237.828 125.115L228.337 130.59L222.388 139.849V134.029V111.23C222.388 109.021 223.939 106.335 225.852 105.23L249.804 91.4016C251.718 90.2971 253.268 91.1925 253.268 93.4016V112.2Z" fill="black"/>
<path d="M159.505 108.295C156.477 106.547 154.023 107.964 154.023 111.461C154.023 114.957 156.477 119.209 159.505 120.957C162.533 122.705 164.987 121.287 164.988 117.791C164.988 114.295 162.533 110.043 159.505 108.295ZM156.482 125.758L156.174 125.473C155.429 124.784 154.715 124.028 154.041 123.22L153.757 122.88L150.459 124.784L146.184 117.379L149.254 115.607L149.482 115.476L149.329 115.059C148.967 114.073 148.669 113.076 148.445 112.086L148.353 111.677L143.69 108.985V102.005L148.353 104.697L148.445 104.394C148.67 103.662 148.966 103.008 149.329 102.439L149.482 102.2L149.254 101.806L146.184 96.4885L150.459 94.0212L153.529 99.3386L153.757 99.7332L154.041 99.7209C154.715 99.6912 155.429 99.7598 156.174 99.9314L156.482 100.002V94.6179L162.527 98.1082V103.492L162.836 103.778C163.582 104.467 164.295 105.223 164.969 106.031L165.252 106.37L165.48 106.239L168.55 104.465L172.825 111.87L169.756 113.643L169.528 113.774L169.681 114.189C170.043 115.177 170.34 116.173 170.564 117.164L170.657 117.574L175.32 120.266V127.247L170.657 124.555L170.564 124.857C170.34 125.588 170.043 126.242 169.681 126.81L169.528 127.049L172.825 132.76L168.551 135.229L165.481 129.912L165.253 129.517L164.969 129.53C164.295 129.559 163.582 129.491 162.836 129.32L162.527 129.248V134.633L156.482 131.142V125.758Z" stroke="url(#paint4_linear_519_2172)"/>
<defs>
<linearGradient id="paint0_linear_519_2172" x1="-6.94099" y1="17.5" x2="65.9821" y2="129.501" gradientUnits="userSpaceOnUse">
<stop stop-opacity="0"/>
<stop offset="1"/>
</linearGradient>
<linearGradient id="paint1_linear_519_2172" x1="175.017" y1="184.546" x2="284.976" y2="98.9176" gradientUnits="userSpaceOnUse">
<stop stop-color="#BB94FF" stop-opacity="0"/>
<stop offset="0.5" stop-color="#BB94FF" stop-opacity="0.8"/>
<stop offset="1" stop-color="white"/>
</linearGradient>
<linearGradient id="paint2_linear_519_2172" x1="244.384" y1="78.9098" x2="161.999" y2="16.0138" gradientUnits="userSpaceOnUse">
<stop stop-color="#BB94FF" stop-opacity="0.8"/>
<stop offset="0.5" stop-color="#BB94FF" stop-opacity="0.8"/>
<stop offset="1" stop-color="white"/>
</linearGradient>
<linearGradient id="paint3_linear_519_2172" x1="209.299" y1="149.157" x2="139.066" y2="168.928" gradientUnits="userSpaceOnUse">
<stop stop-color="#BB94FF" stop-opacity="0.8"/>
<stop offset="0.5" stop-color="#BB94FF" stop-opacity="0.8"/>
<stop offset="1" stop-color="white"/>
</linearGradient>
<linearGradient id="paint4_linear_519_2172" x1="181.458" y1="129.85" x2="150.494" y2="138.566" gradientUnits="userSpaceOnUse">
<stop stop-color="#BB94FF" stop-opacity="0.8"/>
<stop offset="0.5" stop-color="#BB94FF" stop-opacity="0.8"/>
<stop offset="1" stop-color="white"/>
</linearGradient>
<pattern id="pattern0_519_2172" patternUnits="userSpaceOnUse" patternTransform="matrix(6.4974 0 0 6.4974 0 0)" preserveAspectRatio="none" viewBox="0 0 46.41 46.41" width="1" height="1">
<g id="pattern0_519_2172_inner">
<rect width="13" height="13" fill="#D9D9D9"/>
</g>
</pattern></defs>
</svg>
