<svg width="748" height="748" viewBox="0 0 748 748" fill="none" xmlns="http://www.w3.org/2000/svg">
<g filter="url(#filter0_dd_808_10566)">
<path d="M28.0088 59.519C28.0088 46.1155 38.8745 35.2499 52.278 35.2499H695.722C709.125 35.2499 719.991 46.1156 719.991 59.519V403.7C719.991 417.103 709.125 427.969 695.722 427.969H52.278C38.8745 427.969 28.0088 417.103 28.0088 403.7V59.519Z" fill="white"/>
<path d="M52.2783 35.7499H695.722C708.849 35.7499 719.491 46.3921 719.491 59.5194V403.7C719.491 416.827 708.849 427.47 695.722 427.47H52.2783C39.151 427.47 28.5089 416.827 28.5088 403.7V59.5194C28.5088 46.3921 39.151 35.7499 52.2783 35.7499Z" stroke="#DEDEDE"/>
</g>
<g filter="url(#filter1_d_808_10566)">
<path d="M271.293 142.275H83.8935C74.8375 142.275 67.4961 148.748 67.4961 156.732V222.819C67.4961 230.803 74.8375 237.275 83.8935 237.275H271.293C280.349 237.275 287.69 230.803 287.69 222.819V156.732C287.69 148.748 280.349 142.275 271.293 142.275Z" fill="#F5F5F5"/>
<path d="M271.293 142.275H83.8935C74.8375 142.275 67.4961 148.748 67.4961 156.732V222.819C67.4961 230.803 74.8375 237.275 83.8935 237.275H271.293C280.349 237.275 287.69 230.803 287.69 222.819V156.732C287.69 148.748 280.349 142.275 271.293 142.275Z" stroke="#F3F4F6" stroke-width="1.17125"/>
</g>
<path opacity="0.6" d="M98.1345 176.629H93.3629L92.543 178.957H90.5917L94.6747 167.544H96.8391L100.922 178.957H98.9544L98.1345 176.629ZM97.6098 175.104L95.7569 169.807L93.8876 175.104H97.6098ZM102.074 174.431C102.074 173.502 102.26 172.688 102.632 171.988C103.014 171.278 103.539 170.731 104.206 170.348C104.873 169.966 105.638 169.774 106.502 169.774C107.595 169.774 108.497 170.037 109.207 170.562C109.929 171.075 110.415 171.813 110.667 172.775H108.65C108.486 172.327 108.223 171.977 107.863 171.726C107.502 171.474 107.048 171.349 106.502 171.349C105.736 171.349 105.124 171.622 104.665 172.168C104.217 172.704 103.993 173.458 103.993 174.431C103.993 175.404 104.217 176.164 104.665 176.711C105.124 177.257 105.736 177.53 106.502 177.53C107.584 177.53 108.3 177.055 108.65 176.104H110.667C110.404 177.022 109.912 177.755 109.191 178.301C108.469 178.837 107.573 179.105 106.502 179.105C105.638 179.105 104.873 178.913 104.206 178.531C103.539 178.137 103.014 177.591 102.632 176.891C102.26 176.18 102.074 175.361 102.074 174.431ZM114.71 171.447V176.448C114.71 176.787 114.787 177.033 114.94 177.186C115.104 177.328 115.377 177.399 115.76 177.399H116.908V178.957H115.432C114.59 178.957 113.945 178.76 113.497 178.367C113.049 177.973 112.825 177.334 112.825 176.448V171.447H111.759V169.922H112.825V167.676H114.71V169.922H116.908V171.447H114.71ZM119.581 168.725C119.243 168.725 118.958 168.61 118.729 168.381C118.499 168.151 118.384 167.867 118.384 167.528C118.384 167.189 118.499 166.905 118.729 166.675C118.958 166.446 119.243 166.331 119.581 166.331C119.909 166.331 120.188 166.446 120.418 166.675C120.647 166.905 120.762 167.189 120.762 167.528C120.762 167.867 120.647 168.151 120.418 168.381C120.188 168.61 119.909 168.725 119.581 168.725ZM120.5 169.922V178.957H118.63V169.922H120.5ZM126.447 177.284L129.005 169.922H130.989L127.545 178.957H125.315L121.888 169.922H123.889L126.447 177.284ZM140.682 174.218C140.682 174.557 140.661 174.863 140.617 175.136H133.714C133.768 175.858 134.036 176.437 134.517 176.875C134.998 177.312 135.588 177.53 136.288 177.53C137.294 177.53 138.004 177.11 138.42 176.268H140.436C140.163 177.099 139.666 177.782 138.944 178.318C138.234 178.842 137.348 179.105 136.288 179.105C135.424 179.105 134.648 178.913 133.959 178.531C133.282 178.137 132.746 177.591 132.353 176.891C131.97 176.18 131.779 175.361 131.779 174.431C131.779 173.502 131.964 172.688 132.336 171.988C132.719 171.278 133.249 170.731 133.927 170.348C134.615 169.966 135.402 169.774 136.288 169.774C137.141 169.774 137.9 169.96 138.567 170.332C139.234 170.704 139.753 171.228 140.125 171.906C140.497 172.573 140.682 173.344 140.682 174.218ZM138.731 173.628C138.72 172.939 138.474 172.387 137.993 171.972C137.512 171.556 136.916 171.349 136.206 171.349C135.561 171.349 135.009 171.556 134.55 171.972C134.091 172.376 133.817 172.928 133.73 173.628H138.731ZM148.634 167.561V174.825C148.634 175.688 148.859 176.339 149.307 176.776C149.766 177.213 150.4 177.432 151.209 177.432C152.029 177.432 152.663 177.213 153.111 176.776C153.57 176.339 153.8 175.688 153.8 174.825V167.561H155.669V174.792C155.669 175.721 155.467 176.508 155.062 177.153C154.658 177.798 154.117 178.279 153.439 178.596C152.761 178.913 152.012 179.072 151.192 179.072C150.373 179.072 149.624 178.913 148.946 178.596C148.279 178.279 147.749 177.798 147.355 177.153C146.962 176.508 146.765 175.721 146.765 174.792V167.561H148.634ZM161.382 179.105C160.672 179.105 160.032 178.979 159.464 178.727C158.906 178.465 158.464 178.115 158.136 177.678C157.808 177.23 157.633 176.732 157.611 176.186H159.546C159.579 176.568 159.759 176.891 160.087 177.153C160.426 177.405 160.847 177.53 161.349 177.53C161.874 177.53 162.279 177.432 162.563 177.235C162.858 177.028 163.006 176.765 163.006 176.448C163.006 176.109 162.842 175.858 162.514 175.694C162.197 175.53 161.688 175.35 160.989 175.153C160.311 174.967 159.759 174.787 159.333 174.612C158.906 174.437 158.535 174.169 158.218 173.808C157.911 173.447 157.758 172.972 157.758 172.382C157.758 171.901 157.901 171.463 158.185 171.07C158.469 170.665 158.873 170.348 159.398 170.119C159.934 169.889 160.546 169.774 161.235 169.774C162.262 169.774 163.088 170.037 163.711 170.562C164.345 171.075 164.684 171.78 164.727 172.677H162.858C162.825 172.272 162.661 171.95 162.366 171.709C162.071 171.469 161.672 171.349 161.169 171.349C160.677 171.349 160.3 171.442 160.038 171.627C159.775 171.813 159.644 172.059 159.644 172.365C159.644 172.606 159.732 172.808 159.907 172.972C160.081 173.136 160.295 173.267 160.546 173.366C160.797 173.453 161.169 173.568 161.661 173.71C162.317 173.885 162.853 174.065 163.268 174.251C163.694 174.426 164.061 174.688 164.367 175.038C164.673 175.388 164.831 175.852 164.842 176.432C164.842 176.946 164.7 177.405 164.416 177.809C164.132 178.214 163.727 178.531 163.202 178.76C162.689 178.99 162.082 179.105 161.382 179.105ZM175.143 174.218C175.143 174.557 175.121 174.863 175.077 175.136H168.174C168.228 175.858 168.496 176.437 168.977 176.875C169.458 177.312 170.049 177.53 170.748 177.53C171.754 177.53 172.464 177.11 172.88 176.268H174.897C174.623 177.099 174.126 177.782 173.405 178.318C172.694 178.842 171.809 179.105 170.748 179.105C169.885 179.105 169.108 178.913 168.42 178.531C167.742 178.137 167.206 177.591 166.813 176.891C166.43 176.18 166.239 175.361 166.239 174.431C166.239 173.502 166.425 172.688 166.796 171.988C167.179 171.278 167.709 170.731 168.387 170.348C169.076 169.966 169.863 169.774 170.748 169.774C171.601 169.774 172.361 169.96 173.027 170.332C173.694 170.704 174.214 171.228 174.585 171.906C174.957 172.573 175.143 173.344 175.143 174.218ZM173.191 173.628C173.18 172.939 172.935 172.387 172.454 171.972C171.973 171.556 171.377 171.349 170.666 171.349C170.021 171.349 169.469 171.556 169.01 171.972C168.551 172.376 168.278 172.928 168.19 173.628H173.191ZM178.852 171.234C179.125 170.775 179.486 170.419 179.934 170.168C180.393 169.906 180.934 169.774 181.557 169.774V171.709H181.082C180.349 171.709 179.792 171.895 179.409 172.267C179.037 172.639 178.852 173.284 178.852 174.202V178.957H176.982V169.922H178.852V171.234ZM186.555 179.105C185.844 179.105 185.205 178.979 184.636 178.727C184.079 178.465 183.636 178.115 183.308 177.678C182.98 177.23 182.805 176.732 182.784 176.186H184.718C184.751 176.568 184.932 176.891 185.26 177.153C185.598 177.405 186.019 177.53 186.522 177.53C187.047 177.53 187.451 177.432 187.736 177.235C188.031 177.028 188.178 176.765 188.178 176.448C188.178 176.109 188.014 175.858 187.686 175.694C187.369 175.53 186.861 175.35 186.161 175.153C185.484 174.967 184.932 174.787 184.505 174.612C184.079 174.437 183.707 174.169 183.39 173.808C183.084 173.447 182.931 172.972 182.931 172.382C182.931 171.901 183.073 171.463 183.357 171.07C183.642 170.665 184.046 170.348 184.571 170.119C185.106 169.889 185.719 169.774 186.407 169.774C187.435 169.774 188.26 170.037 188.883 170.562C189.517 171.075 189.856 171.78 189.9 172.677H188.031C187.998 172.272 187.834 171.95 187.539 171.709C187.244 171.469 186.845 171.349 186.342 171.349C185.85 171.349 185.473 171.442 185.21 171.627C184.948 171.813 184.817 172.059 184.817 172.365C184.817 172.606 184.904 172.808 185.079 172.972C185.254 173.136 185.467 173.267 185.719 173.366C185.97 173.453 186.342 173.568 186.834 173.71C187.49 173.885 188.025 174.065 188.441 174.251C188.867 174.426 189.233 174.688 189.539 175.038C189.845 175.388 190.004 175.852 190.015 176.432C190.015 176.946 189.873 177.405 189.588 177.809C189.304 178.214 188.9 178.531 188.375 178.76C187.861 178.99 187.255 179.105 186.555 179.105Z" fill="#111827"/>
<rect x="67.25" y="362" width="220" height="35" rx="6" fill="#F1E9FF"/>
<path opacity="0.6" d="M88.5797 379.146C89.1918 379.255 89.7111 379.578 90.1374 380.114C90.5637 380.649 90.7769 381.256 90.7769 381.934C90.7769 382.513 90.6239 383.038 90.3178 383.508C90.0226 383.967 89.5908 384.333 89.0224 384.606C88.4539 384.869 87.7926 385 87.0383 385H82.4798V373.604H86.8251C87.6013 373.604 88.2681 373.735 88.8256 373.997C89.3831 374.26 89.804 374.615 90.0882 375.063C90.3724 375.5 90.5146 375.992 90.5146 376.539C90.5146 377.195 90.3397 377.741 89.9898 378.179C89.64 378.616 89.17 378.938 88.5797 379.146ZM84.3491 378.392H86.6612C87.2733 378.392 87.7489 378.255 88.0877 377.982C88.4375 377.698 88.6125 377.293 88.6125 376.768C88.6125 376.255 88.4375 375.856 88.0877 375.571C87.7489 375.276 87.2733 375.129 86.6612 375.129H84.3491V378.392ZM86.8743 383.475C87.5084 383.475 88.0057 383.322 88.3665 383.016C88.7272 382.71 88.9076 382.283 88.9076 381.737C88.9076 381.179 88.7163 380.737 88.3337 380.409C87.9511 380.081 87.4428 379.917 86.8087 379.917H84.3491V383.475H86.8743ZM101.089 380.261C101.089 380.6 101.067 380.906 101.023 381.179H94.1201C94.1747 381.901 94.4426 382.48 94.9235 382.918C95.4045 383.355 95.9948 383.573 96.6945 383.573C97.7002 383.573 98.4107 383.153 98.8261 382.311H100.843C100.57 383.142 100.072 383.825 99.3509 384.36C98.6403 384.885 97.7548 385.148 96.6945 385.148C95.8309 385.148 95.0547 384.956 94.366 384.574C93.6883 384.18 93.1526 383.634 92.7591 382.934C92.3765 382.223 92.1852 381.403 92.1852 380.474C92.1852 379.545 92.371 378.731 92.7427 378.031C93.1253 377.321 93.6555 376.774 94.3332 376.391C95.0219 376.009 95.809 375.817 96.6945 375.817C97.5471 375.817 98.3069 376.003 98.9737 376.375C99.6405 376.747 100.16 377.271 100.531 377.949C100.903 378.616 101.089 379.387 101.089 380.261ZM99.1377 379.671C99.1268 378.982 98.8808 378.43 98.3998 378.015C97.9188 377.599 97.323 377.392 96.6125 377.392C95.9675 377.392 95.4155 377.599 94.9563 378.015C94.4972 378.419 94.2239 378.971 94.1365 379.671H99.1377ZM106.208 385.148C105.498 385.148 104.858 385.022 104.29 384.77C103.732 384.508 103.289 384.158 102.961 383.721C102.633 383.273 102.459 382.775 102.437 382.229H104.372C104.404 382.611 104.585 382.934 104.913 383.196C105.252 383.448 105.672 383.573 106.175 383.573C106.7 383.573 107.104 383.475 107.389 383.278C107.684 383.071 107.831 382.808 107.831 382.491C107.831 382.152 107.667 381.901 107.339 381.737C107.022 381.573 106.514 381.393 105.815 381.196C105.137 381.01 104.585 380.83 104.158 380.655C103.732 380.48 103.36 380.212 103.043 379.851C102.737 379.49 102.584 379.015 102.584 378.425C102.584 377.944 102.726 377.506 103.011 377.113C103.295 376.708 103.699 376.391 104.224 376.162C104.76 375.932 105.372 375.817 106.06 375.817C107.088 375.817 107.913 376.08 108.537 376.605C109.171 377.118 109.509 377.823 109.553 378.72H107.684C107.651 378.315 107.487 377.993 107.192 377.752C106.897 377.512 106.498 377.392 105.995 377.392C105.503 377.392 105.126 377.485 104.863 377.67C104.601 377.856 104.47 378.102 104.47 378.408C104.47 378.649 104.557 378.851 104.732 379.015C104.907 379.179 105.12 379.31 105.372 379.408C105.623 379.496 105.995 379.611 106.487 379.753C107.143 379.928 107.678 380.108 108.094 380.294C108.52 380.469 108.886 380.731 109.192 381.081C109.498 381.431 109.657 381.895 109.668 382.475C109.668 382.989 109.526 383.448 109.242 383.852C108.957 384.257 108.553 384.574 108.028 384.803C107.514 385.033 106.908 385.148 106.208 385.148ZM113.869 377.49V382.491C113.869 382.83 113.945 383.076 114.098 383.229C114.262 383.371 114.535 383.442 114.918 383.442H116.066V385H114.59C113.748 385 113.103 384.803 112.655 384.41C112.207 384.016 111.983 383.377 111.983 382.491V377.49H110.917V375.965H111.983V373.719H113.869V375.965H116.066V377.49H113.869ZM125.77 373.604C126.984 373.604 128.044 373.839 128.952 374.309C129.87 374.768 130.575 375.435 131.067 376.309C131.57 377.173 131.821 378.184 131.821 379.343C131.821 380.502 131.57 381.507 131.067 382.36C130.575 383.213 129.87 383.869 128.952 384.328C128.044 384.776 126.984 385 125.77 385H122.048V373.604H125.77ZM125.77 383.475C127.104 383.475 128.126 383.114 128.837 382.393C129.547 381.671 129.903 380.655 129.903 379.343C129.903 378.02 129.547 376.987 128.837 376.244C128.126 375.5 127.104 375.129 125.77 375.129H123.918V383.475H125.77ZM133.051 380.442C133.051 379.534 133.237 378.731 133.608 378.031C133.991 377.331 134.505 376.79 135.15 376.408C135.805 376.014 136.527 375.817 137.314 375.817C138.025 375.817 138.642 375.96 139.167 376.244C139.703 376.517 140.129 376.861 140.446 377.277V375.965H142.332V385H140.446V383.655C140.129 384.082 139.697 384.437 139.151 384.721C138.604 385.005 137.981 385.148 137.281 385.148C136.505 385.148 135.795 384.951 135.15 384.557C134.505 384.153 133.991 383.595 133.608 382.885C133.237 382.163 133.051 381.349 133.051 380.442ZM140.446 380.474C140.446 379.851 140.315 379.31 140.052 378.851C139.801 378.392 139.468 378.042 139.052 377.802C138.637 377.561 138.189 377.441 137.708 377.441C137.227 377.441 136.778 377.561 136.363 377.802C135.948 378.031 135.609 378.375 135.346 378.835C135.095 379.283 134.969 379.818 134.969 380.442C134.969 381.065 135.095 381.611 135.346 382.081C135.609 382.551 135.948 382.912 136.363 383.163C136.789 383.404 137.237 383.524 137.708 383.524C138.189 383.524 138.637 383.404 139.052 383.163C139.468 382.923 139.801 382.573 140.052 382.114C140.315 381.644 140.446 381.097 140.446 380.474ZM152.92 375.965L147.378 389.247H145.443L147.279 384.852L143.721 375.965H145.804L148.345 382.852L150.985 375.965H152.92Z" fill="#111827"/>
<path d="M202.235 385.115C201.47 385.115 200.781 384.984 200.169 384.721C199.557 384.448 199.076 384.065 198.726 383.573C198.376 383.081 198.201 382.508 198.201 381.852H200.202C200.245 382.344 200.437 382.748 200.775 383.065C201.125 383.382 201.612 383.541 202.235 383.541C202.88 383.541 203.383 383.388 203.743 383.081C204.104 382.764 204.285 382.36 204.285 381.868C204.285 381.485 204.17 381.174 203.94 380.933C203.722 380.693 203.443 380.507 203.104 380.376C202.776 380.245 202.317 380.103 201.727 379.95C200.983 379.753 200.376 379.556 199.906 379.359C199.447 379.152 199.054 378.835 198.726 378.408C198.398 377.982 198.234 377.413 198.234 376.703C198.234 376.047 198.398 375.473 198.726 374.981C199.054 374.489 199.513 374.112 200.103 373.85C200.693 373.587 201.377 373.456 202.153 373.456C203.257 373.456 204.159 373.735 204.858 374.292C205.569 374.839 205.963 375.593 206.039 376.555H203.973C203.94 376.14 203.743 375.785 203.383 375.489C203.022 375.194 202.546 375.047 201.956 375.047C201.42 375.047 200.983 375.183 200.644 375.457C200.305 375.73 200.136 376.124 200.136 376.637C200.136 376.987 200.24 377.277 200.448 377.506C200.666 377.725 200.939 377.9 201.267 378.031C201.595 378.162 202.044 378.304 202.612 378.457C203.366 378.665 203.978 378.873 204.448 379.081C204.929 379.288 205.334 379.611 205.662 380.048C206.001 380.474 206.17 381.048 206.17 381.77C206.17 382.349 206.012 382.896 205.695 383.409C205.389 383.923 204.935 384.339 204.334 384.656C203.743 384.962 203.044 385.115 202.235 385.115ZM207.753 380.442C207.753 379.534 207.939 378.731 208.31 378.031C208.693 377.331 209.207 376.79 209.852 376.408C210.508 376.014 211.229 375.817 212.016 375.817C212.727 375.817 213.344 375.96 213.869 376.244C214.405 376.517 214.831 376.861 215.148 377.277V375.965H217.034V385H215.148V383.655C214.831 384.082 214.399 384.437 213.853 384.721C213.306 385.005 212.683 385.148 211.983 385.148C211.207 385.148 210.497 384.951 209.852 384.557C209.207 384.153 208.693 383.595 208.31 382.885C207.939 382.163 207.753 381.349 207.753 380.442ZM215.148 380.474C215.148 379.851 215.017 379.31 214.755 378.851C214.503 378.392 214.17 378.042 213.754 377.802C213.339 377.561 212.891 377.441 212.41 377.441C211.929 377.441 211.481 377.561 211.065 377.802C210.65 378.031 210.311 378.375 210.048 378.835C209.797 379.283 209.671 379.818 209.671 380.442C209.671 381.065 209.797 381.611 210.048 382.081C210.311 382.551 210.65 382.912 211.065 383.163C211.491 383.404 211.94 383.524 212.41 383.524C212.891 383.524 213.339 383.404 213.754 383.163C214.17 382.923 214.503 382.573 214.755 382.114C215.017 381.644 215.148 381.097 215.148 380.474ZM221.67 377.49V382.491C221.67 382.83 221.746 383.076 221.899 383.229C222.063 383.371 222.337 383.442 222.719 383.442H223.867V385H222.391C221.55 385 220.905 384.803 220.456 384.41C220.008 384.016 219.784 383.377 219.784 382.491V377.49H218.718V375.965H219.784V373.719H221.67V375.965H223.867V377.49H221.67ZM233.772 375.965V385H231.903V383.934C231.608 384.306 231.22 384.601 230.739 384.82C230.269 385.027 229.766 385.131 229.23 385.131C228.52 385.131 227.88 384.984 227.312 384.688C226.754 384.393 226.312 383.956 225.984 383.377C225.667 382.797 225.508 382.098 225.508 381.278V375.965H227.361V380.999C227.361 381.808 227.563 382.431 227.968 382.868C228.372 383.295 228.924 383.508 229.624 383.508C230.323 383.508 230.875 383.295 231.28 382.868C231.695 382.431 231.903 381.808 231.903 380.999V375.965H233.772ZM238.108 377.277C238.381 376.818 238.742 376.462 239.19 376.211C239.649 375.949 240.191 375.817 240.814 375.817V377.752H240.338C239.606 377.752 239.048 377.938 238.666 378.31C238.294 378.682 238.108 379.326 238.108 380.245V385H236.239V375.965H238.108V377.277ZM241.909 380.442C241.909 379.534 242.095 378.731 242.466 378.031C242.849 377.331 243.363 376.79 244.008 376.408C244.664 376.014 245.391 375.817 246.189 375.817C246.779 375.817 247.358 375.949 247.927 376.211C248.506 376.462 248.965 376.801 249.304 377.228V372.866H251.19V385H249.304V383.639C248.998 384.076 248.572 384.437 248.025 384.721C247.489 385.005 246.872 385.148 246.172 385.148C245.385 385.148 244.664 384.951 244.008 384.557C243.363 384.153 242.849 383.595 242.466 382.885C242.095 382.163 241.909 381.349 241.909 380.442ZM249.304 380.474C249.304 379.851 249.173 379.31 248.911 378.851C248.659 378.392 248.326 378.042 247.91 377.802C247.495 377.561 247.047 377.441 246.566 377.441C246.085 377.441 245.637 377.561 245.221 377.802C244.806 378.031 244.467 378.375 244.204 378.835C243.953 379.283 243.827 379.818 243.827 380.442C243.827 381.065 243.953 381.611 244.204 382.081C244.467 382.551 244.806 382.912 245.221 383.163C245.647 383.404 246.096 383.524 246.566 383.524C247.047 383.524 247.495 383.404 247.91 383.163C248.326 382.923 248.659 382.573 248.911 382.114C249.173 381.644 249.304 381.097 249.304 380.474ZM253.022 380.442C253.022 379.534 253.208 378.731 253.579 378.031C253.962 377.331 254.476 376.79 255.121 376.408C255.777 376.014 256.498 375.817 257.285 375.817C257.996 375.817 258.613 375.96 259.138 376.244C259.674 376.517 260.1 376.861 260.417 377.277V375.965H262.303V385H260.417V383.655C260.1 384.082 259.668 384.437 259.122 384.721C258.575 385.005 257.952 385.148 257.252 385.148C256.476 385.148 255.766 384.951 255.121 384.557C254.476 384.153 253.962 383.595 253.579 382.885C253.208 382.163 253.022 381.349 253.022 380.442ZM260.417 380.474C260.417 379.851 260.286 379.31 260.024 378.851C259.772 378.392 259.439 378.042 259.023 377.802C258.608 377.561 258.16 377.441 257.679 377.441C257.198 377.441 256.75 377.561 256.334 377.802C255.919 378.031 255.58 378.375 255.318 378.835C255.066 379.283 254.94 379.818 254.94 380.442C254.94 381.065 255.066 381.611 255.318 382.081C255.58 382.551 255.919 382.912 256.334 383.163C256.761 383.404 257.209 383.524 257.679 383.524C258.16 383.524 258.608 383.404 259.023 383.163C259.439 382.923 259.772 382.573 260.024 382.114C260.286 381.644 260.417 381.097 260.417 380.474ZM272.891 375.965L267.349 389.247H265.414L267.251 384.852L263.692 375.965H265.775L268.316 382.852L270.956 375.965H272.891Z" fill="#111827"/>
<path d="M90.7931 200.502V196.033H98.5796V216.553H93.576V200.502H90.7931ZM101.699 212.702C102.336 212.196 102.627 211.962 102.571 211.999C104.407 210.481 105.85 209.235 106.899 208.261C107.968 207.286 108.867 206.265 109.598 205.197C110.329 204.129 110.694 203.089 110.694 202.077C110.694 201.308 110.516 200.709 110.16 200.278C109.804 199.847 109.27 199.631 108.558 199.631C107.846 199.631 107.284 199.903 106.871 200.446C106.478 200.971 106.281 201.721 106.281 202.695H101.643C101.68 201.102 102.018 199.772 102.655 198.703C103.311 197.635 104.163 196.848 105.213 196.342C106.281 195.836 107.462 195.583 108.755 195.583C110.985 195.583 112.662 196.155 113.786 197.298C114.93 198.441 115.501 199.931 115.501 201.767C115.501 203.773 114.817 205.637 113.449 207.361C112.081 209.067 110.338 210.734 108.221 212.365H115.81V216.272H101.699V212.702ZM118.039 212.899V209.02L126.922 196.314H132.291V208.739H134.596V212.899H132.291V216.553H127.484V212.899H118.039ZM127.821 201.599L123.099 208.739H127.821V201.599ZM140.323 205.534C138.562 204.597 137.681 203.126 137.681 201.121C137.681 200.109 137.943 199.191 138.468 198.366C138.993 197.523 139.789 196.858 140.858 196.37C141.926 195.864 143.238 195.611 144.793 195.611C146.348 195.611 147.651 195.864 148.7 196.37C149.768 196.858 150.565 197.523 151.09 198.366C151.614 199.191 151.877 200.109 151.877 201.121C151.877 202.133 151.633 203.014 151.146 203.763C150.677 204.513 150.04 205.103 149.234 205.534C150.246 206.021 151.024 206.696 151.567 207.558C152.111 208.401 152.383 209.395 152.383 210.538C152.383 211.868 152.045 213.021 151.371 213.995C150.696 214.951 149.778 215.682 148.616 216.188C147.473 216.694 146.198 216.947 144.793 216.947C143.387 216.947 142.104 216.694 140.942 216.188C139.799 215.682 138.89 214.951 138.215 213.995C137.541 213.021 137.203 211.868 137.203 210.538C137.203 209.376 137.475 208.373 138.018 207.53C138.562 206.668 139.33 206.003 140.323 205.534ZM147.21 201.852C147.21 201.083 146.986 200.493 146.536 200.081C146.105 199.65 145.524 199.434 144.793 199.434C144.062 199.434 143.472 199.65 143.022 200.081C142.591 200.512 142.375 201.112 142.375 201.88C142.375 202.611 142.6 203.192 143.05 203.623C143.5 204.035 144.081 204.241 144.793 204.241C145.505 204.241 146.086 204.026 146.536 203.595C146.986 203.164 147.21 202.583 147.21 201.852ZM144.793 207.614C143.912 207.614 143.2 207.858 142.657 208.345C142.113 208.814 141.841 209.47 141.841 210.313C141.841 211.1 142.104 211.746 142.628 212.252C143.172 212.758 143.893 213.011 144.793 213.011C145.692 213.011 146.395 212.758 146.901 212.252C147.426 211.746 147.688 211.1 147.688 210.313C147.688 209.488 147.417 208.832 146.873 208.345C146.348 207.858 145.655 207.614 144.793 207.614Z" fill="#111827"/>
<g filter="url(#filter2_d_808_10566)">
<path d="M271.293 248.631H83.8935C74.8375 248.631 67.4961 255.104 67.4961 263.088V329.175C67.4961 337.159 74.8375 343.631 83.8935 343.631H271.293C280.349 343.631 287.69 337.159 287.69 329.175V263.088C287.69 255.104 280.349 248.631 271.293 248.631Z" fill="#F5F5F5"/>
<path d="M271.293 248.631H83.8935C74.8375 248.631 67.4961 255.104 67.4961 263.088V329.175C67.4961 337.159 74.8375 343.631 83.8935 343.631H271.293C280.349 343.631 287.69 337.159 287.69 329.175V263.088C287.69 255.104 280.349 248.631 271.293 248.631Z" stroke="#F3F4F6" stroke-width="1.17125"/>
</g>
<path opacity="0.6" d="M93.1333 274.138V277.483H97.0687V279.008H93.1333V282.501H97.5606V284.026H91.264V272.613H97.5606V274.138H93.1333ZM104.422 274.843C105.132 274.843 105.766 274.991 106.324 275.286C106.892 275.581 107.335 276.018 107.652 276.598C107.969 277.177 108.127 277.877 108.127 278.696V284.026H106.274V278.975C106.274 278.166 106.072 277.549 105.668 277.122C105.263 276.685 104.711 276.466 104.012 276.466C103.312 276.466 102.754 276.685 102.339 277.122C101.935 277.549 101.732 278.166 101.732 278.975V284.026H99.863V274.991H101.732V276.024C102.038 275.652 102.427 275.362 102.897 275.155C103.378 274.947 103.886 274.843 104.422 274.843ZM114.152 274.843C114.852 274.843 115.469 274.985 116.005 275.269C116.551 275.543 116.978 275.887 117.284 276.302V274.991H119.17V284.173C119.17 285.004 118.995 285.742 118.645 286.387C118.295 287.043 117.787 287.557 117.12 287.928C116.464 288.3 115.677 288.486 114.759 288.486C113.534 288.486 112.518 288.196 111.709 287.617C110.9 287.048 110.441 286.272 110.331 285.288H112.184C112.326 285.758 112.627 286.135 113.086 286.42C113.556 286.715 114.114 286.862 114.759 286.862C115.513 286.862 116.12 286.633 116.579 286.174C117.049 285.715 117.284 285.048 117.284 284.173V282.665C116.967 283.091 116.535 283.452 115.989 283.747C115.453 284.031 114.841 284.173 114.152 284.173C113.365 284.173 112.643 283.976 111.988 283.583C111.343 283.178 110.829 282.621 110.446 281.91C110.075 281.189 109.889 280.374 109.889 279.467C109.889 278.56 110.075 277.756 110.446 277.057C110.829 276.357 111.343 275.816 111.988 275.433C112.643 275.04 113.365 274.843 114.152 274.843ZM117.284 279.5C117.284 278.877 117.153 278.336 116.89 277.877C116.639 277.417 116.306 277.068 115.89 276.827C115.475 276.587 115.027 276.466 114.546 276.466C114.065 276.466 113.616 276.587 113.201 276.827C112.786 277.057 112.447 277.401 112.184 277.86C111.933 278.308 111.807 278.844 111.807 279.467C111.807 280.09 111.933 280.637 112.184 281.107C112.447 281.577 112.786 281.938 113.201 282.189C113.627 282.43 114.075 282.55 114.546 282.55C115.027 282.55 115.475 282.43 115.89 282.189C116.306 281.949 116.639 281.599 116.89 281.14C117.153 280.67 117.284 280.123 117.284 279.5ZM121.002 279.467C121.002 278.56 121.188 277.756 121.559 277.057C121.942 276.357 122.456 275.816 123.101 275.433C123.757 275.04 124.478 274.843 125.265 274.843C125.976 274.843 126.593 274.985 127.118 275.269C127.654 275.543 128.08 275.887 128.397 276.302V274.991H130.283V284.026H128.397V282.681C128.08 283.107 127.648 283.463 127.102 283.747C126.555 284.031 125.932 284.173 125.232 284.173C124.456 284.173 123.746 283.976 123.101 283.583C122.456 283.178 121.942 282.621 121.559 281.91C121.188 281.189 121.002 280.374 121.002 279.467ZM128.397 279.5C128.397 278.877 128.266 278.336 128.003 277.877C127.752 277.417 127.419 277.068 127.003 276.827C126.588 276.587 126.14 276.466 125.659 276.466C125.178 276.466 124.729 276.587 124.314 276.827C123.899 277.057 123.56 277.401 123.297 277.86C123.046 278.308 122.92 278.844 122.92 279.467C122.92 280.09 123.046 280.637 123.297 281.107C123.56 281.577 123.899 281.938 124.314 282.189C124.74 282.43 125.189 282.55 125.659 282.55C126.14 282.55 126.588 282.43 127.003 282.189C127.419 281.949 127.752 281.599 128.003 281.14C128.266 280.67 128.397 280.123 128.397 279.5ZM136.378 274.843C137.078 274.843 137.695 274.985 138.231 275.269C138.778 275.543 139.204 275.887 139.51 276.302V274.991H141.396V284.173C141.396 285.004 141.221 285.742 140.871 286.387C140.521 287.043 140.013 287.557 139.346 287.928C138.69 288.3 137.903 288.486 136.985 288.486C135.761 288.486 134.744 288.196 133.935 287.617C133.126 287.048 132.667 286.272 132.558 285.288H134.411C134.553 285.758 134.853 286.135 135.312 286.42C135.782 286.715 136.34 286.862 136.985 286.862C137.739 286.862 138.346 286.633 138.805 286.174C139.275 285.715 139.51 285.048 139.51 284.173V282.665C139.193 283.091 138.761 283.452 138.215 283.747C137.679 284.031 137.067 284.173 136.378 284.173C135.591 284.173 134.87 283.976 134.214 283.583C133.569 283.178 133.055 282.621 132.672 281.91C132.301 281.189 132.115 280.374 132.115 279.467C132.115 278.56 132.301 277.756 132.672 277.057C133.055 276.357 133.569 275.816 134.214 275.433C134.87 275.04 135.591 274.843 136.378 274.843ZM139.51 279.5C139.51 278.877 139.379 278.336 139.117 277.877C138.865 277.417 138.532 277.068 138.116 276.827C137.701 276.587 137.253 276.466 136.772 276.466C136.291 276.466 135.843 276.587 135.427 276.827C135.012 277.057 134.673 277.401 134.411 277.86C134.159 278.308 134.033 278.844 134.033 279.467C134.033 280.09 134.159 280.637 134.411 281.107C134.673 281.577 135.012 281.938 135.427 282.189C135.854 282.43 136.302 282.55 136.772 282.55C137.253 282.55 137.701 282.43 138.116 282.189C138.532 281.949 138.865 281.599 139.117 281.14C139.379 280.67 139.51 280.123 139.51 279.5ZM152.132 279.287C152.132 279.626 152.11 279.932 152.066 280.205H145.163C145.218 280.927 145.485 281.506 145.966 281.943C146.447 282.38 147.038 282.599 147.737 282.599C148.743 282.599 149.454 282.178 149.869 281.336H151.886C151.613 282.167 151.115 282.85 150.394 283.386C149.683 283.911 148.798 284.173 147.737 284.173C146.874 284.173 146.098 283.982 145.409 283.599C144.731 283.206 144.195 282.659 143.802 281.96C143.419 281.249 143.228 280.429 143.228 279.5C143.228 278.571 143.414 277.756 143.786 277.057C144.168 276.346 144.698 275.8 145.376 275.417C146.065 275.034 146.852 274.843 147.737 274.843C148.59 274.843 149.35 275.029 150.017 275.401C150.683 275.772 151.203 276.297 151.574 276.975C151.946 277.642 152.132 278.412 152.132 279.287ZM150.181 278.696C150.17 278.008 149.924 277.456 149.443 277.04C148.962 276.625 148.366 276.417 147.655 276.417C147.01 276.417 146.458 276.625 145.999 277.04C145.54 277.445 145.267 277.997 145.179 278.696H150.181ZM164.909 274.843C165.619 274.843 166.253 274.991 166.811 275.286C167.379 275.581 167.822 276.018 168.139 276.598C168.467 277.177 168.631 277.877 168.631 278.696V284.026H166.778V278.975C166.778 278.166 166.576 277.549 166.171 277.122C165.767 276.685 165.215 276.466 164.515 276.466C163.815 276.466 163.258 276.685 162.842 277.122C162.438 277.549 162.236 278.166 162.236 278.975V284.026H160.383V278.975C160.383 278.166 160.181 277.549 159.776 277.122C159.372 276.685 158.82 276.466 158.12 276.466C157.42 276.466 156.863 276.685 156.447 277.122C156.043 277.549 155.841 278.166 155.841 278.975V284.026H153.971V274.991H155.841V276.024C156.147 275.652 156.535 275.362 157.005 275.155C157.475 274.947 157.978 274.843 158.514 274.843C159.235 274.843 159.88 274.996 160.448 275.302C161.017 275.608 161.454 276.051 161.76 276.63C162.033 276.084 162.46 275.652 163.039 275.335C163.619 275.007 164.242 274.843 164.909 274.843ZM179.29 279.287C179.29 279.626 179.268 279.932 179.225 280.205H172.321C172.376 280.927 172.644 281.506 173.125 281.943C173.606 282.38 174.196 282.599 174.896 282.599C175.901 282.599 176.612 282.178 177.027 281.336H179.044C178.771 282.167 178.273 282.85 177.552 283.386C176.841 283.911 175.956 284.173 174.896 284.173C174.032 284.173 173.256 283.982 172.567 283.599C171.889 283.206 171.354 282.659 170.96 281.96C170.578 281.249 170.386 280.429 170.386 279.5C170.386 278.571 170.572 277.756 170.944 277.057C171.326 276.346 171.857 275.8 172.534 275.417C173.223 275.034 174.01 274.843 174.896 274.843C175.748 274.843 176.508 275.029 177.175 275.401C177.842 275.772 178.361 276.297 178.733 276.975C179.104 277.642 179.29 278.412 179.29 279.287ZM177.339 278.696C177.328 278.008 177.082 277.456 176.601 277.04C176.12 276.625 175.524 276.417 174.814 276.417C174.169 276.417 173.617 276.625 173.157 277.04C172.698 277.445 172.425 277.997 172.338 278.696H177.339ZM185.688 274.843C186.399 274.843 187.033 274.991 187.59 275.286C188.159 275.581 188.601 276.018 188.918 276.598C189.235 277.177 189.394 277.877 189.394 278.696V284.026H187.541V278.975C187.541 278.166 187.339 277.549 186.934 277.122C186.53 276.685 185.978 276.466 185.278 276.466C184.579 276.466 184.021 276.685 183.606 277.122C183.201 277.549 182.999 278.166 182.999 278.975V284.026H181.13V274.991H182.999V276.024C183.305 275.652 183.693 275.362 184.163 275.155C184.644 274.947 185.153 274.843 185.688 274.843ZM193.959 276.516V281.517C193.959 281.856 194.036 282.102 194.189 282.255C194.353 282.397 194.626 282.468 195.009 282.468H196.157V284.026H194.681C193.839 284.026 193.194 283.829 192.746 283.435C192.298 283.042 192.074 282.402 192.074 281.517V276.516H191.008V274.991H192.074V272.744H193.959V274.991H196.157V276.516H193.959ZM208.058 284.026L205.435 279.467H204.008V284.026H202.139V272.629H206.074C206.949 272.629 207.687 272.782 208.288 273.089C208.9 273.395 209.354 273.805 209.649 274.318C209.955 274.832 210.108 275.406 210.108 276.04C210.108 276.783 209.889 277.461 209.452 278.073C209.026 278.675 208.364 279.085 207.468 279.303L210.288 284.026H208.058ZM204.008 277.975H206.074C206.774 277.975 207.299 277.8 207.648 277.45C208.009 277.1 208.19 276.63 208.19 276.04C208.19 275.45 208.015 274.991 207.665 274.663C207.315 274.324 206.785 274.154 206.074 274.154H204.008V277.975ZM211.876 279.467C211.876 278.56 212.062 277.756 212.434 277.057C212.816 276.357 213.33 275.816 213.975 275.433C214.631 275.04 215.353 274.843 216.14 274.843C216.85 274.843 217.468 274.985 217.993 275.269C218.528 275.543 218.955 275.887 219.272 276.302V274.991H221.157V284.026H219.272V282.681C218.955 283.107 218.523 283.463 217.976 283.747C217.43 284.031 216.806 284.173 216.107 284.173C215.331 284.173 214.62 283.976 213.975 283.583C213.33 283.178 212.816 282.621 212.434 281.91C212.062 281.189 211.876 280.374 211.876 279.467ZM219.272 279.5C219.272 278.877 219.14 278.336 218.878 277.877C218.627 277.417 218.293 277.068 217.878 276.827C217.462 276.587 217.014 276.466 216.533 276.466C216.052 276.466 215.604 276.587 215.189 276.827C214.773 277.057 214.434 277.401 214.172 277.86C213.921 278.308 213.795 278.844 213.795 279.467C213.795 280.09 213.921 280.637 214.172 281.107C214.434 281.577 214.773 281.938 215.189 282.189C215.615 282.43 216.063 282.55 216.533 282.55C217.014 282.55 217.462 282.43 217.878 282.189C218.293 281.949 218.627 281.599 218.878 281.14C219.14 280.67 219.272 280.123 219.272 279.5ZM225.793 276.516V281.517C225.793 281.856 225.87 282.102 226.023 282.255C226.187 282.397 226.46 282.468 226.843 282.468H227.991V284.026H226.515C225.673 284.026 225.028 283.829 224.58 283.435C224.132 283.042 223.908 282.402 223.908 281.517V276.516H222.842V274.991H223.908V272.744H225.793V274.991H227.991V276.516H225.793ZM237.994 279.287C237.994 279.626 237.972 279.932 237.929 280.205H231.025C231.08 280.927 231.348 281.506 231.829 281.943C232.31 282.38 232.9 282.599 233.6 282.599C234.605 282.599 235.316 282.178 235.731 281.336H237.748C237.475 282.167 236.978 282.85 236.256 283.386C235.546 283.911 234.66 284.173 233.6 284.173C232.736 284.173 231.96 283.982 231.271 283.599C230.594 283.206 230.058 282.659 229.664 281.96C229.282 281.249 229.09 280.429 229.09 279.5C229.09 278.571 229.276 277.756 229.648 277.057C230.031 276.346 230.561 275.8 231.238 275.417C231.927 275.034 232.714 274.843 233.6 274.843C234.452 274.843 235.212 275.029 235.879 275.401C236.546 275.772 237.065 276.297 237.437 276.975C237.808 277.642 237.994 278.412 237.994 279.287ZM236.043 278.696C236.032 278.008 235.786 277.456 235.305 277.04C234.824 276.625 234.228 276.417 233.518 276.417C232.873 276.417 232.321 276.625 231.862 277.04C231.402 277.445 231.129 277.997 231.042 278.696H236.043Z" fill="#111827"/>
<path d="M101.447 306.639C101.297 305.946 101.035 305.431 100.66 305.093C100.285 304.737 99.7508 304.559 99.0575 304.559C97.9893 304.559 97.2209 305.028 96.7524 305.965C96.2839 306.883 96.0403 308.345 96.0216 310.35C96.4339 309.694 97.0242 309.179 97.7925 308.804C98.5796 308.429 99.4416 308.242 100.379 308.242C102.215 308.242 103.686 308.822 104.792 309.984C105.916 311.146 106.478 312.767 106.478 314.847C106.478 316.215 106.197 317.415 105.635 318.445C105.092 319.476 104.286 320.282 103.218 320.863C102.168 321.444 100.922 321.734 99.4791 321.734C96.5932 321.734 94.588 320.835 93.4636 319.036C92.3392 317.218 91.777 314.613 91.777 311.221C91.777 307.661 92.3673 305.018 93.5479 303.294C94.7473 301.551 96.6587 300.68 99.2823 300.68C100.688 300.68 101.868 300.961 102.824 301.523C103.799 302.067 104.53 302.788 105.017 303.688C105.523 304.587 105.823 305.571 105.916 306.639H101.447ZM99.2261 312.036C98.4203 312.036 97.7457 312.28 97.2022 312.767C96.6775 313.236 96.4151 313.91 96.4151 314.791C96.4151 315.691 96.6587 316.393 97.146 316.899C97.652 317.405 98.3641 317.658 99.2823 317.658C100.107 317.658 100.753 317.415 101.222 316.927C101.709 316.421 101.953 315.737 101.953 314.875C101.953 313.995 101.719 313.301 101.25 312.795C100.782 312.289 100.107 312.036 99.2261 312.036ZM112.57 310.603C110.809 309.666 109.928 308.195 109.928 306.189C109.928 305.178 110.19 304.259 110.715 303.435C111.24 302.591 112.036 301.926 113.105 301.439C114.173 300.933 115.484 300.68 117.04 300.68C118.595 300.68 119.898 300.933 120.947 301.439C122.015 301.926 122.812 302.591 123.337 303.435C123.861 304.259 124.124 305.178 124.124 306.189C124.124 307.201 123.88 308.082 123.393 308.832C122.924 309.581 122.287 310.172 121.481 310.603C122.493 311.09 123.271 311.765 123.814 312.627C124.358 313.47 124.63 314.463 124.63 315.606C124.63 316.937 124.292 318.089 123.618 319.064C122.943 320.02 122.025 320.75 120.863 321.256C119.72 321.762 118.445 322.015 117.04 322.015C115.634 322.015 114.351 321.762 113.189 321.256C112.046 320.75 111.137 320.02 110.462 319.064C109.788 318.089 109.45 316.937 109.45 315.606C109.45 314.444 109.722 313.442 110.265 312.599C110.809 311.737 111.577 311.071 112.57 310.603ZM119.457 306.92C119.457 306.152 119.232 305.562 118.783 305.149C118.352 304.718 117.771 304.503 117.04 304.503C116.309 304.503 115.719 304.718 115.269 305.149C114.838 305.58 114.622 306.18 114.622 306.948C114.622 307.679 114.847 308.26 115.297 308.691C115.747 309.104 116.328 309.31 117.04 309.31C117.752 309.31 118.333 309.094 118.783 308.663C119.232 308.232 119.457 307.651 119.457 306.92ZM117.04 312.683C116.159 312.683 115.447 312.926 114.904 313.414C114.36 313.882 114.088 314.538 114.088 315.381C114.088 316.169 114.351 316.815 114.875 317.321C115.419 317.827 116.14 318.08 117.04 318.08C117.939 318.08 118.642 317.827 119.148 317.321C119.673 316.815 119.935 316.169 119.935 315.381C119.935 314.557 119.663 313.901 119.12 313.414C118.595 312.926 117.902 312.683 117.04 312.683ZM127.031 306.274C127.031 304.756 127.462 303.585 128.324 302.76C129.205 301.936 130.339 301.523 131.726 301.523C133.112 301.523 134.237 301.936 135.099 302.76C135.961 303.585 136.392 304.756 136.392 306.274C136.392 307.792 135.961 308.963 135.099 309.788C134.237 310.612 133.112 311.024 131.726 311.024C130.339 311.024 129.205 310.612 128.324 309.788C127.462 308.963 127.031 307.792 127.031 306.274ZM146.118 301.832L135.296 321.622H130.657L141.48 301.832H146.118ZM131.697 304.334C130.798 304.334 130.348 304.981 130.348 306.274C130.348 307.548 130.798 308.185 131.697 308.185C132.128 308.185 132.466 308.026 132.709 307.707C132.953 307.389 133.075 306.911 133.075 306.274C133.075 304.981 132.616 304.334 131.697 304.334ZM140.412 317.18C140.412 315.663 140.843 314.491 141.705 313.667C142.567 312.842 143.691 312.43 145.078 312.43C146.465 312.43 147.589 312.842 148.451 313.667C149.313 314.491 149.744 315.663 149.744 317.18C149.744 318.698 149.313 319.87 148.451 320.694C147.589 321.519 146.465 321.931 145.078 321.931C143.691 321.931 142.567 321.519 141.705 320.694C140.843 319.87 140.412 318.698 140.412 317.18ZM145.05 315.241C144.619 315.241 144.281 315.4 144.038 315.719C143.813 316.037 143.7 316.525 143.7 317.18C143.7 318.455 144.15 319.092 145.05 319.092C145.481 319.092 145.818 318.933 146.062 318.614C146.305 318.295 146.427 317.818 146.427 317.18C146.427 316.543 146.305 316.065 146.062 315.747C145.818 315.41 145.481 315.241 145.05 315.241Z" fill="#111827"/>
<path d="M68.2834 83.7921C68.2834 82.1379 68.6413 80.6665 69.3571 79.3781C70.0729 78.0738 71.067 77.0638 72.3395 76.348C73.6279 75.6163 75.0833 75.2505 76.7058 75.2505C78.694 75.2505 80.396 75.7754 81.8116 76.8252C83.2273 77.875 84.1737 79.3066 84.6509 81.1199H80.1654C79.8313 80.42 79.3541 79.8871 78.7338 79.5213C78.1294 79.1555 77.4374 78.9725 76.658 78.9725C75.4015 78.9725 74.3835 79.41 73.6041 80.2848C72.8247 81.1596 72.435 82.3287 72.435 83.7921C72.435 85.2555 72.8247 86.4246 73.6041 87.2994C74.3835 88.1742 75.4015 88.6117 76.658 88.6117C77.4374 88.6117 78.1294 88.4287 78.7338 88.0629C79.3541 87.6971 79.8313 87.1642 80.1654 86.4643H84.6509C84.1737 88.2776 83.2273 89.7092 81.8116 90.759C80.396 91.7929 78.694 92.3098 76.7058 92.3098C75.0833 92.3098 73.6279 91.952 72.3395 91.2362C71.067 90.5045 70.0729 89.4945 69.3571 88.2061C68.6413 86.9177 68.2834 85.4463 68.2834 83.7921ZM93.2096 92.3814C91.9053 92.3814 90.7283 92.1031 89.6785 91.5464C88.6446 90.9896 87.8254 90.1943 87.221 89.1604C86.6324 88.1265 86.3382 86.9177 86.3382 85.5338C86.3382 84.1659 86.6404 82.965 87.2448 81.9311C87.8493 80.8813 88.6764 80.078 89.7262 79.5213C90.776 78.9646 91.9531 78.6862 93.2574 78.6862C94.5617 78.6862 95.7387 78.9646 96.7885 79.5213C97.8383 80.078 98.6655 80.8813 99.2699 81.9311C99.8743 82.965 100.177 84.1659 100.177 85.5338C100.177 86.9018 99.8664 88.1106 99.246 89.1604C98.6416 90.1943 97.8065 90.9896 96.7408 91.5464C95.691 92.1031 94.514 92.3814 93.2096 92.3814ZM93.2096 88.8503C93.989 88.8503 94.6492 88.5639 95.19 87.9913C95.7467 87.4187 96.025 86.5995 96.025 85.5338C96.025 84.4681 95.7546 83.6489 95.2138 83.0763C94.6889 82.5037 94.0368 82.2174 93.2574 82.2174C92.4621 82.2174 91.802 82.5037 91.277 83.0763C90.7521 83.633 90.4897 84.4522 90.4897 85.5338C90.4897 86.5995 90.7442 87.4187 91.2532 87.9913C91.7781 88.5639 92.4302 88.8503 93.2096 88.8503ZM119.329 78.7339C120.983 78.7339 122.295 79.235 123.266 80.2371C124.252 81.2392 124.745 82.6309 124.745 84.4124V92.1906H120.689V84.9612C120.689 84.1023 120.458 83.4422 119.997 82.9809C119.551 82.5037 118.931 82.2651 118.136 82.2651C117.341 82.2651 116.712 82.5037 116.251 82.9809C115.806 83.4422 115.583 84.1023 115.583 84.9612V92.1906H111.527V84.9612C111.527 84.1023 111.296 83.4422 110.835 82.9809C110.39 82.5037 109.769 82.2651 108.974 82.2651C108.179 82.2651 107.55 82.5037 107.089 82.9809C106.644 83.4422 106.421 84.1023 106.421 84.9612V92.1906H102.341V78.8771H106.421V80.5472C106.835 79.9905 107.375 79.5531 108.043 79.235C108.711 78.901 109.467 78.7339 110.31 78.7339C111.312 78.7339 112.203 78.9487 112.982 79.3781C113.778 79.8076 114.398 80.42 114.843 81.2153C115.305 80.4836 115.933 79.8871 116.728 79.4259C117.523 78.9646 118.39 78.7339 119.329 78.7339ZM144.586 78.7339C146.24 78.7339 147.553 79.235 148.523 80.2371C149.509 81.2392 150.002 82.6309 150.002 84.4124V92.1906H145.946V84.9612C145.946 84.1023 145.715 83.4422 145.254 82.9809C144.809 82.5037 144.188 82.2651 143.393 82.2651C142.598 82.2651 141.969 82.5037 141.508 82.9809C141.063 83.4422 140.84 84.1023 140.84 84.9612V92.1906H136.784V84.9612C136.784 84.1023 136.553 83.4422 136.092 82.9809C135.647 82.5037 135.026 82.2651 134.231 82.2651C133.436 82.2651 132.808 82.5037 132.346 82.9809C131.901 83.4422 131.678 84.1023 131.678 84.9612V92.1906H127.598V78.8771H131.678V80.5472C132.092 79.9905 132.633 79.5531 133.301 79.235C133.969 78.901 134.724 78.7339 135.567 78.7339C136.569 78.7339 137.46 78.9487 138.239 79.3781C139.035 79.8076 139.655 80.42 140.101 81.2153C140.562 80.4836 141.19 79.8871 141.985 79.4259C142.781 78.9646 143.648 78.7339 144.586 78.7339ZM166.002 78.8771V92.1906H161.922V90.3772C161.508 90.9658 160.944 91.443 160.228 91.8088C159.528 92.1587 158.749 92.3337 157.89 92.3337C156.872 92.3337 155.973 92.111 155.194 91.6656C154.414 91.2044 153.81 90.5443 153.38 89.6853C152.951 88.8264 152.736 87.8164 152.736 86.6552V78.8771H156.792V86.1064C156.792 86.9972 157.023 87.6891 157.484 88.1822C157.945 88.6753 158.566 88.9218 159.345 88.9218C160.141 88.9218 160.769 88.6753 161.23 88.1822C161.691 87.6891 161.922 86.9972 161.922 86.1064V78.8771H166.002ZM177.045 78.7339C178.603 78.7339 179.844 79.2429 180.767 80.2609C181.705 81.263 182.174 82.6469 182.174 84.4124V92.1906H178.118V84.9612C178.118 84.0705 177.888 83.3785 177.426 82.8854C176.965 82.3924 176.345 82.1458 175.565 82.1458C174.786 82.1458 174.166 82.3924 173.704 82.8854C173.243 83.3785 173.012 84.0705 173.012 84.9612V92.1906H168.933V78.8771H173.012V80.6427C173.426 80.0542 173.983 79.5929 174.683 79.2588C175.382 78.9089 176.17 78.7339 177.045 78.7339ZM187.061 77.4933C186.346 77.4933 185.757 77.2865 185.296 76.8729C184.851 76.4435 184.628 75.9185 184.628 75.2982C184.628 74.662 184.851 74.1371 185.296 73.7235C185.757 73.294 186.346 73.0793 187.061 73.0793C187.761 73.0793 188.334 73.294 188.779 73.7235C189.241 74.1371 189.471 74.662 189.471 75.2982C189.471 75.9185 189.241 76.4435 188.779 76.8729C188.334 77.2865 187.761 77.4933 187.061 77.4933ZM189.089 78.8771V92.1906H185.01V78.8771H189.089ZM199.466 88.731V92.1906H197.391C195.911 92.1906 194.758 91.8327 193.931 91.1169C193.104 90.3852 192.69 89.2002 192.69 87.5619V82.2651H191.068V78.8771H192.69V75.6322H196.77V78.8771H199.443V82.2651H196.77V87.6096C196.77 88.0072 196.866 88.2935 197.057 88.4685C197.247 88.6435 197.566 88.731 198.011 88.731H199.466ZM215.339 78.8771L206.988 98.5133H202.598L205.652 91.7372L200.236 78.8771H204.793L207.871 87.204L210.925 78.8771H215.339ZM230.054 78.7339C231.581 78.7339 232.806 79.2429 233.728 80.2609C234.651 81.263 235.112 82.6469 235.112 84.4124V92.1906H231.056V84.9612C231.056 84.0705 230.825 83.3785 230.364 82.8854C229.903 82.3924 229.283 82.1458 228.503 82.1458C227.724 82.1458 227.103 82.3924 226.642 82.8854C226.181 83.3785 225.95 84.0705 225.95 84.9612V92.1906H221.87V74.5347H225.95V80.6665C226.364 80.078 226.928 79.6088 227.644 79.2588C228.36 78.9089 229.163 78.7339 230.054 78.7339ZM250.497 85.3191C250.497 85.7008 250.473 86.0985 250.426 86.5121H241.192C241.256 87.3392 241.518 87.9754 241.979 88.4208C242.457 88.8503 243.037 89.065 243.721 89.065C244.739 89.065 245.447 88.6355 245.845 87.7766H250.187C249.964 88.6514 249.559 89.4388 248.97 90.1387C248.398 90.8385 247.674 91.3873 246.799 91.7849C245.924 92.1826 244.946 92.3814 243.864 92.3814C242.56 92.3814 241.399 92.1031 240.381 91.5464C239.363 90.9896 238.568 90.1943 237.995 89.1604C237.422 88.1265 237.136 86.9177 237.136 85.5338C237.136 84.15 237.414 82.9411 237.971 81.9072C238.544 80.8733 239.339 80.078 240.357 79.5213C241.375 78.9646 242.544 78.6862 243.864 78.6862C245.153 78.6862 246.298 78.9566 247.3 79.4974C248.302 80.0382 249.082 80.8097 249.638 81.8118C250.211 82.8139 250.497 83.983 250.497 85.3191ZM246.322 84.2454C246.322 83.5456 246.083 82.9888 245.606 82.5753C245.129 82.1617 244.532 81.9549 243.817 81.9549C243.133 81.9549 242.552 82.1538 242.075 82.5514C241.614 82.9491 241.327 83.5137 241.216 84.2454H246.322ZM251.838 85.51C251.838 84.142 252.093 82.9411 252.602 81.9072C253.127 80.8733 253.835 80.078 254.725 79.5213C255.616 78.9646 256.61 78.6862 257.708 78.6862C258.646 78.6862 259.465 78.8771 260.165 79.2588C260.881 79.6406 261.43 80.1416 261.812 80.762V78.8771H265.891V92.1906H261.812V90.3057C261.414 90.926 260.857 91.4271 260.141 91.8088C259.442 92.1906 258.622 92.3814 257.684 92.3814C256.602 92.3814 255.616 92.1031 254.725 91.5464C253.835 90.9737 253.127 90.1705 252.602 89.1366C252.093 88.0868 251.838 86.8779 251.838 85.51ZM261.812 85.5338C261.812 84.5158 261.525 83.7126 260.953 83.124C260.396 82.5355 259.712 82.2412 258.901 82.2412C258.089 82.2412 257.398 82.5355 256.825 83.124C256.268 83.6967 255.99 84.492 255.99 85.51C255.99 86.528 256.268 87.3392 256.825 87.9436C257.398 88.5321 258.089 88.8264 258.901 88.8264C259.712 88.8264 260.396 88.5321 260.953 87.9436C261.525 87.3551 261.812 86.5518 261.812 85.5338ZM272.923 74.5347V92.1906H268.843V74.5347H272.923ZM283.3 88.731V92.1906H281.224C279.745 92.1906 278.592 91.8327 277.765 91.1169C276.937 90.3852 276.524 89.2002 276.524 87.5619V82.2651H274.901V78.8771H276.524V75.6322H280.604V78.8771H283.276V82.2651H280.604V87.6096C280.604 88.0072 280.699 88.2935 280.89 88.4685C281.081 88.6435 281.399 88.731 281.845 88.731H283.3ZM293.756 78.7339C295.283 78.7339 296.508 79.2429 297.431 80.2609C298.353 81.263 298.814 82.6469 298.814 84.4124V92.1906H294.758V84.9612C294.758 84.0705 294.528 83.3785 294.066 82.8854C293.605 82.3924 292.985 82.1458 292.205 82.1458C291.426 82.1458 290.806 82.3924 290.344 82.8854C289.883 83.3785 289.652 84.0705 289.652 84.9612V92.1906H285.573V74.5347H289.652V80.6665C290.066 80.078 290.631 79.6088 291.346 79.2588C292.062 78.9089 292.866 78.7339 293.756 78.7339ZM312.766 92.3814C311.462 92.3814 310.285 92.1031 309.235 91.5464C308.201 90.9896 307.382 90.1943 306.777 89.1604C306.189 88.1265 305.894 86.9177 305.894 85.5338C305.894 84.1659 306.197 82.965 306.801 81.9311C307.406 80.8813 308.233 80.078 309.282 79.5213C310.332 78.9646 311.509 78.6862 312.814 78.6862C314.118 78.6862 315.295 78.9646 316.345 79.5213C317.395 80.078 318.222 80.8813 318.826 81.9311C319.431 82.965 319.733 84.1659 319.733 85.5338C319.733 86.9018 319.423 88.1106 318.802 89.1604C318.198 90.1943 317.363 90.9896 316.297 91.5464C315.247 92.1031 314.07 92.3814 312.766 92.3814ZM312.766 88.8503C313.545 88.8503 314.205 88.5639 314.746 87.9913C315.303 87.4187 315.581 86.5995 315.581 85.5338C315.581 84.4681 315.311 83.6489 314.77 83.0763C314.245 82.5037 313.593 82.2174 312.814 82.2174C312.018 82.2174 311.358 82.5037 310.833 83.0763C310.308 83.633 310.046 84.4522 310.046 85.5338C310.046 86.5995 310.3 87.4187 310.809 87.9913C311.334 88.5639 311.987 88.8503 312.766 88.8503ZM327.886 88.3731L330.773 78.8771H335.115L330.391 92.1906H325.357L320.633 78.8771H324.999L327.886 88.3731ZM349.383 85.3191C349.383 85.7008 349.359 86.0985 349.311 86.5121H340.077C340.141 87.3392 340.404 87.9754 340.865 88.4208C341.342 88.8503 341.923 89.065 342.607 89.065C343.625 89.065 344.332 88.6355 344.73 87.7766H349.072C348.85 88.6514 348.444 89.4388 347.856 90.1387C347.283 90.8385 346.559 91.3873 345.684 91.7849C344.81 92.1826 343.831 92.3814 342.75 92.3814C341.445 92.3814 340.284 92.1031 339.266 91.5464C338.248 90.9896 337.453 90.1943 336.88 89.1604C336.308 88.1265 336.021 86.9177 336.021 85.5338C336.021 84.15 336.3 82.9411 336.856 81.9072C337.429 80.8733 338.224 80.078 339.242 79.5213C340.26 78.9646 341.43 78.6862 342.75 78.6862C344.038 78.6862 345.183 78.9566 346.185 79.4974C347.188 80.0382 347.967 80.8097 348.524 81.8118C349.096 82.8139 349.383 83.983 349.383 85.3191ZM345.207 84.2454C345.207 83.5456 344.969 82.9888 344.491 82.5753C344.014 82.1617 343.418 81.9549 342.702 81.9549C342.018 81.9549 341.437 82.1538 340.96 82.5514C340.499 82.9491 340.213 83.5137 340.101 84.2454H345.207ZM355.615 81.096C356.092 80.3643 356.689 79.7917 357.404 79.3781C358.12 78.9487 358.915 78.7339 359.79 78.7339V83.0525H358.669C357.651 83.0525 356.887 83.2751 356.378 83.7205C355.869 84.15 355.615 84.9135 355.615 86.011V92.1906H351.535V78.8771H355.615V81.096ZM367.729 88.3731L370.616 78.8771H374.958L370.234 92.1906H365.2L360.476 78.8771H364.842L367.729 88.3731ZM378.728 77.4933C378.012 77.4933 377.423 77.2865 376.962 76.8729C376.517 76.4435 376.294 75.9185 376.294 75.2982C376.294 74.662 376.517 74.1371 376.962 73.7235C377.423 73.294 378.012 73.0793 378.728 73.0793C379.427 73.0793 380 73.294 380.445 73.7235C380.907 74.1371 381.137 74.662 381.137 75.2982C381.137 75.9185 380.907 76.4435 380.445 76.8729C380 77.2865 379.427 77.4933 378.728 77.4933ZM380.756 78.8771V92.1906H376.676V78.8771H380.756ZM396.262 85.3191C396.262 85.7008 396.238 86.0985 396.191 86.5121H386.957C387.021 87.3392 387.283 87.9754 387.745 88.4208C388.222 88.8503 388.802 89.065 389.486 89.065C390.504 89.065 391.212 88.6355 391.61 87.7766H395.952C395.729 88.6514 395.324 89.4388 394.735 90.1387C394.163 90.8385 393.439 91.3873 392.564 91.7849C391.689 92.1826 390.711 92.3814 389.629 92.3814C388.325 92.3814 387.164 92.1031 386.146 91.5464C385.128 90.9896 384.333 90.1943 383.76 89.1604C383.187 88.1265 382.901 86.9177 382.901 85.5338C382.901 84.15 383.179 82.9411 383.736 81.9072C384.309 80.8733 385.104 80.078 386.122 79.5213C387.14 78.9646 388.309 78.6862 389.629 78.6862C390.918 78.6862 392.063 78.9566 393.065 79.4974C394.067 80.0382 394.847 80.8097 395.403 81.8118C395.976 82.8139 396.262 83.983 396.262 85.3191ZM392.087 84.2454C392.087 83.5456 391.848 82.9888 391.371 82.5753C390.894 82.1617 390.297 81.9549 389.582 81.9549C388.898 81.9549 388.317 82.1538 387.84 82.5514C387.379 82.9491 387.092 83.5137 386.981 84.2454H392.087ZM417.526 78.8771L413.923 92.1906H409.414L407.314 83.5535L405.143 92.1906H400.657L397.031 78.8771H401.111L402.996 88.3969L405.238 78.8771H409.557L411.824 88.3492L413.685 78.8771H417.526Z" fill="#111827"/>
<g filter="url(#filter3_dd_808_10566)">
<rect x="28.0088" y="446.421" width="364.888" height="266.33" rx="24.2692" fill="white"/>
<rect x="28.5088" y="446.921" width="363.888" height="265.33" rx="23.7692" stroke="#DEDEDE"/>
</g>
<g filter="url(#filter4_dd_808_10566)">
<rect x="410.718" y="446.421" width="309.273" height="266.33" rx="24.2692" fill="white"/>
<rect x="411.218" y="446.921" width="308.273" height="265.33" rx="23.7692" stroke="#DEDEDE"/>
</g>
<rect opacity="0.7" x="444.539" y="582.188" width="222.528" height="11.7379" rx="5.86893" fill="#979AA1"/>
<rect opacity="0.3" x="443.171" y="604.295" width="101.711" height="11.7379" rx="5.86893" fill="#979AA1"/>
<path d="M461.871 544.486V558.683H458.413V550.169L455.238 558.683H452.447L449.251 550.149V558.683H445.793V544.486H449.878L453.862 554.315L457.806 544.486H461.871ZM469.495 558.845C468.39 558.845 467.392 558.609 466.502 558.137C465.626 557.665 464.931 556.991 464.419 556.115C463.92 555.238 463.671 554.214 463.671 553.041C463.671 551.881 463.927 550.863 464.439 549.987C464.951 549.097 465.653 548.416 466.542 547.944C467.432 547.472 468.43 547.236 469.536 547.236C470.641 547.236 471.639 547.472 472.529 547.944C473.419 548.416 474.12 549.097 474.632 549.987C475.145 550.863 475.401 551.881 475.401 553.041C475.401 554.2 475.138 555.225 474.612 556.115C474.1 556.991 473.392 557.665 472.488 558.137C471.599 558.609 470.601 558.845 469.495 558.845ZM469.495 555.852C470.156 555.852 470.715 555.609 471.174 555.124C471.646 554.638 471.882 553.944 471.882 553.041C471.882 552.137 471.652 551.443 471.194 550.958C470.749 550.472 470.196 550.229 469.536 550.229C468.862 550.229 468.302 550.472 467.857 550.958C467.412 551.429 467.19 552.124 467.19 553.041C467.19 553.944 467.405 554.638 467.837 555.124C468.282 555.609 468.835 555.852 469.495 555.852ZM484.112 547.277C485.433 547.277 486.485 547.708 487.267 548.571C488.062 549.42 488.46 550.594 488.46 552.09V558.683H485.022V552.555C485.022 551.8 484.826 551.214 484.435 550.796C484.044 550.378 483.518 550.169 482.858 550.169C482.197 550.169 481.671 550.378 481.28 550.796C480.889 551.214 480.694 551.8 480.694 552.555V558.683H477.235V547.398H480.694V548.895C481.044 548.396 481.516 548.005 482.11 547.722C482.703 547.425 483.37 547.277 484.112 547.277ZM497.153 555.751V558.683H495.393C494.139 558.683 493.162 558.38 492.461 557.773C491.76 557.153 491.409 556.148 491.409 554.76V550.27H490.034V547.398H491.409V544.648H494.868V547.398H497.133V550.27H494.868V554.8C494.868 555.137 494.948 555.38 495.11 555.528C495.272 555.677 495.542 555.751 495.919 555.751H497.153ZM506.016 547.277C507.311 547.277 508.349 547.708 509.131 548.571C509.913 549.42 510.304 550.594 510.304 552.09V558.683H506.866V552.555C506.866 551.8 506.67 551.214 506.279 550.796C505.888 550.378 505.362 550.169 504.702 550.169C504.041 550.169 503.515 550.378 503.124 550.796C502.733 551.214 502.538 551.8 502.538 552.555V558.683H499.079V543.717H502.538V548.915C502.888 548.416 503.367 548.018 503.974 547.722C504.58 547.425 505.261 547.277 506.016 547.277ZM516.165 543.717V558.683H512.707V543.717H516.165ZM530.199 547.398L523.121 564.043H519.4L521.988 558.299L517.397 547.398H521.26L523.869 554.456L526.458 547.398H530.199ZM542.976 558.683L540.023 553.324H539.194V558.683H535.736V544.486H541.54C542.659 544.486 543.61 544.681 544.392 545.072C545.187 545.463 545.781 546.003 546.172 546.69C546.563 547.364 546.758 548.119 546.758 548.955C546.758 549.899 546.488 550.742 545.949 551.483C545.423 552.225 544.641 552.751 543.603 553.061L546.879 558.683H542.976ZM539.194 550.877H541.338C541.972 550.877 542.444 550.722 542.754 550.411C543.077 550.101 543.239 549.663 543.239 549.097C543.239 548.558 543.077 548.133 542.754 547.823C542.444 547.513 541.972 547.358 541.338 547.358H539.194V550.877ZM559.567 552.859C559.567 553.182 559.547 553.519 559.506 553.87H551.68C551.733 554.571 551.956 555.11 552.347 555.488C552.751 555.852 553.244 556.034 553.823 556.034C554.686 556.034 555.286 555.67 555.623 554.942H559.304C559.115 555.683 558.772 556.351 558.273 556.944C557.787 557.537 557.174 558.002 556.432 558.339C555.691 558.676 554.862 558.845 553.945 558.845C552.839 558.845 551.855 558.609 550.992 558.137C550.129 557.665 549.455 556.991 548.969 556.115C548.484 555.238 548.241 554.214 548.241 553.041C548.241 551.868 548.477 550.843 548.949 549.967C549.435 549.09 550.109 548.416 550.972 547.944C551.835 547.472 552.826 547.236 553.945 547.236C555.037 547.236 556.008 547.465 556.857 547.924C557.706 548.382 558.367 549.036 558.839 549.886C559.324 550.735 559.567 551.726 559.567 552.859ZM556.028 551.949C556.028 551.355 555.826 550.883 555.421 550.533C555.017 550.182 554.511 550.007 553.904 550.007C553.324 550.007 552.832 550.176 552.428 550.513C552.037 550.85 551.794 551.328 551.7 551.949H556.028ZM564.85 548.996C565.187 548.47 565.652 548.045 566.245 547.722C566.839 547.398 567.533 547.236 568.328 547.236C569.259 547.236 570.101 547.472 570.856 547.944C571.611 548.416 572.205 549.09 572.636 549.967C573.081 550.843 573.304 551.861 573.304 553.02C573.304 554.18 573.081 555.205 572.636 556.095C572.205 556.971 571.611 557.652 570.856 558.137C570.101 558.609 569.259 558.845 568.328 558.845C567.546 558.845 566.852 558.683 566.245 558.36C565.652 558.036 565.187 557.618 564.85 557.106V564.063H561.391V547.398H564.85V548.996ZM569.785 553.02C569.785 552.158 569.542 551.483 569.056 550.998C568.585 550.499 567.998 550.25 567.297 550.25C566.609 550.25 566.023 550.499 565.537 550.998C565.066 551.497 564.83 552.178 564.83 553.041C564.83 553.904 565.066 554.584 565.537 555.083C566.023 555.582 566.609 555.832 567.297 555.832C567.985 555.832 568.571 555.582 569.056 555.083C569.542 554.571 569.785 553.883 569.785 553.02ZM580.255 558.845C579.149 558.845 578.152 558.609 577.262 558.137C576.385 557.665 575.691 556.991 575.179 556.115C574.68 555.238 574.43 554.214 574.43 553.041C574.43 551.881 574.686 550.863 575.199 549.987C575.711 549.097 576.412 548.416 577.302 547.944C578.192 547.472 579.19 547.236 580.295 547.236C581.401 547.236 582.399 547.472 583.289 547.944C584.178 548.416 584.88 549.097 585.392 549.987C585.904 550.863 586.16 551.881 586.16 553.041C586.16 554.2 585.897 555.225 585.372 556.115C584.859 556.991 584.151 557.665 583.248 558.137C582.358 558.609 581.361 558.845 580.255 558.845ZM580.255 555.852C580.916 555.852 581.475 555.609 581.934 555.124C582.405 554.638 582.641 553.944 582.641 553.041C582.641 552.137 582.412 551.443 581.954 550.958C581.509 550.472 580.956 550.229 580.295 550.229C579.621 550.229 579.062 550.472 578.617 550.958C578.172 551.429 577.949 552.124 577.949 553.041C577.949 553.944 578.165 554.638 578.597 555.124C579.041 555.609 579.594 555.852 580.255 555.852ZM591.453 549.279C591.858 548.659 592.364 548.173 592.97 547.823C593.577 547.459 594.251 547.277 594.993 547.277V550.937H594.042C593.179 550.937 592.532 551.126 592.101 551.504C591.669 551.868 591.453 552.515 591.453 553.445V558.683H587.995V547.398H591.453V549.279ZM602.936 555.751V558.683H601.176C599.922 558.683 598.945 558.38 598.243 557.773C597.542 557.153 597.192 556.148 597.192 554.76V550.27H595.817V547.398H597.192V544.648H600.65V547.398H602.915V550.27H600.65V554.8C600.65 555.137 600.731 555.38 600.893 555.528C601.055 555.677 601.324 555.751 601.702 555.751H602.936Z" fill="#111827"/>
<path opacity="0.6" d="M70.5952 481.109V484.454H74.5306V485.979H70.5952V489.472H75.0225V490.997H68.7259V479.584H75.0225V481.109H70.5952ZM80.8176 489.325L83.3756 481.962H85.3597L81.9162 490.997H79.6862L76.2591 481.962H78.2596L80.8176 489.325ZM95.0534 486.258C95.0534 486.597 95.0315 486.903 94.9878 487.176H88.0845C88.1392 487.898 88.407 488.477 88.888 488.915C89.369 489.352 89.9593 489.57 90.6589 489.57C91.6646 489.57 92.3752 489.15 92.7906 488.308H94.8074C94.5342 489.139 94.0368 489.822 93.3153 490.358C92.6047 490.882 91.7193 491.145 90.6589 491.145C89.7953 491.145 89.0192 490.953 88.3305 490.571C87.6527 490.177 87.117 489.631 86.7235 488.931C86.3409 488.22 86.1496 487.401 86.1496 486.471C86.1496 485.542 86.3354 484.728 86.7071 484.028C87.0897 483.318 87.6199 482.771 88.2977 482.388C88.9864 482.006 89.7734 481.815 90.6589 481.815C91.5116 481.815 92.2713 482 92.9381 482.372C93.605 482.744 94.1242 483.268 94.4959 483.946C94.8676 484.613 95.0534 485.384 95.0534 486.258ZM93.1021 485.668C93.0912 484.979 92.8452 484.427 92.3642 484.012C91.8832 483.596 91.2875 483.389 90.5769 483.389C89.9319 483.389 89.3799 483.596 88.9208 484.012C88.4616 484.416 88.1883 484.968 88.1009 485.668H93.1021ZM101.451 481.815C102.162 481.815 102.796 481.962 103.354 482.257C103.922 482.552 104.365 482.99 104.682 483.569C104.999 484.148 105.157 484.848 105.157 485.668V490.997H103.304V485.947C103.304 485.138 103.102 484.52 102.698 484.094C102.293 483.656 101.741 483.438 101.042 483.438C100.342 483.438 99.7844 483.656 99.369 484.094C98.9645 484.52 98.7623 485.138 98.7623 485.947V490.997H96.893V481.962H98.7623V482.995C99.0684 482.623 99.4565 482.334 99.9265 482.126C100.408 481.918 100.916 481.815 101.451 481.815ZM109.723 483.487V488.488C109.723 488.827 109.799 489.073 109.952 489.226C110.116 489.368 110.389 489.439 110.772 489.439H111.92V490.997H110.444C109.602 490.997 108.957 490.8 108.509 490.407C108.061 490.013 107.837 489.374 107.837 488.488V483.487H106.771V481.962H107.837V479.716H109.723V481.962H111.92V483.487H109.723ZM124.773 488.669H120.001L119.181 490.997H117.23L121.313 479.584H123.477L127.56 490.997H125.593L124.773 488.669ZM124.248 487.144L122.395 481.847L120.526 487.144H124.248ZM133.894 481.815C134.605 481.815 135.239 481.962 135.796 482.257C136.365 482.552 136.807 482.99 137.124 483.569C137.441 484.148 137.6 484.848 137.6 485.668V490.997H135.747V485.947C135.747 485.138 135.545 484.52 135.14 484.094C134.736 483.656 134.184 483.438 133.484 483.438C132.785 483.438 132.227 483.656 131.812 484.094C131.407 484.52 131.205 485.138 131.205 485.947V490.997H129.336V481.962H131.205V482.995C131.511 482.623 131.899 482.334 132.369 482.126C132.85 481.918 133.358 481.815 133.894 481.815ZM139.361 486.439C139.361 485.531 139.547 484.728 139.919 484.028C140.301 483.329 140.815 482.787 141.46 482.405C142.116 482.011 142.837 481.815 143.625 481.815C144.335 481.815 144.953 481.957 145.477 482.241C146.013 482.514 146.439 482.858 146.756 483.274V481.962H148.642V490.997H146.756V489.652C146.439 490.079 146.008 490.434 145.461 490.718C144.914 491.003 144.291 491.145 143.592 491.145C142.816 491.145 142.105 490.948 141.46 490.554C140.815 490.15 140.301 489.592 139.919 488.882C139.547 488.16 139.361 487.346 139.361 486.439ZM146.756 486.471C146.756 485.848 146.625 485.307 146.363 484.848C146.112 484.389 145.778 484.039 145.363 483.799C144.947 483.558 144.499 483.438 144.018 483.438C143.537 483.438 143.089 483.558 142.674 483.799C142.258 484.028 141.919 484.373 141.657 484.832C141.405 485.28 141.28 485.815 141.28 486.439C141.28 487.062 141.405 487.608 141.657 488.078C141.919 488.548 142.258 488.909 142.674 489.161C143.1 489.401 143.548 489.521 144.018 489.521C144.499 489.521 144.947 489.401 145.363 489.161C145.778 488.92 146.112 488.57 146.363 488.111C146.625 487.641 146.756 487.094 146.756 486.471ZM152.967 478.863V490.997H151.097V478.863H152.967ZM163.554 481.962L158.012 495.244H156.077L157.913 490.849L154.355 481.962H156.438L158.979 488.849L161.619 481.962H163.554ZM167.146 483.487V488.488C167.146 488.827 167.222 489.073 167.375 489.226C167.539 489.368 167.813 489.439 168.195 489.439H169.343V490.997H167.867C167.025 490.997 166.38 490.8 165.932 490.407C165.484 490.013 165.26 489.374 165.26 488.488V483.487H164.194V481.962H165.26V479.716H167.146V481.962H169.343V483.487H167.146ZM172.017 480.765C171.678 480.765 171.394 480.65 171.164 480.421C170.935 480.191 170.82 479.907 170.82 479.568C170.82 479.229 170.935 478.945 171.164 478.715C171.394 478.486 171.678 478.371 172.017 478.371C172.345 478.371 172.624 478.486 172.853 478.715C173.083 478.945 173.197 479.229 173.197 479.568C173.197 479.907 173.083 480.191 172.853 480.421C172.624 480.65 172.345 480.765 172.017 480.765ZM172.935 481.962V490.997H171.066V481.962H172.935ZM174.766 486.471C174.766 485.542 174.952 484.728 175.324 484.028C175.706 483.318 176.231 482.771 176.898 482.388C177.565 482.006 178.33 481.815 179.194 481.815C180.287 481.815 181.189 482.077 181.899 482.602C182.621 483.115 183.107 483.853 183.359 484.815H181.342C181.178 484.367 180.915 484.017 180.555 483.766C180.194 483.514 179.74 483.389 179.194 483.389C178.428 483.389 177.816 483.662 177.357 484.209C176.909 484.744 176.685 485.498 176.685 486.471C176.685 487.444 176.909 488.204 177.357 488.751C177.816 489.297 178.428 489.57 179.194 489.57C180.276 489.57 180.992 489.095 181.342 488.144H183.359C183.096 489.062 182.604 489.795 181.883 490.341C181.161 490.877 180.265 491.145 179.194 491.145C178.33 491.145 177.565 490.953 176.898 490.571C176.231 490.177 175.706 489.631 175.324 488.931C174.952 488.22 174.766 487.401 174.766 486.471ZM188.501 491.145C187.79 491.145 187.151 491.019 186.582 490.768C186.025 490.505 185.582 490.155 185.254 489.718C184.926 489.27 184.751 488.772 184.73 488.226H186.664C186.697 488.609 186.878 488.931 187.206 489.193C187.544 489.445 187.965 489.57 188.468 489.57C188.993 489.57 189.397 489.472 189.682 489.275C189.977 489.068 190.124 488.805 190.124 488.488C190.124 488.149 189.96 487.898 189.632 487.734C189.315 487.57 188.807 487.39 188.107 487.193C187.43 487.007 186.878 486.827 186.451 486.652C186.025 486.477 185.653 486.209 185.336 485.848C185.03 485.488 184.877 485.012 184.877 484.422C184.877 483.941 185.019 483.503 185.303 483.11C185.588 482.705 185.992 482.388 186.517 482.159C187.052 481.929 187.665 481.815 188.353 481.815C189.381 481.815 190.206 482.077 190.829 482.602C191.463 483.115 191.802 483.82 191.846 484.717H189.977C189.944 484.312 189.78 483.99 189.485 483.749C189.19 483.509 188.791 483.389 188.288 483.389C187.796 483.389 187.419 483.482 187.156 483.667C186.894 483.853 186.763 484.099 186.763 484.405C186.763 484.646 186.85 484.848 187.025 485.012C187.2 485.176 187.413 485.307 187.665 485.406C187.916 485.493 188.288 485.608 188.78 485.75C189.436 485.925 189.971 486.105 190.387 486.291C190.813 486.466 191.179 486.728 191.485 487.078C191.791 487.428 191.95 487.892 191.961 488.472C191.961 488.986 191.819 489.445 191.534 489.849C191.25 490.254 190.846 490.571 190.321 490.8C189.807 491.03 189.201 491.145 188.501 491.145Z" fill="#111827"/>
<path opacity="0.15" d="M67.4961 659.315L95.8355 642.144L128.589 646.481L162.689 624.795L190.956 626.291L220.419 601.165L254.668 598.173L283.832 576.786L315.838 577.833L344.524 561.013V679.795H67.4961V659.315Z" fill="url(#paint0_linear_808_10566)"/>
<path d="M67.4961 659.315L85.7751 647.153C93.6031 641.945 103.491 640.917 112.223 644.403C122.501 648.506 134.224 646.311 142.322 638.768L148.635 632.888C155.607 626.394 165.428 623.939 174.635 626.39C184.48 629.01 194.969 626.013 201.945 618.588L210.323 609.669C217.276 602.267 227.371 598.671 237.438 600.011C246.773 601.253 256.174 598.254 263.064 591.835L270.125 585.259C278.113 577.818 289.366 575.005 299.916 577.813C308.708 580.153 318.081 578.607 325.656 573.567L344.524 561.013" stroke="#7E3CEF" stroke-width="3.03365" stroke-linecap="round" stroke-linejoin="round"/>
<path d="M88.1653 537.17L78.0127 561.52H70.9342L81.2082 537.938H68.6287V532.033H88.1653V537.17ZM91.1244 556.262V550.68L103.906 532.397H111.632V550.275H114.949V556.262H111.632V561.52H104.715V556.262H91.1244ZM105.201 540.001L98.4052 550.275H105.201V540.001ZM117.77 539.435C117.77 537.251 118.39 535.565 119.631 534.379C120.898 533.192 122.53 532.599 124.525 532.599C126.521 532.599 128.139 533.192 129.379 534.379C130.619 535.565 131.24 537.251 131.24 539.435C131.24 541.619 130.619 543.305 129.379 544.491C128.139 545.678 126.521 546.271 124.525 546.271C122.53 546.271 120.898 545.678 119.631 544.491C118.39 543.305 117.77 541.619 117.77 539.435ZM145.235 533.044L129.662 561.52H122.988L138.561 533.044H145.235ZM124.485 536.644C123.19 536.644 122.543 537.574 122.543 539.435C122.543 541.269 123.19 542.185 124.485 542.185C125.105 542.185 125.59 541.956 125.941 541.498C126.291 541.039 126.467 540.352 126.467 539.435C126.467 537.574 125.806 536.644 124.485 536.644ZM137.024 555.129C137.024 552.945 137.644 551.259 138.884 550.073C140.125 548.886 141.743 548.293 143.738 548.293C145.734 548.293 147.352 548.886 148.592 550.073C149.833 551.259 150.453 552.945 150.453 555.129C150.453 557.313 149.833 558.999 148.592 560.185C147.352 561.372 145.734 561.965 143.738 561.965C141.743 561.965 140.125 561.372 138.884 560.185C137.644 558.999 137.024 557.313 137.024 555.129ZM143.698 552.338C143.078 552.338 142.592 552.567 142.242 553.026C141.918 553.484 141.756 554.185 141.756 555.129C141.756 556.963 142.403 557.88 143.698 557.88C144.318 557.88 144.803 557.65 145.154 557.192C145.505 556.733 145.68 556.046 145.68 555.129C145.68 554.212 145.505 553.525 145.154 553.066C144.803 552.581 144.318 552.338 143.698 552.338Z" fill="#111827"/>
<path opacity="0.3" d="M157.494 579.24H70.5297C68.8543 579.24 67.4961 580.598 67.4961 582.274C67.4961 583.949 68.8543 585.307 70.5297 585.307H157.494C159.17 585.307 160.528 583.949 160.528 582.274C160.528 580.598 159.17 579.24 157.494 579.24Z" fill="#7E3CEF"/>
<path opacity="0.5" d="M108.956 590.971H70.5297C68.8543 590.971 67.4961 592.329 67.4961 594.004C67.4961 595.68 68.8543 597.038 70.5297 597.038H108.956C110.631 597.038 111.99 595.68 111.99 594.004C111.99 592.329 110.631 590.971 108.956 590.971Z" fill="#D9C5FB"/>
<path d="M390.069 185.021L386.692 196.417H384.576L382.182 187.792L379.641 196.417L377.542 196.434L374.312 185.021H376.296L378.657 194.302L381.215 185.021H383.314L385.691 194.253L388.069 185.021H390.069ZM399.892 191.678C399.892 192.017 399.87 192.323 399.826 192.597H392.923C392.978 193.318 393.246 193.897 393.727 194.335C394.208 194.772 394.798 194.991 395.497 194.991C396.503 194.991 397.214 194.57 397.629 193.728H399.646C399.373 194.559 398.875 195.242 398.154 195.778C397.443 196.302 396.558 196.565 395.497 196.565C394.634 196.565 393.858 196.374 393.169 195.991C392.491 195.597 391.956 195.051 391.562 194.351C391.179 193.641 390.988 192.821 390.988 191.892C390.988 190.962 391.174 190.148 391.546 189.448C391.928 188.738 392.458 188.191 393.136 187.809C393.825 187.426 394.612 187.235 395.497 187.235C396.35 187.235 397.11 187.421 397.777 187.792C398.444 188.164 398.963 188.689 399.334 189.366C399.706 190.033 399.892 190.804 399.892 191.678ZM397.941 191.088C397.93 190.399 397.684 189.847 397.203 189.432C396.722 189.017 396.126 188.809 395.415 188.809C394.77 188.809 394.218 189.017 393.759 189.432C393.3 189.836 393.027 190.388 392.939 191.088H397.941ZM403.601 184.283V196.417H401.732V184.283H403.601ZM407.924 184.283V196.417H406.055V184.283H407.924ZM414.937 187.235C415.648 187.235 416.282 187.382 416.839 187.677C417.408 187.973 417.85 188.41 418.167 188.989C418.484 189.569 418.643 190.268 418.643 191.088V196.417H416.79V191.367C416.79 190.558 416.588 189.94 416.183 189.514C415.779 189.077 415.227 188.858 414.527 188.858C413.828 188.858 413.27 189.077 412.855 189.514C412.45 189.94 412.248 190.558 412.248 191.367V196.417H410.379V187.382H412.248V188.415C412.554 188.044 412.942 187.754 413.412 187.546C413.893 187.339 414.401 187.235 414.937 187.235ZM429.308 191.678C429.308 192.017 429.286 192.323 429.242 192.597H422.339C422.394 193.318 422.662 193.897 423.143 194.335C423.624 194.772 424.214 194.991 424.914 194.991C425.919 194.991 426.63 194.57 427.045 193.728H429.062C428.789 194.559 428.291 195.242 427.57 195.778C426.859 196.302 425.974 196.565 424.914 196.565C424.05 196.565 423.274 196.374 422.585 195.991C421.907 195.597 421.372 195.051 420.978 194.351C420.596 193.641 420.404 192.821 420.404 191.892C420.404 190.962 420.59 190.148 420.962 189.448C421.344 188.738 421.875 188.191 422.552 187.809C423.241 187.426 424.028 187.235 424.914 187.235C425.766 187.235 426.526 187.421 427.193 187.792C427.86 188.164 428.379 188.689 428.751 189.366C429.122 190.033 429.308 190.804 429.308 191.678ZM427.357 191.088C427.346 190.399 427.1 189.847 426.619 189.432C426.138 189.017 425.542 188.809 424.832 188.809C424.187 188.809 423.635 189.017 423.175 189.432C422.716 189.836 422.443 190.388 422.356 191.088H427.357ZM434.427 196.565C433.717 196.565 433.077 196.439 432.509 196.188C431.951 195.925 431.508 195.576 431.18 195.138C430.853 194.69 430.678 194.193 430.656 193.646H432.591C432.623 194.029 432.804 194.351 433.132 194.614C433.471 194.865 433.892 194.991 434.394 194.991C434.919 194.991 435.324 194.892 435.608 194.696C435.903 194.488 436.05 194.225 436.05 193.908C436.05 193.57 435.887 193.318 435.559 193.154C435.242 192.99 434.733 192.81 434.034 192.613C433.356 192.427 432.804 192.247 432.377 192.072C431.951 191.897 431.579 191.629 431.262 191.268C430.956 190.908 430.803 190.432 430.803 189.842C430.803 189.361 430.945 188.924 431.23 188.53C431.514 188.126 431.918 187.809 432.443 187.579C432.979 187.349 433.591 187.235 434.28 187.235C435.307 187.235 436.132 187.497 436.756 188.022C437.39 188.536 437.729 189.241 437.772 190.137H435.903C435.87 189.733 435.706 189.41 435.411 189.17C435.116 188.929 434.717 188.809 434.214 188.809C433.722 188.809 433.345 188.902 433.083 189.088C432.82 189.273 432.689 189.519 432.689 189.825C432.689 190.066 432.776 190.268 432.951 190.432C433.126 190.596 433.339 190.727 433.591 190.826C433.842 190.913 434.214 191.028 434.706 191.17C435.362 191.345 435.897 191.525 436.313 191.711C436.739 191.886 437.105 192.148 437.411 192.498C437.718 192.848 437.876 193.313 437.887 193.892C437.887 194.406 437.745 194.865 437.461 195.269C437.176 195.674 436.772 195.991 436.247 196.22C435.733 196.45 435.127 196.565 434.427 196.565ZM443.186 196.565C442.476 196.565 441.836 196.439 441.268 196.188C440.71 195.925 440.268 195.576 439.94 195.138C439.612 194.69 439.437 194.193 439.415 193.646H441.35C441.383 194.029 441.563 194.351 441.891 194.614C442.23 194.865 442.651 194.991 443.154 194.991C443.678 194.991 444.083 194.892 444.367 194.696C444.662 194.488 444.81 194.225 444.81 193.908C444.81 193.57 444.646 193.318 444.318 193.154C444.001 192.99 443.492 192.81 442.793 192.613C442.115 192.427 441.563 192.247 441.137 192.072C440.71 191.897 440.339 191.629 440.022 191.268C439.716 190.908 439.562 190.432 439.562 189.842C439.562 189.361 439.705 188.924 439.989 188.53C440.273 188.126 440.678 187.809 441.202 187.579C441.738 187.349 442.35 187.235 443.039 187.235C444.066 187.235 444.892 187.497 445.515 188.022C446.149 188.536 446.488 189.241 446.531 190.137H444.662C444.629 189.733 444.465 189.41 444.17 189.17C443.875 188.929 443.476 188.809 442.973 188.809C442.481 188.809 442.104 188.902 441.842 189.088C441.579 189.273 441.448 189.519 441.448 189.825C441.448 190.066 441.536 190.268 441.711 190.432C441.885 190.596 442.099 190.727 442.35 190.826C442.601 190.913 442.973 191.028 443.465 191.17C444.121 191.345 444.657 191.525 445.072 191.711C445.498 191.886 445.865 192.148 446.171 192.498C446.477 192.848 446.635 193.313 446.646 193.892C446.646 194.406 446.504 194.865 446.22 195.269C445.936 195.674 445.531 195.991 445.006 196.22C444.493 196.45 443.886 196.565 443.186 196.565Z" fill="#111827"/>
<path d="M378.985 231.12C378.22 231.12 377.531 230.988 376.919 230.726C376.307 230.453 375.826 230.07 375.476 229.578C375.126 229.086 374.951 228.512 374.951 227.857H376.952C376.995 228.348 377.187 228.753 377.525 229.07C377.875 229.387 378.362 229.546 378.985 229.546C379.63 229.546 380.133 229.392 380.493 229.086C380.854 228.769 381.035 228.365 381.035 227.873C381.035 227.49 380.92 227.179 380.69 226.938C380.472 226.698 380.193 226.512 379.854 226.381C379.526 226.25 379.067 226.108 378.477 225.954C377.733 225.758 377.126 225.561 376.656 225.364C376.197 225.156 375.804 224.839 375.476 224.413C375.148 223.987 374.984 223.418 374.984 222.708C374.984 222.052 375.148 221.478 375.476 220.986C375.804 220.494 376.263 220.117 376.853 219.855C377.443 219.592 378.127 219.461 378.903 219.461C380.007 219.461 380.909 219.74 381.608 220.297C382.319 220.844 382.713 221.598 382.789 222.56H380.723C380.69 222.145 380.493 221.79 380.133 221.494C379.772 221.199 379.296 221.052 378.706 221.052C378.17 221.052 377.733 221.188 377.394 221.462C377.055 221.735 376.886 222.128 376.886 222.642C376.886 222.992 376.99 223.282 377.198 223.511C377.416 223.73 377.689 223.905 378.017 224.036C378.345 224.167 378.794 224.309 379.362 224.462C380.116 224.67 380.728 224.878 381.198 225.085C381.679 225.293 382.084 225.616 382.412 226.053C382.751 226.479 382.92 227.053 382.92 227.775C382.92 228.354 382.762 228.901 382.445 229.414C382.139 229.928 381.685 230.344 381.084 230.661C380.493 230.967 379.794 231.12 378.985 231.12ZM389.045 231.152C388.192 231.152 387.422 230.961 386.733 230.579C386.044 230.185 385.503 229.638 385.11 228.939C384.716 228.228 384.519 227.408 384.519 226.479C384.519 225.561 384.721 224.747 385.126 224.036C385.53 223.325 386.082 222.779 386.782 222.396C387.482 222.014 388.263 221.822 389.127 221.822C389.99 221.822 390.772 222.014 391.472 222.396C392.171 222.779 392.723 223.325 393.128 224.036C393.532 224.747 393.735 225.561 393.735 226.479C393.735 227.397 393.527 228.212 393.111 228.922C392.696 229.633 392.128 230.185 391.406 230.579C390.696 230.961 389.909 231.152 389.045 231.152ZM389.045 229.529C389.526 229.529 389.974 229.414 390.39 229.185C390.816 228.955 391.16 228.611 391.423 228.152C391.685 227.693 391.816 227.135 391.816 226.479C391.816 225.823 391.69 225.271 391.439 224.823C391.188 224.364 390.854 224.02 390.439 223.79C390.023 223.56 389.575 223.446 389.094 223.446C388.613 223.446 388.165 223.56 387.75 223.79C387.345 224.02 387.023 224.364 386.782 224.823C386.542 225.271 386.421 225.823 386.421 226.479C386.421 227.452 386.667 228.206 387.159 228.742C387.662 229.267 388.291 229.529 389.045 229.529ZM394.959 226.479C394.959 225.55 395.145 224.736 395.517 224.036C395.9 223.325 396.424 222.779 397.091 222.396C397.758 222.014 398.523 221.822 399.387 221.822C400.48 221.822 401.382 222.085 402.092 222.609C402.814 223.123 403.3 223.861 403.552 224.823H401.535C401.371 224.375 401.108 224.025 400.748 223.774C400.387 223.522 399.933 223.396 399.387 223.396C398.621 223.396 398.009 223.67 397.55 224.216C397.102 224.752 396.878 225.506 396.878 226.479C396.878 227.452 397.102 228.212 397.55 228.758C398.009 229.305 398.621 229.578 399.387 229.578C400.469 229.578 401.185 229.103 401.535 228.152H403.552C403.289 229.07 402.797 229.802 402.076 230.349C401.354 230.885 400.458 231.152 399.387 231.152C398.523 231.152 397.758 230.961 397.091 230.579C396.424 230.185 395.9 229.638 395.517 228.939C395.145 228.228 394.959 227.408 394.959 226.479ZM406.366 220.773C406.027 220.773 405.743 220.658 405.513 220.429C405.283 220.199 405.169 219.915 405.169 219.576C405.169 219.237 405.283 218.953 405.513 218.723C405.743 218.494 406.027 218.379 406.366 218.379C406.694 218.379 406.972 218.494 407.202 218.723C407.431 218.953 407.546 219.237 407.546 219.576C407.546 219.915 407.431 220.199 407.202 220.429C406.972 220.658 406.694 220.773 406.366 220.773ZM407.284 221.97V231.005H405.415V221.97H407.284ZM409.115 226.446C409.115 225.539 409.301 224.736 409.673 224.036C410.055 223.336 410.569 222.795 411.214 222.413C411.87 222.019 412.591 221.822 413.378 221.822C414.089 221.822 414.707 221.964 415.231 222.249C415.767 222.522 416.193 222.866 416.51 223.282V221.97H418.396V231.005H416.51V229.66C416.193 230.087 415.761 230.442 415.215 230.726C414.668 231.01 414.045 231.152 413.346 231.152C412.569 231.152 411.859 230.956 411.214 230.562C410.569 230.158 410.055 229.6 409.673 228.89C409.301 228.168 409.115 227.354 409.115 226.446ZM416.51 226.479C416.51 225.856 416.379 225.315 416.117 224.856C415.865 224.397 415.532 224.047 415.116 223.806C414.701 223.566 414.253 223.446 413.772 223.446C413.291 223.446 412.843 223.566 412.427 223.806C412.012 224.036 411.673 224.38 411.411 224.839C411.159 225.288 411.034 225.823 411.034 226.446C411.034 227.069 411.159 227.616 411.411 228.086C411.673 228.556 412.012 228.917 412.427 229.168C412.854 229.409 413.302 229.529 413.772 229.529C414.253 229.529 414.701 229.409 415.116 229.168C415.532 228.928 415.865 228.578 416.117 228.119C416.379 227.649 416.51 227.102 416.51 226.479ZM422.721 218.871V231.005H420.851V218.871H422.721Z" fill="#111827"/>
<rect opacity="0.5" x="466.852" y="184.881" width="192.994" height="11.7379" rx="5.86893" fill="#D9D9D9"/>
<rect opacity="0.5" x="466.852" y="184.881" width="135.212" height="11.7379" rx="5.86893" fill="#7E3CEF"/>
<rect opacity="0.5" x="466.852" y="221.138" width="192.994" height="11.7379" rx="5.86893" fill="#D9D9D9"/>
<rect opacity="0.5" x="466.852" y="221.138" width="115.146" height="11.7379" rx="5.86893" fill="#7E3CEF"/>
<rect opacity="0.5" x="466.852" y="251.328" width="192.994" height="11.7379" rx="5.86893" fill="#D9D9D9"/>
<rect opacity="0.5" x="466.852" y="251.328" width="79.3983" height="11.7379" rx="5.86893" fill="#7E3CEF"/>
<rect opacity="0.7" x="374" y="251.328" width="58.3554" height="11.7379" rx="5.86893" fill="#979AA1"/>
<rect opacity="0.5" x="466.852" y="281.517" width="192.994" height="11.7379" rx="5.86893" fill="#D9D9D9"/>
<rect opacity="0.5" x="466.852" y="281.517" width="61.94" height="11.7379" rx="5.86893" fill="#7E3CEF"/>
<rect opacity="0.7" x="374" y="281.517" width="79.9704" height="11.7379" rx="5.86893" fill="#979AA1"/>
<rect opacity="0.5" x="466.852" y="311.707" width="192.994" height="11.7379" rx="5.86893" fill="#D9D9D9"/>
<rect opacity="0.5" x="466.852" y="311.707" width="31.1801" height="11.7379" rx="5.86893" fill="#7E3CEF"/>
<rect opacity="0.7" x="374" y="311.707" width="52.536" height="11.7379" rx="5.86893" fill="#979AA1"/>
<rect opacity="0.5" x="466.852" y="341.896" width="192.994" height="11.7379" rx="5.86893" fill="#D9D9D9"/>
<rect opacity="0.5" x="466.852" y="341.896" width="10.3964" height="11.7379" rx="5.19822" fill="#7E3CEF"/>
<rect opacity="0.7" x="374" y="341.896" width="38.403" height="11.7379" rx="5.86893" fill="#979AA1"/>
<path d="M623.662 637.011H466.104C454.194 637.011 444.539 646.666 444.539 658.575C444.539 670.485 454.194 680.14 466.104 680.14H623.662C635.571 680.14 645.226 670.485 645.226 658.575C645.226 646.666 635.571 637.011 623.662 637.011Z" fill="#7E3CEF"/>
<rect x="447.437" y="467.632" width="47.8251" height="47.8251" rx="7.07851" fill="#EDE3FD"/>
<defs>
<filter id="filter0_dd_808_10566" x="15.8742" y="33.2274" width="716.252" height="416.988" filterUnits="userSpaceOnUse" color-interpolation-filters="sRGB">
<feFlood flood-opacity="0" result="BackgroundImageFix"/>
<feColorMatrix in="SourceAlpha" type="matrix" values="0 0 0 0 0 0 0 0 0 0 0 0 0 0 0 0 0 0 127 0" result="hardAlpha"/>
<feMorphology radius="2.02243" operator="erode" in="SourceAlpha" result="effect1_dropShadow_808_10566"/>
<feOffset dy="4.04486"/>
<feGaussianBlur stdDeviation="3.03365"/>
<feColorMatrix type="matrix" values="0 0 0 0 0 0 0 0 0 0 0 0 0 0 0 0 0 0 0.05 0"/>
<feBlend mode="normal" in2="BackgroundImageFix" result="effect1_dropShadow_808_10566"/>
<feColorMatrix in="SourceAlpha" type="matrix" values="0 0 0 0 0 0 0 0 0 0 0 0 0 0 0 0 0 0 127 0" result="hardAlpha"/>
<feMorphology radius="3.03365" operator="erode" in="SourceAlpha" result="effect2_dropShadow_808_10566"/>
<feOffset dy="10.1122"/>
<feGaussianBlur stdDeviation="7.58412"/>
<feColorMatrix type="matrix" values="0 0 0 0 0 0 0 0 0 0 0 0 0 0 0 0 0 0 0.1 0"/>
<feBlend mode="normal" in2="effect1_dropShadow_808_10566" result="effect2_dropShadow_808_10566"/>
<feBlend mode="normal" in="SourceGraphic" in2="effect2_dropShadow_808_10566" result="shape"/>
</filter>
<filter id="filter1_d_808_10566" x="64.8029" y="140.752" width="225.582" height="100.388" filterUnits="userSpaceOnUse" color-interpolation-filters="sRGB">
<feFlood flood-opacity="0" result="BackgroundImageFix"/>
<feColorMatrix in="SourceAlpha" type="matrix" values="0 0 0 0 0 0 0 0 0 0 0 0 0 0 0 0 0 0 127 0" result="hardAlpha"/>
<feOffset dy="1.17125"/>
<feGaussianBlur stdDeviation="1.05412"/>
<feColorMatrix type="matrix" values="0 0 0 0 0.0666667 0 0 0 0 0.0666667 0 0 0 0 0.101961 0 0 0 0.1 0"/>
<feBlend mode="normal" in2="BackgroundImageFix" result="effect1_dropShadow_808_10566"/>
<feBlend mode="normal" in="SourceGraphic" in2="effect1_dropShadow_808_10566" result="shape"/>
</filter>
<filter id="filter2_d_808_10566" x="64.8029" y="247.109" width="225.582" height="100.388" filterUnits="userSpaceOnUse" color-interpolation-filters="sRGB">
<feFlood flood-opacity="0" result="BackgroundImageFix"/>
<feColorMatrix in="SourceAlpha" type="matrix" values="0 0 0 0 0 0 0 0 0 0 0 0 0 0 0 0 0 0 127 0" result="hardAlpha"/>
<feOffset dy="1.17125"/>
<feGaussianBlur stdDeviation="1.05412"/>
<feColorMatrix type="matrix" values="0 0 0 0 0.0666667 0 0 0 0 0.0666667 0 0 0 0 0.101961 0 0 0 0.1 0"/>
<feBlend mode="normal" in2="BackgroundImageFix" result="effect1_dropShadow_808_10566"/>
<feBlend mode="normal" in="SourceGraphic" in2="effect1_dropShadow_808_10566" result="shape"/>
</filter>
<filter id="filter3_dd_808_10566" x="15.8742" y="444.398" width="389.157" height="290.599" filterUnits="userSpaceOnUse" color-interpolation-filters="sRGB">
<feFlood flood-opacity="0" result="BackgroundImageFix"/>
<feColorMatrix in="SourceAlpha" type="matrix" values="0 0 0 0 0 0 0 0 0 0 0 0 0 0 0 0 0 0 127 0" result="hardAlpha"/>
<feMorphology radius="2.02243" operator="erode" in="SourceAlpha" result="effect1_dropShadow_808_10566"/>
<feOffset dy="4.04486"/>
<feGaussianBlur stdDeviation="3.03365"/>
<feColorMatrix type="matrix" values="0 0 0 0 0 0 0 0 0 0 0 0 0 0 0 0 0 0 0.05 0"/>
<feBlend mode="normal" in2="BackgroundImageFix" result="effect1_dropShadow_808_10566"/>
<feColorMatrix in="SourceAlpha" type="matrix" values="0 0 0 0 0 0 0 0 0 0 0 0 0 0 0 0 0 0 127 0" result="hardAlpha"/>
<feMorphology radius="3.03365" operator="erode" in="SourceAlpha" result="effect2_dropShadow_808_10566"/>
<feOffset dy="10.1122"/>
<feGaussianBlur stdDeviation="7.58412"/>
<feColorMatrix type="matrix" values="0 0 0 0 0 0 0 0 0 0 0 0 0 0 0 0 0 0 0.1 0"/>
<feBlend mode="normal" in2="effect1_dropShadow_808_10566" result="effect2_dropShadow_808_10566"/>
<feBlend mode="normal" in="SourceGraphic" in2="effect2_dropShadow_808_10566" result="shape"/>
</filter>
<filter id="filter4_dd_808_10566" x="398.583" y="444.398" width="333.543" height="290.599" filterUnits="userSpaceOnUse" color-interpolation-filters="sRGB">
<feFlood flood-opacity="0" result="BackgroundImageFix"/>
<feColorMatrix in="SourceAlpha" type="matrix" values="0 0 0 0 0 0 0 0 0 0 0 0 0 0 0 0 0 0 127 0" result="hardAlpha"/>
<feMorphology radius="2.02243" operator="erode" in="SourceAlpha" result="effect1_dropShadow_808_10566"/>
<feOffset dy="4.04486"/>
<feGaussianBlur stdDeviation="3.03365"/>
<feColorMatrix type="matrix" values="0 0 0 0 0 0 0 0 0 0 0 0 0 0 0 0 0 0 0.05 0"/>
<feBlend mode="normal" in2="BackgroundImageFix" result="effect1_dropShadow_808_10566"/>
<feColorMatrix in="SourceAlpha" type="matrix" values="0 0 0 0 0 0 0 0 0 0 0 0 0 0 0 0 0 0 127 0" result="hardAlpha"/>
<feMorphology radius="3.03365" operator="erode" in="SourceAlpha" result="effect2_dropShadow_808_10566"/>
<feOffset dy="10.1122"/>
<feGaussianBlur stdDeviation="7.58412"/>
<feColorMatrix type="matrix" values="0 0 0 0 0 0 0 0 0 0 0 0 0 0 0 0 0 0 0.1 0"/>
<feBlend mode="normal" in2="effect1_dropShadow_808_10566" result="effect2_dropShadow_808_10566"/>
<feBlend mode="normal" in="SourceGraphic" in2="effect2_dropShadow_808_10566" result="shape"/>
</filter>
<linearGradient id="paint0_linear_808_10566" x1="67.4961" y1="561.013" x2="153.537" y2="761.684" gradientUnits="userSpaceOnUse">
<stop stop-color="#9B5CFF"/>
<stop offset="1" stop-color="#7E3CEF"/>
</linearGradient>
</defs>
</svg>
