<svg width="155" height="35" viewBox="0 0 155 35" fill="none" xmlns="http://www.w3.org/2000/svg">
<path d="M147.44 21.9182V12.3094H150.323L150.457 14.3849C150.688 13.6674 151.04 13.1101 151.514 12.7129C151.988 12.3158 152.584 12.1172 153.302 12.1172C153.545 12.1172 153.75 12.1364 153.917 12.1748C154.083 12.2133 154.218 12.2645 154.32 12.3286L153.993 15.019C153.891 14.9806 153.744 14.9422 153.551 14.9037C153.359 14.8653 153.116 14.8461 152.821 14.8461C152.45 14.8461 152.097 14.9294 151.764 15.0959C151.444 15.2625 151.188 15.5123 150.995 15.8454C150.803 16.1657 150.707 16.5757 150.707 17.0753V21.9182H147.44Z" fill="white"/>
<path d="M141.613 22.1104C140.562 22.1104 139.653 21.9182 138.884 21.5338C138.115 21.1367 137.52 20.5665 137.097 19.8235C136.687 19.0676 136.482 18.1643 136.482 17.1138C136.482 16.0504 136.693 15.1472 137.116 14.4041C137.539 13.661 138.122 13.0973 138.865 12.7129C139.621 12.3158 140.486 12.1172 141.459 12.1172C142.459 12.1172 143.311 12.3158 144.015 12.7129C144.72 13.0973 145.258 13.6354 145.63 14.3272C146.001 15.0062 146.187 15.7878 146.187 16.6718C146.187 16.9152 146.18 17.1522 146.168 17.3828C146.155 17.6006 146.136 17.7864 146.11 17.9401H138.596V16.1913H144.669L143.112 16.7871C143.112 16.2746 143.048 15.8454 142.92 15.4995C142.805 15.1408 142.625 14.8717 142.382 14.6923C142.138 14.5002 141.831 14.4041 141.459 14.4041C141.062 14.4041 140.723 14.5002 140.441 14.6923C140.159 14.8845 139.948 15.1856 139.807 15.5956C139.666 16.0056 139.595 16.5308 139.595 17.1714C139.595 17.7992 139.672 18.3117 139.826 18.7088C139.992 19.0932 140.223 19.375 140.518 19.5544C140.825 19.721 141.19 19.8042 141.613 19.8042C142.074 19.8042 142.452 19.7081 142.747 19.516C143.042 19.3238 143.253 19.0547 143.381 18.7088L145.995 19.5736C145.815 20.1245 145.501 20.5922 145.053 20.9765C144.617 21.3481 144.099 21.6299 143.496 21.8221C142.907 22.0143 142.279 22.1104 141.613 22.1104Z" fill="white"/>
<path d="M136.373 9.58953V11.6067C136.283 11.5811 136.2 11.5683 136.123 11.5683C136.046 11.5554 135.976 11.549 135.911 11.549C135.361 11.549 134.944 12.0086 134.662 12.2905C134.393 12.5595 134.259 12.899 134.259 13.309L133.106 12.8862C133.106 12.3481 133.202 11.8421 133.394 11.368C133.586 10.8812 133.881 10.484 134.278 10.1765C134.675 9.86906 135.45 9.57031 136.065 9.57031C136.104 9.57031 136.149 9.57031 136.2 9.57031C136.264 9.57031 136.321 9.57672 136.373 9.58953ZM132.837 19.7854C133.926 19.7854 134.765 20.0224 135.354 20.4964C135.956 20.9576 136.257 21.6238 136.257 22.495C136.257 23.2894 136.04 23.9492 135.604 24.4745C135.181 25.0126 134.573 25.4097 133.778 25.666C132.997 25.9222 132.074 26.0503 131.011 26.0503C129.294 26.0503 128.051 25.8325 127.283 25.3969C126.527 24.9613 126.149 24.372 126.149 23.6289C126.149 23.0908 126.367 22.6488 126.802 22.3029C127.238 21.9698 127.949 21.7968 128.935 21.784L128.859 22.0915C128.077 21.989 127.494 21.752 127.11 21.3804C126.738 21.0089 126.552 20.5284 126.552 19.9391C126.552 19.3369 126.796 18.8373 127.283 18.4401C127.77 18.043 128.404 17.8316 129.185 17.8059L130.396 18.3633H130.089C129.602 18.3761 129.256 18.4529 129.051 18.5939C128.846 18.7348 128.743 18.9142 128.743 19.132C128.743 19.3369 128.827 19.4971 128.993 19.6124C129.173 19.7277 129.442 19.7854 129.8 19.7854H132.837ZM131.049 23.9364C131.652 23.9364 132.151 23.8915 132.548 23.8018C132.946 23.725 133.24 23.6097 133.432 23.4559C133.625 23.315 133.721 23.1484 133.721 22.9563C133.721 22.7513 133.644 22.5975 133.49 22.495C133.349 22.3926 133.112 22.3413 132.779 22.3413H129.377C129.147 22.3413 128.955 22.4054 128.801 22.5335C128.66 22.6616 128.59 22.8217 128.59 23.0139C128.59 23.2958 128.807 23.52 129.243 23.6865C129.679 23.8531 130.281 23.9364 131.049 23.9364ZM131.146 12.1175C132.119 12.1175 132.946 12.2456 133.625 12.5019C134.316 12.7581 134.842 13.1297 135.2 13.6165C135.572 14.1033 135.758 14.6927 135.758 15.3845C135.758 16.0764 135.572 16.6657 135.2 17.1525C134.842 17.6266 134.316 17.9917 133.625 18.2479C132.946 18.5042 132.119 18.6323 131.146 18.6323C129.634 18.6323 128.487 18.3504 127.706 17.7867C126.937 17.223 126.552 16.4223 126.552 15.3845C126.552 14.6927 126.732 14.1033 127.091 13.6165C127.449 13.1297 127.968 12.7581 128.647 12.5019C129.339 12.2456 130.172 12.1175 131.146 12.1175ZM131.146 13.9816C130.736 13.9816 130.402 14.1033 130.146 14.3468C129.89 14.5902 129.762 14.9361 129.762 15.3845C129.762 15.8201 129.89 16.1596 130.146 16.4031C130.402 16.6465 130.736 16.7682 131.146 16.7682C131.555 16.7682 131.889 16.6465 132.145 16.4031C132.401 16.1596 132.529 15.8201 132.529 15.3845C132.529 14.9361 132.401 14.5902 132.145 14.3468C131.889 14.1033 131.555 13.9816 131.146 13.9816Z" fill="white"/>
<path d="M125.15 12.7902V21.9181H121.883V12.7902H125.15Z" fill="white"/>
<path d="M121.113 9.23438V11.7903H117.097V21.918H113.792V11.7903H109.756V9.23438H121.113Z" fill="white"/>
<path d="M103.752 12.1172C104.752 12.1172 105.629 12.3158 106.385 12.7129C107.141 13.1101 107.73 13.6802 108.153 14.4233C108.589 15.1664 108.807 16.0632 108.807 17.1138C108.807 18.1643 108.589 19.0612 108.153 19.8042C107.73 20.5473 107.141 21.1174 106.385 21.5146C105.629 21.9118 104.752 22.1104 103.752 22.1104C102.766 22.1104 101.895 21.9118 101.139 21.5146C100.383 21.1174 99.7935 20.5473 99.3708 19.8042C98.948 19.0612 98.7366 18.1643 98.7366 17.1138C98.7366 16.0632 98.948 15.1664 99.3708 14.4233C99.7935 13.6802 100.383 13.1101 101.139 12.7129C101.895 12.3158 102.766 12.1172 103.752 12.1172ZM103.752 14.4425C103.394 14.4425 103.08 14.5386 102.811 14.7308C102.554 14.9101 102.356 15.1984 102.215 15.5956C102.087 15.9799 102.023 16.486 102.023 17.1138C102.023 17.7415 102.087 18.254 102.215 18.6512C102.356 19.0355 102.554 19.3238 102.811 19.516C103.08 19.6953 103.394 19.785 103.752 19.785C104.124 19.785 104.438 19.6953 104.694 19.516C104.963 19.3238 105.168 19.0291 105.309 18.632C105.45 18.2348 105.52 17.7287 105.52 17.1138C105.52 16.486 105.45 15.9799 105.309 15.5956C105.168 15.1984 104.963 14.9101 104.694 14.7308C104.438 14.5386 104.124 14.4425 103.752 14.4425Z" fill="white"/>
<path d="M93.9886 22.1106C93.0533 22.1106 92.2846 21.8031 91.6825 21.1881C91.0931 20.5604 90.728 19.7789 90.5871 18.8436L90.8945 18.44L90.7216 21.9184H87.8582V8.23547H91.1251V15.3268L90.8177 14.8656C90.997 14.0712 91.3558 13.4178 91.8939 12.9054C92.4448 12.3801 93.1814 12.1174 94.1039 12.1174C94.8341 12.1174 95.4811 12.316 96.0449 12.7132C96.6214 13.1103 97.0698 13.6869 97.3901 14.4428C97.7232 15.1858 97.8898 16.0891 97.8898 17.1524C97.8898 18.1902 97.7232 19.0806 97.3901 19.8237C97.0698 20.5668 96.615 21.1369 96.0256 21.5341C95.4491 21.9184 94.7701 22.1106 93.9886 22.1106ZM92.8547 19.7084C93.4056 19.7084 93.8348 19.497 94.1423 19.0742C94.4498 18.6514 94.6035 17.998 94.6035 17.114C94.6035 16.23 94.4498 15.5766 94.1423 15.1538C93.8348 14.731 93.4056 14.5196 92.8547 14.5196C92.496 14.5196 92.1821 14.6285 91.9131 14.8463C91.6568 15.0513 91.4583 15.346 91.3173 15.7303C91.1892 16.1147 91.1251 16.5823 91.1251 17.1332C91.1251 17.6841 91.1956 18.1518 91.3365 18.5361C91.4775 18.9205 91.6761 19.2151 91.9323 19.4201C92.2013 19.6123 92.5088 19.7084 92.8547 19.7084Z" fill="white"/>
<path d="M70.4556 21.9182V12.3094H73.3766L73.4727 14.1735C73.7802 13.4945 74.2094 12.982 74.7603 12.6361C75.324 12.2901 75.9646 12.1172 76.6821 12.1172C77.3739 12.1172 77.9889 12.2773 78.527 12.5976C79.0651 12.9179 79.4558 13.392 79.6992 14.0197C79.8914 13.5969 80.1477 13.2446 80.4679 12.9628C80.8011 12.6809 81.1726 12.4695 81.5826 12.3286C82.0054 12.1877 82.441 12.1172 82.8894 12.1172C83.5171 12.1172 84.0745 12.2453 84.5613 12.5015C85.0482 12.7578 85.4325 13.1357 85.7144 13.6354C86.009 14.135 86.1564 14.7628 86.1564 15.5187V21.9182H82.8894V16.2682C82.8894 15.666 82.7677 15.2433 82.5242 14.9998C82.2936 14.7436 81.9861 14.6155 81.6018 14.6155C81.2815 14.6155 80.9932 14.6988 80.737 14.8653C80.4936 15.019 80.3014 15.2561 80.1605 15.5764C80.0195 15.8967 79.9491 16.3002 79.9491 16.7871V21.9182H76.6821V16.2682C76.6821 15.666 76.5604 15.2433 76.3169 14.9998C76.0735 14.7436 75.766 14.6155 75.3945 14.6155C75.0998 14.6155 74.8244 14.6923 74.5681 14.8461C74.3119 14.9998 74.1069 15.2433 73.9532 15.5764C73.7994 15.8967 73.7226 16.3194 73.7226 16.8447V21.9182H70.4556Z" fill="white"/>
<path d="M62.4369 22.1101C61.7963 22.1101 61.2262 22.0012 60.7265 21.7834C60.2397 21.5528 59.8554 21.1876 59.5735 20.688C59.3044 20.1883 59.1699 19.5349 59.1699 18.7278V12.3091H62.4369V17.9591C62.4369 18.51 62.5394 18.9264 62.7444 19.2082C62.9622 19.4773 63.3145 19.6118 63.8014 19.6118C64.0192 19.6118 64.2242 19.5733 64.4163 19.4965C64.6213 19.4068 64.7943 19.2787 64.9352 19.1121C65.0889 18.9328 65.2043 18.7085 65.2811 18.4395C65.3708 18.1576 65.4156 17.8309 65.4156 17.4594V12.3091H68.6826V21.9179H65.7616L65.6655 20.1114C65.4733 20.5598 65.2171 20.9314 64.8968 21.2261C64.5893 21.5207 64.2306 21.7449 63.8206 21.8987C63.4106 22.0396 62.9494 22.1101 62.4369 22.1101Z" fill="white"/>
<path fill-rule="evenodd" clip-rule="evenodd" d="M57.62 17.0367V9.23438H54.3145V16.6908C54.3145 17.2673 54.2633 17.767 54.1608 18.1898C54.0711 18.6126 53.8981 18.9393 53.6419 19.1699C53.3857 19.4005 53.0269 19.5158 52.5657 19.5158C51.8995 19.5158 51.4447 19.2788 51.2013 18.8047C50.9996 18.4013 50.9298 17.7648 50.992 16.8951H47.8589L47.819 16.9022C47.6652 17.9143 47.7229 18.8176 47.9919 19.6119C48.2738 20.3934 48.7798 21.0084 49.5101 21.4568C50.2532 21.8924 51.2269 22.1102 52.4312 22.1102C54.0839 22.1102 55.3587 21.6682 56.2555 20.7842C57.1651 19.8873 57.62 18.6382 57.62 17.0367Z" fill="white"/>
<path d="M32.1555 1.67419C34.0333 0.809355 36.1353 0.263363 37.8889 0.761108C38.1499 0.835208 38.3524 1.00748 38.5002 1.17224C38.654 1.3436 38.791 1.55499 38.9143 1.78064C39.1614 2.23292 39.3877 2.81209 39.5803 3.42908C39.9653 4.66197 40.2475 6.1397 40.2932 7.25525C40.38 9.37464 40.2613 11.872 39.1116 15.1547C39.148 15.2209 39.2023 15.3096 39.2874 15.4066C39.4718 15.617 39.8096 15.895 40.4163 16.0951L40.6936 16.1752L40.9651 16.2445L41.0764 16.5013C41.6829 17.8982 41.6861 19.1433 41.4934 20.1068C41.3799 20.6745 41.0095 21.3028 40.5315 21.8734C40.1277 22.3554 39.6158 22.8311 39.0374 23.2396C39.4586 24.6118 39.6206 25.6439 39.676 26.3314C39.7107 26.7632 39.4522 27.0994 39.1067 27.224C38.7868 27.3392 38.4172 27.2703 38.1458 27.0326C37.3324 26.3203 36.3539 26.2942 35.6311 26.7826L35.6252 26.7865C35.1064 27.1289 34.4165 27.7917 33.5842 28.5951C33.486 28.6899 33.3862 28.7862 33.2854 28.8832C31.9254 30.1919 29.8223 31.4088 28.7893 31.8519C26.1611 32.9798 24.6229 33.7142 21.179 33.7142C17.7404 33.7142 16.027 32.984 13.3889 31.8519C12.356 31.4089 10.2529 30.192 8.89282 28.8832C8.79182 28.786 8.69138 28.6901 8.59302 28.5951C7.76087 27.7917 7.07178 27.1289 6.55298 26.7865L6.54712 26.7826C5.82431 26.2941 4.84584 26.3203 4.03247 27.0326C3.7611 27.2703 3.39139 27.3391 3.07153 27.224C2.726 27.0994 2.46749 26.7632 2.5022 26.3314L2.53052 26.0287C2.60572 25.354 2.77649 24.4234 3.13989 23.2396C2.56165 22.8312 2.05042 22.3552 1.64673 21.8734C1.1687 21.3028 0.797369 20.6745 0.683838 20.1068C0.491161 19.1433 0.495394 17.8981 1.10181 16.5013L1.21313 16.2445L1.48462 16.1752C2.26831 15.9755 2.679 15.647 2.88989 15.4066C2.97469 15.3099 3.02825 15.2209 3.0647 15.1547C1.91514 11.8723 1.79819 9.37452 1.88501 7.25525C1.93077 6.13968 2.21296 4.66198 2.5979 3.42908C2.79051 2.81219 3.01587 2.23289 3.26294 1.78064C3.38625 1.55495 3.52424 1.34362 3.67798 1.17224C3.8258 1.00749 4.02836 0.835166 4.28931 0.761108L4.62231 0.679077C6.30488 0.332316 8.26152 0.863528 10.0217 1.67419C11.7951 2.49092 13.4736 3.6438 14.6633 4.68787C16.5628 4.11042 18.7749 3.767 21.1243 3.76697C23.4749 3.76697 25.6229 4.1111 27.5139 4.68787C28.7035 3.64379 30.3821 2.49101 32.1555 1.67419Z" stroke="white" stroke-width="1.14286"/>
<path d="M26.3447 8.91663L26.3057 7.776C26.305 7.776 26.3035 7.77602 26.3018 7.776C26.2978 7.77597 26.2912 7.77518 26.2822 7.77502C26.2637 7.7747 26.2349 7.77446 26.1973 7.77307C26.1221 7.77029 26.0115 7.7649 25.875 7.75354C25.6005 7.73069 25.2272 7.68515 24.8301 7.59534C23.996 7.40666 23.2244 7.06026 22.8789 6.49475C22.6853 6.17777 22.5308 5.65014 22.4238 5.14709C22.4093 5.07876 22.397 5.01163 22.3848 4.94788C30.5759 5.39506 36.201 10.2358 36.2012 15.8229C36.2012 18.7677 34.5723 21.4826 31.8418 23.4821C29.1115 25.4812 25.3113 26.735 21.0889 26.735C16.8666 26.735 13.0672 25.4811 10.3369 23.4821C7.6062 21.4826 5.97656 18.7678 5.97656 15.8229C5.9767 10.237 11.6156 5.40075 19.792 4.94788C19.7798 5.01156 19.7684 5.07884 19.7539 5.14709C19.6469 5.65013 19.4925 6.17777 19.2988 6.49475C18.9533 7.06026 18.1818 7.40667 17.3477 7.59534C16.9505 7.68515 16.5772 7.73069 16.3027 7.75354C16.1663 7.7649 16.0557 7.77029 15.9805 7.77307C15.9429 7.77446 15.914 7.7747 15.8955 7.77502C15.8865 7.77518 15.88 7.77597 15.876 7.776H15.8721L15.832 8.91663C15.8327 8.91667 15.8341 8.91746 15.8359 8.9176C15.8398 8.9179 15.8467 8.91783 15.8555 8.91858C15.8731 8.92009 15.9001 8.92276 15.9355 8.92639C16.007 8.93371 16.1124 8.94588 16.2432 8.96448C16.5055 9.00179 16.866 9.06511 17.2578 9.1676C18.0708 9.38031 18.8993 9.73292 19.3486 10.2692C19.8127 10.8233 20.1199 11.8546 20.3027 12.8502C20.3908 13.3299 20.4445 13.7708 20.4766 14.0914C20.4925 14.2509 20.5034 14.3799 20.5098 14.4684C20.5129 14.5126 20.5153 14.5475 20.5166 14.5699C20.5173 14.5809 20.5173 14.5891 20.5176 14.5944C20.5177 14.597 20.5185 14.5991 20.5186 14.6002V14.6012H21.6592L21.6602 14.6002C21.6602 14.5991 21.66 14.597 21.6602 14.5944C21.6604 14.5891 21.6605 14.5809 21.6611 14.5699C21.6625 14.5475 21.6648 14.5126 21.668 14.4684C21.6743 14.3799 21.6852 14.2509 21.7012 14.0914C21.7332 13.7708 21.7869 13.3299 21.875 12.8502C22.0579 11.8546 22.3651 10.8233 22.8291 10.2692C23.2784 9.73295 24.107 9.38031 24.9199 9.1676C25.3117 9.06512 25.6722 9.0018 25.9346 8.96448C26.0653 8.94588 26.1707 8.93371 26.2422 8.92639C26.2776 8.92277 26.3047 8.92009 26.3223 8.91858C26.331 8.91783 26.3379 8.9179 26.3418 8.9176C26.3431 8.9175 26.344 8.91668 26.3447 8.91663Z" fill="black" stroke="black" stroke-width="1.14286"/>
<path fill-rule="evenodd" clip-rule="evenodd" d="M21.0888 20.7699C20.2549 20.7747 19.6565 20.8229 18.4317 21.3108C19.5949 20.0506 19.9329 17.5961 19.0133 15.8825C16.7672 11.6971 12.184 10.617 9.12617 12.0052C6.06831 13.3933 6.40225 19.5527 9.81587 22.317C11.0278 23.2984 12.6251 24.0194 12.6251 24.0194C12.1415 24.6589 11.8738 25.3622 11.8738 26.1007C11.8738 28.9917 15.974 31.3452 21.0888 31.4296C26.2036 31.3452 30.3038 28.9917 30.3038 26.1007C30.3038 25.3622 30.0362 24.6589 29.5526 24.0194C29.5526 24.0194 31.1498 23.2984 32.3618 22.317C35.7754 19.5527 36.1093 13.3933 33.0515 12.0052C29.9936 10.617 25.4104 11.6971 23.1643 15.8825C22.2447 17.5961 22.5827 20.0506 23.7459 21.3108C22.5211 20.8229 21.9227 20.7747 21.0888 20.7699Z" fill="white"/>
<path d="M30.6225 18.42C30.2106 19.9571 27.7297 21.4483 26.1926 21.0364C24.6554 20.6245 24.6441 18.4656 25.056 16.9284C25.4679 15.3913 27.0479 14.479 28.585 14.8909C30.1222 15.3028 31.0344 16.8828 30.6225 18.42Z" fill="black"/>
<path d="M11.5462 18.4937C11.9581 20.0309 14.439 21.522 15.9761 21.1101C17.5133 20.6983 17.5246 18.5393 17.1127 17.0021C16.7008 15.465 15.1208 14.5528 13.5837 14.9646C12.0465 15.3765 11.1343 16.9565 11.5462 18.4937Z" fill="black"/>
<path fill-rule="evenodd" clip-rule="evenodd" d="M21.1392 20.3237C20.4241 20.3237 19.9741 20.4952 19.1814 20.7744C18.9665 20.8618 18.1437 21.3795 18.1742 21.689C18.2185 22.14 18.9305 22.42 19.2629 22.5029C19.5953 22.5857 20.4241 22.5837 20.4241 22.5837C20.6005 22.7143 20.7293 23.3002 20.8418 23.8119C20.9377 24.248 21.0217 24.6301 21.1132 24.6301C21.1216 24.6301 21.1303 24.6264 21.1392 24.6193C21.1482 24.6264 21.1569 24.6301 21.1653 24.6301C21.2568 24.6301 21.3408 24.248 21.4367 23.8119C21.5491 23.3002 21.678 22.7143 21.8544 22.5837C21.8544 22.5837 22.6832 22.5857 23.0156 22.5029C23.348 22.42 24.06 22.14 24.1043 21.689C24.1348 21.3795 23.3119 20.8618 23.0971 20.7744C22.3044 20.4952 21.8544 20.3237 21.1392 20.3237Z" fill="black"/>
<path fill-rule="evenodd" clip-rule="evenodd" d="M21.711 4.35798C21.5046 4.35209 21.2972 4.34912 21.0889 4.34912C20.8806 4.34912 20.6732 4.35209 20.4669 4.35798C20.4514 4.488 20.2615 6.01543 19.7863 6.79333C18.8372 8.34684 15.8723 8.34794 15.8723 8.34794C15.8723 8.34794 18.6472 8.54309 19.7863 9.90256C20.9254 11.262 21.0889 14.5737 21.0889 14.5737C21.0889 14.5737 21.2524 11.262 22.3915 9.90256C23.5306 8.54309 26.3055 8.34794 26.3055 8.34794C26.3055 8.34794 23.3406 8.34684 22.3915 6.79333C21.9163 6.01543 21.7264 4.488 21.711 4.35798Z" fill="white"/>
<path fill-rule="evenodd" clip-rule="evenodd" d="M21.711 4.35798C21.5046 4.35209 21.2972 4.34912 21.0889 4.34912C20.8806 4.34912 20.6732 4.35209 20.4669 4.35798C20.4514 4.488 20.2615 6.01543 19.7863 6.79333C18.8372 8.34684 15.8723 8.34794 15.8723 8.34794C15.8723 8.34794 18.6472 8.54309 19.7863 9.90256C20.9254 11.262 21.0889 14.5737 21.0889 14.5737C21.0889 14.5737 21.2524 11.262 22.3915 9.90256C23.5306 8.54309 26.3055 8.34794 26.3055 8.34794C26.3055 8.34794 23.3406 8.34684 22.3915 6.79333C21.9163 6.01543 21.7264 4.488 21.711 4.35798Z" fill="white"/>
<path d="M124.986 9.2345V11.8493H122.045V9.2345H124.986Z" fill="white"/>
</svg>
