<svg width="135" height="28" viewBox="0 0 135 28" fill="none" xmlns="http://www.w3.org/2000/svg">
<path d="M128.01 18.1786V9.7709H130.533L130.65 11.587C130.852 10.9592 131.16 10.4715 131.575 10.124C131.99 9.7765 132.511 9.60275 133.139 9.60275C133.352 9.60275 133.531 9.61956 133.677 9.65319C133.823 9.68682 133.94 9.73166 134.03 9.78772L133.744 12.1419C133.655 12.1082 133.526 12.0746 133.358 12.041C133.189 12.0073 132.976 11.9905 132.719 11.9905C132.393 11.9905 132.085 12.0634 131.794 12.2091C131.513 12.3549 131.289 12.5735 131.121 12.8649C130.953 13.1452 130.869 13.5039 130.869 13.9411V18.1786H128.01Z" fill="black"/>
<path d="M122.912 18.3468C121.992 18.3468 121.196 18.1786 120.524 17.8423C119.851 17.4948 119.33 16.9959 118.96 16.3457C118.601 15.6843 118.422 14.894 118.422 13.9748C118.422 13.0443 118.607 12.254 118.977 11.6038C119.347 10.9536 119.857 10.4603 120.507 10.124C121.168 9.7765 121.925 9.60275 122.777 9.60275C123.651 9.60275 124.397 9.7765 125.013 10.124C125.63 10.4603 126.101 10.9312 126.426 11.5365C126.751 12.1307 126.914 12.8145 126.914 13.588C126.914 13.801 126.908 14.0084 126.897 14.2102C126.886 14.4007 126.869 14.5633 126.846 14.6978H120.272V13.1676H125.585L124.223 13.6889C124.223 13.2405 124.167 12.8649 124.055 12.5623C123.954 12.2484 123.797 12.013 123.584 11.856C123.371 11.6879 123.102 11.6038 122.777 11.6038C122.429 11.6038 122.132 11.6879 121.886 11.856C121.639 12.0242 121.454 12.2876 121.331 12.6463C121.208 13.0051 121.146 13.4647 121.146 14.0252C121.146 14.5745 121.213 15.0229 121.348 15.3704C121.493 15.7067 121.695 15.9534 121.953 16.1103C122.222 16.256 122.542 16.3289 122.912 16.3289C123.315 16.3289 123.646 16.2448 123.904 16.0767C124.161 15.9085 124.346 15.6731 124.459 15.3704L126.745 16.1271C126.589 16.6092 126.314 17.0183 125.921 17.3547C125.54 17.6798 125.086 17.9264 124.559 18.0945C124.044 18.2627 123.494 18.3468 122.912 18.3468Z" fill="black"/>
<path d="M118.326 7.39075V9.15576C118.248 9.13334 118.175 9.12213 118.108 9.12213C118.04 9.11092 117.979 9.10532 117.923 9.10532C117.441 9.10532 117.076 9.50746 116.83 9.75409C116.594 9.9895 116.477 10.2866 116.477 10.6453L115.468 10.2754C115.468 9.80453 115.552 9.36173 115.72 8.94695C115.888 8.52096 116.146 8.17344 116.493 7.90439C116.841 7.63534 117.519 7.37394 118.057 7.37394C118.091 7.37394 118.13 7.37394 118.175 7.37394C118.231 7.37394 118.281 7.37954 118.326 7.39075ZM115.232 16.3121C116.185 16.3121 116.919 16.5195 117.435 16.9343C117.962 17.3378 118.225 17.9208 118.225 18.6831C118.225 19.3781 118.035 19.9554 117.654 20.4151C117.284 20.8859 116.751 21.2334 116.056 21.4576C115.372 21.6818 114.565 21.7939 113.635 21.7939C112.133 21.7939 111.045 21.6034 110.373 21.2222C109.711 20.8411 109.38 20.3254 109.38 19.6752C109.38 19.2044 109.571 18.8176 109.952 18.5149C110.333 18.2235 110.955 18.0721 111.819 18.0609L111.751 18.33C111.068 18.2403 110.558 18.0329 110.221 17.7078C109.896 17.3827 109.734 16.9623 109.734 16.4466C109.734 15.9197 109.947 15.4825 110.373 15.135C110.799 14.7875 111.353 14.6025 112.037 14.5801L113.097 15.0678H112.828C112.402 15.079 112.099 15.1462 111.92 15.2695C111.74 15.3929 111.651 15.5498 111.651 15.7404C111.651 15.9197 111.723 16.0599 111.869 16.1608C112.026 16.2617 112.261 16.3121 112.575 16.3121H115.232ZM113.668 19.9442C114.195 19.9442 114.632 19.905 114.98 19.8265C115.327 19.7593 115.585 19.6584 115.753 19.5238C115.922 19.4005 116.006 19.2548 116.006 19.0866C116.006 18.9073 115.938 18.7728 115.804 18.6831C115.681 18.5934 115.473 18.5486 115.182 18.5486H112.205C112.004 18.5486 111.835 18.6046 111.701 18.7167C111.578 18.8288 111.516 18.9689 111.516 19.1371C111.516 19.3837 111.707 19.5799 112.088 19.7256C112.469 19.8714 112.996 19.9442 113.668 19.9442ZM113.752 9.60275C114.604 9.60275 115.327 9.71485 115.922 9.93906C116.527 10.1633 116.987 10.4884 117.3 10.9144C117.626 11.3403 117.788 11.856 117.788 12.4614C117.788 13.0667 117.626 13.5824 117.3 14.0084C116.987 14.4232 116.527 14.7427 115.922 14.9669C115.327 15.1911 114.604 15.3032 113.752 15.3032C112.43 15.3032 111.426 15.0565 110.742 14.5633C110.07 14.07 109.734 13.3694 109.734 12.4614C109.734 11.856 109.891 11.3403 110.204 10.9144C110.518 10.4884 110.972 10.1633 111.566 9.93906C112.172 9.71485 112.9 9.60275 113.752 9.60275ZM113.752 11.2338C113.394 11.2338 113.102 11.3403 112.878 11.5533C112.654 11.7663 112.542 12.069 112.542 12.4614C112.542 12.8425 112.654 13.1396 112.878 13.3526C113.102 13.5656 113.394 13.6721 113.752 13.6721C114.111 13.6721 114.403 13.5656 114.627 13.3526C114.851 13.1396 114.963 12.8425 114.963 12.4614C114.963 12.069 114.851 11.7663 114.627 11.5533C114.403 11.3403 114.111 11.2338 113.752 11.2338Z" fill="black"/>
<path d="M108.506 10.1916V18.1786H105.647V10.1916H108.506Z" fill="black"/>
<path d="M104.974 7.08043V9.31689H101.46V18.1786H98.5676V9.31689H95.0364V7.08043H104.974Z" fill="black"/>
<path d="M89.7835 9.60275C90.6579 9.60275 91.4258 9.7765 92.0872 10.124C92.7486 10.4715 93.2643 10.9704 93.6342 11.6206C94.0154 12.2708 94.2059 13.0555 94.2059 13.9748C94.2059 14.894 94.0154 15.6787 93.6342 16.3289C93.2643 16.9791 92.7486 17.478 92.0872 17.8255C91.4258 18.173 90.6579 18.3468 89.7835 18.3468C88.9203 18.3468 88.158 18.173 87.4966 17.8255C86.8352 17.478 86.3195 16.9791 85.9496 16.3289C85.5796 15.6787 85.3947 14.894 85.3947 13.9748C85.3947 13.0555 85.5796 12.2708 85.9496 11.6206C86.3195 10.9704 86.8352 10.4715 87.4966 10.124C88.158 9.7765 88.9203 9.60275 89.7835 9.60275ZM89.7835 11.6374C89.4696 11.6374 89.195 11.7215 88.9595 11.8896C88.7353 12.0466 88.5616 12.2988 88.4383 12.6463C88.3262 12.9826 88.2701 13.4255 88.2701 13.9748C88.2701 14.5241 88.3262 14.9725 88.4383 15.32C88.5616 15.6563 88.7353 15.9085 88.9595 16.0767C89.195 16.2336 89.4696 16.3121 89.7835 16.3121C90.1086 16.3121 90.3832 16.2336 90.6075 16.0767C90.8429 15.9085 91.0222 15.6507 91.1455 15.3032C91.2689 14.9557 91.3305 14.5128 91.3305 13.9748C91.3305 13.4255 91.2689 12.9826 91.1455 12.6463C91.0222 12.2988 90.8429 12.0466 90.6075 11.8896C90.3832 11.7215 90.1086 11.6374 89.7835 11.6374Z" fill="black"/>
<path d="M81.24 18.3468C80.4217 18.3468 79.7491 18.0777 79.2222 17.5396C78.7065 16.9903 78.387 16.3065 78.2637 15.4881L78.5328 15.135L78.3814 18.1786H75.8759V6.20602H78.7346V12.4109L78.4655 12.0073C78.6224 11.3123 78.9363 10.7406 79.4072 10.2922C79.8892 9.83255 80.5338 9.60274 81.3409 9.60274C81.9799 9.60274 82.546 9.7765 83.0393 10.124C83.5438 10.4715 83.9361 10.976 84.2164 11.6374C84.5078 12.2876 84.6536 13.0779 84.6536 14.0084C84.6536 14.9164 84.5078 15.6955 84.2164 16.3457C83.9361 16.9959 83.5382 17.4948 83.0225 17.8423C82.518 18.1786 81.9239 18.3468 81.24 18.3468ZM80.2479 16.2448C80.73 16.2448 81.1055 16.0599 81.3746 15.6899C81.6436 15.32 81.7781 14.7483 81.7781 13.9747C81.7781 13.2012 81.6436 12.6295 81.3746 12.2596C81.1055 11.8896 80.73 11.7047 80.2479 11.7047C79.9341 11.7047 79.6594 11.8 79.424 11.9905C79.1998 12.1699 79.026 12.4277 78.9027 12.764C78.7906 13.1003 78.7346 13.5095 78.7346 13.9916C78.7346 14.4736 78.7962 14.8828 78.9195 15.2191C79.0428 15.5554 79.2166 15.8132 79.4408 15.9926C79.6762 16.1608 79.9453 16.2448 80.2479 16.2448Z" fill="black"/>
<path d="M60.6488 18.1786V9.7709H63.2047L63.2888 11.402C63.5579 10.8079 63.9334 10.3594 64.4155 10.0568C64.9087 9.75408 65.4692 9.60275 66.097 9.60275C66.7024 9.60275 67.2404 9.74287 67.7113 10.0231C68.1821 10.3034 68.524 10.7182 68.737 11.2675C68.9052 10.8975 69.1294 10.5892 69.4096 10.3426C69.7011 10.096 70.0262 9.91103 70.3849 9.78772C70.7549 9.6644 71.136 9.60275 71.5284 9.60275C72.0777 9.60275 72.5653 9.71485 72.9913 9.93905C73.4173 10.1633 73.7536 10.494 74.0002 10.9312C74.2581 11.3684 74.387 11.9177 74.387 12.5791V18.1786H71.5284V13.2349C71.5284 12.708 71.4219 12.3381 71.2089 12.1251C71.0071 11.9009 70.7381 11.7887 70.4017 11.7887C70.1215 11.7887 69.8693 11.8616 69.6451 12.0073C69.4321 12.1419 69.2639 12.3493 69.1406 12.6295C69.0173 12.9098 68.9556 13.2629 68.9556 13.6889V18.1786H66.097V13.2349C66.097 12.708 65.9905 12.3381 65.7775 12.1251C65.5645 11.9009 65.2955 11.7887 64.9704 11.7887C64.7125 11.7887 64.4715 11.856 64.2473 11.9905C64.0231 12.1251 63.8437 12.3381 63.7092 12.6295C63.5747 12.9098 63.5074 13.2797 63.5074 13.7393V18.1786H60.6488Z" fill="black"/>
<path d="M53.6323 18.3468C53.0718 18.3468 52.573 18.2515 52.1358 18.0609C51.7098 17.8591 51.3735 17.5396 51.1269 17.1024C50.8914 16.6652 50.7737 16.0935 50.7737 15.3872V9.7709H53.6323V14.7146C53.6323 15.1967 53.722 15.561 53.9014 15.8076C54.092 16.043 54.4003 16.1608 54.8262 16.1608C55.0168 16.1608 55.1962 16.1271 55.3643 16.0599C55.5437 15.9814 55.695 15.8693 55.8184 15.7236C55.9529 15.5666 56.0538 15.3704 56.121 15.135C56.1995 14.8884 56.2387 14.6025 56.2387 14.2774V9.7709H59.0974V18.1786H56.5414L56.4573 16.598C56.2892 16.9903 56.065 17.3154 55.7847 17.5733C55.5157 17.8311 55.2018 18.0273 54.8431 18.1618C54.4843 18.2851 54.0808 18.3468 53.6323 18.3468Z" fill="black"/>
<path fill-rule="evenodd" clip-rule="evenodd" d="M49.4176 13.9075V7.08043H46.5253V13.6048C46.5253 14.1093 46.4805 14.5465 46.3908 14.9164C46.3123 15.2864 46.161 15.5722 45.9368 15.774C45.7126 15.9758 45.3987 16.0767 44.9951 16.0767C44.4122 16.0767 44.0142 15.8693 43.8012 15.4545C43.6247 15.1015 43.5637 14.5445 43.6181 13.7836H40.8766L40.8417 13.7898C40.7072 14.6754 40.7576 15.4657 40.993 16.1608C41.2397 16.8446 41.6825 17.3827 42.3215 17.775C42.9716 18.1562 43.8236 18.3468 44.8774 18.3468C46.3235 18.3468 47.4389 17.96 48.2237 17.1865C49.0196 16.4018 49.4176 15.3088 49.4176 13.9075Z" fill="black"/>
<path fill-rule="evenodd" clip-rule="evenodd" d="M11.7119 3.66304C13.3814 3.12321 15.3648 2.79573 17.484 2.79573C19.6033 2.79573 21.5244 3.12321 23.1939 3.66304C25.217 1.804 29.3013 -0.62394 32.0162 0.14664C32.808 0.371341 33.6814 3.5216 33.7571 5.36913C33.8328 7.21667 33.729 9.38991 32.6876 12.2803C32.6876 12.2803 32.9245 13.2407 34.4833 13.6379C34.9681 14.7545 34.9681 15.7385 34.8167 16.4953C34.6653 17.2522 33.7571 18.3876 32.5687 19.1275C33.0124 20.4744 33.1684 21.4603 33.2183 22.0799C33.2405 22.3559 32.9151 22.46 32.7068 22.2775C31.8353 21.5142 30.7297 21.4577 29.897 22.0206C29.3947 22.352 28.752 22.9725 28.0394 23.6605C27.9531 23.7437 27.8658 23.828 27.7777 23.9128C26.6406 25.0071 24.8552 26.0408 23.9933 26.4105C21.7011 27.3941 20.4359 28 17.5315 28C14.6272 28 13.2047 27.3941 10.9125 26.4105C10.0506 26.0408 8.26521 25.0071 7.12811 23.9128C7.03995 23.828 6.95269 23.7437 6.86645 23.6605C6.15383 22.9725 5.51106 22.352 5.00883 22.0206C4.1761 21.4577 3.07049 21.5142 2.19899 22.2775C1.99066 22.46 1.66527 22.3559 1.6875 22.0799C1.73741 21.4603 1.89337 20.4744 2.33712 19.1275C1.14872 18.3876 0.240456 17.2522 0.0890789 16.4953C-0.0622981 15.7385 -0.0622981 14.7545 0.422471 13.6379C1.98129 13.2407 2.21817 12.2803 2.21817 12.2803C1.17675 9.38991 1.07303 7.21667 1.14872 5.36913C1.22441 3.5216 2.0978 0.371341 2.88955 0.14664C5.60447 -0.62394 9.68882 1.804 11.7119 3.66304Z" fill="black"/>
<path fill-rule="evenodd" clip-rule="evenodd" d="M16.3131 4.94369C16.7476 4.23242 16.9095 2.805 16.9095 2.805C9.29861 2.99305 3.72972 7.42925 3.72972 12.8455C3.72972 18.3949 9.8738 22.8937 17.4529 22.8937C25.032 22.8937 31.1761 18.3949 31.1761 12.8455C31.1761 7.42925 25.6216 2.98819 17.9963 2.805C17.9963 2.805 18.1582 4.23242 18.5927 4.94369C19.4231 6.30301 22.0174 6.30398 22.0174 6.30398C22.0174 6.30398 19.5894 6.47473 18.5927 7.66427C17.596 8.8538 17.4529 11.7515 17.4529 11.7515C17.4529 11.7515 17.3098 8.8538 16.3131 7.66427C15.3164 6.47473 12.8884 6.30398 12.8884 6.30398C12.8884 6.30398 15.4827 6.30301 16.3131 4.94369Z" fill="black"/>
<path fill-rule="evenodd" clip-rule="evenodd" d="M17.4527 17.1731C16.723 17.1773 16.1994 17.2195 15.1277 17.6464C16.1455 16.5438 16.4412 14.396 15.6366 12.8967C13.6712 9.2344 9.66097 8.28937 6.98534 9.504C4.30972 10.7186 4.60191 16.1081 7.58883 18.5268C8.6493 19.3856 10.0469 20.0165 10.0469 20.0165C9.62372 20.576 9.38955 21.1914 9.38954 21.8375C9.38954 24.3672 12.9772 26.4265 17.4527 26.5004C21.9281 26.4265 25.5158 24.3672 25.5158 21.8375C25.5158 21.1914 25.2816 20.576 24.8584 20.0165C24.8584 20.0165 26.256 19.3856 27.3165 18.5268C30.3034 16.1081 30.5956 10.7186 27.92 9.504C25.2443 8.28937 21.2341 9.2344 19.2687 12.8967C18.4641 14.396 18.7598 16.5438 19.7776 17.6464C18.7059 17.2195 18.1823 17.1773 17.4527 17.1731Z" fill="white"/>
<path d="M25.7947 15.1171C25.4343 16.4622 23.2635 17.7669 21.9185 17.4065C20.5735 17.0461 20.5636 15.1571 20.924 13.812C21.2844 12.467 22.6669 11.6688 24.0119 12.0292C25.3569 12.3896 26.1551 13.7721 25.7947 15.1171Z" fill="black"/>
<path d="M9.103 15.1821C9.4634 16.5271 11.6342 17.8319 12.9792 17.4715C14.3242 17.1111 14.3341 15.222 13.9737 13.877C13.6133 12.532 12.2308 11.7338 10.8858 12.0942C9.5408 12.4546 8.74261 13.8371 9.103 15.1821Z" fill="black"/>
<path fill-rule="evenodd" clip-rule="evenodd" d="M17.4969 16.7834C16.8712 16.7834 16.4774 16.9334 15.7838 17.1778C15.5958 17.2542 14.8758 17.7072 14.9025 17.978C14.9413 18.3726 15.5642 18.6176 15.8551 18.6902C16.146 18.7627 16.8712 18.7609 16.8712 18.7609C17.0256 18.8752 17.1383 19.3879 17.2367 19.8355C17.3206 20.2171 17.3941 20.5515 17.4741 20.5515C17.4815 20.5515 17.4891 20.5482 17.4969 20.5421C17.5048 20.5482 17.5124 20.5515 17.5197 20.5515C17.5998 20.5515 17.6733 20.2171 17.7572 19.8355C17.8556 19.3879 17.9683 18.8752 18.1227 18.7609C18.1227 18.7609 18.8479 18.7627 19.1388 18.6902C19.4296 18.6176 20.0526 18.3726 20.0914 17.978C20.118 17.7072 19.398 17.2542 19.21 17.1778C18.5164 16.9334 18.1227 16.7834 17.4969 16.7834Z" fill="black"/>
<path fill-rule="evenodd" clip-rule="evenodd" d="M17.9972 2.81277C17.8166 2.80761 17.6351 2.80501 17.4529 2.80501C17.2706 2.80501 17.0891 2.80761 16.9086 2.81277C16.895 2.92653 16.7289 4.26303 16.3131 4.9437C15.4826 6.30302 12.8883 6.30398 12.8883 6.30398C12.8883 6.30398 15.3164 6.47473 16.3131 7.66427C17.3098 8.85381 17.4529 11.7515 17.4529 11.7515C17.4529 11.7515 17.5959 8.85381 18.5926 7.66427C19.5894 6.47473 22.0174 6.30398 22.0174 6.30398C22.0174 6.30398 19.4231 6.30302 18.5926 4.9437C18.1768 4.26303 18.0107 2.92653 17.9972 2.81277Z" fill="white"/>
<path fill-rule="evenodd" clip-rule="evenodd" d="M17.9972 2.81277C17.8166 2.80761 17.6351 2.80501 17.4529 2.80501C17.2706 2.80501 17.0891 2.80761 16.9086 2.81277C16.895 2.92653 16.7289 4.26303 16.3131 4.9437C15.4826 6.30302 12.8883 6.30398 12.8883 6.30398C12.8883 6.30398 15.3164 6.47473 16.3131 7.66427C17.3098 8.85381 17.4529 11.7515 17.4529 11.7515C17.4529 11.7515 17.5959 8.85381 18.5926 7.66427C19.5894 6.47473 22.0174 6.30398 22.0174 6.30398C22.0174 6.30398 19.4231 6.30302 18.5926 4.9437C18.1768 4.26303 18.0107 2.92653 17.9972 2.81277Z" fill="white"/>
<path d="M108.363 7.08044V9.36836H105.79V7.08044H108.363Z" fill="black"/>
</svg>
