<svg width="398" height="184" viewBox="0 0 398 184" fill="none" xmlns="http://www.w3.org/2000/svg" xmlns:xlink="http://www.w3.org/1999/xlink">
<g clip-path="url(#clip0_519_2131)">
<rect width="397.333" height="184" fill="black"/>
<rect width="397.333" height="184" fill="url(#pattern0_519_2131)" fill-opacity="0.2"/>
<rect width="397.333" height="184" fill="url(#paint0_linear_519_2131)"/>
<rect width="111.158" height="111.158" rx="9" transform="matrix(0.866025 0.5 -0.866025 0.5 206.149 36.4209)" fill="url(#paint1_linear_519_2131)"/>
<rect x="-5.96046e-08" y="1" width="109.158" height="109.158" rx="6" transform="matrix(0.866025 0.5 -0.866025 0.5 353.69 128.921)" stroke="url(#paint2_linear_519_2131)" stroke-width="2"/>
<path d="M369.991 -51.5791L454.133 -3C457.003 -1.34314 457.003 1.34316 454.133 3L369.991 51.5791C367.122 53.2359 362.469 53.2359 359.599 51.5791L275.458 3C272.588 1.34316 272.588 -1.34314 275.458 -3L359.599 -51.5791C362.469 -53.236 367.122 -53.236 369.991 -51.5791Z" stroke="url(#paint3_linear_519_2131)" stroke-width="2"/>
<path d="M62.5549 127.3L146.696 175.879C149.566 177.536 149.566 180.222 146.696 181.879L62.5549 230.458C59.6852 232.115 55.0323 232.115 52.1626 230.458L-31.9789 181.879C-34.8486 180.222 -34.8485 177.536 -31.9789 175.879L52.1626 127.3C55.0324 125.643 59.6852 125.643 62.5549 127.3Z" stroke="url(#paint4_linear_519_2131)" stroke-width="2"/>
<path fill-rule="evenodd" clip-rule="evenodd" d="M191.741 92L177.332 83.6814L206.149 67.0442L234.965 83.6814L220.557 92L206.149 83.6814L191.741 92Z" fill="black"/>
<path fill-rule="evenodd" clip-rule="evenodd" d="M220.557 92L234.965 100.319L206.149 116.956L177.332 100.319L191.741 92L206.149 100.319L220.557 92Z" fill="black"/>
<path d="M250.756 123.3L306.181 155.3" stroke="url(#paint5_linear_519_2131)" stroke-width="2" stroke-dasharray="3 3"/>
<path d="M256.558 63.3809L318.046 27.8809" stroke="url(#paint6_linear_519_2131)" stroke-width="2" stroke-dasharray="3 3"/>
<path d="M103.948 151.473L158.508 119.973" stroke="url(#paint7_linear_519_2131)" stroke-width="2" stroke-dasharray="3 3"/>
</g>
<defs>
<linearGradient id="paint0_linear_519_2131" x1="-6.94099" y1="17.5" x2="65.9821" y2="129.501" gradientUnits="userSpaceOnUse">
<stop stop-opacity="0"/>
<stop offset="1"/>
</linearGradient>
<linearGradient id="paint1_linear_519_2131" x1="24.4956" y1="-54.9846" x2="-37.4362" y2="123.225" gradientUnits="userSpaceOnUse">
<stop offset="0.0869211" stop-color="#AAFFA6"/>
<stop offset="0.591389" stop-color="#BB94FF" stop-opacity="0.8"/>
<stop offset="1" stop-color="#BB94FF" stop-opacity="0"/>
</linearGradient>
<linearGradient id="paint2_linear_519_2131" x1="24.4956" y1="-54.9846" x2="-37.4362" y2="123.225" gradientUnits="userSpaceOnUse">
<stop offset="0.0869211" stop-color="#AAFFA6"/>
<stop offset="0.591389" stop-color="#BB94FF" stop-opacity="0.8"/>
<stop offset="1" stop-color="#BB94FF" stop-opacity="0.8"/>
</linearGradient>
<linearGradient id="paint3_linear_519_2131" x1="433.627" y1="-70.8236" x2="282.909" y2="55.579" gradientUnits="userSpaceOnUse">
<stop offset="0.0869211" stop-color="#AAFFA6"/>
<stop offset="0.591389" stop-color="#BB94FF" stop-opacity="0.8"/>
<stop offset="1" stop-color="#BB94FF" stop-opacity="0.8"/>
</linearGradient>
<linearGradient id="paint4_linear_519_2131" x1="126.191" y1="108.056" x2="-24.5275" y2="234.458" gradientUnits="userSpaceOnUse">
<stop offset="0.0869211" stop-color="#AAFFA6"/>
<stop offset="0.591389" stop-color="#BB94FF" stop-opacity="0.8"/>
<stop offset="1" stop-color="#BB94FF" stop-opacity="0.8"/>
</linearGradient>
<linearGradient id="paint5_linear_519_2131" x1="252.459" y1="123.3" x2="306.181" y2="155.3" gradientUnits="userSpaceOnUse">
<stop offset="0.0869211" stop-color="#AAFFA6"/>
<stop offset="0.591389" stop-color="#BB94FF" stop-opacity="0.8"/>
<stop offset="1" stop-color="#BB94FF" stop-opacity="0.8"/>
</linearGradient>
<linearGradient id="paint6_linear_519_2131" x1="256.651" y1="62.3436" x2="264.156" y2="18.6292" gradientUnits="userSpaceOnUse">
<stop offset="0.0869211" stop-color="#AAFFA6"/>
<stop offset="0.591389" stop-color="#BB94FF" stop-opacity="0.8"/>
<stop offset="1" stop-color="#BB94FF" stop-opacity="0.8"/>
</linearGradient>
<linearGradient id="paint7_linear_519_2131" x1="103.935" y1="150.497" x2="112.025" y2="110.558" gradientUnits="userSpaceOnUse">
<stop offset="0.0869211" stop-color="#AAFFA6"/>
<stop offset="0.591389" stop-color="#BB94FF" stop-opacity="0.8"/>
<stop offset="1" stop-color="#BB94FF" stop-opacity="0.8"/>
</linearGradient>
<clipPath id="clip0_519_2131">
<rect width="397.333" height="184" fill="white"/>
</clipPath>
<pattern id="pattern0_519_2131" patternUnits="userSpaceOnUse" patternTransform="matrix(6.4974 0 0 6.4974 0 0)" preserveAspectRatio="none" viewBox="0 0 46.41 46.41" width="1" height="1">
<g id="pattern0_519_2131_inner">
<rect width="13" height="13" fill="#D9D9D9"/>
</g>
</pattern></defs>
</svg>
