<svg width="748" height="748" viewBox="0 0 748 748" fill="none" xmlns="http://www.w3.org/2000/svg">
<g filter="url(#filter0_dd_770_5620)">
<path d="M699.601 101.309H48.3989C37.1599 101.309 28.0488 110.42 28.0488 121.659V626.341C28.0488 637.58 37.1599 646.691 48.3989 646.691H699.601C710.84 646.691 719.951 637.58 719.951 626.341V121.659C719.951 110.42 710.84 101.309 699.601 101.309Z" fill="white"/>
</g>
<g filter="url(#filter1_dd_770_5620)">
<rect x="63.6611" y="234.602" width="193.866" height="118.592" rx="9.67114" fill="white"/>
<rect x="64.1699" y="235.11" width="192.849" height="117.574" rx="9.16239" stroke="#F0F0F0" stroke-width="1.0175"/>
</g>
<g filter="url(#filter2_dd_770_5620)">
<rect x="276.129" y="234.601" width="193.866" height="118.592" rx="9.67114" fill="white"/>
<rect x="276.638" y="235.11" width="192.849" height="117.574" rx="9.16239" stroke="#F0F0F0" stroke-width="1.0175"/>
</g>
<g filter="url(#filter3_dd_770_5620)">
<rect x="488.597" y="234.601" width="193.866" height="118.592" rx="9.67114" fill="white"/>
<rect x="489.105" y="235.11" width="192.849" height="117.574" rx="9.16239" stroke="#F0F0F0" stroke-width="1.0175"/>
</g>
<path opacity="0.6" d="M362.68 279.887L359.383 292.139H357.549L360.847 279.887H362.68ZM372.305 280.367V290.6H370.436L365.984 284.159H365.909V290.6H363.746V280.367H365.644L370.061 286.803H370.151V280.367H372.305ZM374.052 290.6V282.925H376.181V290.6H374.052ZM375.122 281.936C374.805 281.936 374.534 281.831 374.307 281.621C374.084 281.408 373.972 281.153 373.972 280.857C373.972 280.564 374.084 280.312 374.307 280.102C374.534 279.889 374.805 279.782 375.122 279.782C375.438 279.782 375.708 279.889 375.931 280.102C376.157 280.312 376.271 280.564 376.271 280.857C376.271 281.153 376.157 281.408 375.931 281.621C375.708 281.831 375.438 281.936 375.122 281.936ZM381.343 293.638C380.654 293.638 380.063 293.543 379.57 293.353C379.08 293.166 378.69 292.912 378.4 292.588C378.111 292.265 377.922 291.902 377.836 291.499L379.804 291.234C379.864 291.388 379.959 291.531 380.089 291.664C380.219 291.797 380.391 291.904 380.604 291.984C380.82 292.067 381.084 292.109 381.393 292.109C381.856 292.109 382.238 291.996 382.538 291.769C382.841 291.546 382.992 291.171 382.992 290.645V289.241H382.902C382.809 289.454 382.669 289.656 382.483 289.845C382.296 290.035 382.056 290.19 381.763 290.31C381.47 290.43 381.12 290.49 380.714 290.49C380.138 290.49 379.613 290.357 379.14 290.09C378.67 289.82 378.296 289.409 378.016 288.856C377.739 288.3 377.601 287.597 377.601 286.748C377.601 285.878 377.743 285.152 378.026 284.569C378.309 283.986 378.685 283.55 379.155 283.26C379.628 282.97 380.146 282.825 380.709 282.825C381.139 282.825 381.498 282.899 381.788 283.045C382.078 283.188 382.311 283.368 382.488 283.585C382.667 283.798 382.806 284.008 382.902 284.214H382.982V282.925H385.096V290.675C385.096 291.328 384.936 291.874 384.616 292.314C384.296 292.753 383.853 293.083 383.287 293.303C382.724 293.526 382.076 293.638 381.343 293.638ZM381.388 288.891C381.731 288.891 382.021 288.806 382.258 288.636C382.498 288.463 382.681 288.217 382.807 287.897C382.937 287.574 383.002 287.187 383.002 286.738C383.002 286.288 382.939 285.898 382.812 285.568C382.686 285.235 382.503 284.977 382.263 284.794C382.023 284.611 381.731 284.519 381.388 284.519C381.039 284.519 380.744 284.614 380.504 284.804C380.264 284.99 380.083 285.25 379.959 285.583C379.836 285.916 379.774 286.301 379.774 286.738C379.774 287.181 379.836 287.564 379.959 287.887C380.086 288.207 380.267 288.455 380.504 288.631C380.744 288.804 381.039 288.891 381.388 288.891ZM388.918 286.163V290.6H386.79V280.367H388.858V284.279H388.948C389.121 283.826 389.401 283.472 389.787 283.215C390.174 282.955 390.658 282.825 391.241 282.825C391.774 282.825 392.239 282.942 392.635 283.175C393.035 283.405 393.345 283.736 393.565 284.169C393.788 284.599 393.898 285.114 393.895 285.713V290.6H391.766V286.093C391.769 285.62 391.649 285.252 391.406 284.989C391.166 284.726 390.83 284.594 390.397 284.594C390.107 284.594 389.851 284.656 389.628 284.779C389.408 284.902 389.235 285.082 389.108 285.319C388.985 285.552 388.921 285.833 388.918 286.163ZM399.652 282.925V284.524H395.03V282.925H399.652ZM396.079 281.087H398.208V288.242C398.208 288.438 398.238 288.591 398.298 288.701C398.358 288.808 398.441 288.883 398.548 288.926C398.657 288.969 398.784 288.991 398.927 288.991C399.027 288.991 399.127 288.983 399.227 288.966C399.327 288.946 399.404 288.931 399.457 288.921L399.792 290.505C399.685 290.538 399.535 290.577 399.342 290.62C399.149 290.666 398.914 290.695 398.637 290.705C398.124 290.725 397.675 290.656 397.288 290.5C396.905 290.343 396.607 290.1 396.394 289.77C396.181 289.441 396.076 289.024 396.079 288.521V281.087Z" fill="#374151"/>
<path opacity="0.6" d="M548.497 282.335V292.568H546.334V282.335H548.497ZM552.366 288.131V292.568H550.237V284.894H552.266V286.248H552.356C552.526 285.801 552.81 285.448 553.21 285.188C553.61 284.925 554.094 284.794 554.664 284.794C555.197 284.794 555.662 284.91 556.058 285.143C556.454 285.377 556.763 285.71 556.982 286.143C557.202 286.572 557.312 287.085 557.312 287.682V292.568H555.184V288.061C555.187 287.592 555.067 287.225 554.824 286.962C554.581 286.696 554.246 286.562 553.82 286.562C553.533 286.562 553.28 286.624 553.06 286.747C552.844 286.87 552.674 287.05 552.551 287.287C552.431 287.52 552.369 287.801 552.366 288.131ZM567.837 285.278C567.797 284.875 567.626 284.562 567.323 284.339C567.02 284.116 566.608 284.004 566.089 284.004C565.735 284.004 565.437 284.054 565.194 284.154C564.951 284.251 564.764 284.386 564.635 284.559C564.508 284.732 564.445 284.928 564.445 285.148C564.438 285.332 564.476 285.491 564.56 285.628C564.646 285.765 564.764 285.883 564.914 285.983C565.064 286.079 565.237 286.164 565.434 286.238C565.631 286.308 565.84 286.367 566.064 286.417L566.983 286.637C567.429 286.737 567.839 286.87 568.212 287.037C568.585 287.204 568.908 287.408 569.181 287.652C569.455 287.895 569.666 288.181 569.816 288.511C569.969 288.841 570.047 289.219 570.051 289.645C570.047 290.271 569.888 290.814 569.571 291.274C569.258 291.73 568.805 292.085 568.212 292.338C567.622 292.588 566.911 292.713 566.079 292.713C565.252 292.713 564.533 292.586 563.92 292.333C563.311 292.08 562.834 291.705 562.491 291.209C562.151 290.709 561.973 290.092 561.956 289.355H564.05C564.073 289.698 564.172 289.985 564.345 290.215C564.521 290.441 564.756 290.613 565.049 290.729C565.346 290.843 565.681 290.899 566.054 290.899C566.42 290.899 566.738 290.846 567.008 290.739C567.281 290.633 567.493 290.485 567.642 290.295C567.792 290.105 567.867 289.887 567.867 289.64C567.867 289.41 567.799 289.217 567.662 289.061C567.529 288.904 567.333 288.771 567.073 288.661C566.816 288.551 566.502 288.451 566.129 288.361L565.014 288.081C564.152 287.871 563.47 287.543 562.971 287.097C562.471 286.651 562.223 286.049 562.226 285.293C562.223 284.674 562.388 284.132 562.721 283.669C563.057 283.206 563.519 282.845 564.105 282.585C564.691 282.325 565.357 282.195 566.104 282.195C566.863 282.195 567.526 282.325 568.092 282.585C568.662 282.845 569.105 283.206 569.421 283.669C569.738 284.132 569.901 284.669 569.911 285.278H567.837ZM574.964 292.718C574.174 292.718 573.495 292.558 572.925 292.238C572.359 291.915 571.922 291.459 571.616 290.869C571.309 290.276 571.156 289.575 571.156 288.766C571.156 287.976 571.309 287.284 571.616 286.687C571.922 286.091 572.354 285.626 572.91 285.293C573.47 284.96 574.126 284.794 574.879 284.794C575.385 284.794 575.856 284.875 576.293 285.038C576.732 285.198 577.115 285.44 577.442 285.763C577.772 286.086 578.028 286.492 578.211 286.982C578.394 287.468 578.486 288.038 578.486 288.691V289.275H572.006V287.956H576.482C576.482 287.65 576.416 287.378 576.283 287.142C576.149 286.905 575.965 286.721 575.728 286.587C575.495 286.451 575.223 286.382 574.914 286.382C574.59 286.382 574.304 286.457 574.054 286.607C573.808 286.754 573.614 286.952 573.475 287.202C573.335 287.448 573.263 287.723 573.26 288.026V289.28C573.26 289.66 573.33 289.988 573.47 290.265C573.613 290.541 573.814 290.754 574.074 290.904C574.334 291.054 574.642 291.129 574.999 291.129C575.235 291.129 575.452 291.096 575.648 291.029C575.845 290.963 576.013 290.863 576.153 290.729C576.293 290.596 576.399 290.433 576.472 290.24L578.441 290.37C578.341 290.843 578.136 291.256 577.827 291.609C577.52 291.959 577.124 292.232 576.637 292.428C576.154 292.621 575.596 292.718 574.964 292.718ZM579.875 295.446V284.894H581.974V286.183H582.069C582.162 285.976 582.297 285.766 582.473 285.553C582.653 285.337 582.886 285.157 583.173 285.013C583.463 284.867 583.822 284.794 584.252 284.794C584.812 284.794 585.328 284.94 585.801 285.233C586.274 285.523 586.652 285.961 586.935 286.547C587.218 287.13 587.36 287.861 587.36 288.741C587.36 289.597 587.222 290.32 586.945 290.909C586.672 291.496 586.299 291.94 585.826 292.243C585.356 292.543 584.83 292.693 584.247 292.693C583.834 292.693 583.483 292.625 583.193 292.488C582.906 292.352 582.671 292.18 582.488 291.974C582.305 291.764 582.165 291.552 582.069 291.339H582.004V295.446H579.875ZM581.959 288.731C581.959 289.187 582.022 289.585 582.148 289.925C582.275 290.265 582.458 290.53 582.698 290.719C582.938 290.906 583.229 290.999 583.572 290.999C583.919 290.999 584.212 290.904 584.452 290.714C584.692 290.521 584.873 290.255 584.996 289.915C585.123 289.572 585.186 289.177 585.186 288.731C585.186 288.288 585.125 287.898 585.001 287.562C584.878 287.225 584.697 286.962 584.457 286.772C584.217 286.582 583.922 286.487 583.572 286.487C583.226 286.487 582.933 286.579 582.693 286.762C582.457 286.945 582.275 287.205 582.148 287.542C582.022 287.878 581.959 288.274 581.959 288.731ZM592.861 284.894V286.492H588.239V284.894H592.861ZM589.288 283.055H591.417V290.21C591.417 290.406 591.447 290.56 591.507 290.669C591.567 290.776 591.65 290.851 591.757 290.894C591.867 290.938 591.993 290.959 592.136 290.959C592.236 290.959 592.336 290.951 592.436 290.934C592.536 290.914 592.613 290.899 592.666 290.889L593.001 292.473C592.894 292.506 592.744 292.545 592.551 292.588C592.358 292.635 592.123 292.663 591.847 292.673C591.334 292.693 590.884 292.625 590.498 292.468C590.115 292.312 589.816 292.068 589.603 291.739C589.39 291.409 589.285 290.993 589.288 290.49V283.055Z" fill="#111827"/>
<path opacity="0.6" d="M518.755 316.988V306.755H525.53V308.539H520.918V310.978H525.08V312.761H520.918V316.988H518.755ZM529.849 317.138C529.073 317.138 528.402 316.973 527.836 316.644C527.273 316.31 526.838 315.847 526.532 315.255C526.225 314.658 526.072 313.967 526.072 313.181C526.072 312.388 526.225 311.695 526.532 311.102C526.838 310.506 527.273 310.043 527.836 309.713C528.402 309.38 529.073 309.214 529.849 309.214C530.625 309.214 531.295 309.38 531.858 309.713C532.424 310.043 532.861 310.506 533.167 311.102C533.473 311.695 533.627 312.388 533.627 313.181C533.627 313.967 533.473 314.658 533.167 315.255C532.861 315.847 532.424 316.31 531.858 316.644C531.295 316.973 530.625 317.138 529.849 317.138ZM529.859 315.489C530.212 315.489 530.507 315.389 530.744 315.19C530.98 314.986 531.158 314.71 531.278 314.36C531.402 314.01 531.463 313.612 531.463 313.166C531.463 312.72 531.402 312.322 531.278 311.972C531.158 311.622 530.98 311.346 530.744 311.142C530.507 310.939 530.212 310.838 529.859 310.838C529.503 310.838 529.203 310.939 528.96 311.142C528.72 311.346 528.539 311.622 528.415 311.972C528.295 312.322 528.235 312.72 528.235 313.166C528.235 313.612 528.295 314.01 528.415 314.36C528.539 314.71 528.72 314.986 528.96 315.19C529.203 315.389 529.503 315.489 529.859 315.489ZM535.011 316.988V309.314H537.074V310.653H537.154C537.294 310.176 537.529 309.817 537.859 309.574C538.188 309.327 538.568 309.204 538.998 309.204C539.104 309.204 539.219 309.21 539.343 309.224C539.466 309.237 539.574 309.255 539.667 309.279V311.167C539.567 311.137 539.429 311.111 539.253 311.087C539.076 311.064 538.915 311.052 538.768 311.052C538.455 311.052 538.175 311.121 537.929 311.257C537.685 311.391 537.492 311.577 537.349 311.817C537.209 312.057 537.139 312.333 537.139 312.646V316.988H535.011ZM543.908 317.138C543.119 317.138 542.439 316.978 541.87 316.659C541.303 316.335 540.867 315.879 540.561 315.289C540.254 314.697 540.101 313.995 540.101 313.186C540.101 312.397 540.254 311.704 540.561 311.107C540.867 310.511 541.298 310.047 541.855 309.713C542.414 309.38 543.07 309.214 543.823 309.214C544.33 309.214 544.801 309.295 545.237 309.459C545.677 309.618 546.06 309.86 546.386 310.183C546.716 310.506 546.973 310.913 547.156 311.402C547.339 311.889 547.431 312.458 547.431 313.111V313.696H540.95V312.377H545.427C545.427 312.07 545.36 311.799 545.227 311.562C545.094 311.326 544.909 311.141 544.673 311.007C544.439 310.871 544.168 310.803 543.858 310.803C543.535 310.803 543.249 310.878 542.999 311.027C542.752 311.174 542.559 311.372 542.419 311.622C542.279 311.869 542.208 312.143 542.204 312.446V313.701C542.204 314.08 542.274 314.408 542.414 314.685C542.557 314.961 542.759 315.175 543.019 315.324C543.279 315.474 543.587 315.549 543.943 315.549C544.18 315.549 544.396 315.516 544.593 315.449C544.789 315.383 544.957 315.283 545.097 315.15C545.237 315.016 545.344 314.853 545.417 314.66L547.386 314.79C547.286 315.263 547.081 315.676 546.771 316.029C546.465 316.379 546.068 316.652 545.582 316.848C545.099 317.042 544.541 317.138 543.908 317.138ZM552.287 317.138C551.501 317.138 550.825 316.972 550.259 316.639C549.696 316.302 549.263 315.836 548.96 315.24C548.66 314.643 548.51 313.957 548.51 313.181C548.51 312.395 548.661 311.705 548.965 311.112C549.271 310.516 549.706 310.051 550.269 309.718C550.832 309.382 551.501 309.214 552.277 309.214C552.947 309.214 553.533 309.335 554.036 309.578C554.539 309.822 554.937 310.163 555.23 310.603C555.523 311.042 555.685 311.559 555.715 312.152H553.706C553.65 311.769 553.5 311.461 553.257 311.227C553.017 310.991 552.702 310.873 552.312 310.873C551.982 310.873 551.694 310.963 551.448 311.142C551.205 311.319 551.015 311.577 550.878 311.917C550.742 312.257 550.673 312.668 550.673 313.151C550.673 313.641 550.74 314.057 550.873 314.4C551.01 314.743 551.201 315.005 551.448 315.185C551.694 315.364 551.982 315.454 552.312 315.454C552.555 315.454 552.774 315.404 552.967 315.304C553.163 315.205 553.325 315.06 553.451 314.87C553.581 314.677 553.666 314.445 553.706 314.175H555.715C555.682 314.762 555.522 315.278 555.235 315.724C554.952 316.167 554.561 316.514 554.061 316.763C553.561 317.013 552.97 317.138 552.287 317.138ZM559.266 317.133C558.776 317.133 558.34 317.048 557.957 316.878C557.574 316.705 557.271 316.45 557.048 316.114C556.828 315.774 556.718 315.351 556.718 314.845C556.718 314.418 556.796 314.06 556.953 313.771C557.109 313.481 557.322 313.248 557.592 313.071C557.862 312.894 558.169 312.761 558.512 312.671C558.858 312.581 559.221 312.518 559.601 312.481C560.047 312.435 560.407 312.392 560.68 312.352C560.953 312.308 561.151 312.245 561.275 312.162C561.398 312.078 561.46 311.955 561.46 311.792V311.762C561.46 311.446 561.36 311.201 561.16 311.027C560.963 310.854 560.683 310.768 560.32 310.768C559.937 310.768 559.632 310.853 559.406 311.022C559.179 311.189 559.03 311.399 558.956 311.652L556.988 311.492C557.088 311.026 557.284 310.623 557.577 310.283C557.87 309.94 558.248 309.677 558.711 309.494C559.178 309.307 559.717 309.214 560.33 309.214C560.757 309.214 561.165 309.264 561.554 309.364C561.948 309.464 562.296 309.618 562.599 309.828C562.905 310.038 563.147 310.308 563.323 310.638C563.5 310.964 563.588 311.356 563.588 311.812V316.988H561.569V315.924H561.509C561.386 316.164 561.221 316.375 561.015 316.559C560.808 316.738 560.56 316.88 560.27 316.983C559.981 317.083 559.646 317.133 559.266 317.133ZM559.876 315.664C560.189 315.664 560.465 315.603 560.705 315.479C560.945 315.353 561.133 315.183 561.27 314.97C561.406 314.757 561.475 314.515 561.475 314.245V313.431C561.408 313.474 561.316 313.514 561.2 313.551C561.086 313.584 560.958 313.616 560.815 313.646C560.672 313.672 560.529 313.697 560.385 313.721C560.242 313.741 560.112 313.759 559.996 313.776C559.746 313.812 559.528 313.87 559.341 313.95C559.154 314.03 559.01 314.139 558.906 314.275C558.803 314.408 558.751 314.575 558.751 314.775C558.751 315.065 558.856 315.286 559.066 315.439C559.279 315.589 559.549 315.664 559.876 315.664ZM571.625 311.502L569.676 311.622C569.643 311.456 569.571 311.306 569.461 311.172C569.351 311.036 569.207 310.928 569.027 310.848C568.85 310.764 568.639 310.723 568.392 310.723C568.062 310.723 567.784 310.793 567.558 310.933C567.331 311.069 567.218 311.252 567.218 311.482C567.218 311.665 567.291 311.82 567.438 311.947C567.584 312.073 567.836 312.175 568.192 312.252L569.581 312.531C570.327 312.685 570.884 312.931 571.25 313.271C571.617 313.611 571.8 314.057 571.8 314.61C571.8 315.113 571.652 315.554 571.355 315.934C571.062 316.314 570.659 316.61 570.146 316.823C569.636 317.033 569.048 317.138 568.382 317.138C567.366 317.138 566.557 316.927 565.954 316.504C565.354 316.077 565.003 315.498 564.9 314.765L566.993 314.655C567.056 314.965 567.21 315.201 567.453 315.364C567.696 315.524 568.007 315.604 568.387 315.604C568.76 315.604 569.06 315.533 569.287 315.389C569.516 315.243 569.633 315.055 569.636 314.825C569.633 314.632 569.551 314.473 569.391 314.35C569.232 314.224 568.985 314.127 568.652 314.06L567.323 313.796C566.573 313.646 566.015 313.386 565.649 313.016C565.286 312.646 565.104 312.175 565.104 311.602C565.104 311.109 565.238 310.684 565.504 310.328C565.774 309.972 566.152 309.697 566.638 309.504C567.128 309.31 567.701 309.214 568.357 309.214C569.326 309.214 570.089 309.419 570.646 309.828C571.205 310.238 571.532 310.796 571.625 311.502ZM577.222 309.314V310.913H572.6V309.314H577.222ZM573.65 307.475H575.778V314.63C575.778 314.826 575.808 314.98 575.868 315.09C575.928 315.196 576.011 315.271 576.118 315.314C576.228 315.358 576.354 315.379 576.498 315.379C576.598 315.379 576.698 315.371 576.797 315.354C576.897 315.334 576.974 315.319 577.027 315.309L577.362 316.893C577.255 316.927 577.106 316.965 576.912 317.008C576.719 317.055 576.484 317.083 576.208 317.093C575.695 317.113 575.245 317.045 574.859 316.888C574.476 316.732 574.178 316.489 573.964 316.159C573.751 315.829 573.646 315.413 573.65 314.91V307.475ZM583.754 306.755L586.227 314.53H586.322L588.8 306.755H591.199L587.671 316.988H584.883L581.351 306.755H583.754ZM593.727 317.133C593.237 317.133 592.801 317.048 592.418 316.878C592.035 316.705 591.732 316.45 591.508 316.114C591.289 315.774 591.179 315.351 591.179 314.845C591.179 314.418 591.257 314.06 591.413 313.771C591.57 313.481 591.783 313.248 592.053 313.071C592.323 312.894 592.629 312.761 592.972 312.671C593.319 312.581 593.682 312.518 594.062 312.481C594.508 312.435 594.868 312.392 595.141 312.352C595.414 312.308 595.612 312.245 595.735 312.162C595.859 312.078 595.92 311.955 595.92 311.792V311.762C595.92 311.446 595.82 311.201 595.62 311.027C595.424 310.854 595.144 310.768 594.781 310.768C594.398 310.768 594.093 310.853 593.867 311.022C593.64 311.189 593.49 311.399 593.417 311.652L591.448 311.492C591.548 311.026 591.745 310.623 592.038 310.283C592.331 309.94 592.709 309.677 593.172 309.494C593.639 309.307 594.178 309.214 594.791 309.214C595.217 309.214 595.625 309.264 596.015 309.364C596.408 309.464 596.756 309.618 597.059 309.828C597.366 310.038 597.607 310.308 597.784 310.638C597.96 310.964 598.049 311.356 598.049 311.812V316.988H596.03V315.924H595.97C595.847 316.164 595.682 316.375 595.476 316.559C595.269 316.738 595.021 316.88 594.731 316.983C594.441 317.083 594.107 317.133 593.727 317.133ZM594.336 315.664C594.649 315.664 594.926 315.603 595.166 315.479C595.406 315.353 595.594 315.183 595.73 314.97C595.867 314.757 595.935 314.515 595.935 314.245V313.431C595.869 313.474 595.777 313.514 595.66 313.551C595.547 313.584 595.419 313.616 595.276 313.646C595.132 313.672 594.989 313.697 594.846 313.721C594.703 313.741 594.573 313.759 594.456 313.776C594.206 313.812 593.988 313.87 593.802 313.95C593.615 314.03 593.47 314.139 593.367 314.275C593.264 314.408 593.212 314.575 593.212 314.775C593.212 315.065 593.317 315.286 593.527 315.439C593.74 315.589 594.01 315.664 594.336 315.664ZM603.168 317.138C602.382 317.138 601.705 316.972 601.139 316.639C600.576 316.302 600.143 315.836 599.84 315.24C599.54 314.643 599.39 313.957 599.39 313.181C599.39 312.395 599.542 311.705 599.845 311.112C600.151 310.516 600.586 310.051 601.149 309.718C601.712 309.382 602.382 309.214 603.158 309.214C603.827 309.214 604.413 309.335 604.916 309.578C605.419 309.822 605.817 310.163 606.111 310.603C606.404 311.042 606.565 311.559 606.595 312.152H604.587C604.53 311.769 604.38 311.461 604.137 311.227C603.897 310.991 603.582 310.873 603.193 310.873C602.863 310.873 602.575 310.963 602.328 311.142C602.085 311.319 601.895 311.577 601.759 311.917C601.622 312.257 601.554 312.668 601.554 313.151C601.554 313.641 601.62 314.057 601.754 314.4C601.89 314.743 602.082 315.005 602.328 315.185C602.575 315.364 602.863 315.454 603.193 315.454C603.436 315.454 603.654 315.404 603.847 315.304C604.044 315.205 604.205 315.06 604.332 314.87C604.462 314.677 604.547 314.445 604.587 314.175H606.595C606.562 314.762 606.402 315.278 606.116 315.724C605.832 316.167 605.441 316.514 604.941 316.763C604.442 317.013 603.851 317.138 603.168 317.138ZM610.146 317.133C609.657 317.133 609.22 317.048 608.837 316.878C608.454 316.705 608.151 316.45 607.928 316.114C607.708 315.774 607.598 315.351 607.598 314.845C607.598 314.418 607.677 314.06 607.833 313.771C607.99 313.481 608.203 313.248 608.473 313.071C608.742 312.894 609.049 312.761 609.392 312.671C609.738 312.581 610.102 312.518 610.481 312.481C610.928 312.435 611.287 312.392 611.56 312.352C611.834 312.308 612.032 312.245 612.155 312.162C612.278 312.078 612.34 311.955 612.34 311.792V311.762C612.34 311.446 612.24 311.201 612.04 311.027C611.844 310.854 611.564 310.768 611.201 310.768C610.818 310.768 610.513 310.853 610.286 311.022C610.06 311.189 609.91 311.399 609.837 311.652L607.868 311.492C607.968 311.026 608.165 310.623 608.458 310.283C608.751 309.94 609.129 309.677 609.592 309.494C610.058 309.307 610.598 309.214 611.211 309.214C611.637 309.214 612.045 309.264 612.435 309.364C612.828 309.464 613.176 309.618 613.479 309.828C613.786 310.038 614.027 310.308 614.204 310.638C614.38 310.964 614.468 311.356 614.468 311.812V316.988H612.45V315.924H612.39C612.267 316.164 612.102 316.375 611.895 316.559C611.689 316.738 611.441 316.88 611.151 316.983C610.861 317.083 610.526 317.133 610.146 317.133ZM610.756 315.664C611.069 315.664 611.346 315.603 611.585 315.479C611.825 315.353 612.014 315.183 612.15 314.97C612.287 314.757 612.355 314.515 612.355 314.245V313.431C612.288 313.474 612.197 313.514 612.08 313.551C611.967 313.584 611.839 313.616 611.695 313.646C611.552 313.672 611.409 313.697 611.266 313.721C611.122 313.741 610.993 313.759 610.876 313.776C610.626 313.812 610.408 313.87 610.221 313.95C610.035 314.03 609.89 314.139 609.787 314.275C609.683 314.408 609.632 314.575 609.632 314.775C609.632 315.065 609.737 315.286 609.947 315.439C610.16 315.589 610.43 315.664 610.756 315.664ZM618.248 312.551V316.988H616.12V309.314H618.148V310.668H618.238C618.408 310.221 618.693 309.868 619.093 309.608C619.492 309.345 619.977 309.214 620.547 309.214C621.08 309.214 621.544 309.33 621.941 309.564C622.337 309.797 622.645 310.13 622.865 310.563C623.085 310.993 623.195 311.505 623.195 312.102V316.988H621.066V312.481C621.07 312.012 620.95 311.645 620.707 311.382C620.463 311.116 620.129 310.983 619.702 310.983C619.416 310.983 619.163 311.044 618.943 311.167C618.726 311.291 618.556 311.471 618.433 311.707C618.313 311.94 618.252 312.222 618.248 312.551ZM628.34 317.138C627.554 317.138 626.878 316.972 626.311 316.639C625.748 316.302 625.315 315.836 625.012 315.24C624.712 314.643 624.563 313.957 624.563 313.181C624.563 312.395 624.714 311.705 625.017 311.112C625.324 310.516 625.758 310.051 626.321 309.718C626.884 309.382 627.554 309.214 628.33 309.214C628.999 309.214 629.586 309.335 630.089 309.578C630.592 309.822 630.99 310.163 631.283 310.603C631.576 311.042 631.738 311.559 631.768 312.152H629.759C629.702 311.769 629.552 311.461 629.309 311.227C629.069 310.991 628.755 310.873 628.365 310.873C628.035 310.873 627.747 310.963 627.501 311.142C627.257 311.319 627.067 311.577 626.931 311.917C626.794 312.257 626.726 312.668 626.726 313.151C626.726 313.641 626.793 314.057 626.926 314.4C627.062 314.743 627.254 315.005 627.501 315.185C627.747 315.364 628.035 315.454 628.365 315.454C628.608 315.454 628.826 315.404 629.019 315.304C629.216 315.205 629.378 315.06 629.504 314.87C629.634 314.677 629.719 314.445 629.759 314.175H631.768C631.734 314.762 631.574 315.278 631.288 315.724C631.005 316.167 630.613 316.514 630.114 316.763C629.614 317.013 629.023 317.138 628.34 317.138ZM634.444 319.866C634.175 319.866 633.921 319.845 633.685 319.801C633.452 319.761 633.259 319.71 633.105 319.646L633.585 318.058C633.835 318.134 634.06 318.176 634.26 318.182C634.463 318.189 634.638 318.142 634.784 318.043C634.934 317.943 635.056 317.773 635.149 317.533L635.274 317.208L632.521 309.314H634.759L636.348 314.95H636.428L638.032 309.314H640.285L637.302 317.818C637.159 318.231 636.964 318.59 636.718 318.897C636.475 319.207 636.167 319.445 635.793 319.611C635.42 319.781 634.971 319.866 634.444 319.866Z" fill="#374151"/>
<path d="M94.539 287.252C94.7776 288.509 95.5092 289.137 96.734 289.137C97.577 289.137 98.1735 288.763 98.5235 288.016C98.8734 287.268 99.0484 286.051 99.0484 284.365C98.6984 284.858 98.2212 285.24 97.6168 285.511C97.0124 285.781 96.3364 285.916 95.5888 285.916C94.5708 285.916 93.6641 285.709 92.8688 285.296C92.0735 284.866 91.4452 284.238 90.9839 283.411C90.5386 282.568 90.3159 281.55 90.3159 280.357C90.3159 279.18 90.5545 278.154 91.0317 277.279C91.5247 276.404 92.2167 275.728 93.1074 275.251C94.0141 274.774 95.0798 274.535 96.3045 274.535C98.6587 274.535 100.305 275.267 101.243 276.73C102.182 278.194 102.651 280.349 102.651 283.196C102.651 285.264 102.46 286.974 102.078 288.326C101.713 289.662 101.084 290.68 100.194 291.38C99.3188 292.08 98.1178 292.43 96.5909 292.43C95.382 292.43 94.3481 292.191 93.4892 291.714C92.6461 291.237 91.994 290.608 91.5327 289.829C91.0873 289.05 90.8328 288.191 90.7692 287.252H94.539ZM96.5193 282.695C97.1873 282.695 97.7202 282.496 98.1178 282.099C98.5155 281.685 98.7143 281.128 98.7143 280.429C98.7143 279.665 98.5075 279.077 98.094 278.663C97.6804 278.249 97.1237 278.043 96.4238 278.043C95.724 278.043 95.1673 278.257 94.7537 278.687C94.356 279.1 94.1572 279.673 94.1572 280.405C94.1572 281.089 94.356 281.645 94.7537 282.075C95.1673 282.488 95.7558 282.695 96.5193 282.695ZM104.923 289.256V285.964L112.463 275.179H117.02V285.725H118.976V289.256H117.02V292.358H112.94V289.256H104.923ZM113.226 279.665L109.218 285.725H113.226V279.665ZM120.641 279.331C120.641 278.043 121.007 277.048 121.738 276.349C122.486 275.649 123.448 275.299 124.625 275.299C125.802 275.299 126.757 275.649 127.488 276.349C128.22 277.048 128.586 278.043 128.586 279.331C128.586 280.619 128.22 281.614 127.488 282.313C126.757 283.013 125.802 283.363 124.625 283.363C123.448 283.363 122.486 283.013 121.738 282.313C121.007 281.614 120.641 280.619 120.641 279.331ZM136.841 275.561L127.655 292.358H123.719L132.904 275.561H136.841ZM124.601 277.685C123.838 277.685 123.456 278.233 123.456 279.331C123.456 280.413 123.838 280.953 124.601 280.953C124.967 280.953 125.254 280.818 125.46 280.548C125.667 280.277 125.771 279.872 125.771 279.331C125.771 278.233 125.381 277.685 124.601 277.685ZM131.998 288.588C131.998 287.3 132.364 286.306 133.095 285.606C133.827 284.906 134.781 284.556 135.958 284.556C137.135 284.556 138.09 284.906 138.822 285.606C139.553 286.306 139.919 287.3 139.919 288.588C139.919 289.877 139.553 290.871 138.822 291.571C138.09 292.271 137.135 292.621 135.958 292.621C134.781 292.621 133.827 292.271 133.095 291.571C132.364 290.871 131.998 289.877 131.998 288.588ZM135.935 286.942C135.569 286.942 135.282 287.077 135.076 287.348C134.885 287.618 134.789 288.032 134.789 288.588C134.789 289.67 135.171 290.211 135.935 290.211C136.3 290.211 136.587 290.076 136.793 289.805C137 289.535 137.104 289.129 137.104 288.588C137.104 288.048 137 287.642 136.793 287.372C136.587 287.085 136.3 286.942 135.935 286.942Z" fill="#111827"/>
<path d="M320.484 287.491C320.484 288.366 320.254 289.177 319.793 289.925C319.347 290.656 318.679 291.261 317.788 291.738C316.914 292.199 315.872 292.454 314.663 292.501V294.434H313.136V292.477C311.45 292.334 310.09 291.833 309.056 290.974C308.022 290.099 307.473 288.914 307.41 287.419H311.752C311.847 288.374 312.309 288.986 313.136 289.256V285.487C311.895 285.169 310.901 284.858 310.153 284.556C309.422 284.254 308.778 283.769 308.221 283.101C307.664 282.433 307.386 281.518 307.386 280.357C307.386 278.909 307.919 277.748 308.984 276.874C310.066 275.999 311.45 275.506 313.136 275.394V273.462H314.663V275.394C316.333 275.521 317.653 276.007 318.623 276.85C319.594 277.693 320.135 278.862 320.246 280.357H315.88C315.784 279.498 315.379 278.941 314.663 278.687V282.385C315.983 282.751 317.001 283.077 317.717 283.363C318.433 283.65 319.069 284.127 319.626 284.795C320.198 285.447 320.484 286.346 320.484 287.491ZM311.704 280.166C311.704 280.564 311.824 280.898 312.062 281.168C312.317 281.439 312.675 281.677 313.136 281.884V278.568C312.69 278.647 312.341 278.822 312.086 279.092C311.832 279.347 311.704 279.705 311.704 280.166ZM314.663 289.328C315.14 289.248 315.514 289.058 315.784 288.755C316.071 288.453 316.214 288.079 316.214 287.634C316.214 287.22 316.078 286.886 315.808 286.632C315.554 286.362 315.172 286.131 314.663 285.94V289.328ZM331.727 279.641C331.6 279.053 331.377 278.615 331.059 278.329C330.741 278.027 330.288 277.876 329.699 277.876C328.792 277.876 328.14 278.273 327.743 279.069C327.345 279.848 327.138 281.089 327.122 282.791C327.472 282.234 327.973 281.796 328.625 281.478C329.293 281.16 330.025 281.001 330.82 281.001C332.379 281.001 333.628 281.494 334.566 282.48C335.521 283.467 335.998 284.842 335.998 286.608C335.998 287.769 335.759 288.787 335.282 289.662C334.821 290.537 334.137 291.221 333.23 291.714C332.339 292.207 331.282 292.454 330.057 292.454C327.607 292.454 325.905 291.69 324.951 290.163C323.997 288.62 323.519 286.409 323.519 283.53C323.519 280.508 324.02 278.265 325.023 276.802C326.041 275.323 327.663 274.583 329.89 274.583C331.083 274.583 332.085 274.822 332.896 275.299C333.723 275.76 334.344 276.372 334.757 277.136C335.187 277.899 335.441 278.735 335.521 279.641H331.727ZM329.842 284.222C329.158 284.222 328.586 284.429 328.124 284.842C327.679 285.24 327.456 285.813 327.456 286.56C327.456 287.324 327.663 287.92 328.077 288.35C328.506 288.779 329.11 288.994 329.89 288.994C330.59 288.994 331.138 288.787 331.536 288.374C331.95 287.944 332.156 287.364 332.156 286.632C332.156 285.884 331.958 285.296 331.56 284.866C331.162 284.437 330.59 284.222 329.842 284.222ZM338.162 289.089C338.703 288.66 338.95 288.461 338.902 288.493C340.461 287.205 341.686 286.147 342.576 285.32C343.483 284.493 344.246 283.626 344.867 282.719C345.487 281.812 345.797 280.93 345.797 280.071C345.797 279.418 345.646 278.909 345.344 278.544C345.042 278.178 344.588 277.995 343.984 277.995C343.38 277.995 342.902 278.226 342.552 278.687C342.218 279.132 342.051 279.768 342.051 280.596H338.115C338.146 279.244 338.433 278.114 338.974 277.208C339.53 276.301 340.254 275.633 341.145 275.203C342.051 274.774 343.053 274.559 344.151 274.559C346.044 274.559 347.467 275.044 348.422 276.015C349.392 276.985 349.877 278.249 349.877 279.808C349.877 281.51 349.297 283.093 348.135 284.556C346.974 286.004 345.495 287.419 343.698 288.803H350.14V292.12H338.162V289.089Z" fill="#111827"/>
<path d="M518.509 278.735V274.941H525.118V292.358H520.871V278.735H518.509ZM527.766 289.089C528.307 288.66 528.554 288.461 528.506 288.493C530.065 287.205 531.289 286.147 532.18 285.32C533.087 284.493 533.85 283.626 534.471 282.719C535.091 281.812 535.401 280.93 535.401 280.071C535.401 279.418 535.25 278.909 534.948 278.544C534.646 278.178 534.192 277.995 533.588 277.995C532.983 277.995 532.506 278.226 532.156 278.687C531.822 279.132 531.655 279.768 531.655 280.596H527.719C527.75 279.244 528.037 278.114 528.577 277.208C529.134 276.301 529.858 275.633 530.749 275.203C531.655 274.774 532.657 274.559 533.755 274.559C535.648 274.559 537.071 275.044 538.026 276.015C538.996 276.985 539.481 278.249 539.481 279.808C539.481 281.51 538.901 283.093 537.739 284.556C536.578 286.004 535.099 287.419 533.302 288.803H539.744V292.12H527.766V289.089Z" fill="#111827"/>
<path d="M63.2878 148.281V144.487H69.8968V161.904H65.6498V148.281H63.2878ZM72.5446 158.636C73.0854 158.206 73.3319 158.007 73.2842 158.039C74.843 156.751 76.0678 155.693 76.9585 154.866C77.8652 154.039 78.6287 153.172 79.249 152.265C79.8694 151.359 80.1795 150.476 80.1795 149.617C80.1795 148.965 80.0284 148.456 79.7262 148.09C79.424 147.724 78.9707 147.541 78.3662 147.541C77.7618 147.541 77.2846 147.772 76.9347 148.233C76.6007 148.678 76.4336 149.315 76.4336 150.142H72.4969C72.5287 148.79 72.815 147.66 73.3558 146.754C73.9125 145.847 74.6362 145.179 75.527 144.75C76.4336 144.32 77.4357 144.105 78.5333 144.105C80.4261 144.105 81.8497 144.59 82.8041 145.561C83.7743 146.531 84.2595 147.796 84.2595 149.354C84.2595 151.056 83.6789 152.639 82.5177 154.102C81.3566 155.55 79.8773 156.965 78.0799 158.349H84.5219V161.666H72.5446V158.636ZM96.9833 151.836V155.224H86.4853V151.836H96.9833ZM117.552 148.448C119.206 148.448 120.518 148.949 121.489 149.951C122.475 150.953 122.968 152.345 122.968 154.126V161.904H118.912V154.675C118.912 153.816 118.681 153.156 118.22 152.695C117.775 152.217 117.154 151.979 116.359 151.979C115.564 151.979 114.935 152.217 114.474 152.695C114.029 153.156 113.806 153.816 113.806 154.675V161.904H109.75V154.675C109.75 153.816 109.519 153.156 109.058 152.695C108.613 152.217 107.992 151.979 107.197 151.979C106.402 151.979 105.773 152.217 105.312 152.695C104.867 153.156 104.644 153.816 104.644 154.675V161.904H100.564V148.591H104.644V150.261C105.058 149.704 105.598 149.267 106.266 148.949C106.935 148.615 107.69 148.448 108.533 148.448C109.535 148.448 110.426 148.662 111.205 149.092C112.001 149.521 112.621 150.134 113.066 150.929C113.528 150.197 114.156 149.601 114.951 149.14C115.747 148.678 116.613 148.448 117.552 148.448ZM131.882 162.095C130.577 162.095 129.4 161.817 128.35 161.26C127.317 160.703 126.497 159.908 125.893 158.874C125.304 157.84 125.01 156.631 125.01 155.248C125.01 153.88 125.312 152.679 125.917 151.645C126.521 150.595 127.348 149.792 128.398 149.235C129.448 148.678 130.625 148.4 131.929 148.4C133.234 148.4 134.411 148.678 135.46 149.235C136.51 149.792 137.337 150.595 137.942 151.645C138.546 152.679 138.848 153.88 138.848 155.248C138.848 156.615 138.538 157.824 137.918 158.874C137.314 159.908 136.478 160.703 135.413 161.26C134.363 161.817 133.186 162.095 131.882 162.095ZM131.882 158.564C132.661 158.564 133.321 158.278 133.862 157.705C134.419 157.132 134.697 156.313 134.697 155.248C134.697 154.182 134.427 153.363 133.886 152.79C133.361 152.217 132.709 151.931 131.929 151.931C131.134 151.931 130.474 152.217 129.949 152.79C129.424 153.347 129.162 154.166 129.162 155.248C129.162 156.313 129.416 157.132 129.925 157.705C130.45 158.278 131.102 158.564 131.882 158.564ZM149.125 148.448C150.684 148.448 151.925 148.957 152.847 149.975C153.786 150.977 154.255 152.361 154.255 154.126V161.904H150.199V154.675C150.199 153.784 149.968 153.092 149.507 152.599C149.046 152.106 148.425 151.86 147.646 151.86C146.866 151.86 146.246 152.106 145.785 152.599C145.324 153.092 145.093 153.784 145.093 154.675V161.904H141.013V148.591H145.093V150.356C145.506 149.768 146.063 149.307 146.763 148.973C147.463 148.623 148.25 148.448 149.125 148.448ZM164.51 158.445V161.904H162.434C160.955 161.904 159.802 161.546 158.975 160.831C158.148 160.099 157.734 158.914 157.734 157.276V151.979H156.112V148.591H157.734V145.346H161.814V148.591H164.486V151.979H161.814V157.323C161.814 157.721 161.91 158.007 162.1 158.182C162.291 158.357 162.609 158.445 163.055 158.445H164.51ZM174.967 148.448C176.494 148.448 177.718 148.957 178.641 149.975C179.563 150.977 180.025 152.361 180.025 154.126V161.904H175.969V154.675C175.969 153.784 175.738 153.092 175.277 152.599C174.815 152.106 174.195 151.86 173.416 151.86C172.636 151.86 172.016 152.106 171.555 152.599C171.093 153.092 170.863 153.784 170.863 154.675V161.904H166.783V144.248H170.863V150.38C171.276 149.792 171.841 149.323 172.557 148.973C173.273 148.623 174.076 148.448 174.967 148.448ZM191.996 150.476C192.394 149.855 192.942 149.354 193.642 148.973C194.342 148.591 195.161 148.4 196.1 148.4C197.197 148.4 198.191 148.678 199.082 149.235C199.973 149.792 200.673 150.587 201.182 151.621C201.707 152.655 201.969 153.856 201.969 155.224C201.969 156.592 201.707 157.801 201.182 158.85C200.673 159.884 199.973 160.687 199.082 161.26C198.191 161.817 197.197 162.095 196.1 162.095C195.177 162.095 194.358 161.904 193.642 161.523C192.942 161.141 192.394 160.648 191.996 160.043V168.251H187.916V148.591H191.996V150.476ZM197.818 155.224C197.818 154.206 197.531 153.41 196.959 152.838C196.402 152.249 195.71 151.955 194.883 151.955C194.072 151.955 193.38 152.249 192.807 152.838C192.25 153.426 191.972 154.23 191.972 155.248C191.972 156.266 192.25 157.069 192.807 157.657C193.38 158.246 194.072 158.54 194.883 158.54C195.694 158.54 196.386 158.246 196.959 157.657C197.531 157.053 197.818 156.242 197.818 155.224ZM208.189 150.81C208.667 150.078 209.263 149.505 209.979 149.092C210.695 148.662 211.49 148.448 212.365 148.448V152.766H211.243C210.225 152.766 209.462 152.989 208.953 153.434C208.444 153.864 208.189 154.627 208.189 155.725V161.904H204.109V148.591H208.189V150.81ZM220.375 162.095C219.071 162.095 217.894 161.817 216.844 161.26C215.81 160.703 214.991 159.908 214.386 158.874C213.798 157.84 213.504 156.631 213.504 155.248C213.504 153.88 213.806 152.679 214.41 151.645C215.015 150.595 215.842 149.792 216.892 149.235C217.941 148.678 219.119 148.4 220.423 148.4C221.727 148.4 222.904 148.678 223.954 149.235C225.004 149.792 225.831 150.595 226.435 151.645C227.04 152.679 227.342 153.88 227.342 155.248C227.342 156.615 227.032 157.824 226.412 158.874C225.807 159.908 224.972 160.703 223.906 161.26C222.856 161.817 221.679 162.095 220.375 162.095ZM220.375 158.564C221.155 158.564 221.815 158.278 222.355 157.705C222.912 157.132 223.191 156.313 223.191 155.248C223.191 154.182 222.92 153.363 222.379 152.79C221.854 152.217 221.202 151.931 220.423 151.931C219.628 151.931 218.967 152.217 218.443 152.79C217.918 153.347 217.655 154.166 217.655 155.248C217.655 156.313 217.91 157.132 218.419 157.705C218.944 158.278 219.596 158.564 220.375 158.564ZM231.535 147.207C230.819 147.207 230.23 147 229.769 146.587C229.324 146.157 229.101 145.632 229.101 145.012C229.101 144.376 229.324 143.851 229.769 143.437C230.23 143.008 230.819 142.793 231.535 142.793C232.234 142.793 232.807 143.008 233.252 143.437C233.714 143.851 233.944 144.376 233.944 145.012C233.944 145.632 233.714 146.157 233.252 146.587C232.807 147 232.234 147.207 231.535 147.207ZM233.586 163.622C233.586 165.26 233.173 166.438 232.346 167.153C231.519 167.885 230.365 168.251 228.886 168.251H227.288V164.791H228.266C228.711 164.791 229.029 164.704 229.22 164.529C229.411 164.354 229.507 164.068 229.507 163.67V148.591H233.586V163.622ZM249.07 155.033C249.07 155.415 249.046 155.812 248.998 156.226H239.765C239.828 157.053 240.091 157.689 240.552 158.135C241.029 158.564 241.61 158.779 242.294 158.779C243.312 158.779 244.02 158.349 244.417 157.49H248.76C248.537 158.365 248.131 159.153 247.543 159.852C246.97 160.552 246.246 161.101 245.372 161.499C244.497 161.896 243.519 162.095 242.437 162.095C241.133 162.095 239.971 161.817 238.953 161.26C237.935 160.703 237.14 159.908 236.568 158.874C235.995 157.84 235.709 156.631 235.709 155.248C235.709 153.864 235.987 152.655 236.544 151.621C237.116 150.587 237.912 149.792 238.93 149.235C239.948 148.678 241.117 148.4 242.437 148.4C243.725 148.4 244.871 148.67 245.873 149.211C246.875 149.752 247.654 150.523 248.211 151.526C248.783 152.528 249.07 153.697 249.07 155.033ZM244.894 153.959C244.894 153.259 244.656 152.703 244.179 152.289C243.701 151.875 243.105 151.669 242.389 151.669C241.705 151.669 241.125 151.868 240.647 152.265C240.186 152.663 239.9 153.227 239.789 153.959H244.894ZM250.411 155.248C250.411 153.864 250.689 152.655 251.246 151.621C251.819 150.587 252.606 149.792 253.608 149.235C254.626 148.678 255.787 148.4 257.092 148.4C258.762 148.4 260.153 148.837 261.267 149.712C262.396 150.587 263.136 151.82 263.486 153.41H259.143C258.778 152.392 258.07 151.883 257.02 151.883C256.272 151.883 255.676 152.178 255.23 152.766C254.785 153.339 254.562 154.166 254.562 155.248C254.562 156.329 254.785 157.164 255.23 157.753C255.676 158.325 256.272 158.612 257.02 158.612C258.07 158.612 258.778 158.103 259.143 157.085H263.486C263.136 158.644 262.396 159.868 261.267 160.759C260.138 161.65 258.746 162.095 257.092 162.095C255.787 162.095 254.626 161.817 253.608 161.26C252.606 160.703 251.819 159.908 251.246 158.874C250.689 157.84 250.411 156.631 250.411 155.248ZM273.088 158.445V161.904H271.013C269.533 161.904 268.38 161.546 267.553 160.831C266.726 160.099 266.312 158.914 266.312 157.276V151.979H264.69V148.591H266.312V145.346H270.392V148.591H273.065V151.979H270.392V157.323C270.392 157.721 270.488 158.007 270.679 158.182C270.869 158.357 271.188 158.445 271.633 158.445H273.088ZM277.413 147.207C276.697 147.207 276.109 147 275.647 146.587C275.202 146.157 274.979 145.632 274.979 145.012C274.979 144.376 275.202 143.851 275.647 143.437C276.109 143.008 276.697 142.793 277.413 142.793C278.113 142.793 278.685 143.008 279.131 143.437C279.592 143.851 279.823 144.376 279.823 145.012C279.823 145.632 279.592 146.157 279.131 146.587C278.685 147 278.113 147.207 277.413 147.207ZM279.441 148.591V161.904H275.361V148.591H279.441ZM288.458 162.095C287.154 162.095 285.976 161.817 284.927 161.26C283.893 160.703 283.074 159.908 282.469 158.874C281.881 157.84 281.586 156.631 281.586 155.248C281.586 153.88 281.889 152.679 282.493 151.645C283.097 150.595 283.925 149.792 284.974 149.235C286.024 148.678 287.201 148.4 288.506 148.4C289.81 148.4 290.987 148.678 292.037 149.235C293.087 149.792 293.914 150.595 294.518 151.645C295.123 152.679 295.425 153.88 295.425 155.248C295.425 156.615 295.115 157.824 294.494 158.874C293.89 159.908 293.055 160.703 291.989 161.26C290.939 161.817 289.762 162.095 288.458 162.095ZM288.458 158.564C289.237 158.564 289.897 158.278 290.438 157.705C290.995 157.132 291.273 156.313 291.273 155.248C291.273 154.182 291.003 153.363 290.462 152.79C289.937 152.217 289.285 151.931 288.506 151.931C287.71 151.931 287.05 152.217 286.525 152.79C286 153.347 285.738 154.166 285.738 155.248C285.738 156.313 285.992 157.132 286.501 157.705C287.026 158.278 287.678 158.564 288.458 158.564ZM305.701 148.448C307.26 148.448 308.501 148.957 309.423 149.975C310.362 150.977 310.831 152.361 310.831 154.126V161.904H306.775V154.675C306.775 153.784 306.544 153.092 306.083 152.599C305.622 152.106 305.001 151.86 304.222 151.86C303.443 151.86 302.822 152.106 302.361 152.599C301.9 153.092 301.669 153.784 301.669 154.675V161.904H297.589V148.591H301.669V150.356C302.083 149.768 302.639 149.307 303.339 148.973C304.039 148.623 304.827 148.448 305.701 148.448Z" fill="#111827"/>
<path d="M79.9814 427.889H682.675" stroke="#F3F4F6" stroke-width="0.978399"/>
<path d="M79.9814 467.025H682.675" stroke="#F3F4F6" stroke-width="0.978399"/>
<path d="M79.9814 506.161H682.675" stroke="#F3F4F6" stroke-width="0.978399"/>
<path d="M79.9814 545.297H682.675" stroke="#F3F4F6" stroke-width="0.978399"/>
<path d="M79.9814 584.433H682.675" stroke="#E5E7EB" stroke-width="0.978399"/>
<path d="M79.9814 459.198L130.858 470.939L181.735 451.371L232.612 443.544L283.488 457.241L334.365 447.457L381.328 435.717V584.433H79.9814V459.198Z" fill="url(#paint0_linear_770_5620)"/>
<path d="M79.9814 459.198L130.858 470.939L181.735 451.371L232.612 443.544L283.488 457.241L334.365 447.457L381.328 435.717" stroke="#7E3CEF" stroke-width="2.446" stroke-linecap="round" stroke-linejoin="round"/>
<path d="M79.981 462.622C81.8723 462.622 83.4054 461.089 83.4054 459.198C83.4054 457.307 81.8723 455.774 79.981 455.774C78.0898 455.774 76.5566 457.307 76.5566 459.198C76.5566 461.089 78.0898 462.622 79.981 462.622Z" fill="#7E3CEF"/>
<path d="M130.858 474.363C132.749 474.363 134.282 472.83 134.282 470.939C134.282 469.048 132.749 467.514 130.858 467.514C128.967 467.514 127.434 469.048 127.434 470.939C127.434 472.83 128.967 474.363 130.858 474.363Z" fill="#7E3CEF"/>
<path d="M181.735 454.795C183.626 454.795 185.159 453.262 185.159 451.371C185.159 449.48 183.626 447.947 181.735 447.947C179.844 447.947 178.311 449.48 178.311 451.371C178.311 453.262 179.844 454.795 181.735 454.795Z" fill="#7E3CEF"/>
<path d="M232.612 446.968C234.503 446.968 236.036 445.435 236.036 443.544C236.036 441.653 234.503 440.119 232.612 440.119C230.721 440.119 229.188 441.653 229.188 443.544C229.188 445.435 230.721 446.968 232.612 446.968Z" fill="#7E3CEF"/>
<path d="M283.488 460.666C285.379 460.666 286.912 459.133 286.912 457.241C286.912 455.35 285.379 453.817 283.488 453.817C281.597 453.817 280.063 455.35 280.063 457.241C280.063 459.133 281.597 460.666 283.488 460.666Z" fill="#7E3CEF"/>
<path d="M334.366 450.882C336.257 450.882 337.79 449.349 337.79 447.457C337.79 445.566 336.257 444.033 334.366 444.033C332.475 444.033 330.941 445.566 330.941 447.457C330.941 449.349 332.475 450.882 334.366 450.882Z" fill="#7E3CEF"/>
<path d="M381.329 440.119C383.76 440.119 385.731 438.148 385.731 435.717C385.731 433.285 383.76 431.314 381.329 431.314C378.897 431.314 376.926 433.285 376.926 435.717C376.926 438.148 378.897 440.119 381.329 440.119Z" fill="#7E3CEF"/>
<path opacity="0.25" d="M381.327 442.565C385.11 442.565 388.176 439.499 388.176 435.716C388.176 431.934 385.11 428.868 381.327 428.868C377.545 428.868 374.479 431.934 374.479 435.716C374.479 439.499 377.545 442.565 381.327 442.565Z" fill="#7E3CEF"/>
<path d="M381.328 435.717L432.205 463.112L483.082 521.816L533.958 498.334L584.835 478.766L631.798 461.155L682.675 451.371V584.433H381.328V435.717Z" fill="url(#paint1_linear_770_5620)"/>
<path opacity="0.85" d="M381.328 435.717L432.205 463.112L483.082 521.816L533.958 498.334L584.835 478.766L631.798 461.155L682.675 451.371" stroke="#9B5CFF" stroke-width="2.446" stroke-linecap="round" stroke-linejoin="round" stroke-dasharray="5.87 3.91"/>
<path d="M432.205 466.536C434.096 466.536 435.629 465.003 435.629 463.112C435.629 461.22 434.096 459.687 432.205 459.687C430.313 459.687 428.78 461.22 428.78 463.112C428.78 465.003 430.313 466.536 432.205 466.536Z" fill="white" stroke="#9B5CFF" stroke-width="1.9568"/>
<path d="M483.082 526.218C485.513 526.218 487.484 524.247 487.484 521.816C487.484 519.384 485.513 517.413 483.082 517.413C480.65 517.413 478.679 519.384 478.679 521.816C478.679 524.247 480.65 526.218 483.082 526.218Z" fill="white" stroke="#9B5CFF" stroke-width="1.9568"/>
<path d="M533.958 501.758C535.849 501.758 537.382 500.225 537.382 498.334C537.382 496.443 535.849 494.91 533.958 494.91C532.066 494.91 530.533 496.443 530.533 498.334C530.533 500.225 532.066 501.758 533.958 501.758Z" fill="white" stroke="#9B5CFF" stroke-width="1.9568"/>
<path d="M584.836 482.191C586.727 482.191 588.26 480.657 588.26 478.766C588.26 476.875 586.727 475.342 584.836 475.342C582.944 475.342 581.411 476.875 581.411 478.766C581.411 480.657 582.944 482.191 584.836 482.191Z" fill="white" stroke="#9B5CFF" stroke-width="1.9568"/>
<path d="M631.798 464.579C633.69 464.579 635.223 463.046 635.223 461.155C635.223 459.264 633.69 457.73 631.798 457.73C629.907 457.73 628.374 459.264 628.374 461.155C628.374 463.046 629.907 464.579 631.798 464.579Z" fill="white" stroke="#9B5CFF" stroke-width="1.9568"/>
<path d="M682.675 454.795C684.567 454.795 686.1 453.262 686.1 451.371C686.1 449.48 684.567 447.947 682.675 447.947C680.784 447.947 679.251 449.48 679.251 451.371C679.251 453.262 680.784 454.795 682.675 454.795Z" fill="white" stroke="#9B5CFF" stroke-width="1.9568"/>
<path opacity="0.5" d="M381.328 416.148V584.433" stroke="#374151" stroke-width="1.4676" stroke-dasharray="2.94 2.94"/>
<path d="M538.85 537.47H427.313C420.288 537.47 414.594 543.165 414.594 550.189C414.594 557.214 420.288 562.908 427.313 562.908H538.85C545.875 562.908 551.57 557.214 551.57 550.189C551.57 543.165 545.875 537.47 538.85 537.47Z" fill="#7E3CEF"/>
<path d="M440.769 547.203V554.319H439.265V548.631H439.223L437.594 549.653V548.318L439.355 547.203H440.769ZM442.46 554.319V553.235L444.993 550.889C445.209 550.681 445.389 550.493 445.535 550.327C445.683 550.16 445.796 549.997 445.872 549.837C445.949 549.675 445.987 549.5 445.987 549.312C445.987 549.104 445.939 548.924 445.844 548.774C445.749 548.621 445.62 548.504 445.455 548.423C445.291 548.339 445.104 548.298 444.896 548.298C444.678 548.298 444.488 548.342 444.326 548.43C444.164 548.518 444.039 548.644 443.951 548.808C443.863 548.973 443.819 549.168 443.819 549.395H442.391C442.391 548.93 442.496 548.526 442.707 548.183C442.918 547.84 443.213 547.575 443.593 547.387C443.973 547.2 444.411 547.106 444.906 547.106C445.416 547.106 445.859 547.196 446.237 547.377C446.617 547.555 446.912 547.803 447.123 548.12C447.334 548.438 447.439 548.801 447.439 549.211C447.439 549.48 447.386 549.745 447.279 550.007C447.175 550.269 446.989 550.559 446.72 550.879C446.451 551.196 446.073 551.577 445.584 552.022L444.545 553.04V553.089H447.533V554.319H442.46ZM455.877 548.982L454.011 554.319H452.343L450.478 548.982H452.041L453.149 552.8H453.205L454.31 548.982H455.877ZM458.013 554.419C457.672 554.419 457.369 554.36 457.102 554.242C456.836 554.122 456.625 553.945 456.47 553.711C456.317 553.474 456.241 553.18 456.241 552.828C456.241 552.532 456.295 552.283 456.404 552.081C456.513 551.88 456.661 551.718 456.849 551.595C457.036 551.472 457.25 551.379 457.488 551.317C457.729 551.254 457.981 551.21 458.246 551.185C458.556 551.152 458.806 551.122 458.996 551.094C459.186 551.064 459.324 551.02 459.409 550.962C459.495 550.905 459.538 550.819 459.538 550.705V550.684C459.538 550.464 459.469 550.294 459.33 550.174C459.193 550.053 458.998 549.993 458.746 549.993C458.479 549.993 458.268 550.052 458.11 550.17C457.953 550.286 457.848 550.432 457.797 550.608L456.428 550.497C456.498 550.173 456.635 549.892 456.838 549.656C457.042 549.417 457.305 549.234 457.627 549.107C457.951 548.977 458.327 548.913 458.753 548.913C459.049 548.913 459.333 548.947 459.604 549.017C459.877 549.086 460.119 549.194 460.33 549.34C460.543 549.486 460.711 549.673 460.834 549.903C460.957 550.13 461.018 550.402 461.018 550.719V554.319H459.614V553.579H459.573C459.487 553.745 459.372 553.893 459.229 554.02C459.085 554.145 458.913 554.243 458.711 554.315C458.51 554.385 458.277 554.419 458.013 554.419ZM458.437 553.398C458.654 553.398 458.847 553.355 459.013 553.269C459.18 553.181 459.311 553.063 459.406 552.915C459.501 552.767 459.548 552.599 459.548 552.411V551.845C459.502 551.875 459.438 551.903 459.357 551.928C459.279 551.951 459.189 551.973 459.09 551.994C458.99 552.013 458.891 552.03 458.791 552.046C458.691 552.06 458.601 552.073 458.52 552.085C458.346 552.11 458.195 552.151 458.065 552.206C457.935 552.262 457.834 552.337 457.763 552.432C457.691 552.525 457.655 552.641 457.655 552.78C457.655 552.981 457.728 553.135 457.874 553.242C458.022 553.346 458.21 553.398 458.437 553.398ZM464.578 554.423C464.031 554.423 463.561 554.307 463.167 554.076C462.776 553.842 462.474 553.517 462.264 553.103C462.055 552.688 461.951 552.211 461.951 551.671C461.951 551.125 462.056 550.645 462.267 550.233C462.48 549.818 462.783 549.495 463.174 549.263C463.565 549.029 464.031 548.913 464.571 548.913C465.036 548.913 465.444 548.997 465.794 549.166C466.143 549.335 466.42 549.573 466.624 549.878C466.828 550.184 466.94 550.543 466.961 550.955H465.564C465.525 550.689 465.421 550.475 465.252 550.313C465.085 550.148 464.866 550.066 464.595 550.066C464.366 550.066 464.165 550.129 463.994 550.254C463.825 550.376 463.693 550.556 463.598 550.792C463.503 551.028 463.455 551.315 463.455 551.65C463.455 551.991 463.502 552.28 463.594 552.519C463.689 552.758 463.823 552.939 463.994 553.064C464.165 553.19 464.366 553.252 464.595 553.252C464.764 553.252 464.916 553.217 465.05 553.148C465.187 553.078 465.299 552.978 465.387 552.846C465.478 552.711 465.537 552.55 465.564 552.363H466.961C466.938 552.77 466.827 553.129 466.628 553.44C466.431 553.748 466.159 553.989 465.811 554.162C465.464 554.336 465.052 554.423 464.578 554.423ZM469.431 554.419C469.09 554.419 468.787 554.36 468.52 554.242C468.254 554.122 468.043 553.945 467.888 553.711C467.735 553.474 467.659 553.18 467.659 552.828C467.659 552.532 467.713 552.283 467.822 552.081C467.931 551.88 468.079 551.718 468.267 551.595C468.454 551.472 468.667 551.379 468.906 551.317C469.147 551.254 469.399 551.21 469.663 551.185C469.974 551.152 470.224 551.122 470.414 551.094C470.604 551.064 470.742 551.02 470.827 550.962C470.913 550.905 470.956 550.819 470.956 550.705V550.684C470.956 550.464 470.886 550.294 470.747 550.174C470.611 550.053 470.416 549.993 470.164 549.993C469.897 549.993 469.685 550.052 469.528 550.17C469.37 550.286 469.266 550.432 469.215 550.608L467.846 550.497C467.916 550.173 468.052 549.892 468.256 549.656C468.46 549.417 468.723 549.234 469.045 549.107C469.369 548.977 469.744 548.913 470.171 548.913C470.467 548.913 470.751 548.947 471.022 549.017C471.295 549.086 471.537 549.194 471.748 549.34C471.961 549.486 472.129 549.673 472.252 549.903C472.375 550.13 472.436 550.402 472.436 550.719V554.319H471.032V553.579H470.991C470.905 553.745 470.79 553.893 470.647 554.02C470.503 554.145 470.33 554.243 470.129 554.315C469.927 554.385 469.695 554.419 469.431 554.419ZM469.854 553.398C470.072 553.398 470.264 553.355 470.431 553.269C470.598 553.181 470.729 553.063 470.824 552.915C470.919 552.767 470.966 552.599 470.966 552.411V551.845C470.92 551.875 470.856 551.903 470.775 551.928C470.696 551.951 470.607 551.973 470.508 551.994C470.408 552.013 470.308 552.03 470.209 552.046C470.109 552.06 470.019 552.073 469.938 552.085C469.764 552.11 469.612 552.151 469.483 552.206C469.353 552.262 469.252 552.337 469.18 552.432C469.109 552.525 469.073 552.641 469.073 552.78C469.073 552.981 469.146 553.135 469.292 553.242C469.44 553.346 469.627 553.398 469.854 553.398ZM475.064 551.233V554.319H473.584V548.982H474.995V549.924H475.057C475.176 549.613 475.374 549.368 475.652 549.187C475.929 549.004 476.267 548.913 476.663 548.913C477.033 548.913 477.356 548.994 477.632 549.156C477.908 549.318 478.122 549.549 478.275 549.851C478.428 550.149 478.504 550.506 478.504 550.921V554.319H477.024V551.185C477.026 550.858 476.943 550.603 476.774 550.42C476.605 550.235 476.372 550.142 476.075 550.142C475.876 550.142 475.7 550.185 475.547 550.271C475.397 550.357 475.279 550.482 475.193 550.646C475.11 550.808 475.067 551.004 475.064 551.233ZM482.082 554.423C481.535 554.423 481.065 554.307 480.671 554.076C480.28 553.842 479.979 553.517 479.768 553.103C479.559 552.688 479.455 552.211 479.455 551.671C479.455 551.125 479.561 550.645 479.771 550.233C479.984 549.818 480.287 549.495 480.678 549.263C481.07 549.029 481.535 548.913 482.075 548.913C482.54 548.913 482.948 548.997 483.298 549.166C483.648 549.335 483.924 549.573 484.128 549.878C484.332 550.184 484.444 550.543 484.465 550.955H483.069C483.029 550.689 482.925 550.475 482.756 550.313C482.589 550.148 482.37 550.066 482.099 550.066C481.87 550.066 481.67 550.129 481.498 550.254C481.329 550.376 481.197 550.556 481.102 550.792C481.007 551.028 480.96 551.315 480.96 551.65C480.96 551.991 481.006 552.28 481.099 552.519C481.194 552.758 481.327 552.939 481.498 553.064C481.67 553.19 481.87 553.252 482.099 553.252C482.268 553.252 482.42 553.217 482.554 553.148C482.691 553.078 482.803 552.978 482.891 552.846C482.982 552.711 483.041 552.55 483.069 552.363H484.465C484.442 552.77 484.331 553.129 484.132 553.44C483.935 553.748 483.663 553.989 483.315 554.162C482.968 554.336 482.557 554.423 482.082 554.423ZM485.413 554.319V548.982H486.893V554.319H485.413ZM486.156 548.294C485.936 548.294 485.748 548.221 485.59 548.075C485.435 547.927 485.357 547.75 485.357 547.544C485.357 547.34 485.435 547.165 485.59 547.019C485.748 546.871 485.936 546.797 486.156 546.797C486.377 546.797 486.564 546.871 486.719 547.019C486.877 547.165 486.956 547.34 486.956 547.544C486.956 547.75 486.877 547.927 486.719 548.075C486.564 548.221 486.377 548.294 486.156 548.294ZM490.511 554.423C489.962 554.423 489.489 554.312 489.093 554.089C488.699 553.865 488.396 553.547 488.183 553.137C487.97 552.725 487.863 552.238 487.863 551.675C487.863 551.126 487.97 550.644 488.183 550.229C488.396 549.815 488.696 549.492 489.083 549.26C489.472 549.028 489.928 548.913 490.452 548.913C490.804 548.913 491.132 548.969 491.435 549.083C491.741 549.194 492.007 549.362 492.234 549.587C492.463 549.811 492.642 550.094 492.769 550.434C492.897 550.772 492.96 551.169 492.96 551.623V552.029H488.454V551.112H491.567C491.567 550.899 491.521 550.71 491.428 550.545C491.335 550.381 491.207 550.252 491.042 550.16C490.88 550.065 490.691 550.017 490.476 550.017C490.251 550.017 490.052 550.07 489.878 550.174C489.707 550.276 489.573 550.413 489.475 550.587C489.378 550.759 489.328 550.95 489.326 551.16V552.033C489.326 552.297 489.375 552.525 489.472 552.717C489.572 552.909 489.712 553.058 489.892 553.162C490.073 553.266 490.287 553.318 490.535 553.318C490.7 553.318 490.85 553.295 490.987 553.249C491.123 553.202 491.24 553.133 491.338 553.04C491.435 552.947 491.509 552.834 491.56 552.7L492.929 552.79C492.86 553.119 492.717 553.406 492.502 553.652C492.289 553.895 492.013 554.085 491.675 554.221C491.339 554.356 490.951 554.423 490.511 554.423ZM498.366 550.504L497.011 550.587C496.988 550.471 496.938 550.367 496.862 550.274C496.786 550.18 496.685 550.104 496.56 550.049C496.437 549.991 496.29 549.962 496.119 549.962C495.889 549.962 495.696 550.01 495.538 550.108C495.381 550.203 495.302 550.33 495.302 550.49C495.302 550.617 495.353 550.725 495.455 550.813C495.557 550.901 495.732 550.972 495.98 551.025L496.945 551.22C497.464 551.326 497.851 551.497 498.106 551.734C498.361 551.97 498.488 552.28 498.488 552.665C498.488 553.015 498.385 553.322 498.179 553.586C497.975 553.85 497.695 554.056 497.338 554.204C496.984 554.35 496.575 554.423 496.112 554.423C495.405 554.423 494.842 554.276 494.423 553.982C494.006 553.685 493.762 553.282 493.69 552.773L495.146 552.696C495.19 552.912 495.296 553.076 495.465 553.19C495.634 553.301 495.851 553.356 496.115 553.356C496.374 553.356 496.583 553.307 496.74 553.207C496.9 553.105 496.981 552.974 496.984 552.814C496.981 552.68 496.925 552.57 496.813 552.484C496.702 552.396 496.531 552.329 496.299 552.283L495.375 552.099C494.854 551.994 494.466 551.814 494.211 551.557C493.959 551.299 493.832 550.972 493.832 550.573C493.832 550.23 493.925 549.935 494.11 549.687C494.298 549.439 494.561 549.248 494.899 549.114C495.239 548.98 495.638 548.913 496.094 548.913C496.768 548.913 497.299 549.055 497.685 549.34C498.075 549.625 498.302 550.013 498.366 550.504ZM502.55 552.036C502.32 552.036 502.123 551.955 501.959 551.793C501.797 551.628 501.716 551.431 501.716 551.202C501.716 550.975 501.797 550.781 501.959 550.618C502.123 550.456 502.32 550.375 502.55 550.375C502.772 550.375 502.967 550.456 503.133 550.618C503.3 550.781 503.384 550.975 503.384 551.202C503.384 551.355 503.344 551.495 503.265 551.623C503.189 551.748 503.088 551.848 502.963 551.925C502.838 551.999 502.7 552.036 502.55 552.036ZM510.751 549.25C510.723 548.969 510.604 548.752 510.393 548.596C510.182 548.441 509.896 548.364 509.535 548.364C509.289 548.364 509.082 548.398 508.913 548.468C508.744 548.535 508.614 548.629 508.524 548.749C508.436 548.87 508.392 549.006 508.392 549.159C508.387 549.287 508.414 549.398 508.472 549.493C508.532 549.588 508.614 549.67 508.719 549.739C508.823 549.807 508.943 549.866 509.08 549.917C509.217 549.965 509.362 550.007 509.518 550.042L510.157 550.195C510.467 550.264 510.752 550.357 511.012 550.473C511.271 550.588 511.496 550.731 511.686 550.9C511.876 551.069 512.023 551.268 512.127 551.497C512.233 551.727 512.288 551.99 512.29 552.286C512.288 552.722 512.177 553.099 511.957 553.419C511.739 553.736 511.424 553.983 511.012 554.159C510.602 554.333 510.107 554.419 509.528 554.419C508.954 554.419 508.453 554.331 508.027 554.155C507.603 553.979 507.272 553.719 507.033 553.374C506.797 553.026 506.673 552.597 506.662 552.085H508.117C508.134 552.323 508.202 552.522 508.322 552.682C508.445 552.84 508.609 552.959 508.812 553.04C509.018 553.119 509.251 553.158 509.511 553.158C509.765 553.158 509.987 553.121 510.174 553.047C510.364 552.973 510.511 552.87 510.616 552.738C510.72 552.606 510.772 552.454 510.772 552.283C510.772 552.123 510.724 551.989 510.629 551.88C510.537 551.771 510.4 551.678 510.219 551.602C510.041 551.525 509.822 551.456 509.563 551.393L508.788 551.199C508.188 551.053 507.714 550.825 507.367 550.514C507.02 550.204 506.847 549.786 506.849 549.26C506.847 548.829 506.962 548.453 507.193 548.131C507.427 547.809 507.748 547.557 508.156 547.377C508.563 547.196 509.027 547.106 509.545 547.106C510.074 547.106 510.534 547.196 510.928 547.377C511.324 547.557 511.632 547.809 511.852 548.131C512.073 548.453 512.186 548.826 512.193 549.25H510.751ZM515.706 554.423C515.158 554.423 514.685 554.312 514.289 554.089C513.895 553.865 513.592 553.547 513.379 553.137C513.166 552.725 513.059 552.238 513.059 551.675C513.059 551.126 513.166 550.644 513.379 550.229C513.592 549.815 513.892 549.492 514.278 549.26C514.668 549.028 515.124 548.913 515.647 548.913C515.999 548.913 516.327 548.969 516.631 549.083C516.936 549.194 517.203 549.362 517.43 549.587C517.659 549.811 517.837 550.094 517.965 550.434C518.092 550.772 518.156 551.169 518.156 551.623V552.029H513.65V551.112H516.763C516.763 550.899 516.716 550.71 516.624 550.545C516.531 550.381 516.403 550.252 516.238 550.16C516.076 550.065 515.887 550.017 515.672 550.017C515.447 550.017 515.248 550.07 515.074 550.174C514.903 550.276 514.768 550.413 514.671 550.587C514.574 550.759 514.524 550.95 514.522 551.16V552.033C514.522 552.297 514.57 552.525 514.668 552.717C514.767 552.909 514.907 553.058 515.088 553.162C515.269 553.266 515.483 553.318 515.731 553.318C515.895 553.318 516.046 553.295 516.182 553.249C516.319 553.202 516.436 553.133 516.533 553.04C516.631 552.947 516.705 552.834 516.756 552.7L518.125 552.79C518.055 553.119 517.913 553.406 517.697 553.652C517.484 553.895 517.209 554.085 516.87 554.221C516.535 554.356 516.147 554.423 515.706 554.423ZM519.122 556.32V548.982H520.581V549.878H520.647C520.712 549.735 520.806 549.589 520.929 549.441C521.054 549.29 521.216 549.165 521.415 549.065C521.616 548.963 521.867 548.913 522.165 548.913C522.555 548.913 522.914 549.014 523.242 549.218C523.571 549.42 523.834 549.724 524.031 550.132C524.228 550.537 524.327 551.046 524.327 551.657C524.327 552.253 524.23 552.755 524.038 553.165C523.848 553.573 523.589 553.882 523.26 554.093C522.933 554.301 522.567 554.406 522.162 554.406C521.875 554.406 521.63 554.358 521.429 554.263C521.23 554.168 521.066 554.049 520.939 553.905C520.812 553.759 520.714 553.612 520.647 553.464H520.602V556.32H519.122ZM520.571 551.65C520.571 551.968 520.615 552.244 520.703 552.481C520.791 552.717 520.918 552.901 521.085 553.033C521.252 553.163 521.454 553.228 521.693 553.228C521.934 553.228 522.138 553.162 522.304 553.03C522.471 552.895 522.597 552.71 522.683 552.474C522.771 552.235 522.815 551.961 522.815 551.65C522.815 551.342 522.772 551.071 522.687 550.837C522.601 550.603 522.475 550.42 522.308 550.288C522.141 550.156 521.936 550.09 521.693 550.09C521.452 550.09 521.248 550.154 521.081 550.281C520.917 550.409 520.791 550.59 520.703 550.823C520.615 551.057 520.571 551.333 520.571 551.65ZM528.152 548.982V550.094H524.938V548.982H528.152ZM525.668 547.703H527.148V552.679C527.148 552.815 527.169 552.922 527.21 552.998C527.252 553.073 527.31 553.125 527.384 553.155C527.46 553.185 527.548 553.2 527.648 553.2C527.718 553.2 527.787 553.194 527.857 553.183C527.926 553.169 527.979 553.158 528.016 553.151L528.249 554.253C528.175 554.276 528.071 554.303 527.936 554.333C527.802 554.365 527.639 554.385 527.447 554.392C527.09 554.406 526.777 554.358 526.508 554.249C526.242 554.14 526.035 553.971 525.887 553.742C525.738 553.513 525.665 553.223 525.668 552.873V547.703Z" fill="white"/>
<path opacity="0.2" d="M483.082 529.643C487.405 529.643 490.909 526.138 490.909 521.816C490.909 517.493 487.405 513.988 483.082 513.988C478.759 513.988 475.255 517.493 475.255 521.816C475.255 526.138 478.759 529.643 483.082 529.643Z" fill="#7E3CEF"/>
<path d="M478.375 597.676C478.35 597.424 478.242 597.228 478.052 597.089C477.863 596.949 477.605 596.879 477.28 596.879C477.059 596.879 476.873 596.91 476.72 596.973C476.568 597.033 476.451 597.118 476.37 597.226C476.291 597.335 476.251 597.458 476.251 597.595C476.247 597.71 476.271 597.81 476.323 597.895C476.377 597.981 476.451 598.055 476.545 598.117C476.639 598.178 476.747 598.231 476.87 598.277C476.993 598.321 477.125 598.358 477.264 598.389L477.84 598.527C478.119 598.59 478.376 598.673 478.609 598.777C478.843 598.881 479.045 599.01 479.216 599.162C479.387 599.314 479.519 599.493 479.613 599.7C479.709 599.906 479.758 600.143 479.76 600.409C479.758 600.801 479.658 601.141 479.46 601.429C479.264 601.714 478.98 601.936 478.609 602.095C478.24 602.251 477.795 602.329 477.274 602.329C476.757 602.329 476.307 602.25 475.923 602.092C475.542 601.933 475.243 601.699 475.029 601.388C474.816 601.076 474.705 600.689 474.694 600.228H476.004C476.019 600.443 476.08 600.622 476.189 600.766C476.299 600.908 476.446 601.015 476.63 601.088C476.815 601.159 477.025 601.194 477.258 601.194C477.488 601.194 477.687 601.161 477.855 601.094C478.026 601.028 478.159 600.935 478.253 600.816C478.346 600.697 478.393 600.561 478.393 600.406C478.393 600.263 478.351 600.142 478.265 600.044C478.182 599.946 478.059 599.862 477.896 599.793C477.736 599.725 477.539 599.662 477.305 599.606L476.608 599.431C476.068 599.299 475.642 599.094 475.329 598.815C475.016 598.535 474.861 598.159 474.863 597.686C474.861 597.298 474.964 596.959 475.173 596.67C475.383 596.38 475.672 596.154 476.039 595.991C476.406 595.828 476.823 595.747 477.289 595.747C477.765 595.747 478.18 595.828 478.534 595.991C478.891 596.154 479.168 596.38 479.366 596.67C479.564 596.959 479.666 597.295 479.672 597.676H478.375ZM480.671 602.239V595.835H484.986V596.951H482.025V598.477H484.764V599.593H482.025V601.122H484.998V602.239H480.671ZM486.062 602.239V595.835H488.589C489.075 595.835 489.488 595.927 489.83 596.113C490.172 596.296 490.433 596.552 490.612 596.879C490.793 597.204 490.884 597.58 490.884 598.005C490.884 598.43 490.792 598.805 490.609 599.131C490.425 599.456 490.16 599.709 489.811 599.89C489.465 600.072 489.046 600.162 488.554 600.162H486.944V599.077H488.336C488.596 599.077 488.811 599.033 488.98 598.943C489.151 598.851 489.278 598.725 489.361 598.565C489.447 598.402 489.489 598.215 489.489 598.005C489.489 597.792 489.447 597.607 489.361 597.448C489.278 597.288 489.151 597.164 488.98 597.076C488.809 596.986 488.592 596.942 488.329 596.942H487.416V602.239H486.062Z" fill="#7E3CEF"/>
<path d="M670.381 137.43H548.281C539.29 137.43 532.001 144.719 532.001 153.71C532.001 162.702 539.29 169.991 548.281 169.991H670.381C679.373 169.991 686.661 162.702 686.661 153.71C686.661 144.719 679.373 137.43 670.381 137.43Z" fill="#EDEDED"/>
<path d="M597.121 141.5H548.281C541.538 141.5 536.071 146.967 536.071 153.711C536.071 160.454 541.538 165.921 548.281 165.921H597.121C603.865 165.921 609.332 160.454 609.332 153.711C609.332 146.967 603.865 141.5 597.121 141.5Z" fill="white"/>
<path d="M548.461 149.448V157.588H546.74V151.081H546.692L544.828 152.25V150.724L546.843 149.448H548.461ZM550.395 157.588V156.348L553.293 153.665C553.539 153.426 553.746 153.212 553.913 153.021C554.083 152.83 554.211 152.643 554.298 152.461C554.386 152.275 554.43 152.075 554.43 151.86C554.43 151.622 554.375 151.417 554.267 151.244C554.158 151.07 554.01 150.936 553.822 150.843C553.633 150.748 553.42 150.7 553.182 150.7C552.933 150.7 552.715 150.75 552.53 150.851C552.344 150.952 552.201 151.096 552.101 151.284C552 151.472 551.949 151.696 551.949 151.956H550.316C550.316 151.423 550.436 150.961 550.678 150.569C550.919 150.177 551.257 149.873 551.691 149.659C552.126 149.444 552.627 149.337 553.194 149.337C553.776 149.337 554.284 149.44 554.716 149.647C555.15 149.851 555.488 150.134 555.729 150.497C555.97 150.86 556.091 151.276 556.091 151.745C556.091 152.053 556.03 152.356 555.908 152.655C555.789 152.955 555.576 153.287 555.268 153.653C554.961 154.016 554.528 154.452 553.969 154.961L552.78 156.125V156.181H556.198V157.588H550.395ZM560.052 157.588V151.483H561.665V152.56H561.737C561.864 152.202 562.076 151.92 562.373 151.713C562.67 151.507 563.025 151.403 563.438 151.403C563.857 151.403 564.213 151.508 564.507 151.717C564.801 151.924 564.998 152.205 565.096 152.56H565.159C565.284 152.21 565.509 151.931 565.835 151.721C566.163 151.509 566.552 151.403 566.999 151.403C567.569 151.403 568.031 151.585 568.387 151.948C568.744 152.308 568.923 152.82 568.923 153.482V157.588H567.234V153.816C567.234 153.477 567.144 153.222 566.964 153.053C566.783 152.883 566.558 152.798 566.288 152.798C565.981 152.798 565.741 152.897 565.569 153.093C565.396 153.286 565.31 153.542 565.31 153.86V157.588H563.669V153.78C563.669 153.481 563.583 153.242 563.41 153.065C563.241 152.887 563.017 152.798 562.739 152.798C562.55 152.798 562.381 152.846 562.23 152.942C562.081 153.034 561.964 153.165 561.876 153.335C561.789 153.502 561.745 153.698 561.745 153.923V157.588H560.052ZM573.019 157.707C572.402 157.707 571.868 157.576 571.417 157.314C570.969 157.049 570.624 156.68 570.38 156.209C570.136 155.734 570.014 155.185 570.014 154.559C570.014 153.929 570.136 153.377 570.38 152.906C570.624 152.431 570.969 152.063 571.417 151.801C571.868 151.536 572.402 151.403 573.019 151.403C573.636 151.403 574.169 151.536 574.617 151.801C575.067 152.063 575.414 152.431 575.658 152.906C575.902 153.377 576.024 153.929 576.024 154.559C576.024 155.185 575.902 155.734 575.658 156.209C575.414 156.68 575.067 157.049 574.617 157.314C574.169 157.576 573.636 157.707 573.019 157.707ZM573.027 156.396C573.308 156.396 573.542 156.316 573.73 156.157C573.919 155.995 574.06 155.775 574.156 155.497C574.254 155.219 574.303 154.902 574.303 154.547C574.303 154.192 574.254 153.876 574.156 153.597C574.06 153.319 573.919 153.099 573.73 152.938C573.542 152.776 573.308 152.695 573.027 152.695C572.743 152.695 572.505 152.776 572.311 152.938C572.121 153.099 571.976 153.319 571.878 153.597C571.783 153.876 571.735 154.192 571.735 154.547C571.735 154.902 571.783 155.219 571.878 155.497C571.976 155.775 572.121 155.995 572.311 156.157C572.505 156.316 572.743 156.396 573.027 156.396ZM578.818 154.058V157.588H577.125V151.483H578.738V152.56H578.81C578.945 152.205 579.172 151.924 579.49 151.717C579.808 151.508 580.193 151.403 580.646 151.403C581.07 151.403 581.44 151.496 581.755 151.682C582.071 151.867 582.316 152.132 582.49 152.477C582.665 152.818 582.753 153.226 582.753 153.701V157.588H581.06V154.003C581.062 153.629 580.967 153.338 580.773 153.128C580.58 152.916 580.314 152.81 579.975 152.81C579.747 152.81 579.545 152.859 579.37 152.957C579.198 153.055 579.063 153.199 578.965 153.387C578.87 153.572 578.821 153.796 578.818 154.058ZM587.335 151.483V152.755H583.658V151.483H587.335ZM584.493 150.02H586.186V155.712C586.186 155.868 586.21 155.99 586.257 156.078C586.305 156.162 586.371 156.222 586.456 156.256C586.544 156.291 586.644 156.308 586.758 156.308C586.838 156.308 586.917 156.301 586.997 156.288C587.076 156.272 587.137 156.26 587.18 156.252L587.446 157.512C587.361 157.539 587.242 157.569 587.088 157.604C586.934 157.641 586.748 157.663 586.528 157.671C586.12 157.687 585.762 157.633 585.455 157.508C585.15 157.384 584.913 157.19 584.743 156.928C584.574 156.666 584.49 156.335 584.493 155.934V150.02ZM590.262 154.058V157.588H588.569V149.448H590.214V152.56H590.286C590.424 152.2 590.646 151.917 590.953 151.713C591.261 151.507 591.646 151.403 592.11 151.403C592.534 151.403 592.904 151.496 593.219 151.682C593.537 151.864 593.783 152.128 593.958 152.473C594.136 152.814 594.223 153.224 594.221 153.701V157.588H592.527V154.003C592.53 153.627 592.435 153.334 592.241 153.124C592.05 152.915 591.783 152.81 591.438 152.81C591.208 152.81 591.004 152.859 590.826 152.957C590.651 153.055 590.514 153.199 590.413 153.387C590.315 153.572 590.265 153.796 590.262 154.058ZM600.633 153.224L599.083 153.319C599.056 153.187 598.999 153.067 598.912 152.961C598.824 152.853 598.709 152.767 598.566 152.703C598.425 152.637 598.257 152.604 598.061 152.604C597.799 152.604 597.578 152.659 597.397 152.771C597.217 152.879 597.127 153.025 597.127 153.208C597.127 153.354 597.185 153.477 597.302 153.577C597.419 153.678 597.619 153.759 597.902 153.82L599.007 154.043C599.601 154.164 600.043 154.36 600.335 154.631C600.626 154.901 600.772 155.256 600.772 155.696C600.772 156.096 600.654 156.447 600.418 156.749C600.185 157.051 599.864 157.287 599.456 157.457C599.051 157.624 598.583 157.707 598.053 157.707C597.245 157.707 596.601 157.539 596.121 157.202C595.645 156.863 595.365 156.402 595.283 155.819L596.948 155.732C596.999 155.978 597.12 156.166 597.314 156.296C597.507 156.423 597.755 156.487 598.057 156.487C598.354 156.487 598.592 156.43 598.773 156.316C598.955 156.199 599.048 156.05 599.051 155.867C599.048 155.713 598.983 155.587 598.856 155.489C598.729 155.389 598.533 155.312 598.268 155.259L597.211 155.048C596.614 154.929 596.17 154.722 595.879 154.428C595.59 154.134 595.446 153.759 595.446 153.303C595.446 152.911 595.552 152.573 595.764 152.29C595.978 152.006 596.279 151.788 596.666 151.634C597.056 151.48 597.511 151.403 598.033 151.403C598.804 151.403 599.411 151.566 599.854 151.892C600.299 152.218 600.558 152.662 600.633 153.224Z" fill="#111827"/>
<path d="M399.092 386.247H368.567C362.385 386.247 357.374 391.258 357.374 397.439C357.374 403.621 362.385 408.632 368.567 408.632H399.092C405.273 408.632 410.284 403.621 410.284 397.439C410.284 391.258 405.273 386.247 399.092 386.247Z" fill="#111827"/>
<path d="M366.06 395.224V393.934H372.137V395.224H369.872V401.334H368.325V395.224H366.06ZM379.601 397.634C379.601 398.441 379.448 399.128 379.142 399.694C378.838 400.26 378.424 400.692 377.899 400.991C377.376 401.287 376.788 401.435 376.135 401.435C375.478 401.435 374.888 401.286 374.365 400.987C373.842 400.689 373.429 400.256 373.126 399.69C372.822 399.124 372.67 398.439 372.67 397.634C372.67 396.827 372.822 396.141 373.126 395.575C373.429 395.009 373.842 394.577 374.365 394.281C374.888 393.982 375.478 393.833 376.135 393.833C376.788 393.833 377.376 393.982 377.899 394.281C378.424 394.577 378.838 395.009 379.142 395.575C379.448 396.141 379.601 396.827 379.601 397.634ZM378.014 397.634C378.014 397.111 377.936 396.671 377.779 396.312C377.625 395.953 377.407 395.681 377.125 395.495C376.844 395.31 376.514 395.217 376.135 395.217C375.757 395.217 375.427 395.31 375.145 395.495C374.864 395.681 374.644 395.953 374.488 396.312C374.334 396.671 374.256 397.111 374.256 397.634C374.256 398.157 374.334 398.598 374.488 398.957C374.644 399.316 374.864 399.588 375.145 399.773C375.427 399.959 375.757 400.052 376.135 400.052C376.514 400.052 376.844 399.959 377.125 399.773C377.407 399.588 377.625 399.316 377.779 398.957C377.936 398.598 378.014 398.157 378.014 397.634ZM383.383 401.334H380.76V393.934H383.404C384.149 393.934 384.79 394.082 385.327 394.379C385.864 394.673 386.277 395.095 386.566 395.647C386.858 396.199 387.003 396.859 387.003 397.627C387.003 398.398 386.858 399.06 386.566 399.614C386.277 400.168 385.861 400.594 385.319 400.89C384.78 401.186 384.134 401.334 383.383 401.334ZM382.324 399.994H383.318C383.78 399.994 384.169 399.912 384.485 399.748C384.803 399.582 385.041 399.325 385.2 398.978C385.362 398.629 385.442 398.179 385.442 397.627C385.442 397.08 385.362 396.633 385.2 396.286C385.041 395.94 384.804 395.684 384.488 395.52C384.173 395.357 383.784 395.275 383.321 395.275H382.324V399.994ZM389.02 401.334H387.344L389.898 393.934H391.915L394.466 401.334H392.789L390.935 395.625H390.878L389.02 401.334ZM388.916 398.426H392.876V399.647H388.916V398.426ZM394.168 393.934H395.92L397.607 397.121H397.68L399.367 393.934H401.12L398.42 398.718V401.334H396.867V398.718L394.168 393.934Z" fill="white"/>
<path opacity="0.5" d="M306.336 314.192C306.336 312.513 307.697 311.151 309.377 311.151H383.681C385.36 311.151 386.722 312.513 386.722 314.192C386.722 315.872 385.36 317.233 383.681 317.233H309.377C307.697 317.233 306.336 315.872 306.336 314.192Z" fill="#94979D"/>
<path opacity="0.5" d="M635.223 153.71C635.223 152.031 636.584 150.669 638.264 150.669H658.283C659.963 150.669 661.324 152.031 661.324 153.71C661.324 155.39 659.963 156.751 658.283 156.751H638.264C636.584 156.751 635.223 155.39 635.223 153.71Z" fill="#94979D"/>
<path opacity="0.4" d="M79.9814 598.326C79.9814 596.647 81.3429 595.285 83.0224 595.285H103.042C104.721 595.285 106.083 596.647 106.083 598.326C106.083 600.006 104.721 601.367 103.042 601.367H83.0224C81.3429 601.367 79.9814 600.006 79.9814 598.326Z" fill="#94979D"/>
<path opacity="0.4" d="M134.887 598.326C134.887 596.647 136.248 595.285 137.928 595.285H157.947C159.627 595.285 160.988 596.647 160.988 598.326C160.988 600.006 159.627 601.367 157.947 601.367H137.928C136.248 601.367 134.887 600.006 134.887 598.326Z" fill="#94979D"/>
<path opacity="0.4" d="M189.832 598.326C189.832 596.647 191.194 595.285 192.873 595.285H212.892C214.572 595.285 215.933 596.647 215.933 598.326C215.933 600.006 214.572 601.367 212.892 601.367H192.873C191.194 601.367 189.832 600.006 189.832 598.326Z" fill="#94979D"/>
<path opacity="0.4" d="M244.777 598.326C244.777 596.647 246.139 595.285 247.818 595.285H267.838C269.517 595.285 270.879 596.647 270.879 598.326C270.879 600.006 269.517 601.367 267.838 601.367H247.818C246.139 601.367 244.777 600.006 244.777 598.326Z" fill="#94979D"/>
<path opacity="0.4" d="M299.723 598.326C299.723 596.647 301.084 595.285 302.764 595.285H322.783C324.463 595.285 325.824 596.647 325.824 598.326C325.824 600.006 324.463 601.367 322.783 601.367H302.764C301.084 601.367 299.723 600.006 299.723 598.326Z" fill="#94979D"/>
<path opacity="0.4" d="M354.667 598.326C354.667 596.647 356.028 595.285 357.708 595.285H377.727C379.407 595.285 380.768 596.647 380.768 598.326C380.768 600.006 379.407 601.367 377.727 601.367H357.708C356.028 601.367 354.667 600.006 354.667 598.326Z" fill="#94979D"/>
<path opacity="0.4" d="M409.612 598.326C409.612 596.647 410.974 595.285 412.653 595.285H432.673C434.352 595.285 435.714 596.647 435.714 598.326C435.714 600.006 434.352 601.367 432.673 601.367H412.653C410.974 601.367 409.612 600.006 409.612 598.326Z" fill="#94979D"/>
<path opacity="0.4" d="M531.713 598.326C531.713 596.647 533.074 595.285 534.754 595.285H554.773C556.453 595.285 557.814 596.647 557.814 598.326C557.814 600.006 556.453 601.367 554.773 601.367H534.754C533.074 601.367 531.713 600.006 531.713 598.326Z" fill="#94979D"/>
<path opacity="0.4" d="M586.658 598.326C586.658 596.647 588.02 595.285 589.699 595.285H609.719C611.398 595.285 612.76 596.647 612.76 598.326C612.76 600.006 611.398 601.367 609.719 601.367H589.699C588.02 601.367 586.658 600.006 586.658 598.326Z" fill="#94979D"/>
<path opacity="0.4" d="M641.604 598.326C641.604 596.647 642.965 595.285 644.644 595.285H664.664C666.343 595.285 667.705 596.647 667.705 598.326C667.705 600.006 666.343 601.367 664.664 601.367H644.644C642.965 601.367 641.604 600.006 641.604 598.326Z" fill="#94979D"/>
<path opacity="0.4" d="M53.6191 545.297C53.6191 543.618 54.9806 542.256 56.6601 542.256H65.6162C67.2956 542.256 68.6571 543.618 68.6571 545.297C68.6571 546.977 67.2956 548.338 65.6162 548.338H56.6601C54.9806 548.338 53.6191 546.977 53.6191 545.297Z" fill="#94979D"/>
<path opacity="0.4" d="M53.6191 506.161C53.6191 504.482 54.9806 503.12 56.6601 503.12H65.6162C67.2956 503.12 68.6571 504.482 68.6571 506.161C68.6571 507.841 67.2956 509.202 65.6162 509.202H56.6601C54.9806 509.202 53.6191 507.841 53.6191 506.161Z" fill="#94979D"/>
<path opacity="0.4" d="M53.6191 467.025C53.6191 465.346 54.9806 463.984 56.6601 463.984H65.6162C67.2956 463.984 68.6571 465.346 68.6571 467.025C68.6571 468.705 67.2956 470.066 65.6162 470.066H56.6601C54.9806 470.066 53.6191 468.705 53.6191 467.025Z" fill="#94979D"/>
<path opacity="0.4" d="M53.6191 427.889C53.6191 426.21 54.9806 424.848 56.6601 424.848H65.6162C67.2956 424.848 68.6571 426.21 68.6571 427.889C68.6571 429.569 67.2956 430.93 65.6162 430.93H56.6601C54.9806 430.93 53.6191 429.569 53.6191 427.889Z" fill="#94979D"/>
<path opacity="0.5" d="M89.0752 314.192C89.0752 312.513 90.4367 311.151 92.1161 311.151H223.454C225.133 311.151 226.495 312.513 226.495 314.192C226.495 315.872 225.133 317.233 223.454 317.233H92.1162C90.4367 317.233 89.0752 315.872 89.0752 314.192Z" fill="#94979D"/>
<path d="M222.425 179.552H67.7643C65.5165 179.552 63.6943 181.374 63.6943 183.622C63.6943 185.87 65.5165 187.692 67.7643 187.692H222.425C224.673 187.692 226.495 185.87 226.495 183.622C226.495 181.374 224.673 179.552 222.425 179.552Z" fill="#EDEDED"/>
<defs>
<filter id="filter0_dd_770_5620" x="16.0488" y="99.3091" width="715.902" height="569.382" filterUnits="userSpaceOnUse" color-interpolation-filters="sRGB">
<feFlood flood-opacity="0" result="BackgroundImageFix"/>
<feColorMatrix in="SourceAlpha" type="matrix" values="0 0 0 0 0 0 0 0 0 0 0 0 0 0 0 0 0 0 127 0" result="hardAlpha"/>
<feMorphology radius="2" operator="erode" in="SourceAlpha" result="effect1_dropShadow_770_5620"/>
<feOffset dy="4"/>
<feGaussianBlur stdDeviation="3"/>
<feColorMatrix type="matrix" values="0 0 0 0 0 0 0 0 0 0 0 0 0 0 0 0 0 0 0.05 0"/>
<feBlend mode="normal" in2="BackgroundImageFix" result="effect1_dropShadow_770_5620"/>
<feColorMatrix in="SourceAlpha" type="matrix" values="0 0 0 0 0 0 0 0 0 0 0 0 0 0 0 0 0 0 127 0" result="hardAlpha"/>
<feMorphology radius="3" operator="erode" in="SourceAlpha" result="effect2_dropShadow_770_5620"/>
<feOffset dy="10"/>
<feGaussianBlur stdDeviation="7.5"/>
<feColorMatrix type="matrix" values="0 0 0 0 0 0 0 0 0 0 0 0 0 0 0 0 0 0 0.1 0"/>
<feBlend mode="normal" in2="effect1_dropShadow_770_5620" result="effect2_dropShadow_770_5620"/>
<feBlend mode="normal" in="SourceGraphic" in2="effect2_dropShadow_770_5620" result="shape"/>
</filter>
<filter id="filter1_dd_770_5620" x="51.4511" y="232.567" width="218.286" height="143.012" filterUnits="userSpaceOnUse" color-interpolation-filters="sRGB">
<feFlood flood-opacity="0" result="BackgroundImageFix"/>
<feColorMatrix in="SourceAlpha" type="matrix" values="0 0 0 0 0 0 0 0 0 0 0 0 0 0 0 0 0 0 127 0" result="hardAlpha"/>
<feMorphology radius="2.03501" operator="erode" in="SourceAlpha" result="effect1_dropShadow_770_5620"/>
<feOffset dy="4.07001"/>
<feGaussianBlur stdDeviation="3.05251"/>
<feColorMatrix type="matrix" values="0 0 0 0 0 0 0 0 0 0 0 0 0 0 0 0 0 0 0.05 0"/>
<feBlend mode="normal" in2="BackgroundImageFix" result="effect1_dropShadow_770_5620"/>
<feColorMatrix in="SourceAlpha" type="matrix" values="0 0 0 0 0 0 0 0 0 0 0 0 0 0 0 0 0 0 127 0" result="hardAlpha"/>
<feMorphology radius="3.05251" operator="erode" in="SourceAlpha" result="effect2_dropShadow_770_5620"/>
<feOffset dy="10.175"/>
<feGaussianBlur stdDeviation="7.63128"/>
<feColorMatrix type="matrix" values="0 0 0 0 0 0 0 0 0 0 0 0 0 0 0 0 0 0 0.1 0"/>
<feBlend mode="normal" in2="effect1_dropShadow_770_5620" result="effect2_dropShadow_770_5620"/>
<feBlend mode="normal" in="SourceGraphic" in2="effect2_dropShadow_770_5620" result="shape"/>
</filter>
<filter id="filter2_dd_770_5620" x="263.919" y="232.566" width="218.286" height="143.012" filterUnits="userSpaceOnUse" color-interpolation-filters="sRGB">
<feFlood flood-opacity="0" result="BackgroundImageFix"/>
<feColorMatrix in="SourceAlpha" type="matrix" values="0 0 0 0 0 0 0 0 0 0 0 0 0 0 0 0 0 0 127 0" result="hardAlpha"/>
<feMorphology radius="2.03501" operator="erode" in="SourceAlpha" result="effect1_dropShadow_770_5620"/>
<feOffset dy="4.07001"/>
<feGaussianBlur stdDeviation="3.05251"/>
<feColorMatrix type="matrix" values="0 0 0 0 0 0 0 0 0 0 0 0 0 0 0 0 0 0 0.05 0"/>
<feBlend mode="normal" in2="BackgroundImageFix" result="effect1_dropShadow_770_5620"/>
<feColorMatrix in="SourceAlpha" type="matrix" values="0 0 0 0 0 0 0 0 0 0 0 0 0 0 0 0 0 0 127 0" result="hardAlpha"/>
<feMorphology radius="3.05251" operator="erode" in="SourceAlpha" result="effect2_dropShadow_770_5620"/>
<feOffset dy="10.175"/>
<feGaussianBlur stdDeviation="7.63128"/>
<feColorMatrix type="matrix" values="0 0 0 0 0 0 0 0 0 0 0 0 0 0 0 0 0 0 0.1 0"/>
<feBlend mode="normal" in2="effect1_dropShadow_770_5620" result="effect2_dropShadow_770_5620"/>
<feBlend mode="normal" in="SourceGraphic" in2="effect2_dropShadow_770_5620" result="shape"/>
</filter>
<filter id="filter3_dd_770_5620" x="476.387" y="232.566" width="218.286" height="143.012" filterUnits="userSpaceOnUse" color-interpolation-filters="sRGB">
<feFlood flood-opacity="0" result="BackgroundImageFix"/>
<feColorMatrix in="SourceAlpha" type="matrix" values="0 0 0 0 0 0 0 0 0 0 0 0 0 0 0 0 0 0 127 0" result="hardAlpha"/>
<feMorphology radius="2.03501" operator="erode" in="SourceAlpha" result="effect1_dropShadow_770_5620"/>
<feOffset dy="4.07001"/>
<feGaussianBlur stdDeviation="3.05251"/>
<feColorMatrix type="matrix" values="0 0 0 0 0 0 0 0 0 0 0 0 0 0 0 0 0 0 0.05 0"/>
<feBlend mode="normal" in2="BackgroundImageFix" result="effect1_dropShadow_770_5620"/>
<feColorMatrix in="SourceAlpha" type="matrix" values="0 0 0 0 0 0 0 0 0 0 0 0 0 0 0 0 0 0 127 0" result="hardAlpha"/>
<feMorphology radius="3.05251" operator="erode" in="SourceAlpha" result="effect2_dropShadow_770_5620"/>
<feOffset dy="10.175"/>
<feGaussianBlur stdDeviation="7.63128"/>
<feColorMatrix type="matrix" values="0 0 0 0 0 0 0 0 0 0 0 0 0 0 0 0 0 0 0.1 0"/>
<feBlend mode="normal" in2="effect1_dropShadow_770_5620" result="effect2_dropShadow_770_5620"/>
<feBlend mode="normal" in="SourceGraphic" in2="effect2_dropShadow_770_5620" result="shape"/>
</filter>
<linearGradient id="paint0_linear_770_5620" x1="79.9814" y1="435.717" x2="79.9814" y2="584.433" gradientUnits="userSpaceOnUse">
<stop stop-color="#7E3CEF" stop-opacity="0.45"/>
<stop offset="1" stop-color="#7E3CEF" stop-opacity="0.05"/>
</linearGradient>
<linearGradient id="paint1_linear_770_5620" x1="381.328" y1="435.717" x2="381.328" y2="584.433" gradientUnits="userSpaceOnUse">
<stop stop-color="#BB94FF" stop-opacity="0.3"/>
<stop offset="1" stop-color="#BB94FF" stop-opacity="0.02"/>
</linearGradient>
</defs>
</svg>
