<svg width="748" height="748" viewBox="0 0 748 748" fill="none" xmlns="http://www.w3.org/2000/svg">
<g filter="url(#filter0_dd_691_4410)">
<path d="M685.043 101.553H45.043C33.9973 101.553 25.043 108.728 25.043 117.579V630.421C25.043 639.272 33.9973 646.447 45.043 646.447H685.043C696.089 646.447 705.043 639.272 705.043 630.421V117.579C705.043 108.728 696.089 101.553 685.043 101.553Z" fill="white"/>
</g>
<path d="M61.6204 144.372C61.592 144.085 61.4701 143.863 61.2546 143.704C61.0392 143.545 60.7468 143.466 60.3775 143.466C60.1265 143.466 59.9147 143.502 59.7418 143.573C59.569 143.641 59.4364 143.737 59.3441 143.86C59.2541 143.983 59.2092 144.123 59.2092 144.279C59.2044 144.41 59.2317 144.523 59.2908 144.62C59.3524 144.717 59.4364 144.801 59.543 144.872C59.6495 144.941 59.7726 145.001 59.9123 145.053C60.052 145.103 60.2011 145.146 60.3597 145.181L61.0131 145.338C61.3304 145.409 61.6216 145.503 61.8867 145.622C62.1519 145.74 62.3815 145.886 62.5756 146.058C62.7698 146.231 62.9201 146.435 63.0266 146.669C63.1355 146.904 63.1912 147.172 63.1935 147.475C63.1912 147.92 63.0775 148.306 62.8526 148.633C62.6301 148.957 62.3081 149.209 61.8867 149.389C61.4677 149.567 60.9622 149.656 60.3704 149.656C59.7833 149.656 59.2719 149.566 58.8363 149.386C58.4031 149.206 58.0645 148.94 57.8207 148.587C57.5792 148.232 57.4525 147.793 57.4407 147.269H58.9286C58.9452 147.513 59.015 147.717 59.1381 147.88C59.2636 148.041 59.4305 148.163 59.6388 148.246C59.8496 148.326 60.0875 148.367 60.3526 148.367C60.613 148.367 60.8391 148.329 61.0309 148.253C61.225 148.177 61.3754 148.072 61.4819 147.937C61.5884 147.802 61.6417 147.647 61.6417 147.472C61.6417 147.308 61.5932 147.171 61.4961 147.06C61.4014 146.949 61.2617 146.854 61.0771 146.776C60.8948 146.698 60.671 146.627 60.4059 146.563L59.614 146.364C59.0008 146.215 58.5167 145.981 58.1616 145.664C57.8065 145.347 57.6301 144.92 57.6325 144.382C57.6301 143.942 57.7473 143.557 57.984 143.228C58.2231 142.899 58.551 142.642 58.9677 142.458C59.3844 142.273 59.8578 142.181 60.3881 142.181C60.9279 142.181 61.399 142.273 61.8015 142.458C62.2063 142.642 62.5212 142.899 62.7461 143.228C62.971 143.557 63.087 143.938 63.0941 144.372H61.6204ZM64.2278 142.28H66.1241L68.127 147.166H68.2122L70.215 142.28H72.1113V149.553H70.6199V144.819H70.5595L68.6774 149.517H67.6618L65.7797 144.801H65.7193V149.553H64.2278V142.28ZM74.6317 149.553H72.984L75.4947 142.28H77.4762L79.9833 149.553H78.3356L76.5138 143.942H76.457L74.6317 149.553ZM74.5288 146.694H78.4208V147.894H74.5288V146.694ZM80.8587 149.553V142.28H83.728C84.2772 142.28 84.746 142.378 85.1342 142.575C85.5249 142.769 85.822 143.045 86.0256 143.402C86.2315 143.757 86.3345 144.175 86.3345 144.656C86.3345 145.139 86.2304 145.554 86.022 145.902C85.8137 146.248 85.5118 146.513 85.1165 146.698C84.7235 146.882 84.2476 146.975 83.6889 146.975H81.7678V145.739H83.4403C83.7339 145.739 83.9777 145.699 84.1719 145.618C84.366 145.538 84.5104 145.417 84.6051 145.256C84.7022 145.095 84.7507 144.895 84.7507 144.656C84.7507 144.414 84.7022 144.211 84.6051 144.045C84.5104 143.879 84.3648 143.754 84.1683 143.669C83.9742 143.581 83.7292 143.537 83.4332 143.537H82.3963V149.553H80.8587ZM84.7862 146.243L86.5938 149.553H84.8963L83.1278 146.243H84.7862ZM87.1442 143.548V142.28H93.1172V143.548H90.8906V149.553H89.3707V143.548H87.1442ZM96.4153 142.28H98.3116L100.314 147.166H100.4L102.403 142.28H104.299V149.553H102.807V144.819H102.747L100.865 149.517H99.8493L97.9672 144.801H97.9068V149.553H96.4153V142.28ZM105.566 149.553V142.28H110.466V143.548H107.103V145.281H110.214V146.548H107.103V148.285H110.48V149.553H105.566ZM111.412 143.548V142.28H117.385V143.548H115.158V149.553H113.638V143.548H111.412ZM118.368 149.553V142.28H123.269V143.548H119.906V145.281H123.017V146.548H119.906V148.285H123.283V149.553H118.368ZM124.491 149.553V142.28H127.361C127.91 142.28 128.379 142.378 128.767 142.575C129.158 142.769 129.455 143.045 129.658 143.402C129.864 143.757 129.967 144.175 129.967 144.656C129.967 145.139 129.863 145.554 129.655 145.902C129.446 146.248 129.145 146.513 128.749 146.698C128.356 146.882 127.88 146.975 127.322 146.975H125.401V145.739H127.073C127.367 145.739 127.611 145.699 127.805 145.618C127.999 145.538 128.143 145.417 128.238 145.256C128.335 145.095 128.384 144.895 128.384 144.656C128.384 144.414 128.335 144.211 128.238 144.045C128.143 143.879 127.998 143.754 127.801 143.669C127.607 143.581 127.362 143.537 127.066 143.537H126.029V149.553H124.491ZM128.419 146.243L130.227 149.553H128.529L126.761 146.243H128.419ZM132.592 142.28V149.553H131.054V142.28H132.592ZM139.94 142.28V149.553H138.612L135.448 144.975H135.394V149.553H133.857V142.28H135.206L138.345 146.854H138.409V142.28H139.94ZM146.033 144.631C145.983 144.458 145.913 144.305 145.823 144.173C145.733 144.038 145.623 143.924 145.493 143.832C145.365 143.737 145.218 143.665 145.053 143.615C144.889 143.566 144.708 143.541 144.509 143.541C144.138 143.541 143.811 143.633 143.529 143.818C143.25 144.002 143.032 144.271 142.876 144.624C142.719 144.974 142.641 145.403 142.641 145.909C142.641 146.416 142.718 146.847 142.872 147.202C143.026 147.557 143.244 147.828 143.526 148.015C143.807 148.2 144.14 148.292 144.523 148.292C144.871 148.292 145.169 148.231 145.415 148.107C145.663 147.982 145.853 147.806 145.983 147.578C146.116 147.351 146.182 147.082 146.182 146.772L146.494 146.818H144.619V145.661H147.663V146.577C147.663 147.216 147.528 147.765 147.258 148.225C146.988 148.682 146.616 149.034 146.143 149.283C145.669 149.529 145.127 149.652 144.516 149.652C143.835 149.652 143.236 149.502 142.719 149.201C142.203 148.898 141.801 148.468 141.512 147.912C141.226 147.353 141.082 146.691 141.082 145.923C141.082 145.334 141.168 144.808 141.338 144.347C141.511 143.883 141.752 143.49 142.062 143.168C142.373 142.846 142.734 142.601 143.146 142.433C143.558 142.265 144.004 142.181 144.484 142.181C144.896 142.181 145.28 142.241 145.635 142.362C145.99 142.48 146.305 142.648 146.58 142.866C146.857 143.084 147.083 143.343 147.258 143.644C147.433 143.942 147.545 144.271 147.595 144.631H146.033Z" fill="#7E3CEF"/>
<path d="M61.643 167.513V175.893C61.643 176.733 61.8496 177.379 62.263 177.833C62.6763 178.286 63.283 178.513 64.083 178.513C64.883 178.513 65.4963 178.286 65.923 177.833C66.3496 177.379 66.563 176.733 66.563 175.893V167.513H69.983V175.893C69.983 177.146 69.7163 178.206 69.183 179.073C68.6496 179.939 67.9296 180.593 67.023 181.033C66.1296 181.473 65.1296 181.693 64.023 181.693C62.9163 181.693 61.923 181.479 61.043 181.053C60.1763 180.613 59.4896 179.959 58.983 179.093C58.4763 178.213 58.223 177.146 58.223 175.893V167.513H61.643ZM78.6045 178.653V181.553H76.8645C75.6245 181.553 74.6579 181.253 73.9645 180.653C73.2712 180.039 72.9245 179.046 72.9245 177.673V173.233H71.5645V170.393H72.9245V167.673H76.3445V170.393H78.5845V173.233H76.3445V177.713C76.3445 178.046 76.4245 178.286 76.5845 178.433C76.7445 178.579 77.0112 178.653 77.3845 178.653H78.6045ZM82.2295 169.233C81.6295 169.233 81.1362 169.059 80.7495 168.713C80.3762 168.353 80.1895 167.913 80.1895 167.393C80.1895 166.859 80.3762 166.419 80.7495 166.073C81.1362 165.713 81.6295 165.533 82.2295 165.533C82.8162 165.533 83.2962 165.713 83.6695 166.073C84.0562 166.419 84.2495 166.859 84.2495 167.393C84.2495 167.913 84.0562 168.353 83.6695 168.713C83.2962 169.059 82.8162 169.233 82.2295 169.233ZM83.9295 170.393V181.553H80.5095V170.393H83.9295ZM89.828 166.753V181.553H86.408V166.753H89.828ZM94.0264 169.233C93.4264 169.233 92.9331 169.059 92.5464 168.713C92.1731 168.353 91.9864 167.913 91.9864 167.393C91.9864 166.859 92.1731 166.419 92.5464 166.073C92.9331 165.713 93.4264 165.533 94.0264 165.533C94.6131 165.533 95.0931 165.713 95.4664 166.073C95.8531 166.419 96.0464 166.859 96.0464 167.393C96.0464 167.913 95.8531 168.353 95.4664 168.713C95.0931 169.059 94.6131 169.233 94.0264 169.233ZM95.7264 170.393V181.553H92.3064V170.393H95.7264ZM104.425 178.653V181.553H102.685C101.445 181.553 100.478 181.253 99.7848 180.653C99.0915 180.039 98.7448 179.046 98.7448 177.673V173.233H97.3848V170.393H98.7448V167.673H102.165V170.393H104.405V173.233H102.165V177.713C102.165 178.046 102.245 178.286 102.405 178.433C102.565 178.579 102.832 178.653 103.205 178.653H104.425ZM108.89 170.393L111.47 177.373L114.03 170.393H117.73L110.73 186.853H107.05L109.61 181.173L105.07 170.393H108.89ZM128.855 167.513C130.335 167.513 131.629 167.806 132.735 168.393C133.842 168.979 134.695 169.806 135.295 170.873C135.909 171.926 136.215 173.146 136.215 174.533C136.215 175.906 135.909 177.126 135.295 178.193C134.695 179.259 133.835 180.086 132.715 180.673C131.609 181.259 130.322 181.553 128.855 181.553H123.595V167.513H128.855ZM128.635 178.633C129.929 178.633 130.935 178.273 131.655 177.553C132.375 176.833 132.735 175.826 132.735 174.533C132.735 173.239 132.375 172.233 131.655 171.513C130.935 170.793 129.929 170.433 128.635 170.433H127.015V178.633H128.635ZM137.447 175.953C137.447 174.806 137.66 173.799 138.087 172.933C138.527 172.066 139.12 171.399 139.867 170.933C140.613 170.466 141.447 170.233 142.367 170.233C143.153 170.233 143.84 170.393 144.427 170.713C145.027 171.033 145.487 171.453 145.807 171.973V170.393H149.227V181.553H145.807V179.973C145.473 180.493 145.007 180.913 144.407 181.233C143.82 181.553 143.133 181.713 142.347 181.713C141.44 181.713 140.613 181.479 139.867 181.013C139.12 180.533 138.527 179.859 138.087 178.993C137.66 178.113 137.447 177.099 137.447 175.953ZM145.807 175.973C145.807 175.119 145.567 174.446 145.087 173.953C144.62 173.459 144.047 173.213 143.367 173.213C142.687 173.213 142.107 173.459 141.627 173.953C141.16 174.433 140.927 175.099 140.927 175.953C140.927 176.806 141.16 177.486 141.627 177.993C142.107 178.486 142.687 178.733 143.367 178.733C144.047 178.733 144.62 178.486 145.087 177.993C145.567 177.499 145.807 176.826 145.807 175.973ZM156.221 181.713C155.261 181.713 154.401 181.546 153.641 181.213C152.881 180.879 152.281 180.426 151.841 179.853C151.401 179.266 151.154 178.613 151.101 177.893H154.481C154.521 178.306 154.694 178.639 155.001 178.893C155.321 179.133 155.721 179.253 156.201 179.253C156.628 179.253 156.954 179.166 157.181 178.993C157.421 178.819 157.541 178.586 157.541 178.293C157.541 177.973 157.374 177.733 157.041 177.573C156.708 177.413 156.161 177.246 155.401 177.073C154.601 176.886 153.934 176.693 153.401 176.493C152.881 176.293 152.428 175.973 152.041 175.533C151.668 175.079 151.481 174.479 151.481 173.733C151.481 173.079 151.654 172.493 152.001 171.973C152.361 171.439 152.881 171.019 153.561 170.713C154.241 170.393 155.054 170.233 156.001 170.233C157.401 170.233 158.501 170.579 159.301 171.273C160.114 171.966 160.581 172.886 160.701 174.033H157.541C157.488 173.619 157.314 173.299 157.021 173.073C156.741 172.833 156.368 172.713 155.901 172.713C155.501 172.713 155.194 172.793 154.981 172.953C154.768 173.113 154.661 173.339 154.661 173.633C154.661 173.953 154.828 174.193 155.161 174.353C155.508 174.513 156.041 174.673 156.761 174.833C157.574 175.033 158.248 175.239 158.781 175.453C159.314 175.653 159.774 175.986 160.161 176.453C160.548 176.906 160.741 177.519 160.741 178.293C160.741 178.946 160.561 179.533 160.201 180.053C159.841 180.573 159.314 180.979 158.621 181.273C157.941 181.566 157.141 181.713 156.221 181.713ZM169.713 170.273C170.993 170.273 172.02 170.699 172.793 171.553C173.567 172.393 173.953 173.553 173.953 175.033V181.553H170.553V175.493C170.553 174.746 170.36 174.166 169.973 173.753C169.587 173.339 169.067 173.133 168.413 173.133C167.76 173.133 167.24 173.339 166.853 173.753C166.467 174.166 166.273 174.746 166.273 175.493V181.553H162.853V166.753H166.273V171.893C166.62 171.399 167.093 171.006 167.693 170.713C168.293 170.419 168.967 170.273 169.713 170.273ZM179.75 171.973C180.07 171.453 180.53 171.033 181.13 170.713C181.73 170.393 182.417 170.233 183.19 170.233C184.11 170.233 184.943 170.466 185.69 170.933C186.437 171.399 187.023 172.066 187.45 172.933C187.89 173.799 188.11 174.806 188.11 175.953C188.11 177.099 187.89 178.113 187.45 178.993C187.023 179.859 186.437 180.533 185.69 181.013C184.943 181.479 184.11 181.713 183.19 181.713C182.403 181.713 181.717 181.559 181.13 181.253C180.543 180.933 180.083 180.513 179.75 179.993V181.553H176.33V166.753H179.75V171.973ZM184.63 175.953C184.63 175.099 184.39 174.433 183.91 173.953C183.443 173.459 182.863 173.213 182.17 173.213C181.49 173.213 180.91 173.459 180.43 173.953C179.963 174.446 179.73 175.119 179.73 175.973C179.73 176.826 179.963 177.499 180.43 177.993C180.91 178.486 181.49 178.733 182.17 178.733C182.85 178.733 183.43 178.486 183.91 177.993C184.39 177.486 184.63 176.806 184.63 175.953ZM194.984 181.713C193.891 181.713 192.904 181.479 192.024 181.013C191.157 180.546 190.471 179.879 189.964 179.013C189.471 178.146 189.224 177.133 189.224 175.973C189.224 174.826 189.477 173.819 189.984 172.953C190.491 172.073 191.184 171.399 192.064 170.933C192.944 170.466 193.931 170.233 195.024 170.233C196.117 170.233 197.104 170.466 197.984 170.933C198.864 171.399 199.557 172.073 200.064 172.953C200.571 173.819 200.824 174.826 200.824 175.973C200.824 177.119 200.564 178.133 200.044 179.013C199.537 179.879 198.837 180.546 197.944 181.013C197.064 181.479 196.077 181.713 194.984 181.713ZM194.984 178.773C195.637 178.773 196.191 178.533 196.644 178.053C197.111 177.559 197.344 176.866 197.344 175.973C197.344 175.079 197.117 174.393 196.664 173.913C196.224 173.419 195.677 173.173 195.024 173.173C194.357 173.173 193.804 173.413 193.364 173.893C192.924 174.373 192.704 175.066 192.704 175.973C192.704 176.866 192.917 177.559 193.344 178.053C193.784 178.533 194.331 178.773 194.984 178.773ZM201.958 175.953C201.958 174.806 202.172 173.799 202.598 172.933C203.038 172.066 203.632 171.399 204.378 170.933C205.125 170.466 205.958 170.233 206.878 170.233C207.665 170.233 208.352 170.393 208.938 170.713C209.538 171.033 209.998 171.453 210.318 171.973V170.393H213.738V181.553H210.318V179.973C209.985 180.493 209.518 180.913 208.918 181.233C208.332 181.553 207.645 181.713 206.858 181.713C205.952 181.713 205.125 181.479 204.378 181.013C203.632 180.533 203.038 179.859 202.598 178.993C202.172 178.113 201.958 177.099 201.958 175.953ZM210.318 175.973C210.318 175.119 210.078 174.446 209.598 173.953C209.132 173.459 208.558 173.213 207.878 173.213C207.198 173.213 206.618 173.459 206.138 173.953C205.672 174.433 205.438 175.099 205.438 175.953C205.438 176.806 205.672 177.486 206.138 177.993C206.618 178.486 207.198 178.733 207.878 178.733C208.558 178.733 209.132 178.486 209.598 177.993C210.078 177.499 210.318 176.826 210.318 175.973ZM219.633 172.393C220.033 171.739 220.533 171.226 221.133 170.853C221.746 170.466 222.413 170.273 223.133 170.273V173.893H222.193C221.339 173.893 220.699 174.079 220.273 174.453C219.846 174.813 219.633 175.453 219.633 176.373V181.553H216.213V170.393H219.633V172.393ZM224.087 175.953C224.087 174.806 224.301 173.799 224.727 172.933C225.167 172.066 225.761 171.399 226.507 170.933C227.254 170.466 228.087 170.233 229.007 170.233C229.741 170.233 230.407 170.386 231.007 170.693C231.621 170.999 232.101 171.413 232.447 171.933V166.753H235.867V181.553H232.447V179.953C232.127 180.486 231.667 180.913 231.067 181.233C230.481 181.553 229.794 181.713 229.007 181.713C228.087 181.713 227.254 181.479 226.507 181.013C225.761 180.533 225.167 179.859 224.727 178.993C224.301 178.113 224.087 177.099 224.087 175.953ZM232.447 175.973C232.447 175.119 232.207 174.446 231.727 173.953C231.261 173.459 230.687 173.213 230.007 173.213C229.327 173.213 228.747 173.459 228.267 173.953C227.801 174.433 227.567 175.099 227.567 175.953C227.567 176.806 227.801 177.486 228.267 177.993C228.747 178.486 229.327 178.733 230.007 178.733C230.687 178.733 231.261 178.486 231.727 177.993C232.207 177.499 232.447 176.826 232.447 175.973Z" fill="#111827"/>
<path d="M233.043 197.553H61.043C58.8338 197.553 57.043 199.344 57.043 201.553C57.043 203.762 58.8338 205.553 61.043 205.553H233.043C235.252 205.553 237.043 203.762 237.043 201.553C237.043 199.344 235.252 197.553 233.043 197.553Z" fill="#E5E7EB"/>
<g filter="url(#filter1_d_691_4410)">
<rect x="51.314" y="424.43" width="149.594" height="159.06" rx="16" fill="white"/>
<rect x="51.814" y="424.93" width="148.594" height="158.06" rx="15.5" stroke="#E5E7EB"/>
</g>
<path d="M105.043 446.959H87.043C82.0724 446.959 78.043 450.989 78.043 455.959V473.959C78.043 478.93 82.0724 482.959 87.043 482.959H105.043C110.014 482.959 114.043 478.93 114.043 473.959V455.959C114.043 450.989 110.014 446.959 105.043 446.959Z" fill="#F0E5FF"/>
<path d="M80.766 508.959L78.2688 500.232H80.2844L81.729 506.296H81.8015L83.3952 500.232H85.1211L86.7106 506.309H86.7873L88.2319 500.232H90.2475L87.7504 508.959H85.9521L84.2901 503.254H84.2219L82.5643 508.959H80.766ZM92.3643 509.083C91.9467 509.083 91.5746 509.011 91.2479 508.866C90.9212 508.718 90.6626 508.501 90.4723 508.214C90.2848 507.924 90.1911 507.563 90.1911 507.131C90.1911 506.768 90.2578 506.462 90.3913 506.215C90.5249 505.968 90.7067 505.769 90.9368 505.619C91.1669 505.468 91.4283 505.354 91.7209 505.278C92.0163 505.201 92.326 505.147 92.6499 505.116C93.0305 505.076 93.3374 505.039 93.5703 505.005C93.8033 504.968 93.9723 504.914 94.0774 504.843C94.1825 504.772 94.2351 504.667 94.2351 504.528V504.502C94.2351 504.232 94.1499 504.023 93.9794 503.876C93.8118 503.728 93.5732 503.654 93.2635 503.654C92.9368 503.654 92.6768 503.727 92.4837 503.871C92.2905 504.013 92.1626 504.192 92.1001 504.408L90.4212 504.272C90.5064 503.874 90.674 503.53 90.924 503.241C91.174 502.948 91.4964 502.724 91.8913 502.567C92.2891 502.408 92.7493 502.329 93.272 502.329C93.6357 502.329 93.9837 502.371 94.3161 502.457C94.6513 502.542 94.9482 502.674 95.2067 502.853C95.468 503.032 95.674 503.262 95.8246 503.543C95.9751 503.822 96.0504 504.155 96.0504 504.545V508.959H94.3288V508.052H94.2777C94.1726 508.256 94.032 508.437 93.8558 508.593C93.6797 508.746 93.468 508.867 93.2209 508.955C92.9737 509.04 92.6882 509.083 92.3643 509.083ZM92.8842 507.83C93.1513 507.83 93.3871 507.778 93.5916 507.673C93.7962 507.565 93.9567 507.42 94.0732 507.238C94.1896 507.056 94.2479 506.85 94.2479 506.62V505.925C94.1911 505.962 94.1129 505.996 94.0135 506.028C93.9169 506.056 93.8075 506.083 93.6854 506.109C93.5632 506.131 93.4411 506.153 93.3189 506.173C93.1967 506.19 93.0859 506.205 92.9865 506.219C92.7734 506.251 92.5874 506.3 92.4283 506.369C92.2692 506.437 92.1456 506.529 92.0575 506.646C91.9695 506.759 91.9254 506.901 91.9254 507.072C91.9254 507.319 92.0149 507.508 92.1939 507.638C92.3757 507.766 92.6058 507.83 92.8842 507.83ZM100.94 502.414V503.778H96.9986V502.414H100.94ZM97.8935 500.846H99.7088V506.948C99.7088 507.116 99.7344 507.246 99.7855 507.34C99.8366 507.431 99.9077 507.495 99.9986 507.532C100.092 507.569 100.2 507.587 100.322 507.587C100.408 507.587 100.493 507.58 100.578 507.566C100.663 507.549 100.729 507.536 100.774 507.528L101.06 508.879C100.969 508.907 100.841 508.94 100.676 508.977C100.511 509.016 100.311 509.04 100.075 509.049C99.6378 509.066 99.2543 509.008 98.9247 508.874C98.598 508.741 98.3438 508.533 98.1619 508.252C97.9801 507.971 97.8906 507.616 97.8935 507.187V500.846ZM105.036 509.087C104.362 509.087 103.783 508.951 103.297 508.678C102.814 508.403 102.442 508.013 102.18 507.511C101.919 507.005 101.788 506.407 101.788 505.717C101.788 505.043 101.919 504.452 102.18 503.944C102.442 503.435 102.81 503.039 103.284 502.755C103.761 502.471 104.321 502.329 104.963 502.329C105.395 502.329 105.797 502.398 106.169 502.538C106.544 502.674 106.871 502.88 107.149 503.155C107.43 503.431 107.649 503.778 107.805 504.195C107.962 504.61 108.04 505.096 108.04 505.653V506.151H102.513V505.026H106.331C106.331 504.765 106.274 504.533 106.161 504.332C106.047 504.13 105.889 503.972 105.688 503.859C105.489 503.742 105.257 503.684 104.993 503.684C104.717 503.684 104.473 503.748 104.26 503.876C104.05 504.001 103.885 504.17 103.766 504.383C103.646 504.593 103.585 504.827 103.582 505.086V506.155C103.582 506.479 103.642 506.759 103.761 506.995C103.884 507.231 104.055 507.413 104.277 507.54C104.499 507.668 104.761 507.732 105.065 507.732C105.267 507.732 105.452 507.704 105.619 507.647C105.787 507.59 105.93 507.505 106.05 507.391C106.169 507.278 106.26 507.138 106.322 506.974L108.001 507.084C107.916 507.488 107.741 507.84 107.477 508.141C107.216 508.44 106.878 508.673 106.463 508.84C106.051 509.005 105.575 509.087 105.036 509.087ZM109.224 508.959V502.414H110.984V503.556H111.053C111.172 503.15 111.372 502.843 111.653 502.636C111.935 502.425 112.259 502.32 112.625 502.32C112.716 502.32 112.814 502.326 112.919 502.337C113.024 502.349 113.116 502.364 113.196 502.384V503.995C113.111 503.969 112.993 503.947 112.842 503.927C112.692 503.907 112.554 503.897 112.429 503.897C112.162 503.897 111.923 503.955 111.713 504.072C111.506 504.185 111.341 504.344 111.219 504.549C111.099 504.754 111.04 504.989 111.04 505.256V508.959H109.224Z" fill="#111827"/>
<path d="M78.637 530.859V527.361H84.731V542.959H80.815V530.859H78.637ZM87.3925 540.099V537.063L94.3445 527.119H98.5465V536.843H100.35V540.099H98.5465V542.959H94.7845V540.099H87.3925ZM95.0485 531.255L91.3525 536.843H95.0485V531.255ZM104.327 543.135C103.667 543.135 103.124 542.945 102.699 542.563C102.288 542.167 102.083 541.683 102.083 541.111C102.083 540.525 102.288 540.033 102.699 539.637C103.124 539.241 103.667 539.043 104.327 539.043C104.972 539.043 105.5 539.241 105.911 539.637C106.336 540.033 106.549 540.525 106.549 541.111C106.549 541.683 106.336 542.167 105.911 542.563C105.5 542.945 104.972 543.135 104.327 543.135ZM108.27 539.945C108.71 539.579 108.945 539.388 108.974 539.373C110.382 538.2 111.497 537.247 112.318 536.513C113.139 535.765 113.829 534.995 114.386 534.203C114.943 533.411 115.222 532.656 115.222 531.937C115.222 531.336 115.083 530.874 114.804 530.551C114.54 530.229 114.137 530.067 113.594 530.067C112.479 530.067 111.9 530.867 111.856 532.465H108.226C108.255 531.219 108.519 530.177 109.018 529.341C109.531 528.505 110.199 527.889 111.02 527.493C111.856 527.097 112.78 526.899 113.792 526.899C114.965 526.899 115.941 527.112 116.718 527.537C117.51 527.948 118.089 528.513 118.456 529.231C118.837 529.95 119.028 530.749 119.028 531.629C119.028 533.125 118.5 534.526 117.444 535.831C116.388 537.122 115.031 538.405 113.374 539.681H119.314V542.739H108.27V539.945Z" fill="#111827"/>
<path d="M127.738 542.959V534.959H129.43V541.565H132.859V542.959H127.738Z" fill="#9CA3AF"/>
<path d="M155.043 554.959H81.043C79.3861 554.959 78.043 556.303 78.043 557.959C78.043 559.616 79.3861 560.959 81.043 560.959H155.043C156.7 560.959 158.043 559.616 158.043 557.959C158.043 556.303 156.7 554.959 155.043 554.959Z" fill="#E5E7EB"/>
<g filter="url(#filter2_d_691_4410)">
<rect x="224.691" y="424.43" width="149.594" height="159.06" rx="16" fill="white"/>
<rect x="225.191" y="424.93" width="148.594" height="158.06" rx="15.5" stroke="#E5E7EB"/>
</g>
<path d="M273.559 446.959H255.559C250.588 446.959 246.559 450.989 246.559 455.959V473.959C246.559 478.93 250.588 482.959 255.559 482.959H273.559C278.529 482.959 282.559 478.93 282.559 473.959V455.959C282.559 450.989 278.529 446.959 273.559 446.959Z" fill="#F0E5FF"/>
<path d="M247.317 508.959V500.232H249.163V503.833H252.908V500.232H254.749V508.959H252.908V505.354H249.163V508.959H247.317ZM259.219 509.087C258.546 509.087 257.967 508.951 257.481 508.678C256.998 508.403 256.626 508.013 256.364 507.511C256.103 507.005 255.972 506.407 255.972 505.717C255.972 505.043 256.103 504.452 256.364 503.944C256.626 503.435 256.993 503.039 257.468 502.755C257.945 502.471 258.505 502.329 259.147 502.329C259.579 502.329 259.981 502.398 260.353 502.538C260.728 502.674 261.055 502.88 261.333 503.155C261.614 503.431 261.833 503.778 261.989 504.195C262.145 504.61 262.224 505.096 262.224 505.653V506.151H256.697V505.026H260.515C260.515 504.765 260.458 504.533 260.344 504.332C260.231 504.13 260.073 503.972 259.871 503.859C259.672 503.742 259.441 503.684 259.177 503.684C258.901 503.684 258.657 503.748 258.444 503.876C258.234 504.001 258.069 504.17 257.949 504.383C257.83 504.593 257.769 504.827 257.766 505.086V506.155C257.766 506.479 257.826 506.759 257.945 506.995C258.067 507.231 258.239 507.413 258.461 507.54C258.682 507.668 258.945 507.732 259.249 507.732C259.451 507.732 259.636 507.704 259.803 507.647C259.971 507.59 260.114 507.505 260.234 507.391C260.353 507.278 260.444 507.138 260.506 506.974L262.185 507.084C262.1 507.488 261.925 507.84 261.661 508.141C261.4 508.44 261.062 508.673 260.647 508.84C260.235 509.005 259.759 509.087 259.219 509.087ZM265.275 509.083C264.857 509.083 264.485 509.011 264.158 508.866C263.832 508.718 263.573 508.501 263.383 508.214C263.195 507.924 263.101 507.563 263.101 507.131C263.101 506.768 263.168 506.462 263.302 506.215C263.435 505.968 263.617 505.769 263.847 505.619C264.077 505.468 264.339 505.354 264.631 505.278C264.927 505.201 265.236 505.147 265.56 505.116C265.941 505.076 266.248 505.039 266.481 505.005C266.714 504.968 266.883 504.914 266.988 504.843C267.093 504.772 267.145 504.667 267.145 504.528V504.502C267.145 504.232 267.06 504.023 266.89 503.876C266.722 503.728 266.484 503.654 266.174 503.654C265.847 503.654 265.587 503.727 265.394 503.871C265.201 504.013 265.073 504.192 265.011 504.408L263.332 504.272C263.417 503.874 263.584 503.53 263.834 503.241C264.084 502.948 264.407 502.724 264.802 502.567C265.199 502.408 265.66 502.329 266.182 502.329C266.546 502.329 266.894 502.371 267.226 502.457C267.562 502.542 267.859 502.674 268.117 502.853C268.378 503.032 268.584 503.262 268.735 503.543C268.886 503.822 268.961 504.155 268.961 504.545V508.959H267.239V508.052H267.188C267.083 508.256 266.942 508.437 266.766 508.593C266.59 508.746 266.378 508.867 266.131 508.955C265.884 509.04 265.599 509.083 265.275 509.083ZM265.795 507.83C266.062 507.83 266.297 507.778 266.502 507.673C266.707 507.565 266.867 507.42 266.984 507.238C267.1 507.056 267.158 506.85 267.158 506.62V505.925C267.101 505.962 267.023 505.996 266.924 506.028C266.827 506.056 266.718 506.083 266.596 506.109C266.474 506.131 266.351 506.153 266.229 506.173C266.107 506.19 265.996 506.205 265.897 506.219C265.684 506.251 265.498 506.3 265.339 506.369C265.18 506.437 265.056 506.529 264.968 506.646C264.88 506.759 264.836 506.901 264.836 507.072C264.836 507.319 264.925 507.508 265.104 507.638C265.286 507.766 265.516 507.83 265.795 507.83ZM273.851 502.414V503.778H269.909V502.414H273.851ZM270.804 500.846H272.619V506.948C272.619 507.116 272.645 507.246 272.696 507.34C272.747 507.431 272.818 507.495 272.909 507.532C273.003 507.569 273.111 507.587 273.233 507.587C273.318 507.587 273.403 507.58 273.489 507.566C273.574 507.549 273.639 507.536 273.685 507.528L273.97 508.879C273.879 508.907 273.751 508.94 273.587 508.977C273.422 509.016 273.221 509.04 272.986 509.049C272.548 509.066 272.165 509.008 271.835 508.874C271.508 508.741 271.254 508.533 271.072 508.252C270.891 507.971 270.801 507.616 270.804 507.187V500.846Z" fill="#111827"/>
<path d="M247.681 531.431C247.74 529.862 248.253 528.652 249.221 527.801C250.189 526.951 251.502 526.525 253.159 526.525C254.259 526.525 255.198 526.716 255.975 527.097C256.767 527.479 257.361 527.999 257.757 528.659C258.168 529.319 258.373 530.06 258.373 530.881C258.373 531.849 258.131 532.641 257.647 533.257C257.163 533.859 256.598 534.269 255.953 534.489V534.577C256.789 534.856 257.449 535.318 257.933 535.963C258.417 536.609 258.659 537.437 258.659 538.449C258.659 539.359 258.446 540.165 258.021 540.869C257.61 541.559 257.002 542.101 256.195 542.497C255.403 542.893 254.457 543.091 253.357 543.091C251.597 543.091 250.189 542.659 249.133 541.793C248.092 540.928 247.542 539.623 247.483 537.877H251.135C251.15 538.523 251.333 539.036 251.685 539.417C252.037 539.784 252.55 539.967 253.225 539.967C253.797 539.967 254.237 539.806 254.545 539.483C254.868 539.146 255.029 538.706 255.029 538.163C255.029 537.459 254.802 536.953 254.347 536.645C253.907 536.323 253.196 536.161 252.213 536.161H251.509V533.103H252.213C252.961 533.103 253.562 532.979 254.017 532.729C254.486 532.465 254.721 532.003 254.721 531.343C254.721 530.815 254.574 530.405 254.281 530.111C253.988 529.818 253.584 529.671 253.071 529.671C252.514 529.671 252.096 529.84 251.817 530.177C251.553 530.515 251.399 530.933 251.355 531.431H247.681ZM263.003 543.135C262.343 543.135 261.8 542.945 261.375 542.563C260.964 542.167 260.759 541.683 260.759 541.111C260.759 540.525 260.964 540.033 261.375 539.637C261.8 539.241 262.343 539.043 263.003 539.043C263.648 539.043 264.176 539.241 264.587 539.637C265.012 540.033 265.225 540.525 265.225 541.111C265.225 541.683 265.012 542.167 264.587 542.563C264.176 542.945 263.648 543.135 263.003 543.135ZM266.682 530.859V527.361H272.776V542.959H268.86V530.859H266.682Z" fill="#111827"/>
<path d="M288.731 539.233L288.735 537.237H288.977L290.899 534.959H292.809L290.227 537.975H289.832L288.731 539.233ZM287.223 540.959V532.959H288.887V540.959H287.223ZM290.973 540.959L289.207 538.346L290.317 537.17L292.922 540.959H290.973ZM295.457 540.959L293.168 532.959H295.016L296.34 538.518H296.406L297.867 532.959H299.449L300.906 538.53H300.977L302.301 532.959H304.149L301.86 540.959H300.211L298.688 535.729H298.625L297.106 540.959H295.457ZM306.687 537.491V540.959H305.023V532.959H306.64V536.018H306.71C306.846 535.664 307.064 535.387 307.366 535.186C307.669 534.983 308.047 534.881 308.503 534.881C308.92 534.881 309.283 534.972 309.593 535.155C309.906 535.334 310.148 535.594 310.32 535.932C310.494 536.268 310.58 536.67 310.577 537.139V540.959H308.913V537.436C308.916 537.066 308.822 536.778 308.632 536.573C308.445 536.367 308.182 536.264 307.843 536.264C307.616 536.264 307.416 536.312 307.241 536.409C307.07 536.505 306.934 536.646 306.835 536.831C306.739 537.013 306.689 537.233 306.687 537.491Z" fill="#9CA3AF"/>
<path d="M323.559 554.959H249.559C247.902 554.959 246.559 556.303 246.559 557.959C246.559 559.616 247.902 560.959 249.559 560.959H323.559C325.216 560.959 326.559 559.616 326.559 557.959C326.559 556.303 325.216 554.959 323.559 554.959Z" fill="#E5E7EB"/>
<g filter="url(#filter3_dd_691_4410)">
<rect x="398.069" y="424.43" width="324.888" height="159.06" rx="16" fill="white"/>
<rect x="399.069" y="425.43" width="322.888" height="157.06" rx="15" stroke="#7E3CEF" stroke-width="2"/>
</g>
<path d="M450.763 451.959H432.763C427.793 451.959 423.763 455.989 423.763 460.959V478.959C423.763 483.93 427.793 487.959 432.763 487.959H450.763C455.734 487.959 459.763 483.93 459.763 478.959V460.959C459.763 455.989 455.734 451.959 450.763 451.959Z" fill="#F0E5FF"/>
<path d="M430.309 508.053C430.249 507.846 430.165 507.663 430.057 507.504C429.95 507.342 429.817 507.205 429.661 507.094C429.508 506.981 429.332 506.894 429.133 506.834C428.937 506.775 428.719 506.745 428.481 506.745C428.035 506.745 427.643 506.856 427.305 507.077C426.969 507.299 426.708 507.621 426.521 508.045C426.333 508.465 426.239 508.979 426.239 509.587C426.239 510.195 426.332 510.712 426.516 511.138C426.701 511.565 426.962 511.89 427.3 512.114C427.638 512.336 428.038 512.447 428.498 512.447C428.915 512.447 429.272 512.373 429.567 512.225C429.866 512.075 430.093 511.863 430.249 511.59C430.408 511.317 430.488 510.995 430.488 510.623L430.863 510.678H428.613V509.289H432.265V510.388C432.265 511.155 432.103 511.815 431.779 512.366C431.455 512.914 431.009 513.337 430.441 513.636C429.873 513.931 429.222 514.079 428.489 514.079C427.671 514.079 426.952 513.898 426.333 513.538C425.714 513.174 425.231 512.658 424.884 511.991C424.54 511.32 424.369 510.525 424.369 509.604C424.369 508.897 424.471 508.266 424.675 507.712C424.883 507.155 425.173 506.684 425.545 506.298C425.917 505.911 426.35 505.617 426.844 505.415C427.339 505.214 427.874 505.113 428.451 505.113C428.945 505.113 429.405 505.185 429.832 505.33C430.258 505.472 430.636 505.674 430.965 505.935C431.298 506.197 431.569 506.508 431.779 506.869C431.989 507.227 432.124 507.621 432.184 508.053H430.309ZM435.483 514.083C435.066 514.083 434.693 514.011 434.367 513.866C434.04 513.718 433.782 513.501 433.591 513.214C433.404 512.924 433.31 512.563 433.31 512.131C433.31 511.768 433.377 511.462 433.51 511.215C433.644 510.968 433.826 510.769 434.056 510.619C434.286 510.468 434.547 510.354 434.84 510.278C435.135 510.201 435.445 510.147 435.769 510.116C436.149 510.076 436.456 510.039 436.689 510.005C436.922 509.968 437.091 509.914 437.196 509.843C437.301 509.772 437.354 509.667 437.354 509.528V509.502C437.354 509.232 437.269 509.023 437.098 508.876C436.931 508.728 436.692 508.654 436.382 508.654C436.056 508.654 435.796 508.727 435.603 508.871C435.409 509.013 435.282 509.192 435.219 509.408L433.54 509.272C433.625 508.874 433.793 508.53 434.043 508.241C434.293 507.948 434.615 507.724 435.01 507.567C435.408 507.408 435.868 507.329 436.391 507.329C436.755 507.329 437.103 507.371 437.435 507.457C437.77 507.542 438.067 507.674 438.326 507.853C438.587 508.032 438.793 508.262 438.943 508.543C439.094 508.822 439.169 509.155 439.169 509.545V513.959H437.448V513.052H437.397C437.291 513.256 437.151 513.437 436.975 513.593C436.799 513.746 436.587 513.867 436.34 513.955C436.093 514.04 435.807 514.083 435.483 514.083ZM436.003 512.83C436.27 512.83 436.506 512.778 436.711 512.673C436.915 512.565 437.076 512.42 437.192 512.238C437.309 512.056 437.367 511.85 437.367 511.62V510.925C437.31 510.962 437.232 510.996 437.132 511.028C437.036 511.056 436.926 511.083 436.804 511.109C436.682 511.131 436.56 511.153 436.438 511.173C436.316 511.19 436.205 511.205 436.105 511.219C435.892 511.251 435.706 511.3 435.547 511.369C435.388 511.437 435.264 511.529 435.176 511.646C435.088 511.759 435.044 511.901 435.044 512.072C435.044 512.319 435.134 512.508 435.313 512.638C435.495 512.766 435.725 512.83 436.003 512.83ZM446.024 509.28L444.362 509.383C444.333 509.241 444.272 509.113 444.179 508.999C444.085 508.883 443.961 508.79 443.808 508.722C443.657 508.651 443.477 508.616 443.267 508.616C442.985 508.616 442.748 508.675 442.555 508.795C442.362 508.911 442.265 509.067 442.265 509.263C442.265 509.42 442.328 509.552 442.453 509.66C442.578 509.768 442.792 509.854 443.096 509.92L444.281 510.158C444.917 510.289 445.392 510.499 445.704 510.789C446.017 511.079 446.173 511.459 446.173 511.931C446.173 512.36 446.046 512.736 445.794 513.06C445.544 513.384 445.2 513.637 444.762 513.819C444.328 513.998 443.826 514.087 443.258 514.087C442.392 514.087 441.701 513.907 441.187 513.546C440.676 513.182 440.376 512.688 440.288 512.063L442.073 511.969C442.127 512.234 442.258 512.435 442.465 512.575C442.673 512.711 442.938 512.779 443.262 512.779C443.581 512.779 443.836 512.718 444.029 512.596C444.225 512.471 444.325 512.31 444.328 512.114C444.325 511.95 444.255 511.815 444.119 511.709C443.983 511.602 443.772 511.519 443.488 511.462L442.355 511.236C441.715 511.109 441.24 510.887 440.927 510.572C440.617 510.256 440.463 509.854 440.463 509.366C440.463 508.945 440.576 508.583 440.804 508.279C441.034 507.975 441.356 507.741 441.771 507.576C442.188 507.411 442.677 507.329 443.237 507.329C444.063 507.329 444.714 507.504 445.188 507.853C445.666 508.202 445.944 508.678 446.024 509.28Z" fill="#111827"/>
<path d="M426.205 534.165C427.188 532.728 428.765 532.009 430.935 532.009C433.106 532.009 434.675 532.728 435.643 534.165C436.626 535.588 437.117 537.517 437.117 539.951C437.117 542.386 436.626 544.322 435.643 545.759C434.675 547.182 433.106 547.893 430.935 547.893C428.765 547.893 427.188 547.182 426.205 545.759C425.237 544.322 424.753 542.386 424.753 539.951C424.753 537.517 425.237 535.588 426.205 534.165ZM432.937 536.695C432.615 535.918 431.947 535.529 430.935 535.529C429.923 535.529 429.256 535.918 428.933 536.695C428.611 537.458 428.449 538.543 428.449 539.951C428.449 541.359 428.611 542.452 428.933 543.229C429.256 543.992 429.923 544.373 430.935 544.373C431.947 544.373 432.615 543.992 432.937 543.229C433.26 542.452 433.421 541.359 433.421 539.951C433.421 538.543 433.26 537.458 432.937 536.695ZM441.239 548.135C440.579 548.135 440.036 547.945 439.611 547.563C439.2 547.167 438.995 546.683 438.995 546.111C438.995 545.525 439.2 545.033 439.611 544.637C440.036 544.241 440.579 544.043 441.239 544.043C441.884 544.043 442.412 544.241 442.823 544.637C443.248 545.033 443.461 545.525 443.461 546.111C443.461 546.683 443.248 547.167 442.823 547.563C442.412 547.945 441.884 548.135 441.239 548.135ZM447.954 539.225C446.575 538.492 445.886 537.341 445.886 535.771C445.886 535.009 446.091 534.29 446.502 533.615C446.927 532.941 447.558 532.398 448.394 531.987C449.23 531.577 450.249 531.371 451.452 531.371C452.655 531.371 453.674 531.577 454.51 531.987C455.346 532.398 455.969 532.941 456.38 533.615C456.791 534.29 456.996 535.009 456.996 535.771C456.996 536.563 456.805 537.253 456.424 537.839C456.057 538.426 455.559 538.888 454.928 539.225C455.72 539.607 456.329 540.135 456.754 540.809C457.179 541.469 457.392 542.269 457.392 543.207C457.392 544.263 457.128 545.173 456.6 545.935C456.072 546.698 455.361 547.277 454.466 547.673C453.571 548.069 452.567 548.267 451.452 548.267C450.337 548.267 449.333 548.069 448.438 547.673C447.543 547.277 446.832 546.698 446.304 545.935C445.776 545.173 445.512 544.263 445.512 543.207C445.512 542.283 445.725 541.484 446.15 540.809C446.575 540.135 447.177 539.607 447.954 539.225ZM451.452 534.451C450.88 534.451 450.418 534.62 450.066 534.957C449.729 535.295 449.56 535.764 449.56 536.365C449.56 536.937 449.736 537.392 450.088 537.729C450.44 538.067 450.895 538.235 451.452 538.235C452.009 538.235 452.464 538.067 452.816 537.729C453.168 537.392 453.344 536.937 453.344 536.365C453.344 535.764 453.168 535.295 452.816 534.957C452.479 534.62 452.024 534.451 451.452 534.451ZM451.452 540.853C450.763 540.853 450.205 541.044 449.78 541.425C449.355 541.807 449.142 542.335 449.142 543.009C449.142 543.655 449.347 544.183 449.758 544.593C450.169 544.989 450.733 545.187 451.452 545.187C452.156 545.187 452.706 544.989 453.102 544.593C453.513 544.183 453.718 543.655 453.718 543.009C453.718 542.335 453.513 541.807 453.102 541.425C452.691 541.044 452.141 540.853 451.452 540.853Z" fill="#111827"/>
<path d="M460.427 545.959V539.959H462.013V541.018H462.084C462.209 540.667 462.417 540.389 462.709 540.186C463 539.983 463.349 539.881 463.756 539.881C464.167 539.881 464.517 539.984 464.806 540.19C465.095 540.393 465.288 540.669 465.385 541.018H465.447C465.569 540.674 465.791 540.4 466.111 540.194C466.434 539.986 466.816 539.881 467.256 539.881C467.816 539.881 468.27 540.06 468.619 540.417C468.97 540.771 469.146 541.273 469.146 541.924V545.959H467.486V542.252C467.486 541.919 467.398 541.669 467.22 541.502C467.043 541.336 466.822 541.252 466.556 541.252C466.254 541.252 466.019 541.349 465.849 541.542C465.68 541.732 465.595 541.983 465.595 542.295V545.959H463.982V542.217C463.982 541.923 463.898 541.689 463.728 541.514C463.562 541.34 463.342 541.252 463.068 541.252C462.883 541.252 462.717 541.299 462.568 541.393C462.422 541.484 462.306 541.613 462.22 541.78C462.135 541.944 462.092 542.137 462.092 542.358V545.959H460.427ZM472.211 542.022C471.817 542.022 471.467 541.961 471.16 541.838C470.855 541.716 470.613 541.547 470.433 541.331C470.254 541.112 470.16 540.858 470.152 540.569H471.379C471.392 540.715 471.476 540.828 471.633 540.909C471.791 540.989 471.984 541.03 472.211 541.03C472.445 541.03 472.644 540.984 472.808 540.893C472.972 540.799 473.054 540.669 473.054 540.502C473.054 540.346 472.971 540.217 472.804 540.116C472.64 540.012 472.413 539.959 472.121 539.959H471.57V539.073H472.121C472.363 539.073 472.558 539.025 472.707 538.928C472.855 538.829 472.929 538.703 472.929 538.549C472.929 538.398 472.864 538.277 472.734 538.186C472.607 538.092 472.437 538.045 472.226 538.045C472.005 538.045 471.816 538.09 471.66 538.178C471.504 538.267 471.422 538.384 471.414 538.53H470.261C470.267 538.246 470.357 537.997 470.531 537.784C470.708 537.568 470.945 537.4 471.242 537.28C471.539 537.16 471.871 537.1 472.238 537.1C472.61 537.1 472.936 537.161 473.215 537.284C473.493 537.406 473.709 537.571 473.863 537.78C474.019 537.988 474.097 538.22 474.097 538.475C474.097 538.756 474 538.982 473.804 539.151C473.612 539.32 473.379 539.423 473.105 539.459V539.499C473.483 539.535 473.777 539.65 473.988 539.842C474.199 540.035 474.304 540.282 474.304 540.584C474.304 540.866 474.213 541.114 474.031 541.331C473.851 541.547 473.604 541.716 473.289 541.838C472.974 541.961 472.614 542.022 472.211 542.022Z" fill="#9CA3AF"/>
<path d="M500.763 559.959H426.763C425.107 559.959 423.763 561.303 423.763 562.959C423.763 564.616 425.107 565.959 426.763 565.959H500.763C502.42 565.959 503.763 564.616 503.763 562.959C503.763 561.303 502.42 559.959 500.763 559.959Z" fill="#E5E7EB"/>
<path opacity="0.6" d="M550.176 539.238L570.068 536.352L586.586 523.348L606.479 520.461L622.997 507.458L642.889 504.571L659.408 491.567L679.3 488.681" stroke="#7E3CEF" stroke-width="4" stroke-linecap="round"/>
<g filter="url(#filter4_d_691_4410)">
<rect x="51.314" y="243.086" width="609.048" height="159.06" rx="16" fill="white"/>
<rect x="51.814" y="243.586" width="608.048" height="158.06" rx="15.5" stroke="#E5E7EB"/>
</g>
<path d="M105.043 265.616H87.043C82.0724 265.616 78.043 269.645 78.043 274.616V292.616C78.043 297.586 82.0724 301.616 87.043 301.616H105.043C110.014 301.616 114.043 297.586 114.043 292.616V274.616C114.043 269.645 110.014 265.616 105.043 265.616Z" fill="#F0E5FF"/>
<path d="M78.8015 327.616V318.888H84.6822V320.41H80.6467V322.489H84.3796V324.011H80.6467V326.094H84.6992V327.616H78.8015ZM87.9304 318.888V327.616H86.1151V318.888H87.9304ZM92.3675 327.744C91.6942 327.744 91.1147 327.607 90.6289 327.334C90.146 327.059 89.7738 326.67 89.5124 326.167C89.2511 325.661 89.1204 325.063 89.1204 324.373C89.1204 323.7 89.2511 323.109 89.5124 322.6C89.7738 322.092 90.1417 321.695 90.6161 321.411C91.0934 321.127 91.6531 320.985 92.2951 320.985C92.7269 320.985 93.1289 321.055 93.5011 321.194C93.8761 321.33 94.2028 321.536 94.4812 321.812C94.7624 322.087 94.9812 322.434 95.1374 322.852C95.2937 323.266 95.3718 323.752 95.3718 324.309V324.807H89.8448V323.682H93.663C93.663 323.421 93.6062 323.19 93.4925 322.988C93.3789 322.786 93.2212 322.629 93.0195 322.515C92.8207 322.398 92.5891 322.34 92.3249 322.34C92.0494 322.34 91.805 322.404 91.592 322.532C91.3817 322.657 91.217 322.826 91.0977 323.039C90.9783 323.249 90.9173 323.484 90.9144 323.742V324.812C90.9144 325.136 90.9741 325.415 91.0934 325.651C91.2156 325.887 91.3874 326.069 91.609 326.197C91.8306 326.325 92.0934 326.388 92.3974 326.388C92.5991 326.388 92.7837 326.36 92.9513 326.303C93.119 326.246 93.2624 326.161 93.3817 326.048C93.5011 325.934 93.592 325.795 93.6545 325.63L95.3335 325.741C95.2482 326.144 95.0735 326.496 94.8093 326.798C94.5479 327.096 94.2099 327.329 93.7951 327.496C93.3832 327.661 92.9073 327.744 92.3675 327.744ZM99.5138 327.744C98.8434 327.744 98.2667 327.602 97.7837 327.317C97.3036 327.03 96.9343 326.633 96.6758 326.124C96.4201 325.616 96.2923 325.03 96.2923 324.369C96.2923 323.698 96.4215 323.11 96.68 322.604C96.9414 322.096 97.3121 321.7 97.7923 321.415C98.2724 321.129 98.8434 320.985 99.5053 320.985C100.076 320.985 100.576 321.089 101.005 321.296C101.434 321.504 101.774 321.795 102.024 322.17C102.274 322.545 102.412 322.985 102.437 323.491H100.724C100.676 323.164 100.548 322.901 100.341 322.702C100.136 322.501 99.8675 322.4 99.5352 322.4C99.2539 322.4 99.0082 322.477 98.7979 322.63C98.5906 322.78 98.4286 323.001 98.3121 323.29C98.1957 323.58 98.1374 323.931 98.1374 324.343C98.1374 324.761 98.1942 325.116 98.3079 325.408C98.4244 325.701 98.5877 325.924 98.7979 326.077C99.0082 326.231 99.2539 326.307 99.5352 326.307C99.7425 326.307 99.9286 326.265 100.093 326.18C100.261 326.094 100.399 325.971 100.507 325.809C100.618 325.644 100.69 325.447 100.724 325.217H102.437C102.409 325.717 102.272 326.157 102.028 326.538C101.787 326.915 101.453 327.211 101.027 327.424C100.6 327.637 100.096 327.744 99.5138 327.744ZM107.081 321.07V322.434H103.139V321.07H107.081ZM104.034 319.502H105.849V325.604C105.849 325.772 105.875 325.903 105.926 325.996C105.977 326.087 106.048 326.151 106.139 326.188C106.233 326.225 106.341 326.244 106.463 326.244C106.548 326.244 106.634 326.236 106.719 326.222C106.804 326.205 106.869 326.192 106.915 326.184L107.2 327.535C107.109 327.563 106.982 327.596 106.817 327.633C106.652 327.673 106.452 327.697 106.216 327.705C105.778 327.722 105.395 327.664 105.065 327.53C104.739 327.397 104.484 327.19 104.303 326.908C104.121 326.627 104.031 326.272 104.034 325.843V319.502ZM108.263 327.616V321.07H110.023V322.212H110.092C110.211 321.806 110.411 321.499 110.692 321.292C110.974 321.082 111.298 320.977 111.664 320.977C111.755 320.977 111.853 320.982 111.958 320.994C112.063 321.005 112.156 321.021 112.235 321.04V322.651C112.15 322.626 112.032 322.603 111.881 322.583C111.731 322.563 111.593 322.553 111.468 322.553C111.201 322.553 110.962 322.611 110.752 322.728C110.545 322.842 110.38 323.001 110.258 323.205C110.138 323.41 110.079 323.646 110.079 323.913V327.616H108.263ZM113.174 327.616V321.07H114.989V327.616H113.174ZM114.086 320.227C113.816 320.227 113.584 320.137 113.391 319.958C113.201 319.776 113.105 319.559 113.105 319.306C113.105 319.056 113.201 318.842 113.391 318.663C113.584 318.481 113.816 318.39 114.086 318.39C114.355 318.39 114.586 318.481 114.776 318.663C114.969 318.842 115.066 319.056 115.066 319.306C115.066 319.559 114.969 319.776 114.776 319.958C114.586 320.137 114.355 320.227 114.086 320.227ZM119.401 327.744C118.73 327.744 118.153 327.602 117.67 327.317C117.19 327.03 116.821 326.633 116.562 326.124C116.307 325.616 116.179 325.03 116.179 324.369C116.179 323.698 116.308 323.11 116.567 322.604C116.828 322.096 117.199 321.7 117.679 321.415C118.159 321.129 118.73 320.985 119.392 320.985C119.963 320.985 120.463 321.089 120.892 321.296C121.321 321.504 121.661 321.795 121.911 322.17C122.161 322.545 122.298 322.985 122.324 323.491H120.611C120.563 323.164 120.435 322.901 120.227 322.702C120.023 322.501 119.754 322.4 119.422 322.4C119.141 322.4 118.895 322.477 118.685 322.63C118.477 322.78 118.315 323.001 118.199 323.29C118.082 323.58 118.024 323.931 118.024 324.343C118.024 324.761 118.081 325.116 118.195 325.408C118.311 325.701 118.474 325.924 118.685 326.077C118.895 326.231 119.141 326.307 119.422 326.307C119.629 326.307 119.815 326.265 119.98 326.18C120.148 326.094 120.286 325.971 120.393 325.809C120.504 325.644 120.577 325.447 120.611 325.217H122.324C122.295 325.717 122.159 326.157 121.915 326.538C121.673 326.915 121.339 327.211 120.913 327.424C120.487 327.637 119.983 327.744 119.401 327.744ZM123.486 327.616V321.07H125.301V327.616H123.486ZM124.398 320.227C124.128 320.227 123.897 320.137 123.703 319.958C123.513 319.776 123.418 319.559 123.418 319.306C123.418 319.056 123.513 318.842 123.703 318.663C123.897 318.481 124.128 318.39 124.398 318.39C124.668 318.39 124.898 318.481 125.088 318.663C125.282 318.842 125.378 319.056 125.378 319.306C125.378 319.559 125.282 319.776 125.088 319.958C124.898 320.137 124.668 320.227 124.398 320.227ZM130.237 321.07V322.434H126.295V321.07H130.237ZM127.19 319.502H129.006V325.604C129.006 325.772 129.031 325.903 129.082 325.996C129.134 326.087 129.205 326.151 129.295 326.188C129.389 326.225 129.497 326.244 129.619 326.244C129.705 326.244 129.79 326.236 129.875 326.222C129.96 326.205 130.026 326.192 130.071 326.184L130.357 327.535C130.266 327.563 130.138 327.596 129.973 327.633C129.808 327.673 129.608 327.697 129.372 327.705C128.935 327.722 128.551 327.664 128.222 327.53C127.895 327.397 127.641 327.19 127.459 326.908C127.277 326.627 127.188 326.272 127.19 325.843V319.502ZM132.54 330.07C132.31 330.07 132.094 330.052 131.893 330.015C131.694 329.981 131.529 329.937 131.398 329.883L131.808 328.528C132.021 328.593 132.212 328.629 132.383 328.634C132.556 328.64 132.705 328.6 132.83 328.515C132.958 328.43 133.062 328.285 133.141 328.08L133.248 327.803L130.9 321.07H132.809L134.164 325.877H134.232L135.6 321.07H137.522L134.978 328.323C134.856 328.675 134.69 328.982 134.479 329.244C134.272 329.508 134.009 329.711 133.691 329.853C133.373 329.998 132.989 330.07 132.54 330.07Z" fill="#111827"/>
<path d="M78.901 358.602C79.341 358.235 79.5756 358.044 79.605 358.03C81.013 356.856 82.1276 355.903 82.949 355.17C83.7703 354.422 84.4596 353.652 85.017 352.86C85.5743 352.068 85.853 351.312 85.853 350.594C85.853 349.992 85.7136 349.53 85.435 349.208C85.171 348.885 84.7676 348.724 84.225 348.724C83.1103 348.724 82.531 349.523 82.487 351.122H78.857C78.8863 349.875 79.1503 348.834 79.649 347.998C80.1623 347.162 80.8296 346.546 81.651 346.15C82.487 345.754 83.411 345.556 84.423 345.556C85.5963 345.556 86.5716 345.768 87.349 346.194C88.141 346.604 88.7203 347.169 89.087 347.888C89.4683 348.606 89.659 349.406 89.659 350.286C89.659 351.782 89.131 353.182 88.075 354.488C87.019 355.778 85.6623 357.062 84.005 358.338H89.945V361.396H78.901V358.602ZM93.7353 361.792C93.0753 361.792 92.5327 361.601 92.1073 361.22C91.6967 360.824 91.4913 360.34 91.4913 359.768C91.4913 359.181 91.6967 358.69 92.1073 358.294C92.5327 357.898 93.0753 357.7 93.7353 357.7C94.3807 357.7 94.9087 357.898 95.3193 358.294C95.7447 358.69 95.9573 359.181 95.9573 359.768C95.9573 360.34 95.7447 360.824 95.3193 361.22C94.9087 361.601 94.3807 361.792 93.7353 361.792ZM97.8983 358.756V355.72L104.85 345.776H109.052V355.5H110.856V358.756H109.052V361.616H105.29V358.756H97.8983ZM105.554 349.912L101.858 355.5H105.554V349.912Z" fill="#111827"/>
<path d="M120.215 357.889L120.219 355.893H120.461L122.383 353.616H124.293L121.711 356.631H121.316L120.215 357.889ZM118.707 359.616V351.616H120.371V359.616H118.707ZM122.457 359.616L120.691 357.002L121.801 355.827L124.406 359.616H122.457ZM126.941 359.616L124.652 351.616H126.5L127.824 357.174H127.891L129.352 351.616H130.934L132.391 357.186H132.461L133.785 351.616H135.633L133.344 359.616H131.695L130.172 354.385H130.109L128.59 359.616H126.941ZM138.171 356.147V359.616H136.507V351.616H138.124V354.674H138.194C138.33 354.32 138.549 354.043 138.851 353.842C139.153 353.639 139.532 353.538 139.987 353.538C140.404 353.538 140.767 353.629 141.077 353.811C141.39 353.991 141.632 354.25 141.804 354.588C141.978 354.924 142.064 355.327 142.062 355.795V359.616H140.397V356.092C140.4 355.722 140.306 355.435 140.116 355.229C139.929 355.023 139.666 354.92 139.327 354.92C139.101 354.92 138.9 354.969 138.726 355.065C138.554 355.161 138.418 355.302 138.319 355.487C138.223 355.669 138.174 355.889 138.171 356.147Z" fill="#9CA3AF"/>
<path d="M155.043 373.616H81.043C79.3861 373.616 78.043 374.959 78.043 376.616C78.043 378.273 79.3861 379.616 81.043 379.616H155.043C156.7 379.616 158.043 378.273 158.043 376.616C158.043 374.959 156.7 373.616 155.043 373.616Z" fill="#E5E7EB"/>
<path d="M441.244 333.326H412.799C410.554 333.326 408.735 335.791 408.735 338.833V358.108C408.735 361.15 410.554 363.615 412.799 363.615H441.244C443.489 363.615 445.308 361.15 445.308 358.108V338.833C445.308 335.791 443.489 333.326 441.244 333.326Z" fill="#E5E7EB"/>
<path d="M485.945 316.804H457.499C455.255 316.804 453.436 319.27 453.436 322.311V358.108C453.436 361.15 455.255 363.616 457.499 363.616H485.945C488.189 363.616 490.009 361.15 490.009 358.108V322.311C490.009 319.27 488.189 316.804 485.945 316.804Z" fill="#E5E7EB"/>
<path d="M530.645 305.79H502.199C499.955 305.79 498.136 308.256 498.136 311.297V358.109C498.136 361.15 499.955 363.616 502.199 363.616H530.645C532.889 363.616 534.709 361.15 534.709 358.109V311.297C534.709 308.256 532.889 305.79 530.645 305.79Z" fill="#E5E7EB"/>
<path d="M575.346 314.051H546.9C544.656 314.051 542.836 316.516 542.836 319.558V358.109C542.836 361.15 544.656 363.616 546.9 363.616H575.346C577.59 363.616 579.409 361.15 579.409 358.109V319.558C579.409 316.516 577.59 314.051 575.346 314.051Z" fill="#E5E7EB"/>
<path d="M620.046 291.616H591.6C589.356 291.616 587.537 294.419 587.537 297.877V357.355C587.537 360.813 589.356 363.616 591.6 363.616H620.046C622.29 363.616 624.11 360.813 624.11 357.355V297.877C624.11 294.419 622.29 291.616 620.046 291.616Z" fill="#7E3CEF"/>
<defs>
<filter id="filter0_dd_691_4410" x="13.043" y="99.5527" width="704" height="568.895" filterUnits="userSpaceOnUse" color-interpolation-filters="sRGB">
<feFlood flood-opacity="0" result="BackgroundImageFix"/>
<feColorMatrix in="SourceAlpha" type="matrix" values="0 0 0 0 0 0 0 0 0 0 0 0 0 0 0 0 0 0 127 0" result="hardAlpha"/>
<feMorphology radius="2" operator="erode" in="SourceAlpha" result="effect1_dropShadow_691_4410"/>
<feOffset dy="4"/>
<feGaussianBlur stdDeviation="3"/>
<feColorMatrix type="matrix" values="0 0 0 0 0 0 0 0 0 0 0 0 0 0 0 0 0 0 0.05 0"/>
<feBlend mode="normal" in2="BackgroundImageFix" result="effect1_dropShadow_691_4410"/>
<feColorMatrix in="SourceAlpha" type="matrix" values="0 0 0 0 0 0 0 0 0 0 0 0 0 0 0 0 0 0 127 0" result="hardAlpha"/>
<feMorphology radius="3" operator="erode" in="SourceAlpha" result="effect2_dropShadow_691_4410"/>
<feOffset dy="10"/>
<feGaussianBlur stdDeviation="7.5"/>
<feColorMatrix type="matrix" values="0 0 0 0 0 0 0 0 0 0 0 0 0 0 0 0 0 0 0.1 0"/>
<feBlend mode="normal" in2="effect1_dropShadow_691_4410" result="effect2_dropShadow_691_4410"/>
<feBlend mode="normal" in="SourceGraphic" in2="effect2_dropShadow_691_4410" result="shape"/>
</filter>
<filter id="filter1_d_691_4410" x="47.314" y="422.43" width="157.594" height="167.06" filterUnits="userSpaceOnUse" color-interpolation-filters="sRGB">
<feFlood flood-opacity="0" result="BackgroundImageFix"/>
<feColorMatrix in="SourceAlpha" type="matrix" values="0 0 0 0 0 0 0 0 0 0 0 0 0 0 0 0 0 0 127 0" result="hardAlpha"/>
<feOffset dy="2"/>
<feGaussianBlur stdDeviation="2"/>
<feColorMatrix type="matrix" values="0 0 0 0 0 0 0 0 0 0 0 0 0 0 0 0 0 0 0.18 0"/>
<feBlend mode="normal" in2="BackgroundImageFix" result="effect1_dropShadow_691_4410"/>
<feBlend mode="normal" in="SourceGraphic" in2="effect1_dropShadow_691_4410" result="shape"/>
</filter>
<filter id="filter2_d_691_4410" x="220.691" y="422.43" width="157.594" height="167.06" filterUnits="userSpaceOnUse" color-interpolation-filters="sRGB">
<feFlood flood-opacity="0" result="BackgroundImageFix"/>
<feColorMatrix in="SourceAlpha" type="matrix" values="0 0 0 0 0 0 0 0 0 0 0 0 0 0 0 0 0 0 127 0" result="hardAlpha"/>
<feOffset dy="2"/>
<feGaussianBlur stdDeviation="2"/>
<feColorMatrix type="matrix" values="0 0 0 0 0 0 0 0 0 0 0 0 0 0 0 0 0 0 0.18 0"/>
<feBlend mode="normal" in2="BackgroundImageFix" result="effect1_dropShadow_691_4410"/>
<feBlend mode="normal" in="SourceGraphic" in2="effect1_dropShadow_691_4410" result="shape"/>
</filter>
<filter id="filter3_dd_691_4410" x="386.069" y="422.43" width="348.888" height="183.06" filterUnits="userSpaceOnUse" color-interpolation-filters="sRGB">
<feFlood flood-opacity="0" result="BackgroundImageFix"/>
<feColorMatrix in="SourceAlpha" type="matrix" values="0 0 0 0 0 0 0 0 0 0 0 0 0 0 0 0 0 0 127 0" result="hardAlpha"/>
<feMorphology radius="2" operator="erode" in="SourceAlpha" result="effect1_dropShadow_691_4410"/>
<feOffset dy="4"/>
<feGaussianBlur stdDeviation="3"/>
<feColorMatrix type="matrix" values="0 0 0 0 0 0 0 0 0 0 0 0 0 0 0 0 0 0 0.05 0"/>
<feBlend mode="normal" in2="BackgroundImageFix" result="effect1_dropShadow_691_4410"/>
<feColorMatrix in="SourceAlpha" type="matrix" values="0 0 0 0 0 0 0 0 0 0 0 0 0 0 0 0 0 0 127 0" result="hardAlpha"/>
<feMorphology radius="3" operator="erode" in="SourceAlpha" result="effect2_dropShadow_691_4410"/>
<feOffset dy="10"/>
<feGaussianBlur stdDeviation="7.5"/>
<feColorMatrix type="matrix" values="0 0 0 0 0 0 0 0 0 0 0 0 0 0 0 0 0 0 0.1 0"/>
<feBlend mode="normal" in2="effect1_dropShadow_691_4410" result="effect2_dropShadow_691_4410"/>
<feBlend mode="normal" in="SourceGraphic" in2="effect2_dropShadow_691_4410" result="shape"/>
</filter>
<filter id="filter4_d_691_4410" x="47.314" y="241.086" width="332.888" height="167.06" filterUnits="userSpaceOnUse" color-interpolation-filters="sRGB">
<feFlood flood-opacity="0" result="BackgroundImageFix"/>
<feColorMatrix in="SourceAlpha" type="matrix" values="0 0 0 0 0 0 0 0 0 0 0 0 0 0 0 0 0 0 127 0" result="hardAlpha"/>
<feOffset dy="2"/>
<feGaussianBlur stdDeviation="2"/>
<feColorMatrix type="matrix" values="0 0 0 0 0 0 0 0 0 0 0 0 0 0 0 0 0 0 0.18 0"/>
<feBlend mode="normal" in2="BackgroundImageFix" result="effect1_dropShadow_691_4410"/>
<feBlend mode="normal" in="SourceGraphic" in2="effect1_dropShadow_691_4410" result="shape"/>
</filter>
</defs>
</svg>
