<svg width="748" height="748" viewBox="0 0 748 748" fill="none" xmlns="http://www.w3.org/2000/svg">
<g filter="url(#filter0_dd_691_4306)">
<rect x="30.6809" y="61.4819" width="686.638" height="319.491" rx="25.7345" fill="white"/>
</g>
<g filter="url(#filter1_dd_691_4306)">
<rect x="30.6809" y="394.772" width="219.532" height="291.746" rx="25.7345" fill="white"/>
</g>
<rect x="264.234" y="394.772" width="219.532" height="291.746" rx="25.7345" fill="#8F4FF9"/>
<g filter="url(#filter2_dd_691_4306)">
<rect x="497.787" y="394.772" width="219.532" height="291.746" rx="25.7345" fill="white"/>
</g>
<path d="M79.3379 119.773L76.2069 114.09H75.3276V119.773H71.6604V104.719H77.8153C79.0019 104.719 80.0098 104.926 80.8391 105.341C81.6826 105.755 82.3116 106.327 82.7263 107.056C83.1409 107.771 83.3482 108.572 83.3482 109.458C83.3482 110.459 83.0622 111.353 82.4904 112.139C81.9328 112.925 81.1035 113.483 80.0027 113.812L83.4768 119.773H79.3379ZM75.3276 111.496H77.6008C78.2728 111.496 78.7731 111.331 79.102 111.002C79.4451 110.673 79.6167 110.209 79.6167 109.608C79.6167 109.022 79.4451 108.565 79.102 108.236C78.7731 107.893 78.2728 107.721 77.6008 107.721H75.3276V111.496ZM84.9211 113.769C84.9211 112.539 85.1498 111.46 85.6073 110.53C86.0791 109.601 86.7153 108.886 87.5159 108.386C88.3166 107.886 89.2101 107.635 90.1966 107.635C91.0401 107.635 91.7764 107.807 92.4055 108.15C93.0489 108.493 93.5421 108.944 93.8852 109.501V107.807H97.5524V119.773H93.8852V118.079C93.5278 118.637 93.0274 119.087 92.3841 119.43C91.755 119.773 91.0187 119.945 90.1752 119.945C89.203 119.945 88.3166 119.695 87.5159 119.194C86.7153 118.68 86.0791 117.958 85.6073 117.028C85.1498 116.085 84.9211 114.998 84.9211 113.769ZM93.8852 113.79C93.8852 112.875 93.6279 112.153 93.1132 111.624C92.6128 111.095 91.998 110.831 91.2689 110.831C90.5397 110.831 89.9178 111.095 89.4031 111.624C88.9027 112.139 88.6526 112.854 88.6526 113.769C88.6526 114.684 88.9027 115.413 89.4031 115.956C89.9178 116.485 90.5397 116.75 91.2689 116.75C91.998 116.75 92.6128 116.485 93.1132 115.956C93.6279 115.427 93.8852 114.705 93.8852 113.79ZM106.875 116.664V119.773H105.009C103.68 119.773 102.643 119.452 101.9 118.808C101.156 118.151 100.784 117.086 100.784 115.613V110.852H99.3262V107.807H100.784V104.89H104.452V107.807H106.853V110.852H104.452V115.656C104.452 116.013 104.537 116.271 104.709 116.428C104.881 116.585 105.166 116.664 105.567 116.664H106.875ZM120.198 113.576C120.198 113.905 120.176 114.255 120.134 114.627H111.834C111.891 115.384 112.127 115.963 112.542 116.364C112.956 116.764 113.478 116.964 114.107 116.964C115.022 116.964 115.659 116.578 116.016 115.806H119.919C119.719 116.592 119.354 117.3 118.825 117.929C118.311 118.558 117.66 119.051 116.874 119.409C116.088 119.766 115.208 119.945 114.236 119.945C113.064 119.945 112.02 119.695 111.105 119.194C110.19 118.694 109.475 117.979 108.961 117.05C108.446 116.121 108.188 115.034 108.188 113.79C108.188 112.546 108.439 111.46 108.939 110.53C109.454 109.601 110.169 108.886 111.084 108.386C111.999 107.886 113.049 107.635 114.236 107.635C115.394 107.635 116.424 107.878 117.324 108.364C118.225 108.851 118.925 109.544 119.426 110.445C119.941 111.345 120.198 112.389 120.198 113.576ZM116.445 112.761C116.445 112.075 116.23 111.538 115.802 111.152C115.373 110.766 114.837 110.573 114.193 110.573C113.564 110.573 113.035 110.766 112.606 111.152C112.192 111.524 111.934 112.06 111.834 112.761H116.445ZM134.216 119.924C132.8 119.924 131.499 119.595 130.313 118.937C129.14 118.279 128.204 117.364 127.503 116.192C126.817 115.005 126.474 113.676 126.474 112.203C126.474 110.731 126.817 109.408 127.503 108.236C128.204 107.063 129.14 106.148 130.313 105.491C131.499 104.833 132.8 104.504 134.216 104.504C135.631 104.504 136.925 104.833 138.097 105.491C139.284 106.148 140.213 107.063 140.885 108.236C141.572 109.408 141.915 110.731 141.915 112.203C141.915 113.676 141.572 115.005 140.885 116.192C140.199 117.364 139.27 118.279 138.097 118.937C136.925 119.595 135.631 119.924 134.216 119.924ZM134.216 116.535C135.417 116.535 136.375 116.142 137.089 115.356C137.819 114.569 138.183 113.519 138.183 112.203C138.183 110.888 137.819 109.837 137.089 109.051C136.375 108.264 135.417 107.871 134.216 107.871C133.001 107.871 132.028 108.264 131.299 109.051C130.584 109.837 130.227 110.888 130.227 112.203C130.227 113.519 130.584 114.569 131.299 115.356C132.028 116.142 133.001 116.535 134.216 116.535ZM147.622 109.501C147.979 108.944 148.473 108.493 149.102 108.15C149.731 107.807 150.467 107.635 151.311 107.635C152.297 107.635 153.191 107.886 153.991 108.386C154.792 108.886 155.421 109.601 155.879 110.53C156.35 111.46 156.586 112.539 156.586 113.769C156.586 114.998 156.35 116.085 155.879 117.028C155.421 117.958 154.792 118.68 153.991 119.194C153.191 119.695 152.297 119.945 151.311 119.945C150.481 119.945 149.745 119.773 149.102 119.43C148.473 119.087 147.979 118.644 147.622 118.101V125.478H143.955V107.807H147.622V109.501ZM152.855 113.769C152.855 112.854 152.597 112.139 152.083 111.624C151.582 111.095 150.96 110.831 150.217 110.831C149.488 110.831 148.866 111.095 148.351 111.624C147.851 112.153 147.601 112.875 147.601 113.79C147.601 114.705 147.851 115.427 148.351 115.956C148.866 116.485 149.488 116.75 150.217 116.75C150.946 116.75 151.568 116.485 152.083 115.956C152.597 115.413 152.855 114.684 152.855 113.769ZM165.18 116.664V119.773H163.314C161.984 119.773 160.948 119.452 160.204 118.808C159.461 118.151 159.089 117.086 159.089 115.613V110.852H157.631V107.807H159.089V104.89H162.756V107.807H165.158V110.852H162.756V115.656C162.756 116.013 162.842 116.271 163.014 116.428C163.185 116.585 163.471 116.664 163.871 116.664H165.18ZM169.067 106.563C168.423 106.563 167.894 106.377 167.48 106.005C167.079 105.619 166.879 105.148 166.879 104.59C166.879 104.018 167.079 103.546 167.48 103.175C167.894 102.789 168.423 102.596 169.067 102.596C169.696 102.596 170.21 102.789 170.611 103.175C171.025 103.546 171.233 104.018 171.233 104.59C171.233 105.148 171.025 105.619 170.611 106.005C170.21 106.377 169.696 106.563 169.067 106.563ZM170.889 107.807V119.773H167.222V107.807H170.889ZM188.816 107.678C190.303 107.678 191.483 108.129 192.355 109.029C193.241 109.93 193.684 111.181 193.684 112.782V119.773H190.039V113.275C190.039 112.503 189.831 111.91 189.417 111.496C189.016 111.067 188.459 110.852 187.744 110.852C187.029 110.852 186.464 111.067 186.05 111.496C185.649 111.91 185.449 112.503 185.449 113.275V119.773H181.803V113.275C181.803 112.503 181.596 111.91 181.182 111.496C180.781 111.067 180.224 110.852 179.509 110.852C178.794 110.852 178.229 111.067 177.815 111.496C177.414 111.91 177.214 112.503 177.214 113.275V119.773H173.547V107.807H177.214V109.308C177.586 108.808 178.072 108.415 178.672 108.129C179.273 107.828 179.952 107.678 180.71 107.678C181.61 107.678 182.411 107.871 183.112 108.257C183.827 108.643 184.384 109.194 184.784 109.909C185.199 109.251 185.764 108.715 186.479 108.3C187.193 107.886 187.973 107.678 188.816 107.678ZM198.093 106.563C197.45 106.563 196.921 106.377 196.506 106.005C196.106 105.619 195.906 105.148 195.906 104.59C195.906 104.018 196.106 103.546 196.506 103.175C196.921 102.789 197.45 102.596 198.093 102.596C198.722 102.596 199.237 102.789 199.637 103.175C200.052 103.546 200.259 104.018 200.259 104.59C200.259 105.148 200.052 105.619 199.637 106.005C199.237 106.377 198.722 106.563 198.093 106.563ZM199.916 107.807V119.773H196.249V107.807H199.916ZM206.005 116.75H211.195V119.773H201.909V116.857L206.884 110.831H201.952V107.807H211.088V110.723L206.005 116.75ZM212.483 113.769C212.483 112.539 212.712 111.46 213.17 110.53C213.642 109.601 214.278 108.886 215.078 108.386C215.879 107.886 216.773 107.635 217.759 107.635C218.603 107.635 219.339 107.807 219.968 108.15C220.611 108.493 221.105 108.944 221.448 109.501V107.807H225.115V119.773H221.448V118.079C221.09 118.637 220.59 119.087 219.946 119.43C219.317 119.773 218.581 119.945 217.738 119.945C216.765 119.945 215.879 119.695 215.078 119.194C214.278 118.68 213.642 117.958 213.17 117.028C212.712 116.085 212.483 114.998 212.483 113.769ZM221.448 113.79C221.448 112.875 221.19 112.153 220.676 111.624C220.175 111.095 219.56 110.831 218.831 110.831C218.102 110.831 217.48 111.095 216.966 111.624C216.465 112.139 216.215 112.854 216.215 113.769C216.215 114.684 216.465 115.413 216.966 115.956C217.48 116.485 218.102 116.75 218.831 116.75C219.56 116.75 220.175 116.485 220.676 115.956C221.19 115.427 221.448 114.705 221.448 113.79ZM234.437 116.664V119.773H232.572C231.242 119.773 230.205 119.452 229.462 118.808C228.719 118.151 228.347 117.086 228.347 115.613V110.852H226.889V107.807H228.347V104.89H232.014V107.807H234.416V110.852H232.014V115.656C232.014 116.013 232.1 116.271 232.271 116.428C232.443 116.585 232.729 116.664 233.129 116.664H234.437ZM238.324 106.563C237.681 106.563 237.152 106.377 236.737 106.005C236.337 105.619 236.137 105.148 236.137 104.59C236.137 104.018 236.337 103.546 236.737 103.175C237.152 102.789 237.681 102.596 238.324 102.596C238.953 102.596 239.468 102.789 239.868 103.175C240.283 103.546 240.49 104.018 240.49 104.59C240.49 105.148 240.283 105.619 239.868 106.005C239.468 106.377 238.953 106.563 238.324 106.563ZM240.147 107.807V119.773H236.48V107.807H240.147ZM248.252 119.945C247.08 119.945 246.022 119.695 245.078 119.194C244.149 118.694 243.412 117.979 242.869 117.05C242.34 116.121 242.076 115.034 242.076 113.79C242.076 112.561 242.347 111.481 242.891 110.552C243.434 109.608 244.177 108.886 245.121 108.386C246.064 107.886 247.122 107.635 248.295 107.635C249.467 107.635 250.525 107.886 251.469 108.386C252.412 108.886 253.156 109.608 253.699 110.552C254.242 111.481 254.514 112.561 254.514 113.79C254.514 115.02 254.235 116.106 253.678 117.05C253.134 117.979 252.384 118.694 251.426 119.194C250.482 119.695 249.424 119.945 248.252 119.945ZM248.252 116.793C248.952 116.793 249.546 116.535 250.032 116.02C250.532 115.492 250.782 114.748 250.782 113.79C250.782 112.832 250.539 112.096 250.053 111.581C249.582 111.052 248.995 110.788 248.295 110.788C247.58 110.788 246.987 111.045 246.515 111.56C246.043 112.075 245.807 112.818 245.807 113.79C245.807 114.748 246.036 115.492 246.493 116.02C246.965 116.535 247.551 116.793 248.252 116.793ZM263.751 107.678C265.152 107.678 266.267 108.136 267.096 109.051C267.94 109.951 268.362 111.195 268.362 112.782V119.773H264.716V113.275C264.716 112.475 264.509 111.853 264.094 111.41C263.679 110.967 263.122 110.745 262.421 110.745C261.721 110.745 261.163 110.967 260.749 111.41C260.334 111.853 260.127 112.475 260.127 113.275V119.773H256.459V107.807H260.127V109.394C260.498 108.865 260.999 108.45 261.628 108.15C262.257 107.835 262.965 107.678 263.751 107.678Z" fill="#111827"/>
<path d="M199.003 137.239H74.6199C72.2511 137.239 70.3308 139.159 70.3308 141.528C70.3308 143.897 72.2511 145.817 74.6199 145.817H199.003C201.372 145.817 203.292 143.897 203.292 141.528C203.292 139.159 201.372 137.239 199.003 137.239Z" fill="#E5E7EB"/>
<path d="M542.023 221.195H537.842V209.399H542.058C543.245 209.399 544.266 209.635 545.122 210.107C545.979 210.576 546.637 211.25 547.098 212.129C547.563 213.008 547.795 214.061 547.795 215.286C547.795 216.514 547.563 217.57 547.098 218.454C546.637 219.337 545.975 220.015 545.111 220.487C544.251 220.959 543.222 221.195 542.023 221.195ZM540.336 219.058H541.92C542.657 219.058 543.277 218.928 543.78 218.667C544.287 218.402 544.667 217.993 544.921 217.44C545.178 216.883 545.307 216.165 545.307 215.286C545.307 214.414 545.178 213.702 544.921 213.149C544.667 212.596 544.289 212.189 543.786 211.927C543.283 211.666 542.663 211.536 541.926 211.536H540.336V219.058ZM553.628 221.368C552.718 221.368 551.935 221.184 551.278 220.815C550.625 220.443 550.122 219.917 549.769 219.237C549.416 218.553 549.239 217.745 549.239 216.812C549.239 215.902 549.416 215.103 549.769 214.416C550.122 213.728 550.62 213.193 551.261 212.809C551.906 212.425 552.663 212.233 553.53 212.233C554.114 212.233 554.657 212.327 555.161 212.515C555.667 212.699 556.109 212.978 556.485 213.35C556.865 213.723 557.161 214.191 557.372 214.756C557.584 215.316 557.689 215.973 557.689 216.726V217.399H550.218V215.879H555.379C555.379 215.526 555.303 215.213 555.149 214.94C554.995 214.667 554.782 214.454 554.51 214.301C554.241 214.143 553.928 214.064 553.571 214.064C553.198 214.064 552.868 214.151 552.58 214.324C552.296 214.493 552.073 214.721 551.912 215.009C551.751 215.293 551.668 215.61 551.664 215.959V217.405C551.664 217.843 551.745 218.221 551.906 218.54C552.071 218.859 552.304 219.104 552.603 219.277C552.903 219.45 553.258 219.536 553.669 219.536C553.941 219.536 554.191 219.498 554.417 219.421C554.644 219.344 554.838 219.229 554.999 219.076C555.161 218.922 555.283 218.734 555.368 218.511L557.637 218.661C557.522 219.206 557.286 219.682 556.929 220.089C556.576 220.493 556.119 220.807 555.558 221.034C555.001 221.257 554.358 221.368 553.628 221.368ZM559.29 221.195V212.348H561.629V213.909H561.733C561.917 213.391 562.224 212.982 562.654 212.682C563.084 212.383 563.599 212.233 564.198 212.233C564.805 212.233 565.321 212.384 565.747 212.688C566.174 212.987 566.458 213.394 566.6 213.909H566.692C566.873 213.402 567.199 212.997 567.671 212.694C568.147 212.386 568.71 212.233 569.359 212.233C570.184 212.233 570.855 212.496 571.369 213.022C571.888 213.544 572.147 214.285 572.147 215.245V221.195H569.699V215.729C569.699 215.238 569.568 214.869 569.307 214.623C569.046 214.377 568.72 214.255 568.328 214.255C567.882 214.255 567.535 214.397 567.285 214.681C567.036 214.961 566.911 215.332 566.911 215.792V221.195H564.532V215.677C564.532 215.243 564.407 214.898 564.158 214.64C563.912 214.383 563.587 214.255 563.184 214.255C562.912 214.255 562.666 214.324 562.447 214.462C562.232 214.596 562.061 214.786 561.934 215.032C561.808 215.274 561.744 215.558 561.744 215.885V221.195H559.29ZM576.608 221.362C576.043 221.362 575.54 221.264 575.099 221.069C574.657 220.869 574.308 220.575 574.05 220.187C573.797 219.796 573.67 219.308 573.67 218.724C573.67 218.233 573.76 217.82 573.941 217.486C574.121 217.152 574.367 216.883 574.678 216.679C574.989 216.476 575.343 216.322 575.738 216.219C576.137 216.115 576.556 216.042 576.994 216C577.508 215.946 577.923 215.896 578.238 215.85C578.553 215.8 578.781 215.727 578.923 215.631C579.065 215.535 579.136 215.393 579.136 215.205V215.17C579.136 214.806 579.021 214.523 578.791 214.324C578.564 214.124 578.242 214.024 577.823 214.024C577.382 214.024 577.03 214.122 576.769 214.318C576.508 214.51 576.335 214.752 576.251 215.044L573.981 214.859C574.096 214.322 574.323 213.857 574.661 213.465C574.999 213.07 575.435 212.767 575.968 212.555C576.506 212.34 577.128 212.233 577.835 212.233C578.326 212.233 578.797 212.29 579.246 212.406C579.699 212.521 580.1 212.699 580.45 212.941C580.803 213.183 581.081 213.494 581.285 213.874C581.488 214.251 581.59 214.702 581.59 215.228V221.195H579.263V219.968H579.194C579.052 220.245 578.862 220.489 578.624 220.7C578.386 220.907 578.1 221.071 577.766 221.19C577.432 221.305 577.046 221.362 576.608 221.362ZM577.311 219.669C577.672 219.669 577.99 219.598 578.267 219.456C578.543 219.31 578.76 219.114 578.918 218.868C579.075 218.623 579.154 218.344 579.154 218.033V217.094C579.077 217.144 578.971 217.19 578.837 217.232C578.706 217.271 578.559 217.307 578.393 217.342C578.228 217.373 578.063 217.401 577.898 217.428C577.733 217.451 577.583 217.472 577.449 217.492C577.161 217.534 576.909 217.601 576.694 217.693C576.479 217.785 576.312 217.91 576.193 218.068C576.074 218.221 576.015 218.413 576.015 218.644C576.015 218.978 576.136 219.233 576.377 219.41C576.623 219.583 576.934 219.669 577.311 219.669ZM585.948 216.08V221.195H583.494V212.348H585.832V213.909H585.936C586.132 213.394 586.46 212.987 586.921 212.688C587.382 212.384 587.941 212.233 588.597 212.233C589.212 212.233 589.747 212.367 590.204 212.636C590.661 212.905 591.016 213.289 591.27 213.788C591.523 214.283 591.65 214.875 591.65 215.562V221.195H589.196V216C589.2 215.458 589.062 215.036 588.782 214.733C588.501 214.425 588.115 214.272 587.624 214.272C587.294 214.272 587.002 214.343 586.748 214.485C586.499 214.627 586.303 214.834 586.161 215.107C586.023 215.376 585.952 215.7 585.948 216.08ZM596.844 221.339C596.172 221.339 595.563 221.167 595.018 220.821C594.477 220.471 594.047 219.959 593.728 219.283C593.413 218.603 593.256 217.77 593.256 216.783C593.256 215.769 593.419 214.927 593.745 214.255C594.072 213.579 594.506 213.074 595.047 212.74C595.592 212.402 596.189 212.233 596.838 212.233C597.334 212.233 597.747 212.317 598.077 212.486C598.411 212.651 598.68 212.859 598.883 213.108C599.091 213.354 599.248 213.596 599.355 213.834H599.43V209.399H601.878V221.195H599.459V219.778H599.355C599.24 220.024 599.077 220.268 598.866 220.51C598.659 220.748 598.388 220.946 598.054 221.103C597.723 221.261 597.32 221.339 596.844 221.339ZM597.622 219.387C598.017 219.387 598.351 219.279 598.624 219.064C598.9 218.845 599.112 218.54 599.258 218.148C599.407 217.757 599.482 217.298 599.482 216.772C599.482 216.246 599.409 215.789 599.263 215.401C599.117 215.013 598.906 214.713 598.63 214.502C598.353 214.291 598.017 214.185 597.622 214.185C597.219 214.185 596.879 214.295 596.602 214.514C596.326 214.733 596.116 215.036 595.974 215.424C595.832 215.812 595.761 216.261 595.761 216.772C595.761 217.286 595.832 217.741 595.974 218.137C596.12 218.528 596.33 218.836 596.602 219.058C596.879 219.277 597.219 219.387 597.622 219.387ZM611.152 219.398V211.242H613.214V219.398H611.152ZM608.105 216.351V214.289H616.261V216.351H608.105ZM618.319 221.195V219.398L622.518 215.51C622.875 215.165 623.174 214.854 623.416 214.577C623.662 214.301 623.848 214.03 623.975 213.765C624.102 213.496 624.165 213.206 624.165 212.895C624.165 212.55 624.086 212.252 623.929 212.002C623.772 211.749 623.557 211.555 623.284 211.421C623.011 211.282 622.702 211.213 622.357 211.213C621.996 211.213 621.681 211.286 621.412 211.432C621.143 211.578 620.936 211.787 620.79 212.06C620.644 212.333 620.571 212.657 620.571 213.033H618.204C618.204 212.262 618.378 211.591 618.728 211.023C619.077 210.455 619.567 210.015 620.197 209.704C620.826 209.393 621.552 209.238 622.374 209.238C623.219 209.238 623.954 209.387 624.58 209.687C625.21 209.983 625.699 210.393 626.049 210.919C626.398 211.446 626.573 212.048 626.573 212.728C626.573 213.174 626.485 213.613 626.308 214.047C626.135 214.481 625.826 214.963 625.381 215.493C624.935 216.019 624.307 216.651 623.497 217.388L621.775 219.076V219.156H626.728V221.195H618.319ZM628.104 219.122V217.158L633.028 209.399H634.722V212.118H633.72L630.615 217.031V217.123H637.613V219.122H628.104ZM633.766 221.195V218.523L633.812 217.653V209.399H636.15V221.195H633.766ZM645.732 218.983V218.361C645.732 217.889 645.832 217.455 646.032 217.06C646.235 216.66 646.529 216.342 646.913 216.103C647.301 215.862 647.773 215.741 648.33 215.741C648.894 215.741 649.369 215.86 649.753 216.098C650.14 216.336 650.432 216.655 650.628 217.054C650.828 217.449 650.928 217.885 650.928 218.361V218.983C650.928 219.456 650.828 219.892 650.628 220.291C650.428 220.687 650.135 221.003 649.747 221.241C649.359 221.483 648.887 221.604 648.33 221.604C647.765 221.604 647.291 221.483 646.907 221.241C646.523 221.003 646.231 220.687 646.032 220.291C645.832 219.892 645.732 219.456 645.732 218.983ZM647.408 218.361V218.983C647.408 219.256 647.473 219.513 647.604 219.755C647.738 219.997 647.98 220.118 648.33 220.118C648.679 220.118 648.917 219.999 649.044 219.761C649.175 219.523 649.24 219.264 649.24 218.983V218.361C649.24 218.081 649.178 217.82 649.056 217.578C648.933 217.336 648.691 217.215 648.33 217.215C647.984 217.215 647.744 217.336 647.61 217.578C647.475 217.82 647.408 218.081 647.408 218.361ZM639.678 212.233V211.611C639.678 211.135 639.78 210.699 639.984 210.303C640.187 209.904 640.481 209.585 640.865 209.347C641.253 209.109 641.721 208.99 642.27 208.99C642.839 208.99 643.315 209.109 643.699 209.347C644.083 209.585 644.375 209.904 644.574 210.303C644.774 210.699 644.874 211.135 644.874 211.611V212.233C644.874 212.709 644.772 213.145 644.569 213.54C644.369 213.936 644.075 214.253 643.687 214.491C643.303 214.725 642.831 214.842 642.27 214.842C641.71 214.842 641.235 214.723 640.848 214.485C640.464 214.243 640.172 213.926 639.972 213.535C639.776 213.139 639.678 212.705 639.678 212.233ZM641.366 211.611V212.233C641.366 212.513 641.431 212.772 641.562 213.01C641.696 213.248 641.932 213.367 642.27 213.367C642.624 213.367 642.864 213.248 642.99 213.01C643.121 212.772 643.186 212.513 643.186 212.233V211.611C643.186 211.33 643.125 211.069 643.002 210.827C642.879 210.585 642.635 210.464 642.27 210.464C641.929 210.464 641.692 210.587 641.562 210.833C641.431 211.079 641.366 211.338 641.366 211.611ZM640.439 221.195L648.549 209.399H650.058L641.948 221.195H640.439Z" fill="#7E3CEF"/>
<path opacity="0.15" d="M392.736 342.029V320.402L435.99 309.589L479.243 298.775L522.497 291.566L565.751 277.148L609.004 266.335L652.258 259.126V342.029H392.736Z" fill="url(#paint0_linear_691_4306)"/>
<path d="M392.736 320.402L435.99 309.589L479.243 298.775L522.497 291.566L565.751 277.148L609.004 266.335L652.258 259.126" stroke="#7E3CEF" stroke-width="3.60447" stroke-linecap="round" stroke-linejoin="round"/>
<path d="M652.258 266.335C656.239 266.335 659.467 263.107 659.467 259.126C659.467 255.145 656.239 251.917 652.258 251.917C648.276 251.917 645.049 255.145 645.049 259.126C645.049 263.107 648.276 266.335 652.258 266.335Z" fill="#7E3CEF"/>
<path opacity="0.25" d="M652.258 271.742C659.225 271.742 664.874 266.093 664.874 259.126C664.874 252.158 659.225 246.51 652.258 246.51C645.291 246.51 639.642 252.158 639.642 259.126C639.642 266.093 645.291 271.742 652.258 271.742Z" fill="#7E3CEF"/>
<path d="M130.369 260.365C130.369 262.41 129.83 264.324 128.752 266.108C127.674 267.855 126.075 269.268 123.957 270.346C121.875 271.424 119.384 272.019 116.485 272.13V276.591H113.474V272.074C109.497 271.74 106.263 270.55 103.772 268.506C101.282 266.461 99.962 263.692 99.8133 260.198H109.961C110.184 262.577 111.355 264.027 113.474 264.547V255.737C110.463 254.957 108.084 254.232 106.337 253.563C104.627 252.856 103.103 251.723 101.765 250.161C100.427 248.563 99.7576 246.407 99.7576 243.693C99.7576 241.426 100.352 239.437 101.542 237.727C102.731 236.017 104.367 234.698 106.449 233.769C108.53 232.802 110.872 232.244 113.474 232.096V227.579H116.485V232.096C120.425 232.356 123.566 233.471 125.908 235.441C128.25 237.411 129.551 240.162 129.811 243.693H119.607C119.384 241.612 118.344 240.274 116.485 239.679V248.377L117.6 248.712C120.239 249.418 122.414 250.143 124.124 250.886C125.834 251.63 127.302 252.763 128.529 254.287C129.755 255.812 130.369 257.837 130.369 260.365ZM109.85 243.247C109.85 244.214 110.147 245.032 110.742 245.701C111.374 246.333 112.285 246.89 113.474 247.373V239.456C112.359 239.605 111.467 239.995 110.798 240.627C110.166 241.259 109.85 242.132 109.85 243.247ZM116.485 264.714C117.674 264.528 118.622 264.082 119.329 263.376C120.035 262.67 120.388 261.778 120.388 260.7C120.388 259.733 120.053 258.934 119.384 258.302C118.715 257.67 117.749 257.131 116.485 256.685V264.714ZM135.51 241.073V232.207H150.955V271.74H141.03V241.073H135.51ZM156.473 241.073V232.207H171.918V271.74H161.994V241.073H156.473ZM182.121 236.779C184.611 233.137 188.607 231.315 194.109 231.315C199.61 231.315 203.588 233.137 206.041 236.779C208.532 240.385 209.777 245.273 209.777 251.444C209.777 257.614 208.532 262.521 206.041 266.164C203.588 269.77 199.61 271.572 194.109 271.572C188.607 271.572 184.611 269.77 182.121 266.164C179.668 262.521 178.441 257.614 178.441 251.444C178.441 245.273 179.668 240.385 182.121 236.779ZM199.183 243.192C198.365 241.222 196.674 240.236 194.109 240.236C191.544 240.236 189.853 241.222 189.035 243.192C188.217 245.125 187.808 247.875 187.808 251.444C187.808 255.012 188.217 257.782 189.035 259.752C189.853 261.685 191.544 262.651 194.109 262.651C196.674 262.651 198.365 261.685 199.183 259.752C200.001 257.782 200.41 255.012 200.41 251.444C200.41 247.875 200.001 245.125 199.183 243.192Z" fill="#111827"/>
<path d="M121.467 309.784C121.467 311.278 121.073 312.677 120.285 313.981C119.497 315.258 118.329 316.29 116.781 317.078C115.26 317.866 113.44 318.3 111.321 318.382V321.642H109.121V318.341C106.214 318.097 103.851 317.227 102.031 315.733C100.211 314.239 99.2464 312.216 99.1378 309.662H106.554C106.717 311.401 107.572 312.46 109.121 312.84V306.403C106.92 305.832 105.182 305.302 103.905 304.813C102.656 304.297 101.542 303.469 100.564 302.328C99.586 301.16 99.097 299.584 99.097 297.601C99.097 295.944 99.5317 294.491 100.401 293.241C101.27 291.992 102.465 291.028 103.987 290.348C105.508 289.642 107.219 289.235 109.121 289.126V285.826H111.321V289.126C114.2 289.316 116.496 290.131 118.207 291.571C119.918 293.011 120.869 295.021 121.059 297.601H113.603C113.44 296.08 112.679 295.102 111.321 294.668V301.024L112.136 301.268C114.064 301.785 115.654 302.314 116.903 302.858C118.153 303.401 119.226 304.229 120.122 305.343C121.019 306.457 121.467 307.937 121.467 309.784ZM106.472 297.275C106.472 297.982 106.689 298.579 107.124 299.068C107.586 299.53 108.251 299.937 109.121 300.291V294.505C108.306 294.613 107.654 294.898 107.165 295.36C106.703 295.822 106.472 296.46 106.472 297.275ZM111.321 312.963C112.19 312.827 112.883 312.501 113.399 311.985C113.915 311.469 114.173 310.817 114.173 310.029C114.173 309.323 113.929 308.739 113.44 308.277C112.951 307.815 112.244 307.421 111.321 307.095V312.963ZM130.847 301.92C128.293 300.562 127.016 298.43 127.016 295.523C127.016 294.111 127.397 292.78 128.157 291.53C128.945 290.281 130.113 289.275 131.662 288.515C133.21 287.754 135.098 287.374 137.325 287.374C139.553 287.374 141.441 287.754 142.989 288.515C144.537 289.275 145.692 290.281 146.452 291.53C147.213 292.78 147.593 294.111 147.593 295.523C147.593 296.99 147.24 298.267 146.534 299.353C145.855 300.44 144.931 301.296 143.763 301.92C145.23 302.627 146.357 303.605 147.145 304.854C147.933 306.077 148.327 307.557 148.327 309.295C148.327 311.251 147.838 312.935 146.86 314.348C145.882 315.761 144.565 316.834 142.908 317.567C141.251 318.3 139.39 318.667 137.325 318.667C135.261 318.667 133.4 318.3 131.743 317.567C130.086 316.834 128.769 315.761 127.791 314.348C126.813 312.935 126.324 311.251 126.324 309.295C126.324 307.584 126.718 306.104 127.505 304.854C128.293 303.605 129.407 302.627 130.847 301.92ZM137.325 293.078C136.266 293.078 135.41 293.391 134.758 294.016C134.134 294.64 133.821 295.51 133.821 296.623C133.821 297.683 134.147 298.525 134.799 299.15C135.451 299.774 136.293 300.087 137.325 300.087C138.358 300.087 139.2 299.774 139.852 299.15C140.504 298.525 140.829 297.683 140.829 296.623C140.829 295.51 140.504 294.64 139.852 294.016C139.227 293.391 138.385 293.078 137.325 293.078ZM137.325 304.936C136.049 304.936 135.016 305.289 134.229 305.995C133.441 306.701 133.047 307.679 133.047 308.929C133.047 310.124 133.427 311.102 134.188 311.863C134.948 312.596 135.994 312.963 137.325 312.963C138.629 312.963 139.648 312.596 140.381 311.863C141.142 311.102 141.522 310.124 141.522 308.929C141.522 307.679 141.142 306.701 140.381 305.995C139.621 305.289 138.602 304.936 137.325 304.936ZM173.322 294.423H160.609V300.046C161.153 299.448 161.913 298.96 162.891 298.579C163.869 298.199 164.928 298.009 166.069 298.009C168.107 298.009 169.791 298.471 171.122 299.394C172.48 300.318 173.471 301.513 174.096 302.98C174.721 304.447 175.033 306.036 175.033 307.747C175.033 310.925 174.137 313.452 172.344 315.326C170.551 317.173 168.025 318.097 164.765 318.097C162.592 318.097 160.704 317.73 159.102 316.997C157.499 316.236 156.263 315.19 155.394 313.859C154.524 312.528 154.049 310.993 153.968 309.255H160.772C160.935 310.097 161.329 310.803 161.954 311.374C162.579 311.917 163.434 312.188 164.521 312.188C165.798 312.188 166.748 311.781 167.373 310.966C167.998 310.151 168.31 309.065 168.31 307.706C168.31 306.375 167.984 305.357 167.332 304.65C166.68 303.944 165.73 303.591 164.48 303.591C163.557 303.591 162.796 303.822 162.198 304.284C161.601 304.718 161.207 305.302 161.017 306.036H154.294V288.311H173.322V294.423Z" fill="#9CA3AF"/>
<path d="M97.3042 304.487H177.03V306.525H97.3042V304.487Z" fill="#9CA3AF"/>
<path d="M105.618 208.915H103.784C103.75 208.678 103.682 208.467 103.579 208.283C103.475 208.096 103.343 207.937 103.181 207.805C103.019 207.674 102.832 207.574 102.619 207.504C102.41 207.434 102.182 207.399 101.937 207.399C101.493 207.399 101.106 207.509 100.777 207.73C100.447 207.948 100.192 208.266 100.01 208.685C99.8285 209.101 99.7377 209.606 99.7377 210.201C99.7377 210.813 99.8285 211.326 100.01 211.743C100.194 212.159 100.451 212.473 100.781 212.685C101.11 212.897 101.491 213.003 101.924 213.003C102.167 213.003 102.392 212.971 102.599 212.907C102.808 212.843 102.994 212.749 103.156 212.626C103.318 212.501 103.452 212.348 103.558 212.17C103.667 211.991 103.742 211.787 103.784 211.558L105.618 211.567C105.571 211.96 105.452 212.34 105.262 212.706C105.075 213.069 104.823 213.394 104.504 213.682C104.189 213.967 103.812 214.193 103.373 214.36C102.938 214.525 102.445 214.608 101.895 214.608C101.13 214.608 100.446 214.434 99.8425 214.088C99.2421 213.742 98.7674 213.241 98.4184 212.584C98.0721 211.928 97.899 211.134 97.899 210.201C97.899 209.266 98.0749 208.47 98.4267 207.814C98.7786 207.157 99.2561 206.658 99.8592 206.314C100.462 205.968 101.141 205.795 101.895 205.795C102.392 205.795 102.853 205.865 103.277 206.004C103.704 206.144 104.083 206.348 104.412 206.616C104.742 206.881 105.01 207.206 105.216 207.592C105.426 207.977 105.56 208.418 105.618 208.915ZM111.011 211.751V208.057H112.796V214.49H111.082V213.322H111.015C110.87 213.699 110.629 214.002 110.291 214.231C109.956 214.46 109.547 214.574 109.064 214.574C108.634 214.574 108.255 214.476 107.928 214.281C107.602 214.085 107.346 213.807 107.162 213.447C106.98 213.087 106.888 212.656 106.886 212.153V208.057H108.67V211.835C108.673 212.214 108.775 212.515 108.976 212.735C109.177 212.956 109.446 213.066 109.784 213.066C109.999 213.066 110.2 213.017 110.387 212.92C110.574 212.819 110.725 212.671 110.84 212.476C110.957 212.28 111.014 212.039 111.011 211.751ZM114.223 214.49V208.057H115.953V209.179H116.02C116.137 208.78 116.334 208.478 116.61 208.274C116.887 208.068 117.205 207.964 117.565 207.964C117.655 207.964 117.751 207.97 117.854 207.981C117.958 207.992 118.048 208.008 118.127 208.027V209.611C118.043 209.585 117.927 209.563 117.779 209.544C117.631 209.524 117.495 209.514 117.373 209.514C117.11 209.514 116.876 209.571 116.669 209.686C116.465 209.798 116.303 209.954 116.183 210.155C116.066 210.356 116.007 210.588 116.007 210.85V214.49H114.223ZM119.049 214.49V208.057H120.779V209.179H120.846C120.963 208.78 121.16 208.478 121.437 208.274C121.713 208.068 122.031 207.964 122.392 207.964C122.481 207.964 122.577 207.97 122.681 207.981C122.784 207.992 122.875 208.008 122.953 208.027V209.611C122.869 209.585 122.753 209.563 122.605 209.544C122.457 209.524 122.322 209.514 122.199 209.514C121.936 209.514 121.702 209.571 121.495 209.686C121.291 209.798 121.129 209.954 121.009 210.155C120.892 210.356 120.833 210.588 120.833 210.85V214.49H119.049ZM126.508 214.616C125.846 214.616 125.276 214.482 124.799 214.214C124.324 213.943 123.958 213.56 123.702 213.066C123.445 212.569 123.316 211.981 123.316 211.303C123.316 210.641 123.445 210.06 123.702 209.56C123.958 209.06 124.32 208.671 124.786 208.392C125.255 208.112 125.806 207.973 126.437 207.973C126.861 207.973 127.256 208.041 127.622 208.178C127.991 208.312 128.312 208.515 128.585 208.785C128.862 209.056 129.077 209.397 129.23 209.807C129.384 210.215 129.461 210.693 129.461 211.24V211.73H124.028V210.624H127.781C127.781 210.367 127.725 210.14 127.614 209.941C127.502 209.743 127.347 209.588 127.149 209.477C126.953 209.362 126.726 209.305 126.466 209.305C126.195 209.305 125.955 209.368 125.746 209.493C125.539 209.616 125.377 209.782 125.26 209.992C125.142 210.198 125.082 210.429 125.08 210.683V211.734C125.08 212.052 125.138 212.328 125.255 212.559C125.376 212.791 125.544 212.97 125.762 213.095C125.98 213.221 126.238 213.284 126.537 213.284C126.735 213.284 126.917 213.256 127.082 213.2C127.246 213.144 127.387 213.061 127.505 212.949C127.622 212.837 127.711 212.7 127.773 212.538L129.423 212.647C129.339 213.044 129.168 213.39 128.908 213.686C128.651 213.979 128.319 214.208 127.911 214.373C127.506 214.535 127.038 214.616 126.508 214.616ZM132.41 210.771V214.49H130.625V208.057H132.326V209.192H132.401C132.544 208.818 132.782 208.522 133.117 208.304C133.452 208.083 133.859 207.973 134.336 207.973C134.783 207.973 135.173 208.071 135.505 208.266C135.837 208.462 136.095 208.741 136.28 209.104C136.464 209.464 136.556 209.894 136.556 210.394V214.49H134.772V210.712C134.775 210.318 134.674 210.011 134.47 209.791C134.266 209.567 133.986 209.456 133.628 209.456C133.388 209.456 133.176 209.507 132.992 209.611C132.81 209.714 132.668 209.865 132.564 210.063C132.464 210.258 132.412 210.494 132.41 210.771ZM141.385 208.057V209.397H137.51V208.057H141.385ZM138.39 206.515H140.174V212.513C140.174 212.678 140.199 212.806 140.249 212.899C140.3 212.988 140.37 213.051 140.459 213.087C140.551 213.123 140.657 213.142 140.777 213.142C140.861 213.142 140.945 213.135 141.029 213.121C141.112 213.104 141.177 213.091 141.221 213.083L141.502 214.411C141.412 214.439 141.287 214.471 141.125 214.507C140.963 214.546 140.766 214.57 140.534 214.578C140.104 214.595 139.727 214.538 139.403 214.406C139.082 214.275 138.832 214.071 138.654 213.795C138.475 213.518 138.387 213.169 138.39 212.748V206.515ZM145.31 214.49V205.912H148.695C149.345 205.912 149.9 206.036 150.357 206.285C150.815 206.531 151.164 206.873 151.405 207.311C151.648 207.747 151.769 208.249 151.769 208.819C151.769 209.389 151.646 209.891 151.4 210.327C151.155 210.762 150.799 211.102 150.332 211.345C149.869 211.588 149.308 211.709 148.649 211.709H146.491V210.256H148.355C148.704 210.256 148.992 210.196 149.218 210.075C149.447 209.953 149.618 209.784 149.729 209.569C149.844 209.351 149.901 209.101 149.901 208.819C149.901 208.534 149.844 208.286 149.729 208.073C149.618 207.858 149.447 207.692 149.218 207.575C148.989 207.455 148.699 207.395 148.347 207.395H147.124V214.49H145.31ZM152.914 214.49V208.057H154.643V209.179H154.71C154.828 208.78 155.025 208.478 155.301 208.274C155.577 208.068 155.896 207.964 156.256 207.964C156.345 207.964 156.442 207.97 156.545 207.981C156.648 207.992 156.739 208.008 156.817 208.027V209.611C156.734 209.585 156.618 209.563 156.47 209.544C156.322 209.524 156.186 209.514 156.063 209.514C155.801 209.514 155.566 209.571 155.36 209.686C155.156 209.798 154.994 209.954 154.874 210.155C154.757 210.356 154.698 210.588 154.698 210.85V214.49H152.914ZM157.74 214.49V208.057H159.524V214.49H157.74ZM158.636 207.227C158.371 207.227 158.143 207.139 157.953 206.963C157.766 206.785 157.673 206.571 157.673 206.323C157.673 206.077 157.766 205.866 157.953 205.69C158.143 205.511 158.371 205.422 158.636 205.422C158.901 205.422 159.128 205.511 159.315 205.69C159.505 205.866 159.6 206.077 159.6 206.323C159.6 206.571 159.505 206.785 159.315 206.963C159.128 207.139 158.901 207.227 158.636 207.227ZM163.86 214.616C163.201 214.616 162.634 214.476 162.16 214.197C161.688 213.915 161.325 213.524 161.071 213.024C160.819 212.524 160.694 211.949 160.694 211.299C160.694 210.64 160.821 210.062 161.075 209.564C161.332 209.065 161.696 208.675 162.168 208.396C162.64 208.114 163.201 207.973 163.852 207.973C164.413 207.973 164.905 208.075 165.326 208.279C165.748 208.482 166.082 208.769 166.327 209.137C166.573 209.506 166.709 209.939 166.734 210.436H165.05C165.002 210.115 164.877 209.856 164.673 209.661C164.472 209.463 164.208 209.363 163.881 209.363C163.605 209.363 163.363 209.439 163.157 209.59C162.953 209.738 162.794 209.954 162.679 210.239C162.565 210.524 162.507 210.869 162.507 211.273C162.507 211.684 162.563 212.033 162.675 212.321C162.789 212.608 162.95 212.827 163.157 212.978C163.363 213.129 163.605 213.204 163.881 213.204C164.085 213.204 164.268 213.162 164.43 213.079C164.595 212.995 164.73 212.873 164.836 212.714C164.945 212.552 165.016 212.358 165.05 212.132H166.734C166.706 212.624 166.572 213.056 166.332 213.431C166.094 213.802 165.766 214.092 165.347 214.302C164.928 214.511 164.433 214.616 163.86 214.616ZM170.808 214.616C170.146 214.616 169.577 214.482 169.099 214.214C168.624 213.943 168.259 213.56 168.002 213.066C167.745 212.569 167.616 211.981 167.616 211.303C167.616 210.641 167.745 210.06 168.002 209.56C168.259 209.06 168.62 208.671 169.087 208.392C169.556 208.112 170.106 207.973 170.737 207.973C171.161 207.973 171.556 208.041 171.922 208.178C172.291 208.312 172.612 208.515 172.886 208.785C173.162 209.056 173.377 209.397 173.531 209.807C173.684 210.215 173.761 210.693 173.761 211.24V211.73H168.328V210.624H172.081C172.081 210.367 172.026 210.14 171.914 209.941C171.802 209.743 171.647 209.588 171.449 209.477C171.253 209.362 171.026 209.305 170.766 209.305C170.495 209.305 170.255 209.368 170.046 209.493C169.839 209.616 169.677 209.782 169.56 209.992C169.443 210.198 169.383 210.429 169.38 210.683V211.734C169.38 212.052 169.438 212.328 169.556 212.559C169.676 212.791 169.845 212.97 170.063 213.095C170.28 213.221 170.539 213.284 170.837 213.284C171.036 213.284 171.217 213.256 171.382 213.2C171.547 213.144 171.688 213.061 171.805 212.949C171.922 212.837 172.012 212.7 172.073 212.538L173.723 212.647C173.64 213.044 173.468 213.39 173.208 213.686C172.951 213.979 172.619 214.208 172.211 214.373C171.806 214.535 171.339 214.616 170.808 214.616Z" fill="#7E3CEF"/>
<path d="M220.896 267.92V259.342H224.28C224.931 259.342 225.485 259.466 225.943 259.715C226.401 259.96 226.75 260.302 226.99 260.741C227.233 261.176 227.355 261.679 227.355 262.249C227.355 262.818 227.232 263.321 226.986 263.756C226.74 264.192 226.384 264.531 225.918 264.774C225.454 265.017 224.893 265.139 224.234 265.139H222.077V263.685H223.941C224.29 263.685 224.578 263.625 224.804 263.505C225.033 263.382 225.203 263.213 225.315 262.998C225.429 262.781 225.487 262.531 225.487 262.249C225.487 261.964 225.429 261.715 225.315 261.503C225.203 261.288 225.033 261.122 224.804 261.005C224.575 260.885 224.284 260.825 223.933 260.825H222.71V267.92H220.896ZM228.533 267.92V259.342H234.313V260.837H230.346V262.881H234.016V264.376H230.346V266.425H234.33V267.92H228.533ZM235.755 267.92V259.342H239.139C239.787 259.342 240.34 259.458 240.798 259.689C241.259 259.918 241.609 260.244 241.849 260.665C242.092 261.084 242.214 261.577 242.214 262.144C242.214 262.714 242.091 263.204 241.845 263.614C241.599 264.022 241.243 264.335 240.777 264.552C240.313 264.77 239.752 264.879 239.093 264.879H236.827V263.421H238.8C239.146 263.421 239.434 263.374 239.663 263.279C239.892 263.184 240.062 263.042 240.174 262.852C240.288 262.662 240.346 262.426 240.346 262.144C240.346 261.859 240.288 261.619 240.174 261.423C240.062 261.228 239.89 261.08 239.659 260.979C239.43 260.876 239.141 260.825 238.792 260.825H237.568V267.92H235.755ZM240.387 264.016L242.519 267.92H240.517L238.431 264.016H240.387ZM253.4 259.342V267.92H251.834L248.102 262.521H248.039V267.92H246.225V259.342H247.817L251.52 264.737H251.595V259.342H253.4ZM256.712 259.342V267.92H254.899V259.342H256.712ZM263.893 262.115C263.834 261.911 263.751 261.731 263.645 261.574C263.539 261.415 263.409 261.281 263.256 261.172C263.105 261.06 262.932 260.975 262.736 260.917C262.544 260.858 262.33 260.829 262.096 260.829C261.657 260.829 261.272 260.938 260.94 261.155C260.61 261.373 260.353 261.69 260.169 262.106C259.985 262.519 259.892 263.025 259.892 263.622C259.892 264.22 259.983 264.728 260.165 265.147C260.346 265.566 260.603 265.886 260.935 266.106C261.268 266.324 261.66 266.433 262.112 266.433C262.523 266.433 262.873 266.36 263.164 266.215C263.457 266.067 263.68 265.859 263.834 265.591C263.99 265.323 264.068 265.006 264.068 264.64L264.437 264.695H262.225V263.329H265.815V264.41C265.815 265.164 265.656 265.812 265.338 266.353C265.019 266.892 264.581 267.308 264.022 267.602C263.464 267.892 262.824 268.037 262.104 268.037C261.3 268.037 260.593 267.86 259.985 267.505C259.376 267.148 258.901 266.641 258.56 265.985C258.223 265.326 258.054 264.544 258.054 263.639C258.054 262.944 258.154 262.324 258.355 261.78C258.559 261.232 258.844 260.769 259.21 260.389C259.576 260.009 260.001 259.72 260.487 259.522C260.973 259.324 261.499 259.224 262.066 259.224C262.552 259.224 263.005 259.296 263.423 259.438C263.842 259.578 264.214 259.776 264.538 260.033C264.864 260.29 265.131 260.596 265.338 260.95C265.544 261.302 265.677 261.69 265.735 262.115H263.893ZM267.177 267.92V259.342H268.991V262.881H272.673V259.342H274.482V267.92H272.673V264.376H268.991V267.92H267.177ZM275.651 260.837V259.342H282.696V260.837H280.07V267.92H278.277V260.837H275.651Z" fill="#9CA3AF"/>
<rect x="70.8669" y="180.137" width="238.985" height="164.185" rx="16.6202" stroke="#D9D9D9" stroke-width="1.07227"/>
<path d="M89.7234 479.842C89.6872 479.478 89.5321 479.194 89.258 478.993C88.9839 478.791 88.6119 478.69 88.142 478.69C87.8227 478.69 87.5531 478.735 87.3332 478.825C87.1133 478.913 86.9447 479.035 86.8272 479.191C86.7127 479.348 86.6555 479.526 86.6555 479.725C86.6495 479.89 86.6841 480.035 86.7594 480.158C86.8377 480.282 86.9447 480.389 87.0802 480.479C87.2158 480.566 87.3724 480.643 87.5501 480.71C87.7278 480.773 87.9176 480.827 88.1194 480.872L88.9507 481.071C89.3544 481.161 89.7249 481.282 90.0622 481.432C90.3996 481.583 90.6917 481.768 90.9387 481.988C91.1857 482.208 91.377 482.467 91.5126 482.765C91.6511 483.064 91.7219 483.405 91.7249 483.791C91.7219 484.357 91.5773 484.848 91.2912 485.264C91.008 485.677 90.5984 485.997 90.0622 486.226C89.5291 486.452 88.886 486.565 88.133 486.565C87.3859 486.565 86.7353 486.451 86.1811 486.222C85.6299 485.993 85.1991 485.654 84.8889 485.205C84.5817 484.753 84.4205 484.195 84.4055 483.529H86.2986C86.3197 483.839 86.4085 484.098 86.5651 484.306C86.7248 484.511 86.9371 484.666 87.2022 484.771C87.4703 484.874 87.773 484.925 88.1104 484.925C88.4417 484.925 88.7294 484.877 88.9733 484.78C89.2203 484.684 89.4116 484.55 89.5471 484.378C89.6827 484.207 89.7505 484.009 89.7505 483.786C89.7505 483.579 89.6887 483.404 89.5652 483.262C89.4447 483.121 89.267 483 89.0321 482.901C88.8001 482.801 88.5155 482.711 88.1781 482.63L87.1706 482.377C86.3904 482.187 85.7745 481.89 85.3226 481.487C84.8708 481.083 84.6464 480.539 84.6494 479.856C84.6464 479.295 84.7955 478.806 85.0967 478.387C85.401 477.969 85.8181 477.642 86.3483 477.407C86.8784 477.172 87.4808 477.054 88.1555 477.054C88.8423 477.054 89.4417 477.172 89.9538 477.407C90.4689 477.642 90.8695 477.969 91.1556 478.387C91.4418 478.806 91.5894 479.291 91.5984 479.842H89.7234ZM93.0408 486.434V477.181H94.9972V480.999H98.9687V477.181H100.921V486.434H98.9687V482.612H94.9972V486.434H93.0408ZM111.037 481.807C111.037 482.817 110.845 483.675 110.463 484.383C110.083 485.091 109.565 485.631 108.909 486.005C108.255 486.375 107.52 486.561 106.704 486.561C105.882 486.561 105.144 486.374 104.49 486C103.836 485.627 103.32 485.086 102.94 484.378C102.561 483.67 102.371 482.814 102.371 481.807C102.371 480.798 102.561 479.94 102.94 479.232C103.32 478.524 103.836 477.985 104.49 477.615C105.144 477.241 105.882 477.054 106.704 477.054C107.52 477.054 108.255 477.241 108.909 477.615C109.565 477.985 110.083 478.524 110.463 479.232C110.845 479.94 111.037 480.798 111.037 481.807ZM109.053 481.807C109.053 481.154 108.955 480.603 108.76 480.154C108.567 479.705 108.294 479.365 107.942 479.133C107.589 478.901 107.177 478.785 106.704 478.785C106.231 478.785 105.818 478.901 105.466 479.133C105.113 479.365 104.839 479.705 104.644 480.154C104.451 480.603 104.354 481.154 104.354 481.807C104.354 482.461 104.451 483.012 104.644 483.461C104.839 483.91 105.113 484.25 105.466 484.482C105.818 484.714 106.231 484.83 106.704 484.83C107.177 484.83 107.589 484.714 107.942 484.482C108.294 484.25 108.567 483.91 108.76 483.461C108.955 483.012 109.053 482.461 109.053 481.807ZM112.486 486.434V477.181H116.137C116.835 477.181 117.432 477.306 117.926 477.556C118.423 477.803 118.801 478.154 119.06 478.609C119.322 479.06 119.453 479.592 119.453 480.204C119.453 480.818 119.32 481.347 119.055 481.789C118.79 482.229 118.406 482.567 117.903 482.801C117.403 483.036 116.798 483.154 116.087 483.154H113.643V481.582H115.771C116.144 481.582 116.454 481.53 116.701 481.428C116.948 481.326 117.132 481.172 117.253 480.967C117.376 480.762 117.438 480.508 117.438 480.204C117.438 479.896 117.376 479.637 117.253 479.426C117.132 479.216 116.947 479.056 116.697 478.947C116.45 478.836 116.138 478.78 115.762 478.78H114.442V486.434H112.486ZM117.483 482.223L119.783 486.434H117.623L115.373 482.223H117.483ZM120.483 478.794V477.181H128.083V478.794H125.25V486.434H123.316V478.794H120.483ZM133.237 481.044V482.571H129.017V481.044H133.237ZM139.933 479.842C139.897 479.478 139.742 479.194 139.467 478.993C139.193 478.791 138.821 478.69 138.351 478.69C138.032 478.69 137.763 478.735 137.543 478.825C137.323 478.913 137.154 479.035 137.037 479.191C136.922 479.348 136.865 479.526 136.865 479.725C136.859 479.89 136.894 480.035 136.969 480.158C137.047 480.282 137.154 480.389 137.29 480.479C137.425 480.566 137.582 480.643 137.76 480.71C137.937 480.773 138.127 480.827 138.329 480.872L139.16 481.071C139.564 481.161 139.934 481.282 140.272 481.432C140.609 481.583 140.901 481.768 141.148 481.988C141.395 482.208 141.586 482.467 141.722 482.765C141.861 483.064 141.931 483.405 141.934 483.791C141.931 484.357 141.787 484.848 141.501 485.264C141.217 485.677 140.808 485.997 140.272 486.226C139.739 486.452 139.095 486.565 138.342 486.565C137.595 486.565 136.945 486.451 136.391 486.222C135.839 485.993 135.409 485.654 135.098 485.205C134.791 484.753 134.63 484.195 134.615 483.529H136.508C136.529 483.839 136.618 484.098 136.775 484.306C136.934 484.511 137.147 484.666 137.412 484.771C137.68 484.874 137.982 484.925 138.32 484.925C138.651 484.925 138.939 484.877 139.183 484.78C139.43 484.684 139.621 484.55 139.757 484.378C139.892 484.207 139.96 484.009 139.96 483.786C139.96 483.579 139.898 483.404 139.775 483.262C139.654 483.121 139.476 483 139.242 482.901C139.01 482.801 138.725 482.711 138.388 482.63L137.38 482.377C136.6 482.187 135.984 481.89 135.532 481.487C135.08 481.083 134.856 480.539 134.859 479.856C134.856 479.295 135.005 478.806 135.306 478.387C135.61 477.969 136.028 477.642 136.558 477.407C137.088 477.172 137.69 477.054 138.365 477.054C139.052 477.054 139.651 477.172 140.163 477.407C140.678 477.642 141.079 477.969 141.365 478.387C141.651 478.806 141.799 479.291 141.808 479.842H139.933ZM142.898 478.794V477.181H150.497V478.794H147.665V486.434H145.731V478.794H142.898ZM152.213 486.434H150.117L153.311 477.181H155.832L159.022 486.434H156.926L154.608 479.295H154.536L152.213 486.434ZM152.082 482.797H157.034V484.324H152.082V482.797ZM158.649 477.181H160.841L162.951 481.166H163.041L165.151 477.181H167.342L163.967 483.163V486.434H162.024V483.163L158.649 477.181Z" fill="#7E3CEF"/>
<path d="M103.849 533.884V538.43H86.5458L85.7316 535.58C86.7946 534.63 87.575 533.624 88.0726 532.561C88.5702 531.497 88.8191 530.186 88.8191 528.625V528.557H85.1208V524.655H87.8691C87.4393 523.117 87.2244 521.703 87.2244 520.414C87.2244 518.876 87.5637 517.541 88.2423 516.411C88.9435 515.28 89.9161 514.42 91.1601 513.832C92.4042 513.244 93.8292 512.95 95.4351 512.95C98.0589 512.95 100.072 513.662 101.474 515.087C102.877 516.512 103.623 518.367 103.714 520.652H98.3869C98.3417 519.747 98.0929 519.034 97.6405 518.514C97.1881 517.971 96.4982 517.7 95.5708 517.7C94.6661 517.7 93.9649 517.983 93.4673 518.548C92.9696 519.091 92.7208 519.905 92.7208 520.991C92.7208 521.511 92.7774 522.043 92.8905 522.586C93.0262 523.128 93.2185 523.818 93.4673 524.655H99.6083V528.557H94.3155V528.659C94.3155 529.541 94.1345 530.457 93.7726 531.407C93.4107 532.357 92.8452 533.183 92.0762 533.884H103.849ZM108.059 533.884V529.202L118.781 513.866H125.261V528.862H128.043V533.884H125.261V538.294H119.459V533.884H108.059ZM119.867 520.244L114.167 528.862H119.867V520.244ZM130.682 533.646C131.36 533.081 131.722 532.787 131.767 532.764C133.939 530.955 135.658 529.484 136.924 528.353C138.191 527.2 139.254 526.012 140.114 524.791C140.973 523.569 141.403 522.405 141.403 521.296C141.403 520.369 141.188 519.656 140.758 519.159C140.351 518.661 139.729 518.412 138.892 518.412C137.173 518.412 136.28 519.645 136.212 522.111H130.614C130.659 520.188 131.066 518.582 131.835 517.293C132.627 516.003 133.656 515.053 134.923 514.443C136.212 513.832 137.637 513.527 139.198 513.527C141.007 513.527 142.511 513.855 143.71 514.511C144.932 515.144 145.825 516.015 146.39 517.123C146.979 518.231 147.273 519.464 147.273 520.821C147.273 523.128 146.458 525.288 144.83 527.302C143.201 529.292 141.109 531.271 138.553 533.239H147.714V537.955H130.682V533.646Z" fill="#111827"/>
<path d="M83.8994 586.115L100.864 580.461L117.828 583.288L134.792 574.806L151.756 577.633L168.721 569.151L185.685 566.324" stroke="#7E3CEF" stroke-width="2.82738" stroke-linecap="round" stroke-linejoin="round"/>
<path d="M185.685 570.565C188.027 570.565 189.926 568.666 189.926 566.324C189.926 563.981 188.027 562.083 185.685 562.083C183.343 562.083 181.444 563.981 181.444 566.324C181.444 568.666 183.343 570.565 185.685 570.565Z" fill="#7E3CEF"/>
<path d="M192.753 600.252H88.1405C85.7982 600.252 83.8994 602.151 83.8994 604.494C83.8994 606.836 85.7982 608.735 88.1405 608.735H192.753C195.096 608.735 196.995 606.836 196.995 604.494C196.995 602.151 195.096 600.252 192.753 600.252Z" fill="#E5E7EB"/>
<path d="M322.97 476.242H325.382L327.93 482.459H328.039L330.587 476.242H333V485.495H331.102V479.472H331.025L328.631 485.45H327.339L324.944 479.45H324.867V485.495H322.97V476.242ZM336.568 476.242V485.495H334.612V476.242H336.568ZM341.458 485.495H338.178V476.242H341.485C342.416 476.242 343.217 476.427 343.889 476.798C344.56 477.165 345.077 477.694 345.438 478.383C345.803 479.073 345.985 479.899 345.985 480.859C345.985 481.823 345.803 482.652 345.438 483.344C345.077 484.037 344.557 484.569 343.88 484.939C343.205 485.31 342.398 485.495 341.458 485.495ZM340.134 483.819H341.377C341.955 483.819 342.441 483.716 342.836 483.512C343.234 483.304 343.532 482.983 343.731 482.549C343.932 482.113 344.033 481.549 344.033 480.859C344.033 480.176 343.932 479.617 343.731 479.183C343.532 478.749 343.235 478.43 342.84 478.225C342.446 478.021 341.959 477.918 341.381 477.918H340.134V483.819ZM351.722 480.105V481.632H347.502V480.105H351.722ZM352.661 477.855V476.242H360.26V477.855H357.427V485.495H355.494V477.855H352.661ZM361.512 485.495V476.242H367.747V477.855H363.468V480.06H367.426V481.673H363.468V483.882H367.765V485.495H361.512ZM369.302 485.495V476.242H372.953C373.652 476.242 374.248 476.367 374.742 476.617C375.239 476.864 375.617 477.215 375.876 477.67C376.138 478.121 376.269 478.653 376.269 479.265C376.269 479.879 376.137 480.408 375.872 480.85C375.607 481.29 375.223 481.628 374.72 481.862C374.22 482.097 373.614 482.215 372.903 482.215H370.459V480.643H372.587C372.961 480.643 373.271 480.591 373.518 480.489C373.765 480.387 373.949 480.233 374.069 480.028C374.193 479.823 374.254 479.569 374.254 479.265C374.254 478.957 374.193 478.698 374.069 478.487C373.949 478.277 373.763 478.117 373.513 478.008C373.266 477.897 372.955 477.841 372.578 477.841H371.259V485.495H369.302ZM374.299 481.284L376.599 485.495H374.44L372.189 481.284H374.299ZM377.652 476.242H380.065L382.613 482.459H382.721L385.27 476.242H387.682V485.495H385.785V479.472H385.708L383.313 485.45H382.021L379.626 479.45H379.55V485.495H377.652V476.242Z" fill="white"/>
<path d="M342.115 532.944V537.491H324.812L323.997 534.641C325.061 533.691 325.841 532.684 326.338 531.621C326.836 530.558 327.085 529.246 327.085 527.685V527.617H323.387V523.716H326.135C325.705 522.178 325.49 520.764 325.49 519.475C325.49 517.937 325.83 516.602 326.508 515.471C327.209 514.34 328.182 513.481 329.426 512.893C330.67 512.304 332.095 512.01 333.701 512.01C336.325 512.01 338.338 512.723 339.74 514.148C341.143 515.573 341.889 517.428 341.98 519.712H336.653C336.608 518.807 336.359 518.095 335.906 517.575C335.454 517.032 334.764 516.76 333.837 516.76C332.932 516.76 332.231 517.043 331.733 517.609C331.236 518.151 330.987 518.966 330.987 520.051C330.987 520.572 331.043 521.103 331.156 521.646C331.292 522.189 331.484 522.879 331.733 523.716H337.874V527.617H332.581V527.719C332.581 528.601 332.4 529.517 332.038 530.467C331.677 531.417 331.111 532.243 330.342 532.944H342.115ZM346.393 519.576C346.484 517.156 347.275 515.29 348.768 513.978C350.261 512.666 352.285 512.01 354.841 512.01C356.538 512.01 357.985 512.304 359.184 512.893C360.406 513.481 361.322 514.284 361.932 515.301C362.566 516.319 362.882 517.462 362.882 518.728C362.882 520.221 362.509 521.442 361.763 522.392C361.016 523.32 360.146 523.953 359.15 524.292V524.428C360.44 524.858 361.457 525.57 362.204 526.566C362.95 527.561 363.324 528.839 363.324 530.4C363.324 531.802 362.996 533.046 362.34 534.132C361.706 535.195 360.768 536.032 359.524 536.642C358.302 537.253 356.843 537.559 355.147 537.559C352.432 537.559 350.261 536.891 348.632 535.557C347.027 534.222 346.178 532.209 346.088 529.517H351.72C351.743 530.513 352.025 531.304 352.568 531.892C353.111 532.458 353.903 532.741 354.943 532.741C355.825 532.741 356.504 532.492 356.979 531.994C357.477 531.474 357.725 530.795 357.725 529.959C357.725 528.873 357.375 528.092 356.674 527.617C355.995 527.12 354.898 526.871 353.382 526.871H352.297V522.155H353.382C354.536 522.155 355.463 521.963 356.165 521.578C356.888 521.171 357.25 520.459 357.25 519.441C357.25 518.626 357.024 517.993 356.572 517.541C356.119 517.088 355.497 516.862 354.706 516.862C353.846 516.862 353.202 517.122 352.772 517.642C352.365 518.163 352.127 518.807 352.059 519.576H346.393ZM370.804 523.885C368.678 522.754 367.614 520.979 367.614 518.559C367.614 517.382 367.931 516.274 368.564 515.234C369.22 514.193 370.193 513.356 371.482 512.723C372.772 512.09 374.344 511.773 376.198 511.773C378.053 511.773 379.625 512.09 380.914 512.723C382.204 513.356 383.165 514.193 383.798 515.234C384.432 516.274 384.748 517.382 384.748 518.559C384.748 519.78 384.454 520.843 383.866 521.748C383.301 522.653 382.532 523.365 381.559 523.885C382.78 524.473 383.719 525.288 384.375 526.328C385.031 527.346 385.359 528.579 385.359 530.026C385.359 531.655 384.952 533.057 384.138 534.234C383.323 535.41 382.226 536.303 380.847 536.914C379.467 537.525 377.917 537.83 376.198 537.83C374.479 537.83 372.93 537.525 371.55 536.914C370.17 536.303 369.073 535.41 368.259 534.234C367.445 533.057 367.038 531.655 367.038 530.026C367.038 528.601 367.366 527.369 368.022 526.328C368.678 525.288 369.605 524.473 370.804 523.885ZM376.198 516.523C375.316 516.523 374.604 516.783 374.061 517.303C373.541 517.823 373.28 518.547 373.28 519.475C373.28 520.357 373.552 521.058 374.095 521.578C374.638 522.098 375.339 522.359 376.198 522.359C377.058 522.359 377.759 522.098 378.302 521.578C378.845 521.058 379.116 520.357 379.116 519.475C379.116 518.547 378.845 517.823 378.302 517.303C377.782 516.783 377.08 516.523 376.198 516.523ZM376.198 526.396C375.135 526.396 374.276 526.69 373.62 527.278C372.964 527.866 372.636 528.681 372.636 529.721C372.636 530.716 372.953 531.531 373.586 532.164C374.219 532.775 375.09 533.08 376.198 533.08C377.284 533.08 378.132 532.775 378.743 532.164C379.376 531.531 379.693 530.716 379.693 529.721C379.693 528.681 379.376 527.866 378.743 527.278C378.11 526.69 377.261 526.396 376.198 526.396Z" fill="white"/>
<path d="M322.165 579.522L339.13 576.695L356.094 571.04L373.058 573.867L390.022 565.385L406.987 568.212L423.951 562.558" stroke="white" stroke-width="2.82738" stroke-linecap="round" stroke-linejoin="round"/>
<path d="M423.951 566.799C426.293 566.799 428.192 564.9 428.192 562.557C428.192 560.215 426.293 558.316 423.951 558.316C421.609 558.316 419.71 560.215 419.71 562.557C419.71 564.9 421.609 566.799 423.951 566.799Z" fill="white"/>
<path opacity="0.3" d="M431.019 599.313H326.406C324.064 599.313 322.165 601.212 322.165 603.555C322.165 605.897 324.064 607.796 326.406 607.796H431.019C433.362 607.796 435.26 605.897 435.26 603.555C435.26 601.212 433.362 599.313 431.019 599.313Z" fill="white"/>
<path d="M551.031 485.556V476.174H553.014V483.921H557.037V485.556H551.031ZM566.607 480.865C566.607 481.888 566.413 482.758 566.025 483.476C565.641 484.194 565.115 484.742 564.449 485.121C563.787 485.497 563.041 485.684 562.214 485.684C561.38 485.684 560.632 485.495 559.969 485.116C559.306 484.738 558.782 484.189 558.397 483.472C558.013 482.754 557.82 481.885 557.82 480.865C557.82 479.842 558.013 478.971 558.397 478.253C558.782 477.536 559.306 476.989 559.969 476.613C560.632 476.235 561.38 476.045 562.214 476.045C563.041 476.045 563.787 476.235 564.449 476.613C565.115 476.989 565.641 477.536 566.025 478.253C566.413 478.971 566.607 479.842 566.607 480.865ZM564.596 480.865C564.596 480.202 564.497 479.643 564.298 479.188C564.103 478.733 563.826 478.388 563.469 478.153C563.112 477.918 562.693 477.8 562.214 477.8C561.734 477.8 561.316 477.918 560.958 478.153C560.601 478.388 560.323 478.733 560.125 479.188C559.929 479.643 559.831 480.202 559.831 480.865C559.831 481.528 559.929 482.087 560.125 482.542C560.323 482.997 560.601 483.342 560.958 483.577C561.316 483.812 561.734 483.93 562.214 483.93C562.693 483.93 563.112 483.812 563.469 483.577C563.826 483.342 564.103 482.997 564.298 482.542C564.497 482.087 564.596 481.528 564.596 480.865ZM575.925 476.174V485.556H574.211L570.129 479.651H570.06V485.556H568.077V476.174H569.818L573.867 482.074H573.95V476.174H575.925ZM583.785 479.206C583.721 478.983 583.631 478.786 583.515 478.615C583.399 478.441 583.257 478.295 583.089 478.176C582.924 478.053 582.734 477.96 582.521 477.896C582.31 477.832 582.076 477.8 581.82 477.8C581.34 477.8 580.919 477.919 580.555 478.157C580.195 478.395 579.914 478.742 579.712 479.197C579.511 479.649 579.41 480.202 579.41 480.856C579.41 481.509 579.509 482.065 579.708 482.523C579.906 482.981 580.187 483.331 580.551 483.572C580.914 483.811 581.343 483.93 581.838 483.93C582.287 483.93 582.67 483.85 582.988 483.692C583.309 483.53 583.553 483.302 583.721 483.009C583.892 482.716 583.977 482.369 583.977 481.969L584.381 482.029H581.962V480.535H585.888V481.717C585.888 482.542 585.714 483.25 585.366 483.843C585.017 484.432 584.538 484.887 583.927 485.208C583.316 485.526 582.617 485.684 581.829 485.684C580.949 485.684 580.176 485.49 579.511 485.103C578.845 484.712 578.326 484.157 577.953 483.44C577.583 482.719 577.399 481.864 577.399 480.874C577.399 480.114 577.509 479.435 577.728 478.84C577.951 478.241 578.263 477.734 578.663 477.319C579.063 476.903 579.529 476.587 580.06 476.371C580.592 476.154 581.167 476.045 581.788 476.045C582.319 476.045 582.814 476.123 583.272 476.279C583.73 476.432 584.136 476.648 584.491 476.929C584.848 477.21 585.14 477.545 585.366 477.933C585.592 478.318 585.737 478.742 585.801 479.206H583.785ZM591.726 480.091V481.639H587.447V480.091H591.726ZM592.677 477.809V476.174H600.383V477.809H597.511V485.556H595.55V477.809H592.677ZM601.652 485.556V476.174H607.975V477.809H603.636V480.045H607.649V481.68H603.636V483.921H607.993V485.556H601.652ZM609.552 485.556V476.174H613.253C613.962 476.174 614.567 476.3 615.068 476.554C615.572 476.804 615.955 477.16 616.218 477.621C616.483 478.079 616.616 478.618 616.616 479.238C616.616 479.862 616.482 480.398 616.213 480.847C615.944 481.292 615.555 481.635 615.045 481.873C614.538 482.111 613.924 482.23 613.203 482.23H610.724V480.636H612.882C613.261 480.636 613.576 480.584 613.826 480.48C614.077 480.376 614.263 480.22 614.385 480.013C614.51 479.805 614.573 479.547 614.573 479.238C614.573 478.927 614.51 478.664 614.385 478.45C614.263 478.237 614.075 478.075 613.821 477.965C613.571 477.852 613.255 477.795 612.873 477.795H611.535V485.556H609.552ZM614.619 481.286L616.951 485.556H614.761L612.479 481.286H614.619ZM618.018 476.174H620.464L623.048 482.477H623.158L625.742 476.174H628.189V485.556H626.264V479.449H626.187L623.758 485.51H622.448L620.02 479.426H619.942V485.556H618.018V476.174Z" fill="#7E3CEF"/>
<path d="M570.444 533.319V537.929H552.899L552.073 535.039C553.151 534.076 553.942 533.055 554.447 531.977C554.951 530.899 555.204 529.569 555.204 527.987V527.918H551.454V523.962H554.24C553.804 522.402 553.587 520.968 553.587 519.661C553.587 518.102 553.931 516.748 554.619 515.602C555.33 514.455 556.316 513.583 557.577 512.987C558.839 512.391 560.284 512.093 561.912 512.093C564.573 512.093 566.614 512.815 568.036 514.26C569.458 515.705 570.215 517.586 570.306 519.902H564.905C564.859 518.985 564.607 518.262 564.148 517.735C563.69 517.184 562.99 516.909 562.05 516.909C561.132 516.909 560.421 517.196 559.917 517.769C559.412 518.319 559.16 519.145 559.16 520.246C559.16 520.774 559.217 521.312 559.332 521.863C559.469 522.413 559.664 523.113 559.917 523.962H566.144V527.918H560.777V528.021C560.777 528.916 560.593 529.844 560.226 530.808C559.859 531.771 559.286 532.608 558.506 533.319H570.444ZM574.369 533.078C575.057 532.505 575.424 532.207 575.47 532.184C577.672 530.349 579.415 528.858 580.699 527.711C581.983 526.542 583.061 525.338 583.933 524.099C584.804 522.861 585.24 521.679 585.24 520.556C585.24 519.615 585.022 518.893 584.587 518.388C584.174 517.884 583.543 517.631 582.694 517.631C580.951 517.631 580.045 518.881 579.977 521.381H574.3C574.346 519.432 574.759 517.803 575.539 516.496C576.341 515.189 577.385 514.225 578.669 513.606C579.977 512.987 581.422 512.677 583.004 512.677C584.839 512.677 586.364 513.01 587.58 513.675C588.818 514.317 589.724 515.2 590.297 516.324C590.894 517.448 591.192 518.698 591.192 520.074C591.192 522.413 590.366 524.604 588.715 526.645C587.064 528.663 584.942 530.67 582.35 532.665H591.639V537.447H574.369V533.078ZM598.358 524.134C596.202 522.987 595.124 521.186 595.124 518.732C595.124 517.54 595.445 516.416 596.087 515.361C596.752 514.306 597.738 513.457 599.046 512.815C600.353 512.173 601.947 511.852 603.828 511.852C605.708 511.852 607.302 512.173 608.61 512.815C609.917 513.457 610.892 514.306 611.534 515.361C612.176 516.416 612.497 517.54 612.497 518.732C612.497 519.971 612.199 521.049 611.603 521.966C611.029 522.884 610.25 523.606 609.263 524.134C610.502 524.73 611.454 525.556 612.119 526.611C612.784 527.643 613.117 528.893 613.117 530.36C613.117 532.012 612.704 533.434 611.878 534.626C611.052 535.819 609.94 536.725 608.541 537.344C607.142 537.964 605.571 538.273 603.828 538.273C602.085 538.273 600.514 537.964 599.115 537.344C597.716 536.725 596.603 535.819 595.777 534.626C594.952 533.434 594.539 532.012 594.539 530.36C594.539 528.916 594.872 527.666 595.537 526.611C596.202 525.556 597.142 524.73 598.358 524.134ZM603.828 516.668C602.933 516.668 602.211 516.932 601.66 517.459C601.133 517.987 600.869 518.721 600.869 519.661C600.869 520.556 601.144 521.267 601.695 521.794C602.245 522.322 602.956 522.585 603.828 522.585C604.699 522.585 605.41 522.322 605.961 521.794C606.511 521.267 606.786 520.556 606.786 519.661C606.786 518.721 606.511 517.987 605.961 517.459C605.433 516.932 604.722 516.668 603.828 516.668ZM603.828 526.679C602.75 526.679 601.878 526.978 601.213 527.574C600.548 528.17 600.215 528.996 600.215 530.051C600.215 531.06 600.537 531.886 601.179 532.528C601.821 533.147 602.704 533.457 603.828 533.457C604.929 533.457 605.789 533.147 606.408 532.528C607.05 531.886 607.371 531.06 607.371 530.051C607.371 528.996 607.05 528.17 606.408 527.574C605.766 526.978 604.906 526.679 603.828 526.679Z" fill="#111827"/>
<path d="M550.215 577.198L567.417 574.331L584.618 577.198L601.819 571.464L619.021 574.331L636.222 568.597L653.424 571.464" stroke="#7E3CEF" stroke-width="2.86691" stroke-linecap="round" stroke-linejoin="round"/>
<path d="M653.424 575.765C655.799 575.765 657.724 573.839 657.724 571.464C657.724 569.089 655.799 567.164 653.424 567.164C651.049 567.164 649.123 569.089 649.123 571.464C649.123 573.839 651.049 575.765 653.424 575.765Z" fill="#7E3CEF"/>
<path d="M660.591 600.134H554.515C552.14 600.134 550.215 602.059 550.215 604.434C550.215 606.809 552.14 608.735 554.515 608.735H660.591C662.966 608.735 664.892 606.809 664.892 604.434C664.892 602.059 662.966 600.134 660.591 600.134Z" fill="#E5E7EB"/>
<defs>
<filter id="filter0_dd_691_4306" x="18.6809" y="59.4819" width="710.638" height="343.491" filterUnits="userSpaceOnUse" color-interpolation-filters="sRGB">
<feFlood flood-opacity="0" result="BackgroundImageFix"/>
<feColorMatrix in="SourceAlpha" type="matrix" values="0 0 0 0 0 0 0 0 0 0 0 0 0 0 0 0 0 0 127 0" result="hardAlpha"/>
<feMorphology radius="2" operator="erode" in="SourceAlpha" result="effect1_dropShadow_691_4306"/>
<feOffset dy="4"/>
<feGaussianBlur stdDeviation="3"/>
<feColorMatrix type="matrix" values="0 0 0 0 0 0 0 0 0 0 0 0 0 0 0 0 0 0 0.05 0"/>
<feBlend mode="normal" in2="BackgroundImageFix" result="effect1_dropShadow_691_4306"/>
<feColorMatrix in="SourceAlpha" type="matrix" values="0 0 0 0 0 0 0 0 0 0 0 0 0 0 0 0 0 0 127 0" result="hardAlpha"/>
<feMorphology radius="3" operator="erode" in="SourceAlpha" result="effect2_dropShadow_691_4306"/>
<feOffset dy="10"/>
<feGaussianBlur stdDeviation="7.5"/>
<feColorMatrix type="matrix" values="0 0 0 0 0 0 0 0 0 0 0 0 0 0 0 0 0 0 0.1 0"/>
<feBlend mode="normal" in2="effect1_dropShadow_691_4306" result="effect2_dropShadow_691_4306"/>
<feBlend mode="normal" in="SourceGraphic" in2="effect2_dropShadow_691_4306" result="shape"/>
</filter>
<filter id="filter1_dd_691_4306" x="18.6809" y="392.772" width="243.532" height="315.746" filterUnits="userSpaceOnUse" color-interpolation-filters="sRGB">
<feFlood flood-opacity="0" result="BackgroundImageFix"/>
<feColorMatrix in="SourceAlpha" type="matrix" values="0 0 0 0 0 0 0 0 0 0 0 0 0 0 0 0 0 0 127 0" result="hardAlpha"/>
<feMorphology radius="2" operator="erode" in="SourceAlpha" result="effect1_dropShadow_691_4306"/>
<feOffset dy="4"/>
<feGaussianBlur stdDeviation="3"/>
<feColorMatrix type="matrix" values="0 0 0 0 0 0 0 0 0 0 0 0 0 0 0 0 0 0 0.05 0"/>
<feBlend mode="normal" in2="BackgroundImageFix" result="effect1_dropShadow_691_4306"/>
<feColorMatrix in="SourceAlpha" type="matrix" values="0 0 0 0 0 0 0 0 0 0 0 0 0 0 0 0 0 0 127 0" result="hardAlpha"/>
<feMorphology radius="3" operator="erode" in="SourceAlpha" result="effect2_dropShadow_691_4306"/>
<feOffset dy="10"/>
<feGaussianBlur stdDeviation="7.5"/>
<feColorMatrix type="matrix" values="0 0 0 0 0 0 0 0 0 0 0 0 0 0 0 0 0 0 0.1 0"/>
<feBlend mode="normal" in2="effect1_dropShadow_691_4306" result="effect2_dropShadow_691_4306"/>
<feBlend mode="normal" in="SourceGraphic" in2="effect2_dropShadow_691_4306" result="shape"/>
</filter>
<filter id="filter2_dd_691_4306" x="485.787" y="392.772" width="243.532" height="315.746" filterUnits="userSpaceOnUse" color-interpolation-filters="sRGB">
<feFlood flood-opacity="0" result="BackgroundImageFix"/>
<feColorMatrix in="SourceAlpha" type="matrix" values="0 0 0 0 0 0 0 0 0 0 0 0 0 0 0 0 0 0 127 0" result="hardAlpha"/>
<feMorphology radius="2" operator="erode" in="SourceAlpha" result="effect1_dropShadow_691_4306"/>
<feOffset dy="4"/>
<feGaussianBlur stdDeviation="3"/>
<feColorMatrix type="matrix" values="0 0 0 0 0 0 0 0 0 0 0 0 0 0 0 0 0 0 0.05 0"/>
<feBlend mode="normal" in2="BackgroundImageFix" result="effect1_dropShadow_691_4306"/>
<feColorMatrix in="SourceAlpha" type="matrix" values="0 0 0 0 0 0 0 0 0 0 0 0 0 0 0 0 0 0 127 0" result="hardAlpha"/>
<feMorphology radius="3" operator="erode" in="SourceAlpha" result="effect2_dropShadow_691_4306"/>
<feOffset dy="10"/>
<feGaussianBlur stdDeviation="7.5"/>
<feColorMatrix type="matrix" values="0 0 0 0 0 0 0 0 0 0 0 0 0 0 0 0 0 0 0.1 0"/>
<feBlend mode="normal" in2="effect1_dropShadow_691_4306" result="effect2_dropShadow_691_4306"/>
<feBlend mode="normal" in="SourceGraphic" in2="effect2_dropShadow_691_4306" result="shape"/>
</filter>
<linearGradient id="paint0_linear_691_4306" x1="392.736" y1="259.126" x2="440.797" y2="409.579" gradientUnits="userSpaceOnUse">
<stop stop-color="#9B5CFF"/>
<stop offset="1" stop-color="#7E3CEF"/>
</linearGradient>
</defs>
</svg>
