<svg width="398" height="184" viewBox="0 0 398 184" fill="none" xmlns="http://www.w3.org/2000/svg" xmlns:xlink="http://www.w3.org/1999/xlink">
<g clip-path="url(#clip0_508_1822)">
<rect width="397.333" height="184" fill="black"/>
<rect width="397.333" height="184" fill="url(#pattern0_508_1822)" fill-opacity="0.2"/>
<rect width="397.333" height="184" fill="url(#paint0_linear_508_1822)"/>
<circle cx="87.5348" cy="87.5348" r="87.0348" transform="matrix(0.866025 -0.5 0.866025 0.5 47.052 104.17)" stroke="url(#paint1_linear_508_1822)"/>
<circle cx="87.5348" cy="87.5348" r="87.5348" transform="matrix(0.866025 -0.5 0.866025 0.5 47.052 79.8302)" fill="url(#paint2_linear_508_1822)"/>
<path d="M163.552 98.6179L170.93 94.3585C165.519 90.6102 162.79 86.8477 162.74 83.071C162.716 79.2801 165.433 75.8087 170.893 72.6567L181.848 78.982C179.438 80.4302 178.11 82.0061 177.864 83.7099C177.643 85.4279 178.504 87.1458 180.447 88.8638L195.202 80.345L193.947 79.2375C185.512 71.67 185.217 65.6216 193.062 61.0924C196.112 59.3318 199.542 58.1889 203.354 57.6636C207.19 57.1524 211.162 57.2447 215.269 57.9404C219.4 58.6219 223.433 59.8998 227.368 61.7739L234.745 57.5145L241.717 61.5396L234.266 65.8416C238.84 69.1924 241.09 72.6212 241.016 76.1281C240.967 79.6209 238.545 82.8367 233.749 85.7757L223.126 79.6422C224.97 78.4069 226.003 77.0723 226.224 75.6383C226.495 74.2043 225.966 72.7916 224.638 71.4002L210.731 79.4292L211.838 80.4089C216.437 84.5121 218.834 88.0687 219.031 91.0787C219.277 94.0887 217.334 96.7863 213.203 99.1716C208.383 101.954 202.85 103.275 196.603 103.133C190.382 102.977 184.148 101.394 177.901 98.3836L170.524 102.643L163.552 98.6179ZM187.381 92.9103C189.988 93.9325 192.509 94.4649 194.943 94.5075C197.403 94.5643 199.493 94.0958 201.214 93.1019C202.714 92.2358 203.403 91.1852 203.28 89.95C203.206 88.7147 202.296 87.1671 200.55 85.3072L187.381 92.9103ZM205.42 74.4457L217.851 67.2686C215.49 66.3883 213.154 65.9481 210.842 65.9481C208.53 65.9481 206.575 66.4096 204.977 67.3324C203.575 68.1417 202.899 69.1143 202.948 70.2501C203.022 71.3718 203.846 72.7703 205.42 74.4457Z" fill="black"/>
</g>
<defs>
<linearGradient id="paint0_linear_508_1822" x1="-6.94099" y1="17.5" x2="65.9821" y2="129.501" gradientUnits="userSpaceOnUse">
<stop stop-opacity="0"/>
<stop offset="1"/>
</linearGradient>
<linearGradient id="paint1_linear_508_1822" x1="-34.1827" y1="-34.1827" x2="188.217" y2="-6.44144" gradientUnits="userSpaceOnUse">
<stop stop-color="#BB94FF" stop-opacity="0"/>
<stop offset="0.505126" stop-color="#BB94FF" stop-opacity="0.8"/>
<stop offset="1" stop-color="#AAFFA6"/>
</linearGradient>
<linearGradient id="paint2_linear_508_1822" x1="-60.0307" y1="60.0307" x2="129.165" y2="197.17" gradientUnits="userSpaceOnUse">
<stop stop-color="#BB94FF" stop-opacity="0"/>
<stop offset="0.415999" stop-color="#BB94FF" stop-opacity="0.8"/>
<stop offset="1" stop-color="#AAFFA6"/>
</linearGradient>
<clipPath id="clip0_508_1822">
<rect width="397.333" height="184" fill="white"/>
</clipPath>
<pattern id="pattern0_508_1822" patternUnits="userSpaceOnUse" patternTransform="matrix(6.4974 0 0 6.4974 0 0)" preserveAspectRatio="none" viewBox="0 0 46.41 46.41" width="1" height="1">
<g id="pattern0_508_1822_inner">
<rect width="13" height="13" fill="#D9D9D9"/>
</g>
</pattern></defs>
</svg>
