<svg width="179" height="102" viewBox="0 0 179 102" fill="none" xmlns="http://www.w3.org/2000/svg">
<g opacity="0.32">
<rect opacity="0.1" width="33" height="32" transform="matrix(4.37114e-08 1 1 -4.37114e-08 0 101)" fill="#9960FA"/>
<rect x="99" y="101" width="34" height="32" transform="rotate(-90 99 101)" fill="url(#paint0_linear_123_138)"/>
<rect opacity="0.1" width="31" height="35" transform="matrix(4.37114e-08 1 1 -4.37114e-08 131 101)" fill="#9960FA"/>
<rect opacity="0.1" width="33" height="32" transform="matrix(4.37114e-08 1 1 -4.37114e-08 67 101)" fill="#9960FA"/>
<rect x="166" y="101" width="34" height="32" transform="rotate(-90 166 101)" fill="url(#paint1_linear_123_138)"/>
<rect x="32" y="99" width="32" height="35" transform="rotate(-90 32 99)" fill="url(#paint2_linear_123_138)"/>
<rect x="131" y="65" width="31" height="35" transform="rotate(-90 131 65)" fill="url(#paint3_linear_123_138)"/>
<rect x="67" y="69" width="32" height="32" transform="rotate(-90 67 69)" fill="url(#paint4_linear_123_138)"/>
<rect width="32" height="32" transform="matrix(4.37114e-08 1 1 -4.37114e-08 166 3)" fill="url(#paint5_linear_123_138)"/>
<rect width="33" height="32" transform="matrix(4.37114e-08 1 1 -4.37114e-08 0 34)" fill="url(#paint6_linear_123_138)"/>
<rect width="34" height="32" transform="matrix(4.37114e-08 1 1 -4.37114e-08 99 0)" fill="url(#paint7_linear_123_138)"/>
</g>
<defs>
<linearGradient id="paint0_linear_123_138" x1="133" y1="117" x2="99" y2="117" gradientUnits="userSpaceOnUse">
<stop stop-color="#9960FA"/>
<stop offset="1" stop-color="#9960FA" stop-opacity="0"/>
</linearGradient>
<linearGradient id="paint1_linear_123_138" x1="200" y1="117" x2="166" y2="117" gradientUnits="userSpaceOnUse">
<stop stop-color="#9960FA"/>
<stop offset="1" stop-color="#9960FA" stop-opacity="0"/>
</linearGradient>
<linearGradient id="paint2_linear_123_138" x1="64" y1="116.5" x2="32" y2="116.5" gradientUnits="userSpaceOnUse">
<stop stop-color="#9960FA"/>
<stop offset="1" stop-color="#9960FA" stop-opacity="0"/>
</linearGradient>
<linearGradient id="paint3_linear_123_138" x1="162" y1="82.5" x2="131" y2="82.5" gradientUnits="userSpaceOnUse">
<stop stop-color="#9960FA"/>
<stop offset="1" stop-color="#9960FA" stop-opacity="0"/>
</linearGradient>
<linearGradient id="paint4_linear_123_138" x1="99" y1="85" x2="67" y2="85" gradientUnits="userSpaceOnUse">
<stop stop-color="#9960FA"/>
<stop offset="1" stop-color="#9960FA" stop-opacity="0"/>
</linearGradient>
<linearGradient id="paint5_linear_123_138" x1="32" y1="16" x2="-1.64064e-06" y2="16" gradientUnits="userSpaceOnUse">
<stop stop-color="#9960FA"/>
<stop offset="1" stop-color="#9960FA" stop-opacity="0"/>
</linearGradient>
<linearGradient id="paint6_linear_123_138" x1="33" y1="16" x2="-1.69191e-06" y2="16" gradientUnits="userSpaceOnUse">
<stop stop-color="#9960FA"/>
<stop offset="1" stop-color="#9960FA" stop-opacity="0"/>
</linearGradient>
<linearGradient id="paint7_linear_123_138" x1="34" y1="16" x2="-1.74318e-06" y2="16" gradientUnits="userSpaceOnUse">
<stop stop-color="#9960FA"/>
<stop offset="1" stop-color="#9960FA" stop-opacity="0"/>
</linearGradient>
</defs>
</svg>
