<svg width="485" height="108" viewBox="0 0 485 108" fill="none" xmlns="http://www.w3.org/2000/svg">
<rect width="37" height="485" transform="matrix(5.30798e-08 1 1 -3.59965e-08 0 13)" fill="url(#paint0_linear_154_876)"/>
<rect width="33" height="445" transform="matrix(4.49147e-08 1 1 -4.25403e-08 0 62)" fill="url(#paint1_linear_154_876)"/>
<rect width="32" height="396" transform="matrix(7.69743e-08 1 1 -2.48224e-08 -228 0)" fill="url(#paint2_linear_154_876)"/>
<rect width="38" height="396" transform="matrix(4.49147e-08 1 1 -4.25403e-08 -120 41)" fill="url(#paint3_linear_154_876)"/>
<rect width="44" height="2" transform="matrix(4.63749e-08 1 1 -4.12008e-08 276 38)" fill="white"/>
<rect x="276" y="36" width="10" height="2" transform="rotate(-90 276 36)" fill="white"/>
<rect x="276" y="108" width="10" height="2" transform="rotate(-90 276 108)" fill="white"/>
<rect x="276" y="23" width="10" height="2" transform="rotate(-90 276 23)" fill="white"/>
<rect x="276" y="95" width="10" height="2" transform="rotate(-90 276 95)" fill="white"/>
<defs>
<linearGradient id="paint0_linear_154_876" x1="18.5" y1="485" x2="18.5004" y2="7.17836e-05" gradientUnits="userSpaceOnUse">
<stop stop-color="#AAFFA6"/>
<stop offset="0.371095" stop-color="#9960FA"/>
<stop offset="0.886886"/>
</linearGradient>
<linearGradient id="paint1_linear_154_876" x1="16.5" y1="445" x2="16.5004" y2="6.58633e-05" gradientUnits="userSpaceOnUse">
<stop offset="0.214411" stop-color="#9960FA"/>
<stop offset="0.754893"/>
</linearGradient>
<linearGradient id="paint2_linear_154_876" x1="16" y1="396" x2="16.0003" y2="5.86109e-05" gradientUnits="userSpaceOnUse">
<stop offset="0.214411" stop-color="#9960FA"/>
<stop offset="0.754893"/>
</linearGradient>
<linearGradient id="paint3_linear_154_876" x1="19" y1="396" x2="19.0002" y2="5.86109e-05" gradientUnits="userSpaceOnUse">
<stop stop-color="#FF965D"/>
<stop offset="0.5" stop-color="#9960FA"/>
<stop offset="0.886886"/>
</linearGradient>
</defs>
</svg>
