<svg width="748" height="748" viewBox="0 0 748 748" fill="none" xmlns="http://www.w3.org/2000/svg">
<path d="M488.319 35.416H276.704C244.565 35.416 218.51 61.4704 218.51 93.6101V654.39C218.51 686.53 244.565 712.584 276.704 712.584H488.319C520.459 712.584 546.513 686.53 546.513 654.39V93.6101C546.513 61.4704 520.459 35.416 488.319 35.416Z" fill="url(#paint0_linear_699_7433)"/>
<path d="M485.674 45.9966H279.35C251.593 45.9966 229.091 68.4981 229.091 96.2551V651.745C229.091 679.502 251.593 702.003 279.35 702.003H485.674C513.432 702.003 535.933 679.502 535.933 651.745V96.2551C535.933 68.4981 513.432 45.9966 485.674 45.9966Z" fill="white"/>
<mask id="mask0_699_7433" style="mask-type:luminance" maskUnits="userSpaceOnUse" x="234" y="51" width="297" height="646">
<path d="M488.32 51.2871H276.705C253.33 51.2871 234.382 70.2358 234.382 93.6101V654.39C234.382 677.764 253.33 696.713 276.705 696.713H488.32C511.694 696.713 530.643 677.764 530.643 654.39V93.6101C530.643 70.2358 511.694 51.2871 488.32 51.2871Z" fill="white"/>
</mask>
<g mask="url(#mask0_699_7433)">
<path d="M535.933 35.416H229.091V696.713H535.933V35.416Z" fill="white"/>
<path d="M410.286 51.2871H354.737C346.703 51.2871 340.189 57.8007 340.189 65.8356C340.189 73.8706 346.703 80.3842 354.737 80.3842H410.286C418.321 80.3842 424.835 73.8706 424.835 65.8356C424.835 57.8007 418.321 51.2871 410.286 51.2871Z" fill="#1F1F2E"/>
<path d="M260.229 95.5622C260.774 95.5622 261.297 95.6535 261.8 95.836C262.306 96.0186 262.757 96.3096 263.154 96.7091C263.553 97.1087 263.868 97.6391 264.099 98.3004C264.333 98.9582 264.452 99.7659 264.455 100.723C264.455 101.622 264.354 102.425 264.151 103.131C263.951 103.834 263.663 104.431 263.288 104.924C262.912 105.416 262.46 105.792 261.929 106.05C261.399 106.305 260.806 106.432 260.152 106.432C259.446 106.432 258.822 106.296 258.282 106.024C257.741 105.749 257.305 105.375 256.975 104.903C256.647 104.428 256.449 103.894 256.38 103.301H258.586C258.673 103.687 258.853 103.987 259.129 104.2C259.404 104.41 259.745 104.516 260.152 104.516C260.841 104.516 261.364 104.216 261.722 103.617C262.081 103.014 262.261 102.189 262.265 101.142H262.193C262.034 101.452 261.821 101.719 261.552 101.943C261.283 102.163 260.975 102.334 260.627 102.454C260.283 102.575 259.916 102.635 259.527 102.635C258.903 102.635 258.347 102.489 257.858 102.196C257.369 101.903 256.983 101.5 256.701 100.987C256.418 100.474 256.277 99.8882 256.277 99.2303C256.274 98.5208 256.437 97.8888 256.768 97.3343C257.099 96.7797 257.56 96.3458 258.152 96.0323C258.748 95.7155 259.441 95.5587 260.229 95.5622ZM260.245 97.3188C259.897 97.3188 259.587 97.4014 259.315 97.5667C259.046 97.7321 258.833 97.9542 258.674 98.2332C258.519 98.5122 258.444 98.8239 258.447 99.1683C258.447 99.5162 258.523 99.8296 258.674 100.109C258.829 100.384 259.039 100.605 259.305 100.77C259.573 100.932 259.88 101.013 260.224 101.013C260.483 101.013 260.722 100.965 260.942 100.868C261.163 100.772 261.354 100.639 261.516 100.47C261.681 100.298 261.81 100.1 261.903 99.8761C261.996 99.6522 262.043 99.4146 262.043 99.1632C262.039 98.8291 261.96 98.5225 261.805 98.2435C261.65 97.9646 261.437 97.7407 261.164 97.5719C260.892 97.4031 260.586 97.3188 260.245 97.3188ZM267.312 105.058C266.971 105.058 266.679 104.937 266.434 104.696C266.193 104.455 266.073 104.162 266.073 103.818C266.073 103.481 266.193 103.191 266.434 102.95C266.679 102.709 266.971 102.588 267.312 102.588C267.643 102.588 267.932 102.709 268.18 102.95C268.428 103.191 268.552 103.481 268.552 103.818C268.552 104.045 268.494 104.254 268.377 104.443C268.263 104.629 268.113 104.779 267.927 104.893C267.741 105.003 267.536 105.058 267.312 105.058ZM267.312 99.8658C266.971 99.8658 266.679 99.7452 266.434 99.5041C266.193 99.263 266.073 98.9703 266.073 98.6259C266.073 98.2883 266.193 98.0007 266.434 97.7631C266.679 97.522 266.971 97.4014 267.312 97.4014C267.643 97.4014 267.932 97.522 268.18 97.7631C268.428 98.0007 268.552 98.2883 268.552 98.6259C268.552 98.8566 268.494 99.0667 268.377 99.2562C268.263 99.4421 268.113 99.5902 267.927 99.7005C267.741 99.8107 267.536 99.8658 267.312 99.8658ZM270.179 104.428V102.666L274.596 95.7068H276.115V98.1454H275.216L272.431 102.552V102.635H278.708V104.428H270.179ZM275.257 106.288V103.89L275.298 103.11V95.7068H277.396V106.288H275.257ZM284.66 95.7068V106.288H282.423V97.8302H282.361L279.938 99.3491V97.3653L282.557 95.7068H284.66Z" fill="#111827"/>
<path d="M475.094 100.222C475.094 99.492 474.502 98.8999 473.771 98.8999C473.041 98.8999 472.449 99.492 472.449 100.222V105.513C472.449 106.243 473.041 106.835 473.771 106.835C474.502 106.835 475.094 106.243 475.094 105.513V100.222Z" fill="#111827"/>
<path d="M479.062 97.5775C479.062 96.847 478.47 96.2549 477.739 96.2549C477.009 96.2549 476.417 96.847 476.417 97.5775V105.513C476.417 106.243 477.009 106.836 477.739 106.836C478.47 106.836 479.062 106.243 479.062 105.513V97.5775Z" fill="#111827"/>
<path d="M483.029 94.9325C483.029 94.202 482.437 93.6099 481.707 93.6099C480.976 93.6099 480.384 94.202 480.384 94.9325V105.513C480.384 106.244 480.976 106.836 481.707 106.836C482.437 106.836 483.029 106.244 483.029 105.513V94.9325Z" fill="#111827"/>
<path d="M509.482 96.2549H493.611C492.15 96.2549 490.965 97.4392 490.965 98.9001V104.19C490.965 105.651 492.15 106.836 493.611 106.836H509.482C510.943 106.836 512.127 105.651 512.127 104.19V98.9001C512.127 97.4392 510.943 96.2549 509.482 96.2549Z" stroke="#111827" stroke-width="1.32259"/>
<path d="M506.836 98.8999H494.932C494.202 98.8999 493.61 99.492 493.61 100.222V102.868C493.61 103.598 494.202 104.19 494.932 104.19H506.836C507.566 104.19 508.158 103.598 508.158 102.868V100.222C508.158 99.492 507.566 98.8999 506.836 98.8999Z" fill="#111827"/>
<path d="M266.442 164.927C266.442 165.88 266.223 166.756 265.786 167.553C265.348 168.335 264.676 168.968 263.769 169.452C262.862 169.937 261.737 170.179 260.393 170.179H257.907V176.088H253.897V159.627H260.393C261.706 159.627 262.816 159.854 263.722 160.307C264.629 160.761 265.309 161.386 265.762 162.183C266.216 162.98 266.442 163.895 266.442 164.927ZM260.088 167.037C260.854 167.037 261.424 166.85 261.799 166.474C262.175 166.099 262.362 165.583 262.362 164.927C262.362 164.27 262.175 163.754 261.799 163.379C261.424 163.004 260.854 162.816 260.088 162.816H257.907V167.037H260.088ZM267.733 169.523C267.733 168.178 267.983 166.998 268.483 165.982C268.999 164.966 269.694 164.184 270.57 163.637C271.445 163.09 272.422 162.816 273.501 162.816C274.423 162.816 275.228 163.004 275.916 163.379C276.62 163.754 277.159 164.247 277.534 164.856V163.004H281.544V176.088H277.534V174.236C277.143 174.846 276.596 175.338 275.893 175.713C275.205 176.088 274.4 176.276 273.477 176.276C272.414 176.276 271.445 176.002 270.57 175.455C269.694 174.892 268.999 174.103 268.483 173.087C267.983 172.055 267.733 170.867 267.733 169.523ZM277.534 169.546C277.534 168.546 277.253 167.756 276.69 167.178C276.143 166.599 275.471 166.31 274.673 166.31C273.876 166.31 273.196 166.599 272.633 167.178C272.086 167.741 271.813 168.522 271.813 169.523C271.813 170.523 272.086 171.32 272.633 171.914C273.196 172.493 273.876 172.782 274.673 172.782C275.471 172.782 276.143 172.493 276.69 171.914C277.253 171.336 277.534 170.547 277.534 169.546ZM287.446 163.004L290.471 171.188L293.473 163.004H297.811L289.603 182.302H285.289L288.29 175.643L282.967 163.004H287.446ZM315.956 162.863C317.582 162.863 318.872 163.356 319.825 164.341C320.794 165.325 321.279 166.693 321.279 168.444V176.088H317.293V168.983C317.293 168.139 317.066 167.49 316.613 167.037C316.175 166.568 315.565 166.334 314.784 166.334C314.002 166.334 313.385 166.568 312.931 167.037C312.493 167.49 312.275 168.139 312.275 168.983V176.088H308.288V168.983C308.288 168.139 308.062 167.49 307.608 167.037C307.171 166.568 306.561 166.334 305.779 166.334C304.998 166.334 304.38 166.568 303.927 167.037C303.489 167.49 303.27 168.139 303.27 168.983V176.088H299.261V163.004H303.27V164.645C303.677 164.098 304.208 163.668 304.865 163.356C305.521 163.027 306.264 162.863 307.092 162.863C308.077 162.863 308.953 163.074 309.719 163.496C310.5 163.918 311.11 164.52 311.548 165.302C312.001 164.583 312.619 163.997 313.4 163.543C314.182 163.09 315.034 162.863 315.956 162.863ZM336.417 169.312C336.417 169.671 336.394 170.054 336.347 170.461H327.272C327.335 171.289 327.593 171.922 328.046 172.36C328.5 172.798 329.07 173.017 329.758 173.017C330.758 173.017 331.454 172.595 331.845 171.75H336.113C335.894 172.61 335.495 173.384 334.917 174.072C334.354 174.76 333.643 175.299 332.783 175.69C331.923 176.081 330.962 176.276 329.899 176.276C328.617 176.276 327.476 176.002 326.475 175.455C325.475 174.908 324.693 174.126 324.13 173.11C323.567 172.094 323.286 170.906 323.286 169.546C323.286 168.186 323.56 166.998 324.107 165.982C324.67 164.966 325.451 164.184 326.452 163.637C327.452 163.09 328.601 162.816 329.899 162.816C331.165 162.816 332.29 163.082 333.275 163.614C334.26 164.145 335.026 164.903 335.573 165.888C336.136 166.873 336.417 168.014 336.417 169.312ZM332.314 168.421C332.314 167.67 332.079 167.084 331.61 166.662C331.141 166.24 330.555 166.029 329.852 166.029C329.164 166.029 328.585 166.24 328.117 166.662C327.663 167.068 327.382 167.655 327.272 168.421H332.314ZM346.505 162.863C348.037 162.863 349.257 163.363 350.163 164.364C351.086 165.349 351.547 166.709 351.547 168.444V176.088H347.561V168.983C347.561 168.108 347.334 167.428 346.881 166.943C346.427 166.459 345.817 166.216 345.051 166.216C344.286 166.216 343.676 166.459 343.222 166.943C342.769 167.428 342.542 168.108 342.542 168.983V176.088H338.533V163.004H342.542V164.739C342.949 164.161 343.496 163.707 344.184 163.379C344.872 163.035 345.646 162.863 346.505 162.863ZM361.626 172.688V176.088H359.586C358.132 176.088 356.999 175.737 356.186 175.033C355.373 174.314 354.966 173.149 354.966 171.539V166.334H353.372V163.004H354.966V159.815H358.976V163.004H361.602V166.334H358.976V171.586C358.976 171.977 359.07 172.258 359.257 172.43C359.445 172.602 359.758 172.688 360.195 172.688H361.626ZM375.242 176.253C374.039 176.253 372.96 176.057 372.006 175.666C371.053 175.275 370.287 174.697 369.708 173.931C369.146 173.165 368.849 172.243 368.817 171.164H373.085C373.148 171.789 373.359 172.266 373.718 172.595C374.078 172.923 374.547 173.087 375.125 173.087C375.719 173.087 376.188 172.946 376.532 172.665C376.876 172.368 377.048 171.977 377.048 171.492C377.048 171.086 376.907 170.75 376.626 170.484C376.36 170.218 376.024 170 375.618 169.828C375.227 169.656 374.664 169.46 373.929 169.241C372.866 168.913 371.999 168.585 371.326 168.256C370.654 167.928 370.076 167.444 369.591 166.803C369.107 166.162 368.864 165.325 368.864 164.294C368.864 162.762 369.419 161.566 370.529 160.706C371.639 159.831 373.085 159.393 374.867 159.393C376.681 159.393 378.142 159.831 379.252 160.706C380.362 161.566 380.956 162.769 381.034 164.317H376.696C376.665 163.754 376.47 163.324 376.11 163.027C375.766 162.715 375.305 162.558 374.727 162.558C374.242 162.558 373.851 162.691 373.554 162.957C373.257 163.223 373.109 163.606 373.109 164.106C373.109 164.638 373.359 165.052 373.859 165.349C374.359 165.646 375.141 165.966 376.204 166.31C377.267 166.67 378.127 167.014 378.783 167.342C379.455 167.67 380.034 168.147 380.518 168.772C381.003 169.398 381.245 170.203 381.245 171.188C381.245 172.126 381.003 172.978 380.518 173.743C380.049 174.509 379.362 175.119 378.455 175.573C377.548 176.026 376.477 176.253 375.242 176.253ZM382.916 169.546C382.916 168.186 383.189 166.998 383.736 165.982C384.299 164.966 385.073 164.184 386.058 163.637C387.058 163.09 388.199 162.816 389.481 162.816C391.123 162.816 392.491 163.246 393.585 164.106C394.695 164.966 395.422 166.177 395.766 167.741H391.498C391.138 166.74 390.443 166.24 389.411 166.24C388.676 166.24 388.09 166.529 387.652 167.107C387.215 167.67 386.996 168.483 386.996 169.546C386.996 170.609 387.215 171.43 387.652 172.008C388.09 172.571 388.676 172.852 389.411 172.852C390.443 172.852 391.138 172.352 391.498 171.352H395.766C395.422 172.884 394.695 174.087 393.585 174.963C392.475 175.838 391.107 176.276 389.481 176.276C388.199 176.276 387.058 176.002 386.058 175.455C385.073 174.908 384.299 174.126 383.736 173.11C383.189 172.094 382.916 170.906 382.916 169.546ZM405.953 162.863C407.454 162.863 408.658 163.363 409.564 164.364C410.471 165.349 410.925 166.709 410.925 168.444V176.088H406.938V168.983C406.938 168.108 406.712 167.428 406.258 166.943C405.805 166.459 405.195 166.216 404.429 166.216C403.663 166.216 403.054 166.459 402.6 166.943C402.147 167.428 401.92 168.108 401.92 168.983V176.088H397.91V158.736H401.92V164.763C402.327 164.184 402.882 163.723 403.585 163.379C404.289 163.035 405.078 162.863 405.953 162.863ZM426.045 169.312C426.045 169.671 426.022 170.054 425.975 170.461H416.9C416.962 171.289 417.22 171.922 417.674 172.36C418.127 172.798 418.698 173.017 419.386 173.017C420.386 173.017 421.082 172.595 421.472 171.75H425.74C425.521 172.61 425.123 173.384 424.544 174.072C423.981 174.76 423.27 175.299 422.41 175.69C421.551 176.081 420.589 176.276 419.526 176.276C418.244 176.276 417.103 176.002 416.103 175.455C415.102 174.908 414.321 174.126 413.758 173.11C413.195 172.094 412.914 170.906 412.914 169.546C412.914 168.186 413.187 166.998 413.734 165.982C414.297 164.966 415.079 164.184 416.079 163.637C417.08 163.09 418.229 162.816 419.526 162.816C420.792 162.816 421.918 163.082 422.903 163.614C423.888 164.145 424.654 164.903 425.201 165.888C425.764 166.873 426.045 168.014 426.045 169.312ZM421.941 168.421C421.941 167.67 421.707 167.084 421.238 166.662C420.769 166.24 420.183 166.029 419.479 166.029C418.791 166.029 418.213 166.24 417.744 166.662C417.291 167.068 417.009 167.655 416.9 168.421H421.941ZM427.363 169.523C427.363 168.178 427.613 166.998 428.113 165.982C428.629 164.966 429.325 164.184 430.2 163.637C431.076 163.09 432.053 162.816 433.131 162.816C433.991 162.816 434.773 162.996 435.476 163.356C436.195 163.715 436.758 164.2 437.165 164.81V158.736H441.174V176.088H437.165V174.212C436.789 174.838 436.25 175.338 435.547 175.713C434.859 176.088 434.054 176.276 433.131 176.276C432.053 176.276 431.076 176.002 430.2 175.455C429.325 174.892 428.629 174.103 428.113 173.087C427.613 172.055 427.363 170.867 427.363 169.523ZM437.165 169.546C437.165 168.546 436.883 167.756 436.32 167.178C435.773 166.599 435.101 166.31 434.304 166.31C433.507 166.31 432.827 166.599 432.264 167.178C431.717 167.741 431.443 168.522 431.443 169.523C431.443 170.523 431.717 171.32 432.264 171.914C432.827 172.493 433.507 172.782 434.304 172.782C435.101 172.782 435.773 172.493 436.32 171.914C436.883 171.336 437.165 170.547 437.165 169.546ZM456.996 163.004V176.088H452.986V174.306C452.579 174.885 452.024 175.354 451.321 175.713C450.633 176.057 449.867 176.229 449.023 176.229C448.022 176.229 447.139 176.01 446.373 175.573C445.607 175.119 445.013 174.47 444.591 173.626C444.169 172.782 443.958 171.789 443.958 170.648V163.004H447.944V170.109C447.944 170.984 448.171 171.664 448.624 172.149C449.078 172.634 449.687 172.876 450.453 172.876C451.235 172.876 451.852 172.634 452.306 172.149C452.759 171.664 452.986 170.984 452.986 170.109V163.004H456.996ZM463.885 158.736V176.088H459.876V158.736H463.885ZM479.125 169.312C479.125 169.671 479.102 170.054 479.055 170.461H469.98C470.043 171.289 470.301 171.922 470.754 172.36C471.207 172.798 471.778 173.017 472.466 173.017C473.466 173.017 474.162 172.595 474.553 171.75H478.821C478.602 172.61 478.203 173.384 477.625 174.072C477.062 174.76 476.351 175.299 475.491 175.69C474.631 176.081 473.67 176.276 472.607 176.276C471.325 176.276 470.184 176.002 469.183 175.455C468.183 174.908 467.401 174.126 466.838 173.11C466.275 172.094 465.994 170.906 465.994 169.546C465.994 168.186 466.268 166.998 466.815 165.982C467.378 164.966 468.159 164.184 469.16 163.637C470.16 163.09 471.309 162.816 472.607 162.816C473.873 162.816 474.998 163.082 475.983 163.614C476.968 164.145 477.734 164.903 478.281 165.888C478.844 166.873 479.125 168.014 479.125 169.312ZM475.022 168.421C475.022 167.67 474.787 167.084 474.318 166.662C473.849 166.24 473.263 166.029 472.56 166.029C471.872 166.029 471.293 166.24 470.825 166.662C470.371 167.068 470.09 167.655 469.98 168.421H475.022Z" fill="#111827"/>
<path opacity="0.45" d="M460.091 197.165H256.411C254.22 197.165 252.443 198.941 252.443 201.133C252.443 203.324 254.22 205.101 256.411 205.101H460.091C462.282 205.101 464.058 203.324 464.058 201.133C464.058 198.941 462.282 197.165 460.091 197.165Z" fill="#111827"/>
<path opacity="0.45" d="M380.735 215.682H256.411C254.22 215.682 252.443 217.458 252.443 219.649C252.443 221.841 254.22 223.617 256.411 223.617H380.735C382.926 223.617 384.703 221.841 384.703 219.649C384.703 217.458 382.926 215.682 380.735 215.682Z" fill="#111827"/>
</g>
<rect x="251.002" y="255.285" width="263.021" height="54.748" rx="8.20708" fill="#EDE9FE"/>
<path d="M271.461 283.118V272.537H275.635C276.434 272.537 277.116 272.68 277.681 272.966C278.249 273.249 278.682 273.65 278.978 274.17C279.277 274.687 279.427 275.295 279.427 275.994C279.427 276.696 279.276 277.301 278.973 277.807C278.669 278.31 278.23 278.696 277.655 278.964C277.083 279.233 276.391 279.367 275.578 279.367H272.783V277.569H275.217C275.644 277.569 275.998 277.511 276.281 277.394C276.563 277.277 276.773 277.101 276.911 276.867C277.052 276.633 277.123 276.342 277.123 275.994C277.123 275.642 277.052 275.346 276.911 275.105C276.773 274.864 276.562 274.681 276.276 274.557C275.993 274.43 275.637 274.366 275.206 274.366H273.698V283.118H271.461ZM277.175 278.303L279.804 283.118H277.335L274.762 278.303H277.175ZM284.455 283.273C283.639 283.273 282.936 283.108 282.347 282.777C281.762 282.443 281.311 281.971 280.994 281.362C280.677 280.749 280.519 280.024 280.519 279.187C280.519 278.37 280.677 277.654 280.994 277.037C281.311 276.421 281.757 275.94 282.332 275.596C282.911 275.251 283.589 275.079 284.368 275.079C284.891 275.079 285.378 275.164 285.83 275.332C286.284 275.498 286.68 275.747 287.018 276.082C287.359 276.416 287.624 276.836 287.814 277.342C288.003 277.845 288.098 278.434 288.098 279.109V279.714H281.397V278.35H286.026C286.026 278.033 285.957 277.752 285.819 277.507C285.682 277.263 285.49 277.072 285.246 276.934C285.005 276.793 284.724 276.722 284.404 276.722C284.07 276.722 283.773 276.8 283.515 276.955C283.26 277.106 283.06 277.311 282.916 277.569C282.771 277.824 282.697 278.108 282.694 278.422V279.719C282.694 280.111 282.766 280.451 282.911 280.736C283.059 281.022 283.267 281.243 283.536 281.398C283.804 281.553 284.123 281.63 284.492 281.63C284.736 281.63 284.96 281.596 285.163 281.527C285.366 281.458 285.54 281.355 285.685 281.217C285.83 281.079 285.94 280.91 286.016 280.711L288.051 280.845C287.948 281.334 287.736 281.761 287.416 282.126C287.099 282.488 286.689 282.77 286.186 282.974C285.687 283.173 285.11 283.273 284.455 283.273ZM291.735 278.53V283.118H289.534V275.183H291.631V276.583H291.724C291.9 276.121 292.195 275.756 292.608 275.487C293.021 275.215 293.522 275.079 294.111 275.079C294.662 275.079 295.143 275.2 295.553 275.441C295.963 275.682 296.281 276.026 296.509 276.474C296.736 276.919 296.85 277.449 296.85 278.065V283.118H294.649V278.458C294.652 277.972 294.528 277.594 294.277 277.321C294.025 277.046 293.679 276.908 293.238 276.908C292.942 276.908 292.68 276.972 292.453 277.099C292.229 277.227 292.053 277.413 291.926 277.657C291.802 277.898 291.738 278.189 291.735 278.53ZM302.805 275.183V276.836H298.026V275.183H302.805ZM299.111 273.281H301.312V280.68C301.312 280.883 301.343 281.041 301.405 281.155C301.467 281.265 301.553 281.343 301.663 281.387C301.777 281.432 301.908 281.455 302.056 281.455C302.159 281.455 302.263 281.446 302.366 281.429C302.469 281.408 302.548 281.393 302.604 281.382L302.95 283.02C302.84 283.054 302.685 283.094 302.485 283.139C302.285 283.187 302.042 283.216 301.756 283.227C301.226 283.247 300.761 283.177 300.361 283.015C299.965 282.853 299.657 282.602 299.437 282.261C299.216 281.92 299.108 281.489 299.111 280.969V273.281ZM312.189 272.537V283.118H309.951V274.661H309.889L307.466 276.18V274.196L310.086 272.537H312.189Z" fill="#374151"/>
<rect x="463.695" y="277.254" width="38.477" height="10.8079" rx="5.40393" fill="#C0A4F8"/>
<rect x="270.893" y="290.222" width="79.0029" height="5.97727" rx="2.98864" fill="#C0A4F8"/>
<rect x="251.002" y="317.067" width="263.021" height="54.748" rx="8.20708" fill="#EDEDED"/>
<rect x="463.695" y="339.037" width="38.477" height="10.8079" rx="5.40393" fill="#94979D"/>
<rect x="251.002" y="378.85" width="263.021" height="54.748" rx="8.20708" fill="#EDEDED"/>
<rect x="463.695" y="400.82" width="38.477" height="10.8079" rx="5.40393" fill="#94979D"/>
<rect x="251.002" y="440.633" width="263.021" height="54.748" rx="8.20708" fill="#EDEDED"/>
<rect x="463.695" y="462.603" width="38.477" height="10.8079" rx="5.40393" fill="#94979D"/>
<rect x="251.002" y="502.415" width="263.021" height="54.748" rx="8.20708" fill="#EDEDED"/>
<rect x="463.695" y="524.386" width="38.477" height="10.8079" rx="5.40393" fill="#94979D"/>
<path d="M271.461 344.901V334.32H275.635C276.434 334.32 277.116 334.463 277.681 334.749C278.249 335.031 278.682 335.433 278.978 335.953C279.277 336.469 279.427 337.077 279.427 337.776C279.427 338.479 279.276 339.084 278.973 339.59C278.669 340.093 278.23 340.478 277.655 340.747C277.083 341.016 276.391 341.15 275.578 341.15H272.783V339.352H275.217C275.644 339.352 275.998 339.294 276.281 339.177C276.563 339.059 276.773 338.884 276.911 338.65C277.052 338.415 277.123 338.124 277.123 337.776C277.123 337.425 277.052 337.129 276.911 336.888C276.773 336.647 276.562 336.464 276.276 336.34C275.993 336.213 275.637 336.149 275.206 336.149H273.698V344.901H271.461ZM277.175 340.086L279.804 344.901H277.335L274.762 340.086H277.175ZM284.455 345.056C283.639 345.056 282.936 344.891 282.347 344.56C281.762 344.226 281.311 343.754 280.994 343.144C280.677 342.531 280.519 341.806 280.519 340.969C280.519 340.153 280.677 339.437 280.994 338.82C281.311 338.204 281.757 337.723 282.332 337.379C282.911 337.034 283.589 336.862 284.368 336.862C284.891 336.862 285.378 336.946 285.83 337.115C286.284 337.28 286.68 337.53 287.018 337.864C287.359 338.198 287.624 338.619 287.814 339.125C288.003 339.628 288.098 340.217 288.098 340.892V341.496H281.397V340.132H286.026C286.026 339.815 285.957 339.535 285.819 339.29C285.682 339.046 285.49 338.854 285.246 338.717C285.005 338.576 284.724 338.505 284.404 338.505C284.07 338.505 283.773 338.582 283.515 338.737C283.26 338.889 283.06 339.094 282.916 339.352C282.771 339.607 282.697 339.891 282.694 340.205V341.501C282.694 341.894 282.766 342.233 282.911 342.519C283.059 342.805 283.267 343.025 283.536 343.18C283.804 343.335 284.123 343.413 284.492 343.413C284.736 343.413 284.96 343.379 285.163 343.31C285.366 343.241 285.54 343.137 285.685 343C285.83 342.862 285.94 342.693 286.016 342.493L288.051 342.628C287.948 343.117 287.736 343.544 287.416 343.909C287.099 344.271 286.689 344.553 286.186 344.756C285.687 344.956 285.11 345.056 284.455 345.056ZM291.735 340.313V344.901H289.534V336.965H291.631V338.365H291.724C291.9 337.904 292.195 337.539 292.608 337.27C293.021 336.998 293.522 336.862 294.111 336.862C294.662 336.862 295.143 336.983 295.553 337.224C295.963 337.465 296.281 337.809 296.509 338.257C296.736 338.701 296.85 339.232 296.85 339.848V344.901H294.649V340.241C294.652 339.755 294.528 339.376 294.277 339.104C294.025 338.829 293.679 338.691 293.238 338.691C292.942 338.691 292.68 338.755 292.453 338.882C292.229 339.009 292.053 339.195 291.926 339.44C291.802 339.681 291.738 339.972 291.735 340.313ZM302.805 336.965V338.619H298.026V336.965H302.805ZM299.111 335.064H301.312V342.462C301.312 342.666 301.343 342.824 301.405 342.938C301.467 343.048 301.553 343.125 301.663 343.17C301.777 343.215 301.908 343.237 302.056 343.237C302.159 343.237 302.263 343.229 302.366 343.211C302.469 343.191 302.548 343.175 302.604 343.165L302.95 344.803C302.84 344.837 302.685 344.877 302.485 344.922C302.285 344.97 302.042 344.999 301.756 345.009C301.226 345.03 300.761 344.959 300.361 344.798C299.965 344.636 299.657 344.384 299.437 344.043C299.216 343.702 299.108 343.272 299.111 342.752V335.064ZM307.585 344.901V343.289L311.352 339.802C311.672 339.492 311.941 339.213 312.158 338.965C312.378 338.717 312.545 338.474 312.659 338.236C312.772 337.995 312.829 337.735 312.829 337.456C312.829 337.146 312.759 336.879 312.617 336.655C312.476 336.428 312.283 336.254 312.039 336.134C311.794 336.01 311.517 335.948 311.207 335.948C310.883 335.948 310.601 336.013 310.36 336.144C310.119 336.275 309.933 336.462 309.802 336.707C309.671 336.952 309.605 337.243 309.605 337.58H307.482C307.482 336.888 307.639 336.287 307.952 335.777C308.266 335.267 308.705 334.873 309.27 334.594C309.834 334.315 310.485 334.175 311.222 334.175C311.98 334.175 312.64 334.31 313.201 334.578C313.766 334.844 314.205 335.212 314.519 335.684C314.832 336.156 314.989 336.697 314.989 337.306C314.989 337.706 314.909 338.1 314.751 338.489C314.596 338.879 314.319 339.311 313.919 339.786C313.52 340.258 312.957 340.825 312.23 341.486L310.685 343V343.072H315.128V344.901H307.585Z" fill="#374151"/>
<path d="M271.461 406.684V396.103H275.635C276.438 396.103 277.121 396.256 277.686 396.563C278.251 396.866 278.682 397.288 278.978 397.828C279.277 398.366 279.427 398.986 279.427 399.688C279.427 400.391 279.276 401.011 278.973 401.548C278.669 402.086 278.23 402.504 277.655 402.804C277.083 403.103 276.391 403.253 275.578 403.253H272.918V401.46H275.217C275.647 401.46 276.002 401.386 276.281 401.238C276.563 401.087 276.773 400.878 276.911 400.613C277.052 400.344 277.123 400.036 277.123 399.688C277.123 399.337 277.052 399.03 276.911 398.769C276.773 398.503 276.563 398.299 276.281 398.154C275.998 398.006 275.64 397.932 275.206 397.932H273.698V406.684H271.461ZM282.889 406.833C282.382 406.833 281.931 406.746 281.535 406.57C281.139 406.391 280.826 406.127 280.595 405.779C280.367 405.428 280.254 404.991 280.254 404.467C280.254 404.026 280.335 403.656 280.497 403.356C280.659 403.057 280.879 402.816 281.158 402.633C281.437 402.451 281.754 402.313 282.109 402.22C282.467 402.127 282.842 402.061 283.235 402.024C283.696 401.975 284.068 401.931 284.351 401.889C284.633 401.844 284.838 401.779 284.966 401.693C285.093 401.607 285.157 401.479 285.157 401.311V401.28C285.157 400.952 285.053 400.699 284.847 400.52C284.644 400.341 284.354 400.251 283.979 400.251C283.583 400.251 283.268 400.339 283.033 400.515C282.799 400.687 282.644 400.904 282.568 401.166L280.533 401.001C280.636 400.518 280.839 400.102 281.142 399.75C281.446 399.396 281.836 399.123 282.315 398.934C282.797 398.741 283.355 398.645 283.989 398.645C284.43 398.645 284.852 398.696 285.255 398.8C285.661 398.903 286.021 399.063 286.335 399.28C286.652 399.497 286.901 399.776 287.084 400.117C287.266 400.455 287.358 400.859 287.358 401.331V406.684H285.27V405.583H285.208C285.081 405.831 284.91 406.05 284.697 406.239C284.483 406.425 284.227 406.572 283.927 406.678C283.627 406.782 283.281 406.833 282.889 406.833ZM283.519 405.315C283.843 405.315 284.129 405.251 284.377 405.123C284.625 404.992 284.819 404.817 284.96 404.596C285.102 404.376 285.172 404.126 285.172 403.847V403.005C285.103 403.05 285.009 403.091 284.888 403.129C284.771 403.164 284.638 403.196 284.49 403.227C284.342 403.255 284.194 403.281 284.046 403.305C283.898 403.325 283.764 403.344 283.643 403.362C283.385 403.399 283.159 403.46 282.966 403.542C282.773 403.625 282.623 403.737 282.517 403.878C282.41 404.016 282.357 404.188 282.357 404.395C282.357 404.695 282.465 404.924 282.682 405.082C282.902 405.237 283.181 405.315 283.519 405.315ZM289.065 406.684V398.748H291.199V400.133H291.281C291.426 399.64 291.669 399.268 292.01 399.017C292.351 398.762 292.744 398.634 293.188 398.634C293.298 398.634 293.417 398.641 293.544 398.655C293.672 398.669 293.784 398.688 293.88 398.712V400.665C293.777 400.634 293.634 400.606 293.451 400.582C293.269 400.558 293.102 400.546 292.95 400.546C292.626 400.546 292.337 400.617 292.082 400.758C291.831 400.896 291.631 401.088 291.483 401.336C291.338 401.584 291.266 401.87 291.266 402.194V406.684H289.065ZM297.012 404.4L297.017 401.76H297.338L299.88 398.748H302.406L298.991 402.736H298.469L297.012 404.4ZM295.018 406.684V396.103H297.219V406.684H295.018ZM299.978 406.684L297.643 403.227L299.11 401.672L302.556 406.684H299.978ZM303.486 406.684V398.748H305.687V406.684H303.486ZM304.591 397.725C304.264 397.725 303.983 397.617 303.749 397.4C303.518 397.179 303.403 396.916 303.403 396.609C303.403 396.306 303.518 396.046 303.749 395.829C303.983 395.609 304.264 395.498 304.591 395.498C304.919 395.498 305.198 395.609 305.428 395.829C305.663 396.046 305.78 396.306 305.78 396.609C305.78 396.916 305.663 397.179 305.428 397.4C305.198 397.617 304.919 397.725 304.591 397.725ZM309.651 402.096V406.684H307.45V398.748H309.547V400.148H309.64C309.816 399.687 310.11 399.321 310.524 399.053C310.937 398.781 311.438 398.645 312.027 398.645C312.578 398.645 313.059 398.765 313.468 399.006C313.878 399.247 314.197 399.592 314.424 400.04C314.652 400.484 314.765 401.014 314.765 401.631V406.684H312.564V402.024C312.568 401.538 312.444 401.159 312.192 400.887C311.941 400.611 311.595 400.474 311.154 400.474C310.858 400.474 310.596 400.537 310.369 400.665C310.145 400.792 309.969 400.978 309.842 401.223C309.718 401.464 309.654 401.755 309.651 402.096ZM320.075 409.825C319.362 409.825 318.751 409.727 318.241 409.53C317.735 409.337 317.332 409.074 317.032 408.74C316.732 408.406 316.538 408.03 316.448 407.614L318.484 407.34C318.546 407.498 318.644 407.646 318.778 407.784C318.913 407.922 319.09 408.032 319.31 408.115C319.534 408.201 319.806 408.244 320.127 408.244C320.605 408.244 321 408.127 321.31 407.893C321.623 407.662 321.78 407.274 321.78 406.73V405.278H321.687C321.59 405.499 321.446 405.707 321.253 405.903C321.06 406.1 320.812 406.26 320.509 406.384C320.206 406.508 319.844 406.57 319.424 406.57C318.828 406.57 318.286 406.432 317.797 406.157C317.311 405.878 316.923 405.452 316.634 404.881C316.348 404.305 316.205 403.579 316.205 402.7C316.205 401.801 316.352 401.051 316.645 400.448C316.937 399.845 317.326 399.394 317.812 399.094C318.301 398.795 318.837 398.645 319.419 398.645C319.863 398.645 320.235 398.72 320.535 398.872C320.834 399.02 321.076 399.206 321.258 399.43C321.444 399.65 321.587 399.867 321.687 400.081H321.77V398.748H323.955V406.761C323.955 407.436 323.79 408.001 323.459 408.456C323.128 408.91 322.67 409.251 322.085 409.479C321.503 409.709 320.833 409.825 320.075 409.825ZM320.121 404.917C320.476 404.917 320.776 404.829 321.02 404.653C321.268 404.474 321.458 404.219 321.589 403.889C321.723 403.554 321.79 403.155 321.79 402.69C321.79 402.225 321.725 401.822 321.594 401.481C321.463 401.137 321.274 400.87 321.026 400.68C320.778 400.491 320.476 400.396 320.121 400.396C319.76 400.396 319.455 400.494 319.207 400.691C318.959 400.883 318.771 401.152 318.644 401.497C318.516 401.841 318.453 402.239 318.453 402.69C318.453 403.148 318.516 403.544 318.644 403.878C318.775 404.209 318.962 404.465 319.207 404.648C319.455 404.827 319.76 404.917 320.121 404.917Z" fill="#374151"/>
<path d="M271.461 468.467V457.886H275.635C276.434 457.886 277.116 458.029 277.681 458.315C278.249 458.597 278.682 458.999 278.978 459.519C279.277 460.035 279.427 460.643 279.427 461.342C279.427 462.045 279.276 462.649 278.973 463.156C278.669 463.659 278.23 464.044 277.655 464.313C277.083 464.582 276.391 464.716 275.578 464.716H272.783V462.918H275.217C275.644 462.918 275.998 462.86 276.281 462.742C276.563 462.625 276.773 462.45 276.911 462.215C277.052 461.981 277.123 461.69 277.123 461.342C277.123 460.991 277.052 460.695 276.911 460.454C276.773 460.213 276.562 460.03 276.276 459.906C275.993 459.779 275.637 459.715 275.206 459.715H273.698V468.467H271.461ZM277.175 463.652L279.804 468.467H277.335L274.762 463.652H277.175ZM284.455 468.622C283.639 468.622 282.936 468.456 282.347 468.126C281.762 467.792 281.311 467.32 280.994 466.71C280.677 466.097 280.519 465.372 280.519 464.535C280.519 463.719 280.677 463.002 280.994 462.386C281.311 461.769 281.757 461.289 282.332 460.945C282.911 460.6 283.589 460.428 284.368 460.428C284.891 460.428 285.378 460.512 285.83 460.681C286.284 460.846 286.68 461.096 287.018 461.43C287.359 461.764 287.624 462.184 287.814 462.691C288.003 463.194 288.098 463.783 288.098 464.458V465.062H281.397V463.698H286.026C286.026 463.381 285.957 463.101 285.819 462.856C285.682 462.612 285.49 462.42 285.246 462.283C285.005 462.141 284.724 462.071 284.404 462.071C284.07 462.071 283.773 462.148 283.515 462.303C283.26 462.455 283.06 462.66 282.916 462.918C282.771 463.173 282.697 463.457 282.694 463.771V465.067C282.694 465.46 282.766 465.799 282.911 466.085C283.059 466.371 283.267 466.591 283.536 466.746C283.804 466.901 284.123 466.979 284.492 466.979C284.736 466.979 284.96 466.944 285.163 466.876C285.366 466.807 285.54 466.703 285.685 466.566C285.83 466.428 285.94 466.259 286.016 466.059L288.051 466.194C287.948 466.683 287.736 467.11 287.416 467.475C287.099 467.836 286.689 468.119 286.186 468.322C285.687 468.522 285.11 468.622 284.455 468.622ZM291.735 463.879V468.467H289.534V460.531H291.631V461.931H291.724C291.9 461.47 292.195 461.105 292.608 460.836C293.021 460.564 293.522 460.428 294.111 460.428C294.662 460.428 295.143 460.548 295.553 460.79C295.963 461.031 296.281 461.375 296.509 461.823C296.736 462.267 296.85 462.798 296.85 463.414V468.467H294.649V463.807C294.652 463.321 294.528 462.942 294.277 462.67C294.025 462.395 293.679 462.257 293.238 462.257C292.942 462.257 292.68 462.321 292.453 462.448C292.229 462.575 292.053 462.761 291.926 463.006C291.802 463.247 291.738 463.538 291.735 463.879ZM302.805 460.531V462.184H298.026V460.531H302.805ZM299.111 458.63H301.312V466.028C301.312 466.231 301.343 466.39 301.405 466.504C301.467 466.614 301.553 466.691 301.663 466.736C301.777 466.781 301.908 466.803 302.056 466.803C302.159 466.803 302.263 466.795 302.366 466.777C302.469 466.757 302.548 466.741 302.604 466.731L302.95 468.369C302.84 468.403 302.685 468.443 302.485 468.487C302.285 468.536 302.042 468.565 301.756 468.575C301.226 468.596 300.761 468.525 300.361 468.363C299.965 468.202 299.657 467.95 299.437 467.609C299.216 467.268 299.108 466.838 299.111 466.318V458.63ZM311.496 468.611C310.725 468.611 310.038 468.479 309.435 468.214C308.836 467.945 308.362 467.576 308.014 467.108C307.67 466.636 307.492 466.092 307.482 465.475H309.734C309.748 465.734 309.833 465.961 309.988 466.157C310.146 466.35 310.356 466.5 310.618 466.607C310.88 466.714 311.174 466.767 311.501 466.767C311.842 466.767 312.144 466.707 312.405 466.586C312.667 466.466 312.872 466.299 313.02 466.085C313.168 465.872 313.242 465.625 313.242 465.346C313.242 465.064 313.163 464.814 313.005 464.597C312.85 464.377 312.626 464.205 312.333 464.081C312.044 463.957 311.699 463.895 311.3 463.895H310.313V462.252H311.3C311.637 462.252 311.935 462.193 312.194 462.076C312.455 461.959 312.659 461.797 312.803 461.59C312.948 461.38 313.02 461.136 313.02 460.857C313.02 460.592 312.957 460.359 312.829 460.159C312.705 459.956 312.529 459.798 312.302 459.684C312.078 459.57 311.817 459.513 311.517 459.513C311.214 459.513 310.937 459.569 310.685 459.679C310.434 459.786 310.232 459.939 310.081 460.139C309.929 460.338 309.848 460.573 309.838 460.841H307.694C307.704 460.232 307.878 459.694 308.216 459.229C308.553 458.764 309.008 458.401 309.579 458.139C310.155 457.874 310.804 457.741 311.527 457.741C312.257 457.741 312.896 457.874 313.444 458.139C313.992 458.404 314.417 458.763 314.72 459.214C315.027 459.662 315.178 460.164 315.175 460.722C315.178 461.315 314.994 461.809 314.622 462.205C314.253 462.601 313.773 462.853 313.18 462.959V463.042C313.959 463.142 314.551 463.412 314.958 463.853C315.368 464.291 315.571 464.838 315.567 465.496C315.571 466.099 315.397 466.634 315.046 467.103C314.698 467.571 314.217 467.94 313.604 468.208C312.991 468.477 312.288 468.611 311.496 468.611Z" fill="#374151"/>
<path d="M271.461 530.25V519.669H275.635C276.434 519.669 277.116 519.812 277.681 520.098C278.249 520.38 278.682 520.781 278.978 521.301C279.277 521.818 279.427 522.426 279.427 523.125C279.427 523.828 279.276 524.432 278.973 524.938C278.669 525.441 278.23 525.827 277.655 526.096C277.083 526.364 276.391 526.499 275.578 526.499H272.783V524.701H275.217C275.644 524.701 275.998 524.642 276.281 524.525C276.563 524.408 276.773 524.232 276.911 523.998C277.052 523.764 277.123 523.473 277.123 523.125C277.123 522.774 277.052 522.478 276.911 522.236C276.773 521.995 276.562 521.813 276.276 521.689C275.993 521.561 275.637 521.498 275.206 521.498H273.698V530.25H271.461ZM277.175 525.434L279.804 530.25H277.335L274.762 525.434H277.175ZM284.455 530.405C283.639 530.405 282.936 530.239 282.347 529.909C281.762 529.574 281.311 529.103 280.994 528.493C280.677 527.88 280.519 527.155 280.519 526.318C280.519 525.502 280.677 524.785 280.994 524.169C281.311 523.552 281.757 523.072 282.332 522.727C282.911 522.383 283.589 522.211 284.368 522.211C284.891 522.211 285.378 522.295 285.83 522.464C286.284 522.629 286.68 522.879 287.018 523.213C287.359 523.547 287.624 523.967 287.814 524.473C288.003 524.976 288.098 525.565 288.098 526.24V526.845H281.397V525.481H286.026C286.026 525.164 285.957 524.883 285.819 524.639C285.682 524.394 285.49 524.203 285.246 524.065C285.005 523.924 284.724 523.854 284.404 523.854C284.07 523.854 283.773 523.931 283.515 524.086C283.26 524.238 283.06 524.442 282.916 524.701C282.771 524.956 282.697 525.24 282.694 525.553V526.85C282.694 527.243 282.766 527.582 282.911 527.868C283.059 528.154 283.267 528.374 283.536 528.529C283.804 528.684 284.123 528.762 284.492 528.762C284.736 528.762 284.96 528.727 285.163 528.658C285.366 528.589 285.54 528.486 285.685 528.348C285.83 528.211 285.94 528.042 286.016 527.842L288.051 527.976C287.948 528.465 287.736 528.892 287.416 529.258C287.099 529.619 286.689 529.902 286.186 530.105C285.687 530.305 285.11 530.405 284.455 530.405ZM291.735 525.662V530.25H289.534V522.314H291.631V523.714H291.724C291.9 523.253 292.195 522.887 292.608 522.619C293.021 522.347 293.522 522.211 294.111 522.211C294.662 522.211 295.143 522.331 295.553 522.572C295.963 522.813 296.281 523.158 296.509 523.606C296.736 524.05 296.85 524.58 296.85 525.197V530.25H294.649V525.589C294.652 525.104 294.528 524.725 294.277 524.453C294.025 524.177 293.679 524.04 293.238 524.04C292.942 524.04 292.68 524.103 292.453 524.231C292.229 524.358 292.053 524.544 291.926 524.789C291.802 525.03 291.738 525.321 291.735 525.662ZM302.805 522.314V523.967H298.026V522.314H302.805ZM299.111 520.413H301.312V527.811C301.312 528.014 301.343 528.173 301.405 528.286C301.467 528.397 301.553 528.474 301.663 528.519C301.777 528.564 301.908 528.586 302.056 528.586C302.159 528.586 302.263 528.577 302.366 528.56C302.469 528.539 302.548 528.524 302.604 528.514L302.95 530.151C302.84 530.186 302.685 530.225 302.485 530.27C302.285 530.318 302.042 530.348 301.756 530.358C301.226 530.379 300.761 530.308 300.361 530.146C299.965 529.984 299.657 529.733 299.437 529.392C299.216 529.051 299.108 528.62 299.111 528.1V520.413ZM307.425 528.39V526.628L311.842 519.669H313.361V522.107H312.462L309.678 526.514V526.597H315.955V528.39H307.425ZM312.504 530.25V527.852L312.545 527.072V519.669H314.643V530.25H312.504Z" fill="#374151"/>
<rect x="270.893" y="352.004" width="79.0029" height="5.97727" rx="2.98864" fill="#94979D"/>
<rect x="270.893" y="413.787" width="79.0029" height="5.97727" rx="2.98864" fill="#94979D"/>
<rect x="270.893" y="475.57" width="79.0029" height="5.97727" rx="2.98864" fill="#94979D"/>
<rect x="270.893" y="537.353" width="79.0029" height="5.97727" rx="2.98864" fill="#94979D"/>
<g filter="url(#filter0_dd_699_7433)">
<rect x="100.569" y="392.684" width="267.625" height="273.067" rx="25.0161" fill="white"/>
<rect x="100.986" y="393.101" width="266.791" height="272.233" rx="24.5992" stroke="#F3F4F6" stroke-width="0.833869"/>
</g>
<g filter="url(#filter1_dd_699_7433)">
<rect x="497.917" y="310.912" width="149.514" height="152.554" rx="18.759" fill="white"/>
<rect x="498.334" y="311.329" width="148.68" height="151.72" rx="18.3421" stroke="#F3F4F6" stroke-width="0.833869"/>
</g>
<path d="M539.989 418.776H536.238V408.195H540.02C541.084 408.195 542.001 408.407 542.769 408.831C543.537 409.251 544.127 409.855 544.541 410.644C544.958 411.433 545.166 412.376 545.166 413.475C545.166 414.577 544.958 415.525 544.541 416.317C544.127 417.109 543.533 417.717 542.758 418.14C541.987 418.564 541.064 418.776 539.989 418.776ZM538.475 416.859H539.896C540.558 416.859 541.114 416.742 541.565 416.508C542.02 416.27 542.361 415.903 542.588 415.407C542.819 414.908 542.934 414.264 542.934 413.475C542.934 412.693 542.819 412.054 542.588 411.558C542.361 411.062 542.021 410.697 541.57 410.463C541.119 410.229 540.563 410.112 539.901 410.112H538.475V416.859ZM550.367 418.931C549.565 418.931 548.871 418.76 548.285 418.419C547.703 418.075 547.254 417.596 546.937 416.983C546.62 416.367 546.461 415.652 546.461 414.839C546.461 414.019 546.62 413.303 546.937 412.69C547.254 412.073 547.703 411.595 548.285 411.254C548.871 410.909 549.565 410.737 550.367 410.737C551.17 410.737 551.862 410.909 552.444 411.254C553.03 411.595 553.481 412.073 553.798 412.69C554.115 413.303 554.273 414.019 554.273 414.839C554.273 415.652 554.115 416.367 553.798 416.983C553.481 417.596 553.03 418.075 552.444 418.419C551.862 418.76 551.17 418.931 550.367 418.931ZM550.378 417.226C550.743 417.226 551.047 417.123 551.292 416.916C551.537 416.706 551.721 416.42 551.845 416.058C551.972 415.697 552.036 415.285 552.036 414.824C552.036 414.362 551.972 413.95 551.845 413.589C551.721 413.227 551.537 412.941 551.292 412.731C551.047 412.521 550.743 412.416 550.378 412.416C550.009 412.416 549.699 412.521 549.448 412.731C549.2 412.941 549.012 413.227 548.884 413.589C548.76 413.95 548.698 414.362 548.698 414.824C548.698 415.285 548.76 415.697 548.884 416.058C549.012 416.42 549.2 416.706 549.448 416.916C549.699 417.123 550.009 417.226 550.378 417.226ZM557.071 418.776L554.911 410.84H557.138L558.367 416.172H558.44L559.721 410.84H561.906L563.208 416.141H563.275L564.484 410.84H566.706L564.551 418.776H562.221L560.858 413.785H560.759L559.395 418.776H557.071ZM570.081 414.188V418.776H567.88V410.84H569.977V412.24H570.07C570.246 411.779 570.541 411.414 570.954 411.145C571.367 410.873 571.868 410.737 572.457 410.737C573.008 410.737 573.489 410.858 573.899 411.099C574.309 411.34 574.627 411.684 574.855 412.132C575.082 412.576 575.196 413.107 575.196 413.723V418.776H572.995V414.116C572.998 413.63 572.874 413.251 572.623 412.979C572.371 412.704 572.025 412.566 571.584 412.566C571.288 412.566 571.026 412.63 570.799 412.757C570.575 412.884 570.399 413.07 570.272 413.315C570.148 413.556 570.084 413.847 570.081 414.188ZM579.131 408.195V418.776H576.93V408.195H579.131ZM584.48 418.931C583.677 418.931 582.983 418.76 582.397 418.419C581.815 418.075 581.366 417.596 581.049 416.983C580.732 416.367 580.574 415.652 580.574 414.839C580.574 414.019 580.732 413.303 581.049 412.69C581.366 412.073 581.815 411.595 582.397 411.254C582.983 410.909 583.677 410.737 584.48 410.737C585.282 410.737 585.974 410.909 586.556 411.254C587.142 411.595 587.593 412.073 587.91 412.69C588.227 413.303 588.385 414.019 588.385 414.839C588.385 415.652 588.227 416.367 587.91 416.983C587.593 417.596 587.142 418.075 586.556 418.419C585.974 418.76 585.282 418.931 584.48 418.931ZM584.49 417.226C584.855 417.226 585.16 417.123 585.404 416.916C585.649 416.706 585.833 416.42 585.957 416.058C586.085 415.697 586.148 415.285 586.148 414.824C586.148 414.362 586.085 413.95 585.957 413.589C585.833 413.227 585.649 412.941 585.404 412.731C585.16 412.521 584.855 412.416 584.49 412.416C584.121 412.416 583.811 412.521 583.56 412.731C583.312 412.941 583.124 413.227 582.997 413.589C582.873 413.95 582.811 414.362 582.811 414.824C582.811 415.285 582.873 415.697 582.997 416.058C583.124 416.42 583.312 416.706 583.56 416.916C583.811 417.123 584.121 417.226 584.49 417.226ZM592.079 418.926C591.573 418.926 591.122 418.838 590.726 418.662C590.33 418.483 590.016 418.22 589.785 417.872C589.558 417.52 589.444 417.083 589.444 416.56C589.444 416.119 589.525 415.748 589.687 415.449C589.849 415.149 590.07 414.908 590.349 414.725C590.628 414.543 590.944 414.405 591.299 414.312C591.657 414.219 592.033 414.154 592.425 414.116C592.887 414.068 593.259 414.023 593.541 413.981C593.824 413.937 594.029 413.871 594.156 413.785C594.284 413.699 594.347 413.572 594.347 413.403V413.372C594.347 413.045 594.244 412.791 594.037 412.612C593.834 412.433 593.545 412.344 593.169 412.344C592.773 412.344 592.458 412.432 592.224 412.607C591.99 412.779 591.835 412.996 591.759 413.258L589.723 413.093C589.827 412.611 590.03 412.194 590.333 411.843C590.636 411.488 591.027 411.216 591.506 411.026C591.988 410.833 592.546 410.737 593.18 410.737C593.621 410.737 594.042 410.789 594.445 410.892C594.852 410.995 595.212 411.155 595.525 411.372C595.842 411.589 596.092 411.868 596.274 412.209C596.457 412.547 596.548 412.952 596.548 413.424V418.776H594.461V417.675H594.399C594.272 417.923 594.101 418.142 593.887 418.332C593.674 418.518 593.417 418.664 593.118 418.771C592.818 418.874 592.472 418.926 592.079 418.926ZM592.71 417.407C593.033 417.407 593.319 417.343 593.567 417.216C593.815 417.085 594.01 416.909 594.151 416.689C594.292 416.468 594.363 416.219 594.363 415.94V415.097C594.294 415.142 594.199 415.184 594.079 415.221C593.962 415.256 593.829 415.289 593.681 415.32C593.533 415.347 593.385 415.373 593.237 415.397C593.088 415.418 592.954 415.437 592.834 415.454C592.575 415.492 592.35 415.552 592.157 415.635C591.964 415.717 591.814 415.829 591.707 415.971C591.601 416.108 591.547 416.281 591.547 416.487C591.547 416.787 591.656 417.016 591.873 417.174C592.093 417.329 592.372 417.407 592.71 417.407ZM601.18 418.905C600.577 418.905 600.031 418.75 599.542 418.44C599.056 418.127 598.671 417.667 598.385 417.061C598.102 416.451 597.961 415.704 597.961 414.818C597.961 413.909 598.108 413.153 598.4 412.55C598.693 411.944 599.082 411.491 599.568 411.192C600.057 410.889 600.593 410.737 601.175 410.737C601.619 410.737 601.989 410.813 602.285 410.964C602.585 411.112 602.826 411.298 603.009 411.522C603.195 411.743 603.336 411.96 603.432 412.173H603.5V408.195H605.695V418.776H603.525V417.505H603.432C603.329 417.725 603.183 417.944 602.993 418.161C602.807 418.375 602.564 418.552 602.265 418.693C601.969 418.834 601.607 418.905 601.18 418.905ZM601.877 417.154C602.232 417.154 602.532 417.057 602.776 416.864C603.024 416.668 603.214 416.394 603.345 416.043C603.479 415.692 603.546 415.28 603.546 414.808C603.546 414.336 603.481 413.926 603.35 413.578C603.219 413.231 603.029 412.962 602.781 412.773C602.533 412.583 602.232 412.488 601.877 412.488C601.516 412.488 601.211 412.587 600.963 412.783C600.715 412.979 600.527 413.251 600.4 413.599C600.272 413.947 600.209 414.35 600.209 414.808C600.209 415.27 600.272 415.678 600.4 416.033C600.531 416.384 600.718 416.659 600.963 416.859C601.211 417.055 601.516 417.154 601.877 417.154ZM550.197 426.195V436.776H547.96V426.195H550.197ZM554.197 432.188V436.776H551.996V428.84H554.093V430.24H554.186C554.362 429.779 554.657 429.414 555.07 429.145C555.483 428.873 555.984 428.737 556.573 428.737C557.124 428.737 557.605 428.858 558.015 429.099C558.425 429.34 558.743 429.684 558.971 430.132C559.198 430.576 559.311 431.107 559.311 431.723V436.776H557.111V432.116C557.114 431.63 556.99 431.251 556.739 430.979C556.487 430.704 556.141 430.566 555.7 430.566C555.404 430.566 555.142 430.63 554.915 430.757C554.691 430.884 554.515 431.07 554.388 431.315C554.264 431.556 554.2 431.847 554.197 432.188ZM568.16 428.84L565.386 436.776H562.906L560.132 428.84H562.457L564.105 434.518H564.187L565.83 428.84H568.16ZM572.616 436.931C571.814 436.931 571.12 436.76 570.534 436.419C569.952 436.075 569.503 435.596 569.186 434.983C568.869 434.367 568.71 433.652 568.71 432.839C568.71 432.019 568.869 431.303 569.186 430.69C569.503 430.073 569.952 429.595 570.534 429.254C571.12 428.909 571.814 428.737 572.616 428.737C573.419 428.737 574.111 428.909 574.693 429.254C575.279 429.595 575.73 430.073 576.047 430.69C576.364 431.303 576.522 432.019 576.522 432.839C576.522 433.652 576.364 434.367 576.047 434.983C575.73 435.596 575.279 436.075 574.693 436.419C574.111 436.76 573.419 436.931 572.616 436.931ZM572.627 435.226C572.992 435.226 573.296 435.123 573.541 434.916C573.786 434.706 573.97 434.42 574.094 434.058C574.221 433.697 574.285 433.285 574.285 432.824C574.285 432.362 574.221 431.95 574.094 431.589C573.97 431.227 573.786 430.941 573.541 430.731C573.296 430.521 572.992 430.416 572.627 430.416C572.258 430.416 571.948 430.521 571.697 430.731C571.449 430.941 571.261 431.227 571.133 431.589C571.009 431.95 570.947 432.362 570.947 432.824C570.947 433.285 571.009 433.697 571.133 434.058C571.261 434.42 571.449 434.706 571.697 434.916C571.948 435.123 572.258 435.226 572.627 435.226ZM577.953 436.776V428.84H580.154V436.776H577.953ZM579.059 427.817C578.731 427.817 578.451 427.709 578.217 427.492C577.986 427.271 577.87 427.008 577.87 426.701C577.87 426.398 577.986 426.138 578.217 425.921C578.451 425.701 578.731 425.591 579.059 425.591C579.386 425.591 579.665 425.701 579.896 425.921C580.13 426.138 580.247 426.398 580.247 426.701C580.247 427.008 580.13 427.271 579.896 427.492C579.665 427.709 579.386 427.817 579.059 427.817ZM585.502 436.931C584.69 436.931 583.99 436.759 583.405 436.414C582.823 436.066 582.375 435.584 582.062 434.968C581.752 434.351 581.597 433.642 581.597 432.839C581.597 432.026 581.753 431.313 582.067 430.7C582.384 430.084 582.833 429.603 583.415 429.259C583.997 428.911 584.69 428.737 585.492 428.737C586.184 428.737 586.791 428.863 587.311 429.114C587.831 429.366 588.242 429.719 588.545 430.173C588.849 430.628 589.016 431.162 589.047 431.775H586.97C586.911 431.379 586.756 431.06 586.505 430.819C586.257 430.574 585.931 430.452 585.528 430.452C585.187 430.452 584.889 430.545 584.635 430.731C584.383 430.914 584.187 431.181 584.046 431.532C583.904 431.883 583.834 432.309 583.834 432.808C583.834 433.314 583.903 433.745 584.04 434.1C584.182 434.454 584.38 434.725 584.635 434.911C584.889 435.097 585.187 435.19 585.528 435.19C585.78 435.19 586.005 435.138 586.205 435.035C586.408 434.931 586.575 434.782 586.706 434.585C586.841 434.386 586.928 434.146 586.97 433.867H589.047C589.012 434.473 588.847 435.007 588.551 435.469C588.258 435.927 587.853 436.285 587.337 436.543C586.82 436.802 586.209 436.931 585.502 436.931ZM594.072 436.931C593.256 436.931 592.553 436.766 591.964 436.435C591.379 436.101 590.928 435.629 590.611 435.019C590.294 434.406 590.135 433.681 590.135 432.844C590.135 432.028 590.294 431.312 590.611 430.695C590.928 430.079 591.374 429.598 591.949 429.254C592.527 428.909 593.206 428.737 593.984 428.737C594.508 428.737 594.995 428.821 595.446 428.99C595.901 429.155 596.297 429.405 596.635 429.739C596.976 430.073 597.241 430.494 597.43 431C597.62 431.503 597.714 432.092 597.714 432.767V433.371H591.014V432.007H595.643C595.643 431.69 595.574 431.41 595.436 431.165C595.298 430.921 595.107 430.729 594.863 430.592C594.622 430.451 594.341 430.38 594.021 430.38C593.686 430.38 593.39 430.457 593.132 430.612C592.877 430.764 592.677 430.969 592.533 431.227C592.388 431.482 592.314 431.766 592.31 432.08V433.376C592.31 433.769 592.383 434.108 592.527 434.394C592.676 434.68 592.884 434.9 593.153 435.055C593.421 435.21 593.74 435.288 594.108 435.288C594.353 435.288 594.577 435.254 594.78 435.185C594.983 435.116 595.157 435.012 595.302 434.875C595.446 434.737 595.557 434.568 595.632 434.368L597.668 434.503C597.565 434.992 597.353 435.419 597.033 435.784C596.716 436.146 596.306 436.428 595.803 436.631C595.304 436.831 594.727 436.931 594.072 436.931Z" fill="#374151"/>
<rect x="539.667" y="334.856" width="66.0162" height="59.8961" rx="8.20708" fill="#EDE9FE"/>
<path d="M230.377 431.319C232.308 428.512 236.454 428.512 238.385 431.319C239.902 433.524 242.917 434.087 245.128 432.579C247.943 430.66 251.808 432.157 252.596 435.472C253.214 438.076 255.821 439.691 258.428 439.083C261.746 438.31 264.81 441.103 264.346 444.479C263.982 447.13 265.83 449.577 268.48 449.953C271.853 450.431 273.701 454.141 272.049 457.122C270.752 459.462 271.591 462.412 273.927 463.719C276.9 465.383 277.282 469.511 274.665 471.693C272.61 473.408 272.327 476.461 274.033 478.524C276.204 481.15 275.069 485.137 271.841 486.226C269.305 487.082 267.938 489.827 268.783 492.367C269.859 495.6 267.361 498.908 263.957 498.758C261.283 498.64 259.017 500.705 258.888 503.379C258.723 506.782 255.199 508.964 252.079 507.595C249.628 506.519 246.769 507.627 245.683 510.073C244.3 513.187 240.225 513.948 237.811 511.544C235.914 509.656 232.848 509.656 230.951 511.544C228.537 513.948 224.462 513.187 223.079 510.073C221.993 507.627 219.134 506.519 216.683 507.595C213.563 508.964 210.039 506.782 209.874 503.379C209.745 500.705 207.479 498.64 204.805 498.758C201.401 498.908 198.903 495.6 199.979 492.367C200.824 489.827 199.457 487.082 196.921 486.226C193.693 485.137 192.558 481.15 194.73 478.524C196.435 476.461 196.152 473.408 194.097 471.693C191.48 469.511 191.862 465.383 194.836 463.719C197.171 462.412 198.01 459.462 196.713 457.122C195.061 454.141 196.909 450.431 200.282 449.953C202.932 449.577 204.78 447.13 204.416 444.479C203.953 441.103 207.016 438.31 210.334 439.083C212.941 439.691 215.548 438.076 216.166 435.472C216.954 432.157 220.819 430.66 223.634 432.579C225.845 434.087 228.86 433.524 230.377 431.319Z" fill="#8A4AF6"/>
<path d="M218.274 471.878L227.517 481.121C228.169 481.772 229.225 481.772 229.876 481.121L250.488 460.508" stroke="white" stroke-width="4.16935"/>
<rect x="145.599" y="607.841" width="177.567" height="8.3387" rx="4.16935" fill="#D1D5DB"/>
<rect x="175.748" y="624.596" width="117.266" height="8.3387" rx="4.16935" fill="#D1D5DB"/>
<path d="M214.187 560.992L211.618 556.455H210.518V560.992H208.183V549.351H212.552C213.453 549.351 214.22 549.512 214.854 549.835C215.487 550.146 215.96 550.574 216.271 551.119C216.594 551.652 216.755 552.253 216.755 552.92C216.755 553.687 216.533 554.382 216.088 555.005C215.643 555.616 214.982 556.039 214.103 556.272L216.888 560.992H214.187ZM210.518 554.721H212.469C213.103 554.721 213.575 554.565 213.886 554.254C214.198 553.943 214.353 553.515 214.353 552.97C214.353 552.425 214.198 552.003 213.886 551.702C213.575 551.391 213.103 551.235 212.469 551.235H210.518V554.721ZM227.456 556.155C227.456 556.467 227.433 556.756 227.389 557.022H220.634C220.679 557.701 220.907 558.234 221.318 558.624C221.73 559.013 222.241 559.207 222.853 559.207C223.72 559.207 224.337 558.835 224.704 558.09H227.222C226.955 558.979 226.444 559.713 225.688 560.291C224.932 560.858 224.003 561.142 222.903 561.142C222.013 561.142 221.213 560.947 220.501 560.558C219.801 560.158 219.25 559.596 218.85 558.874C218.461 558.151 218.266 557.317 218.266 556.372C218.266 555.416 218.461 554.576 218.85 553.854C219.239 553.131 219.784 552.575 220.484 552.186C221.185 551.797 221.991 551.602 222.903 551.602C223.781 551.602 224.565 551.791 225.254 552.169C225.955 552.547 226.494 553.081 226.872 553.77C227.261 554.46 227.456 555.255 227.456 556.155ZM225.037 555.605C225.026 554.96 224.809 554.454 224.387 554.087C223.976 553.709 223.459 553.52 222.836 553.52C222.247 553.52 221.752 553.709 221.352 554.087C220.951 554.454 220.712 554.96 220.634 555.605H225.037ZM234.28 551.619C235.38 551.619 236.27 551.969 236.948 552.67C237.626 553.359 237.965 554.326 237.965 555.572V560.992H235.631V555.888C235.631 555.155 235.447 554.593 235.08 554.204C234.713 553.804 234.213 553.604 233.579 553.604C232.934 553.604 232.423 553.804 232.045 554.204C231.678 554.593 231.495 555.155 231.495 555.888V560.992H229.16V551.752H231.495V552.903C231.806 552.503 232.201 552.192 232.679 551.969C233.168 551.736 233.702 551.619 234.28 551.619ZM242.904 553.67V558.14C242.904 558.451 242.976 558.679 243.121 558.824C243.277 558.957 243.532 559.024 243.888 559.024H244.972V560.992H243.505C241.537 560.992 240.553 560.036 240.553 558.123V553.67H239.452V551.752H240.553V549.468H242.904V551.752H244.972V553.67H242.904ZM250.564 551.319V549.151H254.583V560.992H252.181V551.319H250.564ZM169.522 577.953C169.522 578.576 169.372 579.16 169.072 579.704C168.783 580.249 168.321 580.688 167.688 581.022C167.065 581.355 166.276 581.522 165.319 581.522H163.368V585.992H161.033V574.351H165.319C166.22 574.351 166.987 574.507 167.621 574.818C168.255 575.129 168.727 575.557 169.038 576.102C169.361 576.647 169.522 577.264 169.522 577.953ZM165.219 579.688C165.853 579.688 166.326 579.532 166.637 579.221C166.959 578.909 167.121 578.487 167.121 577.953C167.121 577.397 166.965 576.969 166.654 576.669C166.342 576.358 165.864 576.202 165.219 576.202H163.368V579.688H165.219ZM170.579 581.339C170.579 580.405 170.763 579.576 171.13 578.854C171.508 578.131 172.014 577.575 172.647 577.186C173.292 576.797 174.009 576.602 174.799 576.602C175.488 576.602 176.088 576.741 176.6 577.019C177.122 577.297 177.539 577.647 177.851 578.07V576.752H180.202V585.992H177.851V584.641C177.551 585.074 177.134 585.436 176.6 585.725C176.077 586.003 175.471 586.142 174.782 586.142C174.004 586.142 173.292 585.942 172.647 585.541C172.014 585.141 171.508 584.58 171.13 583.857C170.763 583.123 170.579 582.284 170.579 581.339ZM177.851 581.372C177.851 580.805 177.74 580.321 177.517 579.921C177.295 579.51 176.995 579.198 176.617 578.987C176.239 578.765 175.833 578.654 175.399 578.654C174.966 578.654 174.565 578.759 174.198 578.971C173.831 579.182 173.531 579.493 173.298 579.904C173.075 580.305 172.964 580.783 172.964 581.339C172.964 581.895 173.075 582.384 173.298 582.806C173.531 583.218 173.831 583.535 174.198 583.757C174.576 583.979 174.977 584.09 175.399 584.09C175.833 584.09 176.239 583.985 176.617 583.774C176.995 583.551 177.295 583.24 177.517 582.84C177.74 582.428 177.851 581.939 177.851 581.372ZM183.667 575.652C183.255 575.652 182.911 575.524 182.633 575.268C182.366 575.001 182.232 574.673 182.232 574.284C182.232 573.895 182.366 573.573 182.633 573.317C182.911 573.05 183.255 572.917 183.667 572.917C184.078 572.917 184.417 573.05 184.684 573.317C184.962 573.573 185.101 573.895 185.101 574.284C185.101 574.673 184.962 575.001 184.684 575.268C184.417 575.524 184.078 575.652 183.667 575.652ZM184.817 576.752V585.992H182.483V576.752H184.817ZM186.524 581.339C186.524 580.405 186.707 579.576 187.074 578.854C187.452 578.131 187.964 577.575 188.609 577.186C189.253 576.797 189.971 576.602 190.76 576.602C191.36 576.602 191.933 576.736 192.478 577.003C193.022 577.258 193.456 577.603 193.779 578.037V573.65H196.147V585.992H193.779V584.624C193.489 585.08 193.084 585.447 192.561 585.725C192.039 586.003 191.433 586.142 190.743 586.142C189.965 586.142 189.253 585.942 188.609 585.541C187.964 585.141 187.452 584.58 187.074 583.857C186.707 583.123 186.524 582.284 186.524 581.339ZM193.795 581.372C193.795 580.805 193.684 580.321 193.462 579.921C193.239 579.51 192.939 579.198 192.561 578.987C192.183 578.765 191.777 578.654 191.344 578.654C190.91 578.654 190.51 578.759 190.143 578.971C189.776 579.182 189.476 579.493 189.242 579.904C189.02 580.305 188.909 580.783 188.909 581.339C188.909 581.895 189.02 582.384 189.242 582.806C189.476 583.218 189.776 583.535 190.143 583.757C190.521 583.979 190.921 584.09 191.344 584.09C191.777 584.09 192.183 583.985 192.561 583.774C192.939 583.551 193.239 583.24 193.462 582.84C193.684 582.428 193.795 581.939 193.795 581.372ZM206.909 586.108C206.097 586.108 205.363 585.969 204.707 585.692C204.063 585.414 203.551 585.013 203.173 584.491C202.795 583.968 202.601 583.351 202.589 582.64H205.091C205.124 583.129 205.291 583.518 205.591 583.807C205.903 584.096 206.325 584.241 206.859 584.241C207.404 584.241 207.832 584.107 208.143 583.84C208.454 583.573 208.61 583.218 208.61 582.773C208.61 582.428 208.504 582.145 208.293 581.922C208.082 581.7 207.815 581.528 207.493 581.405C207.181 581.272 206.748 581.127 206.192 580.972C205.436 580.749 204.819 580.533 204.341 580.321C203.874 580.099 203.468 579.771 203.123 579.337C202.79 578.893 202.623 578.303 202.623 577.57C202.623 576.88 202.795 576.28 203.14 575.768C203.484 575.257 203.968 574.868 204.591 574.601C205.213 574.323 205.925 574.184 206.725 574.184C207.926 574.184 208.899 574.479 209.644 575.068C210.4 575.646 210.817 576.458 210.895 577.503H208.326C208.304 577.069 208.132 576.725 207.809 576.469C207.498 576.202 207.081 576.069 206.559 576.069C206.103 576.069 205.736 576.191 205.458 576.436C205.191 576.669 205.058 577.019 205.058 577.486C205.058 577.798 205.158 578.059 205.358 578.27C205.569 578.47 205.825 578.637 206.125 578.77C206.436 578.893 206.87 579.037 207.426 579.204C208.182 579.426 208.799 579.649 209.277 579.871C209.755 580.093 210.166 580.427 210.511 580.872C210.856 581.316 211.028 581.9 211.028 582.623C211.028 583.245 210.867 583.824 210.545 584.357C210.222 584.891 209.75 585.319 209.127 585.641C208.504 585.953 207.765 586.108 206.909 586.108ZM221.775 576.752V585.992H219.423V584.824C219.123 585.225 218.728 585.541 218.239 585.775C217.761 585.997 217.238 586.108 216.671 586.108C215.949 586.108 215.309 585.958 214.753 585.658C214.198 585.347 213.758 584.897 213.436 584.307C213.125 583.707 212.969 582.995 212.969 582.173V576.752H215.304V581.839C215.304 582.573 215.487 583.14 215.854 583.54C216.221 583.929 216.721 584.124 217.355 584.124C218 584.124 218.506 583.929 218.873 583.54C219.24 583.14 219.423 582.573 219.423 581.839V576.752H221.775ZM223.478 581.372C223.478 580.416 223.673 579.582 224.062 578.87C224.451 578.148 224.99 577.592 225.679 577.203C226.369 576.802 227.158 576.602 228.048 576.602C229.193 576.602 230.138 576.891 230.883 577.47C231.639 578.037 232.145 578.837 232.4 579.871H229.882C229.749 579.471 229.521 579.16 229.198 578.937C228.887 578.704 228.498 578.587 228.031 578.587C227.364 578.587 226.836 578.832 226.447 579.321C226.057 579.799 225.863 580.483 225.863 581.372C225.863 582.25 226.057 582.934 226.447 583.423C226.836 583.901 227.364 584.141 228.031 584.141C228.976 584.141 229.593 583.718 229.882 582.873H232.4C232.145 583.874 231.639 584.669 230.883 585.258C230.127 585.847 229.182 586.142 228.048 586.142C227.158 586.142 226.369 585.947 225.679 585.558C224.99 585.158 224.451 584.602 224.062 583.89C223.673 583.168 223.478 582.328 223.478 581.372ZM233.51 581.372C233.51 580.416 233.705 579.582 234.094 578.87C234.483 578.148 235.023 577.592 235.712 577.203C236.401 576.802 237.191 576.602 238.08 576.602C239.225 576.602 240.17 576.891 240.915 577.47C241.671 578.037 242.177 578.837 242.433 579.871H239.915C239.781 579.471 239.553 579.16 239.231 578.937C238.919 578.704 238.53 578.587 238.063 578.587C237.396 578.587 236.868 578.832 236.479 579.321C236.09 579.799 235.895 580.483 235.895 581.372C235.895 582.25 236.09 582.934 236.479 583.423C236.868 583.901 237.396 584.141 238.063 584.141C239.008 584.141 239.626 583.718 239.915 582.873H242.433C242.177 583.874 241.671 584.669 240.915 585.258C240.159 585.847 239.214 586.142 238.08 586.142C237.191 586.142 236.401 585.947 235.712 585.558C235.023 585.158 234.483 584.602 234.094 583.89C233.705 583.168 233.51 582.328 233.51 581.372ZM252.732 581.155C252.732 581.467 252.71 581.756 252.665 582.022H245.911C245.956 582.701 246.184 583.234 246.595 583.624C247.006 584.013 247.518 584.207 248.129 584.207C248.996 584.207 249.614 583.835 249.98 583.09H252.499C252.232 583.979 251.72 584.713 250.964 585.291C250.208 585.858 249.28 586.142 248.179 586.142C247.29 586.142 246.489 585.947 245.778 585.558C245.077 585.158 244.527 584.596 244.127 583.874C243.738 583.151 243.543 582.317 243.543 581.372C243.543 580.416 243.738 579.576 244.127 578.854C244.516 578.131 245.061 577.575 245.761 577.186C246.461 576.797 247.268 576.602 248.179 576.602C249.058 576.602 249.841 576.791 250.531 577.169C251.231 577.547 251.77 578.081 252.148 578.77C252.538 579.46 252.732 580.255 252.732 581.155ZM250.314 580.605C250.303 579.96 250.086 579.454 249.664 579.087C249.252 578.709 248.735 578.52 248.113 578.52C247.523 578.52 247.029 578.709 246.628 579.087C246.228 579.454 245.989 579.96 245.911 580.605H250.314ZM257.955 586.142C257.199 586.142 256.521 586.008 255.921 585.742C255.331 585.464 254.859 585.091 254.503 584.624C254.158 584.157 253.969 583.64 253.936 583.073H256.288C256.332 583.462 256.504 583.779 256.805 584.024C257.105 584.257 257.488 584.374 257.955 584.374C258.4 584.374 258.745 584.285 258.989 584.107C259.245 583.918 259.373 583.668 259.373 583.357C259.373 583.056 259.217 582.829 258.906 582.673C258.606 582.517 258.117 582.356 257.438 582.189C256.76 582.022 256.204 581.856 255.771 581.689C255.337 581.511 254.965 581.239 254.653 580.872C254.342 580.505 254.186 580.021 254.186 579.421C254.186 578.898 254.325 578.426 254.603 578.003C254.892 577.57 255.309 577.231 255.854 576.986C256.41 576.73 257.06 576.602 257.805 576.602C258.906 576.602 259.784 576.88 260.44 577.436C261.096 577.981 261.458 578.72 261.524 579.654H259.29C259.256 579.265 259.101 578.954 258.823 578.72C258.556 578.487 258.194 578.37 257.739 578.37C257.316 578.37 256.988 578.459 256.755 578.637C256.532 578.804 256.421 579.037 256.421 579.337C256.421 579.649 256.577 579.888 256.888 580.055C257.199 580.21 257.683 580.371 258.339 580.538C259.006 580.705 259.556 580.877 259.99 581.055C260.424 581.233 260.796 581.505 261.107 581.872C261.419 582.228 261.574 582.712 261.574 583.323C261.574 583.857 261.43 584.341 261.141 584.774C260.852 585.197 260.435 585.53 259.89 585.775C259.345 586.019 258.7 586.142 257.955 586.142ZM267.043 586.142C266.287 586.142 265.609 586.008 265.009 585.742C264.419 585.464 263.947 585.091 263.591 584.624C263.246 584.157 263.057 583.64 263.024 583.073H265.375C265.42 583.462 265.592 583.779 265.892 584.024C266.193 584.257 266.576 584.374 267.043 584.374C267.488 584.374 267.833 584.285 268.077 584.107C268.333 583.918 268.461 583.668 268.461 583.357C268.461 583.056 268.305 582.829 267.994 582.673C267.694 582.517 267.204 582.356 266.526 582.189C265.848 582.022 265.292 581.856 264.858 581.689C264.425 581.511 264.052 581.239 263.741 580.872C263.43 580.505 263.274 580.021 263.274 579.421C263.274 578.898 263.413 578.426 263.691 578.003C263.98 577.57 264.397 577.231 264.942 576.986C265.498 576.73 266.148 576.602 266.893 576.602C267.994 576.602 268.872 576.88 269.528 577.436C270.184 577.981 270.545 578.72 270.612 579.654H268.377C268.344 579.265 268.188 578.954 267.91 578.72C267.644 578.487 267.282 578.37 266.826 578.37C266.404 578.37 266.076 578.459 265.842 578.637C265.62 578.804 265.509 579.037 265.509 579.337C265.509 579.649 265.665 579.888 265.976 580.055C266.287 580.21 266.771 580.371 267.427 580.538C268.094 580.705 268.644 580.877 269.078 581.055C269.511 581.233 269.884 581.505 270.195 581.872C270.507 582.228 270.662 582.712 270.662 583.323C270.662 583.857 270.518 584.341 270.229 584.774C269.94 585.197 269.523 585.53 268.978 585.775C268.433 586.019 267.788 586.142 267.043 586.142ZM276.848 578.67H275.231V585.992H272.862V578.67H271.812V576.752H272.862V576.285C272.862 575.151 273.185 574.318 273.83 573.784C274.474 573.25 275.447 573 276.748 573.033V575.001C276.181 574.99 275.786 575.085 275.564 575.285C275.342 575.485 275.231 575.846 275.231 576.369V576.752H276.848V578.67ZM287.084 576.752V585.992H284.732V584.824C284.432 585.225 284.037 585.541 283.548 585.775C283.07 585.997 282.547 586.108 281.98 586.108C281.258 586.108 280.618 585.958 280.062 585.658C279.506 585.347 279.067 584.897 278.745 584.307C278.434 583.707 278.278 582.995 278.278 582.173V576.752H280.613V581.839C280.613 582.573 280.796 583.14 281.163 583.54C281.53 583.929 282.03 584.124 282.664 584.124C283.309 584.124 283.815 583.929 284.182 583.54C284.549 583.14 284.732 582.573 284.732 581.839V576.752H287.084ZM291.722 573.65V585.992H289.387V573.65H291.722ZM296.364 573.65V585.992H294.029V573.65H296.364ZM300.222 576.752L302.606 583.207L305.025 576.752H307.51L301.789 590.361H299.304L301.306 585.758L297.603 576.752H300.222Z" fill="#1F1F1F"/>
<rect x="557.422" y="344.175" width="30.5041" height="41.2595" rx="2.9311" stroke="#8A4AF6" stroke-width="1.17244"/>
<path d="M576.825 362.545C576.825 363.195 576.663 363.812 576.338 364.396C576.013 364.968 575.533 365.448 574.896 365.838C574.273 366.214 573.532 366.442 572.675 366.52V368.098H571.565V366.52C570.318 366.429 569.311 366.059 568.545 365.409C567.778 364.747 567.395 363.876 567.395 362.798H569.772C569.811 363.318 569.98 363.747 570.279 364.084C570.577 364.409 571.006 364.617 571.565 364.708V360.421C570.668 360.201 569.941 359.98 569.382 359.759C568.837 359.525 568.369 359.161 567.98 358.668C567.59 358.161 567.395 357.479 567.395 356.622C567.395 355.518 567.778 354.615 568.545 353.914C569.311 353.212 570.318 352.81 571.565 352.706V351.128H572.675V352.706C573.844 352.797 574.779 353.154 575.481 353.777C576.195 354.388 576.598 355.239 576.689 356.33H574.312C574.273 355.914 574.104 355.544 573.805 355.219C573.519 354.895 573.143 354.68 572.675 354.576V358.785C573.571 358.993 574.292 359.207 574.838 359.428C575.383 359.649 575.851 360.012 576.241 360.519C576.63 361.012 576.825 361.688 576.825 362.545ZM569.655 356.505C569.655 357.051 569.818 357.473 570.142 357.772C570.48 358.07 570.954 358.311 571.565 358.493V354.518C570.98 354.596 570.512 354.804 570.162 355.141C569.824 355.466 569.655 355.921 569.655 356.505ZM572.675 364.708C573.273 364.617 573.74 364.39 574.078 364.026C574.416 363.649 574.585 363.195 574.585 362.662C574.585 362.142 574.416 361.733 574.078 361.435C573.753 361.136 573.286 360.895 572.675 360.714V364.708Z" fill="#8A4AF6"/>
<path d="M565.379 373.387H581.709" stroke="#8A4AF6" stroke-width="1.17244"/>
<path d="M565.379 377.389H576.506" stroke="#8A4AF6" stroke-width="1.17244"/>
<defs>
<filter id="filter0_dd_699_7433" x="90.5629" y="391.016" width="287.637" height="293.08" filterUnits="userSpaceOnUse" color-interpolation-filters="sRGB">
<feFlood flood-opacity="0" result="BackgroundImageFix"/>
<feColorMatrix in="SourceAlpha" type="matrix" values="0 0 0 0 0 0 0 0 0 0 0 0 0 0 0 0 0 0 127 0" result="hardAlpha"/>
<feMorphology radius="1.66774" operator="erode" in="SourceAlpha" result="effect1_dropShadow_699_7433"/>
<feOffset dy="3.33548"/>
<feGaussianBlur stdDeviation="2.50161"/>
<feColorMatrix type="matrix" values="0 0 0 0 0 0 0 0 0 0 0 0 0 0 0 0 0 0 0.05 0"/>
<feBlend mode="normal" in2="BackgroundImageFix" result="effect1_dropShadow_699_7433"/>
<feColorMatrix in="SourceAlpha" type="matrix" values="0 0 0 0 0 0 0 0 0 0 0 0 0 0 0 0 0 0 127 0" result="hardAlpha"/>
<feMorphology radius="2.50161" operator="erode" in="SourceAlpha" result="effect2_dropShadow_699_7433"/>
<feOffset dy="8.3387"/>
<feGaussianBlur stdDeviation="6.25402"/>
<feColorMatrix type="matrix" values="0 0 0 0 0 0 0 0 0 0 0 0 0 0 0 0 0 0 0.1 0"/>
<feBlend mode="normal" in2="effect1_dropShadow_699_7433" result="effect2_dropShadow_699_7433"/>
<feBlend mode="normal" in="SourceGraphic" in2="effect2_dropShadow_699_7433" result="shape"/>
</filter>
<filter id="filter1_dd_699_7433" x="487.911" y="309.244" width="169.527" height="172.567" filterUnits="userSpaceOnUse" color-interpolation-filters="sRGB">
<feFlood flood-opacity="0" result="BackgroundImageFix"/>
<feColorMatrix in="SourceAlpha" type="matrix" values="0 0 0 0 0 0 0 0 0 0 0 0 0 0 0 0 0 0 127 0" result="hardAlpha"/>
<feMorphology radius="1.66774" operator="erode" in="SourceAlpha" result="effect1_dropShadow_699_7433"/>
<feOffset dy="3.33548"/>
<feGaussianBlur stdDeviation="2.50161"/>
<feColorMatrix type="matrix" values="0 0 0 0 0 0 0 0 0 0 0 0 0 0 0 0 0 0 0.05 0"/>
<feBlend mode="normal" in2="BackgroundImageFix" result="effect1_dropShadow_699_7433"/>
<feColorMatrix in="SourceAlpha" type="matrix" values="0 0 0 0 0 0 0 0 0 0 0 0 0 0 0 0 0 0 127 0" result="hardAlpha"/>
<feMorphology radius="2.50161" operator="erode" in="SourceAlpha" result="effect2_dropShadow_699_7433"/>
<feOffset dy="8.3387"/>
<feGaussianBlur stdDeviation="6.25402"/>
<feColorMatrix type="matrix" values="0 0 0 0 0 0 0 0 0 0 0 0 0 0 0 0 0 0 0.1 0"/>
<feBlend mode="normal" in2="effect1_dropShadow_699_7433" result="effect2_dropShadow_699_7433"/>
<feBlend mode="normal" in="SourceGraphic" in2="effect2_dropShadow_699_7433" result="shape"/>
</filter>
<linearGradient id="paint0_linear_699_7433" x1="218.51" y1="35.416" x2="749.853" y2="292.785" gradientUnits="userSpaceOnUse">
<stop stop-color="#1F1F2E"/>
<stop offset="1" stop-color="#111827"/>
</linearGradient>
</defs>
</svg>
