<svg width="748" height="748" viewBox="0 0 748 748" fill="none" xmlns="http://www.w3.org/2000/svg">
<path d="M334.7 35.416H123.085C90.945 35.416 64.8906 61.4704 64.8906 93.6101V654.39C64.8906 686.53 90.945 712.584 123.085 712.584H334.7C366.839 712.584 392.894 686.53 392.894 654.39V93.6101C392.894 61.4704 366.839 35.416 334.7 35.416Z" fill="url(#paint0_linear_702_7628)"/>
<path d="M332.055 45.9966H125.73C97.9732 45.9966 75.4717 68.4981 75.4717 96.2551V651.745C75.4717 679.502 97.9732 702.003 125.73 702.003H332.055C359.812 702.003 382.313 679.502 382.313 651.745V96.2551C382.313 68.4981 359.812 45.9966 332.055 45.9966Z" fill="white"/>
<mask id="mask0_702_7628" style="mask-type:luminance" maskUnits="userSpaceOnUse" x="80" y="51" width="298" height="646">
<path d="M334.7 51.2871H123.085C99.7109 51.2871 80.7622 70.2358 80.7622 93.6101V654.39C80.7622 677.764 99.7109 696.713 123.085 696.713H334.7C358.075 696.713 377.023 677.764 377.023 654.39V93.6101C377.023 70.2358 358.075 51.2871 334.7 51.2871Z" fill="white"/>
</mask>
<g mask="url(#mask0_702_7628)">
<path d="M382.313 35.416H75.4717V696.713H382.313V35.416Z" fill="white"/>
<path d="M256.667 51.2871H201.118C193.083 51.2871 186.569 57.8007 186.569 65.8356C186.569 73.8706 193.083 80.3842 201.118 80.3842H256.667C264.702 80.3842 271.215 73.8706 271.215 65.8356C271.215 57.8007 264.702 51.2871 256.667 51.2871Z" fill="#1F1F2E"/>
<path d="M106.61 95.5622C107.154 95.5622 107.677 95.6535 108.18 95.836C108.687 96.0186 109.138 96.3096 109.534 96.7091C109.933 97.1087 110.249 97.6391 110.479 98.3004C110.714 98.9582 110.832 99.7659 110.836 100.723C110.836 101.622 110.734 102.425 110.531 103.131C110.331 103.834 110.044 104.431 109.668 104.924C109.293 105.416 108.84 105.792 108.309 106.05C107.779 106.305 107.187 106.432 106.532 106.432C105.826 106.432 105.203 106.296 104.662 106.024C104.121 105.749 103.686 105.375 103.355 104.903C103.028 104.428 102.83 103.894 102.761 103.301H104.967C105.053 103.687 105.234 103.987 105.509 104.2C105.785 104.41 106.126 104.516 106.532 104.516C107.221 104.516 107.745 104.216 108.103 103.617C108.461 103.014 108.642 102.189 108.645 101.142H108.573C108.415 101.452 108.201 101.719 107.932 101.943C107.664 102.163 107.355 102.334 107.008 102.454C106.663 102.575 106.296 102.635 105.907 102.635C105.284 102.635 104.727 102.489 104.238 102.196C103.749 101.903 103.364 101.5 103.081 100.987C102.799 100.474 102.657 99.8882 102.657 99.2303C102.654 98.5208 102.818 97.8888 103.148 97.3343C103.479 96.7797 103.94 96.3458 104.533 96.0323C105.129 95.7155 105.821 95.5587 106.61 95.5622ZM106.625 97.3188C106.277 97.3188 105.967 97.4014 105.695 97.5667C105.427 97.7321 105.213 97.9542 105.055 98.2332C104.9 98.5122 104.824 98.8239 104.827 99.1683C104.827 99.5162 104.903 99.8296 105.055 100.109C105.21 100.384 105.42 100.605 105.685 100.77C105.954 100.932 106.26 101.013 106.605 101.013C106.863 101.013 107.102 100.965 107.323 100.868C107.543 100.772 107.734 100.639 107.896 100.47C108.061 100.298 108.191 100.1 108.284 99.8761C108.377 99.6522 108.423 99.4146 108.423 99.1632C108.42 98.8291 108.34 98.5225 108.185 98.2435C108.03 97.9646 107.817 97.7407 107.545 97.5719C107.273 97.4031 106.966 97.3188 106.625 97.3188ZM113.693 105.058C113.352 105.058 113.059 104.937 112.815 104.696C112.573 104.455 112.453 104.162 112.453 103.818C112.453 103.481 112.573 103.191 112.815 102.95C113.059 102.709 113.352 102.588 113.693 102.588C114.023 102.588 114.313 102.709 114.561 102.95C114.809 103.191 114.933 103.481 114.933 103.818C114.933 104.045 114.874 104.254 114.757 104.443C114.643 104.629 114.494 104.779 114.308 104.893C114.122 105.003 113.917 105.058 113.693 105.058ZM113.693 99.8658C113.352 99.8658 113.059 99.7452 112.815 99.5041C112.573 99.263 112.453 98.9703 112.453 98.6259C112.453 98.2883 112.573 98.0007 112.815 97.7631C113.059 97.522 113.352 97.4014 113.693 97.4014C114.023 97.4014 114.313 97.522 114.561 97.7631C114.809 98.0007 114.933 98.2883 114.933 98.6259C114.933 98.8566 114.874 99.0667 114.757 99.2562C114.643 99.4421 114.494 99.5902 114.308 99.7005C114.122 99.8107 113.917 99.8658 113.693 99.8658ZM116.559 104.428V102.666L120.976 95.7068H122.495V98.1454H121.596L118.811 102.552V102.635H125.089V104.428H116.559ZM121.637 106.288V103.89L121.679 103.11V95.7068H123.776V106.288H121.637ZM131.04 95.7068V106.288H128.803V97.8302H128.741L126.318 99.3491V97.3653L128.938 95.7068H131.04Z" fill="#111827"/>
<path d="M321.474 100.223C321.474 99.4925 320.882 98.9004 320.152 98.9004C319.421 98.9004 318.829 99.4925 318.829 100.223V105.513C318.829 106.244 319.421 106.836 320.152 106.836C320.882 106.836 321.474 106.244 321.474 105.513V100.223Z" fill="#111827"/>
<path d="M325.442 97.5775C325.442 96.847 324.85 96.2549 324.119 96.2549C323.389 96.2549 322.797 96.847 322.797 97.5775V105.513C322.797 106.243 323.389 106.836 324.119 106.836C324.85 106.836 325.442 106.243 325.442 105.513V97.5775Z" fill="#111827"/>
<path d="M329.41 94.9329C329.41 94.2025 328.818 93.6104 328.087 93.6104C327.357 93.6104 326.765 94.2025 326.765 94.9329V105.514C326.765 106.244 327.357 106.836 328.087 106.836C328.818 106.836 329.41 106.244 329.41 105.514V94.9329Z" fill="#111827"/>
<path d="M355.862 96.2549H339.991C338.53 96.2549 337.346 97.4392 337.346 98.9001V104.19C337.346 105.651 338.53 106.836 339.991 106.836H355.862C357.323 106.836 358.507 105.651 358.507 104.19V98.9001C358.507 97.4392 357.323 96.2549 355.862 96.2549Z" stroke="#111827" stroke-width="1.32259"/>
<path d="M353.216 98.9004H341.313C340.582 98.9004 339.99 99.4925 339.99 100.223V102.868C339.99 103.599 340.582 104.191 341.313 104.191H353.216C353.947 104.191 354.539 103.599 354.539 102.868V100.223C354.539 99.4925 353.947 98.9004 353.216 98.9004Z" fill="#111827"/>
<path d="M146.166 167.834C146.166 166.209 146.518 164.763 147.222 163.496C147.925 162.215 148.902 161.222 150.153 160.518C151.419 159.799 152.849 159.44 154.444 159.44C156.398 159.44 158.071 159.956 159.462 160.987C160.853 162.019 161.783 163.426 162.252 165.208H157.844C157.5 164.536 157.031 164.028 156.437 163.684C155.843 163.324 155.163 163.145 154.397 163.145C153.162 163.145 152.161 163.575 151.395 164.434C150.629 165.278 150.246 166.412 150.246 167.834C150.246 169.257 150.629 170.398 151.395 171.258C152.161 172.118 153.162 172.548 154.397 172.548C155.163 172.548 155.843 172.368 156.437 172.008C157.031 171.649 157.5 171.133 157.844 170.461H162.252C161.783 172.243 160.853 173.65 159.462 174.681C158.071 175.698 156.398 176.206 154.444 176.206C152.849 176.206 151.419 175.854 150.153 175.15C148.902 174.431 147.925 173.439 147.222 172.172C146.518 170.906 146.166 169.46 146.166 167.834ZM168.718 165.349C169.187 164.583 169.773 163.981 170.476 163.543C171.195 163.09 171.977 162.863 172.821 162.863V167.107H171.719C170.719 167.107 169.968 167.326 169.468 167.764C168.968 168.186 168.718 168.936 168.718 170.015V176.088H164.708V163.004H168.718V165.349ZM187.072 169.312C187.072 169.671 187.048 170.054 187.001 170.461H177.927C177.989 171.289 178.247 171.922 178.701 172.36C179.154 172.798 179.724 173.017 180.412 173.017C181.413 173.017 182.108 172.595 182.499 171.75H186.767C186.548 172.61 186.149 173.384 185.571 174.072C185.008 174.76 184.297 175.299 183.437 175.69C182.577 176.081 181.616 176.276 180.553 176.276C179.271 176.276 178.13 176.002 177.129 175.455C176.129 174.908 175.347 174.126 174.785 173.11C174.222 172.094 173.94 170.906 173.94 169.546C173.94 168.186 174.214 166.998 174.761 165.982C175.324 164.966 176.106 164.184 177.106 163.637C178.106 163.09 179.255 162.816 180.553 162.816C181.819 162.816 182.945 163.082 183.93 163.614C184.914 164.145 185.68 164.903 186.228 165.888C186.79 166.873 187.072 168.014 187.072 169.312ZM182.968 168.421C182.968 167.67 182.734 167.084 182.265 166.662C181.796 166.24 181.21 166.029 180.506 166.029C179.818 166.029 179.24 166.24 178.771 166.662C178.318 167.068 178.036 167.655 177.927 168.421H182.968ZM188.39 169.523C188.39 168.178 188.64 166.998 189.14 165.982C189.656 164.966 190.352 164.184 191.227 163.637C192.103 163.09 193.08 162.816 194.158 162.816C195.081 162.816 195.886 163.004 196.573 163.379C197.277 163.754 197.816 164.247 198.191 164.856V163.004H202.201V176.088H198.191V174.236C197.801 174.846 197.253 175.338 196.55 175.713C195.862 176.088 195.057 176.276 194.135 176.276C193.072 176.276 192.103 176.002 191.227 175.455C190.352 174.892 189.656 174.103 189.14 173.087C188.64 172.055 188.39 170.867 188.39 169.523ZM198.191 169.546C198.191 168.546 197.91 167.756 197.347 167.178C196.8 166.599 196.128 166.31 195.331 166.31C194.533 166.31 193.853 166.599 193.291 167.178C192.743 167.741 192.47 168.522 192.47 169.523C192.47 170.523 192.743 171.32 193.291 171.914C193.853 172.493 194.533 172.782 195.331 172.782C196.128 172.782 196.8 172.493 197.347 171.914C197.91 171.336 198.191 170.547 198.191 169.546ZM212.395 172.688V176.088H210.355C208.901 176.088 207.767 175.737 206.954 175.033C206.142 174.314 205.735 173.149 205.735 171.539V166.334H204.141V163.004H205.735V159.815H209.745V163.004H212.371V166.334H209.745V171.586C209.745 171.977 209.839 172.258 210.026 172.43C210.214 172.602 210.527 172.688 210.964 172.688H212.395ZM226.962 169.312C226.962 169.671 226.939 170.054 226.892 170.461H217.817C217.88 171.289 218.138 171.922 218.591 172.36C219.044 172.798 219.615 173.017 220.303 173.017C221.303 173.017 221.999 172.595 222.39 171.75H226.657C226.438 172.61 226.04 173.384 225.461 174.072C224.899 174.76 224.187 175.299 223.328 175.69C222.468 176.081 221.506 176.276 220.443 176.276C219.162 176.276 218.02 176.002 217.02 175.455C216.019 174.908 215.238 174.126 214.675 173.11C214.112 172.094 213.831 170.906 213.831 169.546C213.831 168.186 214.104 166.998 214.652 165.982C215.214 164.966 215.996 164.184 216.996 163.637C217.997 163.09 219.146 162.816 220.443 162.816C221.71 162.816 222.835 163.082 223.82 163.614C224.805 164.145 225.571 164.903 226.118 165.888C226.681 166.873 226.962 168.014 226.962 169.312ZM222.859 168.421C222.859 167.67 222.624 167.084 222.155 166.662C221.686 166.24 221.1 166.029 220.397 166.029C219.709 166.029 219.13 166.24 218.661 166.662C218.208 167.068 217.927 167.655 217.817 168.421H222.859ZM237.53 159.627L241.61 172.055L245.69 159.627H249.957L244.119 176.088H239.101L233.262 159.627H237.53ZM253.65 161.644C252.946 161.644 252.368 161.441 251.915 161.034C251.477 160.612 251.258 160.096 251.258 159.487C251.258 158.861 251.477 158.345 251.915 157.939C252.368 157.517 252.946 157.306 253.65 157.306C254.338 157.306 254.9 157.517 255.338 157.939C255.792 158.345 256.018 158.861 256.018 159.487C256.018 160.096 255.792 160.612 255.338 161.034C254.9 161.441 254.338 161.644 253.65 161.644ZM255.643 163.004V176.088H251.633V163.004H255.643ZM263.848 176.276C262.723 176.276 261.714 176.081 260.823 175.69C259.932 175.299 259.229 174.767 258.713 174.095C258.197 173.407 257.908 172.641 257.845 171.797H261.808C261.855 172.282 262.058 172.673 262.418 172.97C262.793 173.251 263.262 173.392 263.825 173.392C264.325 173.392 264.708 173.29 264.974 173.087C265.255 172.884 265.396 172.61 265.396 172.266C265.396 171.891 265.2 171.61 264.81 171.422C264.419 171.234 263.778 171.039 262.887 170.836C261.949 170.617 261.167 170.39 260.542 170.156C259.932 169.921 259.401 169.546 258.947 169.03C258.51 168.499 258.291 167.795 258.291 166.92C258.291 166.154 258.494 165.466 258.901 164.856C259.323 164.231 259.932 163.739 260.73 163.379C261.527 163.004 262.48 162.816 263.59 162.816C265.232 162.816 266.521 163.223 267.459 164.036C268.413 164.849 268.96 165.927 269.101 167.272H265.396C265.333 166.787 265.13 166.412 264.786 166.146C264.458 165.865 264.02 165.724 263.473 165.724C263.004 165.724 262.645 165.818 262.394 166.005C262.144 166.193 262.019 166.459 262.019 166.803C262.019 167.178 262.215 167.459 262.605 167.647C263.012 167.834 263.637 168.022 264.481 168.21C265.435 168.444 266.224 168.686 266.85 168.936C267.475 169.171 268.014 169.562 268.468 170.109C268.921 170.64 269.148 171.36 269.148 172.266C269.148 173.032 268.937 173.72 268.515 174.33C268.093 174.939 267.475 175.416 266.662 175.76C265.865 176.104 264.927 176.276 263.848 176.276ZM273.641 161.644C272.937 161.644 272.359 161.441 271.906 161.034C271.468 160.612 271.249 160.096 271.249 159.487C271.249 158.861 271.468 158.345 271.906 157.939C272.359 157.517 272.937 157.306 273.641 157.306C274.329 157.306 274.891 157.517 275.329 157.939C275.783 158.345 276.009 158.861 276.009 159.487C276.009 160.096 275.783 160.612 275.329 161.034C274.891 161.441 274.329 161.644 273.641 161.644ZM275.634 163.004V176.088H271.624V163.004H275.634ZM285.832 172.688V176.088H283.792C282.339 176.088 281.205 175.737 280.392 175.033C279.579 174.314 279.173 173.149 279.173 171.539V166.334H277.578V163.004H279.173V159.815H283.183V163.004H285.809V166.334H283.183V171.586C283.183 171.977 283.277 172.258 283.464 172.43C283.652 172.602 283.964 172.688 284.402 172.688H285.832ZM294.022 176.276C292.74 176.276 291.583 176.002 290.552 175.455C289.535 174.908 288.73 174.126 288.136 173.11C287.558 172.094 287.269 170.906 287.269 169.546C287.269 168.202 287.566 167.022 288.16 166.005C288.754 164.974 289.567 164.184 290.598 163.637C291.63 163.09 292.787 162.816 294.069 162.816C295.351 162.816 296.508 163.09 297.539 163.637C298.571 164.184 299.384 164.974 299.978 166.005C300.572 167.022 300.869 168.202 300.869 169.546C300.869 170.891 300.564 172.079 299.954 173.11C299.36 174.126 298.54 174.908 297.492 175.455C296.461 176.002 295.304 176.276 294.022 176.276ZM294.022 172.829C294.788 172.829 295.437 172.548 295.968 171.985C296.515 171.406 296.789 170.594 296.789 169.546C296.789 168.499 296.523 167.694 295.992 167.131C295.476 166.553 294.835 166.263 294.069 166.263C293.287 166.263 292.638 166.545 292.123 167.107C291.607 167.67 291.349 168.483 291.349 169.546C291.349 170.594 291.599 171.406 292.099 171.985C292.615 172.548 293.256 172.829 294.022 172.829ZM307.006 165.349C307.475 164.583 308.061 163.981 308.765 163.543C309.484 163.09 310.265 162.863 311.11 162.863V167.107H310.007C309.007 167.107 308.257 167.326 307.756 167.764C307.256 168.186 307.006 168.936 307.006 170.015V176.088H302.996V163.004H307.006V165.349Z" fill="#111827"/>
<path opacity="0.45" d="M330.732 197.165H127.053C124.861 197.165 123.085 198.941 123.085 201.133C123.085 203.324 124.861 205.101 127.053 205.101H330.732C332.924 205.101 334.7 203.324 334.7 201.133C334.7 198.941 332.924 197.165 330.732 197.165Z" fill="#111827"/>
<path opacity="0.45" d="M291.054 215.682H166.73C164.539 215.682 162.763 217.458 162.763 219.649C162.763 221.841 164.539 223.617 166.73 223.617H291.054C293.246 223.617 295.022 221.841 295.022 219.649C295.022 217.458 293.246 215.682 291.054 215.682Z" fill="#111827"/>
</g>
<path d="M113.831 274.301L116.388 282.34H116.486L119.049 274.301H121.529L117.881 284.882H114.998L111.346 274.301H113.831ZM122.761 284.882V276.946H124.962V284.882H122.761ZM123.866 275.923C123.539 275.923 123.258 275.815 123.024 275.598C122.794 275.377 122.678 275.114 122.678 274.807C122.678 274.504 122.794 274.244 123.024 274.027C123.258 273.807 123.539 273.697 123.866 273.697C124.194 273.697 124.473 273.807 124.703 274.027C124.938 274.244 125.055 274.504 125.055 274.807C125.055 275.114 124.938 275.377 124.703 275.598C124.473 275.815 124.194 275.923 123.866 275.923ZM133.327 279.209L131.312 279.333C131.278 279.161 131.204 279.006 131.09 278.868C130.977 278.727 130.827 278.615 130.641 278.532C130.458 278.446 130.24 278.403 129.985 278.403C129.644 278.403 129.356 278.476 129.122 278.62C128.888 278.761 128.771 278.951 128.771 279.188C128.771 279.378 128.846 279.538 128.998 279.669C129.149 279.8 129.409 279.905 129.778 279.984L131.214 280.273C131.986 280.432 132.561 280.687 132.94 281.038C133.319 281.389 133.508 281.851 133.508 282.423C133.508 282.943 133.355 283.399 133.048 283.792C132.745 284.184 132.328 284.491 131.798 284.711C131.271 284.928 130.663 285.037 129.974 285.037C128.924 285.037 128.087 284.818 127.463 284.381C126.844 283.94 126.48 283.341 126.373 282.583L128.538 282.469C128.604 282.789 128.762 283.034 129.013 283.203C129.265 283.368 129.587 283.451 129.98 283.451C130.365 283.451 130.675 283.377 130.909 283.229C131.147 283.077 131.268 282.882 131.271 282.645C131.268 282.445 131.183 282.281 131.018 282.154C130.853 282.023 130.598 281.923 130.253 281.854L128.879 281.581C128.104 281.426 127.527 281.157 127.148 280.775C126.773 280.392 126.585 279.905 126.585 279.312C126.585 278.803 126.723 278.364 126.999 277.995C127.277 277.627 127.668 277.342 128.171 277.143C128.678 276.943 129.27 276.843 129.949 276.843C130.951 276.843 131.74 277.055 132.315 277.478C132.893 277.902 133.231 278.479 133.327 279.209ZM134.894 284.882V276.946H137.095V284.882H134.894ZM136 275.923C135.672 275.923 135.392 275.815 135.158 275.598C134.927 275.377 134.811 275.114 134.811 274.807C134.811 274.504 134.927 274.244 135.158 274.027C135.392 273.807 135.672 273.697 136 273.697C136.327 273.697 136.606 273.807 136.837 274.027C137.071 274.244 137.188 274.504 137.188 274.807C137.188 275.114 137.071 275.377 136.837 275.598C136.606 275.815 136.327 275.923 136 275.923ZM143.079 276.946V278.6H138.3V276.946H143.079ZM139.385 275.045H141.586V282.443C141.586 282.647 141.617 282.805 141.679 282.919C141.741 283.029 141.827 283.106 141.937 283.151C142.051 283.196 142.182 283.218 142.33 283.218C142.433 283.218 142.536 283.21 142.64 283.192C142.743 283.172 142.822 283.156 142.877 283.146L143.224 284.784C143.113 284.818 142.958 284.858 142.759 284.903C142.559 284.951 142.316 284.98 142.03 284.99C141.5 285.011 141.035 284.94 140.635 284.779C140.239 284.617 139.931 284.365 139.71 284.024C139.49 283.683 139.381 283.253 139.385 282.733V275.045ZM148.013 285.037C147.21 285.037 146.516 284.866 145.931 284.525C145.349 284.181 144.899 283.702 144.582 283.089C144.265 282.473 144.107 281.758 144.107 280.945C144.107 280.125 144.265 279.409 144.582 278.796C144.899 278.179 145.349 277.701 145.931 277.36C146.516 277.015 147.21 276.843 148.013 276.843C148.815 276.843 149.508 277.015 150.09 277.36C150.675 277.701 151.126 278.179 151.443 278.796C151.76 279.409 151.919 280.125 151.919 280.945C151.919 281.758 151.76 282.473 151.443 283.089C151.126 283.702 150.675 284.181 150.09 284.525C149.508 284.866 148.815 285.037 148.013 285.037ZM148.023 283.332C148.388 283.332 148.693 283.229 148.938 283.022C149.182 282.812 149.366 282.526 149.49 282.164C149.618 281.803 149.682 281.391 149.682 280.93C149.682 280.468 149.618 280.056 149.49 279.695C149.366 279.333 149.182 279.047 148.938 278.837C148.693 278.627 148.388 278.522 148.023 278.522C147.655 278.522 147.345 278.627 147.093 278.837C146.845 279.047 146.657 279.333 146.53 279.695C146.406 280.056 146.344 280.468 146.344 280.93C146.344 281.391 146.406 281.803 146.53 282.164C146.657 282.526 146.845 282.812 147.093 283.022C147.345 283.229 147.655 283.332 148.023 283.332ZM153.35 284.882V276.946H155.483V278.331H155.566C155.711 277.838 155.953 277.466 156.294 277.215C156.635 276.96 157.028 276.833 157.472 276.833C157.583 276.833 157.701 276.84 157.829 276.853C157.956 276.867 158.068 276.886 158.165 276.91V278.863C158.061 278.832 157.918 278.804 157.736 278.78C157.553 278.756 157.386 278.744 157.235 278.744C156.911 278.744 156.622 278.815 156.367 278.956C156.115 279.094 155.916 279.287 155.767 279.535C155.623 279.783 155.551 280.068 155.551 280.392V284.882H153.35ZM164.871 280.294V284.882H162.67V276.946H164.767V278.346H164.86C165.036 277.885 165.33 277.52 165.744 277.251C166.157 276.979 166.658 276.843 167.247 276.843C167.798 276.843 168.279 276.963 168.689 277.205C169.098 277.446 169.417 277.79 169.644 278.238C169.872 278.682 169.985 279.213 169.985 279.829V284.882H167.785V280.222C167.788 279.736 167.664 279.357 167.413 279.085C167.161 278.81 166.815 278.672 166.374 278.672C166.078 278.672 165.816 278.736 165.589 278.863C165.365 278.99 165.189 279.176 165.062 279.421C164.938 279.662 164.874 279.953 164.871 280.294ZM173.983 285.032C173.477 285.032 173.025 284.944 172.629 284.768C172.233 284.589 171.92 284.326 171.689 283.978C171.462 283.626 171.348 283.189 171.348 282.665C171.348 282.225 171.429 281.854 171.591 281.555C171.753 281.255 171.973 281.014 172.252 280.831C172.531 280.649 172.848 280.511 173.203 280.418C173.561 280.325 173.936 280.26 174.329 280.222C174.791 280.174 175.163 280.129 175.445 280.087C175.727 280.043 175.932 279.977 176.06 279.891C176.187 279.805 176.251 279.678 176.251 279.509V279.478C176.251 279.151 176.148 278.897 175.941 278.718C175.738 278.539 175.448 278.45 175.073 278.45C174.677 278.45 174.362 278.538 174.128 278.713C173.893 278.885 173.738 279.102 173.663 279.364L171.627 279.199C171.73 278.717 171.934 278.3 172.237 277.949C172.54 277.594 172.931 277.322 173.409 277.132C173.892 276.939 174.45 276.843 175.083 276.843C175.524 276.843 175.946 276.895 176.349 276.998C176.755 277.101 177.115 277.261 177.429 277.478C177.746 277.695 177.995 277.974 178.178 278.315C178.361 278.653 178.452 279.058 178.452 279.529V284.882H176.365V283.781H176.303C176.175 284.029 176.005 284.248 175.791 284.438C175.578 284.624 175.321 284.77 175.021 284.877C174.722 284.98 174.376 285.032 173.983 285.032ZM174.613 283.513C174.937 283.513 175.223 283.449 175.471 283.322C175.719 283.191 175.913 283.015 176.055 282.795C176.196 282.574 176.266 282.324 176.266 282.045V281.203C176.198 281.248 176.103 281.289 175.982 281.327C175.865 281.362 175.733 281.395 175.584 281.426C175.436 281.453 175.288 281.479 175.14 281.503C174.992 281.524 174.858 281.543 174.737 281.56C174.479 281.598 174.253 281.658 174.06 281.741C173.867 281.823 173.718 281.935 173.611 282.076C173.504 282.214 173.451 282.386 173.451 282.593C173.451 282.893 173.559 283.122 173.776 283.28C173.997 283.435 174.276 283.513 174.613 283.513ZM180.159 284.882V276.946H182.257V278.346H182.35C182.515 277.881 182.791 277.515 183.176 277.246C183.562 276.977 184.024 276.843 184.561 276.843C185.105 276.843 185.568 276.979 185.951 277.251C186.333 277.52 186.588 277.885 186.715 278.346H186.798C186.96 277.892 187.253 277.528 187.676 277.256C188.103 276.981 188.608 276.843 189.19 276.843C189.931 276.843 190.532 277.079 190.993 277.551C191.458 278.019 191.691 278.684 191.691 279.545V284.882H189.495V279.979C189.495 279.538 189.378 279.207 189.144 278.987C188.909 278.767 188.617 278.656 188.265 278.656C187.866 278.656 187.554 278.784 187.33 279.039C187.106 279.29 186.994 279.622 186.994 280.036V284.882H184.861V279.932C184.861 279.543 184.749 279.233 184.525 279.002C184.304 278.772 184.013 278.656 183.652 278.656C183.407 278.656 183.187 278.718 182.99 278.842C182.798 278.963 182.644 279.133 182.531 279.354C182.417 279.571 182.36 279.826 182.36 280.118V284.882H180.159ZM197.046 285.037C196.229 285.037 195.527 284.872 194.938 284.541C194.352 284.207 193.901 283.735 193.584 283.125C193.267 282.512 193.109 281.787 193.109 280.95C193.109 280.134 193.267 279.418 193.584 278.801C193.901 278.184 194.347 277.704 194.922 277.36C195.501 277.015 196.179 276.843 196.958 276.843C197.481 276.843 197.969 276.927 198.42 277.096C198.874 277.261 199.271 277.511 199.608 277.845C199.949 278.179 200.214 278.6 200.404 279.106C200.593 279.609 200.688 280.198 200.688 280.873V281.477H193.987V280.113H198.616C198.616 279.796 198.547 279.516 198.41 279.271C198.272 279.027 198.081 278.835 197.836 278.698C197.595 278.556 197.314 278.486 196.994 278.486C196.66 278.486 196.364 278.563 196.105 278.718C195.85 278.87 195.651 279.075 195.506 279.333C195.361 279.588 195.287 279.872 195.284 280.186V281.482C195.284 281.875 195.356 282.214 195.501 282.5C195.649 282.786 195.857 283.006 196.126 283.161C196.395 283.316 196.713 283.394 197.082 283.394C197.326 283.394 197.55 283.359 197.753 283.291C197.957 283.222 198.131 283.118 198.275 282.981C198.42 282.843 198.53 282.674 198.606 282.474L200.641 282.609C200.538 283.098 200.326 283.525 200.006 283.89C199.689 284.252 199.279 284.534 198.776 284.737C198.277 284.937 197.7 285.037 197.046 285.037Z" fill="#374151"/>
<path d="M111.516 449.581V447.737H120.206V449.581H116.967V458.317H114.755V449.581H111.516ZM121.596 458.317V450.382H123.797V458.317H121.596ZM122.701 449.359C122.374 449.359 122.093 449.25 121.859 449.033C121.628 448.813 121.513 448.549 121.513 448.243C121.513 447.94 121.628 447.68 121.859 447.463C122.093 447.242 122.374 447.132 122.701 447.132C123.029 447.132 123.308 447.242 123.538 447.463C123.773 447.68 123.89 447.94 123.89 448.243C123.89 448.549 123.773 448.813 123.538 449.033C123.308 449.25 123.029 449.359 122.701 449.359ZM125.56 458.317V450.382H127.657V451.782H127.75C127.916 451.317 128.191 450.95 128.577 450.681C128.963 450.413 129.424 450.278 129.961 450.278C130.506 450.278 130.969 450.415 131.351 450.687C131.733 450.955 131.988 451.32 132.116 451.782H132.198C132.36 451.327 132.653 450.964 133.077 450.692C133.504 450.416 134.008 450.278 134.591 450.278C135.331 450.278 135.932 450.514 136.394 450.986C136.859 451.455 137.091 452.119 137.091 452.981V458.317H134.895V453.414C134.895 452.974 134.778 452.643 134.544 452.423C134.31 452.202 134.017 452.092 133.666 452.092C133.266 452.092 132.954 452.219 132.731 452.474C132.507 452.726 132.395 453.058 132.395 453.471V458.317H130.261V453.368C130.261 452.979 130.149 452.669 129.925 452.438C129.705 452.207 129.414 452.092 129.052 452.092C128.808 452.092 128.587 452.154 128.391 452.278C128.198 452.398 128.045 452.569 127.931 452.789C127.817 453.006 127.761 453.261 127.761 453.554V458.317H125.56ZM142.446 458.472C141.63 458.472 140.927 458.307 140.338 457.976C139.753 457.642 139.301 457.17 138.985 456.561C138.668 455.948 138.509 455.223 138.509 454.386C138.509 453.569 138.668 452.853 138.985 452.237C139.301 451.62 139.747 451.14 140.323 450.795C140.901 450.451 141.58 450.278 142.358 450.278C142.882 450.278 143.369 450.363 143.82 450.532C144.275 450.697 144.671 450.947 145.009 451.281C145.349 451.615 145.615 452.035 145.804 452.541C145.994 453.044 146.088 453.633 146.088 454.308V454.913H139.387V453.549H144.017C144.017 453.232 143.948 452.951 143.81 452.707C143.672 452.462 143.481 452.271 143.236 452.133C142.995 451.992 142.715 451.921 142.394 451.921C142.06 451.921 141.764 451.999 141.506 452.154C141.251 452.305 141.051 452.51 140.906 452.769C140.762 453.024 140.688 453.308 140.684 453.621V454.918C140.684 455.311 140.757 455.65 140.901 455.936C141.049 456.222 141.258 456.442 141.526 456.597C141.795 456.752 142.114 456.829 142.482 456.829C142.727 456.829 142.951 456.795 143.154 456.726C143.357 456.657 143.531 456.554 143.676 456.416C143.82 456.278 143.93 456.11 144.006 455.91L146.042 456.044C145.938 456.533 145.727 456.96 145.406 457.325C145.089 457.687 144.68 457.97 144.177 458.173C143.677 458.372 143.1 458.472 142.446 458.472ZM157.494 452.645L155.479 452.769C155.445 452.596 155.371 452.441 155.257 452.304C155.144 452.163 154.994 452.051 154.808 451.968C154.625 451.882 154.407 451.839 154.152 451.839C153.811 451.839 153.523 451.911 153.289 452.056C153.055 452.197 152.938 452.386 152.938 452.624C152.938 452.813 153.013 452.974 153.165 453.105C153.316 453.235 153.577 453.34 153.945 453.42L155.381 453.709C156.153 453.867 156.728 454.122 157.107 454.474C157.486 454.825 157.675 455.286 157.675 455.858C157.675 456.378 157.522 456.835 157.215 457.227C156.912 457.62 156.496 457.926 155.965 458.147C155.438 458.364 154.83 458.472 154.141 458.472C153.091 458.472 152.254 458.254 151.631 457.816C151.011 457.375 150.647 456.776 150.54 456.018L152.705 455.905C152.771 456.225 152.929 456.47 153.18 456.638C153.432 456.804 153.754 456.886 154.147 456.886C154.532 456.886 154.842 456.812 155.076 456.664C155.314 456.513 155.435 456.318 155.438 456.08C155.435 455.881 155.35 455.717 155.185 455.59C155.02 455.459 154.765 455.359 154.42 455.29L153.046 455.016C152.271 454.861 151.694 454.592 151.315 454.21C150.94 453.828 150.752 453.34 150.752 452.748C150.752 452.238 150.89 451.799 151.166 451.431C151.445 451.062 151.835 450.778 152.338 450.578C152.845 450.378 153.437 450.278 154.116 450.278C155.118 450.278 155.907 450.49 156.482 450.914C157.06 451.338 157.398 451.915 157.494 452.645ZM161.262 447.737V458.317H159.061V447.737H161.262ZM166.61 458.472C165.808 458.472 165.114 458.302 164.528 457.961C163.946 457.616 163.497 457.138 163.18 456.525C162.863 455.908 162.705 455.193 162.705 454.381C162.705 453.561 162.863 452.844 163.18 452.231C163.497 451.615 163.946 451.136 164.528 450.795C165.114 450.451 165.808 450.278 166.61 450.278C167.413 450.278 168.105 450.451 168.687 450.795C169.273 451.136 169.724 451.615 170.041 452.231C170.358 452.844 170.516 453.561 170.516 454.381C170.516 455.193 170.358 455.908 170.041 456.525C169.724 457.138 169.273 457.616 168.687 457.961C168.105 458.302 167.413 458.472 166.61 458.472ZM166.621 456.767C166.986 456.767 167.291 456.664 167.535 456.457C167.78 456.247 167.964 455.962 168.088 455.6C168.215 455.238 168.279 454.827 168.279 454.365C168.279 453.904 168.215 453.492 168.088 453.13C167.964 452.769 167.78 452.483 167.535 452.273C167.291 452.063 166.986 451.958 166.621 451.958C166.252 451.958 165.942 452.063 165.691 452.273C165.443 452.483 165.255 452.769 165.128 453.13C165.004 453.492 164.942 453.904 164.942 454.365C164.942 454.827 165.004 455.238 165.128 455.6C165.255 455.962 165.443 456.247 165.691 456.457C165.942 456.664 166.252 456.767 166.621 456.767ZM176.168 450.382V452.035H171.389V450.382H176.168ZM172.474 448.481H174.675V455.879C174.675 456.082 174.706 456.24 174.768 456.354C174.83 456.464 174.916 456.542 175.026 456.587C175.14 456.631 175.271 456.654 175.419 456.654C175.522 456.654 175.626 456.645 175.729 456.628C175.832 456.607 175.912 456.592 175.967 456.581L176.313 458.219C176.203 458.254 176.048 458.293 175.848 458.338C175.648 458.386 175.405 458.416 175.119 458.426C174.589 458.447 174.124 458.376 173.725 458.214C173.328 458.052 173.02 457.801 172.8 457.46C172.579 457.119 172.471 456.688 172.474 456.168V448.481Z" fill="#374151"/>
<path d="M111.919 365.404V354.824H116.094C116.896 354.824 117.58 354.977 118.145 355.283C118.709 355.586 119.14 356.008 119.436 356.549C119.736 357.086 119.886 357.706 119.886 358.409C119.886 359.112 119.734 359.732 119.431 360.269C119.128 360.806 118.689 361.225 118.114 361.524C117.542 361.824 116.85 361.974 116.037 361.974H113.376V360.181H115.675C116.106 360.181 116.46 360.107 116.739 359.959C117.022 359.807 117.232 359.599 117.37 359.334C117.511 359.065 117.581 358.757 117.581 358.409C117.581 358.058 117.511 357.751 117.37 357.489C117.232 357.224 117.022 357.019 116.739 356.875C116.457 356.726 116.099 356.652 115.665 356.652H114.156V365.404H111.919ZM126.386 362.025V357.469H128.587V365.404H126.474V363.963H126.391C126.212 364.428 125.914 364.802 125.498 365.084C125.084 365.366 124.58 365.508 123.984 365.508C123.454 365.508 122.987 365.387 122.584 365.146C122.181 364.905 121.866 364.562 121.638 364.118C121.415 363.674 121.301 363.141 121.297 362.521V357.469H123.498V362.129C123.502 362.597 123.627 362.967 123.875 363.24C124.123 363.512 124.456 363.648 124.873 363.648C125.138 363.648 125.386 363.587 125.616 363.467C125.847 363.343 126.033 363.16 126.174 362.919C126.319 362.678 126.39 362.38 126.386 362.025ZM130.348 365.404V357.469H132.481V358.853H132.564C132.709 358.361 132.951 357.989 133.292 357.737C133.633 357.483 134.026 357.355 134.47 357.355C134.581 357.355 134.699 357.362 134.827 357.376C134.954 357.39 135.066 357.408 135.163 357.433V359.385C135.059 359.354 134.916 359.327 134.734 359.303C134.551 359.279 134.384 359.267 134.233 359.267C133.909 359.267 133.62 359.337 133.365 359.478C133.113 359.616 132.914 359.809 132.765 360.057C132.621 360.305 132.548 360.591 132.548 360.915V365.404H130.348ZM136.301 368.38V357.469H138.47V358.802H138.569C138.665 358.588 138.805 358.371 138.987 358.151C139.173 357.927 139.414 357.741 139.71 357.593C140.01 357.441 140.382 357.365 140.826 357.365C141.405 357.365 141.939 357.517 142.428 357.82C142.917 358.12 143.308 358.573 143.601 359.179C143.893 359.782 144.04 360.538 144.04 361.447C144.04 362.332 143.897 363.079 143.611 363.689C143.329 364.295 142.943 364.755 142.454 365.068C141.968 365.378 141.424 365.533 140.821 365.533C140.394 365.533 140.031 365.463 139.731 365.322C139.435 365.18 139.192 365.003 139.003 364.789C138.813 364.573 138.668 364.354 138.569 364.133H138.501V368.38H136.301ZM138.455 361.437C138.455 361.908 138.52 362.32 138.651 362.671C138.782 363.023 138.972 363.296 139.22 363.493C139.468 363.686 139.769 363.782 140.124 363.782C140.482 363.782 140.785 363.684 141.033 363.488C141.281 363.288 141.469 363.012 141.596 362.661C141.727 362.306 141.792 361.898 141.792 361.437C141.792 360.978 141.729 360.575 141.601 360.228C141.474 359.88 141.286 359.608 141.038 359.411C140.79 359.215 140.485 359.117 140.124 359.117C139.765 359.117 139.462 359.212 139.214 359.401C138.97 359.59 138.782 359.859 138.651 360.207C138.52 360.555 138.455 360.965 138.455 361.437ZM149.093 365.559C148.29 365.559 147.596 365.389 147.01 365.048C146.428 364.703 145.979 364.225 145.662 363.612C145.345 362.995 145.187 362.28 145.187 361.468C145.187 360.648 145.345 359.931 145.662 359.318C145.979 358.702 146.428 358.223 147.01 357.882C147.596 357.538 148.29 357.365 149.093 357.365C149.895 357.365 150.587 357.538 151.169 357.882C151.755 358.223 152.206 358.702 152.523 359.318C152.84 359.931 152.998 360.648 152.998 361.468C152.998 362.28 152.84 362.995 152.523 363.612C152.206 364.225 151.755 364.703 151.169 365.048C150.587 365.389 149.895 365.559 149.093 365.559ZM149.103 363.854C149.468 363.854 149.773 363.751 150.017 363.544C150.262 363.334 150.446 363.048 150.57 362.687C150.698 362.325 150.761 361.914 150.761 361.452C150.761 360.99 150.698 360.579 150.57 360.217C150.446 359.856 150.262 359.57 150.017 359.36C149.773 359.15 149.468 359.044 149.103 359.044C148.734 359.044 148.424 359.15 148.173 359.36C147.925 359.57 147.737 359.856 147.61 360.217C147.486 360.579 147.424 360.99 147.424 361.452C147.424 361.914 147.486 362.325 147.61 362.687C147.737 363.048 147.925 363.334 148.173 363.544C148.424 363.751 148.734 363.854 149.103 363.854ZM161.032 359.732L159.017 359.856C158.983 359.683 158.909 359.528 158.795 359.391C158.681 359.249 158.532 359.137 158.346 359.055C158.163 358.969 157.944 358.926 157.689 358.926C157.348 358.926 157.061 358.998 156.827 359.143C156.592 359.284 156.475 359.473 156.475 359.711C156.475 359.9 156.551 360.061 156.703 360.191C156.854 360.322 157.114 360.427 157.483 360.507L158.919 360.796C159.691 360.954 160.266 361.209 160.645 361.561C161.023 361.912 161.213 362.373 161.213 362.945C161.213 363.465 161.06 363.922 160.753 364.314C160.45 364.707 160.033 365.013 159.503 365.234C158.976 365.451 158.368 365.559 157.679 365.559C156.629 365.559 155.792 365.341 155.168 364.903C154.548 364.462 154.185 363.863 154.078 363.105L156.243 362.992C156.308 363.312 156.467 363.556 156.718 363.725C156.97 363.891 157.292 363.973 157.684 363.973C158.07 363.973 158.38 363.899 158.614 363.751C158.852 363.6 158.972 363.405 158.976 363.167C158.972 362.967 158.888 362.804 158.723 362.676C158.557 362.546 158.302 362.446 157.958 362.377L156.584 362.103C155.809 361.948 155.232 361.679 154.853 361.297C154.478 360.915 154.29 360.427 154.29 359.835C154.29 359.325 154.428 358.886 154.703 358.518C154.982 358.149 155.373 357.865 155.876 357.665C156.382 357.465 156.975 357.365 157.653 357.365C158.656 357.365 159.444 357.577 160.019 358.001C160.598 358.425 160.936 359.001 161.032 359.732ZM166.215 365.559C165.399 365.559 164.696 365.394 164.107 365.063C163.522 364.729 163.071 364.257 162.754 363.648C162.437 363.035 162.278 362.31 162.278 361.473C162.278 360.656 162.437 359.94 162.754 359.323C163.071 358.707 163.517 358.226 164.092 357.882C164.67 357.538 165.349 357.365 166.127 357.365C166.651 357.365 167.138 357.45 167.589 357.619C168.044 357.784 168.44 358.034 168.778 358.368C169.119 358.702 169.384 359.122 169.573 359.628C169.763 360.131 169.858 360.72 169.858 361.395V362H163.157V360.636H167.786C167.786 360.319 167.717 360.038 167.579 359.794C167.441 359.549 167.25 359.358 167.006 359.22C166.765 359.079 166.484 359.008 166.164 359.008C165.829 359.008 165.533 359.086 165.275 359.241C165.02 359.392 164.82 359.597 164.676 359.856C164.531 360.11 164.457 360.395 164.453 360.708V362.005C164.453 362.397 164.526 362.737 164.67 363.023C164.819 363.308 165.027 363.529 165.296 363.684C165.564 363.839 165.883 363.916 166.251 363.916C166.496 363.916 166.72 363.882 166.923 363.813C167.126 363.744 167.3 363.641 167.445 363.503C167.589 363.365 167.7 363.197 167.775 362.997L169.811 363.131C169.708 363.62 169.496 364.047 169.176 364.412C168.859 364.774 168.449 365.056 167.946 365.26C167.447 365.459 166.87 365.559 166.215 365.559Z" fill="#374151"/>
<path d="M97.3823 303.29C97.3823 298.757 101.057 295.083 105.589 295.083H352.196C356.728 295.083 360.403 298.757 360.403 303.29V327.524C360.403 332.057 356.728 335.731 352.196 335.731H105.589C101.057 335.731 97.3823 332.057 97.3823 327.524V303.29Z" fill="#EDEDED"/>
<path d="M97.3823 476.725C97.3823 472.193 101.057 468.518 105.589 468.518H352.196C356.728 468.518 360.403 472.193 360.403 476.725V500.959C360.403 505.492 356.728 509.166 352.196 509.166H105.589C101.057 509.166 97.3823 505.492 97.3823 500.959V476.725Z" fill="#EDEDED"/>
<path d="M97.3823 615.424C97.3823 610.892 101.057 607.217 105.589 607.217H352.196C356.728 607.217 360.403 610.892 360.403 615.424V639.658C360.403 644.191 356.728 647.865 352.196 647.865H105.589C101.057 647.865 97.3823 644.191 97.3823 639.658V615.424Z" fill="#8A4AF6"/>
<path d="M97.3823 383.812C97.3823 379.279 101.057 375.605 105.589 375.605H214.695C219.227 375.605 222.902 379.279 222.902 383.812V408.046C222.902 412.578 219.227 416.253 214.695 416.253H105.589C101.057 416.253 97.3823 412.578 97.3823 408.046V383.812Z" fill="#EDEDED"/>
<path d="M243.09 376.191H352.196C356.405 376.191 359.817 379.603 359.817 383.812V408.045C359.817 412.254 356.405 415.666 352.196 415.667H243.09C238.881 415.666 235.469 412.254 235.469 408.045V383.812C235.469 379.603 238.881 376.191 243.09 376.191Z" fill="#EDE9FE" stroke="#8A4AF6" stroke-width="1.17244"/>
<circle cx="253.623" cy="396.138" r="8.88086" fill="#8A4AF6"/>
<circle cx="116.841" cy="396.138" r="8.88086" fill="#374151"/>
<g filter="url(#filter0_dd_702_7628)">
<path d="M415.484 167.769C415.484 153.953 426.684 142.753 440.5 142.753H658.093C671.909 142.753 683.109 153.954 683.109 167.77V367.113C683.109 370.27 682.244 373.366 680.609 376.067L680.458 376.315C677.177 381.733 677.219 388.535 680.568 393.912C682.229 396.579 683.109 399.658 683.109 402.799V602.525C683.109 616.341 671.909 627.541 658.093 627.541H440.5C426.684 627.541 415.484 616.341 415.484 602.525V402.799C415.484 399.658 416.365 396.579 418.026 393.912C421.374 388.535 421.417 381.733 418.135 376.315L417.985 376.067C416.349 373.366 415.484 370.27 415.484 367.113V167.769Z" fill="white"/>
<path d="M440.5 143.17H658.093C671.678 143.17 682.692 154.184 682.692 167.769V367.113C682.692 370.194 681.848 373.216 680.252 375.851L680.102 376.099C676.739 381.651 676.782 388.622 680.214 394.132C681.834 396.733 682.692 399.736 682.692 402.799V602.525C682.692 616.111 671.679 627.125 658.093 627.125H440.5C426.914 627.124 415.901 616.11 415.901 602.525V402.799C415.901 399.735 416.76 396.733 418.38 394.132C421.811 388.623 421.855 381.651 418.492 376.099L418.341 375.851C416.745 373.216 415.901 370.194 415.901 367.113V167.769C415.902 154.184 426.915 143.171 440.5 143.17Z" stroke="#F3F4F6" stroke-width="0.833869"/>
</g>
<rect x="471.235" y="474.245" width="156.123" height="8.3387" rx="4.16935" fill="#D1D5DB"/>
<rect x="471.235" y="522.913" width="156.123" height="8.3387" rx="4.16935" fill="#D1D5DB"/>
<rect x="471.235" y="491.001" width="103.105" height="8.3387" rx="4.16935" fill="#D1D5DB"/>
<rect x="471.235" y="539.668" width="103.105" height="8.3387" rx="4.16935" fill="#D1D5DB"/>
<path d="M484.362 228.647L487.547 237.903L490.749 228.647H493.234L488.965 240.288H486.13L481.86 228.647H484.362ZM495.818 229.948C495.407 229.948 495.062 229.82 494.784 229.565C494.517 229.298 494.384 228.97 494.384 228.581C494.384 228.191 494.517 227.869 494.784 227.613C495.062 227.346 495.407 227.213 495.818 227.213C496.23 227.213 496.569 227.346 496.836 227.613C497.114 227.869 497.253 228.191 497.253 228.581C497.253 228.97 497.114 229.298 496.836 229.565C496.569 229.82 496.23 229.948 495.818 229.948ZM496.969 231.049V240.288H494.634V231.049H496.969ZM502.795 240.438C502.039 240.438 501.361 240.305 500.76 240.038C500.171 239.76 499.698 239.388 499.343 238.921C498.998 238.454 498.809 237.937 498.776 237.37H501.127C501.172 237.759 501.344 238.076 501.644 238.32C501.944 238.554 502.328 238.67 502.795 238.67C503.24 238.67 503.584 238.581 503.829 238.404C504.085 238.215 504.212 237.964 504.212 237.653C504.212 237.353 504.057 237.125 503.745 236.969C503.445 236.814 502.956 236.652 502.278 236.486C501.6 236.319 501.044 236.152 500.61 235.985C500.176 235.807 499.804 235.535 499.493 235.168C499.181 234.801 499.026 234.318 499.026 233.717C499.026 233.195 499.165 232.722 499.443 232.3C499.732 231.866 500.149 231.527 500.693 231.282C501.249 231.027 501.9 230.899 502.645 230.899C503.745 230.899 504.624 231.177 505.28 231.733C505.936 232.277 506.297 233.017 506.364 233.951H504.129C504.096 233.562 503.94 233.25 503.662 233.017C503.395 232.783 503.034 232.667 502.578 232.667C502.156 232.667 501.828 232.755 501.594 232.933C501.372 233.1 501.26 233.334 501.26 233.634C501.26 233.945 501.416 234.184 501.727 234.351C502.039 234.507 502.522 234.668 503.178 234.835C503.845 235.001 504.396 235.174 504.829 235.352C505.263 235.529 505.636 235.802 505.947 236.169C506.258 236.525 506.414 237.008 506.414 237.62C506.414 238.153 506.269 238.637 505.98 239.071C505.691 239.493 505.274 239.827 504.729 240.071C504.185 240.316 503.54 240.438 502.795 240.438ZM509.548 229.948C509.136 229.948 508.792 229.82 508.514 229.565C508.247 229.298 508.114 228.97 508.114 228.581C508.114 228.191 508.247 227.869 508.514 227.613C508.792 227.346 509.136 227.213 509.548 227.213C509.959 227.213 510.298 227.346 510.565 227.613C510.843 227.869 510.982 228.191 510.982 228.581C510.982 228.97 510.843 229.298 510.565 229.565C510.298 229.82 509.959 229.948 509.548 229.948ZM510.699 231.049V240.288H508.364V231.049H510.699ZM515.724 232.967V237.436C515.724 237.748 515.796 237.975 515.941 238.12C516.096 238.253 516.352 238.32 516.708 238.32H517.792V240.288H516.324C514.356 240.288 513.372 239.332 513.372 237.42V232.967H512.272V231.049H513.372V228.764H515.724V231.049H517.792V232.967H515.724ZM520.655 229.948C520.244 229.948 519.899 229.82 519.621 229.565C519.354 229.298 519.221 228.97 519.221 228.581C519.221 228.191 519.354 227.869 519.621 227.613C519.899 227.346 520.244 227.213 520.655 227.213C521.067 227.213 521.406 227.346 521.673 227.613C521.951 227.869 522.09 228.191 522.09 228.581C522.09 228.97 521.951 229.298 521.673 229.565C521.406 229.82 521.067 229.948 520.655 229.948ZM521.806 231.049V240.288H519.471V231.049H521.806ZM529.233 230.915C530.333 230.915 531.223 231.266 531.901 231.966C532.579 232.655 532.918 233.623 532.918 234.868V240.288H530.584V235.185C530.584 234.451 530.4 233.89 530.033 233.5C529.666 233.1 529.166 232.9 528.532 232.9C527.887 232.9 527.376 233.1 526.998 233.5C526.631 233.89 526.448 234.451 526.448 235.185V240.288H524.113V231.049H526.448V232.2C526.759 231.799 527.154 231.488 527.632 231.266C528.121 231.032 528.655 230.915 529.233 230.915ZM538.758 230.899C539.447 230.899 540.053 231.038 540.576 231.316C541.098 231.582 541.51 231.933 541.81 232.366V231.049H544.161V240.355C544.161 241.211 543.989 241.973 543.644 242.64C543.3 243.318 542.783 243.851 542.093 244.241C541.404 244.641 540.57 244.841 539.592 244.841C538.28 244.841 537.201 244.535 536.356 243.924C535.522 243.312 535.05 242.478 534.939 241.422H537.257C537.379 241.845 537.64 242.178 538.041 242.423C538.452 242.679 538.947 242.806 539.525 242.806C540.203 242.806 540.753 242.601 541.176 242.189C541.598 241.789 541.81 241.178 541.81 240.355V238.921C541.51 239.354 541.093 239.715 540.559 240.005C540.036 240.294 539.436 240.438 538.758 240.438C537.979 240.438 537.268 240.238 536.623 239.838C535.978 239.438 535.467 238.876 535.089 238.153C534.722 237.42 534.538 236.58 534.538 235.635C534.538 234.701 534.722 233.873 535.089 233.15C535.467 232.427 535.973 231.872 536.606 231.482C537.251 231.093 537.968 230.899 538.758 230.899ZM541.81 235.668C541.81 235.101 541.699 234.618 541.476 234.218C541.254 233.806 540.954 233.495 540.576 233.284C540.198 233.061 539.792 232.95 539.358 232.95C538.925 232.95 538.524 233.056 538.157 233.267C537.79 233.478 537.49 233.789 537.257 234.201C537.034 234.601 536.923 235.079 536.923 235.635C536.923 236.191 537.034 236.68 537.257 237.103C537.49 237.514 537.79 237.831 538.157 238.053C538.535 238.276 538.936 238.387 539.358 238.387C539.792 238.387 540.198 238.281 540.576 238.07C540.954 237.848 541.254 237.536 541.476 237.136C541.699 236.725 541.81 236.235 541.81 235.668ZM559.393 232.25C559.393 232.872 559.243 233.456 558.943 234.001C558.654 234.546 558.192 234.985 557.558 235.318C556.936 235.652 556.146 235.819 555.19 235.819H553.239V240.288H550.904V228.647H555.19C556.091 228.647 556.858 228.803 557.492 229.114C558.125 229.426 558.598 229.854 558.909 230.398C559.232 230.943 559.393 231.56 559.393 232.25ZM555.09 233.984C555.724 233.984 556.196 233.828 556.508 233.517C556.83 233.206 556.991 232.783 556.991 232.25C556.991 231.694 556.836 231.266 556.524 230.965C556.213 230.654 555.735 230.498 555.09 230.498H553.239V233.984H555.09ZM560.45 235.635C560.45 234.701 560.634 233.873 561.001 233.15C561.379 232.427 561.884 231.872 562.518 231.482C563.163 231.093 563.88 230.899 564.67 230.899C565.359 230.899 565.959 231.038 566.471 231.316C566.993 231.594 567.41 231.944 567.722 232.366V231.049H570.073V240.288H567.722V238.937C567.421 239.371 567.004 239.732 566.471 240.021C565.948 240.299 565.342 240.438 564.653 240.438C563.875 240.438 563.163 240.238 562.518 239.838C561.884 239.438 561.379 238.876 561.001 238.153C560.634 237.42 560.45 236.58 560.45 235.635ZM567.722 235.668C567.722 235.101 567.61 234.618 567.388 234.218C567.166 233.806 566.865 233.495 566.487 233.284C566.109 233.061 565.704 232.95 565.27 232.95C564.836 232.95 564.436 233.056 564.069 233.267C563.702 233.478 563.402 233.789 563.169 234.201C562.946 234.601 562.835 235.079 562.835 235.635C562.835 236.191 562.946 236.68 563.169 237.103C563.402 237.514 563.702 237.831 564.069 238.053C564.447 238.276 564.848 238.387 565.27 238.387C565.704 238.387 566.109 238.281 566.487 238.07C566.865 237.848 567.166 237.536 567.388 237.136C567.61 236.725 567.722 236.235 567.722 235.668ZM575.872 240.438C575.116 240.438 574.438 240.305 573.838 240.038C573.248 239.76 572.776 239.388 572.42 238.921C572.076 238.454 571.886 237.937 571.853 237.37H574.205C574.249 237.759 574.421 238.076 574.722 238.32C575.022 238.554 575.405 238.67 575.872 238.67C576.317 238.67 576.662 238.581 576.906 238.404C577.162 238.215 577.29 237.964 577.29 237.653C577.29 237.353 577.134 237.125 576.823 236.969C576.523 236.814 576.034 236.652 575.355 236.486C574.677 236.319 574.121 236.152 573.688 235.985C573.254 235.807 572.882 235.535 572.57 235.168C572.259 234.801 572.103 234.318 572.103 233.717C572.103 233.195 572.242 232.722 572.52 232.3C572.809 231.866 573.226 231.527 573.771 231.282C574.327 231.027 574.977 230.899 575.722 230.899C576.823 230.899 577.701 231.177 578.357 231.733C579.013 232.277 579.375 233.017 579.441 233.951H577.207C577.173 233.562 577.018 233.25 576.74 233.017C576.473 232.783 576.111 232.667 575.656 232.667C575.233 232.667 574.905 232.755 574.672 232.933C574.449 233.1 574.338 233.334 574.338 233.634C574.338 233.945 574.494 234.184 574.805 234.351C575.116 234.507 575.6 234.668 576.256 234.835C576.923 235.001 577.473 235.174 577.907 235.352C578.341 235.529 578.713 235.802 579.024 236.169C579.336 236.525 579.491 237.008 579.491 237.62C579.491 238.153 579.347 238.637 579.058 239.071C578.769 239.493 578.352 239.827 577.807 240.071C577.262 240.316 576.617 240.438 575.872 240.438ZM584.96 240.438C584.204 240.438 583.526 240.305 582.926 240.038C582.336 239.76 581.864 239.388 581.508 238.921C581.163 238.454 580.974 237.937 580.941 237.37H583.293C583.337 237.759 583.509 238.076 583.81 238.32C584.11 238.554 584.493 238.67 584.96 238.67C585.405 238.67 585.75 238.581 585.994 238.404C586.25 238.215 586.378 237.964 586.378 237.653C586.378 237.353 586.222 237.125 585.911 236.969C585.611 236.814 585.121 236.652 584.443 236.486C583.765 236.319 583.209 236.152 582.776 235.985C582.342 235.807 581.969 235.535 581.658 235.168C581.347 234.801 581.191 234.318 581.191 233.717C581.191 233.195 581.33 232.722 581.608 232.3C581.897 231.866 582.314 231.527 582.859 231.282C583.415 231.027 584.065 230.899 584.81 230.899C585.911 230.899 586.789 231.177 587.445 231.733C588.101 232.277 588.463 233.017 588.529 233.951H586.294C586.261 233.562 586.105 233.25 585.827 233.017C585.561 232.783 585.199 232.667 584.743 232.667C584.321 232.667 583.993 232.755 583.759 232.933C583.537 233.1 583.426 233.334 583.426 233.634C583.426 233.945 583.582 234.184 583.893 234.351C584.204 234.507 584.688 234.668 585.344 234.835C586.011 235.001 586.561 235.174 586.995 235.352C587.429 235.529 587.801 235.802 588.112 236.169C588.424 236.525 588.579 237.008 588.579 237.62C588.579 238.153 588.435 238.637 588.146 239.071C587.857 239.493 587.44 239.827 586.895 240.071C586.35 240.316 585.705 240.438 584.96 240.438ZM599.228 232.967H597.61V240.288H595.242V232.967H594.191V231.049H595.242V230.582C595.242 229.448 595.564 228.614 596.209 228.08C596.854 227.547 597.827 227.296 599.128 227.33V229.298C598.561 229.287 598.166 229.381 597.944 229.581C597.721 229.781 597.61 230.143 597.61 230.665V231.049H599.228V232.967ZM604.843 240.438C603.954 240.438 603.154 240.244 602.442 239.854C601.73 239.454 601.169 238.893 600.758 238.17C600.357 237.447 600.157 236.614 600.157 235.668C600.157 234.723 600.363 233.89 600.774 233.167C601.197 232.444 601.769 231.888 602.492 231.499C603.215 231.099 604.021 230.899 604.91 230.899C605.8 230.899 606.606 231.099 607.328 231.499C608.051 231.888 608.618 232.444 609.03 233.167C609.452 233.89 609.663 234.723 609.663 235.668C609.663 236.614 609.446 237.447 609.013 238.17C608.59 238.893 608.012 239.454 607.278 239.854C606.556 240.244 605.744 240.438 604.843 240.438ZM604.843 238.437C605.266 238.437 605.661 238.331 606.028 238.12C606.406 237.909 606.706 237.597 606.928 237.186C607.151 236.764 607.262 236.258 607.262 235.668C607.262 235.079 607.151 234.579 606.928 234.167C606.706 233.745 606.411 233.428 606.044 233.217C605.688 233.006 605.299 232.9 604.877 232.9C604.221 232.9 603.665 233.145 603.209 233.634C602.753 234.112 602.525 234.79 602.525 235.668C602.525 236.547 602.748 237.231 603.192 237.72C603.637 238.198 604.188 238.437 604.843 238.437ZM613.711 232.683C614.011 232.127 614.4 231.694 614.878 231.382C615.367 231.071 615.923 230.915 616.546 230.915V233.367H615.929C615.195 233.367 614.639 233.539 614.261 233.884C613.894 234.229 613.711 234.829 613.711 235.685V240.288H611.376V231.049H613.711V232.683ZM534.726 265.288L532.157 260.752H531.057V265.288H528.722V253.647H533.091C533.992 253.647 534.759 253.808 535.393 254.131C536.027 254.442 536.499 254.87 536.81 255.415C537.133 255.949 537.294 256.549 537.294 257.216C537.294 257.983 537.072 258.678 536.627 259.301C536.182 259.912 535.521 260.335 534.642 260.568L537.427 265.288H534.726ZM531.057 259.017H533.008C533.642 259.017 534.114 258.862 534.426 258.55C534.737 258.239 534.893 257.811 534.893 257.266C534.893 256.721 534.737 256.299 534.426 255.999C534.114 255.687 533.642 255.532 533.008 255.532H531.057V259.017ZM543.508 265.438C542.619 265.438 541.819 265.244 541.107 264.854C540.395 264.454 539.834 263.893 539.423 263.17C539.022 262.447 538.822 261.614 538.822 260.668C538.822 259.723 539.028 258.89 539.439 258.167C539.862 257.444 540.434 256.888 541.157 256.499C541.88 256.099 542.686 255.899 543.575 255.899C544.465 255.899 545.271 256.099 545.993 256.499C546.716 256.888 547.283 257.444 547.695 258.167C548.117 258.89 548.328 259.723 548.328 260.668C548.328 261.614 548.111 262.447 547.678 263.17C547.255 263.893 546.677 264.454 545.943 264.854C545.221 265.244 544.409 265.438 543.508 265.438ZM543.508 263.437C543.931 263.437 544.326 263.331 544.693 263.12C545.071 262.909 545.371 262.597 545.593 262.186C545.816 261.764 545.927 261.258 545.927 260.668C545.927 260.079 545.816 259.579 545.593 259.167C545.371 258.745 545.076 258.428 544.709 258.217C544.353 258.006 543.964 257.9 543.542 257.9C542.886 257.9 542.33 258.145 541.874 258.634C541.418 259.112 541.19 259.79 541.19 260.668C541.19 261.547 541.413 262.231 541.857 262.72C542.302 263.198 542.853 263.437 543.508 263.437ZM555.244 255.915C555.945 255.915 556.567 256.071 557.112 256.382C557.657 256.683 558.079 257.133 558.38 257.733C558.691 258.322 558.847 259.034 558.847 259.868V265.288H556.512V260.185C556.512 259.451 556.328 258.89 555.961 258.5C555.595 258.1 555.094 257.9 554.46 257.9C553.816 257.9 553.304 258.1 552.926 258.5C552.559 258.89 552.376 259.451 552.376 260.185V265.288H550.041V252.947H552.376V257.2C552.676 256.799 553.076 256.488 553.577 256.266C554.077 256.032 554.633 255.915 555.244 255.915ZM562.251 254.948C561.84 254.948 561.495 254.82 561.217 254.565C560.95 254.298 560.817 253.97 560.817 253.581C560.817 253.191 560.95 252.869 561.217 252.613C561.495 252.346 561.84 252.213 562.251 252.213C562.662 252.213 563.001 252.346 563.268 252.613C563.546 252.869 563.685 253.191 563.685 253.581C563.685 253.97 563.546 254.298 563.268 254.565C563.001 254.82 562.662 254.948 562.251 254.948ZM563.402 256.049V265.288H561.067V256.049H563.402ZM568.427 257.967V262.436C568.427 262.748 568.499 262.975 568.644 263.12C568.799 263.253 569.055 263.32 569.411 263.32H570.495V265.288H569.027C567.059 265.288 566.075 264.332 566.075 262.42V257.967H564.975V256.049H566.075V253.764H568.427V256.049H570.495V257.967H568.427Z" fill="#1F1F1F"/>
<rect x="471.236" y="292.427" width="156.123" height="150.739" rx="11" fill="#EDE9FE"/>
<path d="M493.481 315.689H503.668V374.057H493.481V315.689Z" fill="#8A4AF6"/>
<path d="M512.484 315.689H522.67V332.171H512.484V315.689Z" fill="#8A4AF6"/>
<path d="M567.968 347.388H557.782V363.87H567.968V347.388Z" fill="#8A4AF6"/>
<path d="M493.481 380.351H503.668V409.718H493.481V380.351Z" fill="#8A4AF6"/>
<path d="M539.712 382.004H549.898V398.486H539.712V382.004Z" fill="#8A4AF6"/>
<path d="M552.689 372.411H562.875V411.97H552.689V372.411Z" fill="#8A4AF6"/>
<path d="M548.623 332.171V342.358L512.484 342.358L512.484 332.171H548.623Z" fill="#8A4AF6"/>
<path d="M605.113 366.722H594.927V330.582L605.113 330.582V366.722Z" fill="#8A4AF6"/>
<path d="M526.044 366.722V376.908H567.242V366.722H526.044Z" fill="#8A4AF6"/>
<path d="M566.693 315.689V325.876L530.554 325.876L530.554 315.689L566.693 315.689Z" fill="#8A4AF6"/>
<path d="M605.113 315.689V325.876L572.577 325.876V315.689L605.113 315.689Z" fill="#8A4AF6"/>
<path d="M584.058 419.179H573.872L573.872 347.388H584.058L584.058 419.179Z" fill="#8A4AF6"/>
<path d="M590.647 332.171V342.358L554.507 342.358V332.171H590.647Z" fill="#8A4AF6"/>
<path d="M605.113 407.568H594.927V371.429H605.113V407.568Z" fill="#8A4AF6"/>
<path d="M526.77 348.652V358.838H508.7V348.652H526.77Z" fill="#8A4AF6"/>
<path d="M519.414 390.787H509.228L509.228 358.838H519.414L519.414 390.787Z" fill="#8A4AF6"/>
<path d="M593.346 383.499V393.685H561.728V383.499H593.346Z" fill="#8A4AF6"/>
<path d="M525.812 419.904H515.626L515.626 401.835H525.812V419.904Z" fill="#8A4AF6"/>
<path d="M547.128 388.592V398.778H509.228V388.592H547.128Z" fill="#8A4AF6"/>
<path d="M515.626 409.718L515.626 419.904L493.481 419.904L493.481 409.718H515.626Z" fill="#8A4AF6"/>
<path d="M600.019 347.388V357.574L532.674 357.574L532.674 347.388L600.019 347.388Z" fill="#8A4AF6"/>
<path d="M605.113 409.718V419.904L531.829 419.904L531.829 409.718H605.113Z" fill="#8A4AF6"/>
<defs>
<filter id="filter0_dd_702_7628" x="402.976" y="138.584" width="292.641" height="509.804" filterUnits="userSpaceOnUse" color-interpolation-filters="sRGB">
<feFlood flood-opacity="0" result="BackgroundImageFix"/>
<feColorMatrix in="SourceAlpha" type="matrix" values="0 0 0 0 0 0 0 0 0 0 0 0 0 0 0 0 0 0 127 0" result="hardAlpha"/>
<feOffset dy="3.33548"/>
<feGaussianBlur stdDeviation="2.50161"/>
<feColorMatrix type="matrix" values="0 0 0 0 0 0 0 0 0 0 0 0 0 0 0 0 0 0 0.05 0"/>
<feBlend mode="normal" in2="BackgroundImageFix" result="effect1_dropShadow_702_7628"/>
<feColorMatrix in="SourceAlpha" type="matrix" values="0 0 0 0 0 0 0 0 0 0 0 0 0 0 0 0 0 0 127 0" result="hardAlpha"/>
<feOffset dy="8.3387"/>
<feGaussianBlur stdDeviation="6.25402"/>
<feColorMatrix type="matrix" values="0 0 0 0 0 0 0 0 0 0 0 0 0 0 0 0 0 0 0.1 0"/>
<feBlend mode="normal" in2="effect1_dropShadow_702_7628" result="effect2_dropShadow_702_7628"/>
<feBlend mode="normal" in="SourceGraphic" in2="effect2_dropShadow_702_7628" result="shape"/>
</filter>
<linearGradient id="paint0_linear_702_7628" x1="64.8906" y1="35.416" x2="596.234" y2="292.785" gradientUnits="userSpaceOnUse">
<stop stop-color="#1F1F2E"/>
<stop offset="1" stop-color="#111827"/>
</linearGradient>
</defs>
</svg>
