<svg width="748" height="748" viewBox="0 0 748 748" fill="none" xmlns="http://www.w3.org/2000/svg">
<path d="M293.564 56.3124L287.324 78.6484H282.044L277.852 62.7444L273.468 78.6484L268.22 78.6804L262.204 56.3124H267.004L270.94 73.6564L275.484 56.3124H280.476L284.764 73.5604L288.732 56.3124H293.564ZM311.369 69.3684C311.369 69.9658 311.327 70.5204 311.241 71.0324H298.281C298.367 72.3338 298.804 73.3578 299.593 74.1044C300.383 74.8511 301.364 75.2244 302.537 75.2244C304.201 75.2244 305.385 74.5098 306.089 73.0804H310.921C310.409 74.7871 309.428 76.1951 307.977 77.3044C306.527 78.3924 304.745 78.9364 302.633 78.9364C300.927 78.9364 299.391 78.5631 298.025 77.8164C296.681 77.0484 295.625 75.9711 294.857 74.5844C294.111 73.1978 293.737 71.5978 293.737 69.7844C293.737 67.9498 294.111 66.3391 294.857 64.9524C295.604 63.5658 296.649 62.4991 297.993 61.7524C299.337 61.0058 300.884 60.6324 302.633 60.6324C304.319 60.6324 305.823 60.9951 307.145 61.7204C308.489 62.4458 309.524 63.4698 310.249 64.7924C310.996 66.1151 311.369 67.6404 311.369 69.3684ZM306.729 68.3124C306.708 67.0751 306.292 66.1044 305.481 65.4004C304.692 64.6751 303.7 64.3124 302.505 64.3124C301.375 64.3124 300.425 64.6751 299.657 65.4004C298.889 66.1044 298.431 67.0751 298.281 68.3124H306.729ZM317.519 54.9684V78.6484H313.039V54.9684H317.519ZM319.194 69.7844C319.194 67.9498 319.567 66.3498 320.314 64.9844C321.06 63.5978 322.095 62.5311 323.418 61.7844C324.74 61.0164 326.255 60.6324 327.962 60.6324C330.159 60.6324 331.972 61.1871 333.402 62.2964C334.852 63.3844 335.823 64.9204 336.314 66.9044H331.482C331.226 66.1364 330.788 65.5391 330.17 65.1124C329.572 64.6644 328.826 64.4404 327.93 64.4404C326.65 64.4404 325.636 64.9098 324.89 65.8484C324.143 66.7658 323.77 68.0778 323.77 69.7844C323.77 71.4698 324.143 72.7818 324.89 73.7204C325.636 74.6378 326.65 75.0964 327.93 75.0964C329.743 75.0964 330.927 74.2858 331.482 72.6644H336.314C335.823 74.5844 334.852 76.1098 333.402 77.2404C331.951 78.3711 330.138 78.9364 327.962 78.9364C326.255 78.9364 324.74 78.5631 323.418 77.8164C322.095 77.0484 321.06 75.9818 320.314 74.6164C319.567 73.2298 319.194 71.6191 319.194 69.7844ZM345.867 78.9364C344.161 78.9364 342.625 78.5631 341.259 77.8164C339.894 77.0484 338.817 75.9711 338.027 74.5844C337.259 73.1978 336.875 71.5978 336.875 69.7844C336.875 67.9711 337.27 66.3711 338.059 64.9844C338.87 63.5978 339.969 62.5311 341.355 61.7844C342.742 61.0164 344.289 60.6324 345.995 60.6324C347.702 60.6324 349.249 61.0164 350.635 61.7844C352.022 62.5311 353.11 63.5978 353.899 64.9844C354.71 66.3711 355.115 67.9711 355.115 69.7844C355.115 71.5978 354.699 73.1978 353.867 74.5844C353.057 75.9711 351.947 77.0484 350.539 77.8164C349.153 78.5631 347.595 78.9364 345.867 78.9364ZM345.867 75.0964C346.678 75.0964 347.435 74.8938 348.139 74.4884C348.865 74.0831 349.441 73.4858 349.867 72.6964C350.294 71.8858 350.507 70.9151 350.507 69.7844C350.507 68.6538 350.294 67.6938 349.867 66.9044C349.441 66.0938 348.875 65.4858 348.171 65.0804C347.489 64.6751 346.742 64.4724 345.931 64.4724C344.673 64.4724 343.606 64.9418 342.731 65.8804C341.857 66.7978 341.419 68.0991 341.419 69.7844C341.419 71.4698 341.846 72.7818 342.699 73.7204C343.553 74.6378 344.609 75.0964 345.867 75.0964ZM378.818 60.6644C380.994 60.6644 382.743 61.3364 384.066 62.6804C385.41 64.0031 386.082 65.8591 386.082 68.2484V78.6484H381.602V68.8564C381.602 67.4698 381.25 66.4138 380.546 65.6884C379.842 64.9418 378.882 64.5684 377.666 64.5684C376.45 64.5684 375.479 64.9418 374.754 65.6884C374.05 66.4138 373.698 67.4698 373.698 68.8564V78.6484H369.218V68.8564C369.218 67.4698 368.866 66.4138 368.162 65.6884C367.458 64.9418 366.498 64.5684 365.282 64.5684C364.044 64.5684 363.063 64.9418 362.338 65.6884C361.634 66.4138 361.282 67.4698 361.282 68.8564V78.6484H356.802V60.9204H361.282V63.0644C361.858 62.3178 362.594 61.7311 363.49 61.3044C364.407 60.8778 365.41 60.6644 366.498 60.6644C367.884 60.6644 369.122 60.9631 370.21 61.5604C371.298 62.1364 372.14 62.9684 372.738 64.0564C373.314 63.0324 374.146 62.2111 375.234 61.5924C376.343 60.9738 377.538 60.6644 378.818 60.6644ZM405.213 69.3684C405.213 69.9658 405.17 70.5204 405.085 71.0324H392.125C392.21 72.3338 392.648 73.3578 393.437 74.1044C394.226 74.8511 395.208 75.2244 396.381 75.2244C398.045 75.2244 399.229 74.5098 399.933 73.0804H404.765C404.253 74.7871 403.272 76.1951 401.821 77.3044C400.37 78.3924 398.589 78.9364 396.477 78.9364C394.77 78.9364 393.234 78.5631 391.869 77.8164C390.525 77.0484 389.469 75.9711 388.701 74.5844C387.954 73.1978 387.581 71.5978 387.581 69.7844C387.581 67.9498 387.954 66.3391 388.701 64.9524C389.448 63.5658 390.493 62.4991 391.837 61.7524C393.181 61.0058 394.728 60.6324 396.477 60.6324C398.162 60.6324 399.666 60.9951 400.989 61.7204C402.333 62.4458 403.368 63.4698 404.093 64.7924C404.84 66.1151 405.213 67.6404 405.213 69.3684ZM400.573 68.3124C400.552 67.0751 400.136 66.1044 399.325 65.4004C398.536 64.6751 397.544 64.3124 396.349 64.3124C395.218 64.3124 394.269 64.6751 393.501 65.4004C392.733 66.1044 392.274 67.0751 392.125 68.3124H400.573ZM430.133 63.2244C430.133 64.4191 429.845 65.5391 429.269 66.5844C428.715 67.6298 427.829 68.4724 426.613 69.1124C425.419 69.7524 423.904 70.0724 422.069 70.0724H418.325V78.6484H413.845V56.3124H422.069C423.797 56.3124 425.269 56.6111 426.485 57.2084C427.701 57.8058 428.608 58.6271 429.205 59.6724C429.824 60.7178 430.133 61.9018 430.133 63.2244ZM421.877 66.5524C423.093 66.5524 424 66.2538 424.597 65.6564C425.216 65.0591 425.525 64.2484 425.525 63.2244C425.525 62.1578 425.227 61.3364 424.629 60.7604C424.032 60.1631 423.115 59.8644 421.877 59.8644H418.325V66.5524H421.877ZM430.562 69.7204C430.562 67.9284 430.914 66.3391 431.618 64.9524C432.344 63.5658 433.314 62.4991 434.53 61.7524C435.768 61.0058 437.144 60.6324 438.658 60.6324C439.981 60.6324 441.133 60.8991 442.114 61.4324C443.117 61.9658 443.917 62.6378 444.514 63.4484V60.9204H449.026V78.6484H444.514V76.0564C443.938 76.8884 443.138 77.5818 442.114 78.1364C441.112 78.6698 439.949 78.9364 438.626 78.9364C437.133 78.9364 435.768 78.5524 434.53 77.7844C433.314 77.0164 432.344 75.9391 431.618 74.5524C430.914 73.1444 430.562 71.5338 430.562 69.7204ZM444.514 69.7844C444.514 68.6964 444.301 67.7684 443.874 67.0004C443.448 66.2111 442.872 65.6138 442.146 65.2084C441.421 64.7818 440.642 64.5684 439.81 64.5684C438.978 64.5684 438.21 64.7711 437.506 65.1764C436.802 65.5818 436.226 66.1791 435.778 66.9684C435.352 67.7364 435.138 68.6538 435.138 69.7204C435.138 70.7871 435.352 71.7258 435.778 72.5364C436.226 73.3258 436.802 73.9338 437.506 74.3604C438.232 74.7871 439 75.0004 439.81 75.0004C440.642 75.0004 441.421 74.7978 442.146 74.3924C442.872 73.9658 443.448 73.3684 443.874 72.6004C444.301 71.8111 444.514 70.8724 444.514 69.7844ZM450.65 69.7844C450.65 67.9498 451.023 66.3498 451.77 64.9844C452.516 63.5978 453.551 62.5311 454.874 61.7844C456.196 61.0164 457.711 60.6324 459.418 60.6324C461.615 60.6324 463.428 61.1871 464.858 62.2964C466.308 63.3844 467.279 64.9204 467.77 66.9044H462.938C462.682 66.1364 462.244 65.5391 461.626 65.1124C461.028 64.6644 460.282 64.4404 459.386 64.4404C458.106 64.4404 457.092 64.9098 456.346 65.8484C455.599 66.7658 455.226 68.0778 455.226 69.7844C455.226 71.4698 455.599 72.7818 456.346 73.7204C457.092 74.6378 458.106 75.0964 459.386 75.0964C461.199 75.0964 462.383 74.2858 462.938 72.6644H467.77C467.279 74.5844 466.308 76.1098 464.858 77.2404C463.407 78.3711 461.594 78.9364 459.418 78.9364C457.711 78.9364 456.196 78.5631 454.874 77.8164C453.551 77.0484 452.516 75.9818 451.77 74.6164C451.023 73.2298 450.65 71.6191 450.65 69.7844ZM479.948 78.6484L473.932 71.0964V78.6484H469.452V54.9684H473.932V68.4404L479.884 60.9204H485.708L477.9 69.8164L485.772 78.6484H479.948Z" fill="#1F1F1F"/>
<rect x="242.875" y="104.026" width="262.251" height="10.2708" rx="5.13538" fill="#D9D9D9"/>
<rect x="312.446" y="129.87" width="123.107" height="10.2708" rx="5.13538" fill="#D9D9D9"/>
<rect x="281.987" y="219.036" width="306.372" height="426.346" rx="23.9162" transform="rotate(15.1819 281.987 219.036)" fill="#C6ADDF"/>
<rect x="230.28" y="203.846" width="305.631" height="442.492" rx="23.9162" transform="rotate(8.45001 230.28 203.846)" fill="#DEC9F3"/>
<path d="M165.733 250.674C165.733 236.374 177.326 224.781 191.627 224.781H450.307C464.607 224.781 476.2 236.374 476.2 250.674V625.529C476.2 639.83 464.607 651.423 450.307 651.423H191.627C177.326 651.423 165.733 639.83 165.733 625.529V250.674Z" fill="#8A4AF6"/>
<rect opacity="0.4" x="201.397" y="369.659" width="232.84" height="8.42966" rx="4.21483" fill="white"/>
<rect opacity="0.4" x="201.397" y="397.392" width="117.956" height="8.42966" rx="4.21483" fill="white"/>
<rect opacity="0.4" x="201.397" y="424.933" width="135.977" height="8.42966" rx="4.21483" fill="white"/>
<rect x="209.829" y="185.362" width="90.4616" height="90.4616" rx="16.5612" fill="#E9D5FF"/>
<path d="M216.265 328.765C216.265 329.725 216.033 330.625 215.57 331.465C215.125 332.306 214.413 332.983 213.435 333.498C212.475 334.012 211.257 334.269 209.783 334.269H206.773V341.163H203.172V323.208H209.783C211.172 323.208 212.355 323.448 213.332 323.929C214.31 324.409 215.039 325.069 215.519 325.909C216.016 326.75 216.265 327.701 216.265 328.765ZM209.628 331.44C210.606 331.44 211.335 331.2 211.815 330.72C212.312 330.239 212.561 329.588 212.561 328.765C212.561 327.907 212.321 327.247 211.841 326.784C211.36 326.304 210.623 326.064 209.628 326.064H206.773V331.44H209.628ZM222.166 329.433C222.629 328.576 223.229 327.907 223.966 327.427C224.721 326.947 225.578 326.707 226.539 326.707V330.488H225.587C224.455 330.488 223.598 330.754 223.015 331.285C222.449 331.817 222.166 332.743 222.166 334.064V341.163H218.565V326.913H222.166V329.433ZM235.035 341.395C233.663 341.395 232.428 341.094 231.331 340.494C230.233 339.877 229.367 339.011 228.733 337.896C228.115 336.782 227.807 335.495 227.807 334.038C227.807 332.58 228.124 331.294 228.758 330.179C229.41 329.065 230.293 328.207 231.408 327.607C232.523 326.99 233.766 326.681 235.138 326.681C236.51 326.681 237.753 326.99 238.868 327.607C239.982 328.207 240.857 329.065 241.491 330.179C242.143 331.294 242.469 332.58 242.469 334.038C242.469 335.495 242.134 336.782 241.466 337.896C240.814 339.011 239.922 339.877 238.79 340.494C237.676 341.094 236.424 341.395 235.035 341.395ZM235.035 338.308C235.687 338.308 236.295 338.145 236.861 337.819C237.444 337.493 237.907 337.013 238.25 336.379C238.593 335.727 238.765 334.947 238.765 334.038C238.765 333.129 238.593 332.357 238.25 331.723C237.907 331.071 237.453 330.582 236.887 330.257C236.338 329.931 235.738 329.768 235.086 329.768C234.075 329.768 233.217 330.145 232.514 330.9C231.811 331.637 231.459 332.683 231.459 334.038C231.459 335.393 231.802 336.447 232.488 337.202C233.174 337.939 234.023 338.308 235.035 338.308ZM248.455 328.97C248.918 328.319 249.552 327.779 250.358 327.35C251.181 326.904 252.116 326.681 253.162 326.681C254.379 326.681 255.477 326.981 256.454 327.581C257.449 328.182 258.229 329.039 258.795 330.154C259.378 331.251 259.67 332.529 259.67 333.986C259.67 335.444 259.378 336.739 258.795 337.871C258.229 338.985 257.449 339.851 256.454 340.469C255.477 341.086 254.379 341.395 253.162 341.395C252.116 341.395 251.19 341.18 250.384 340.752C249.595 340.323 248.952 339.783 248.455 339.131V347.954H244.853V326.913H248.455V328.97ZM255.991 333.986C255.991 333.129 255.811 332.392 255.451 331.774C255.108 331.14 254.645 330.659 254.062 330.334C253.496 330.008 252.879 329.845 252.21 329.845C251.558 329.845 250.941 330.016 250.358 330.359C249.792 330.685 249.329 331.165 248.969 331.8C248.626 332.434 248.455 333.18 248.455 334.038C248.455 334.895 248.626 335.641 248.969 336.276C249.329 336.91 249.792 337.399 250.358 337.742C250.941 338.068 251.558 338.231 252.21 338.231C252.879 338.231 253.496 338.059 254.062 337.716C254.645 337.373 255.108 336.884 255.451 336.25C255.811 335.615 255.991 334.861 255.991 333.986ZM275.277 333.703C275.277 334.184 275.243 334.629 275.174 335.041H264.756C264.825 336.087 265.176 336.91 265.811 337.51C266.445 338.111 267.234 338.411 268.177 338.411C269.515 338.411 270.467 337.836 271.033 336.687H274.917C274.505 338.059 273.716 339.191 272.55 340.083C271.384 340.957 269.952 341.395 268.254 341.395C266.883 341.395 265.648 341.094 264.55 340.494C263.47 339.877 262.621 339.011 262.004 337.896C261.404 336.782 261.103 335.495 261.103 334.038C261.103 332.563 261.404 331.268 262.004 330.154C262.604 329.039 263.444 328.182 264.525 327.581C265.605 326.981 266.848 326.681 268.254 326.681C269.609 326.681 270.818 326.973 271.881 327.556C272.962 328.139 273.793 328.962 274.377 330.025C274.977 331.088 275.277 332.314 275.277 333.703ZM271.547 332.855C271.53 331.86 271.195 331.08 270.544 330.514C269.909 329.931 269.112 329.639 268.152 329.639C267.243 329.639 266.48 329.931 265.862 330.514C265.245 331.08 264.876 331.86 264.756 332.855H271.547ZM281.249 329.433C281.712 328.576 282.313 327.907 283.05 327.427C283.805 326.947 284.662 326.707 285.622 326.707V330.488H284.671C283.539 330.488 282.681 330.754 282.098 331.285C281.532 331.817 281.249 332.743 281.249 334.064V341.163H277.648V326.913H281.249V329.433ZM291.984 329.871V336.764C291.984 337.245 292.095 337.596 292.318 337.819C292.558 338.025 292.952 338.128 293.501 338.128H295.173V341.163H292.91C289.874 341.163 288.357 339.688 288.357 336.739V329.871H286.659V326.913H288.357V323.388H291.984V326.913H295.173V329.871H291.984ZM299.898 326.913L303.577 336.867L307.307 326.913H311.139L302.316 347.903H298.484L301.57 340.803L295.86 326.913H299.898ZM318.575 332.16C318.575 330.394 318.969 328.816 319.758 327.427C320.564 326.021 321.661 324.932 323.05 324.16C324.457 323.371 326.017 322.977 327.732 322.977C329.756 322.977 331.513 323.474 333.005 324.469C334.497 325.446 335.526 326.827 336.092 328.61H331.951C331.539 327.856 330.973 327.281 330.253 326.887C329.533 326.492 328.692 326.295 327.732 326.295C326.669 326.295 325.726 326.535 324.902 327.015C324.079 327.496 323.436 328.182 322.973 329.073C322.51 329.965 322.279 330.994 322.279 332.16C322.279 333.36 322.51 334.406 322.973 335.298C323.453 336.19 324.114 336.876 324.954 337.356C325.794 337.836 326.772 338.076 327.886 338.076C329.258 338.076 330.381 337.708 331.256 336.97C332.148 336.233 332.722 335.212 332.98 333.909H326.806V331.183H336.529V334.321C336.289 335.573 335.775 336.73 334.986 337.793C334.197 338.857 333.177 339.714 331.925 340.366C330.69 341 329.301 341.317 327.758 341.317C326.026 341.317 324.457 340.932 323.05 340.16C321.661 339.371 320.564 338.282 319.758 336.893C318.969 335.504 318.575 333.926 318.575 332.16ZM352.39 326.913V341.163H348.763V339.362C348.3 339.98 347.691 340.469 346.936 340.829C346.199 341.172 345.393 341.343 344.518 341.343C343.404 341.343 342.418 341.112 341.56 340.649C340.703 340.168 340.025 339.474 339.528 338.565C339.048 337.639 338.808 336.542 338.808 335.273V326.913H342.409V334.758C342.409 335.89 342.692 336.764 343.258 337.382C343.824 337.982 344.595 338.282 345.573 338.282C346.568 338.282 347.348 337.982 347.914 337.382C348.48 336.764 348.763 335.89 348.763 334.758V326.913H352.39ZM357.512 325.215C356.877 325.215 356.346 325.018 355.917 324.623C355.506 324.212 355.3 323.706 355.3 323.105C355.3 322.505 355.506 322.008 355.917 321.614C356.346 321.202 356.877 320.996 357.512 320.996C358.146 320.996 358.669 321.202 359.081 321.614C359.51 322.008 359.724 322.505 359.724 323.105C359.724 323.706 359.51 324.212 359.081 324.623C358.669 325.018 358.146 325.215 357.512 325.215ZM359.287 326.913V341.163H355.686V326.913H359.287ZM361.662 333.986C361.662 332.546 361.945 331.268 362.51 330.154C363.093 329.039 363.882 328.182 364.877 327.581C365.872 326.981 366.978 326.681 368.195 326.681C369.121 326.681 370.004 326.887 370.845 327.298C371.685 327.693 372.354 328.224 372.851 328.893V322.128H376.504V341.163H372.851V339.054C372.405 339.757 371.779 340.323 370.973 340.752C370.167 341.18 369.233 341.395 368.169 341.395C366.969 341.395 365.872 341.086 364.877 340.469C363.882 339.851 363.093 338.985 362.51 337.871C361.945 336.739 361.662 335.444 361.662 333.986ZM372.877 334.038C372.877 333.163 372.705 332.417 372.362 331.8C372.019 331.165 371.556 330.685 370.973 330.359C370.39 330.016 369.764 329.845 369.096 329.845C368.427 329.845 367.809 330.008 367.243 330.334C366.678 330.659 366.215 331.14 365.854 331.774C365.511 332.392 365.34 333.129 365.34 333.986C365.34 334.844 365.511 335.598 365.854 336.25C366.215 336.884 366.678 337.373 367.243 337.716C367.827 338.059 368.444 338.231 369.096 338.231C369.764 338.231 370.39 338.068 370.973 337.742C371.556 337.399 372.019 336.919 372.362 336.301C372.705 335.667 372.877 334.912 372.877 334.038ZM393.011 333.703C393.011 334.184 392.977 334.629 392.908 335.041H382.49C382.559 336.087 382.911 336.91 383.545 337.51C384.18 338.111 384.968 338.411 385.912 338.411C387.249 338.411 388.201 337.836 388.767 336.687H392.651C392.239 338.059 391.451 339.191 390.285 340.083C389.118 340.957 387.686 341.395 385.989 341.395C384.617 341.395 383.382 341.094 382.285 340.494C381.204 339.877 380.355 339.011 379.738 337.896C379.138 336.782 378.838 335.495 378.838 334.038C378.838 332.563 379.138 331.268 379.738 330.154C380.338 329.039 381.179 328.182 382.259 327.581C383.339 326.981 384.583 326.681 385.989 326.681C387.344 326.681 388.552 326.973 389.616 327.556C390.696 328.139 391.528 328.962 392.111 330.025C392.711 331.088 393.011 332.314 393.011 333.703ZM389.281 332.855C389.264 331.86 388.93 331.08 388.278 330.514C387.644 329.931 386.846 329.639 385.886 329.639C384.977 329.639 384.214 329.931 383.597 330.514C382.979 331.08 382.61 331.86 382.49 332.855H389.281Z" fill="white"/>
<path d="M251.454 208.804C253.551 207.087 256.568 207.087 258.666 208.804L276.201 223.156C277.522 224.237 278.287 225.855 278.288 227.562V250.095C278.287 253.239 275.738 255.787 272.594 255.787H237.525C234.381 255.787 231.833 253.239 231.833 250.095V227.562C231.833 225.855 232.599 224.237 233.919 223.156L251.454 208.804Z" stroke="#8A4AF6" stroke-width="3.10523"/>
<rect x="201.397" y="573.415" width="246.355" height="41.8811" rx="8.57436" fill="#B992FA"/>
<g filter="url(#filter0_dd_693_5436)">
<rect x="548.281" y="487.888" width="90.4616" height="90.4616" rx="16.5612" transform="rotate(-19.0118 548.281 487.888)" fill="white"/>
</g>
<g filter="url(#filter1_dd_693_5436)">
<rect x="51.9653" y="339.54" width="90.4616" height="90.4616" rx="16.5612" transform="rotate(14.441 51.9653 339.54)" fill="#EDE9FE"/>
</g>
<rect x="573.108" y="502.934" width="53.3193" height="45.836" rx="8" transform="rotate(-19.0118 573.108 502.934)" stroke="#8A4AF6" stroke-width="2"/>
<path d="M583.831 532.995L598.821 516.465C600.202 514.942 602.67 515.227 603.667 517.025L605.478 520.29C606.485 522.104 608.984 522.373 610.354 520.815L619.614 510.284C620.733 509.011 622.684 508.918 623.92 510.078L634.915 520.402" stroke="#8A4AF6" stroke-width="2"/>
<circle cx="587.751" cy="511.618" r="6.17188" transform="rotate(-19.0118 587.751 511.618)" stroke="#8A4AF6" stroke-width="2"/>
<path d="M92.2504 371.296L106.276 395.831M92.2504 371.296L90.6028 370.872L72.7817 366.283C71.1772 365.87 69.5415 366.835 69.1283 368.44L58.3929 410.128C57.9797 411.732 58.9455 413.368 60.55 413.781L96.1923 422.96C97.7968 423.373 99.4325 422.407 99.8456 420.803L105.213 399.959L106.276 395.831M92.2504 371.296L87.9455 388.013C87.5323 389.617 88.4981 391.253 90.1026 391.666L106.276 395.831" stroke="#8A4AF6" stroke-width="2"/>
<defs>
<filter id="filter0_dd_693_5436" x="540.769" y="460.906" width="130.021" height="130.022" filterUnits="userSpaceOnUse" color-interpolation-filters="sRGB">
<feFlood flood-opacity="0" result="BackgroundImageFix"/>
<feColorMatrix in="SourceAlpha" type="matrix" values="0 0 0 0 0 0 0 0 0 0 0 0 0 0 0 0 0 0 127 0" result="hardAlpha"/>
<feMorphology radius="2" operator="erode" in="SourceAlpha" result="effect1_dropShadow_693_5436"/>
<feOffset dy="4"/>
<feGaussianBlur stdDeviation="3"/>
<feColorMatrix type="matrix" values="0 0 0 0 0 0 0 0 0 0 0 0 0 0 0 0 0 0 0.05 0"/>
<feBlend mode="normal" in2="BackgroundImageFix" result="effect1_dropShadow_693_5436"/>
<feColorMatrix in="SourceAlpha" type="matrix" values="0 0 0 0 0 0 0 0 0 0 0 0 0 0 0 0 0 0 127 0" result="hardAlpha"/>
<feMorphology radius="3" operator="erode" in="SourceAlpha" result="effect2_dropShadow_693_5436"/>
<feOffset dy="10"/>
<feGaussianBlur stdDeviation="7.5"/>
<feColorMatrix type="matrix" values="0 0 0 0 0 0 0 0 0 0 0 0 0 0 0 0 0 0 0.1 0"/>
<feBlend mode="normal" in2="effect1_dropShadow_693_5436" result="effect2_dropShadow_693_5436"/>
<feBlend mode="normal" in="SourceGraphic" in2="effect2_dropShadow_693_5436" result="shape"/>
</filter>
<filter id="filter1_dd_693_5436" x="21.0088" y="341.143" width="126.957" height="126.957" filterUnits="userSpaceOnUse" color-interpolation-filters="sRGB">
<feFlood flood-opacity="0" result="BackgroundImageFix"/>
<feColorMatrix in="SourceAlpha" type="matrix" values="0 0 0 0 0 0 0 0 0 0 0 0 0 0 0 0 0 0 127 0" result="hardAlpha"/>
<feMorphology radius="2" operator="erode" in="SourceAlpha" result="effect1_dropShadow_693_5436"/>
<feOffset dy="4"/>
<feGaussianBlur stdDeviation="3"/>
<feColorMatrix type="matrix" values="0 0 0 0 0 0 0 0 0 0 0 0 0 0 0 0 0 0 0.05 0"/>
<feBlend mode="normal" in2="BackgroundImageFix" result="effect1_dropShadow_693_5436"/>
<feColorMatrix in="SourceAlpha" type="matrix" values="0 0 0 0 0 0 0 0 0 0 0 0 0 0 0 0 0 0 127 0" result="hardAlpha"/>
<feMorphology radius="3" operator="erode" in="SourceAlpha" result="effect2_dropShadow_693_5436"/>
<feOffset dy="10"/>
<feGaussianBlur stdDeviation="7.5"/>
<feColorMatrix type="matrix" values="0 0 0 0 0 0 0 0 0 0 0 0 0 0 0 0 0 0 0.1 0"/>
<feBlend mode="normal" in2="effect1_dropShadow_693_5436" result="effect2_dropShadow_693_5436"/>
<feBlend mode="normal" in="SourceGraphic" in2="effect2_dropShadow_693_5436" result="shape"/>
</filter>
</defs>
</svg>
