<svg width="320" height="320" viewBox="0 0 320 320" fill="none" xmlns="http://www.w3.org/2000/svg">
  <rect width="320" height="320" rx="48" fill="#17120D"/>
  <circle cx="160" cy="156" r="94" fill="#F6B73C"/>
  <path d="M84 136C104 96 130 76 160 76C190 76 216 96 236 136L210 124C197 104 180 94 160 94C140 94 123 104 110 124L84 136Z" fill="#FFF5DA"/>
  <path d="M92 158L132 146L124 166L92 158Z" fill="#17120D"/>
  <path d="M228 158L188 146L196 166L228 158Z" fill="#17120D"/>
  <path d="M124 202C148 218 172 218 196 202" stroke="#17120D" stroke-width="12" stroke-linecap="round"/>
  <path d="M154 176H166L160 190L154 176Z" fill="#17120D"/>
  <path d="M108 76L126 24L148 84L108 76Z" fill="#F05A28"/>
  <path d="M212 76L194 24L172 84L212 76Z" fill="#F05A28"/>
  <path d="M98 224L72 260H132L98 224Z" fill="#1F7A5B"/>
  <path d="M222 224L248 260H188L222 224Z" fill="#1F7A5B"/>
  <path d="M92 122L124 112" stroke="#17120D" stroke-width="10" stroke-linecap="round"/>
  <path d="M228 122L196 112" stroke="#17120D" stroke-width="10" stroke-linecap="round"/>
  <path d="M78 180L116 174" stroke="#17120D" stroke-width="8" stroke-linecap="round"/>
  <path d="M242 180L204 174" stroke="#17120D" stroke-width="8" stroke-linecap="round"/>
</svg>
